<?xml version="1.0" encoding="utf-8" standalone="no"?>
<!DOCTYPE svg PUBLIC "-//W3C//DTD SVG 1.1//EN"
  "http://www.w3.org/Graphics/SVG/1.1/DTD/svg11.dtd">
<svg xmlns:xlink="http://www.w3.org/1999/xlink" width="360pt" height="108pt" viewBox="0 0 360 108" xmlns="http://www.w3.org/2000/svg" version="1.1">
 <metadata>
  <rdf:RDF xmlns:dc="http://purl.org/dc/elements/1.1/" xmlns:cc="http://creativecommons.org/ns#" xmlns:rdf="http://www.w3.org/1999/02/22-rdf-syntax-ns#">
   <cc:Work>
    <dc:type rdf:resource="http://purl.org/dc/dcmitype/StillImage"/>
    <dc:date>2022-11-19T11:31:16.514851</dc:date>
    <dc:format>image/svg+xml</dc:format>
    <dc:creator>
     <cc:Agent>
      <dc:title>Matplotlib v3.5.2, https://matplotlib.org/</dc:title>
     </cc:Agent>
    </dc:creator>
   </cc:Work>
  </rdf:RDF>
 </metadata>
 <defs>
  <style type="text/css">*{stroke-linejoin: round; stroke-linecap: butt}</style>
 </defs>
 <g id="figure_1">
  <g id="patch_1">
   <path d="M 0 108 
L 360 108 
L 360 0 
L 0 0 
L 0 108 
z
" style="fill: none"/>
  </g>
  <g id="axes_1">
   <g id="line2d_1">
    <path d="M 57.681818 41.243085 
L 62.858071 41.094151 
L 68.034323 41.012223 
L 73.210575 41.030241 
L 78.386827 40.922975 
L 83.56308 40.677472 
L 88.739332 40.487714 
L 93.915584 40.542896 
L 99.091837 40.7228 
L 104.268089 40.64425 
L 109.444341 40.828659 
L 114.620594 41.124557 
L 119.796846 41.214931 
L 124.973098 45.307674 
L 130.149351 56.355293 
L 135.325603 69.031338 
L 140.501855 79.852317 
L 145.678108 87.902946 
L 150.85436 87.755137 
L 156.030612 80.737478 
L 161.206865 74.390447 
L 166.383117 69.988855 
L 171.559369 65.950167 
L 176.735622 62.733294 
L 181.911874 60.33176 
L 187.088126 58.144478 
L 192.264378 56.384292 
L 197.440631 55.154526 
L 202.616883 54.116208 
L 207.793135 53.126596 
L 212.969388 52.270152 
L 218.14564 51.418494 
L 223.321892 50.720839 
L 228.498145 50.103704 
L 233.674397 49.446027 
L 238.850649 48.761885 
L 244.026902 47.83928 
L 249.203154 47.067861 
L 254.379406 46.480006 
L 259.555659 45.566973 
L 264.731911 44.698704 
L 269.908163 44.098461 
L 275.084416 43.334081 
L 280.260668 42.388952 
L 285.43692 41.682006 
L 290.613173 41.190719 
L 295.789425 40.803883 
L 300.965677 40.495034 
L 306.141929 40.15409 
L 311.318182 40.061463 
" clip-path="url(#pe526fc6904)" style="fill: none; stroke: #7e2f8e; stroke-width: 5; stroke-linecap: square"/>
   </g>
  </g>
 </g>
 <defs>
  <clipPath id="pe526fc6904">
   <rect x="45" y="12.96" width="279" height="83.16"/>
  </clipPath>
 </defs>
</svg>
