<?xml version="1.0" encoding="utf-8" standalone="no"?>
<!DOCTYPE svg PUBLIC "-//W3C//DTD SVG 1.1//EN"
  "http://www.w3.org/Graphics/SVG/1.1/DTD/svg11.dtd">
<svg xmlns:xlink="http://www.w3.org/1999/xlink" width="360pt" height="108pt" viewBox="0 0 360 108" xmlns="http://www.w3.org/2000/svg" version="1.1">
 <metadata>
  <rdf:RDF xmlns:dc="http://purl.org/dc/elements/1.1/" xmlns:cc="http://creativecommons.org/ns#" xmlns:rdf="http://www.w3.org/1999/02/22-rdf-syntax-ns#">
   <cc:Work>
    <dc:type rdf:resource="http://purl.org/dc/dcmitype/StillImage"/>
    <dc:date>2022-11-19T11:31:16.394346</dc:date>
    <dc:format>image/svg+xml</dc:format>
    <dc:creator>
     <cc:Agent>
      <dc:title>Matplotlib v3.5.2, https://matplotlib.org/</dc:title>
     </cc:Agent>
    </dc:creator>
   </cc:Work>
  </rdf:RDF>
 </metadata>
 <defs>
  <style type="text/css">*{stroke-linejoin: round; stroke-linecap: butt}</style>
 </defs>
 <g id="figure_1">
  <g id="patch_1">
   <path d="M 0 108 
L 360 108 
L 360 0 
L 0 0 
L 0 108 
z
" style="fill: none"/>
  </g>
  <g id="axes_1">
   <g id="line2d_1">
    <path d="M 57.681818 47.221582 
L 62.858071 47.231998 
L 68.034323 47.365167 
L 73.210575 47.262968 
L 78.386827 47.092636 
L 83.56308 47.094607 
L 88.739332 47.134023 
L 93.915584 47.152886 
L 99.091837 47.040833 
L 104.268089 46.927372 
L 109.444341 46.832775 
L 114.620594 46.704111 
L 119.796846 46.534061 
L 124.973098 46.011805 
L 130.149351 45.470967 
L 135.325603 45.483918 
L 140.501855 47.293374 
L 145.678108 51.926955 
L 150.85436 56.634018 
L 156.030612 57.988787 
L 161.206865 57.112072 
L 166.383117 56.065307 
L 171.559369 55.061337 
L 176.735622 53.917159 
L 181.911874 52.992583 
L 187.088126 52.417116 
L 192.264378 51.791534 
L 197.440631 51.082336 
L 202.616883 50.680297 
L 207.793135 50.216601 
L 212.969388 49.647046 
L 218.14564 49.458415 
L 223.321892 49.433639 
L 228.498145 49.21263 
L 233.674397 49.147876 
L 238.850649 49.00767 
L 244.026902 48.576914 
L 249.203154 48.238503 
L 254.379406 48.092947 
L 259.555659 48.008767 
L 264.731911 47.975826 
L 269.908163 47.886578 
L 275.084416 47.814504 
L 280.260668 47.774807 
L 285.43692 47.567031 
L 290.613173 47.274229 
L 295.789425 47.130363 
L 300.965677 47.015213 
L 306.141929 46.999728 
L 311.318182 47.106995 
" clip-path="url(#ped97a796ec)" style="fill: none; stroke: #7e2f8e; stroke-width: 5; stroke-linecap: square"/>
   </g>
  </g>
 </g>
 <defs>
  <clipPath id="ped97a796ec">
   <rect x="45" y="12.96" width="279" height="83.16"/>
  </clipPath>
 </defs>
</svg>
