<?xml version="1.0" encoding="utf-8" standalone="no"?>
<!DOCTYPE svg PUBLIC "-//W3C//DTD SVG 1.1//EN"
  "http://www.w3.org/Graphics/SVG/1.1/DTD/svg11.dtd">
<svg xmlns:xlink="http://www.w3.org/1999/xlink" width="360pt" height="108pt" viewBox="0 0 360 108" xmlns="http://www.w3.org/2000/svg" version="1.1">
 <metadata>
  <rdf:RDF xmlns:dc="http://purl.org/dc/elements/1.1/" xmlns:cc="http://creativecommons.org/ns#" xmlns:rdf="http://www.w3.org/1999/02/22-rdf-syntax-ns#">
   <cc:Work>
    <dc:type rdf:resource="http://purl.org/dc/dcmitype/StillImage"/>
    <dc:date>2022-11-19T11:31:16.484676</dc:date>
    <dc:format>image/svg+xml</dc:format>
    <dc:creator>
     <cc:Agent>
      <dc:title>Matplotlib v3.5.2, https://matplotlib.org/</dc:title>
     </cc:Agent>
    </dc:creator>
   </cc:Work>
  </rdf:RDF>
 </metadata>
 <defs>
  <style type="text/css">*{stroke-linejoin: round; stroke-linecap: butt}</style>
 </defs>
 <g id="figure_1">
  <g id="patch_1">
   <path d="M 0 108 
L 360 108 
L 360 0 
L 0 0 
L 0 108 
z
" style="fill: none"/>
  </g>
  <g id="axes_1">
   <g id="line2d_1">
    <path d="M 57.681818 43.14376 
L 62.858071 43.219494 
L 68.034323 43.205136 
L 73.210575 43.012563 
L 78.386827 42.871511 
L 83.56308 43.034241 
L 88.739332 42.975962 
L 93.915584 42.703714 
L 99.091837 42.917121 
L 104.268089 43.0669 
L 109.444341 42.990884 
L 114.620594 43.265104 
L 119.796846 42.842513 
L 124.973098 42.799719 
L 130.149351 45.87188 
L 135.325603 50.570215 
L 140.501855 59.408592 
L 145.678108 75.702985 
L 150.85436 86.768059 
L 156.030612 83.631707 
L 161.206865 76.201592 
L 166.383117 71.162594 
L 171.559369 66.701034 
L 176.735622 63.016242 
L 181.911874 60.432552 
L 187.088126 57.895034 
L 192.264378 55.92313 
L 197.440631 54.662676 
L 202.616883 53.453745 
L 207.793135 52.488345 
L 212.969388 51.821378 
L 218.14564 51.023776 
L 223.321892 50.166487 
L 228.498145 49.363817 
L 233.674397 48.779341 
L 238.850649 48.314237 
L 244.026902 47.571535 
L 249.203154 46.841503 
L 254.379406 46.128644 
L 259.555659 45.19534 
L 264.731911 44.555119 
L 269.908163 44.087481 
L 275.084416 43.316626 
L 280.260668 42.595321 
L 285.43692 42.317441 
L 290.613173 42.096714 
L 295.789425 41.740848 
L 300.965677 41.497034 
L 306.141929 41.50914 
L 311.318182 41.675812 
" clip-path="url(#pc88b1a4d8d)" style="fill: none; stroke: #7e2f8e; stroke-width: 5; stroke-linecap: square"/>
   </g>
  </g>
 </g>
 <defs>
  <clipPath id="pc88b1a4d8d">
   <rect x="45" y="12.96" width="279" height="83.16"/>
  </clipPath>
 </defs>
</svg>
