<?xml version="1.0" encoding="utf-8" standalone="no"?>
<!DOCTYPE svg PUBLIC "-//W3C//DTD SVG 1.1//EN"
  "http://www.w3.org/Graphics/SVG/1.1/DTD/svg11.dtd">
<svg xmlns:xlink="http://www.w3.org/1999/xlink" width="360pt" height="108pt" viewBox="0 0 360 108" xmlns="http://www.w3.org/2000/svg" version="1.1">
 <metadata>
  <rdf:RDF xmlns:dc="http://purl.org/dc/elements/1.1/" xmlns:cc="http://creativecommons.org/ns#" xmlns:rdf="http://www.w3.org/1999/02/22-rdf-syntax-ns#">
   <cc:Work>
    <dc:type rdf:resource="http://purl.org/dc/dcmitype/StillImage"/>
    <dc:date>2022-11-19T11:31:16.444345</dc:date>
    <dc:format>image/svg+xml</dc:format>
    <dc:creator>
     <cc:Agent>
      <dc:title>Matplotlib v3.5.2, https://matplotlib.org/</dc:title>
     </cc:Agent>
    </dc:creator>
   </cc:Work>
  </rdf:RDF>
 </metadata>
 <defs>
  <style type="text/css">*{stroke-linejoin: round; stroke-linecap: butt}</style>
 </defs>
 <g id="figure_1">
  <g id="patch_1">
   <path d="M 0 108 
L 360 108 
L 360 0 
L 0 0 
L 0 108 
z
" style="fill: none"/>
  </g>
  <g id="axes_1">
   <g id="line2d_1">
    <path d="M 57.681818 46.482821 
L 62.858071 46.361478 
L 68.034323 46.514354 
L 73.210575 46.51914 
L 78.386827 46.433833 
L 83.56308 46.434115 
L 88.739332 46.350498 
L 93.915584 46.249143 
L 99.091837 46.311927 
L 104.268089 46.399204 
L 109.444341 46.461987 
L 114.620594 46.408776 
L 119.796846 46.046998 
L 124.973098 45.676491 
L 130.149351 46.204942 
L 135.325603 47.85392 
L 140.501855 51.252104 
L 145.678108 56.732838 
L 150.85436 60.998728 
L 156.030612 61.293782 
L 161.206865 59.747002 
L 166.383117 58.284403 
L 171.559369 56.71679 
L 176.735622 55.26489 
L 181.911874 54.204893 
L 187.088126 53.285103 
L 192.264378 52.363342 
L 197.440631 51.550536 
L 202.616883 50.971128 
L 207.793135 50.345546 
L 212.969388 49.862424 
L 218.14564 49.791476 
L 223.321892 49.562866 
L 228.498145 49.060317 
L 233.674397 48.822416 
L 238.850649 48.600563 
L 244.026902 48.249483 
L 249.203154 47.954148 
L 254.379406 47.657687 
L 259.555659 47.406553 
L 264.731911 47.365167 
L 269.908163 47.243823 
L 275.084416 46.876695 
L 280.260668 46.509286 
L 285.43692 46.370487 
L 290.613173 46.329945 
L 295.789425 46.323188 
L 300.965677 46.28518 
L 306.141929 46.225212 
L 311.318182 46.305733 
" clip-path="url(#pe9bc285aca)" style="fill: none; stroke: #7e2f8e; stroke-width: 5; stroke-linecap: square"/>
   </g>
  </g>
 </g>
 <defs>
  <clipPath id="pe9bc285aca">
   <rect x="45" y="12.96" width="279" height="83.16"/>
  </clipPath>
 </defs>
</svg>
