<?xml version="1.0" encoding="utf-8" standalone="no"?>
<!DOCTYPE svg PUBLIC "-//W3C//DTD SVG 1.1//EN"
  "http://www.w3.org/Graphics/SVG/1.1/DTD/svg11.dtd">
<svg xmlns:xlink="http://www.w3.org/1999/xlink" width="360pt" height="108pt" viewBox="0 0 360 108" xmlns="http://www.w3.org/2000/svg" version="1.1">
 <metadata>
  <rdf:RDF xmlns:dc="http://purl.org/dc/elements/1.1/" xmlns:cc="http://creativecommons.org/ns#" xmlns:rdf="http://www.w3.org/1999/02/22-rdf-syntax-ns#">
   <cc:Work>
    <dc:type rdf:resource="http://purl.org/dc/dcmitype/StillImage"/>
    <dc:date>2022-11-19T11:30:11.292362</dc:date>
    <dc:format>image/svg+xml</dc:format>
    <dc:creator>
     <cc:Agent>
      <dc:title>Matplotlib v3.5.2, https://matplotlib.org/</dc:title>
     </cc:Agent>
    </dc:creator>
   </cc:Work>
  </rdf:RDF>
 </metadata>
 <defs>
  <style type="text/css">*{stroke-linejoin: round; stroke-linecap: butt}</style>
 </defs>
 <g id="figure_1">
  <g id="patch_1">
   <path d="M 0 108 
L 360 108 
L 360 0 
L 0 0 
L 0 108 
z
" style="fill: none"/>
  </g>
  <g id="axes_1">
   <g id="line2d_1">
    <path d="M 57.681818 42.15228 
L 62.858071 41.748668 
L 68.034323 41.561583 
L 73.210575 41.355119 
L 78.386827 41.235117 
L 83.56308 41.382325 
L 88.739332 41.329777 
L 93.915584 41.306298 
L 99.091837 41.640964 
L 104.268089 42.17315 
L 109.444341 42.917762 
L 114.620594 44.345496 
L 119.796846 46.499954 
L 124.973098 49.551822 
L 130.149351 54.618394 
L 135.325603 61.501776 
L 140.501855 68.267392 
L 145.678108 72.800287 
L 150.85436 73.767389 
L 156.030612 71.974058 
L 161.206865 69.50804 
L 166.383117 67.257059 
L 171.559369 65.007195 
L 176.735622 62.523289 
L 181.911874 60.175784 
L 187.088126 58.367173 
L 192.264378 56.842915 
L 197.440631 55.332447 
L 202.616883 53.891297 
L 207.793135 52.485552 
L 212.969388 51.289625 
L 218.14564 50.57669 
L 223.321892 49.765367 
L 228.498145 48.837769 
L 233.674397 48.398381 
L 238.850649 48.086821 
L 244.026902 47.475255 
L 249.203154 46.908782 
L 254.379406 46.502562 
L 259.555659 46.227525 
L 264.731911 45.90553 
L 269.908163 45.495211 
L 275.084416 45.071475 
L 280.260668 44.64513 
L 285.43692 44.118907 
L 290.613173 43.707469 
L 295.789425 43.528956 
L 300.965677 43.242739 
L 306.141929 43.072424 
L 311.318182 43.125345 
" clip-path="url(#p9e2342c031)" style="fill: none; stroke: #edb120; stroke-width: 5; stroke-linecap: square"/>
   </g>
  </g>
 </g>
 <defs>
  <clipPath id="p9e2342c031">
   <rect x="45" y="12.96" width="279" height="83.16"/>
  </clipPath>
 </defs>
</svg>
