<?xml version="1.0" encoding="utf-8" standalone="no"?>
<!DOCTYPE svg PUBLIC "-//W3C//DTD SVG 1.1//EN"
  "http://www.w3.org/Graphics/SVG/1.1/DTD/svg11.dtd">
<svg xmlns:xlink="http://www.w3.org/1999/xlink" width="360pt" height="108pt" viewBox="0 0 360 108" xmlns="http://www.w3.org/2000/svg" version="1.1">
 <metadata>
  <rdf:RDF xmlns:dc="http://purl.org/dc/elements/1.1/" xmlns:cc="http://creativecommons.org/ns#" xmlns:rdf="http://www.w3.org/1999/02/22-rdf-syntax-ns#">
   <cc:Work>
    <dc:type rdf:resource="http://purl.org/dc/dcmitype/StillImage"/>
    <dc:date>2022-11-19T11:30:11.202316</dc:date>
    <dc:format>image/svg+xml</dc:format>
    <dc:creator>
     <cc:Agent>
      <dc:title>Matplotlib v3.5.2, https://matplotlib.org/</dc:title>
     </cc:Agent>
    </dc:creator>
   </cc:Work>
  </rdf:RDF>
 </metadata>
 <defs>
  <style type="text/css">*{stroke-linejoin: round; stroke-linecap: butt}</style>
 </defs>
 <g id="figure_1">
  <g id="patch_1">
   <path d="M 0 108 
L 360 108 
L 360 0 
L 0 0 
L 0 108 
z
" style="fill: none"/>
  </g>
  <g id="axes_1">
   <g id="line2d_1">
    <path d="M 57.681818 44.28214 
L 62.858071 44.200896 
L 68.034323 44.120398 
L 73.210575 43.757408 
L 78.386827 43.512558 
L 83.56308 43.508086 
L 88.739332 43.350816 
L 93.915584 43.228577 
L 99.091837 43.119009 
L 104.268089 42.94944 
L 109.444341 42.902855 
L 114.620594 42.688938 
L 119.796846 41.911902 
L 124.973098 40.261306 
L 130.149351 37.843737 
L 135.325603 35.615862 
L 140.501855 36.129786 
L 145.678108 43.532683 
L 150.85436 56.844033 
L 156.030612 67.605886 
L 161.206865 71.359883 
L 166.383117 71.289074 
L 171.559369 69.935131 
L 176.735622 67.754213 
L 181.911874 65.48497 
L 187.088126 63.340947 
L 192.264378 61.175309 
L 197.440631 59.226943 
L 202.616883 57.540198 
L 207.793135 55.883639 
L 212.969388 54.331804 
L 218.14564 53.273023 
L 223.321892 52.313747 
L 228.498145 51.341054 
L 233.674397 50.619548 
L 238.850649 49.863009 
L 244.026902 48.927958 
L 249.203154 48.419623 
L 254.379406 48.36484 
L 259.555659 48.215768 
L 264.731911 47.852778 
L 269.908163 47.478609 
L 275.084416 47.01835 
L 280.260668 46.731015 
L 285.43692 46.605422 
L 290.613173 46.236469 
L 295.789425 45.779565 
L 300.965677 45.528752 
L 306.141929 45.331977 
L 311.318182 45.238062 
" clip-path="url(#p0e3d53b9d6)" style="fill: none; stroke: #edb120; stroke-width: 5; stroke-linecap: square"/>
   </g>
  </g>
 </g>
 <defs>
  <clipPath id="p0e3d53b9d6">
   <rect x="45" y="12.96" width="279" height="83.16"/>
  </clipPath>
 </defs>
</svg>
