<?xml version="1.0" encoding="utf-8" standalone="no"?>
<!DOCTYPE svg PUBLIC "-//W3C//DTD SVG 1.1//EN"
  "http://www.w3.org/Graphics/SVG/1.1/DTD/svg11.dtd">
<svg xmlns:xlink="http://www.w3.org/1999/xlink" width="360pt" height="108pt" viewBox="0 0 360 108" xmlns="http://www.w3.org/2000/svg" version="1.1">
 <metadata>
  <rdf:RDF xmlns:dc="http://purl.org/dc/elements/1.1/" xmlns:cc="http://creativecommons.org/ns#" xmlns:rdf="http://www.w3.org/1999/02/22-rdf-syntax-ns#">
   <cc:Work>
    <dc:type rdf:resource="http://purl.org/dc/dcmitype/StillImage"/>
    <dc:date>2022-11-19T11:30:11.272352</dc:date>
    <dc:format>image/svg+xml</dc:format>
    <dc:creator>
     <cc:Agent>
      <dc:title>Matplotlib v3.5.2, https://matplotlib.org/</dc:title>
     </cc:Agent>
    </dc:creator>
   </cc:Work>
  </rdf:RDF>
 </metadata>
 <defs>
  <style type="text/css">*{stroke-linejoin: round; stroke-linecap: butt}</style>
 </defs>
 <g id="figure_1">
  <g id="patch_1">
   <path d="M 0 108 
L 360 108 
L 360 0 
L 0 0 
L 0 108 
z
" style="fill: none"/>
  </g>
  <g id="axes_1">
   <g id="line2d_1">
    <path d="M 57.681818 44.807618 
L 62.858071 44.662646 
L 68.034323 44.593327 
L 73.210575 44.407733 
L 78.386827 43.918406 
L 83.56308 43.650449 
L 88.739332 43.660884 
L 93.915584 43.571814 
L 99.091837 43.540882 
L 104.268089 43.645232 
L 109.444341 43.790204 
L 114.620594 44.360403 
L 119.796846 45.142284 
L 124.973098 45.86379 
L 130.149351 47.71526 
L 135.325603 51.001171 
L 140.501855 54.54833 
L 145.678108 57.713494 
L 150.85436 60.311439 
L 156.030612 61.90576 
L 161.206865 62.353348 
L 166.383117 62.017191 
L 171.559369 61.137296 
L 176.735622 60.145597 
L 181.911874 59.39204 
L 187.088126 58.308289 
L 192.264378 56.745273 
L 197.440631 55.449468 
L 202.616883 54.272175 
L 207.793135 52.900344 
L 212.969388 52.05548 
L 218.14564 51.68541 
L 223.321892 50.798061 
L 228.498145 49.745615 
L 233.674397 49.462379 
L 238.850649 49.3025 
L 244.026902 48.744972 
L 249.203154 48.342851 
L 254.379406 47.982471 
L 259.555659 47.440223 
L 264.731911 47.030276 
L 269.908163 46.817476 
L 275.084416 46.529022 
L 280.260668 46.330385 
L 285.43692 46.167524 
L 290.613173 45.61335 
L 295.789425 45.412849 
L 300.965677 45.803416 
L 306.141929 45.66068 
L 311.318182 45.206757 
" clip-path="url(#p4192899d95)" style="fill: none; stroke: #edb120; stroke-width: 5; stroke-linecap: square"/>
   </g>
  </g>
 </g>
 <defs>
  <clipPath id="p4192899d95">
   <rect x="45" y="12.96" width="279" height="83.16"/>
  </clipPath>
 </defs>
</svg>
