<?xml version="1.0" encoding="utf-8" standalone="no"?>
<!DOCTYPE svg PUBLIC "-//W3C//DTD SVG 1.1//EN"
  "http://www.w3.org/Graphics/SVG/1.1/DTD/svg11.dtd">
<svg xmlns:xlink="http://www.w3.org/1999/xlink" width="360pt" height="108pt" viewBox="0 0 360 108" xmlns="http://www.w3.org/2000/svg" version="1.1">
 <metadata>
  <rdf:RDF xmlns:dc="http://purl.org/dc/elements/1.1/" xmlns:cc="http://creativecommons.org/ns#" xmlns:rdf="http://www.w3.org/1999/02/22-rdf-syntax-ns#">
   <cc:Work>
    <dc:type rdf:resource="http://purl.org/dc/dcmitype/StillImage"/>
    <dc:date>2022-11-19T11:30:11.232338</dc:date>
    <dc:format>image/svg+xml</dc:format>
    <dc:creator>
     <cc:Agent>
      <dc:title>Matplotlib v3.5.2, https://matplotlib.org/</dc:title>
     </cc:Agent>
    </dc:creator>
   </cc:Work>
  </rdf:RDF>
 </metadata>
 <defs>
  <style type="text/css">*{stroke-linejoin: round; stroke-linecap: butt}</style>
 </defs>
 <g id="figure_1">
  <g id="patch_1">
   <path d="M 0 108 
L 360 108 
L 360 0 
L 0 0 
L 0 108 
z
" style="fill: none"/>
  </g>
  <g id="axes_1">
   <g id="line2d_1">
    <path d="M 57.681818 43.039256 
L 62.858071 42.931179 
L 68.034323 42.807822 
L 73.210575 42.311414 
L 78.386827 42.093024 
L 83.56308 42.368061 
L 88.739332 42.326693 
L 93.915584 42.055756 
L 99.091837 42.008426 
L 104.268089 42.058737 
L 109.444341 42.038985 
L 114.620594 41.989792 
L 119.796846 41.781464 
L 124.973098 41.187041 
L 130.149351 40.439447 
L 135.325603 40.873618 
L 140.501855 46.084416 
L 145.678108 58.27922 
L 150.85436 71.173916 
L 156.030612 76.310551 
L 161.206865 75.24208 
L 166.383117 72.944887 
L 171.559369 70.109172 
L 176.735622 66.891833 
L 181.911874 64.07587 
L 187.088126 61.614325 
L 192.264378 59.357754 
L 197.440631 57.576348 
L 202.616883 56.173956 
L 207.793135 54.65678 
L 212.969388 53.139976 
L 218.14564 52.188154 
L 223.321892 51.431988 
L 228.498145 50.392586 
L 233.674397 49.423993 
L 238.850649 48.853794 
L 244.026902 48.314528 
L 249.203154 47.710415 
L 254.379406 47.396619 
L 259.555659 47.357861 
L 264.731911 47.07537 
L 269.908163 46.643062 
L 275.084416 46.245786 
L 280.260668 45.829131 
L 285.43692 45.432973 
L 290.613173 44.993212 
L 295.789425 44.679044 
L 300.965677 44.439411 
L 306.141929 44.218785 
L 311.318182 44.199778 
" clip-path="url(#pbc6f940023)" style="fill: none; stroke: #edb120; stroke-width: 5; stroke-linecap: square"/>
   </g>
  </g>
 </g>
 <defs>
  <clipPath id="pbc6f940023">
   <rect x="45" y="12.96" width="279" height="83.16"/>
  </clipPath>
 </defs>
</svg>
