<?xml version="1.0" encoding="utf-8" standalone="no"?>
<!DOCTYPE svg PUBLIC "-//W3C//DTD SVG 1.1//EN"
  "http://www.w3.org/Graphics/SVG/1.1/DTD/svg11.dtd">
<svg xmlns:xlink="http://www.w3.org/1999/xlink" width="1440pt" height="144pt" viewBox="0 0 1440 144" xmlns="http://www.w3.org/2000/svg" version="1.1">
 <metadata>
  <rdf:RDF xmlns:dc="http://purl.org/dc/elements/1.1/" xmlns:cc="http://creativecommons.org/ns#" xmlns:rdf="http://www.w3.org/1999/02/22-rdf-syntax-ns#">
   <cc:Work>
    <dc:type rdf:resource="http://purl.org/dc/dcmitype/StillImage"/>
    <dc:date>2022-11-16T18:20:07.658509</dc:date>
    <dc:format>image/svg+xml</dc:format>
    <dc:creator>
     <cc:Agent>
      <dc:title>Matplotlib v3.5.2, https://matplotlib.org/</dc:title>
     </cc:Agent>
    </dc:creator>
   </cc:Work>
  </rdf:RDF>
 </metadata>
 <defs>
  <style type="text/css">*{stroke-linejoin: round; stroke-linecap: butt}</style>
 </defs>
 <g id="figure_1">
  <g id="patch_1">
   <path d="M 0 144 
L 1440 144 
L 1440 0 
L 0 0 
L 0 144 
z
" style="fill: none"/>
  </g>
  <g id="axes_1">
   <g id="line2d_1">
    <path d="M 230.727273 65.4336 
L 232.081806 56.88 
L 233.436339 51.1776 
L 234.790873 55.296 
L 236.145406 61.3152 
L 237.499939 61.9488 
L 238.854473 66.0672 
L 240.209006 73.9872 
L 241.563539 78.7392 
L 242.918073 80.9568 
L 244.272606 75.888 
L 245.627139 67.3344 
L 246.981673 71.136 
L 248.336206 80.3232 
L 249.690739 75.888 
L 251.045272 69.2352 
L 252.399806 72.0864 
L 253.754339 71.4528 
L 255.108872 66.384 
L 256.463406 67.0176 
L 257.817939 70.1856 
L 259.172472 74.6208 
L 260.527006 83.808 
L 261.881539 81.2736 
L 263.236072 70.8192 
L 264.590606 73.6704 
L 265.945139 74.9376 
L 267.299672 65.1168 
L 268.654206 64.4832 
L 270.008739 65.7504 
L 271.363272 52.4448 
L 272.717806 44.8416 
L 274.072339 58.464 
L 275.426872 60.6816 
L 276.781406 48.0096 
L 278.135939 48.6432 
L 279.490472 52.128 
L 280.845005 46.4256 
L 282.199539 50.2272 
L 283.554072 63.216 
L 284.908605 60.9984 
L 286.263139 44.8416 
L 287.617672 42.3072 
L 288.972205 51.1776 
L 290.326739 43.2576 
L 291.681272 27.4176 
L 293.035805 31.8528 
L 294.390339 43.2576 
L 295.744872 48.0096 
L 298.453939 59.7312 
L 299.808472 67.968 
L 301.163005 77.472 
L 302.517539 74.6208 
L 303.872072 76.5216 
L 305.226605 82.8576 
L 306.581138 76.5216 
L 307.935672 73.9872 
L 309.290205 80.9568 
L 310.644738 82.8576 
L 311.999272 84.1248 
L 313.353805 81.5904 
L 314.708338 73.6704 
L 316.062872 71.136 
L 317.417405 74.6208 
L 318.771938 75.2544 
L 320.126472 70.1856 
L 321.481005 64.1664 
L 322.835538 58.7808 
L 324.190072 59.0976 
L 325.544605 69.2352 
L 326.899138 80.64 
L 328.253672 88.2432 
L 329.608205 88.2432 
L 330.962738 75.5712 
L 332.317272 69.552 
L 333.671805 71.136 
L 335.026338 63.5328 
L 336.380871 58.7808 
L 337.735405 58.7808 
L 339.089938 55.6128 
L 340.444471 59.0976 
L 341.799005 70.8192 
L 343.153538 74.6208 
L 344.508071 66.384 
L 345.862605 56.2464 
L 347.217138 58.7808 
L 348.571671 67.6512 
L 349.926205 67.968 
L 351.280738 67.968 
L 352.635271 68.9184 
L 353.989805 65.1168 
L 355.344338 65.4336 
L 356.698871 65.4336 
L 358.053405 61.632 
L 359.407938 61.632 
L 360.762471 62.5824 
L 362.117004 64.1664 
L 363.471538 68.9184 
L 364.826071 70.1856 
L 366.180604 71.136 
L 367.535138 70.1856 
L 368.889671 65.4336 
L 370.244204 63.216 
L 374.307804 67.0176 
L 375.662338 69.2352 
L 377.016871 67.968 
L 378.371404 60.9984 
L 381.080471 59.0976 
L 382.435004 50.2272 
L 383.789538 49.5936 
L 385.144071 56.2464 
L 386.498604 56.2464 
L 387.853138 61.9488 
L 389.207671 65.4336 
L 390.562204 54.6624 
L 391.916737 55.296 
L 393.271271 61.3152 
L 394.625804 56.5632 
L 395.980337 53.712 
L 397.334871 51.1776 
L 398.689404 51.8112 
L 400.043937 57.5136 
L 401.398471 53.712 
L 402.753004 47.6928 
L 404.107537 54.6624 
L 405.462071 63.5328 
L 406.816604 67.0176 
L 408.171137 65.7504 
L 409.525671 61.9488 
L 410.880204 63.216 
L 412.234737 67.6512 
L 413.589271 68.9184 
L 414.943804 68.6016 
L 416.298337 65.7504 
L 417.65287 67.968 
L 419.007404 75.2544 
L 420.361937 71.7696 
L 421.71647 67.3344 
L 423.071004 74.304 
L 424.425537 73.6704 
L 425.78007 65.4336 
L 427.134604 64.8 
L 428.489137 65.4336 
L 429.84367 57.5136 
L 431.198204 55.296 
L 432.552737 64.1664 
L 433.90727 71.136 
L 435.261804 68.6016 
L 436.616337 65.1168 
L 437.97087 68.6016 
L 439.325404 70.5024 
L 440.679937 68.6016 
L 442.03447 70.8192 
L 443.389004 73.3536 
L 444.743537 72.0864 
L 446.09807 75.5712 
L 447.452603 83.808 
L 448.807137 85.0752 
L 451.516203 76.5216 
L 452.870737 67.6512 
L 454.22527 63.216 
L 455.579803 68.6016 
L 456.934337 67.6512 
L 458.28887 60.9984 
L 459.643403 64.4832 
L 460.997937 69.8688 
L 462.35247 69.2352 
L 463.707003 67.0176 
L 465.061537 71.7696 
L 466.41607 78.1056 
L 467.770603 77.472 
L 469.125137 74.9376 
L 470.47967 73.6704 
L 473.188736 58.464 
L 474.54327 60.9984 
L 475.897803 60.9984 
L 477.252336 55.6128 
L 478.60687 53.712 
L 479.961403 51.1776 
L 481.315936 43.2576 
L 482.67047 43.2576 
L 484.025003 52.4448 
L 485.379536 59.4144 
L 486.73407 64.4832 
L 488.088603 59.7312 
L 489.443136 48.0096 
L 490.79767 43.8912 
L 492.152203 46.4256 
L 494.86127 64.1664 
L 496.215803 64.8 
L 497.570336 62.5824 
L 498.92487 62.5824 
L 500.279403 64.4832 
L 501.633936 65.1168 
L 502.988469 65.1168 
L 504.343003 64.4832 
L 505.697536 65.1168 
L 507.052069 68.2848 
L 508.406603 67.3344 
L 509.761136 64.1664 
L 511.115669 68.9184 
L 512.470203 67.6512 
L 513.824736 57.8304 
L 515.179269 61.3152 
L 516.533803 66.0672 
L 517.888336 62.5824 
L 519.242869 67.6512 
L 520.597403 76.2048 
L 521.951936 76.2048 
L 523.306469 73.3536 
L 524.661003 71.136 
L 526.015536 72.0864 
L 527.370069 76.8384 
L 528.724603 75.5712 
L 530.079136 67.968 
L 531.433669 67.3344 
L 532.788202 67.968 
L 534.142736 63.5328 
L 535.497269 67.968 
L 536.851802 77.1552 
L 538.206336 70.8192 
L 539.560869 60.048 
L 540.915402 62.2656 
L 542.269936 60.6816 
L 543.624469 49.5936 
L 544.979002 45.1584 
L 546.333536 47.0592 
L 549.042602 60.048 
L 550.397136 63.5328 
L 551.751669 68.6016 
L 553.106202 64.1664 
L 554.460736 51.4944 
L 555.815269 60.048 
L 557.169802 80.9568 
L 558.524335 89.8272 
L 559.878869 93.6288 
L 561.233402 92.9952 
L 562.587935 83.4912 
L 563.942469 80.0064 
L 565.297002 79.056 
L 566.651535 69.552 
L 568.006069 59.0976 
L 569.360602 57.8304 
L 570.715135 60.3648 
L 572.069669 61.632 
L 573.424202 56.88 
L 574.778735 45.792 
L 576.133269 41.3568 
L 577.487802 46.7424 
L 578.842335 49.5936 
L 580.196869 52.128 
L 581.551402 57.1968 
L 582.905935 57.1968 
L 584.260469 54.0288 
L 585.615002 55.6128 
L 586.969535 58.1472 
L 588.324068 54.3456 
L 589.678602 53.0784 
L 591.033135 56.2464 
L 592.387668 54.3456 
L 593.742202 55.6128 
L 595.096735 74.304 
L 596.451268 87.2928 
L 597.805802 80.0064 
L 599.160335 77.472 
L 600.514868 84.1248 
L 601.869402 86.3424 
L 603.223935 81.9072 
L 604.578468 72.0864 
L 605.933002 63.8496 
L 607.287535 67.968 
L 608.642068 74.304 
L 609.996602 70.1856 
L 611.351135 60.048 
L 612.705668 59.0976 
L 614.060201 63.8496 
L 615.414735 59.4144 
L 616.769268 57.8304 
L 618.123801 63.216 
L 619.478335 60.9984 
L 620.832868 59.4144 
L 622.187401 60.9984 
L 623.541935 58.464 
L 624.896468 63.216 
L 626.251001 69.8688 
L 627.605535 67.968 
L 628.960068 61.3152 
L 630.314601 60.048 
L 631.669135 62.2656 
L 633.023668 62.8992 
L 634.378201 63.8496 
L 635.732735 68.2848 
L 637.087268 69.552 
L 638.441801 67.3344 
L 639.796335 73.6704 
L 641.150868 78.1056 
L 642.505401 75.5712 
L 643.859934 71.4528 
L 645.214468 64.1664 
L 646.569001 62.8992 
L 647.923534 73.6704 
L 649.278068 75.2544 
L 650.632601 66.384 
L 651.987134 69.2352 
L 653.341668 75.2544 
L 654.696201 70.5024 
L 656.050734 62.2656 
L 657.405268 57.1968 
L 658.759801 56.88 
L 660.114334 61.3152 
L 661.468868 59.4144 
L 662.823401 53.712 
L 664.177934 60.3648 
L 665.532468 66.0672 
L 666.887001 60.3648 
L 668.241534 61.3152 
L 669.596067 66.0672 
L 670.950601 64.1664 
L 672.305134 63.5328 
L 673.659667 62.5824 
L 675.014201 60.9984 
L 676.368734 65.1168 
L 677.723267 66.0672 
L 679.077801 63.5328 
L 680.432334 66.7008 
L 681.786867 67.6512 
L 683.141401 63.5328 
L 684.495934 63.216 
L 685.850467 65.7504 
L 687.205001 66.7008 
L 688.559534 68.9184 
L 689.914067 70.1856 
L 691.268601 68.9184 
L 692.623134 67.968 
L 693.977667 67.6512 
L 696.686734 57.8304 
L 698.041267 59.7312 
L 699.3958 63.216 
L 700.750334 59.4144 
L 702.104867 54.3456 
L 703.4594 60.048 
L 704.813934 66.384 
L 706.168467 62.5824 
L 707.523 54.9792 
L 708.877534 50.2272 
L 710.232067 46.7424 
L 711.5866 48.3264 
L 714.295667 64.8 
L 715.6502 70.5024 
L 717.004734 72.0864 
L 718.359267 73.3536 
L 719.7138 73.3536 
L 721.068334 69.8688 
L 722.422867 65.4336 
L 723.7774 60.048 
L 725.131933 57.1968 
L 726.486467 60.3648 
L 727.841 55.6128 
L 729.195533 47.6928 
L 730.550067 52.128 
L 731.9046 51.8112 
L 733.259133 47.6928 
L 734.613667 53.712 
L 735.9682 57.1968 
L 737.322733 56.2464 
L 738.677267 59.0976 
L 740.0318 61.3152 
L 741.386333 59.7312 
L 742.740867 62.2656 
L 744.0954 72.72 
L 745.449933 78.4224 
L 746.804467 77.1552 
L 748.159 83.808 
L 749.513533 96.7968 
L 750.868067 98.6976 
L 752.2226 93.9456 
L 753.577133 96.1632 
L 754.931666 98.064 
L 756.2862 92.6784 
L 757.640733 84.4416 
L 758.995266 75.2544 
L 760.3498 71.4528 
L 761.704333 75.2544 
L 763.058866 83.1744 
L 764.4134 86.976 
L 767.122466 62.2656 
L 768.477 61.632 
L 769.831533 55.9296 
L 771.186066 48.3264 
L 772.5406 54.0288 
L 773.895133 63.5328 
L 775.249666 62.2656 
L 776.6042 55.296 
L 777.958733 54.3456 
L 779.313266 59.4144 
L 780.667799 59.7312 
L 782.022333 56.5632 
L 783.376866 54.0288 
L 784.731399 52.4448 
L 786.085933 55.6128 
L 787.440466 58.1472 
L 788.794999 56.88 
L 790.149533 60.3648 
L 791.504066 65.7504 
L 792.858599 65.7504 
L 794.213133 65.4336 
L 795.567666 63.216 
L 796.922199 58.1472 
L 798.276733 59.0976 
L 799.631266 59.7312 
L 800.985799 57.5136 
L 802.340333 56.5632 
L 803.694866 53.712 
L 805.049399 51.4944 
L 806.403933 59.4144 
L 807.758466 60.9984 
L 809.112999 51.4944 
L 810.467532 53.3952 
L 811.822066 66.7008 
L 813.176599 67.3344 
L 814.531132 58.1472 
L 815.885666 54.9792 
L 817.240199 54.9792 
L 818.594732 57.8304 
L 819.949266 63.5328 
L 821.303799 62.5824 
L 822.658332 62.2656 
L 824.012866 65.1168 
L 825.367399 60.3648 
L 826.721932 59.4144 
L 828.076466 62.8992 
L 829.430999 60.9984 
L 830.785532 61.632 
L 832.140066 63.8496 
L 833.494599 57.8304 
L 834.849132 53.712 
L 836.203665 60.9984 
L 837.558199 68.9184 
L 838.912732 68.6016 
L 840.267265 68.6016 
L 842.976332 80.9568 
L 844.330865 81.9072 
L 845.685399 82.5408 
L 847.039932 86.976 
L 848.394465 85.392 
L 849.748999 75.888 
L 851.103532 72.0864 
L 852.458065 77.472 
L 853.812599 80.0064 
L 856.521665 72.0864 
L 859.230732 82.5408 
L 861.939799 66.0672 
L 863.294332 69.2352 
L 864.648865 73.3536 
L 866.003398 72.72 
L 867.357932 72.4032 
L 868.712465 70.5024 
L 870.066998 64.1664 
L 871.421532 58.7808 
L 872.776065 54.9792 
L 874.130598 55.296 
L 876.839665 57.1968 
L 878.194198 56.88 
L 880.903265 38.8224 
L 882.257798 43.2576 
L 883.612332 51.4944 
L 884.966865 54.9792 
L 886.321398 57.5136 
L 887.675932 61.3152 
L 889.030465 63.8496 
L 890.384998 61.3152 
L 891.739531 56.2464 
L 893.094065 57.5136 
L 894.448598 62.5824 
L 895.803131 64.1664 
L 897.157665 66.384 
L 898.512198 73.3536 
L 899.866731 74.9376 
L 902.575798 67.0176 
L 903.930331 65.4336 
L 905.284865 68.9184 
L 906.639398 74.6208 
L 907.993931 75.888 
L 909.348465 66.7008 
L 910.702998 60.3648 
L 912.057531 64.1664 
L 913.412065 61.632 
L 914.766598 54.0288 
L 916.121131 50.544 
L 917.475665 51.8112 
L 918.830198 52.7616 
L 920.184731 54.3456 
L 921.539264 60.3648 
L 922.893798 67.0176 
L 924.248331 69.552 
L 926.957398 57.5136 
L 928.311931 65.4336 
L 929.666464 69.8688 
L 931.020998 58.1472 
L 932.375531 53.712 
L 933.730064 67.3344 
L 935.084598 78.4224 
L 936.439131 78.1056 
L 937.793664 73.9872 
L 939.148198 75.5712 
L 940.502731 83.1744 
L 941.857264 87.2928 
L 943.211798 82.8576 
L 944.566331 74.6208 
L 947.275397 70.1856 
L 948.629931 65.4336 
L 949.984464 63.216 
L 951.338997 65.4336 
L 952.693531 70.1856 
L 954.048064 71.136 
L 955.402597 65.7504 
L 956.757131 57.5136 
L 958.111664 59.0976 
L 959.466197 67.6512 
L 960.820731 69.8688 
L 962.175264 62.8992 
L 963.529797 59.0976 
L 964.884331 66.0672 
L 966.238864 75.5712 
L 967.593397 73.0368 
L 968.947931 64.1664 
L 970.302464 56.88 
L 971.656997 46.1088 
L 973.011531 42.624 
L 974.366064 48.6432 
L 975.720597 48.3264 
L 977.07513 48.3264 
L 978.429664 57.5136 
L 979.784197 61.3152 
L 981.13873 61.9488 
L 982.493264 68.2848 
L 983.847797 69.552 
L 985.20233 67.3344 
L 986.556864 69.8688 
L 987.911397 70.5024 
L 989.26593 73.0368 
L 990.620464 70.5024 
L 991.974997 61.632 
L 993.32953 67.0176 
L 994.684064 80.0064 
L 996.038597 76.2048 
L 997.39313 64.4832 
L 998.747664 65.4336 
L 1000.102197 66.0672 
L 1001.45673 58.464 
L 1002.811264 55.9296 
L 1004.165797 55.9296 
L 1005.52033 53.712 
L 1006.874863 54.0288 
L 1008.229397 54.9792 
L 1009.58393 57.1968 
L 1010.938463 60.048 
L 1012.292997 61.9488 
L 1013.64753 71.7696 
L 1015.002063 86.0256 
L 1016.356597 89.5104 
L 1017.71113 83.4912 
L 1019.065663 81.2736 
L 1020.420197 76.8384 
L 1023.129263 48.96 
L 1024.483797 43.2576 
L 1025.83833 45.792 
L 1027.192863 51.8112 
L 1028.547397 52.4448 
L 1029.90193 54.3456 
L 1031.256463 58.7808 
L 1032.610996 61.3152 
L 1033.96553 66.7008 
L 1035.320063 68.2848 
L 1036.674596 58.1472 
L 1038.02913 50.8608 
L 1039.383663 53.0784 
L 1042.09273 55.6128 
L 1043.447263 59.0976 
L 1044.801796 59.4144 
L 1046.15633 58.1472 
L 1047.510863 59.4144 
L 1048.865396 62.2656 
L 1050.21993 67.0176 
L 1051.574463 70.5024 
L 1052.928996 70.5024 
L 1054.28353 75.2544 
L 1055.638063 74.6208 
L 1056.992596 73.0368 
L 1058.34713 84.4416 
L 1059.701663 91.728 
L 1061.056196 83.4912 
L 1062.410729 80.9568 
L 1063.765263 84.7584 
L 1065.119796 77.7888 
L 1066.474329 68.6016 
L 1067.828863 69.2352 
L 1070.537929 78.1056 
L 1071.892463 79.3728 
L 1073.246996 74.304 
L 1074.601529 73.9872 
L 1075.956063 77.472 
L 1077.310596 75.5712 
L 1078.665129 70.8192 
L 1080.019663 69.8688 
L 1081.374196 68.6016 
L 1082.728729 64.4832 
L 1084.083263 58.1472 
L 1085.437796 54.0288 
L 1086.792329 57.8304 
L 1088.146862 64.1664 
L 1089.501396 64.4832 
L 1090.855929 64.1664 
L 1092.210462 65.7504 
L 1094.919529 63.8496 
L 1096.274062 61.632 
L 1097.628596 56.2464 
L 1098.983129 54.0288 
L 1100.337662 61.9488 
L 1101.692196 64.4832 
L 1104.401262 41.04 
L 1105.755796 45.4752 
L 1107.110329 57.5136 
L 1108.464862 62.2656 
L 1109.819396 63.216 
L 1111.173929 56.5632 
L 1112.528462 50.544 
L 1113.882996 56.5632 
L 1115.237529 57.5136 
L 1116.592062 54.9792 
L 1117.946595 60.9984 
L 1119.301129 58.464 
L 1120.655662 46.1088 
L 1122.010195 44.8416 
L 1123.364729 50.8608 
L 1124.719262 53.0784 
L 1126.073795 60.048 
L 1127.428329 60.3648 
L 1128.782862 48.96 
L 1130.137395 47.376 
L 1131.491929 57.8304 
L 1132.846462 62.5824 
L 1135.555529 68.2848 
L 1136.910062 63.216 
L 1138.264595 58.7808 
L 1139.619129 66.0672 
L 1140.973662 72.4032 
L 1142.328195 74.304 
L 1143.682728 92.9952 
L 1145.037262 110.1024 
L 1146.391795 100.9152 
L 1147.746328 86.3424 
L 1150.455395 80.0064 
L 1151.809928 74.304 
L 1153.164462 73.3536 
L 1154.518995 69.552 
L 1155.873528 63.5328 
L 1157.228062 62.2656 
L 1158.582595 64.1664 
L 1159.937128 62.8992 
L 1161.291662 65.1168 
L 1162.646195 70.8192 
L 1165.355262 61.632 
L 1166.709795 61.3152 
L 1168.064328 55.296 
L 1169.418862 57.1968 
L 1170.773395 67.6512 
L 1172.127928 65.4336 
L 1173.482461 60.3648 
L 1174.836995 67.6512 
L 1176.191528 69.8688 
L 1177.546061 67.3344 
L 1178.900595 67.968 
L 1180.255128 64.8 
L 1181.609661 62.8992 
L 1182.964195 65.4336 
L 1184.318728 62.5824 
L 1185.673261 60.6816 
L 1187.027795 65.7504 
L 1188.382328 68.2848 
L 1189.736861 70.1856 
L 1191.091395 68.6016 
L 1192.445928 57.1968 
L 1193.800461 57.8304 
L 1195.154995 68.6016 
L 1196.509528 69.8688 
L 1197.864061 65.1168 
L 1199.218594 63.5328 
L 1200.573128 63.5328 
L 1201.927661 60.6816 
L 1203.282194 51.8112 
L 1204.636728 51.4944 
L 1205.991261 58.7808 
L 1207.345794 53.3952 
L 1208.700328 49.9104 
L 1210.054861 61.632 
L 1211.409394 65.1168 
L 1212.763928 60.3648 
L 1214.118461 63.8496 
L 1215.472994 69.2352 
L 1216.827528 68.6016 
L 1218.182061 61.3152 
L 1219.536594 60.9984 
L 1220.891128 74.6208 
L 1222.245661 76.5216 
L 1223.600194 65.7504 
L 1224.954728 67.0176 
L 1226.309261 71.7696 
L 1227.663794 75.2544 
L 1229.018327 75.888 
L 1230.372861 66.7008 
L 1231.727394 66.0672 
L 1233.081927 79.056 
L 1234.436461 81.9072 
L 1235.790994 76.8384 
L 1237.145527 73.9872 
L 1238.500061 66.384 
L 1239.854594 59.4144 
L 1241.209127 54.3456 
L 1242.563661 51.1776 
L 1243.918194 55.9296 
L 1245.272727 57.5136 
L 1245.272727 57.5136 
" clip-path="url(#p787bbc35dd)" style="fill: none; stroke: #a9a9a9; stroke-width: 2.5; stroke-linecap: square"/>
   </g>
   <g id="line2d_2">
    <path d="M 729.195533 47.6928 
L 730.550067 52.128 
L 731.9046 51.8112 
L 733.259133 47.6928 
L 734.613667 53.712 
L 735.9682 57.1968 
L 737.322733 56.2464 
L 738.677267 59.0976 
L 740.0318 61.3152 
L 741.386333 59.7312 
L 742.740867 62.2656 
L 744.0954 72.72 
L 745.449933 78.4224 
L 746.804467 77.1552 
L 748.159 83.808 
L 749.513533 96.7968 
L 750.868067 98.6976 
L 752.2226 93.9456 
L 753.577133 96.1632 
L 754.931666 98.064 
L 756.2862 92.6784 
L 757.640733 84.4416 
L 758.995266 75.2544 
L 760.3498 71.4528 
L 761.704333 75.2544 
L 763.058866 83.1744 
L 764.4134 86.976 
L 765.767933 74.9376 
L 767.122466 62.2656 
L 768.477 61.632 
L 769.831533 55.9296 
L 771.186066 48.3264 
L 772.5406 54.0288 
L 773.895133 63.5328 
L 775.249666 62.2656 
L 776.6042 55.296 
L 777.958733 54.3456 
L 779.313266 59.4144 
L 780.667799 59.7312 
L 782.022333 56.5632 
" clip-path="url(#p787bbc35dd)" style="fill: none; stroke: #7e2f8e; stroke-width: 5; stroke-linecap: square"/>
   </g>
   <g id="line2d_3">
    <path d="M 1043.447263 59.0976 
L 1044.801796 59.4144 
L 1046.15633 58.1472 
L 1047.510863 59.4144 
L 1048.865396 62.2656 
L 1050.21993 67.0176 
L 1051.574463 70.5024 
L 1052.928996 70.5024 
L 1054.28353 75.2544 
L 1055.638063 74.6208 
L 1056.992596 73.0368 
L 1058.34713 84.4416 
L 1059.701663 91.728 
L 1061.056196 83.4912 
L 1062.410729 80.9568 
L 1063.765263 84.7584 
L 1065.119796 77.7888 
L 1066.474329 68.6016 
L 1067.828863 69.2352 
L 1069.183396 73.6704 
L 1070.537929 78.1056 
L 1071.892463 79.3728 
L 1073.246996 74.304 
L 1074.601529 73.9872 
L 1075.956063 77.472 
L 1077.310596 75.5712 
L 1078.665129 70.8192 
L 1080.019663 69.8688 
L 1081.374196 68.6016 
L 1082.728729 64.4832 
L 1084.083263 58.1472 
L 1085.437796 54.0288 
L 1086.792329 57.8304 
L 1088.146862 64.1664 
L 1089.501396 64.4832 
L 1090.855929 64.1664 
L 1092.210462 65.7504 
L 1093.564996 64.8 
L 1094.919529 63.8496 
L 1096.274062 61.632 
" clip-path="url(#p787bbc35dd)" style="fill: none; stroke: #7e2f8e; stroke-width: 5; stroke-linecap: square"/>
   </g>
   <g id="line2d_4">
    <path d="M 1120.655662 46.1088 
L 1122.010195 44.8416 
L 1123.364729 50.8608 
L 1124.719262 53.0784 
L 1126.073795 60.048 
L 1127.428329 60.3648 
L 1128.782862 48.96 
L 1130.137395 47.376 
L 1131.491929 57.8304 
L 1132.846462 62.5824 
L 1134.200995 65.4336 
L 1135.555529 68.2848 
L 1136.910062 63.216 
L 1138.264595 58.7808 
L 1139.619129 66.0672 
L 1140.973662 72.4032 
L 1142.328195 74.304 
L 1143.682728 92.9952 
L 1145.037262 110.1024 
L 1146.391795 100.9152 
L 1147.746328 86.3424 
L 1149.100862 83.1744 
L 1150.455395 80.0064 
L 1151.809928 74.304 
L 1153.164462 73.3536 
L 1154.518995 69.552 
L 1155.873528 63.5328 
L 1157.228062 62.2656 
L 1158.582595 64.1664 
L 1159.937128 62.8992 
L 1161.291662 65.1168 
L 1162.646195 70.8192 
L 1164.000728 66.384 
L 1165.355262 61.632 
L 1166.709795 61.3152 
L 1168.064328 55.296 
L 1169.418862 57.1968 
L 1170.773395 67.6512 
L 1172.127928 65.4336 
L 1173.482461 60.3648 
" clip-path="url(#p787bbc35dd)" style="fill: none; stroke: #7e2f8e; stroke-width: 5; stroke-linecap: square"/>
   </g>
  </g>
 </g>
 <defs>
  <clipPath id="p787bbc35dd">
   <rect x="180" y="17.28" width="1116" height="110.88"/>
  </clipPath>
 </defs>
</svg>
