<?xml version="1.0" encoding="utf-8" standalone="no"?>
<!DOCTYPE svg PUBLIC "-//W3C//DTD SVG 1.1//EN"
  "http://www.w3.org/Graphics/SVG/1.1/DTD/svg11.dtd">
<svg xmlns:xlink="http://www.w3.org/1999/xlink" width="1440pt" height="144pt" viewBox="0 0 1440 144" xmlns="http://www.w3.org/2000/svg" version="1.1">
 <metadata>
  <rdf:RDF xmlns:dc="http://purl.org/dc/elements/1.1/" xmlns:cc="http://creativecommons.org/ns#" xmlns:rdf="http://www.w3.org/1999/02/22-rdf-syntax-ns#">
   <cc:Work>
    <dc:type rdf:resource="http://purl.org/dc/dcmitype/StillImage"/>
    <dc:date>2022-11-16T18:19:27.341224</dc:date>
    <dc:format>image/svg+xml</dc:format>
    <dc:creator>
     <cc:Agent>
      <dc:title>Matplotlib v3.5.2, https://matplotlib.org/</dc:title>
     </cc:Agent>
    </dc:creator>
   </cc:Work>
  </rdf:RDF>
 </metadata>
 <defs>
  <style type="text/css">*{stroke-linejoin: round; stroke-linecap: butt}</style>
 </defs>
 <g id="figure_1">
  <g id="patch_1">
   <path d="M 0 144 
L 1440 144 
L 1440 0 
L 0 0 
L 0 144 
z
" style="fill: none"/>
  </g>
  <g id="axes_1">
   <g id="line2d_1">
    <path d="M 230.727273 67.3344 
L 232.081806 66.384 
L 233.436339 65.1168 
L 234.790873 64.8 
L 236.145406 60.6816 
L 237.499939 57.5136 
L 238.854473 62.5824 
L 240.209006 65.1168 
L 241.563539 61.9488 
L 242.918073 65.1168 
L 244.272606 65.1168 
L 245.627139 58.464 
L 246.981673 57.1968 
L 248.336206 61.9488 
L 249.690739 62.8992 
L 251.045272 64.8 
L 252.399806 73.6704 
L 253.754339 76.2048 
L 255.108872 70.5024 
L 256.463406 72.0864 
L 257.817939 78.4224 
L 259.172472 73.3536 
L 260.527006 67.6512 
L 263.236072 75.2544 
L 264.590606 72.0864 
L 265.945139 64.8 
L 267.299672 60.6816 
L 268.654206 62.5824 
L 270.008739 60.9984 
L 271.363272 54.6624 
L 272.717806 54.0288 
L 274.072339 60.3648 
L 275.426872 59.7312 
L 276.781406 53.3952 
L 278.135939 53.3952 
L 279.490472 52.4448 
L 280.845005 48.6432 
L 282.199539 53.0784 
L 283.554072 54.0288 
L 284.908605 42.3072 
L 286.263139 40.4064 
L 287.617672 51.8112 
L 288.972205 49.5936 
L 290.326739 36.9216 
L 291.681272 36.9216 
L 293.035805 44.208 
L 294.390339 44.8416 
L 295.744872 44.208 
L 297.099405 47.6928 
L 298.453939 44.208 
L 299.808472 37.872 
L 301.163005 48.6432 
L 303.872072 80.9568 
L 305.226605 102.816 
L 306.581138 108.8352 
L 307.935672 104.4 
L 309.290205 104.0832 
L 310.644738 99.0144 
L 311.999272 90.7776 
L 313.353805 92.6784 
L 314.708338 93.9456 
L 316.062872 86.6592 
L 317.417405 89.1936 
L 318.771938 97.4304 
L 320.126472 90.7776 
L 321.481005 78.1056 
L 322.835538 67.0176 
L 324.190072 60.9984 
L 325.544605 65.1168 
L 326.899138 65.7504 
L 328.253672 65.7504 
L 329.608205 73.3536 
L 330.962738 71.4528 
L 332.317272 60.3648 
L 333.671805 59.0976 
L 335.026338 62.2656 
L 336.380871 58.7808 
L 337.735405 57.5136 
L 339.089938 61.632 
L 340.444471 62.5824 
L 341.799005 62.5824 
L 343.153538 64.4832 
L 344.508071 62.8992 
L 345.862605 58.1472 
L 347.217138 55.9296 
L 348.571671 55.9296 
L 349.926205 61.9488 
L 351.280738 66.384 
L 352.635271 64.4832 
L 353.989805 67.968 
L 355.344338 68.2848 
L 356.698871 61.9488 
L 358.053405 59.0976 
L 359.407938 60.048 
L 360.762471 64.4832 
L 362.117004 67.6512 
L 363.471538 63.8496 
L 364.826071 61.9488 
L 366.180604 64.1664 
L 367.535138 64.8 
L 368.889671 67.968 
L 370.244204 71.4528 
L 371.598738 70.1856 
L 372.953271 64.1664 
L 374.307804 57.1968 
L 375.662338 58.1472 
L 377.016871 58.7808 
L 378.371404 54.6624 
L 379.725938 51.8112 
L 381.080471 46.4256 
L 382.435004 49.2768 
L 383.789538 63.216 
L 385.144071 60.6816 
L 386.498604 48.96 
L 387.853138 50.2272 
L 389.207671 53.712 
L 390.562204 57.8304 
L 391.916737 65.1168 
L 393.271271 60.3648 
L 394.625804 54.0288 
L 395.980337 57.1968 
L 397.334871 55.6128 
L 398.689404 56.88 
L 400.043937 63.8496 
L 401.398471 60.9984 
L 402.753004 53.712 
L 404.107537 57.5136 
L 405.462071 69.552 
L 406.816604 73.3536 
L 408.171137 68.6016 
L 409.525671 67.6512 
L 412.234737 67.0176 
L 413.589271 67.6512 
L 414.943804 65.1168 
L 416.298337 63.8496 
L 417.65287 66.7008 
L 419.007404 70.5024 
L 420.361937 75.2544 
L 421.71647 75.2544 
L 423.071004 69.552 
L 424.425537 68.6016 
L 425.78007 70.5024 
L 427.134604 61.9488 
L 428.489137 59.0976 
L 429.84367 67.6512 
L 431.198204 72.4032 
L 432.552737 68.9184 
L 433.90727 68.2848 
L 435.261804 70.1856 
L 436.616337 67.3344 
L 437.97087 65.1168 
L 439.325404 71.7696 
L 440.679937 81.5904 
L 442.03447 83.808 
L 444.743537 73.3536 
L 446.09807 75.2544 
L 447.452603 81.5904 
L 448.807137 85.0752 
L 450.16167 83.808 
L 451.516203 76.8384 
L 452.870737 71.7696 
L 454.22527 74.9376 
L 455.579803 73.3536 
L 456.934337 63.216 
L 458.28887 57.8304 
L 459.643403 60.3648 
L 460.997937 67.0176 
L 462.35247 69.2352 
L 465.061537 53.0784 
L 466.41607 56.88 
L 467.770603 65.1168 
L 469.125137 68.9184 
L 470.47967 65.4336 
L 471.834203 55.296 
L 473.188736 48.3264 
L 474.54327 50.8608 
L 475.897803 57.1968 
L 477.252336 60.6816 
L 478.60687 61.3152 
L 479.961403 58.464 
L 481.315936 54.9792 
L 482.67047 56.88 
L 484.025003 58.464 
L 485.379536 56.5632 
L 486.73407 53.0784 
L 488.088603 51.1776 
L 489.443136 56.2464 
L 490.79767 64.4832 
L 492.152203 62.5824 
L 493.506736 57.5136 
L 494.86127 55.296 
L 496.215803 50.544 
L 497.570336 48.96 
L 498.92487 58.1472 
L 500.279403 64.8 
L 501.633936 65.1168 
L 502.988469 69.552 
L 504.343003 75.888 
L 505.697536 76.5216 
L 507.052069 76.5216 
L 508.406603 72.72 
L 509.761136 63.5328 
L 511.115669 59.0976 
L 512.470203 61.3152 
L 513.824736 63.216 
L 515.179269 63.216 
L 516.533803 61.632 
L 517.888336 58.7808 
L 519.242869 56.5632 
L 520.597403 59.0976 
L 521.951936 63.8496 
L 523.306469 66.7008 
L 524.661003 71.4528 
L 526.015536 72.0864 
L 527.370069 70.1856 
L 528.724603 73.3536 
L 530.079136 72.0864 
L 531.433669 72.0864 
L 532.788202 76.5216 
L 534.142736 74.9376 
L 535.497269 69.552 
L 536.851802 69.552 
L 538.206336 69.8688 
L 539.560869 64.8 
L 540.915402 58.7808 
L 542.269936 56.2464 
L 544.979002 60.6816 
L 546.333536 54.9792 
L 547.688069 48.3264 
L 549.042602 51.8112 
L 550.397136 58.464 
L 551.751669 54.3456 
L 553.106202 46.4256 
L 554.460736 49.5936 
L 555.815269 64.4832 
L 558.524335 102.1824 
L 559.878869 105.984 
L 561.233402 97.4304 
L 562.587935 91.0944 
L 565.297002 73.6704 
L 566.651535 74.9376 
L 568.006069 74.9376 
L 569.360602 65.7504 
L 570.715135 57.8304 
L 572.069669 60.6816 
L 573.424202 62.8992 
L 574.778735 58.464 
L 576.133269 61.9488 
L 577.487802 67.6512 
L 578.842335 61.3152 
L 580.196869 58.1472 
L 581.551402 60.6816 
L 582.905935 54.3456 
L 584.260469 44.208 
L 585.615002 41.9904 
L 588.324068 52.4448 
L 589.678602 51.8112 
L 591.033135 43.5744 
L 592.387668 46.1088 
L 593.742202 71.136 
L 595.096735 87.6096 
L 596.451268 77.7888 
L 597.805802 70.1856 
L 599.160335 70.5024 
L 600.514868 71.4528 
L 601.869402 75.2544 
L 603.223935 76.5216 
L 605.933002 67.6512 
L 608.642068 68.9184 
L 609.996602 67.3344 
L 611.351135 65.4336 
L 612.705668 63.216 
L 614.060201 56.5632 
L 615.414735 53.0784 
L 616.769268 62.2656 
L 618.123801 64.8 
L 619.478335 54.6624 
L 620.832868 56.5632 
L 622.187401 68.6016 
L 623.541935 69.2352 
L 624.896468 65.4336 
L 626.251001 65.1168 
L 627.605535 63.8496 
L 628.960068 61.9488 
L 630.314601 62.8992 
L 631.669135 67.0176 
L 633.023668 67.3344 
L 634.378201 61.3152 
L 635.732735 55.9296 
L 637.087268 55.6128 
L 638.441801 58.7808 
L 639.796335 57.8304 
L 641.150868 54.3456 
L 642.505401 51.8112 
L 643.859934 47.6928 
L 645.214468 48.0096 
L 646.569001 54.6624 
L 647.923534 64.4832 
L 649.278068 71.4528 
L 650.632601 75.2544 
L 651.987134 78.1056 
L 653.341668 75.888 
L 654.696201 68.6016 
L 656.050734 65.1168 
L 657.405268 68.9184 
L 658.759801 69.8688 
L 660.114334 64.8 
L 661.468868 62.2656 
L 662.823401 62.5824 
L 664.177934 65.1168 
L 665.532468 73.3536 
L 666.887001 80.3232 
L 668.241534 71.7696 
L 669.596067 64.8 
L 670.950601 73.6704 
L 672.305134 75.2544 
L 673.659667 68.9184 
L 675.014201 70.5024 
L 676.368734 67.0176 
L 677.723267 62.5824 
L 679.077801 74.304 
L 680.432334 77.7888 
L 681.786867 68.2848 
L 683.141401 67.6512 
L 684.495934 70.5024 
L 685.850467 71.4528 
L 687.205001 74.6208 
L 688.559534 74.6208 
L 689.914067 75.5712 
L 691.268601 75.5712 
L 692.623134 69.552 
L 693.977667 66.0672 
L 695.332201 64.4832 
L 696.686734 59.0976 
L 698.041267 64.1664 
L 699.3958 73.6704 
L 700.750334 68.6016 
L 702.104867 65.1168 
L 703.4594 69.8688 
L 704.813934 65.4336 
L 706.168467 57.1968 
L 707.523 57.1968 
L 708.877534 58.7808 
L 710.232067 58.464 
L 711.5866 58.7808 
L 712.941134 55.6128 
L 714.295667 54.3456 
L 715.6502 54.0288 
L 717.004734 48.0096 
L 718.359267 44.5248 
L 719.7138 48.6432 
L 721.068334 51.4944 
L 722.422867 51.1776 
L 723.7774 51.8112 
L 725.131933 52.128 
L 726.486467 51.1776 
L 727.841 48.0096 
L 729.195533 46.4256 
L 730.550067 47.6928 
L 731.9046 49.5936 
L 733.259133 50.2272 
L 734.613667 48.3264 
L 735.9682 46.7424 
L 737.322733 51.8112 
L 738.677267 63.5328 
L 740.0318 78.4224 
L 741.386333 84.1248 
L 742.740867 74.9376 
L 744.0954 69.552 
L 745.449933 77.1552 
L 746.804467 88.56 
L 748.159 98.064 
L 749.513533 100.5984 
L 750.868067 97.1136 
L 752.2226 95.5296 
L 753.577133 93.312 
L 754.931666 89.8272 
L 756.2862 90.144 
L 757.640733 83.808 
L 758.995266 72.72 
L 760.3498 68.2848 
L 761.704333 64.8 
L 763.058866 54.3456 
L 764.4134 46.4256 
L 765.767933 48.6432 
L 767.122466 52.4448 
L 768.477 51.1776 
L 769.831533 46.4256 
L 771.186066 46.4256 
L 772.5406 51.8112 
L 773.895133 56.2464 
L 775.249666 63.5328 
L 776.6042 66.7008 
L 777.958733 64.1664 
L 779.313266 63.8496 
L 780.667799 63.8496 
L 782.022333 63.5328 
L 783.376866 62.2656 
L 784.731399 61.9488 
L 786.085933 62.5824 
L 787.440466 58.1472 
L 788.794999 55.9296 
L 790.149533 68.2848 
L 791.504066 79.056 
L 792.858599 74.9376 
L 794.213133 69.552 
L 795.567666 72.0864 
L 796.922199 70.5024 
L 798.276733 70.5024 
L 799.631266 73.6704 
L 800.985799 69.2352 
L 802.340333 65.7504 
L 803.694866 70.5024 
L 805.049399 66.0672 
L 806.403933 60.048 
L 807.758466 64.8 
L 809.112999 63.8496 
L 810.467532 61.3152 
L 811.822066 68.2848 
L 813.176599 68.6016 
L 814.531132 62.2656 
L 815.885666 67.3344 
L 817.240199 68.9184 
L 818.594732 62.2656 
L 819.949266 65.7504 
L 821.303799 67.968 
L 822.658332 63.5328 
L 825.367399 60.3648 
L 826.721932 60.048 
L 828.076466 61.3152 
L 829.430999 61.3152 
L 830.785532 59.4144 
L 833.494599 58.7808 
L 834.849132 57.1968 
L 836.203665 59.0976 
L 837.558199 61.9488 
L 838.912732 59.0976 
L 840.267265 59.4144 
L 841.621799 62.8992 
L 842.976332 65.1168 
L 845.685399 72.4032 
L 847.039932 74.304 
L 849.748999 62.5824 
L 851.103532 64.1664 
L 852.458065 64.4832 
L 853.812599 62.8992 
L 855.167132 65.1168 
L 856.521665 65.1168 
L 857.876199 66.384 
L 859.230732 75.5712 
L 860.585265 80.0064 
L 861.939799 75.888 
L 863.294332 73.0368 
L 864.648865 70.8192 
L 867.357932 62.2656 
L 868.712465 61.3152 
L 870.066998 58.464 
L 871.421532 56.5632 
L 872.776065 57.5136 
L 874.130598 58.1472 
L 875.485132 56.88 
L 876.839665 55.9296 
L 878.194198 50.2272 
L 879.548732 47.6928 
L 880.903265 50.8608 
L 882.257798 50.2272 
L 883.612332 46.7424 
L 884.966865 50.544 
L 886.321398 50.544 
L 887.675932 48.3264 
L 890.384998 66.7008 
L 891.739531 64.4832 
L 893.094065 63.216 
L 894.448598 66.384 
L 895.803131 68.2848 
L 897.157665 72.72 
L 898.512198 85.0752 
L 899.866731 93.9456 
L 901.221265 88.56 
L 902.575798 76.8384 
L 903.930331 74.9376 
L 905.284865 82.224 
L 906.639398 77.7888 
L 907.993931 63.5328 
L 909.348465 62.8992 
L 910.702998 71.7696 
L 912.057531 69.8688 
L 913.412065 65.1168 
L 914.766598 63.5328 
L 916.121131 62.2656 
L 917.475665 66.7008 
L 918.830198 65.4336 
L 920.184731 60.048 
L 922.893798 68.6016 
L 924.248331 66.7008 
L 925.602864 63.8496 
L 926.957398 58.7808 
L 928.311931 54.6624 
L 929.666464 58.7808 
L 931.020998 68.9184 
L 932.375531 83.1744 
L 933.730064 92.0448 
L 935.084598 85.392 
L 936.439131 80.0064 
L 937.793664 81.2736 
L 939.148198 75.5712 
L 940.502731 65.7504 
L 941.857264 62.5824 
L 943.211798 65.1168 
L 944.566331 68.2848 
L 945.920864 73.6704 
L 947.275397 70.5024 
L 948.629931 64.4832 
L 951.338997 67.6512 
L 952.693531 66.0672 
L 954.048064 63.5328 
L 955.402597 55.9296 
L 956.757131 48.96 
L 959.466197 54.0288 
L 960.820731 56.2464 
L 962.175264 54.9792 
L 963.529797 52.7616 
L 964.884331 60.6816 
L 966.238864 63.5328 
L 967.593397 51.8112 
L 968.947931 43.5744 
L 970.302464 42.624 
L 971.656997 42.9408 
L 973.011531 47.0592 
L 974.366064 52.128 
L 975.720597 53.0784 
L 977.07513 54.6624 
L 978.429664 56.5632 
L 979.784197 56.2464 
L 981.13873 63.216 
L 982.493264 71.4528 
L 983.847797 73.9872 
L 985.20233 83.4912 
L 986.556864 92.0448 
L 987.911397 83.1744 
L 989.26593 73.0368 
L 990.620464 70.8192 
L 991.974997 68.9184 
L 993.32953 63.216 
L 994.684064 58.464 
L 996.038597 63.216 
L 997.39313 67.0176 
L 998.747664 66.384 
L 1000.102197 67.0176 
L 1001.45673 68.9184 
L 1002.811264 68.2848 
L 1004.165797 67.968 
L 1005.52033 73.6704 
L 1006.874863 72.0864 
L 1008.229397 58.7808 
L 1009.58393 55.6128 
L 1010.938463 67.0176 
L 1012.292997 74.6208 
L 1013.64753 74.6208 
L 1015.002063 77.7888 
L 1016.356597 78.1056 
L 1017.71113 69.8688 
L 1019.065663 63.8496 
L 1021.77473 53.0784 
L 1023.129263 56.88 
L 1024.483797 59.7312 
L 1025.83833 51.4944 
L 1027.192863 52.4448 
L 1028.547397 56.5632 
L 1029.90193 51.8112 
L 1031.256463 51.1776 
L 1032.610996 57.1968 
L 1033.96553 58.464 
L 1035.320063 55.296 
L 1036.674596 53.3952 
L 1038.02913 51.1776 
L 1039.383663 50.8608 
L 1040.738196 53.3952 
L 1042.09273 49.9104 
L 1043.447263 45.4752 
L 1044.801796 52.7616 
L 1046.15633 62.2656 
L 1047.510863 69.2352 
L 1048.865396 73.0368 
L 1050.21993 71.4528 
L 1051.574463 66.384 
L 1052.928996 64.4832 
L 1054.28353 72.72 
L 1055.638063 73.0368 
L 1056.992596 64.8 
L 1058.34713 68.9184 
L 1062.410729 105.984 
L 1063.765263 111.0528 
L 1066.474329 92.6784 
L 1067.828863 88.8768 
L 1069.183396 86.0256 
L 1070.537929 80.64 
L 1071.892463 74.6208 
L 1073.246996 69.2352 
L 1074.601529 69.8688 
L 1075.956063 76.2048 
L 1077.310596 71.136 
L 1078.665129 65.4336 
L 1080.019663 76.8384 
L 1081.374196 80.64 
L 1082.728729 68.6016 
L 1084.083263 64.1664 
L 1085.437796 64.1664 
L 1086.792329 60.6816 
L 1088.146862 58.1472 
L 1089.501396 57.8304 
L 1090.855929 63.216 
L 1092.210462 65.4336 
L 1093.564996 60.048 
L 1094.919529 57.5136 
L 1096.274062 58.464 
L 1097.628596 58.1472 
L 1098.983129 60.9984 
L 1100.337662 60.048 
L 1101.692196 50.2272 
L 1103.046729 44.208 
L 1104.401262 42.624 
L 1107.110329 48.3264 
L 1108.464862 42.3072 
L 1109.819396 37.5552 
L 1112.528462 53.712 
L 1113.882996 56.2464 
L 1115.237529 55.6128 
L 1116.592062 50.544 
L 1117.946595 49.9104 
L 1119.301129 54.0288 
L 1120.655662 49.5936 
L 1122.010195 41.3568 
L 1123.364729 46.4256 
L 1124.719262 56.5632 
L 1126.073795 61.3152 
L 1127.428329 61.632 
L 1128.782862 55.6128 
L 1130.137395 47.6928 
L 1131.491929 48.3264 
L 1132.846462 53.712 
L 1134.200995 54.6624 
L 1135.555529 52.7616 
L 1136.910062 53.712 
L 1138.264595 62.8992 
L 1139.619129 82.8576 
L 1140.973662 100.5984 
L 1142.328195 104.7168 
L 1143.682728 101.5488 
L 1145.037262 95.8464 
L 1146.391795 87.6096 
L 1147.746328 77.7888 
L 1149.100862 75.5712 
L 1150.455395 78.7392 
L 1151.809928 73.6704 
L 1153.164462 70.1856 
L 1154.518995 72.72 
L 1155.873528 69.8688 
L 1157.228062 66.7008 
L 1158.582595 72.0864 
L 1159.937128 73.0368 
L 1161.291662 68.2848 
L 1162.646195 70.1856 
L 1164.000728 71.136 
L 1165.355262 66.7008 
L 1166.709795 63.216 
L 1168.064328 61.3152 
L 1169.418862 63.216 
L 1170.773395 63.8496 
L 1172.127928 61.9488 
L 1173.482461 64.4832 
L 1174.836995 68.2848 
L 1176.191528 67.968 
L 1177.546061 70.1856 
L 1178.900595 73.3536 
L 1180.255128 73.3536 
L 1181.609661 70.8192 
L 1182.964195 68.9184 
L 1184.318728 65.7504 
L 1185.673261 62.2656 
L 1187.027795 68.6016 
L 1188.382328 69.552 
L 1189.736861 59.0976 
L 1191.091395 63.216 
L 1192.445928 71.7696 
L 1193.800461 62.2656 
L 1195.154995 57.8304 
L 1196.509528 63.8496 
L 1197.864061 57.8304 
L 1199.218594 53.712 
L 1200.573128 59.4144 
L 1201.927661 53.712 
L 1203.282194 50.8608 
L 1204.636728 62.2656 
L 1205.991261 63.216 
L 1207.345794 55.296 
L 1208.700328 55.6128 
L 1210.054861 57.8304 
L 1211.409394 59.7312 
L 1212.763928 66.7008 
L 1214.118461 70.5024 
L 1215.472994 69.2352 
L 1216.827528 66.7008 
L 1218.182061 66.0672 
L 1219.536594 75.5712 
L 1220.891128 81.2736 
L 1222.245661 69.8688 
L 1223.600194 67.0176 
L 1224.954728 80.64 
L 1226.309261 83.808 
L 1227.663794 77.1552 
L 1229.018327 72.0864 
L 1230.372861 66.384 
L 1233.081927 65.7504 
L 1234.436461 58.464 
L 1235.790994 57.5136 
L 1237.145527 63.8496 
L 1238.500061 66.0672 
L 1239.854594 65.1168 
L 1241.209127 60.048 
L 1242.563661 57.1968 
L 1243.918194 57.1968 
L 1245.272727 56.5632 
L 1245.272727 56.5632 
" clip-path="url(#p14a075a49b)" style="fill: none; stroke: #a9a9a9; stroke-width: 2.5; stroke-linecap: square"/>
   </g>
   <g id="line2d_2">
    <path d="M 287.617672 51.8112 
L 288.972205 49.5936 
L 290.326739 36.9216 
L 291.681272 36.9216 
L 293.035805 44.208 
L 294.390339 44.8416 
L 295.744872 44.208 
L 297.099405 47.6928 
L 298.453939 44.208 
L 299.808472 37.872 
L 301.163005 48.6432 
L 302.517539 64.1664 
L 303.872072 80.9568 
L 305.226605 102.816 
L 306.581138 108.8352 
L 307.935672 104.4 
L 309.290205 104.0832 
L 310.644738 99.0144 
L 311.999272 90.7776 
L 313.353805 92.6784 
L 314.708338 93.9456 
L 316.062872 86.6592 
L 317.417405 89.1936 
L 318.771938 97.4304 
L 320.126472 90.7776 
L 321.481005 78.1056 
L 322.835538 67.0176 
L 324.190072 60.9984 
L 325.544605 65.1168 
L 326.899138 65.7504 
L 328.253672 65.7504 
L 329.608205 73.3536 
L 330.962738 71.4528 
L 332.317272 60.3648 
L 333.671805 59.0976 
L 335.026338 62.2656 
L 336.380871 58.7808 
L 337.735405 57.5136 
L 339.089938 61.632 
L 340.444471 62.5824 
" clip-path="url(#p14a075a49b)" style="fill: none; stroke: #edb120; stroke-width: 5; stroke-linecap: square"/>
   </g>
   <g id="line2d_3">
    <path d="M 539.560869 64.8 
L 540.915402 58.7808 
L 542.269936 56.2464 
L 543.624469 58.464 
L 544.979002 60.6816 
L 546.333536 54.9792 
L 547.688069 48.3264 
L 549.042602 51.8112 
L 550.397136 58.464 
L 551.751669 54.3456 
L 553.106202 46.4256 
L 554.460736 49.5936 
L 555.815269 64.4832 
L 557.169802 84.1248 
L 558.524335 102.1824 
L 559.878869 105.984 
L 561.233402 97.4304 
L 562.587935 91.0944 
L 563.942469 82.224 
L 565.297002 73.6704 
L 566.651535 74.9376 
L 568.006069 74.9376 
L 569.360602 65.7504 
L 570.715135 57.8304 
L 572.069669 60.6816 
L 573.424202 62.8992 
L 574.778735 58.464 
L 576.133269 61.9488 
L 577.487802 67.6512 
L 578.842335 61.3152 
L 580.196869 58.1472 
L 581.551402 60.6816 
L 582.905935 54.3456 
L 584.260469 44.208 
L 585.615002 41.9904 
L 586.969535 47.376 
L 588.324068 52.4448 
L 589.678602 51.8112 
L 591.033135 43.5744 
L 592.387668 46.1088 
" clip-path="url(#p14a075a49b)" style="fill: none; stroke: #edb120; stroke-width: 5; stroke-linecap: square"/>
   </g>
   <g id="line2d_4">
    <path d="M 729.195533 46.4256 
L 730.550067 47.6928 
L 731.9046 49.5936 
L 733.259133 50.2272 
L 734.613667 48.3264 
L 735.9682 46.7424 
L 737.322733 51.8112 
L 738.677267 63.5328 
L 740.0318 78.4224 
L 741.386333 84.1248 
L 742.740867 74.9376 
L 744.0954 69.552 
L 745.449933 77.1552 
L 746.804467 88.56 
L 748.159 98.064 
L 749.513533 100.5984 
L 750.868067 97.1136 
L 752.2226 95.5296 
L 753.577133 93.312 
L 754.931666 89.8272 
L 756.2862 90.144 
L 757.640733 83.808 
L 758.995266 72.72 
L 760.3498 68.2848 
L 761.704333 64.8 
L 763.058866 54.3456 
L 764.4134 46.4256 
L 765.767933 48.6432 
L 767.122466 52.4448 
L 768.477 51.1776 
L 769.831533 46.4256 
L 771.186066 46.4256 
L 772.5406 51.8112 
L 773.895133 56.2464 
L 775.249666 63.5328 
L 776.6042 66.7008 
L 777.958733 64.1664 
L 779.313266 63.8496 
L 780.667799 63.8496 
L 782.022333 63.5328 
" clip-path="url(#p14a075a49b)" style="fill: none; stroke: #7e2f8e; stroke-width: 5; stroke-linecap: square"/>
   </g>
   <g id="line2d_5">
    <path d="M 1043.447263 45.4752 
L 1044.801796 52.7616 
L 1046.15633 62.2656 
L 1047.510863 69.2352 
L 1048.865396 73.0368 
L 1050.21993 71.4528 
L 1051.574463 66.384 
L 1052.928996 64.4832 
L 1054.28353 72.72 
L 1055.638063 73.0368 
L 1056.992596 64.8 
L 1058.34713 68.9184 
L 1059.701663 80.9568 
L 1061.056196 92.3616 
L 1062.410729 105.984 
L 1063.765263 111.0528 
L 1065.119796 101.8656 
L 1066.474329 92.6784 
L 1067.828863 88.8768 
L 1069.183396 86.0256 
L 1070.537929 80.64 
L 1071.892463 74.6208 
L 1073.246996 69.2352 
L 1074.601529 69.8688 
L 1075.956063 76.2048 
L 1077.310596 71.136 
L 1078.665129 65.4336 
L 1080.019663 76.8384 
L 1081.374196 80.64 
L 1082.728729 68.6016 
L 1084.083263 64.1664 
L 1085.437796 64.1664 
L 1086.792329 60.6816 
L 1088.146862 58.1472 
L 1089.501396 57.8304 
L 1090.855929 63.216 
L 1092.210462 65.4336 
L 1093.564996 60.048 
L 1094.919529 57.5136 
L 1096.274062 58.464 
" clip-path="url(#p14a075a49b)" style="fill: none; stroke: #7e2f8e; stroke-width: 5; stroke-linecap: square"/>
   </g>
   <g id="line2d_6">
    <path d="M 1120.655662 49.5936 
L 1122.010195 41.3568 
L 1123.364729 46.4256 
L 1124.719262 56.5632 
L 1126.073795 61.3152 
L 1127.428329 61.632 
L 1128.782862 55.6128 
L 1130.137395 47.6928 
L 1131.491929 48.3264 
L 1132.846462 53.712 
L 1134.200995 54.6624 
L 1135.555529 52.7616 
L 1136.910062 53.712 
L 1138.264595 62.8992 
L 1139.619129 82.8576 
L 1140.973662 100.5984 
L 1142.328195 104.7168 
L 1143.682728 101.5488 
L 1145.037262 95.8464 
L 1146.391795 87.6096 
L 1147.746328 77.7888 
L 1149.100862 75.5712 
L 1150.455395 78.7392 
L 1151.809928 73.6704 
L 1153.164462 70.1856 
L 1154.518995 72.72 
L 1155.873528 69.8688 
L 1157.228062 66.7008 
L 1158.582595 72.0864 
L 1159.937128 73.0368 
L 1161.291662 68.2848 
L 1162.646195 70.1856 
L 1164.000728 71.136 
L 1165.355262 66.7008 
L 1166.709795 63.216 
L 1168.064328 61.3152 
L 1169.418862 63.216 
L 1170.773395 63.8496 
L 1172.127928 61.9488 
L 1173.482461 64.4832 
" clip-path="url(#p14a075a49b)" style="fill: none; stroke: #7e2f8e; stroke-width: 5; stroke-linecap: square"/>
   </g>
  </g>
 </g>
 <defs>
  <clipPath id="p14a075a49b">
   <rect x="180" y="17.28" width="1116" height="110.88"/>
  </clipPath>
 </defs>
</svg>
