<?xml version="1.0" encoding="utf-8" standalone="no"?>
<!DOCTYPE svg PUBLIC "-//W3C//DTD SVG 1.1//EN"
  "http://www.w3.org/Graphics/SVG/1.1/DTD/svg11.dtd">
<svg xmlns:xlink="http://www.w3.org/1999/xlink" width="1440pt" height="144pt" viewBox="0 0 1440 144" xmlns="http://www.w3.org/2000/svg" version="1.1">
 <metadata>
  <rdf:RDF xmlns:dc="http://purl.org/dc/elements/1.1/" xmlns:cc="http://creativecommons.org/ns#" xmlns:rdf="http://www.w3.org/1999/02/22-rdf-syntax-ns#">
   <cc:Work>
    <dc:type rdf:resource="http://purl.org/dc/dcmitype/StillImage"/>
    <dc:date>2022-11-15T14:27:13.086247</dc:date>
    <dc:format>image/svg+xml</dc:format>
    <dc:creator>
     <cc:Agent>
      <dc:title>Matplotlib v3.5.2, https://matplotlib.org/</dc:title>
     </cc:Agent>
    </dc:creator>
   </cc:Work>
  </rdf:RDF>
 </metadata>
 <defs>
  <style type="text/css">*{stroke-linejoin: round; stroke-linecap: butt}</style>
 </defs>
 <g id="figure_1">
  <g id="patch_1">
   <path d="M 0 144 
L 1440 144 
L 1440 0 
L 0 0 
L 0 144 
z
" style="fill: none"/>
  </g>
  <g id="axes_1">
   <g id="line2d_1">
    <path d="M 230.727273 51.0368 
L 233.907666 50.544 
L 237.088059 51.2832 
L 240.268453 46.3552 
L 243.448846 39.456 
L 246.629239 38.7168 
L 249.809632 40.1952 
L 252.990026 38.9632 
L 256.170419 39.9488 
L 259.350812 45.3696 
L 262.531205 43.6448 
L 265.711599 36.7456 
L 268.891992 35.5136 
L 272.072385 35.2672 
L 275.252779 34.2816 
L 278.433172 35.76 
L 281.613565 36.2528 
L 284.793958 34.7744 
L 287.974352 34.7744 
L 291.154745 34.2816 
L 294.335138 32.3104 
L 297.515531 28.368 
L 300.695925 26.3968 
L 303.876318 30.0928 
L 307.056711 32.3104 
L 310.237105 26.1504 
L 313.417498 23.1936 
L 316.597891 25.1648 
L 319.778284 23.6864 
L 322.958678 28.8608 
L 326.139071 37.2384 
L 329.319464 33.0496 
L 332.499858 27.6288 
L 335.680251 27.8752 
L 338.860644 26.3968 
L 342.041037 26.1504 
L 345.221431 25.6576 
L 348.401824 26.1504 
L 351.582217 42.9056 
L 357.943004 100.8096 
L 361.123397 124.7104 
L 364.30379 122.9856 
L 367.484184 98.592 
L 370.664577 79.1264 
L 373.84497 64.8352 
L 377.025363 55.2256 
L 380.205757 53.9936 
L 383.38615 55.7184 
L 386.566543 55.472 
L 389.746936 52.2688 
L 392.92733 49.312 
L 396.107723 50.544 
L 399.288116 52.2688 
L 402.46851 48.5728 
L 405.648903 41.4272 
L 408.829296 42.9056 
L 412.009689 49.312 
L 415.190083 51.0368 
L 418.370476 50.544 
L 421.550869 48.3264 
L 424.731262 40.9344 
L 427.911656 35.0208 
L 431.092049 35.76 
L 434.272442 35.5136 
L 437.452836 34.0352 
L 440.633229 35.0208 
L 443.813622 32.5568 
L 446.994015 31.3248 
L 450.174409 35.5136 
L 453.354802 31.5712 
L 456.535195 22.4544 
L 459.715588 23.44 
L 462.895982 27.8752 
L 466.076375 29.1072 
L 469.256768 34.0352 
L 472.437162 37.2384 
L 475.617555 33.0496 
L 478.797948 28.1216 
L 481.978341 32.064 
L 485.158735 35.2672 
L 488.339128 32.8032 
L 491.519521 36.992 
L 494.699915 42.9056 
L 497.880308 41.4272 
L 501.060701 42.1664 
L 504.241094 38.7168 
L 507.421488 32.5568 
L 510.601881 40.1952 
L 513.782274 44.6304 
L 516.962667 36.7456 
L 520.143061 37.9776 
L 523.323454 37.9776 
L 526.503847 29.6 
L 529.684241 31.5712 
L 532.864634 38.224 
L 536.045027 36.7456 
L 539.22542 37.4848 
L 542.405814 43.6448 
L 545.586207 42.9056 
L 548.7666 36.992 
L 551.946993 37.9776 
L 555.127387 47.0944 
L 558.30778 57.936 
L 561.488173 58.4288 
L 564.668567 46.3552 
L 567.84896 41.1808 
L 571.029353 41.4272 
L 574.209746 36.4992 
L 577.39014 36.992 
L 580.570533 41.4272 
L 583.750926 42.4128 
L 586.931319 44.6304 
L 590.111713 44.384 
L 593.292106 38.9632 
L 596.472499 37.2384 
L 599.652893 40.688 
L 602.833286 39.7024 
L 606.013679 37.9776 
L 609.194072 38.9632 
L 612.374466 34.528 
L 615.554859 28.1216 
L 618.735252 30.5856 
L 621.915645 36.992 
L 625.096039 39.456 
L 631.456825 40.9344 
L 634.637219 41.92 
L 637.817612 41.92 
L 640.998005 38.9632 
L 644.178398 32.3104 
L 647.358792 31.0784 
L 650.539185 38.4704 
L 653.719578 40.688 
L 656.899972 32.8032 
L 660.080365 31.3248 
L 663.260758 40.1952 
L 666.441151 46.1088 
L 669.621545 43.152 
L 672.801938 35.76 
L 675.982331 35.2672 
L 679.162724 48.3264 
L 682.343118 70.256 
L 685.523511 89.7216 
L 688.703904 101.5488 
L 691.884298 104.9984 
L 695.064691 93.664 
L 698.245084 74.6912 
L 701.425477 64.5888 
L 704.605871 56.2112 
L 707.786264 40.4416 
L 710.966657 35.2672 
L 714.14705 39.9488 
L 717.327444 37.7312 
L 720.507837 34.7744 
L 723.68823 37.4848 
L 726.868624 38.4704 
L 730.049017 38.4704 
L 733.22941 41.4272 
L 736.409803 39.2096 
L 739.590197 32.8032 
L 742.77059 34.528 
L 745.950983 37.9776 
L 749.131376 33.0496 
L 752.31177 31.0784 
L 755.492163 34.0352 
L 758.672556 31.5712 
L 761.85295 28.1216 
L 765.033343 31.8176 
L 768.213736 33.296 
L 771.394129 30.5856 
L 774.574523 31.8176 
L 777.754916 40.9344 
L 780.935309 45.3696 
L 784.115702 39.2096 
L 787.296096 39.2096 
L 790.476489 44.1376 
L 793.656882 39.7024 
L 796.837276 34.528 
L 800.017669 36.4992 
L 803.198062 36.4992 
L 806.378455 31.3248 
L 809.558849 30.5856 
L 812.739242 37.2384 
L 815.919635 42.9056 
L 819.100028 47.0944 
L 822.280422 52.2688 
L 825.460815 50.7904 
L 828.641208 46.1088 
L 831.821602 46.6016 
L 835.001995 44.6304 
L 838.182388 41.1808 
L 841.362781 40.9344 
L 844.543175 40.1952 
L 847.723568 43.3984 
L 850.903961 47.0944 
L 854.084355 41.6736 
L 857.264748 38.9632 
L 860.445141 44.1376 
L 863.625534 47.8336 
L 866.805928 46.1088 
L 869.986321 42.4128 
L 873.166714 41.92 
L 876.347107 40.9344 
L 879.527501 37.2384 
L 882.707894 38.4704 
L 885.888287 40.688 
L 889.068681 37.2384 
L 892.249074 35.2672 
L 895.429467 36.4992 
L 898.60986 39.456 
L 901.790254 41.1808 
L 904.970647 39.9488 
L 908.15104 39.2096 
L 911.331433 40.4416 
L 914.511827 42.9056 
L 917.69222 41.6736 
L 920.872613 38.7168 
L 924.053007 40.9344 
L 927.2334 41.1808 
L 930.413793 36.2528 
L 933.594186 34.528 
L 936.77458 35.76 
L 939.954973 35.5136 
L 946.315759 38.9632 
L 949.496153 38.9632 
L 955.856939 33.5424 
L 962.217726 34.0352 
L 965.398119 31.8176 
L 968.578512 35.0208 
L 971.758906 38.4704 
L 974.939299 36.7456 
L 978.119692 38.224 
L 981.300085 37.4848 
L 984.480479 32.3104 
L 987.660872 31.5712 
L 990.841265 33.296 
L 994.021659 37.7312 
L 997.202052 44.6304 
L 1000.382445 38.4704 
L 1003.562838 27.6288 
L 1006.743232 30.832 
L 1009.923625 35.5136 
L 1013.104018 34.0352 
L 1016.284412 41.1808 
L 1019.464805 49.8048 
L 1022.645198 53.008 
L 1025.825591 66.3136 
L 1029.005985 85.5328 
L 1032.186378 96.128 
L 1035.366771 95.1424 
L 1038.547164 90.9536 
L 1041.727558 84.3008 
L 1044.907951 70.256 
L 1048.088344 64.3424 
L 1051.268738 62.864 
L 1054.449131 53.9936 
L 1057.629524 51.0368 
L 1060.809917 51.0368 
L 1063.990311 43.3984 
L 1067.170704 38.4704 
L 1070.351097 39.7024 
L 1073.53149 42.1664 
L 1076.711884 42.6592 
L 1079.892277 40.4416 
L 1083.07267 38.7168 
L 1086.253064 38.9632 
L 1089.433457 37.7312 
L 1092.61385 36.2528 
L 1095.794243 35.76 
L 1098.974637 36.2528 
L 1102.15503 34.7744 
L 1108.515816 34.7744 
L 1111.69621 33.0496 
L 1114.876603 32.3104 
L 1118.056996 30.3392 
L 1121.23739 29.6 
L 1124.417783 29.6 
L 1127.598176 25.904 
L 1130.778569 25.6576 
L 1133.958963 32.3104 
L 1137.139356 31.8176 
L 1140.319749 28.1216 
L 1143.500142 32.064 
L 1146.680536 34.7744 
L 1149.860929 34.528 
L 1153.041322 35.5136 
L 1156.221716 35.0208 
L 1159.402109 35.76 
L 1162.582502 38.9632 
L 1165.762895 40.1952 
L 1168.943289 40.4416 
L 1172.123682 37.7312 
L 1175.304075 34.528 
L 1178.484469 37.2384 
L 1181.664862 39.456 
L 1184.845255 36.4992 
L 1188.025648 36.4992 
L 1191.206042 43.152 
L 1194.386435 45.1232 
L 1197.566828 38.9632 
L 1200.747221 36.4992 
L 1203.927615 42.9056 
L 1207.108008 45.616 
L 1210.288401 44.8768 
L 1213.468795 45.3696 
L 1216.649188 44.1376 
L 1219.829581 41.4272 
L 1223.009974 39.7024 
L 1226.190368 38.7168 
L 1229.370761 41.1808 
L 1232.551154 42.1664 
L 1235.731547 37.9776 
L 1238.911941 36.4992 
L 1242.092334 38.4704 
L 1245.272727 39.2096 
L 1245.272727 39.2096 
" clip-path="url(#p91d3b5001b)" style="fill: none; stroke: #a9a9a9; stroke-width: 2.5; stroke-linecap: square"/>
   </g>
   <g id="line2d_2">
    <path d="M 310.237105 26.1504 
L 313.417498 23.1936 
L 316.597891 25.1648 
L 319.778284 23.6864 
L 322.958678 28.8608 
L 326.139071 37.2384 
L 329.319464 33.0496 
L 332.499858 27.6288 
L 335.680251 27.8752 
L 338.860644 26.3968 
L 342.041037 26.1504 
L 345.221431 25.6576 
L 348.401824 26.1504 
L 351.582217 42.9056 
L 354.76261 71.9808 
L 357.943004 100.8096 
L 361.123397 124.7104 
L 364.30379 122.9856 
L 367.484184 98.592 
L 370.664577 79.1264 
L 373.84497 64.8352 
L 377.025363 55.2256 
L 380.205757 53.9936 
L 383.38615 55.7184 
L 386.566543 55.472 
L 389.746936 52.2688 
L 392.92733 49.312 
L 396.107723 50.544 
L 399.288116 52.2688 
L 402.46851 48.5728 
L 405.648903 41.4272 
L 408.829296 42.9056 
L 412.009689 49.312 
L 415.190083 51.0368 
L 418.370476 50.544 
L 421.550869 48.3264 
L 424.731262 40.9344 
L 427.911656 35.0208 
L 431.092049 35.76 
L 434.272442 35.5136 
" clip-path="url(#p91d3b5001b)" style="fill: none; stroke: #d22730; stroke-width: 5; stroke-linecap: square"/>
   </g>
   <g id="line2d_3">
    <path d="M 634.637219 41.92 
L 637.817612 41.92 
L 640.998005 38.9632 
L 644.178398 32.3104 
L 647.358792 31.0784 
L 650.539185 38.4704 
L 653.719578 40.688 
L 656.899972 32.8032 
L 660.080365 31.3248 
L 663.260758 40.1952 
L 666.441151 46.1088 
L 669.621545 43.152 
L 672.801938 35.76 
L 675.982331 35.2672 
L 679.162724 48.3264 
L 682.343118 70.256 
L 685.523511 89.7216 
L 688.703904 101.5488 
L 691.884298 104.9984 
L 695.064691 93.664 
L 698.245084 74.6912 
L 701.425477 64.5888 
L 704.605871 56.2112 
L 707.786264 40.4416 
L 710.966657 35.2672 
L 714.14705 39.9488 
L 717.327444 37.7312 
L 720.507837 34.7744 
L 723.68823 37.4848 
L 726.868624 38.4704 
L 730.049017 38.4704 
L 733.22941 41.4272 
L 736.409803 39.2096 
L 739.590197 32.8032 
L 742.77059 34.528 
L 745.950983 37.9776 
L 749.131376 33.0496 
L 752.31177 31.0784 
L 755.492163 34.0352 
L 758.672556 31.5712 
" clip-path="url(#p91d3b5001b)" style="fill: none; stroke: #d22730; stroke-width: 5; stroke-linecap: square"/>
   </g>
   <g id="line2d_4">
    <path d="M 978.119692 38.224 
L 981.300085 37.4848 
L 984.480479 32.3104 
L 987.660872 31.5712 
L 990.841265 33.296 
L 994.021659 37.7312 
L 997.202052 44.6304 
L 1000.382445 38.4704 
L 1003.562838 27.6288 
L 1006.743232 30.832 
L 1009.923625 35.5136 
L 1013.104018 34.0352 
L 1016.284412 41.1808 
L 1019.464805 49.8048 
L 1022.645198 53.008 
L 1025.825591 66.3136 
L 1029.005985 85.5328 
L 1032.186378 96.128 
L 1035.366771 95.1424 
L 1038.547164 90.9536 
L 1041.727558 84.3008 
L 1044.907951 70.256 
L 1048.088344 64.3424 
L 1051.268738 62.864 
L 1054.449131 53.9936 
L 1057.629524 51.0368 
L 1060.809917 51.0368 
L 1063.990311 43.3984 
L 1067.170704 38.4704 
L 1070.351097 39.7024 
L 1073.53149 42.1664 
L 1076.711884 42.6592 
L 1079.892277 40.4416 
L 1083.07267 38.7168 
L 1086.253064 38.9632 
L 1089.433457 37.7312 
L 1092.61385 36.2528 
L 1095.794243 35.76 
L 1098.974637 36.2528 
L 1102.15503 34.7744 
" clip-path="url(#p91d3b5001b)" style="fill: none; stroke: #1f77b4; stroke-width: 5; stroke-linecap: square"/>
   </g>
  </g>
 </g>
 <defs>
  <clipPath id="p91d3b5001b">
   <rect x="180" y="17.28" width="1116" height="110.88"/>
  </clipPath>
 </defs>
</svg>
