<?xml version="1.0" encoding="utf-8" standalone="no"?>
<!DOCTYPE svg PUBLIC "-//W3C//DTD SVG 1.1//EN"
  "http://www.w3.org/Graphics/SVG/1.1/DTD/svg11.dtd">
<svg xmlns:xlink="http://www.w3.org/1999/xlink" width="1440pt" height="144pt" viewBox="0 0 1440 144" xmlns="http://www.w3.org/2000/svg" version="1.1">
 <metadata>
  <rdf:RDF xmlns:dc="http://purl.org/dc/elements/1.1/" xmlns:cc="http://creativecommons.org/ns#" xmlns:rdf="http://www.w3.org/1999/02/22-rdf-syntax-ns#">
   <cc:Work>
    <dc:type rdf:resource="http://purl.org/dc/dcmitype/StillImage"/>
    <dc:date>2022-11-15T14:29:53.110045</dc:date>
    <dc:format>image/svg+xml</dc:format>
    <dc:creator>
     <cc:Agent>
      <dc:title>Matplotlib v3.5.2, https://matplotlib.org/</dc:title>
     </cc:Agent>
    </dc:creator>
   </cc:Work>
  </rdf:RDF>
 </metadata>
 <defs>
  <style type="text/css">*{stroke-linejoin: round; stroke-linecap: butt}</style>
 </defs>
 <g id="figure_1">
  <g id="patch_1">
   <path d="M 0 144 
L 1440 144 
L 1440 0 
L 0 0 
L 0 144 
z
" style="fill: none"/>
  </g>
  <g id="axes_1">
   <g id="line2d_1">
    <path d="M 230.727273 42.9056 
L 233.907666 43.3984 
L 237.088059 40.9344 
L 240.268453 41.92 
L 243.448846 48.8192 
L 246.629239 49.5584 
L 249.809632 43.8912 
L 252.990026 41.1808 
L 256.170419 41.4272 
L 259.350812 42.6592 
L 262.531205 48.08 
L 265.711599 45.3696 
L 268.891992 35.76 
L 272.072385 39.7024 
L 275.252779 42.4128 
L 278.433172 36.0064 
L 281.613565 40.688 
L 284.793958 45.8624 
L 287.974352 40.688 
L 291.154745 38.7168 
L 294.335138 42.4128 
L 297.515531 41.1808 
L 300.695925 37.7312 
L 303.876318 42.4128 
L 307.056711 45.1232 
L 310.237105 34.0352 
L 313.417498 29.8464 
L 316.597891 40.688 
L 319.778284 44.8768 
L 322.958678 44.6304 
L 326.139071 48.08 
L 329.319464 45.616 
L 332.499858 41.1808 
L 335.680251 43.152 
L 338.860644 44.384 
L 342.041037 44.384 
L 345.221431 43.8912 
L 348.401824 39.456 
L 351.582217 39.7024 
L 354.76261 46.848 
L 357.943004 42.9056 
L 361.123397 30.0928 
L 364.30379 27.136 
L 367.484184 28.6144 
L 370.664577 34.7744 
L 373.84497 47.3408 
L 377.025363 49.312 
L 380.205757 47.0944 
L 383.38615 51.0368 
L 386.566543 48.5728 
L 389.746936 46.848 
L 392.92733 57.4432 
L 396.107723 59.9072 
L 399.288116 49.0656 
L 402.46851 44.6304 
L 405.648903 46.6016 
L 408.829296 44.8768 
L 412.009689 42.6592 
L 415.190083 40.9344 
L 418.370476 41.4272 
L 421.550869 48.8192 
L 424.731262 48.3264 
L 427.911656 38.7168 
L 431.092049 38.7168 
L 434.272442 46.848 
L 437.452836 46.6016 
L 440.633229 40.9344 
L 443.813622 39.9488 
L 446.994015 43.6448 
L 450.174409 43.152 
L 453.354802 41.92 
L 456.535195 43.3984 
L 459.715588 42.1664 
L 462.895982 38.7168 
L 466.076375 37.2384 
L 469.256768 41.6736 
L 472.437162 45.3696 
L 475.617555 40.688 
L 478.797948 35.76 
L 481.978341 36.2528 
L 485.158735 33.5424 
L 488.339128 29.8464 
L 491.519521 36.0064 
L 494.699915 38.224 
L 497.880308 33.0496 
L 501.060701 36.2528 
L 504.241094 40.1952 
L 507.421488 39.2096 
L 510.601881 43.3984 
L 513.782274 46.3552 
L 516.962667 41.4272 
L 520.143061 40.688 
L 523.323454 43.3984 
L 526.503847 42.4128 
L 529.684241 38.4704 
L 532.864634 36.7456 
L 536.045027 38.7168 
L 542.405814 31.3248 
L 545.586207 36.4992 
L 548.7666 44.1376 
L 551.946993 48.08 
L 555.127387 45.616 
L 558.30778 40.4416 
L 561.488173 42.9056 
L 564.668567 45.616 
L 567.84896 41.1808 
L 571.029353 42.6592 
L 574.209746 47.3408 
L 577.39014 42.9056 
L 580.570533 38.224 
L 583.750926 42.1664 
L 586.931319 44.6304 
L 590.111713 43.8912 
L 593.292106 45.3696 
L 596.472499 42.9056 
L 599.652893 39.2096 
L 602.833286 41.4272 
L 606.013679 40.4416 
L 609.194072 36.0064 
L 612.374466 41.92 
L 615.554859 50.0512 
L 618.735252 45.3696 
L 621.915645 40.1952 
L 625.096039 44.384 
L 628.276432 47.8336 
L 631.456825 43.152 
L 634.637219 40.9344 
L 637.817612 45.8624 
L 640.998005 42.9056 
L 644.178398 35.76 
L 647.358792 36.992 
L 650.539185 43.152 
L 653.719578 47.5872 
L 656.899972 46.6016 
L 660.080365 43.152 
L 663.260758 47.8336 
L 666.441151 52.7616 
L 669.621545 47.0944 
L 672.801938 42.6592 
L 675.982331 46.848 
L 679.162724 51.776 
L 682.343118 46.3552 
L 685.523511 38.7168 
L 688.703904 34.528 
L 691.884298 28.8608 
L 695.064691 26.1504 
L 698.245084 30.0928 
L 701.425477 35.0208 
L 704.605871 37.7312 
L 707.786264 41.6736 
L 710.966657 43.8912 
L 714.14705 42.9056 
L 717.327444 44.8768 
L 720.507837 48.08 
L 723.68823 46.848 
L 726.868624 48.8192 
L 730.049017 54.24 
L 733.22941 54.4864 
L 736.409803 48.3264 
L 739.590197 45.1232 
L 742.77059 45.3696 
L 745.950983 41.4272 
L 749.131376 36.7456 
L 752.31177 34.528 
L 755.492163 34.7744 
L 758.672556 37.9776 
L 761.85295 38.7168 
L 765.033343 36.7456 
L 768.213736 39.456 
L 771.394129 43.152 
L 774.574523 41.6736 
L 777.754916 39.9488 
L 780.935309 40.688 
L 784.115702 40.1952 
L 787.296096 41.6736 
L 790.476489 47.8336 
L 793.656882 47.5872 
L 796.837276 40.688 
L 800.017669 39.7024 
L 803.198062 39.9488 
L 806.378455 38.7168 
L 809.558849 42.1664 
L 812.739242 43.8912 
L 815.919635 40.9344 
L 819.100028 41.1808 
L 822.280422 44.384 
L 825.460815 43.6448 
L 828.641208 43.3984 
L 831.821602 45.616 
L 835.001995 41.92 
L 838.182388 37.9776 
L 841.362781 43.152 
L 844.543175 45.8624 
L 847.723568 41.4272 
L 850.903961 41.1808 
L 854.084355 42.9056 
L 857.264748 40.1952 
L 860.445141 40.9344 
L 863.625534 43.152 
L 866.805928 39.456 
L 869.986321 37.4848 
L 873.166714 42.9056 
L 876.347107 44.8768 
L 879.527501 40.9344 
L 882.707894 34.2816 
L 885.888287 32.064 
L 889.068681 41.6736 
L 892.249074 46.6016 
L 895.429467 38.7168 
L 898.60986 36.992 
L 901.790254 41.6736 
L 904.970647 40.4416 
L 908.15104 36.2528 
L 911.331433 36.7456 
L 914.511827 38.7168 
L 917.69222 39.456 
L 920.872613 44.6304 
L 924.053007 49.312 
L 927.2334 45.616 
L 930.413793 42.6592 
L 933.594186 40.688 
L 936.77458 37.9776 
L 939.954973 39.2096 
L 943.135366 38.9632 
L 946.315759 38.4704 
L 949.496153 41.6736 
L 952.676546 46.3552 
L 955.856939 49.8048 
L 959.037333 49.0656 
L 962.217726 45.3696 
L 965.398119 45.1232 
L 968.578512 46.1088 
L 971.758906 40.4416 
L 974.939299 36.7456 
L 978.119692 40.4416 
L 981.300085 43.6448 
L 984.480479 43.8912 
L 987.660872 44.384 
L 990.841265 46.1088 
L 994.021659 45.1232 
L 997.202052 44.6304 
L 1000.382445 46.1088 
L 1003.562838 43.6448 
L 1006.743232 40.1952 
L 1009.923625 39.7024 
L 1013.104018 41.1808 
L 1016.284412 41.92 
L 1019.464805 40.688 
L 1022.645198 38.7168 
L 1025.825591 39.2096 
L 1029.005985 38.224 
L 1032.186378 35.2672 
L 1035.366771 34.528 
L 1038.547164 32.064 
L 1041.727558 30.832 
L 1044.907951 35.2672 
L 1048.088344 43.6448 
L 1051.268738 48.3264 
L 1054.449131 47.3408 
L 1057.629524 48.5728 
L 1060.809917 51.2832 
L 1063.990311 47.5872 
L 1067.170704 47.8336 
L 1070.351097 53.2544 
L 1073.53149 56.2112 
L 1076.711884 52.2688 
L 1079.892277 45.1232 
L 1083.07267 45.8624 
L 1086.253064 47.3408 
L 1089.433457 41.4272 
L 1092.61385 38.4704 
L 1095.794243 40.9344 
L 1098.974637 41.6736 
L 1102.15503 38.9632 
L 1105.335423 38.7168 
L 1108.515816 40.4416 
L 1111.69621 41.1808 
L 1114.876603 38.9632 
L 1118.056996 35.76 
L 1124.417783 42.6592 
L 1127.598176 37.2384 
L 1130.778569 34.0352 
L 1133.958963 41.1808 
L 1137.139356 42.6592 
L 1140.319749 36.7456 
L 1143.500142 38.4704 
L 1146.680536 43.6448 
L 1149.860929 41.92 
L 1153.041322 42.6592 
L 1156.221716 48.5728 
L 1159.402109 48.3264 
L 1162.582502 42.1664 
L 1165.762895 37.9776 
L 1168.943289 39.9488 
L 1172.123682 44.1376 
L 1175.304075 40.688 
L 1178.484469 33.296 
L 1181.664862 36.2528 
L 1184.845255 39.9488 
L 1188.025648 39.456 
L 1191.206042 43.8912 
L 1194.386435 52.0224 
L 1197.566828 47.3408 
L 1200.747221 37.7312 
L 1203.927615 41.92 
L 1207.108008 51.2832 
L 1210.288401 49.0656 
L 1213.468795 40.4416 
L 1216.649188 40.4416 
L 1219.829581 42.9056 
L 1223.009974 39.456 
L 1226.190368 36.7456 
L 1229.370761 38.9632 
L 1232.551154 44.384 
L 1235.731547 48.3264 
L 1238.911941 46.3552 
L 1242.092334 39.9488 
L 1245.272727 38.9632 
L 1245.272727 38.9632 
" clip-path="url(#p09119cade6)" style="fill: none; stroke: #a9a9a9; stroke-width: 2.5; stroke-linecap: square"/>
   </g>
  </g>
 </g>
 <defs>
  <clipPath id="p09119cade6">
   <rect x="180" y="17.28" width="1116" height="110.88"/>
  </clipPath>
 </defs>
</svg>
