<?xml version="1.0" encoding="utf-8" standalone="no"?>
<!DOCTYPE svg PUBLIC "-//W3C//DTD SVG 1.1//EN"
  "http://www.w3.org/Graphics/SVG/1.1/DTD/svg11.dtd">
<svg xmlns:xlink="http://www.w3.org/1999/xlink" width="432pt" height="288pt" viewBox="0 0 432 288" xmlns="http://www.w3.org/2000/svg" version="1.1">
 <metadata>
  <rdf:RDF xmlns:dc="http://purl.org/dc/elements/1.1/" xmlns:cc="http://creativecommons.org/ns#" xmlns:rdf="http://www.w3.org/1999/02/22-rdf-syntax-ns#">
   <cc:Work>
    <dc:type rdf:resource="http://purl.org/dc/dcmitype/StillImage"/>
    <dc:date>2023-02-28T17:30:23.186457</dc:date>
    <dc:format>image/svg+xml</dc:format>
    <dc:creator>
     <cc:Agent>
      <dc:title>Matplotlib v3.5.2, https://matplotlib.org/</dc:title>
     </cc:Agent>
    </dc:creator>
   </cc:Work>
  </rdf:RDF>
 </metadata>
 <defs>
  <style type="text/css">*{stroke-linejoin: round; stroke-linecap: butt}</style>
 </defs>
 <g id="figure_1">
  <g id="patch_1">
   <path d="M 0 288 
L 432 288 
L 432 0 
L 0 0 
L 0 288 
z
" style="fill: none"/>
  </g>
  <g id="axes_1">
   <g id="patch_2">
    <path d="M 54 256.32 
L 388.8 256.32 
L 388.8 34.56 
L 54 34.56 
L 54 256.32 
z
" style="fill: none"/>
   </g>
   <g id="patch_3">
    <path d="M 79.2774 53.04 
L 95.6826 53.04 
L 95.6826 53.04 
L 79.2774 53.04 
L 79.2774 53.04 
z
" clip-path="url(#p3e1e590c8b)" style="fill: #3274a1; stroke: #3f3f3f; stroke-width: 1.5; stroke-linejoin: miter"/>
   </g>
   <g id="patch_4">
    <path d="M 96.0174 53.04 
L 112.4226 53.04 
L 112.4226 53.04 
L 96.0174 53.04 
L 96.0174 53.04 
z
" clip-path="url(#p3e1e590c8b)" style="fill: #e1812c; stroke: #3f3f3f; stroke-width: 1.5; stroke-linejoin: miter"/>
   </g>
   <g id="patch_5">
    <path d="M 162.9774 53.04 
L 179.3826 53.04 
L 179.3826 53.04 
L 162.9774 53.04 
L 162.9774 53.04 
z
" clip-path="url(#p3e1e590c8b)" style="fill: #3274a1; stroke: #3f3f3f; stroke-width: 1.5; stroke-linejoin: miter"/>
   </g>
   <g id="patch_6">
    <path d="M 179.7174 53.04 
L 196.1226 53.04 
L 196.1226 53.04 
L 179.7174 53.04 
L 179.7174 53.04 
z
" clip-path="url(#p3e1e590c8b)" style="fill: #e1812c; stroke: #3f3f3f; stroke-width: 1.5; stroke-linejoin: miter"/>
   </g>
   <g id="patch_7">
    <path d="M 246.6774 57.854274 
L 263.0826 57.854274 
L 263.0826 53.04 
L 246.6774 53.04 
L 246.6774 57.854274 
z
" clip-path="url(#p3e1e590c8b)" style="fill: #3274a1; stroke: #3f3f3f; stroke-width: 1.5; stroke-linejoin: miter"/>
   </g>
   <g id="patch_8">
    <path d="M 263.4174 59.631393 
L 279.8226 59.631393 
L 279.8226 55.715042 
L 263.4174 55.715042 
L 263.4174 59.631393 
z
" clip-path="url(#p3e1e590c8b)" style="fill: #e1812c; stroke: #3f3f3f; stroke-width: 1.5; stroke-linejoin: miter"/>
   </g>
   <g id="patch_9">
    <path d="M 330.3774 53.04 
L 346.7826 53.04 
L 346.7826 53.04 
L 330.3774 53.04 
L 330.3774 53.04 
z
" clip-path="url(#p3e1e590c8b)" style="fill: #3274a1; stroke: #3f3f3f; stroke-width: 1.5; stroke-linejoin: miter"/>
   </g>
   <g id="patch_10">
    <path d="M 347.1174 55.774414 
L 363.5226 55.774414 
L 363.5226 53.04 
L 347.1174 53.04 
L 347.1174 55.774414 
z
" clip-path="url(#p3e1e590c8b)" style="fill: #e1812c; stroke: #3f3f3f; stroke-width: 1.5; stroke-linejoin: miter"/>
   </g>
   <g id="patch_11">
    <path d="M 95.85 237.84 
L 95.85 237.84 
L 95.85 237.84 
L 95.85 237.84 
z
" clip-path="url(#p3e1e590c8b)" style="fill: #3274a1; stroke: #3f3f3f; stroke-width: 0.75; stroke-linejoin: miter"/>
   </g>
   <g id="patch_12">
    <path d="M 95.85 237.84 
L 95.85 237.84 
L 95.85 237.84 
L 95.85 237.84 
z
" clip-path="url(#p3e1e590c8b)" style="fill: #e1812c; stroke: #3f3f3f; stroke-width: 0.75; stroke-linejoin: miter"/>
   </g>
   <g id="matplotlib.axis_1">
    <g id="xtick_1">
     <g id="line2d_1">
      <defs>
       <path id="m13567472ca" d="M 0 0 
L 0 3.5 
" style="stroke: #000000; stroke-width: 0.8"/>
      </defs>
      <g>
       <use xlink:href="#m13567472ca" x="95.85" y="256.32" style="stroke: #000000; stroke-width: 0.8"/>
      </g>
     </g>
     <g id="text_1">
      <!-- MI -->
      <g transform="translate(90.060937 270.918437)scale(0.1 -0.1)">
       <defs>
        <path id="DejaVuSans-4d" d="M 628 4666 
L 1569 4666 
L 2759 1491 
L 3956 4666 
L 4897 4666 
L 4897 0 
L 4281 0 
L 4281 4097 
L 3078 897 
L 2444 897 
L 1241 4097 
L 1241 0 
L 628 0 
L 628 4666 
z
" transform="scale(0.015625)"/>
        <path id="DejaVuSans-49" d="M 628 4666 
L 1259 4666 
L 1259 0 
L 628 0 
L 628 4666 
z
" transform="scale(0.015625)"/>
       </defs>
       <use xlink:href="#DejaVuSans-4d"/>
       <use xlink:href="#DejaVuSans-49" x="86.279297"/>
      </g>
     </g>
    </g>
    <g id="xtick_2">
     <g id="line2d_2">
      <g>
       <use xlink:href="#m13567472ca" x="179.55" y="256.32" style="stroke: #000000; stroke-width: 0.8"/>
      </g>
     </g>
     <g id="text_2">
      <!-- logISI -->
      <g transform="translate(165.803125 270.918437)scale(0.1 -0.1)">
       <defs>
        <path id="DejaVuSans-6c" d="M 603 4863 
L 1178 4863 
L 1178 0 
L 603 0 
L 603 4863 
z
" transform="scale(0.015625)"/>
        <path id="DejaVuSans-6f" d="M 1959 3097 
Q 1497 3097 1228 2736 
Q 959 2375 959 1747 
Q 959 1119 1226 758 
Q 1494 397 1959 397 
Q 2419 397 2687 759 
Q 2956 1122 2956 1747 
Q 2956 2369 2687 2733 
Q 2419 3097 1959 3097 
z
M 1959 3584 
Q 2709 3584 3137 3096 
Q 3566 2609 3566 1747 
Q 3566 888 3137 398 
Q 2709 -91 1959 -91 
Q 1206 -91 779 398 
Q 353 888 353 1747 
Q 353 2609 779 3096 
Q 1206 3584 1959 3584 
z
" transform="scale(0.015625)"/>
        <path id="DejaVuSans-67" d="M 2906 1791 
Q 2906 2416 2648 2759 
Q 2391 3103 1925 3103 
Q 1463 3103 1205 2759 
Q 947 2416 947 1791 
Q 947 1169 1205 825 
Q 1463 481 1925 481 
Q 2391 481 2648 825 
Q 2906 1169 2906 1791 
z
M 3481 434 
Q 3481 -459 3084 -895 
Q 2688 -1331 1869 -1331 
Q 1566 -1331 1297 -1286 
Q 1028 -1241 775 -1147 
L 775 -588 
Q 1028 -725 1275 -790 
Q 1522 -856 1778 -856 
Q 2344 -856 2625 -561 
Q 2906 -266 2906 331 
L 2906 616 
Q 2728 306 2450 153 
Q 2172 0 1784 0 
Q 1141 0 747 490 
Q 353 981 353 1791 
Q 353 2603 747 3093 
Q 1141 3584 1784 3584 
Q 2172 3584 2450 3431 
Q 2728 3278 2906 2969 
L 2906 3500 
L 3481 3500 
L 3481 434 
z
" transform="scale(0.015625)"/>
        <path id="DejaVuSans-53" d="M 3425 4513 
L 3425 3897 
Q 3066 4069 2747 4153 
Q 2428 4238 2131 4238 
Q 1616 4238 1336 4038 
Q 1056 3838 1056 3469 
Q 1056 3159 1242 3001 
Q 1428 2844 1947 2747 
L 2328 2669 
Q 3034 2534 3370 2195 
Q 3706 1856 3706 1288 
Q 3706 609 3251 259 
Q 2797 -91 1919 -91 
Q 1588 -91 1214 -16 
Q 841 59 441 206 
L 441 856 
Q 825 641 1194 531 
Q 1563 422 1919 422 
Q 2459 422 2753 634 
Q 3047 847 3047 1241 
Q 3047 1584 2836 1778 
Q 2625 1972 2144 2069 
L 1759 2144 
Q 1053 2284 737 2584 
Q 422 2884 422 3419 
Q 422 4038 858 4394 
Q 1294 4750 2059 4750 
Q 2388 4750 2728 4690 
Q 3069 4631 3425 4513 
z
" transform="scale(0.015625)"/>
       </defs>
       <use xlink:href="#DejaVuSans-6c"/>
       <use xlink:href="#DejaVuSans-6f" x="27.783203"/>
       <use xlink:href="#DejaVuSans-67" x="88.964844"/>
       <use xlink:href="#DejaVuSans-49" x="152.441406"/>
       <use xlink:href="#DejaVuSans-53" x="181.933594"/>
       <use xlink:href="#DejaVuSans-49" x="245.410156"/>
      </g>
     </g>
    </g>
    <g id="xtick_3">
     <g id="line2d_3">
      <g>
       <use xlink:href="#m13567472ca" x="263.25" y="256.32" style="stroke: #000000; stroke-width: 0.8"/>
      </g>
     </g>
     <g id="text_3">
      <!-- Kleinberg -->
      <g transform="translate(239.554688 270.918437)scale(0.1 -0.1)">
       <defs>
        <path id="DejaVuSans-4b" d="M 628 4666 
L 1259 4666 
L 1259 2694 
L 3353 4666 
L 4166 4666 
L 1850 2491 
L 4331 0 
L 3500 0 
L 1259 2247 
L 1259 0 
L 628 0 
L 628 4666 
z
" transform="scale(0.015625)"/>
        <path id="DejaVuSans-65" d="M 3597 1894 
L 3597 1613 
L 953 1613 
Q 991 1019 1311 708 
Q 1631 397 2203 397 
Q 2534 397 2845 478 
Q 3156 559 3463 722 
L 3463 178 
Q 3153 47 2828 -22 
Q 2503 -91 2169 -91 
Q 1331 -91 842 396 
Q 353 884 353 1716 
Q 353 2575 817 3079 
Q 1281 3584 2069 3584 
Q 2775 3584 3186 3129 
Q 3597 2675 3597 1894 
z
M 3022 2063 
Q 3016 2534 2758 2815 
Q 2500 3097 2075 3097 
Q 1594 3097 1305 2825 
Q 1016 2553 972 2059 
L 3022 2063 
z
" transform="scale(0.015625)"/>
        <path id="DejaVuSans-69" d="M 603 3500 
L 1178 3500 
L 1178 0 
L 603 0 
L 603 3500 
z
M 603 4863 
L 1178 4863 
L 1178 4134 
L 603 4134 
L 603 4863 
z
" transform="scale(0.015625)"/>
        <path id="DejaVuSans-6e" d="M 3513 2113 
L 3513 0 
L 2938 0 
L 2938 2094 
Q 2938 2591 2744 2837 
Q 2550 3084 2163 3084 
Q 1697 3084 1428 2787 
Q 1159 2491 1159 1978 
L 1159 0 
L 581 0 
L 581 3500 
L 1159 3500 
L 1159 2956 
Q 1366 3272 1645 3428 
Q 1925 3584 2291 3584 
Q 2894 3584 3203 3211 
Q 3513 2838 3513 2113 
z
" transform="scale(0.015625)"/>
        <path id="DejaVuSans-62" d="M 3116 1747 
Q 3116 2381 2855 2742 
Q 2594 3103 2138 3103 
Q 1681 3103 1420 2742 
Q 1159 2381 1159 1747 
Q 1159 1113 1420 752 
Q 1681 391 2138 391 
Q 2594 391 2855 752 
Q 3116 1113 3116 1747 
z
M 1159 2969 
Q 1341 3281 1617 3432 
Q 1894 3584 2278 3584 
Q 2916 3584 3314 3078 
Q 3713 2572 3713 1747 
Q 3713 922 3314 415 
Q 2916 -91 2278 -91 
Q 1894 -91 1617 61 
Q 1341 213 1159 525 
L 1159 0 
L 581 0 
L 581 4863 
L 1159 4863 
L 1159 2969 
z
" transform="scale(0.015625)"/>
        <path id="DejaVuSans-72" d="M 2631 2963 
Q 2534 3019 2420 3045 
Q 2306 3072 2169 3072 
Q 1681 3072 1420 2755 
Q 1159 2438 1159 1844 
L 1159 0 
L 581 0 
L 581 3500 
L 1159 3500 
L 1159 2956 
Q 1341 3275 1631 3429 
Q 1922 3584 2338 3584 
Q 2397 3584 2469 3576 
Q 2541 3569 2628 3553 
L 2631 2963 
z
" transform="scale(0.015625)"/>
       </defs>
       <use xlink:href="#DejaVuSans-4b"/>
       <use xlink:href="#DejaVuSans-6c" x="65.576172"/>
       <use xlink:href="#DejaVuSans-65" x="93.359375"/>
       <use xlink:href="#DejaVuSans-69" x="154.882812"/>
       <use xlink:href="#DejaVuSans-6e" x="182.666016"/>
       <use xlink:href="#DejaVuSans-62" x="246.044922"/>
       <use xlink:href="#DejaVuSans-65" x="309.521484"/>
       <use xlink:href="#DejaVuSans-72" x="371.044922"/>
       <use xlink:href="#DejaVuSans-67" x="410.408203"/>
      </g>
     </g>
    </g>
    <g id="xtick_4">
     <g id="line2d_4">
      <g>
       <use xlink:href="#m13567472ca" x="346.95" y="256.32" style="stroke: #000000; stroke-width: 0.8"/>
      </g>
     </g>
     <g id="text_4">
      <!-- EM-Kleinberg -->
      <g transform="translate(313.977344 270.918437)scale(0.1 -0.1)">
       <defs>
        <path id="DejaVuSans-45" d="M 628 4666 
L 3578 4666 
L 3578 4134 
L 1259 4134 
L 1259 2753 
L 3481 2753 
L 3481 2222 
L 1259 2222 
L 1259 531 
L 3634 531 
L 3634 0 
L 628 0 
L 628 4666 
z
" transform="scale(0.015625)"/>
        <path id="DejaVuSans-2d" d="M 313 2009 
L 1997 2009 
L 1997 1497 
L 313 1497 
L 313 2009 
z
" transform="scale(0.015625)"/>
       </defs>
       <use xlink:href="#DejaVuSans-45"/>
       <use xlink:href="#DejaVuSans-4d" x="63.183594"/>
       <use xlink:href="#DejaVuSans-2d" x="149.462891"/>
       <use xlink:href="#DejaVuSans-4b" x="185.546875"/>
       <use xlink:href="#DejaVuSans-6c" x="251.123047"/>
       <use xlink:href="#DejaVuSans-65" x="278.90625"/>
       <use xlink:href="#DejaVuSans-69" x="340.429688"/>
       <use xlink:href="#DejaVuSans-6e" x="368.212891"/>
       <use xlink:href="#DejaVuSans-62" x="431.591797"/>
       <use xlink:href="#DejaVuSans-65" x="495.068359"/>
       <use xlink:href="#DejaVuSans-72" x="556.591797"/>
       <use xlink:href="#DejaVuSans-67" x="595.955078"/>
      </g>
     </g>
    </g>
    <g id="text_5">
     <!-- burst detection method -->
     <g transform="translate(162.335156 284.596563)scale(0.1 -0.1)">
      <defs>
       <path id="DejaVuSans-75" d="M 544 1381 
L 544 3500 
L 1119 3500 
L 1119 1403 
Q 1119 906 1312 657 
Q 1506 409 1894 409 
Q 2359 409 2629 706 
Q 2900 1003 2900 1516 
L 2900 3500 
L 3475 3500 
L 3475 0 
L 2900 0 
L 2900 538 
Q 2691 219 2414 64 
Q 2138 -91 1772 -91 
Q 1169 -91 856 284 
Q 544 659 544 1381 
z
M 1991 3584 
L 1991 3584 
z
" transform="scale(0.015625)"/>
       <path id="DejaVuSans-73" d="M 2834 3397 
L 2834 2853 
Q 2591 2978 2328 3040 
Q 2066 3103 1784 3103 
Q 1356 3103 1142 2972 
Q 928 2841 928 2578 
Q 928 2378 1081 2264 
Q 1234 2150 1697 2047 
L 1894 2003 
Q 2506 1872 2764 1633 
Q 3022 1394 3022 966 
Q 3022 478 2636 193 
Q 2250 -91 1575 -91 
Q 1294 -91 989 -36 
Q 684 19 347 128 
L 347 722 
Q 666 556 975 473 
Q 1284 391 1588 391 
Q 1994 391 2212 530 
Q 2431 669 2431 922 
Q 2431 1156 2273 1281 
Q 2116 1406 1581 1522 
L 1381 1569 
Q 847 1681 609 1914 
Q 372 2147 372 2553 
Q 372 3047 722 3315 
Q 1072 3584 1716 3584 
Q 2034 3584 2315 3537 
Q 2597 3491 2834 3397 
z
" transform="scale(0.015625)"/>
       <path id="DejaVuSans-74" d="M 1172 4494 
L 1172 3500 
L 2356 3500 
L 2356 3053 
L 1172 3053 
L 1172 1153 
Q 1172 725 1289 603 
Q 1406 481 1766 481 
L 2356 481 
L 2356 0 
L 1766 0 
Q 1100 0 847 248 
Q 594 497 594 1153 
L 594 3053 
L 172 3053 
L 172 3500 
L 594 3500 
L 594 4494 
L 1172 4494 
z
" transform="scale(0.015625)"/>
       <path id="DejaVuSans-20" transform="scale(0.015625)"/>
       <path id="DejaVuSans-64" d="M 2906 2969 
L 2906 4863 
L 3481 4863 
L 3481 0 
L 2906 0 
L 2906 525 
Q 2725 213 2448 61 
Q 2172 -91 1784 -91 
Q 1150 -91 751 415 
Q 353 922 353 1747 
Q 353 2572 751 3078 
Q 1150 3584 1784 3584 
Q 2172 3584 2448 3432 
Q 2725 3281 2906 2969 
z
M 947 1747 
Q 947 1113 1208 752 
Q 1469 391 1925 391 
Q 2381 391 2643 752 
Q 2906 1113 2906 1747 
Q 2906 2381 2643 2742 
Q 2381 3103 1925 3103 
Q 1469 3103 1208 2742 
Q 947 2381 947 1747 
z
" transform="scale(0.015625)"/>
       <path id="DejaVuSans-63" d="M 3122 3366 
L 3122 2828 
Q 2878 2963 2633 3030 
Q 2388 3097 2138 3097 
Q 1578 3097 1268 2742 
Q 959 2388 959 1747 
Q 959 1106 1268 751 
Q 1578 397 2138 397 
Q 2388 397 2633 464 
Q 2878 531 3122 666 
L 3122 134 
Q 2881 22 2623 -34 
Q 2366 -91 2075 -91 
Q 1284 -91 818 406 
Q 353 903 353 1747 
Q 353 2603 823 3093 
Q 1294 3584 2113 3584 
Q 2378 3584 2631 3529 
Q 2884 3475 3122 3366 
z
" transform="scale(0.015625)"/>
       <path id="DejaVuSans-6d" d="M 3328 2828 
Q 3544 3216 3844 3400 
Q 4144 3584 4550 3584 
Q 5097 3584 5394 3201 
Q 5691 2819 5691 2113 
L 5691 0 
L 5113 0 
L 5113 2094 
Q 5113 2597 4934 2840 
Q 4756 3084 4391 3084 
Q 3944 3084 3684 2787 
Q 3425 2491 3425 1978 
L 3425 0 
L 2847 0 
L 2847 2094 
Q 2847 2600 2669 2842 
Q 2491 3084 2119 3084 
Q 1678 3084 1418 2786 
Q 1159 2488 1159 1978 
L 1159 0 
L 581 0 
L 581 3500 
L 1159 3500 
L 1159 2956 
Q 1356 3278 1631 3431 
Q 1906 3584 2284 3584 
Q 2666 3584 2933 3390 
Q 3200 3197 3328 2828 
z
" transform="scale(0.015625)"/>
       <path id="DejaVuSans-68" d="M 3513 2113 
L 3513 0 
L 2938 0 
L 2938 2094 
Q 2938 2591 2744 2837 
Q 2550 3084 2163 3084 
Q 1697 3084 1428 2787 
Q 1159 2491 1159 1978 
L 1159 0 
L 581 0 
L 581 4863 
L 1159 4863 
L 1159 2956 
Q 1366 3272 1645 3428 
Q 1925 3584 2291 3584 
Q 2894 3584 3203 3211 
Q 3513 2838 3513 2113 
z
" transform="scale(0.015625)"/>
      </defs>
      <use xlink:href="#DejaVuSans-62"/>
      <use xlink:href="#DejaVuSans-75" x="63.476562"/>
      <use xlink:href="#DejaVuSans-72" x="126.855469"/>
      <use xlink:href="#DejaVuSans-73" x="167.96875"/>
      <use xlink:href="#DejaVuSans-74" x="220.068359"/>
      <use xlink:href="#DejaVuSans-20" x="259.277344"/>
      <use xlink:href="#DejaVuSans-64" x="291.064453"/>
      <use xlink:href="#DejaVuSans-65" x="354.541016"/>
      <use xlink:href="#DejaVuSans-74" x="416.064453"/>
      <use xlink:href="#DejaVuSans-65" x="455.273438"/>
      <use xlink:href="#DejaVuSans-63" x="516.796875"/>
      <use xlink:href="#DejaVuSans-74" x="571.777344"/>
      <use xlink:href="#DejaVuSans-69" x="610.986328"/>
      <use xlink:href="#DejaVuSans-6f" x="638.769531"/>
      <use xlink:href="#DejaVuSans-6e" x="699.951172"/>
      <use xlink:href="#DejaVuSans-20" x="763.330078"/>
      <use xlink:href="#DejaVuSans-6d" x="795.117188"/>
      <use xlink:href="#DejaVuSans-65" x="892.529297"/>
      <use xlink:href="#DejaVuSans-74" x="954.052734"/>
      <use xlink:href="#DejaVuSans-68" x="993.261719"/>
      <use xlink:href="#DejaVuSans-6f" x="1056.640625"/>
      <use xlink:href="#DejaVuSans-64" x="1117.822266"/>
     </g>
    </g>
   </g>
   <g id="matplotlib.axis_2">
    <g id="ytick_1">
     <g id="line2d_5">
      <defs>
       <path id="m15e5099601" d="M 0 0 
L -3.5 0 
" style="stroke: #000000; stroke-width: 0.8"/>
      </defs>
      <g>
       <use xlink:href="#m15e5099601" x="54" y="237.84" style="stroke: #000000; stroke-width: 0.8"/>
      </g>
     </g>
     <g id="text_6">
      <!-- 0.0 -->
      <g transform="translate(31.096875 241.639219)scale(0.1 -0.1)">
       <defs>
        <path id="DejaVuSans-30" d="M 2034 4250 
Q 1547 4250 1301 3770 
Q 1056 3291 1056 2328 
Q 1056 1369 1301 889 
Q 1547 409 2034 409 
Q 2525 409 2770 889 
Q 3016 1369 3016 2328 
Q 3016 3291 2770 3770 
Q 2525 4250 2034 4250 
z
M 2034 4750 
Q 2819 4750 3233 4129 
Q 3647 3509 3647 2328 
Q 3647 1150 3233 529 
Q 2819 -91 2034 -91 
Q 1250 -91 836 529 
Q 422 1150 422 2328 
Q 422 3509 836 4129 
Q 1250 4750 2034 4750 
z
" transform="scale(0.015625)"/>
        <path id="DejaVuSans-2e" d="M 684 794 
L 1344 794 
L 1344 0 
L 684 0 
L 684 794 
z
" transform="scale(0.015625)"/>
       </defs>
       <use xlink:href="#DejaVuSans-30"/>
       <use xlink:href="#DejaVuSans-2e" x="63.623047"/>
       <use xlink:href="#DejaVuSans-30" x="95.410156"/>
      </g>
     </g>
    </g>
    <g id="ytick_2">
     <g id="line2d_6">
      <g>
       <use xlink:href="#m15e5099601" x="54" y="200.88" style="stroke: #000000; stroke-width: 0.8"/>
      </g>
     </g>
     <g id="text_7">
      <!-- 0.2 -->
      <g transform="translate(31.096875 204.679219)scale(0.1 -0.1)">
       <defs>
        <path id="DejaVuSans-32" d="M 1228 531 
L 3431 531 
L 3431 0 
L 469 0 
L 469 531 
Q 828 903 1448 1529 
Q 2069 2156 2228 2338 
Q 2531 2678 2651 2914 
Q 2772 3150 2772 3378 
Q 2772 3750 2511 3984 
Q 2250 4219 1831 4219 
Q 1534 4219 1204 4116 
Q 875 4013 500 3803 
L 500 4441 
Q 881 4594 1212 4672 
Q 1544 4750 1819 4750 
Q 2544 4750 2975 4387 
Q 3406 4025 3406 3419 
Q 3406 3131 3298 2873 
Q 3191 2616 2906 2266 
Q 2828 2175 2409 1742 
Q 1991 1309 1228 531 
z
" transform="scale(0.015625)"/>
       </defs>
       <use xlink:href="#DejaVuSans-30"/>
       <use xlink:href="#DejaVuSans-2e" x="63.623047"/>
       <use xlink:href="#DejaVuSans-32" x="95.410156"/>
      </g>
     </g>
    </g>
    <g id="ytick_3">
     <g id="line2d_7">
      <g>
       <use xlink:href="#m15e5099601" x="54" y="163.92" style="stroke: #000000; stroke-width: 0.8"/>
      </g>
     </g>
     <g id="text_8">
      <!-- 0.4 -->
      <g transform="translate(31.096875 167.719219)scale(0.1 -0.1)">
       <defs>
        <path id="DejaVuSans-34" d="M 2419 4116 
L 825 1625 
L 2419 1625 
L 2419 4116 
z
M 2253 4666 
L 3047 4666 
L 3047 1625 
L 3713 1625 
L 3713 1100 
L 3047 1100 
L 3047 0 
L 2419 0 
L 2419 1100 
L 313 1100 
L 313 1709 
L 2253 4666 
z
" transform="scale(0.015625)"/>
       </defs>
       <use xlink:href="#DejaVuSans-30"/>
       <use xlink:href="#DejaVuSans-2e" x="63.623047"/>
       <use xlink:href="#DejaVuSans-34" x="95.410156"/>
      </g>
     </g>
    </g>
    <g id="ytick_4">
     <g id="line2d_8">
      <g>
       <use xlink:href="#m15e5099601" x="54" y="126.96" style="stroke: #000000; stroke-width: 0.8"/>
      </g>
     </g>
     <g id="text_9">
      <!-- 0.6 -->
      <g transform="translate(31.096875 130.759219)scale(0.1 -0.1)">
       <defs>
        <path id="DejaVuSans-36" d="M 2113 2584 
Q 1688 2584 1439 2293 
Q 1191 2003 1191 1497 
Q 1191 994 1439 701 
Q 1688 409 2113 409 
Q 2538 409 2786 701 
Q 3034 994 3034 1497 
Q 3034 2003 2786 2293 
Q 2538 2584 2113 2584 
z
M 3366 4563 
L 3366 3988 
Q 3128 4100 2886 4159 
Q 2644 4219 2406 4219 
Q 1781 4219 1451 3797 
Q 1122 3375 1075 2522 
Q 1259 2794 1537 2939 
Q 1816 3084 2150 3084 
Q 2853 3084 3261 2657 
Q 3669 2231 3669 1497 
Q 3669 778 3244 343 
Q 2819 -91 2113 -91 
Q 1303 -91 875 529 
Q 447 1150 447 2328 
Q 447 3434 972 4092 
Q 1497 4750 2381 4750 
Q 2619 4750 2861 4703 
Q 3103 4656 3366 4563 
z
" transform="scale(0.015625)"/>
       </defs>
       <use xlink:href="#DejaVuSans-30"/>
       <use xlink:href="#DejaVuSans-2e" x="63.623047"/>
       <use xlink:href="#DejaVuSans-36" x="95.410156"/>
      </g>
     </g>
    </g>
    <g id="ytick_5">
     <g id="line2d_9">
      <g>
       <use xlink:href="#m15e5099601" x="54" y="90" style="stroke: #000000; stroke-width: 0.8"/>
      </g>
     </g>
     <g id="text_10">
      <!-- 0.8 -->
      <g transform="translate(31.096875 93.799219)scale(0.1 -0.1)">
       <defs>
        <path id="DejaVuSans-38" d="M 2034 2216 
Q 1584 2216 1326 1975 
Q 1069 1734 1069 1313 
Q 1069 891 1326 650 
Q 1584 409 2034 409 
Q 2484 409 2743 651 
Q 3003 894 3003 1313 
Q 3003 1734 2745 1975 
Q 2488 2216 2034 2216 
z
M 1403 2484 
Q 997 2584 770 2862 
Q 544 3141 544 3541 
Q 544 4100 942 4425 
Q 1341 4750 2034 4750 
Q 2731 4750 3128 4425 
Q 3525 4100 3525 3541 
Q 3525 3141 3298 2862 
Q 3072 2584 2669 2484 
Q 3125 2378 3379 2068 
Q 3634 1759 3634 1313 
Q 3634 634 3220 271 
Q 2806 -91 2034 -91 
Q 1263 -91 848 271 
Q 434 634 434 1313 
Q 434 1759 690 2068 
Q 947 2378 1403 2484 
z
M 1172 3481 
Q 1172 3119 1398 2916 
Q 1625 2713 2034 2713 
Q 2441 2713 2670 2916 
Q 2900 3119 2900 3481 
Q 2900 3844 2670 4047 
Q 2441 4250 2034 4250 
Q 1625 4250 1398 4047 
Q 1172 3844 1172 3481 
z
" transform="scale(0.015625)"/>
       </defs>
       <use xlink:href="#DejaVuSans-30"/>
       <use xlink:href="#DejaVuSans-2e" x="63.623047"/>
       <use xlink:href="#DejaVuSans-38" x="95.410156"/>
      </g>
     </g>
    </g>
    <g id="ytick_6">
     <g id="line2d_10">
      <g>
       <use xlink:href="#m15e5099601" x="54" y="53.04" style="stroke: #000000; stroke-width: 0.8"/>
      </g>
     </g>
     <g id="text_11">
      <!-- 1.0 -->
      <g transform="translate(31.096875 56.839219)scale(0.1 -0.1)">
       <defs>
        <path id="DejaVuSans-31" d="M 794 531 
L 1825 531 
L 1825 4091 
L 703 3866 
L 703 4441 
L 1819 4666 
L 2450 4666 
L 2450 531 
L 3481 531 
L 3481 0 
L 794 0 
L 794 531 
z
" transform="scale(0.015625)"/>
       </defs>
       <use xlink:href="#DejaVuSans-31"/>
       <use xlink:href="#DejaVuSans-2e" x="63.623047"/>
       <use xlink:href="#DejaVuSans-30" x="95.410156"/>
      </g>
     </g>
    </g>
    <g id="text_12">
     <!-- spike classification accuracy -->
     <g transform="translate(25.017187 216.476719)rotate(-90)scale(0.1 -0.1)">
      <defs>
       <path id="DejaVuSans-70" d="M 1159 525 
L 1159 -1331 
L 581 -1331 
L 581 3500 
L 1159 3500 
L 1159 2969 
Q 1341 3281 1617 3432 
Q 1894 3584 2278 3584 
Q 2916 3584 3314 3078 
Q 3713 2572 3713 1747 
Q 3713 922 3314 415 
Q 2916 -91 2278 -91 
Q 1894 -91 1617 61 
Q 1341 213 1159 525 
z
M 3116 1747 
Q 3116 2381 2855 2742 
Q 2594 3103 2138 3103 
Q 1681 3103 1420 2742 
Q 1159 2381 1159 1747 
Q 1159 1113 1420 752 
Q 1681 391 2138 391 
Q 2594 391 2855 752 
Q 3116 1113 3116 1747 
z
" transform="scale(0.015625)"/>
       <path id="DejaVuSans-6b" d="M 581 4863 
L 1159 4863 
L 1159 1991 
L 2875 3500 
L 3609 3500 
L 1753 1863 
L 3688 0 
L 2938 0 
L 1159 1709 
L 1159 0 
L 581 0 
L 581 4863 
z
" transform="scale(0.015625)"/>
       <path id="DejaVuSans-61" d="M 2194 1759 
Q 1497 1759 1228 1600 
Q 959 1441 959 1056 
Q 959 750 1161 570 
Q 1363 391 1709 391 
Q 2188 391 2477 730 
Q 2766 1069 2766 1631 
L 2766 1759 
L 2194 1759 
z
M 3341 1997 
L 3341 0 
L 2766 0 
L 2766 531 
Q 2569 213 2275 61 
Q 1981 -91 1556 -91 
Q 1019 -91 701 211 
Q 384 513 384 1019 
Q 384 1609 779 1909 
Q 1175 2209 1959 2209 
L 2766 2209 
L 2766 2266 
Q 2766 2663 2505 2880 
Q 2244 3097 1772 3097 
Q 1472 3097 1187 3025 
Q 903 2953 641 2809 
L 641 3341 
Q 956 3463 1253 3523 
Q 1550 3584 1831 3584 
Q 2591 3584 2966 3190 
Q 3341 2797 3341 1997 
z
" transform="scale(0.015625)"/>
       <path id="DejaVuSans-66" d="M 2375 4863 
L 2375 4384 
L 1825 4384 
Q 1516 4384 1395 4259 
Q 1275 4134 1275 3809 
L 1275 3500 
L 2222 3500 
L 2222 3053 
L 1275 3053 
L 1275 0 
L 697 0 
L 697 3053 
L 147 3053 
L 147 3500 
L 697 3500 
L 697 3744 
Q 697 4328 969 4595 
Q 1241 4863 1831 4863 
L 2375 4863 
z
" transform="scale(0.015625)"/>
       <path id="DejaVuSans-79" d="M 2059 -325 
Q 1816 -950 1584 -1140 
Q 1353 -1331 966 -1331 
L 506 -1331 
L 506 -850 
L 844 -850 
Q 1081 -850 1212 -737 
Q 1344 -625 1503 -206 
L 1606 56 
L 191 3500 
L 800 3500 
L 1894 763 
L 2988 3500 
L 3597 3500 
L 2059 -325 
z
" transform="scale(0.015625)"/>
      </defs>
      <use xlink:href="#DejaVuSans-73"/>
      <use xlink:href="#DejaVuSans-70" x="52.099609"/>
      <use xlink:href="#DejaVuSans-69" x="115.576172"/>
      <use xlink:href="#DejaVuSans-6b" x="143.359375"/>
      <use xlink:href="#DejaVuSans-65" x="197.644531"/>
      <use xlink:href="#DejaVuSans-20" x="259.167969"/>
      <use xlink:href="#DejaVuSans-63" x="290.955078"/>
      <use xlink:href="#DejaVuSans-6c" x="345.935547"/>
      <use xlink:href="#DejaVuSans-61" x="373.71875"/>
      <use xlink:href="#DejaVuSans-73" x="434.998047"/>
      <use xlink:href="#DejaVuSans-73" x="487.097656"/>
      <use xlink:href="#DejaVuSans-69" x="539.197266"/>
      <use xlink:href="#DejaVuSans-66" x="566.980469"/>
      <use xlink:href="#DejaVuSans-69" x="602.185547"/>
      <use xlink:href="#DejaVuSans-63" x="629.96875"/>
      <use xlink:href="#DejaVuSans-61" x="684.949219"/>
      <use xlink:href="#DejaVuSans-74" x="746.228516"/>
      <use xlink:href="#DejaVuSans-69" x="785.4375"/>
      <use xlink:href="#DejaVuSans-6f" x="813.220703"/>
      <use xlink:href="#DejaVuSans-6e" x="874.402344"/>
      <use xlink:href="#DejaVuSans-20" x="937.78125"/>
      <use xlink:href="#DejaVuSans-61" x="969.568359"/>
      <use xlink:href="#DejaVuSans-63" x="1030.847656"/>
      <use xlink:href="#DejaVuSans-63" x="1085.828125"/>
      <use xlink:href="#DejaVuSans-75" x="1140.808594"/>
      <use xlink:href="#DejaVuSans-72" x="1204.1875"/>
      <use xlink:href="#DejaVuSans-61" x="1245.300781"/>
      <use xlink:href="#DejaVuSans-63" x="1306.580078"/>
      <use xlink:href="#DejaVuSans-79" x="1361.560547"/>
     </g>
    </g>
   </g>
   <g id="line2d_11">
    <path d="M 87.48 53.04 
L 87.48 53.04 
" clip-path="url(#p3e1e590c8b)" style="fill: none; stroke: #3f3f3f; stroke-width: 1.5; stroke-linecap: square"/>
   </g>
   <g id="line2d_12">
    <path d="M 87.48 53.04 
L 87.48 53.04 
" clip-path="url(#p3e1e590c8b)" style="fill: none; stroke: #3f3f3f; stroke-width: 1.5; stroke-linecap: square"/>
   </g>
   <g id="line2d_13">
    <path d="M 83.3787 53.04 
L 91.5813 53.04 
" clip-path="url(#p3e1e590c8b)" style="fill: none; stroke: #3f3f3f; stroke-width: 1.5; stroke-linecap: square"/>
   </g>
   <g id="line2d_14">
    <path d="M 83.3787 53.04 
L 91.5813 53.04 
" clip-path="url(#p3e1e590c8b)" style="fill: none; stroke: #3f3f3f; stroke-width: 1.5; stroke-linecap: square"/>
   </g>
   <g id="line2d_15"/>
   <g id="line2d_16">
    <path d="M 104.22 53.04 
L 104.22 53.04 
" clip-path="url(#p3e1e590c8b)" style="fill: none; stroke: #3f3f3f; stroke-width: 1.5; stroke-linecap: square"/>
   </g>
   <g id="line2d_17">
    <path d="M 104.22 53.04 
L 104.22 53.04 
" clip-path="url(#p3e1e590c8b)" style="fill: none; stroke: #3f3f3f; stroke-width: 1.5; stroke-linecap: square"/>
   </g>
   <g id="line2d_18">
    <path d="M 100.1187 53.04 
L 108.3213 53.04 
" clip-path="url(#p3e1e590c8b)" style="fill: none; stroke: #3f3f3f; stroke-width: 1.5; stroke-linecap: square"/>
   </g>
   <g id="line2d_19">
    <path d="M 100.1187 53.04 
L 108.3213 53.04 
" clip-path="url(#p3e1e590c8b)" style="fill: none; stroke: #3f3f3f; stroke-width: 1.5; stroke-linecap: square"/>
   </g>
   <g id="line2d_20">
    <defs>
     <path id="m63fcfde391" d="M 0 1.5 
C 0.397805 1.5 0.77937 1.341951 1.06066 1.06066 
C 1.341951 0.77937 1.5 0.397805 1.5 0 
C 1.5 -0.397805 1.341951 -0.77937 1.06066 -1.06066 
C 0.77937 -1.341951 0.397805 -1.5 0 -1.5 
C -0.397805 -1.5 -0.77937 -1.341951 -1.06066 -1.06066 
C -1.341951 -0.77937 -1.5 -0.397805 -1.5 0 
C -1.5 0.397805 -1.341951 0.77937 -1.06066 1.06066 
C -0.77937 1.341951 -0.397805 1.5 0 1.5 
z
" style="stroke: #000000"/>
    </defs>
    <g clip-path="url(#p3e1e590c8b)">
     <use xlink:href="#m63fcfde391" x="104.22" y="56.760024" style="fill-opacity: 0; stroke: #000000"/>
     <use xlink:href="#m63fcfde391" x="104.22" y="56.711976" style="fill-opacity: 0; stroke: #000000"/>
     <use xlink:href="#m63fcfde391" x="104.22" y="56.83764" style="fill-opacity: 0; stroke: #000000"/>
     <use xlink:href="#m63fcfde391" x="104.22" y="57.338448" style="fill-opacity: 0; stroke: #000000"/>
     <use xlink:href="#m63fcfde391" x="104.22" y="58.319736" style="fill-opacity: 0; stroke: #000000"/>
     <use xlink:href="#m63fcfde391" x="104.22" y="56.639904" style="fill-opacity: 0; stroke: #000000"/>
     <use xlink:href="#m63fcfde391" x="104.22" y="57.778272" style="fill-opacity: 0; stroke: #000000"/>
     <use xlink:href="#m63fcfde391" x="104.22" y="60.193608" style="fill-opacity: 0; stroke: #000000"/>
     <use xlink:href="#m63fcfde391" x="104.22" y="57.027984" style="fill-opacity: 0; stroke: #000000"/>
     <use xlink:href="#m63fcfde391" x="104.22" y="57.404976" style="fill-opacity: 0; stroke: #000000"/>
     <use xlink:href="#m63fcfde391" x="104.22" y="60.740616" style="fill-opacity: 0; stroke: #000000"/>
     <use xlink:href="#m63fcfde391" x="104.22" y="57.547272" style="fill-opacity: 0; stroke: #000000"/>
     <use xlink:href="#m63fcfde391" x="104.22" y="56.785896" style="fill-opacity: 0; stroke: #000000"/>
     <use xlink:href="#m63fcfde391" x="104.22" y="57.057552" style="fill-opacity: 0; stroke: #000000"/>
     <use xlink:href="#m63fcfde391" x="104.22" y="56.83764" style="fill-opacity: 0; stroke: #000000"/>
     <use xlink:href="#m63fcfde391" x="104.22" y="57.146256" style="fill-opacity: 0; stroke: #000000"/>
     <use xlink:href="#m63fcfde391" x="104.22" y="62.21532" style="fill-opacity: 0; stroke: #000000"/>
     <use xlink:href="#m63fcfde391" x="104.22" y="58.173744" style="fill-opacity: 0; stroke: #000000"/>
    </g>
   </g>
   <g id="line2d_21">
    <path d="M 171.18 53.04 
L 171.18 53.04 
" clip-path="url(#p3e1e590c8b)" style="fill: none; stroke: #3f3f3f; stroke-width: 1.5; stroke-linecap: square"/>
   </g>
   <g id="line2d_22">
    <path d="M 171.18 53.04 
L 171.18 53.04 
" clip-path="url(#p3e1e590c8b)" style="fill: none; stroke: #3f3f3f; stroke-width: 1.5; stroke-linecap: square"/>
   </g>
   <g id="line2d_23">
    <path d="M 167.0787 53.04 
L 175.2813 53.04 
" clip-path="url(#p3e1e590c8b)" style="fill: none; stroke: #3f3f3f; stroke-width: 1.5; stroke-linecap: square"/>
   </g>
   <g id="line2d_24">
    <path d="M 167.0787 53.04 
L 175.2813 53.04 
" clip-path="url(#p3e1e590c8b)" style="fill: none; stroke: #3f3f3f; stroke-width: 1.5; stroke-linecap: square"/>
   </g>
   <g id="line2d_25"/>
   <g id="line2d_26">
    <path d="M 187.92 53.04 
L 187.92 53.04 
" clip-path="url(#p3e1e590c8b)" style="fill: none; stroke: #3f3f3f; stroke-width: 1.5; stroke-linecap: square"/>
   </g>
   <g id="line2d_27">
    <path d="M 187.92 53.04 
L 187.92 53.04 
" clip-path="url(#p3e1e590c8b)" style="fill: none; stroke: #3f3f3f; stroke-width: 1.5; stroke-linecap: square"/>
   </g>
   <g id="line2d_28">
    <path d="M 183.8187 53.04 
L 192.0213 53.04 
" clip-path="url(#p3e1e590c8b)" style="fill: none; stroke: #3f3f3f; stroke-width: 1.5; stroke-linecap: square"/>
   </g>
   <g id="line2d_29">
    <path d="M 183.8187 53.04 
L 192.0213 53.04 
" clip-path="url(#p3e1e590c8b)" style="fill: none; stroke: #3f3f3f; stroke-width: 1.5; stroke-linecap: square"/>
   </g>
   <g id="line2d_30"/>
   <g id="line2d_31">
    <path d="M 254.88 57.854274 
L 254.88 64.202416 
" clip-path="url(#p3e1e590c8b)" style="fill: none; stroke: #3f3f3f; stroke-width: 1.5; stroke-linecap: square"/>
   </g>
   <g id="line2d_32">
    <path d="M 254.88 53.04 
L 254.88 53.04 
" clip-path="url(#p3e1e590c8b)" style="fill: none; stroke: #3f3f3f; stroke-width: 1.5; stroke-linecap: square"/>
   </g>
   <g id="line2d_33">
    <path d="M 250.7787 64.202416 
L 258.9813 64.202416 
" clip-path="url(#p3e1e590c8b)" style="fill: none; stroke: #3f3f3f; stroke-width: 1.5; stroke-linecap: square"/>
   </g>
   <g id="line2d_34">
    <path d="M 250.7787 53.04 
L 258.9813 53.04 
" clip-path="url(#p3e1e590c8b)" style="fill: none; stroke: #3f3f3f; stroke-width: 1.5; stroke-linecap: square"/>
   </g>
   <g id="line2d_35">
    <g clip-path="url(#p3e1e590c8b)">
     <use xlink:href="#m63fcfde391" x="254.88" y="65.963077" style="fill-opacity: 0; stroke: #000000"/>
     <use xlink:href="#m63fcfde391" x="254.88" y="66.934737" style="fill-opacity: 0; stroke: #000000"/>
    </g>
   </g>
   <g id="line2d_36">
    <path d="M 271.62 59.631393 
L 271.62 64.706667 
" clip-path="url(#p3e1e590c8b)" style="fill: none; stroke: #3f3f3f; stroke-width: 1.5; stroke-linecap: square"/>
   </g>
   <g id="line2d_37">
    <path d="M 271.62 55.715042 
L 271.62 53.04 
" clip-path="url(#p3e1e590c8b)" style="fill: none; stroke: #3f3f3f; stroke-width: 1.5; stroke-linecap: square"/>
   </g>
   <g id="line2d_38">
    <path d="M 267.5187 64.706667 
L 275.7213 64.706667 
" clip-path="url(#p3e1e590c8b)" style="fill: none; stroke: #3f3f3f; stroke-width: 1.5; stroke-linecap: square"/>
   </g>
   <g id="line2d_39">
    <path d="M 267.5187 53.04 
L 275.7213 53.04 
" clip-path="url(#p3e1e590c8b)" style="fill: none; stroke: #3f3f3f; stroke-width: 1.5; stroke-linecap: square"/>
   </g>
   <g id="line2d_40">
    <g clip-path="url(#p3e1e590c8b)">
     <use xlink:href="#m63fcfde391" x="271.62" y="67.881451" style="fill-opacity: 0; stroke: #000000"/>
     <use xlink:href="#m63fcfde391" x="271.62" y="71.564105" style="fill-opacity: 0; stroke: #000000"/>
    </g>
   </g>
   <g id="line2d_41">
    <path d="M 338.58 53.04 
L 338.58 53.04 
" clip-path="url(#p3e1e590c8b)" style="fill: none; stroke: #3f3f3f; stroke-width: 1.5; stroke-linecap: square"/>
   </g>
   <g id="line2d_42">
    <path d="M 338.58 53.04 
L 338.58 53.04 
" clip-path="url(#p3e1e590c8b)" style="fill: none; stroke: #3f3f3f; stroke-width: 1.5; stroke-linecap: square"/>
   </g>
   <g id="line2d_43">
    <path d="M 334.4787 53.04 
L 342.6813 53.04 
" clip-path="url(#p3e1e590c8b)" style="fill: none; stroke: #3f3f3f; stroke-width: 1.5; stroke-linecap: square"/>
   </g>
   <g id="line2d_44">
    <path d="M 334.4787 53.04 
L 342.6813 53.04 
" clip-path="url(#p3e1e590c8b)" style="fill: none; stroke: #3f3f3f; stroke-width: 1.5; stroke-linecap: square"/>
   </g>
   <g id="line2d_45">
    <g clip-path="url(#p3e1e590c8b)">
     <use xlink:href="#m63fcfde391" x="338.58" y="56.462222" style="fill-opacity: 0; stroke: #000000"/>
     <use xlink:href="#m63fcfde391" x="338.58" y="57.146667" style="fill-opacity: 0; stroke: #000000"/>
     <use xlink:href="#m63fcfde391" x="338.58" y="57.177313" style="fill-opacity: 0; stroke: #000000"/>
     <use xlink:href="#m63fcfde391" x="338.58" y="56.663529" style="fill-opacity: 0; stroke: #000000"/>
     <use xlink:href="#m63fcfde391" x="338.58" y="58.137931" style="fill-opacity: 0; stroke: #000000"/>
     <use xlink:href="#m63fcfde391" x="338.58" y="56.811429" style="fill-opacity: 0; stroke: #000000"/>
     <use xlink:href="#m63fcfde391" x="338.58" y="56.687368" style="fill-opacity: 0; stroke: #000000"/>
     <use xlink:href="#m63fcfde391" x="338.58" y="56.971915" style="fill-opacity: 0; stroke: #000000"/>
     <use xlink:href="#m63fcfde391" x="338.58" y="56.83726" style="fill-opacity: 0; stroke: #000000"/>
     <use xlink:href="#m63fcfde391" x="338.58" y="56.760805" style="fill-opacity: 0; stroke: #000000"/>
     <use xlink:href="#m63fcfde391" x="338.58" y="57.086715" style="fill-opacity: 0; stroke: #000000"/>
     <use xlink:href="#m63fcfde391" x="338.58" y="57" style="fill-opacity: 0; stroke: #000000"/>
     <use xlink:href="#m63fcfde391" x="338.58" y="61.504122" style="fill-opacity: 0; stroke: #000000"/>
     <use xlink:href="#m63fcfde391" x="338.58" y="61.253333" style="fill-opacity: 0; stroke: #000000"/>
     <use xlink:href="#m63fcfde391" x="338.58" y="57.086715" style="fill-opacity: 0; stroke: #000000"/>
     <use xlink:href="#m63fcfde391" x="338.58" y="56.863448" style="fill-opacity: 0; stroke: #000000"/>
     <use xlink:href="#m63fcfde391" x="338.58" y="57.405354" style="fill-opacity: 0; stroke: #000000"/>
     <use xlink:href="#m63fcfde391" x="338.58" y="58.64" style="fill-opacity: 0; stroke: #000000"/>
     <use xlink:href="#m63fcfde391" x="338.58" y="57" style="fill-opacity: 0; stroke: #000000"/>
    </g>
   </g>
   <g id="line2d_46">
    <path d="M 355.32 55.774414 
L 355.32 59.655752 
" clip-path="url(#p3e1e590c8b)" style="fill: none; stroke: #3f3f3f; stroke-width: 1.5; stroke-linecap: square"/>
   </g>
   <g id="line2d_47">
    <path d="M 355.32 53.04 
L 355.32 53.04 
" clip-path="url(#p3e1e590c8b)" style="fill: none; stroke: #3f3f3f; stroke-width: 1.5; stroke-linecap: square"/>
   </g>
   <g id="line2d_48">
    <path d="M 351.2187 59.655752 
L 359.4213 59.655752 
" clip-path="url(#p3e1e590c8b)" style="fill: none; stroke: #3f3f3f; stroke-width: 1.5; stroke-linecap: square"/>
   </g>
   <g id="line2d_49">
    <path d="M 351.2187 53.04 
L 359.4213 53.04 
" clip-path="url(#p3e1e590c8b)" style="fill: none; stroke: #3f3f3f; stroke-width: 1.5; stroke-linecap: square"/>
   </g>
   <g id="line2d_50">
    <g clip-path="url(#p3e1e590c8b)">
     <use xlink:href="#m63fcfde391" x="355.32" y="60.147692" style="fill-opacity: 0; stroke: #000000"/>
    </g>
   </g>
   <g id="line2d_51">
    <path d="M 79.2774 53.04 
L 95.6826 53.04 
" clip-path="url(#p3e1e590c8b)" style="fill: none; stroke: #3f3f3f; stroke-width: 1.5; stroke-linecap: square"/>
   </g>
   <g id="line2d_52">
    <path d="M 96.0174 53.04 
L 112.4226 53.04 
" clip-path="url(#p3e1e590c8b)" style="fill: none; stroke: #3f3f3f; stroke-width: 1.5; stroke-linecap: square"/>
   </g>
   <g id="line2d_53">
    <path d="M 162.9774 53.04 
L 179.3826 53.04 
" clip-path="url(#p3e1e590c8b)" style="fill: none; stroke: #3f3f3f; stroke-width: 1.5; stroke-linecap: square"/>
   </g>
   <g id="line2d_54">
    <path d="M 179.7174 53.04 
L 196.1226 53.04 
" clip-path="url(#p3e1e590c8b)" style="fill: none; stroke: #3f3f3f; stroke-width: 1.5; stroke-linecap: square"/>
   </g>
   <g id="line2d_55">
    <path d="M 246.6774 54.805605 
L 263.0826 54.805605 
" clip-path="url(#p3e1e590c8b)" style="fill: none; stroke: #3f3f3f; stroke-width: 1.5; stroke-linecap: square"/>
   </g>
   <g id="line2d_56">
    <path d="M 263.4174 57.34884 
L 279.8226 57.34884 
" clip-path="url(#p3e1e590c8b)" style="fill: none; stroke: #3f3f3f; stroke-width: 1.5; stroke-linecap: square"/>
   </g>
   <g id="line2d_57">
    <path d="M 330.3774 53.04 
L 346.7826 53.04 
" clip-path="url(#p3e1e590c8b)" style="fill: none; stroke: #3f3f3f; stroke-width: 1.5; stroke-linecap: square"/>
   </g>
   <g id="line2d_58">
    <path d="M 347.1174 54.363158 
L 363.5226 54.363158 
" clip-path="url(#p3e1e590c8b)" style="fill: none; stroke: #3f3f3f; stroke-width: 1.5; stroke-linecap: square"/>
   </g>
   <g id="patch_13">
    <path d="M 54 256.32 
L 54 34.56 
" style="fill: none; stroke: #000000; stroke-width: 0.8; stroke-linejoin: miter; stroke-linecap: square"/>
   </g>
   <g id="patch_14">
    <path d="M 388.8 256.32 
L 388.8 34.56 
" style="fill: none; stroke: #000000; stroke-width: 0.8; stroke-linejoin: miter; stroke-linecap: square"/>
   </g>
   <g id="patch_15">
    <path d="M 54 256.32 
L 388.8 256.32 
" style="fill: none; stroke: #000000; stroke-width: 0.8; stroke-linejoin: miter; stroke-linecap: square"/>
   </g>
   <g id="patch_16">
    <path d="M 54 34.56 
L 388.8 34.56 
" style="fill: none; stroke: #000000; stroke-width: 0.8; stroke-linejoin: miter; stroke-linecap: square"/>
   </g>
   <g id="text_13">
    <!-- Non-bursting -->
    <g transform="translate(182.438438 28.56)scale(0.12 -0.12)">
     <defs>
      <path id="DejaVuSans-4e" d="M 628 4666 
L 1478 4666 
L 3547 763 
L 3547 4666 
L 4159 4666 
L 4159 0 
L 3309 0 
L 1241 3903 
L 1241 0 
L 628 0 
L 628 4666 
z
" transform="scale(0.015625)"/>
     </defs>
     <use xlink:href="#DejaVuSans-4e"/>
     <use xlink:href="#DejaVuSans-6f" x="74.804688"/>
     <use xlink:href="#DejaVuSans-6e" x="135.986328"/>
     <use xlink:href="#DejaVuSans-2d" x="199.365234"/>
     <use xlink:href="#DejaVuSans-62" x="235.449219"/>
     <use xlink:href="#DejaVuSans-75" x="298.925781"/>
     <use xlink:href="#DejaVuSans-72" x="362.304688"/>
     <use xlink:href="#DejaVuSans-73" x="403.417969"/>
     <use xlink:href="#DejaVuSans-74" x="455.517578"/>
     <use xlink:href="#DejaVuSans-69" x="494.726562"/>
     <use xlink:href="#DejaVuSans-6e" x="522.509766"/>
     <use xlink:href="#DejaVuSans-67" x="585.888672"/>
    </g>
   </g>
   <g id="legend_1">
    <g id="patch_17">
     <path d="M 208.714063 251.32 
L 381.8 251.32 
Q 383.8 251.32 383.8 249.32 
L 383.8 220.96375 
Q 383.8 218.96375 381.8 218.96375 
L 208.714063 218.96375 
Q 206.714063 218.96375 206.714063 220.96375 
L 206.714063 249.32 
Q 206.714063 251.32 208.714063 251.32 
z
" style="fill: #ffffff; opacity: 0.8; stroke: #cccccc; stroke-linejoin: miter"/>
    </g>
    <g id="patch_18">
     <path d="M 210.714063 230.562187 
L 230.714063 230.562187 
L 230.714063 223.562187 
L 210.714063 223.562187 
z
" style="fill: #3274a1; stroke: #3f3f3f; stroke-width: 0.75; stroke-linejoin: miter"/>
    </g>
    <g id="text_14">
     <!-- Non-bursting stationary -->
     <g transform="translate(238.714063 230.562187)scale(0.1 -0.1)">
      <use xlink:href="#DejaVuSans-4e"/>
      <use xlink:href="#DejaVuSans-6f" x="74.804688"/>
      <use xlink:href="#DejaVuSans-6e" x="135.986328"/>
      <use xlink:href="#DejaVuSans-2d" x="199.365234"/>
      <use xlink:href="#DejaVuSans-62" x="235.449219"/>
      <use xlink:href="#DejaVuSans-75" x="298.925781"/>
      <use xlink:href="#DejaVuSans-72" x="362.304688"/>
      <use xlink:href="#DejaVuSans-73" x="403.417969"/>
      <use xlink:href="#DejaVuSans-74" x="455.517578"/>
      <use xlink:href="#DejaVuSans-69" x="494.726562"/>
      <use xlink:href="#DejaVuSans-6e" x="522.509766"/>
      <use xlink:href="#DejaVuSans-67" x="585.888672"/>
      <use xlink:href="#DejaVuSans-20" x="649.365234"/>
      <use xlink:href="#DejaVuSans-73" x="681.152344"/>
      <use xlink:href="#DejaVuSans-74" x="733.251953"/>
      <use xlink:href="#DejaVuSans-61" x="772.460938"/>
      <use xlink:href="#DejaVuSans-74" x="833.740234"/>
      <use xlink:href="#DejaVuSans-69" x="872.949219"/>
      <use xlink:href="#DejaVuSans-6f" x="900.732422"/>
      <use xlink:href="#DejaVuSans-6e" x="961.914062"/>
      <use xlink:href="#DejaVuSans-61" x="1025.292969"/>
      <use xlink:href="#DejaVuSans-72" x="1086.572266"/>
      <use xlink:href="#DejaVuSans-79" x="1127.685547"/>
     </g>
    </g>
    <g id="patch_19">
     <path d="M 210.714063 245.240313 
L 230.714063 245.240313 
L 230.714063 238.240313 
L 210.714063 238.240313 
z
" style="fill: #e1812c; stroke: #3f3f3f; stroke-width: 0.75; stroke-linejoin: miter"/>
    </g>
    <g id="text_15">
     <!-- Non-bursting non-stationary -->
     <g transform="translate(238.714063 245.240313)scale(0.1 -0.1)">
      <use xlink:href="#DejaVuSans-4e"/>
      <use xlink:href="#DejaVuSans-6f" x="74.804688"/>
      <use xlink:href="#DejaVuSans-6e" x="135.986328"/>
      <use xlink:href="#DejaVuSans-2d" x="199.365234"/>
      <use xlink:href="#DejaVuSans-62" x="235.449219"/>
      <use xlink:href="#DejaVuSans-75" x="298.925781"/>
      <use xlink:href="#DejaVuSans-72" x="362.304688"/>
      <use xlink:href="#DejaVuSans-73" x="403.417969"/>
      <use xlink:href="#DejaVuSans-74" x="455.517578"/>
      <use xlink:href="#DejaVuSans-69" x="494.726562"/>
      <use xlink:href="#DejaVuSans-6e" x="522.509766"/>
      <use xlink:href="#DejaVuSans-67" x="585.888672"/>
      <use xlink:href="#DejaVuSans-20" x="649.365234"/>
      <use xlink:href="#DejaVuSans-6e" x="681.152344"/>
      <use xlink:href="#DejaVuSans-6f" x="744.53125"/>
      <use xlink:href="#DejaVuSans-6e" x="805.712891"/>
      <use xlink:href="#DejaVuSans-2d" x="869.091797"/>
      <use xlink:href="#DejaVuSans-73" x="905.175781"/>
      <use xlink:href="#DejaVuSans-74" x="957.275391"/>
      <use xlink:href="#DejaVuSans-61" x="996.484375"/>
      <use xlink:href="#DejaVuSans-74" x="1057.763672"/>
      <use xlink:href="#DejaVuSans-69" x="1096.972656"/>
      <use xlink:href="#DejaVuSans-6f" x="1124.755859"/>
      <use xlink:href="#DejaVuSans-6e" x="1185.9375"/>
      <use xlink:href="#DejaVuSans-61" x="1249.316406"/>
      <use xlink:href="#DejaVuSans-72" x="1310.595703"/>
      <use xlink:href="#DejaVuSans-79" x="1351.708984"/>
     </g>
    </g>
   </g>
  </g>
 </g>
 <defs>
  <clipPath id="p3e1e590c8b">
   <rect x="54" y="34.56" width="334.8" height="221.76"/>
  </clipPath>
 </defs>
</svg>
