<?xml version="1.0" encoding="utf-8" standalone="no"?>
<!DOCTYPE svg PUBLIC "-//W3C//DTD SVG 1.1//EN"
  "http://www.w3.org/Graphics/SVG/1.1/DTD/svg11.dtd">
<svg xmlns:xlink="http://www.w3.org/1999/xlink" width="460.8pt" height="345.6pt" viewBox="0 0 460.8 345.6" xmlns="http://www.w3.org/2000/svg" version="1.1">
 <metadata>
  <rdf:RDF xmlns:dc="http://purl.org/dc/elements/1.1/" xmlns:cc="http://creativecommons.org/ns#" xmlns:rdf="http://www.w3.org/1999/02/22-rdf-syntax-ns#">
   <cc:Work>
    <dc:type rdf:resource="http://purl.org/dc/dcmitype/StillImage"/>
    <dc:date>2022-11-21T21:12:57.021656</dc:date>
    <dc:format>image/svg+xml</dc:format>
    <dc:creator>
     <cc:Agent>
      <dc:title>Matplotlib v3.5.2, https://matplotlib.org/</dc:title>
     </cc:Agent>
    </dc:creator>
   </cc:Work>
  </rdf:RDF>
 </metadata>
 <defs>
  <style type="text/css">*{stroke-linejoin: round; stroke-linecap: butt}</style>
 </defs>
 <g id="figure_1">
  <g id="patch_1">
   <path d="M 0 345.6 
L 460.8 345.6 
L 460.8 0 
L 0 0 
L 0 345.6 
z
" style="fill: none"/>
  </g>
  <g id="axes_1">
   <g id="patch_2">
    <path d="M 73.832727 307.584 
L 80.325818 307.584 
L 80.325818 163.968 
L 73.832727 163.968 
z
" clip-path="url(#p5058ddb969)" style="fill: #cfe2b7"/>
   </g>
   <g id="patch_3">
    <path d="M 80.325818 307.584 
L 86.818909 307.584 
L 86.818909 121.728 
L 80.325818 121.728 
z
" clip-path="url(#p5058ddb969)" style="fill: #cfe2b7"/>
   </g>
   <g id="patch_4">
    <path d="M 86.818909 307.584 
L 93.312 307.584 
L 93.312 197.76 
L 86.818909 197.76 
z
" clip-path="url(#p5058ddb969)" style="fill: #cfe2b7"/>
   </g>
   <g id="patch_5">
    <path d="M 93.312 307.584 
L 99.805091 307.584 
L 99.805091 214.656 
L 93.312 214.656 
z
" clip-path="url(#p5058ddb969)" style="fill: #cfe2b7"/>
   </g>
   <g id="patch_6">
    <path d="M 99.805091 307.584 
L 106.298182 307.584 
L 106.298182 155.52 
L 99.805091 155.52 
z
" clip-path="url(#p5058ddb969)" style="fill: #cfe2b7"/>
   </g>
   <g id="patch_7">
    <path d="M 106.298182 307.584 
L 112.791273 307.584 
L 112.791273 71.04 
L 106.298182 71.04 
z
" clip-path="url(#p5058ddb969)" style="fill: #cfe2b7"/>
   </g>
   <g id="patch_8">
    <path d="M 112.791273 307.584 
L 119.284364 307.584 
L 119.284364 147.072 
L 112.791273 147.072 
z
" clip-path="url(#p5058ddb969)" style="fill: #cfe2b7"/>
   </g>
   <g id="patch_9">
    <path d="M 119.284364 307.584 
L 125.777455 307.584 
L 125.777455 138.624 
L 119.284364 138.624 
z
" clip-path="url(#p5058ddb969)" style="fill: #cfe2b7"/>
   </g>
   <g id="patch_10">
    <path d="M 125.777455 307.584 
L 132.270545 307.584 
L 132.270545 189.312 
L 125.777455 189.312 
z
" clip-path="url(#p5058ddb969)" style="fill: #cfe2b7"/>
   </g>
   <g id="patch_11">
    <path d="M 132.270545 307.584 
L 138.763636 307.584 
L 138.763636 189.312 
L 132.270545 189.312 
z
" clip-path="url(#p5058ddb969)" style="fill: #cfe2b7"/>
   </g>
   <g id="patch_12">
    <path d="M 138.763636 307.584 
L 145.256727 307.584 
L 145.256727 172.416 
L 138.763636 172.416 
z
" clip-path="url(#p5058ddb969)" style="fill: #cfe2b7"/>
   </g>
   <g id="patch_13">
    <path d="M 145.256727 307.584 
L 151.749818 307.584 
L 151.749818 214.656 
L 145.256727 214.656 
z
" clip-path="url(#p5058ddb969)" style="fill: #cfe2b7"/>
   </g>
   <g id="patch_14">
    <path d="M 151.749818 307.584 
L 158.242909 307.584 
L 158.242909 197.76 
L 151.749818 197.76 
z
" clip-path="url(#p5058ddb969)" style="fill: #cfe2b7"/>
   </g>
   <g id="patch_15">
    <path d="M 158.242909 307.584 
L 164.736 307.584 
L 164.736 180.864 
L 158.242909 180.864 
z
" clip-path="url(#p5058ddb969)" style="fill: #cfe2b7"/>
   </g>
   <g id="patch_16">
    <path d="M 164.736 307.584 
L 171.229091 307.584 
L 171.229091 189.312 
L 164.736 189.312 
z
" clip-path="url(#p5058ddb969)" style="fill: #cfe2b7"/>
   </g>
   <g id="patch_17">
    <path d="M 171.229091 307.584 
L 177.722182 307.584 
L 177.722182 223.104 
L 171.229091 223.104 
z
" clip-path="url(#p5058ddb969)" style="fill: #cfe2b7"/>
   </g>
   <g id="patch_18">
    <path d="M 177.722182 307.584 
L 184.215273 307.584 
L 184.215273 214.656 
L 177.722182 214.656 
z
" clip-path="url(#p5058ddb969)" style="fill: #cfe2b7"/>
   </g>
   <g id="patch_19">
    <path d="M 184.215273 307.584 
L 190.708364 307.584 
L 190.708364 265.344 
L 184.215273 265.344 
z
" clip-path="url(#p5058ddb969)" style="fill: #cfe2b7"/>
   </g>
   <g id="patch_20">
    <path d="M 190.708364 307.584 
L 197.201455 307.584 
L 197.201455 240 
L 190.708364 240 
z
" clip-path="url(#p5058ddb969)" style="fill: #cfe2b7"/>
   </g>
   <g id="patch_21">
    <path d="M 197.201455 307.584 
L 203.694545 307.584 
L 203.694545 273.792 
L 197.201455 273.792 
z
" clip-path="url(#p5058ddb969)" style="fill: #cfe2b7"/>
   </g>
   <g id="patch_22">
    <path d="M 203.694545 307.584 
L 210.187636 307.584 
L 210.187636 290.688 
L 203.694545 290.688 
z
" clip-path="url(#p5058ddb969)" style="fill: #cfe2b7"/>
   </g>
   <g id="patch_23">
    <path d="M 210.187636 307.584 
L 216.680727 307.584 
L 216.680727 282.24 
L 210.187636 282.24 
z
" clip-path="url(#p5058ddb969)" style="fill: #cfe2b7"/>
   </g>
   <g id="patch_24">
    <path d="M 216.680727 307.584 
L 223.173818 307.584 
L 223.173818 299.136 
L 216.680727 299.136 
z
" clip-path="url(#p5058ddb969)" style="fill: #cfe2b7"/>
   </g>
   <g id="patch_25">
    <path d="M 223.173818 307.584 
L 229.666909 307.584 
L 229.666909 307.584 
L 223.173818 307.584 
z
" clip-path="url(#p5058ddb969)" style="fill: #cfe2b7"/>
   </g>
   <g id="patch_26">
    <path d="M 229.666909 307.584 
L 236.16 307.584 
L 236.16 307.584 
L 229.666909 307.584 
z
" clip-path="url(#p5058ddb969)" style="fill: #cfe2b7"/>
   </g>
   <g id="patch_27">
    <path d="M 236.16 307.584 
L 242.653091 307.584 
L 242.653091 307.584 
L 236.16 307.584 
z
" clip-path="url(#p5058ddb969)" style="fill: #cfe2b7"/>
   </g>
   <g id="patch_28">
    <path d="M 242.653091 307.584 
L 249.146182 307.584 
L 249.146182 299.136 
L 242.653091 299.136 
z
" clip-path="url(#p5058ddb969)" style="fill: #cfe2b7"/>
   </g>
   <g id="patch_29">
    <path d="M 249.146182 307.584 
L 255.639273 307.584 
L 255.639273 299.136 
L 249.146182 299.136 
z
" clip-path="url(#p5058ddb969)" style="fill: #cfe2b7"/>
   </g>
   <g id="patch_30">
    <path d="M 255.639273 307.584 
L 262.132364 307.584 
L 262.132364 307.584 
L 255.639273 307.584 
z
" clip-path="url(#p5058ddb969)" style="fill: #cfe2b7"/>
   </g>
   <g id="patch_31">
    <path d="M 262.132364 307.584 
L 268.625455 307.584 
L 268.625455 299.136 
L 262.132364 299.136 
z
" clip-path="url(#p5058ddb969)" style="fill: #cfe2b7"/>
   </g>
   <g id="patch_32">
    <path d="M 268.625455 307.584 
L 275.118545 307.584 
L 275.118545 265.344 
L 268.625455 265.344 
z
" clip-path="url(#p5058ddb969)" style="fill: #cfe2b7"/>
   </g>
   <g id="patch_33">
    <path d="M 275.118545 307.584 
L 281.611636 307.584 
L 281.611636 240 
L 275.118545 240 
z
" clip-path="url(#p5058ddb969)" style="fill: #cfe2b7"/>
   </g>
   <g id="patch_34">
    <path d="M 281.611636 307.584 
L 288.104727 307.584 
L 288.104727 223.104 
L 281.611636 223.104 
z
" clip-path="url(#p5058ddb969)" style="fill: #cfe2b7"/>
   </g>
   <g id="patch_35">
    <path d="M 288.104727 307.584 
L 294.597818 307.584 
L 294.597818 231.552 
L 288.104727 231.552 
z
" clip-path="url(#p5058ddb969)" style="fill: #cfe2b7"/>
   </g>
   <g id="patch_36">
    <path d="M 294.597818 307.584 
L 301.090909 307.584 
L 301.090909 231.552 
L 294.597818 231.552 
z
" clip-path="url(#p5058ddb969)" style="fill: #cfe2b7"/>
   </g>
   <g id="patch_37">
    <path d="M 301.090909 307.584 
L 307.584 307.584 
L 307.584 223.104 
L 301.090909 223.104 
z
" clip-path="url(#p5058ddb969)" style="fill: #cfe2b7"/>
   </g>
   <g id="patch_38">
    <path d="M 307.584 307.584 
L 314.077091 307.584 
L 314.077091 197.76 
L 307.584 197.76 
z
" clip-path="url(#p5058ddb969)" style="fill: #cfe2b7"/>
   </g>
   <g id="patch_39">
    <path d="M 314.077091 307.584 
L 320.570182 307.584 
L 320.570182 180.864 
L 314.077091 180.864 
z
" clip-path="url(#p5058ddb969)" style="fill: #cfe2b7"/>
   </g>
   <g id="patch_40">
    <path d="M 320.570182 307.584 
L 327.063273 307.584 
L 327.063273 138.624 
L 320.570182 138.624 
z
" clip-path="url(#p5058ddb969)" style="fill: #cfe2b7"/>
   </g>
   <g id="patch_41">
    <path d="M 327.063273 307.584 
L 333.556364 307.584 
L 333.556364 172.416 
L 327.063273 172.416 
z
" clip-path="url(#p5058ddb969)" style="fill: #cfe2b7"/>
   </g>
   <g id="patch_42">
    <path d="M 333.556364 307.584 
L 340.049455 307.584 
L 340.049455 180.864 
L 333.556364 180.864 
z
" clip-path="url(#p5058ddb969)" style="fill: #cfe2b7"/>
   </g>
   <g id="patch_43">
    <path d="M 340.049455 307.584 
L 346.542545 307.584 
L 346.542545 147.072 
L 340.049455 147.072 
z
" clip-path="url(#p5058ddb969)" style="fill: #cfe2b7"/>
   </g>
   <g id="patch_44">
    <path d="M 346.542545 307.584 
L 353.035636 307.584 
L 353.035636 180.864 
L 346.542545 180.864 
z
" clip-path="url(#p5058ddb969)" style="fill: #cfe2b7"/>
   </g>
   <g id="patch_45">
    <path d="M 353.035636 307.584 
L 359.528727 307.584 
L 359.528727 163.968 
L 353.035636 163.968 
z
" clip-path="url(#p5058ddb969)" style="fill: #cfe2b7"/>
   </g>
   <g id="patch_46">
    <path d="M 359.528727 307.584 
L 366.021818 307.584 
L 366.021818 189.312 
L 359.528727 189.312 
z
" clip-path="url(#p5058ddb969)" style="fill: #cfe2b7"/>
   </g>
   <g id="patch_47">
    <path d="M 366.021818 307.584 
L 372.514909 307.584 
L 372.514909 163.968 
L 366.021818 163.968 
z
" clip-path="url(#p5058ddb969)" style="fill: #cfe2b7"/>
   </g>
   <g id="patch_48">
    <path d="M 372.514909 307.584 
L 379.008 307.584 
L 379.008 121.728 
L 372.514909 121.728 
z
" clip-path="url(#p5058ddb969)" style="fill: #cfe2b7"/>
   </g>
   <g id="patch_49">
    <path d="M 379.008 307.584 
L 385.501091 307.584 
L 385.501091 189.312 
L 379.008 189.312 
z
" clip-path="url(#p5058ddb969)" style="fill: #cfe2b7"/>
   </g>
   <g id="patch_50">
    <path d="M 385.501091 307.584 
L 391.994182 307.584 
L 391.994182 113.28 
L 385.501091 113.28 
z
" clip-path="url(#p5058ddb969)" style="fill: #cfe2b7"/>
   </g>
   <g id="patch_51">
    <path d="M 391.994182 307.584 
L 398.487273 307.584 
L 398.487273 54.144 
L 391.994182 54.144 
z
" clip-path="url(#p5058ddb969)" style="fill: #cfe2b7"/>
   </g>
  </g>
 </g>
 <defs>
  <clipPath id="p5058ddb969">
   <rect x="57.6" y="41.472" width="357.12" height="266.112"/>
  </clipPath>
 </defs>
</svg>
