<?xml version="1.0" encoding="utf-8" standalone="no"?>
<!DOCTYPE svg PUBLIC "-//W3C//DTD SVG 1.1//EN"
  "http://www.w3.org/Graphics/SVG/1.1/DTD/svg11.dtd">
<svg xmlns:xlink="http://www.w3.org/1999/xlink" width="460.8pt" height="345.6pt" viewBox="0 0 460.8 345.6" xmlns="http://www.w3.org/2000/svg" version="1.1">
 <metadata>
  <rdf:RDF xmlns:dc="http://purl.org/dc/elements/1.1/" xmlns:cc="http://creativecommons.org/ns#" xmlns:rdf="http://www.w3.org/1999/02/22-rdf-syntax-ns#">
   <cc:Work>
    <dc:type rdf:resource="http://purl.org/dc/dcmitype/StillImage"/>
    <dc:date>2022-11-21T21:15:40.579427</dc:date>
    <dc:format>image/svg+xml</dc:format>
    <dc:creator>
     <cc:Agent>
      <dc:title>Matplotlib v3.5.2, https://matplotlib.org/</dc:title>
     </cc:Agent>
    </dc:creator>
   </cc:Work>
  </rdf:RDF>
 </metadata>
 <defs>
  <style type="text/css">*{stroke-linejoin: round; stroke-linecap: butt}</style>
 </defs>
 <g id="figure_1">
  <g id="patch_1">
   <path d="M 0 345.6 
L 460.8 345.6 
L 460.8 0 
L 0 0 
L 0 345.6 
z
" style="fill: none"/>
  </g>
  <g id="axes_1">
   <g id="patch_2">
    <path d="M 73.832727 307.584 
L 80.325818 307.584 
L 80.325818 70.423358 
L 73.832727 70.423358 
z
" clip-path="url(#peb5296b8fd)" style="fill: #cfe2b7"/>
   </g>
   <g id="patch_3">
    <path d="M 80.325818 307.584 
L 86.818909 307.584 
L 86.818909 67.019492 
L 80.325818 67.019492 
z
" clip-path="url(#peb5296b8fd)" style="fill: #cfe2b7"/>
   </g>
   <g id="patch_4">
    <path d="M 86.818909 307.584 
L 93.312 307.584 
L 93.312 68.943416 
L 86.818909 68.943416 
z
" clip-path="url(#peb5296b8fd)" style="fill: #cfe2b7"/>
   </g>
   <g id="patch_5">
    <path d="M 93.312 307.584 
L 99.805091 307.584 
L 99.805091 66.649507 
L 93.312 66.649507 
z
" clip-path="url(#peb5296b8fd)" style="fill: #cfe2b7"/>
   </g>
   <g id="patch_6">
    <path d="M 99.805091 307.584 
L 106.298182 307.584 
L 106.298182 69.683387 
L 99.805091 69.683387 
z
" clip-path="url(#peb5296b8fd)" style="fill: #cfe2b7"/>
   </g>
   <g id="patch_7">
    <path d="M 106.298182 307.584 
L 112.791273 307.584 
L 112.791273 71.089331 
L 106.298182 71.089331 
z
" clip-path="url(#peb5296b8fd)" style="fill: #cfe2b7"/>
   </g>
   <g id="patch_8">
    <path d="M 112.791273 307.584 
L 119.284364 307.584 
L 119.284364 66.279521 
L 112.791273 66.279521 
z
" clip-path="url(#peb5296b8fd)" style="fill: #cfe2b7"/>
   </g>
   <g id="patch_9">
    <path d="M 119.284364 307.584 
L 125.777455 307.584 
L 125.777455 73.605232 
L 119.284364 73.605232 
z
" clip-path="url(#peb5296b8fd)" style="fill: #cfe2b7"/>
   </g>
   <g id="patch_10">
    <path d="M 125.777455 307.584 
L 132.270545 307.584 
L 132.270545 75.307165 
L 125.777455 75.307165 
z
" clip-path="url(#peb5296b8fd)" style="fill: #cfe2b7"/>
   </g>
   <g id="patch_11">
    <path d="M 132.270545 307.584 
L 138.763636 307.584 
L 138.763636 67.093489 
L 132.270545 67.093489 
z
" clip-path="url(#peb5296b8fd)" style="fill: #cfe2b7"/>
   </g>
   <g id="patch_12">
    <path d="M 138.763636 307.584 
L 145.256727 307.584 
L 145.256727 68.277442 
L 138.763636 68.277442 
z
" clip-path="url(#peb5296b8fd)" style="fill: #cfe2b7"/>
   </g>
   <g id="patch_13">
    <path d="M 145.256727 307.584 
L 151.749818 307.584 
L 151.749818 71.459317 
L 145.256727 71.459317 
z
" clip-path="url(#peb5296b8fd)" style="fill: #cfe2b7"/>
   </g>
   <g id="patch_14">
    <path d="M 151.749818 307.584 
L 158.242909 307.584 
L 158.242909 67.389477 
L 151.749818 67.389477 
z
" clip-path="url(#peb5296b8fd)" style="fill: #cfe2b7"/>
   </g>
   <g id="patch_15">
    <path d="M 158.242909 307.584 
L 164.736 307.584 
L 164.736 75.233168 
L 158.242909 75.233168 
z
" clip-path="url(#peb5296b8fd)" style="fill: #cfe2b7"/>
   </g>
   <g id="patch_16">
    <path d="M 164.736 307.584 
L 171.229091 307.584 
L 171.229091 64.2816 
L 164.736 64.2816 
z
" clip-path="url(#peb5296b8fd)" style="fill: #cfe2b7"/>
   </g>
   <g id="patch_17">
    <path d="M 171.229091 307.584 
L 177.722182 307.584 
L 177.722182 72.199288 
L 171.229091 72.199288 
z
" clip-path="url(#peb5296b8fd)" style="fill: #cfe2b7"/>
   </g>
   <g id="patch_18">
    <path d="M 177.722182 307.584 
L 184.215273 307.584 
L 184.215273 68.869419 
L 177.722182 68.869419 
z
" clip-path="url(#peb5296b8fd)" style="fill: #cfe2b7"/>
   </g>
   <g id="patch_19">
    <path d="M 184.215273 307.584 
L 190.708364 307.584 
L 190.708364 67.31548 
L 184.215273 67.31548 
z
" clip-path="url(#peb5296b8fd)" style="fill: #cfe2b7"/>
   </g>
   <g id="patch_20">
    <path d="M 190.708364 307.584 
L 197.201455 307.584 
L 197.201455 61.839696 
L 190.708364 61.839696 
z
" clip-path="url(#peb5296b8fd)" style="fill: #cfe2b7"/>
   </g>
   <g id="patch_21">
    <path d="M 197.201455 307.584 
L 203.694545 307.584 
L 203.694545 60.137764 
L 197.201455 60.137764 
z
" clip-path="url(#peb5296b8fd)" style="fill: #cfe2b7"/>
   </g>
   <g id="patch_22">
    <path d="M 203.694545 307.584 
L 210.187636 307.584 
L 210.187636 60.877734 
L 203.694545 60.877734 
z
" clip-path="url(#peb5296b8fd)" style="fill: #cfe2b7"/>
   </g>
   <g id="patch_23">
    <path d="M 210.187636 307.584 
L 216.680727 307.584 
L 216.680727 60.72974 
L 210.187636 60.72974 
z
" clip-path="url(#peb5296b8fd)" style="fill: #cfe2b7"/>
   </g>
   <g id="patch_24">
    <path d="M 216.680727 307.584 
L 223.173818 307.584 
L 223.173818 62.135685 
L 216.680727 62.135685 
z
" clip-path="url(#peb5296b8fd)" style="fill: #cfe2b7"/>
   </g>
   <g id="patch_25">
    <path d="M 223.173818 307.584 
L 229.666909 307.584 
L 229.666909 57.843854 
L 223.173818 57.843854 
z
" clip-path="url(#peb5296b8fd)" style="fill: #cfe2b7"/>
   </g>
   <g id="patch_26">
    <path d="M 229.666909 307.584 
L 236.16 307.584 
L 236.16 59.767778 
L 229.666909 59.767778 
z
" clip-path="url(#peb5296b8fd)" style="fill: #cfe2b7"/>
   </g>
   <g id="patch_27">
    <path d="M 236.16 307.584 
L 242.653091 307.584 
L 242.653091 58.657822 
L 236.16 58.657822 
z
" clip-path="url(#peb5296b8fd)" style="fill: #cfe2b7"/>
   </g>
   <g id="patch_28">
    <path d="M 242.653091 307.584 
L 249.146182 307.584 
L 249.146182 60.063766 
L 242.653091 60.063766 
z
" clip-path="url(#peb5296b8fd)" style="fill: #cfe2b7"/>
   </g>
   <g id="patch_29">
    <path d="M 249.146182 307.584 
L 255.639273 307.584 
L 255.639273 61.099726 
L 249.146182 61.099726 
z
" clip-path="url(#peb5296b8fd)" style="fill: #cfe2b7"/>
   </g>
   <g id="patch_30">
    <path d="M 255.639273 307.584 
L 262.132364 307.584 
L 262.132364 54.144 
L 255.639273 54.144 
z
" clip-path="url(#peb5296b8fd)" style="fill: #cfe2b7"/>
   </g>
   <g id="patch_31">
    <path d="M 262.132364 307.584 
L 268.625455 307.584 
L 268.625455 57.399872 
L 262.132364 57.399872 
z
" clip-path="url(#peb5296b8fd)" style="fill: #cfe2b7"/>
   </g>
   <g id="patch_32">
    <path d="M 268.625455 307.584 
L 275.118545 307.584 
L 275.118545 57.399872 
L 268.625455 57.399872 
z
" clip-path="url(#peb5296b8fd)" style="fill: #cfe2b7"/>
   </g>
   <g id="patch_33">
    <path d="M 275.118545 307.584 
L 281.611636 307.584 
L 281.611636 61.617705 
L 275.118545 61.617705 
z
" clip-path="url(#peb5296b8fd)" style="fill: #cfe2b7"/>
   </g>
   <g id="patch_34">
    <path d="M 281.611636 307.584 
L 288.104727 307.584 
L 288.104727 60.507749 
L 281.611636 60.507749 
z
" clip-path="url(#peb5296b8fd)" style="fill: #cfe2b7"/>
   </g>
   <g id="patch_35">
    <path d="M 288.104727 307.584 
L 294.597818 307.584 
L 294.597818 56.733898 
L 288.104727 56.733898 
z
" clip-path="url(#peb5296b8fd)" style="fill: #cfe2b7"/>
   </g>
   <g id="patch_36">
    <path d="M 294.597818 307.584 
L 301.090909 307.584 
L 301.090909 63.393635 
L 294.597818 63.393635 
z
" clip-path="url(#peb5296b8fd)" style="fill: #cfe2b7"/>
   </g>
   <g id="patch_37">
    <path d="M 301.090909 307.584 
L 307.584 307.584 
L 307.584 62.727661 
L 301.090909 62.727661 
z
" clip-path="url(#peb5296b8fd)" style="fill: #cfe2b7"/>
   </g>
   <g id="patch_38">
    <path d="M 307.584 307.584 
L 314.077091 307.584 
L 314.077091 61.025728 
L 307.584 61.025728 
z
" clip-path="url(#peb5296b8fd)" style="fill: #cfe2b7"/>
   </g>
   <g id="patch_39">
    <path d="M 314.077091 307.584 
L 320.570182 307.584 
L 320.570182 57.69586 
L 314.077091 57.69586 
z
" clip-path="url(#peb5296b8fd)" style="fill: #cfe2b7"/>
   </g>
   <g id="patch_40">
    <path d="M 320.570182 307.584 
L 327.063273 307.584 
L 327.063273 60.433752 
L 320.570182 60.433752 
z
" clip-path="url(#peb5296b8fd)" style="fill: #cfe2b7"/>
   </g>
   <g id="patch_41">
    <path d="M 327.063273 307.584 
L 333.556364 307.584 
L 333.556364 66.797501 
L 327.063273 66.797501 
z
" clip-path="url(#peb5296b8fd)" style="fill: #cfe2b7"/>
   </g>
   <g id="patch_42">
    <path d="M 333.556364 307.584 
L 340.049455 307.584 
L 340.049455 66.427515 
L 333.556364 66.427515 
z
" clip-path="url(#peb5296b8fd)" style="fill: #cfe2b7"/>
   </g>
   <g id="patch_43">
    <path d="M 340.049455 307.584 
L 346.542545 307.584 
L 346.542545 64.429594 
L 340.049455 64.429594 
z
" clip-path="url(#peb5296b8fd)" style="fill: #cfe2b7"/>
   </g>
   <g id="patch_44">
    <path d="M 346.542545 307.584 
L 353.035636 307.584 
L 353.035636 70.349361 
L 346.542545 70.349361 
z
" clip-path="url(#peb5296b8fd)" style="fill: #cfe2b7"/>
   </g>
   <g id="patch_45">
    <path d="M 353.035636 307.584 
L 359.528727 307.584 
L 359.528727 62.283679 
L 353.035636 62.283679 
z
" clip-path="url(#peb5296b8fd)" style="fill: #cfe2b7"/>
   </g>
   <g id="patch_46">
    <path d="M 359.528727 307.584 
L 366.021818 307.584 
L 366.021818 65.53955 
L 359.528727 65.53955 
z
" clip-path="url(#peb5296b8fd)" style="fill: #cfe2b7"/>
   </g>
   <g id="patch_47">
    <path d="M 366.021818 307.584 
L 372.514909 307.584 
L 372.514909 64.725582 
L 366.021818 64.725582 
z
" clip-path="url(#peb5296b8fd)" style="fill: #cfe2b7"/>
   </g>
   <g id="patch_48">
    <path d="M 372.514909 307.584 
L 379.008 307.584 
L 379.008 63.837618 
L 372.514909 63.837618 
z
" clip-path="url(#peb5296b8fd)" style="fill: #cfe2b7"/>
   </g>
   <g id="patch_49">
    <path d="M 379.008 307.584 
L 385.501091 307.584 
L 385.501091 66.723504 
L 379.008 66.723504 
z
" clip-path="url(#peb5296b8fd)" style="fill: #cfe2b7"/>
   </g>
   <g id="patch_50">
    <path d="M 385.501091 307.584 
L 391.994182 307.584 
L 391.994182 66.05753 
L 385.501091 66.05753 
z
" clip-path="url(#peb5296b8fd)" style="fill: #cfe2b7"/>
   </g>
   <g id="patch_51">
    <path d="M 391.994182 307.584 
L 398.487273 307.584 
L 398.487273 59.619784 
L 391.994182 59.619784 
z
" clip-path="url(#peb5296b8fd)" style="fill: #cfe2b7"/>
   </g>
  </g>
 </g>
 <defs>
  <clipPath id="peb5296b8fd">
   <rect x="57.6" y="41.472" width="357.12" height="266.112"/>
  </clipPath>
 </defs>
</svg>
