<?xml version="1.0" encoding="utf-8" standalone="no"?>
<!DOCTYPE svg PUBLIC "-//W3C//DTD SVG 1.1//EN"
  "http://www.w3.org/Graphics/SVG/1.1/DTD/svg11.dtd">
<svg xmlns:xlink="http://www.w3.org/1999/xlink" width="360pt" height="108pt" viewBox="0 0 360 108" xmlns="http://www.w3.org/2000/svg" version="1.1">
 <metadata>
  <rdf:RDF xmlns:dc="http://purl.org/dc/elements/1.1/" xmlns:cc="http://creativecommons.org/ns#" xmlns:rdf="http://www.w3.org/1999/02/22-rdf-syntax-ns#">
   <cc:Work>
    <dc:type rdf:resource="http://purl.org/dc/dcmitype/StillImage"/>
    <dc:date>2022-11-19T16:43:55.020616</dc:date>
    <dc:format>image/svg+xml</dc:format>
    <dc:creator>
     <cc:Agent>
      <dc:title>Matplotlib v3.5.2, https://matplotlib.org/</dc:title>
     </cc:Agent>
    </dc:creator>
   </cc:Work>
  </rdf:RDF>
 </metadata>
 <defs>
  <style type="text/css">*{stroke-linejoin: round; stroke-linecap: butt}</style>
 </defs>
 <g id="figure_1">
  <g id="patch_1">
   <path d="M 0 108 
L 360 108 
L 360 0 
L 0 0 
L 0 108 
z
" style="fill: none"/>
  </g>
  <g id="axes_1">
   <g id="line2d_1">
    <path d="M 57.681818 31.757349 
L 61.614165 31.661724 
L 67.512685 31.637886 
L 89.140592 30.948455 
L 93.072939 30.861334 
L 95.039112 30.741626 
L 98.971459 30.762797 
L 116.667019 29.882391 
L 118.633192 29.668862 
L 126.497886 29.378781 
L 134.362579 29.616261 
L 136.328753 29.796423 
L 140.261099 30.463968 
L 144.193446 31.194 
L 150.091966 32.647902 
L 155.990486 34.399332 
L 157.95666 34.637609 
L 161.889006 34.61556 
L 165.821353 34.331544 
L 171.719873 33.693593 
L 179.584567 32.896699 
L 191.381607 31.736618 
L 195.313953 31.558114 
L 199.2463 31.250374 
L 209.077167 30.928943 
L 218.908034 30.910244 
L 226.772727 30.766456 
L 232.671247 30.785903 
L 240.535941 30.69135 
L 244.468288 30.808504 
L 248.400634 30.785447 
L 256.265328 30.871821 
L 262.163848 30.850813 
L 271.994715 31.105333 
L 287.724101 31.308065 
L 291.656448 31.414228 
L 295.588795 31.397789 
L 299.521142 31.479073 
L 303.453488 31.54639 
L 311.318182 31.656715 
L 311.318182 31.656715 
" clip-path="url(#pef22e3cd59)" style="fill: none; stroke: #a9a9a9; stroke-width: 2.5; stroke-linecap: square"/>
   </g>
   <g id="line2d_2">
    <path d="M 116.667019 29.882391 
L 118.633192 29.668862 
L 120.599366 29.573171 
L 122.565539 29.530911 
L 124.531712 29.415025 
L 126.497886 29.378781 
L 128.464059 29.421529 
L 130.430233 29.419822 
L 132.396406 29.466667 
L 134.362579 29.616261 
L 136.328753 29.796423 
L 138.294926 30.091366 
L 140.261099 30.463968 
L 142.227273 30.798098 
L 144.193446 31.194 
L 146.159619 31.654065 
L 148.125793 32.120211 
L 150.091966 32.647902 
L 152.05814 33.249983 
L 154.024313 33.888698 
L 155.990486 34.399332 
L 157.95666 34.637609 
L 159.922833 34.67317 
L 161.889006 34.61556 
L 163.85518 34.503592 
L 165.821353 34.331544 
L 167.787526 34.154926 
L 169.7537 33.955804 
L 171.719873 33.693593 
L 173.686047 33.472194 
L 175.65222 33.33691 
L 177.618393 33.133447 
L 179.584567 32.896699 
L 181.55074 32.706309 
L 183.516913 32.501365 
L 185.483087 32.30587 
L 187.44926 32.101561 
L 189.415433 31.874293 
L 191.381607 31.736618 
L 193.34778 31.682634 
L 195.313953 31.558114 
L 197.280127 31.379366 
L 199.2463 31.250374 
L 201.212474 31.167691 
L 203.178647 31.091333 
L 205.14482 31.021854 
L 207.110994 30.96626 
L 209.077167 30.928943 
L 211.04334 30.943415 
L 213.009514 30.935984 
" clip-path="url(#pef22e3cd59)" style="fill: none; stroke: #1f77b4; stroke-width: 5; stroke-linecap: square"/>
   </g>
  </g>
 </g>
 <defs>
  <clipPath id="pef22e3cd59">
   <rect x="45" y="12.96" width="279" height="83.16"/>
  </clipPath>
 </defs>
</svg>
