<?xml version="1.0" encoding="utf-8" standalone="no"?>
<!DOCTYPE svg PUBLIC "-//W3C//DTD SVG 1.1//EN"
  "http://www.w3.org/Graphics/SVG/1.1/DTD/svg11.dtd">
<svg xmlns:xlink="http://www.w3.org/1999/xlink" width="360pt" height="108pt" viewBox="0 0 360 108" xmlns="http://www.w3.org/2000/svg" version="1.1">
 <metadata>
  <rdf:RDF xmlns:dc="http://purl.org/dc/elements/1.1/" xmlns:cc="http://creativecommons.org/ns#" xmlns:rdf="http://www.w3.org/1999/02/22-rdf-syntax-ns#">
   <cc:Work>
    <dc:type rdf:resource="http://purl.org/dc/dcmitype/StillImage"/>
    <dc:date>2022-11-19T16:43:54.970537</dc:date>
    <dc:format>image/svg+xml</dc:format>
    <dc:creator>
     <cc:Agent>
      <dc:title>Matplotlib v3.5.2, https://matplotlib.org/</dc:title>
     </cc:Agent>
    </dc:creator>
   </cc:Work>
  </rdf:RDF>
 </metadata>
 <defs>
  <style type="text/css">*{stroke-linejoin: round; stroke-linecap: butt}</style>
 </defs>
 <g id="figure_1">
  <g id="patch_1">
   <path d="M 0 108 
L 360 108 
L 360 0 
L 0 0 
L 0 108 
z
" style="fill: none"/>
  </g>
  <g id="axes_1">
   <g id="line2d_1">
    <path d="M 57.681818 31.378098 
L 75.377378 29.75709 
L 87.174419 28.321432 
L 97.005285 27.251432 
L 102.903805 26.604994 
L 114.700846 25.401043 
L 116.667019 24.831693 
L 118.633192 24.403905 
L 126.497886 24.01062 
L 128.464059 24.236946 
L 130.430233 24.830506 
L 132.396406 26.114408 
L 134.362579 28.258798 
L 136.328753 31.308325 
L 142.227273 42.639671 
L 144.193446 45.521703 
L 146.159619 47.844759 
L 148.125793 49.519864 
L 150.091966 50.703603 
L 152.05814 51.228693 
L 154.024313 50.251197 
L 155.990486 47.664271 
L 157.95666 44.576516 
L 159.922833 41.810403 
L 161.889006 39.454306 
L 163.85518 37.487006 
L 165.821353 35.882616 
L 167.787526 34.610633 
L 171.719873 32.588065 
L 173.686047 31.817268 
L 177.618393 30.689187 
L 179.584567 30.215789 
L 187.44926 28.939123 
L 191.381607 28.621025 
L 195.313953 28.483269 
L 203.178647 28.281578 
L 207.110994 28.576001 
L 211.04334 28.524342 
L 214.975687 28.721497 
L 220.874207 28.961139 
L 224.806554 29.097074 
L 226.772727 29.085269 
L 238.569767 29.64374 
L 242.502114 29.693513 
L 260.197674 30.549708 
L 264.130021 30.748602 
L 266.096195 30.920439 
L 271.994715 31.080423 
L 275.927061 31.38065 
L 289.690275 31.913431 
L 295.588795 32.158569 
L 301.487315 32.319723 
L 311.318182 32.615333 
L 311.318182 32.615333 
" clip-path="url(#p63ae9e6587)" style="fill: none; stroke: #a9a9a9; stroke-width: 2.5; stroke-linecap: square"/>
   </g>
   <g id="line2d_2">
    <path d="M 116.667019 24.831693 
L 118.633192 24.403905 
L 120.599366 24.291596 
L 122.565539 24.167498 
L 124.531712 23.996978 
L 126.497886 24.01062 
L 128.464059 24.236946 
L 130.430233 24.830506 
L 132.396406 26.114408 
L 134.362579 28.258798 
L 136.328753 31.308325 
L 138.294926 35.144698 
L 140.261099 39.152583 
L 142.227273 42.639671 
L 144.193446 45.521703 
L 146.159619 47.844759 
L 148.125793 49.519864 
L 150.091966 50.703603 
L 152.05814 51.228693 
L 154.024313 50.251197 
L 155.990486 47.664271 
L 157.95666 44.576516 
L 159.922833 41.810403 
L 161.889006 39.454306 
L 163.85518 37.487006 
L 165.821353 35.882616 
L 167.787526 34.610633 
L 169.7537 33.547642 
L 171.719873 32.588065 
L 173.686047 31.817268 
L 175.65222 31.239187 
L 177.618393 30.689187 
L 179.584567 30.215789 
L 181.55074 29.886895 
L 183.516913 29.552293 
L 185.483087 29.206245 
L 187.44926 28.939123 
L 189.415433 28.758781 
L 191.381607 28.621025 
L 193.34778 28.526131 
L 195.313953 28.483269 
L 197.280127 28.451107 
L 199.2463 28.387773 
L 201.212474 28.289497 
L 203.178647 28.281578 
L 205.14482 28.439074 
L 207.110994 28.576001 
L 209.077167 28.530928 
L 211.04334 28.524342 
L 213.009514 28.645855 
" clip-path="url(#p63ae9e6587)" style="fill: none; stroke: #1f77b4; stroke-width: 5; stroke-linecap: square"/>
   </g>
  </g>
 </g>
 <defs>
  <clipPath id="p63ae9e6587">
   <rect x="45" y="12.96" width="279" height="83.16"/>
  </clipPath>
 </defs>
</svg>
