<?xml version="1.0" encoding="utf-8" standalone="no"?>
<!DOCTYPE svg PUBLIC "-//W3C//DTD SVG 1.1//EN"
  "http://www.w3.org/Graphics/SVG/1.1/DTD/svg11.dtd">
<svg xmlns:xlink="http://www.w3.org/1999/xlink" width="360pt" height="108pt" viewBox="0 0 360 108" xmlns="http://www.w3.org/2000/svg" version="1.1">
 <metadata>
  <rdf:RDF xmlns:dc="http://purl.org/dc/elements/1.1/" xmlns:cc="http://creativecommons.org/ns#" xmlns:rdf="http://www.w3.org/1999/02/22-rdf-syntax-ns#">
   <cc:Work>
    <dc:type rdf:resource="http://purl.org/dc/dcmitype/StillImage"/>
    <dc:date>2022-11-19T16:43:55.051018</dc:date>
    <dc:format>image/svg+xml</dc:format>
    <dc:creator>
     <cc:Agent>
      <dc:title>Matplotlib v3.5.2, https://matplotlib.org/</dc:title>
     </cc:Agent>
    </dc:creator>
   </cc:Work>
  </rdf:RDF>
 </metadata>
 <defs>
  <style type="text/css">*{stroke-linejoin: round; stroke-linecap: butt}</style>
 </defs>
 <g id="figure_1">
  <g id="patch_1">
   <path d="M 0 108 
L 360 108 
L 360 0 
L 0 0 
L 0 108 
z
" style="fill: none"/>
  </g>
  <g id="axes_1">
   <g id="line2d_1">
    <path d="M 57.681818 31.750114 
L 61.614165 31.805902 
L 65.546512 31.856114 
L 73.411205 31.72826 
L 81.275899 31.65665 
L 89.140592 31.497236 
L 93.072939 31.450455 
L 95.039112 31.325317 
L 100.937632 31.272049 
L 104.869979 31.195447 
L 128.464059 30.238082 
L 132.396406 30.128618 
L 144.193446 29.42561 
L 148.125793 29.689838 
L 154.024313 30.219724 
L 157.95666 31.428081 
L 161.889006 32.700406 
L 163.85518 33.123658 
L 167.787526 33.659203 
L 169.7537 33.793739 
L 175.65222 33.808585 
L 185.483087 33.144943 
L 191.381607 32.615756 
L 199.2463 31.977024 
L 207.110994 31.609284 
L 211.04334 31.494764 
L 213.009514 31.522927 
L 220.874207 31.202927 
L 230.705074 31.07187 
L 242.502114 31.001333 
L 250.366808 30.938439 
L 264.130021 30.952244 
L 277.893235 31.082293 
L 287.724101 31.110878 
L 311.318182 31.454179 
L 311.318182 31.454179 
" clip-path="url(#p6703098072)" style="fill: none; stroke: #a9a9a9; stroke-width: 2.5; stroke-linecap: square"/>
   </g>
   <g id="line2d_2">
    <path d="M 116.667019 30.658667 
L 118.633192 30.557366 
L 120.599366 30.512082 
L 122.565539 30.466 
L 124.531712 30.356423 
L 126.497886 30.269334 
L 128.464059 30.238082 
L 130.430233 30.197545 
L 132.396406 30.128618 
L 134.362579 30.000261 
L 136.328753 29.820683 
L 138.294926 29.684033 
L 140.261099 29.563757 
L 142.227273 29.443952 
L 144.193446 29.42561 
L 146.159619 29.51748 
L 148.125793 29.689838 
L 150.091966 29.868456 
L 152.05814 29.960683 
L 154.024313 30.219724 
L 155.990486 30.784813 
L 157.95666 31.428081 
L 159.922833 32.078536 
L 161.889006 32.700406 
L 163.85518 33.123658 
L 165.821353 33.395642 
L 167.787526 33.659203 
L 169.7537 33.793739 
L 171.719873 33.804243 
L 173.686047 33.828194 
L 175.65222 33.808585 
L 177.618393 33.685365 
L 179.584567 33.535365 
L 181.55074 33.425772 
L 183.516913 33.310666 
L 185.483087 33.144943 
L 187.44926 32.934796 
L 189.415433 32.771512 
L 191.381607 32.615756 
L 193.34778 32.445544 
L 195.313953 32.316536 
L 197.280127 32.146715 
L 199.2463 31.977024 
L 201.212474 31.906878 
L 203.178647 31.828813 
L 205.14482 31.721707 
L 207.110994 31.609284 
L 209.077167 31.500439 
L 211.04334 31.494764 
L 213.009514 31.522927 
" clip-path="url(#p6703098072)" style="fill: none; stroke: #1f77b4; stroke-width: 5; stroke-linecap: square"/>
   </g>
  </g>
 </g>
 <defs>
  <clipPath id="p6703098072">
   <rect x="45" y="12.96" width="279" height="83.16"/>
  </clipPath>
 </defs>
</svg>
