<?xml version="1.0" encoding="utf-8" standalone="no"?>
<!DOCTYPE svg PUBLIC "-//W3C//DTD SVG 1.1//EN"
  "http://www.w3.org/Graphics/SVG/1.1/DTD/svg11.dtd">
<svg xmlns:xlink="http://www.w3.org/1999/xlink" width="360pt" height="108pt" viewBox="0 0 360 108" xmlns="http://www.w3.org/2000/svg" version="1.1">
 <metadata>
  <rdf:RDF xmlns:dc="http://purl.org/dc/elements/1.1/" xmlns:cc="http://creativecommons.org/ns#" xmlns:rdf="http://www.w3.org/1999/02/22-rdf-syntax-ns#">
   <cc:Work>
    <dc:type rdf:resource="http://purl.org/dc/dcmitype/StillImage"/>
    <dc:date>2022-11-19T16:42:27.014641</dc:date>
    <dc:format>image/svg+xml</dc:format>
    <dc:creator>
     <cc:Agent>
      <dc:title>Matplotlib v3.5.2, https://matplotlib.org/</dc:title>
     </cc:Agent>
    </dc:creator>
   </cc:Work>
  </rdf:RDF>
 </metadata>
 <defs>
  <style type="text/css">*{stroke-linejoin: round; stroke-linecap: butt}</style>
 </defs>
 <g id="figure_1">
  <g id="patch_1">
   <path d="M 0 108 
L 360 108 
L 360 0 
L 0 0 
L 0 108 
z
" style="fill: none"/>
  </g>
  <g id="axes_1">
   <g id="line2d_1">
    <path d="M 57.681818 31.677779 
L 59.647992 31.494349 
L 63.580338 31.750245 
L 65.546512 31.539137 
L 75.377378 31.343379 
L 81.275899 31.006463 
L 95.039112 30.669044 
L 98.971459 31.081948 
L 100.937632 31.013256 
L 102.903805 30.682883 
L 104.869979 30.580977 
L 110.768499 30.536693 
L 114.700846 30.331624 
L 126.497886 30.142408 
L 128.464059 29.921236 
L 130.430233 29.902113 
L 132.396406 30.062142 
L 134.362579 29.885758 
L 138.294926 29.226771 
L 140.261099 29.121847 
L 142.227273 29.374722 
L 146.159619 30.522854 
L 148.125793 31.413329 
L 150.091966 33.029217 
L 152.05814 34.925911 
L 154.024313 36.02548 
L 155.990486 36.366673 
L 157.95666 36.510095 
L 159.922833 36.302008 
L 163.85518 35.300066 
L 165.821353 34.86351 
L 169.7537 33.57875 
L 173.686047 32.964803 
L 181.55074 31.836549 
L 189.415433 31.565306 
L 191.381607 31.642301 
L 193.34778 31.51624 
L 195.313953 31.241977 
L 199.2463 31.059303 
L 207.110994 30.930223 
L 209.077167 30.968469 
L 213.009514 30.581984 
L 216.94186 30.483601 
L 218.908034 30.543486 
L 220.874207 30.443846 
L 222.840381 30.227958 
L 224.806554 30.293378 
L 226.772727 30.531409 
L 232.671247 30.728425 
L 238.569767 30.513544 
L 240.535941 30.694457 
L 250.366808 31.018289 
L 252.332981 30.969475 
L 258.231501 31.176053 
L 262.163848 31.072638 
L 268.062368 31.375083 
L 270.028541 31.186369 
L 271.994715 31.131265 
L 287.724101 31.977455 
L 289.690275 31.709482 
L 291.656448 31.557757 
L 293.622622 31.743954 
L 299.521142 31.682559 
L 301.487315 31.710741 
L 303.453488 31.51473 
L 305.419662 31.533099 
L 307.385835 31.730367 
L 309.352008 31.646075 
L 311.318182 31.385147 
L 311.318182 31.385147 
" clip-path="url(#p94bfefc9de)" style="fill: none; stroke: #a9a9a9; stroke-width: 2.5; stroke-linecap: square"/>
   </g>
   <g id="line2d_2">
    <path d="M 116.667019 30.294888 
L 118.633192 30.21588 
L 120.599366 30.172099 
L 122.565539 30.132595 
L 124.531712 30.174615 
L 126.497886 30.142408 
L 128.464059 29.921236 
L 130.430233 29.902113 
L 132.396406 30.062142 
L 134.362579 29.885758 
L 136.328753 29.521667 
L 138.294926 29.226771 
L 140.261099 29.121847 
L 142.227273 29.374722 
L 144.193446 29.902868 
L 146.159619 30.522854 
L 148.125793 31.413329 
L 150.091966 33.029217 
L 152.05814 34.925911 
L 154.024313 36.02548 
L 155.990486 36.366673 
L 157.95666 36.510095 
L 159.922833 36.302008 
L 161.889006 35.77034 
L 163.85518 35.300066 
L 165.821353 34.86351 
L 167.787526 34.189426 
L 169.7537 33.57875 
L 171.719873 33.219943 
L 173.686047 32.964803 
L 175.65222 32.660094 
L 177.618393 32.282416 
L 179.584567 31.980978 
L 181.55074 31.836549 
L 183.516913 31.746722 
L 185.483087 31.655385 
L 187.44926 31.555492 
L 189.415433 31.565306 
L 191.381607 31.642301 
L 193.34778 31.51624 
L 195.313953 31.241977 
L 197.280127 31.119942 
L 199.2463 31.059303 
L 201.212474 31.011998 
L 203.178647 30.957397 
L 205.14482 30.868576 
L 207.110994 30.930223 
L 209.077167 30.968469 
L 211.04334 30.759123 
L 213.009514 30.581984 
" clip-path="url(#p94bfefc9de)" style="fill: none; stroke: #d22730; stroke-width: 5; stroke-linecap: square"/>
   </g>
  </g>
 </g>
 <defs>
  <clipPath id="p94bfefc9de">
   <rect x="45" y="12.96" width="279" height="83.16"/>
  </clipPath>
 </defs>
</svg>
