<?xml version="1.0" encoding="utf-8" standalone="no"?>
<!DOCTYPE svg PUBLIC "-//W3C//DTD SVG 1.1//EN"
  "http://www.w3.org/Graphics/SVG/1.1/DTD/svg11.dtd">
<svg xmlns:xlink="http://www.w3.org/1999/xlink" width="360pt" height="108pt" viewBox="0 0 360 108" xmlns="http://www.w3.org/2000/svg" version="1.1">
 <metadata>
  <rdf:RDF xmlns:dc="http://purl.org/dc/elements/1.1/" xmlns:cc="http://creativecommons.org/ns#" xmlns:rdf="http://www.w3.org/1999/02/22-rdf-syntax-ns#">
   <cc:Work>
    <dc:type rdf:resource="http://purl.org/dc/dcmitype/StillImage"/>
    <dc:date>2022-11-19T16:42:27.004627</dc:date>
    <dc:format>image/svg+xml</dc:format>
    <dc:creator>
     <cc:Agent>
      <dc:title>Matplotlib v3.5.2, https://matplotlib.org/</dc:title>
     </cc:Agent>
    </dc:creator>
   </cc:Work>
  </rdf:RDF>
 </metadata>
 <defs>
  <style type="text/css">*{stroke-linejoin: round; stroke-linecap: butt}</style>
 </defs>
 <g id="figure_1">
  <g id="patch_1">
   <path d="M 0 108 
L 360 108 
L 360 0 
L 0 0 
L 0 108 
z
" style="fill: none"/>
  </g>
  <g id="axes_1">
   <g id="line2d_1">
    <path d="M 57.681818 31.594745 
L 67.512685 30.899274 
L 69.478858 30.66074 
L 73.411205 29.98565 
L 77.343552 29.544816 
L 79.309725 29.333709 
L 83.242072 28.691077 
L 91.106765 27.955599 
L 95.039112 27.207036 
L 97.005285 27.099092 
L 98.971459 27.197727 
L 100.937632 26.925476 
L 102.903805 26.489171 
L 106.836152 26.193017 
L 108.802326 25.701608 
L 110.768499 25.455778 
L 112.734672 25.335504 
L 116.667019 24.86196 
L 122.565539 24.436223 
L 130.430233 23.497941 
L 132.396406 23.311995 
L 134.362579 22.899342 
L 136.328753 22.93633 
L 138.294926 22.301247 
L 140.261099 21.278673 
L 142.227273 25.472384 
L 144.193446 35.877025 
L 146.159619 47.609956 
L 150.091966 75.379485 
L 152.05814 76.479809 
L 155.990486 56.482246 
L 157.95666 49.693853 
L 159.922833 44.220163 
L 161.889006 40.43684 
L 163.85518 37.570664 
L 165.821353 35.167464 
L 167.787526 33.487161 
L 169.7537 32.302545 
L 171.719873 31.613616 
L 177.618393 30.677599 
L 183.516913 30.19248 
L 187.44926 30.18166 
L 195.313953 29.714155 
L 197.280127 29.321631 
L 199.2463 28.709949 
L 209.077167 26.704053 
L 211.04334 26.349524 
L 213.009514 26.242838 
L 214.975687 26.326123 
L 218.908034 26.12181 
L 220.874207 26.188488 
L 222.840381 26.41268 
L 226.772727 27.105635 
L 230.705074 27.364549 
L 232.671247 27.754053 
L 234.637421 28.352148 
L 236.603594 28.596972 
L 238.569767 28.725297 
L 240.535941 29.153299 
L 242.502114 29.426052 
L 244.468288 29.488202 
L 248.400634 30.201035 
L 252.332981 30.49115 
L 260.197674 31.327779 
L 262.163848 31.393451 
L 264.130021 31.602545 
L 266.096195 32.016708 
L 268.062368 32.237628 
L 271.994715 32.127168 
L 275.927061 32.353624 
L 279.859408 32.644745 
L 281.825581 32.705133 
L 285.757928 32.989965 
L 289.690275 32.805781 
L 295.588795 32.526233 
L 297.554968 32.615306 
L 299.521142 32.57077 
L 303.453488 32.171452 
L 305.419662 32.170446 
L 307.385835 32.353875 
L 309.352008 32.259015 
L 311.318182 31.95481 
L 311.318182 31.95481 
" clip-path="url(#p23135668a0)" style="fill: none; stroke: #a9a9a9; stroke-width: 2.5; stroke-linecap: square"/>
   </g>
   <g id="line2d_2">
    <path d="M 116.667019 24.86196 
L 118.633192 24.753261 
L 120.599366 24.651104 
L 122.565539 24.436223 
L 124.531712 24.178818 
L 126.497886 23.864548 
L 128.464059 23.576697 
L 130.430233 23.497941 
L 132.396406 23.311995 
L 134.362579 22.899342 
L 136.328753 22.93633 
L 138.294926 22.301247 
L 140.261099 21.278673 
L 142.227273 25.472384 
L 144.193446 35.877025 
L 146.159619 47.609956 
L 148.125793 61.683434 
L 150.091966 75.379485 
L 152.05814 76.479809 
L 154.024313 66.226139 
L 155.990486 56.482246 
L 157.95666 49.693853 
L 159.922833 44.220163 
L 161.889006 40.43684 
L 163.85518 37.570664 
L 165.821353 35.167464 
L 167.787526 33.487161 
L 169.7537 32.302545 
L 171.719873 31.613616 
L 173.686047 31.272926 
L 175.65222 30.920661 
L 177.618393 30.677599 
L 179.584567 30.513292 
L 181.55074 30.304953 
L 183.516913 30.19248 
L 185.483087 30.214874 
L 187.44926 30.18166 
L 189.415433 30.087052 
L 191.381607 29.936333 
L 193.34778 29.817569 
L 195.313953 29.714155 
L 197.280127 29.321631 
L 199.2463 28.709949 
L 201.212474 28.296792 
L 203.178647 27.953334 
L 205.14482 27.412105 
L 207.110994 26.985865 
L 209.077167 26.704053 
L 211.04334 26.349524 
L 213.009514 26.242838 
" clip-path="url(#p23135668a0)" style="fill: none; stroke: #d22730; stroke-width: 5; stroke-linecap: square"/>
   </g>
  </g>
 </g>
 <defs>
  <clipPath id="p23135668a0">
   <rect x="45" y="12.96" width="279" height="83.16"/>
  </clipPath>
 </defs>
</svg>
