<?xml version="1.0" encoding="utf-8" standalone="no"?>
<!DOCTYPE svg PUBLIC "-//W3C//DTD SVG 1.1//EN"
  "http://www.w3.org/Graphics/SVG/1.1/DTD/svg11.dtd">
<svg xmlns:xlink="http://www.w3.org/1999/xlink" width="360pt" height="108pt" viewBox="0 0 360 108" xmlns="http://www.w3.org/2000/svg" version="1.1">
 <metadata>
  <rdf:RDF xmlns:dc="http://purl.org/dc/elements/1.1/" xmlns:cc="http://creativecommons.org/ns#" xmlns:rdf="http://www.w3.org/1999/02/22-rdf-syntax-ns#">
   <cc:Work>
    <dc:type rdf:resource="http://purl.org/dc/dcmitype/StillImage"/>
    <dc:date>2022-11-15T11:38:17.033498</dc:date>
    <dc:format>image/svg+xml</dc:format>
    <dc:creator>
     <cc:Agent>
      <dc:title>Matplotlib v3.5.2, https://matplotlib.org/</dc:title>
     </cc:Agent>
    </dc:creator>
   </cc:Work>
  </rdf:RDF>
 </metadata>
 <defs>
  <style type="text/css">*{stroke-linejoin: round; stroke-linecap: butt}</style>
 </defs>
 <g id="figure_1">
  <g id="patch_1">
   <path d="M 0 108 
L 360 108 
L 360 0 
L 0 0 
L 0 108 
z
" style="fill: none"/>
  </g>
  <g id="axes_1">
   <g id="LineCollection_1">
    <path d="M 57.681818 30.656313 
L 311.318182 30.656313 
" clip-path="url(#p4ede8e3b36)" style="fill: none; stroke: #000000"/>
   </g>
   <g id="line2d_1">
    <path d="M 57.681818 21.647444 
L 62.754545 21.498577 
L 67.827273 21.358669 
L 72.9 21.064381 
L 77.972727 20.711856 
L 83.045455 20.281451 
L 88.118182 19.887229 
L 93.190909 19.779369 
L 98.263636 19.52471 
L 103.336364 18.959567 
L 108.409091 19.010223 
L 113.481818 18.140453 
L 118.554545 16.74 
L 123.627273 22.483443 
L 128.7 36.732984 
L 133.772727 52.801667 
L 138.845455 72.075816 
L 143.918182 90.833066 
L 148.990909 92.34 
L 154.063636 78.297219 
L 159.136364 64.952596 
L 164.209091 55.655641 
L 169.281818 48.15922 
L 174.354545 42.977819 
L 179.427273 39.052484 
L 184.5 35.761213 
L 189.572727 33.459976 
L 194.645455 31.837601 
L 199.718182 30.894087 
L 204.790909 30.427499 
L 209.863636 29.94506 
L 214.936364 29.612176 
L 220.009091 29.387153 
L 225.081818 29.101824 
L 230.154545 28.947788 
L 235.227273 28.978458 
L 240.3 28.93297 
L 245.372727 28.803401 
L 250.445455 28.596986 
L 255.518182 28.434335 
L 260.590909 28.292704 
L 265.663636 27.755129 
L 270.736364 26.917407 
L 275.809091 26.351574 
L 280.881818 25.881196 
L 285.954545 25.139962 
L 291.027273 24.55621 
L 296.1 24.170258 
L 301.172727 23.684717 
L 306.245455 23.538607 
" clip-path="url(#p4ede8e3b36)" style="fill: none; stroke: #d22730; stroke-width: 5; stroke-linecap: square"/>
   </g>
  </g>
 </g>
 <defs>
  <clipPath id="p4ede8e3b36">
   <rect x="45" y="12.96" width="279" height="83.16"/>
  </clipPath>
 </defs>
</svg>
