<?xml version="1.0" encoding="utf-8" standalone="no"?>
<!DOCTYPE svg PUBLIC "-//W3C//DTD SVG 1.1//EN"
  "http://www.w3.org/Graphics/SVG/1.1/DTD/svg11.dtd">
<svg xmlns:xlink="http://www.w3.org/1999/xlink" width="360pt" height="108pt" viewBox="0 0 360 108" xmlns="http://www.w3.org/2000/svg" version="1.1">
 <metadata>
  <rdf:RDF xmlns:dc="http://purl.org/dc/elements/1.1/" xmlns:cc="http://creativecommons.org/ns#" xmlns:rdf="http://www.w3.org/1999/02/22-rdf-syntax-ns#">
   <cc:Work>
    <dc:type rdf:resource="http://purl.org/dc/dcmitype/StillImage"/>
    <dc:date>2022-11-16T22:33:34.510877</dc:date>
    <dc:format>image/svg+xml</dc:format>
    <dc:creator>
     <cc:Agent>
      <dc:title>Matplotlib v3.5.2, https://matplotlib.org/</dc:title>
     </cc:Agent>
    </dc:creator>
   </cc:Work>
  </rdf:RDF>
 </metadata>
 <defs>
  <style type="text/css">*{stroke-linejoin: round; stroke-linecap: butt}</style>
 </defs>
 <g id="figure_1">
  <g id="patch_1">
   <path d="M 0 108 
L 360 108 
L 360 0 
L 0 0 
L 0 108 
z
" style="fill: none"/>
  </g>
  <g id="axes_1">
   <g id="line2d_1">
    <path d="M 57.681818 39.3864 
L 59.647992 36.06 
L 63.580338 44.376 
L 65.546512 42.528 
L 67.512685 41.7888 
L 69.478858 43.2672 
L 71.445032 42.1584 
L 73.411205 40.1256 
L 75.377378 36.2448 
L 77.343552 34.0272 
L 79.309725 33.4728 
L 81.275899 33.8424 
L 83.242072 39.0168 
L 85.208245 40.4952 
L 87.174419 39.2016 
L 89.140592 39.756 
L 93.072939 36.7992 
L 95.039112 36.7992 
L 97.005285 38.4624 
L 98.971459 40.68 
L 100.937632 38.0928 
L 102.903805 35.6904 
L 104.869979 38.832 
L 106.836152 41.0496 
L 108.802326 38.2776 
L 110.768499 37.908 
L 112.734672 39.756 
L 114.700846 38.4624 
L 116.667019 37.5384 
L 118.633192 37.1688 
L 120.599366 34.7664 
L 122.565539 31.8096 
L 124.531712 33.288 
L 126.497886 35.5056 
L 128.464059 33.8424 
L 132.396406 29.4072 
L 136.328753 21.8304 
L 138.294926 19.428 
L 140.261099 20.1672 
L 142.227273 29.0376 
L 150.091966 82.4448 
L 152.05814 87.9888 
L 154.024313 84.2928 
L 155.990486 79.1184 
L 157.95666 75.0528 
L 159.922833 68.5848 
L 161.889006 59.8992 
L 163.85518 53.0616 
L 167.787526 42.8976 
L 169.7537 40.1256 
L 171.719873 36.4296 
L 173.686047 36.06 
L 175.65222 40.8648 
L 177.618393 38.832 
L 179.584567 34.5816 
L 181.55074 38.2776 
L 183.516913 40.1256 
L 185.483087 35.8752 
L 187.44926 33.6576 
L 189.415433 35.136 
L 191.381607 36.7992 
L 193.34778 35.6904 
L 195.313953 32.1792 
L 197.280127 32.9184 
L 199.2463 38.0928 
L 201.212474 38.832 
L 203.178647 36.2448 
L 205.14482 34.7664 
L 207.110994 31.44 
L 209.077167 30.516 
L 211.04334 36.6144 
L 213.009514 35.136 
L 214.975687 27.3744 
L 216.94186 27.9288 
L 218.908034 31.9944 
L 220.874207 34.7664 
L 222.840381 38.2776 
L 224.806554 39.756 
L 226.772727 40.3104 
L 228.738901 41.604 
L 230.705074 39.0168 
L 232.671247 35.6904 
L 234.637421 35.5056 
L 236.603594 37.7232 
L 238.569767 39.0168 
L 240.535941 36.4296 
L 242.502114 35.6904 
L 244.468288 38.0928 
L 246.434461 37.5384 
L 248.400634 37.1688 
L 250.366808 39.2016 
L 252.332981 38.2776 
L 254.299154 39.2016 
L 256.265328 41.0496 
L 258.231501 39.2016 
L 260.197674 41.7888 
L 262.163848 47.3328 
L 266.096195 40.8648 
L 268.062368 42.8976 
L 270.028541 40.4952 
L 271.994715 37.7232 
L 273.960888 38.832 
L 275.927061 37.908 
L 277.893235 36.6144 
L 279.859408 40.1256 
L 281.825581 42.1584 
L 283.791755 40.1256 
L 285.757928 39.9408 
L 287.724101 45.1152 
L 289.690275 47.8872 
L 291.656448 43.0824 
L 293.622622 42.3432 
L 295.588795 48.4416 
L 297.554968 48.6264 
L 299.521142 45.4848 
L 301.487315 47.5176 
L 303.453488 49.92 
L 305.419662 46.0392 
L 307.385835 41.604 
L 309.352008 40.4952 
L 311.318182 39.2016 
L 311.318182 39.2016 
" clip-path="url(#p021a5a1458)" style="fill: none; stroke: #a9a9a9; stroke-width: 2.5; stroke-linecap: square"/>
   </g>
   <g id="line2d_2">
    <path d="M 116.667019 37.5384 
L 118.633192 37.1688 
L 120.599366 34.7664 
L 122.565539 31.8096 
L 124.531712 33.288 
L 126.497886 35.5056 
L 128.464059 33.8424 
L 130.430233 31.6248 
L 132.396406 29.4072 
L 134.362579 25.5264 
L 136.328753 21.8304 
L 138.294926 19.428 
L 140.261099 20.1672 
L 142.227273 29.0376 
L 144.193446 42.528 
L 146.159619 56.2032 
L 148.125793 69.6936 
L 150.091966 82.4448 
L 152.05814 87.9888 
L 154.024313 84.2928 
L 155.990486 79.1184 
L 157.95666 75.0528 
L 159.922833 68.5848 
L 161.889006 59.8992 
L 163.85518 53.0616 
L 165.821353 47.8872 
L 167.787526 42.8976 
L 169.7537 40.1256 
L 171.719873 36.4296 
L 173.686047 36.06 
L 175.65222 40.8648 
L 177.618393 38.832 
L 179.584567 34.5816 
L 181.55074 38.2776 
L 183.516913 40.1256 
L 185.483087 35.8752 
L 187.44926 33.6576 
L 189.415433 35.136 
L 191.381607 36.7992 
L 193.34778 35.6904 
L 195.313953 32.1792 
L 197.280127 32.9184 
L 199.2463 38.0928 
L 201.212474 38.832 
L 203.178647 36.2448 
L 205.14482 34.7664 
L 207.110994 31.44 
L 209.077167 30.516 
L 211.04334 36.6144 
L 213.009514 35.136 
" clip-path="url(#p021a5a1458)" style="fill: none; stroke: #6495ed; stroke-width: 5; stroke-linecap: square"/>
   </g>
  </g>
 </g>
 <defs>
  <clipPath id="p021a5a1458">
   <rect x="45" y="12.96" width="279" height="83.16"/>
  </clipPath>
 </defs>
</svg>
