<?xml version="1.0" encoding="utf-8" standalone="no"?>
<!DOCTYPE svg PUBLIC "-//W3C//DTD SVG 1.1//EN"
  "http://www.w3.org/Graphics/SVG/1.1/DTD/svg11.dtd">
<svg xmlns:xlink="http://www.w3.org/1999/xlink" width="360pt" height="108pt" viewBox="0 0 360 108" xmlns="http://www.w3.org/2000/svg" version="1.1">
 <metadata>
  <rdf:RDF xmlns:dc="http://purl.org/dc/elements/1.1/" xmlns:cc="http://creativecommons.org/ns#" xmlns:rdf="http://www.w3.org/1999/02/22-rdf-syntax-ns#">
   <cc:Work>
    <dc:type rdf:resource="http://purl.org/dc/dcmitype/StillImage"/>
    <dc:date>2022-11-16T22:33:34.530952</dc:date>
    <dc:format>image/svg+xml</dc:format>
    <dc:creator>
     <cc:Agent>
      <dc:title>Matplotlib v3.5.2, https://matplotlib.org/</dc:title>
     </cc:Agent>
    </dc:creator>
   </cc:Work>
  </rdf:RDF>
 </metadata>
 <defs>
  <style type="text/css">*{stroke-linejoin: round; stroke-linecap: butt}</style>
 </defs>
 <g id="figure_1">
  <g id="patch_1">
   <path d="M 0 108 
L 360 108 
L 360 0 
L 0 0 
L 0 108 
z
" style="fill: none"/>
  </g>
  <g id="axes_1">
   <g id="line2d_1">
    <path d="M 57.681818 40.68 
L 59.647992 37.5384 
L 61.614165 40.68 
L 63.580338 39.9408 
L 65.546512 37.7232 
L 67.512685 45.4848 
L 69.478858 47.7024 
L 71.445032 40.1256 
L 73.411205 39.3864 
L 75.377378 40.4952 
L 77.343552 38.0928 
L 79.309725 38.4624 
L 81.275899 38.2776 
L 83.242072 39.5712 
L 85.208245 42.3432 
L 87.174419 41.7888 
L 89.140592 40.8648 
L 91.106765 42.528 
L 93.072939 44.7456 
L 95.039112 44.0064 
L 97.005285 40.3104 
L 98.971459 38.6472 
L 100.937632 39.2016 
L 102.903805 39.0168 
L 104.869979 39.5712 
L 106.836152 40.4952 
L 108.802326 41.0496 
L 110.768499 43.6368 
L 112.734672 44.9304 
L 114.700846 42.1584 
L 116.667019 37.908 
L 118.633192 39.2016 
L 120.599366 43.2672 
L 122.565539 41.0496 
L 124.531712 39.756 
L 126.497886 39.0168 
L 128.464059 35.5056 
L 130.430233 33.4728 
L 136.328753 37.908 
L 138.294926 37.908 
L 140.261099 35.5056 
L 142.227273 36.7992 
L 144.193446 41.0496 
L 146.159619 40.4952 
L 148.125793 39.5712 
L 150.091966 42.8976 
L 152.05814 45.6696 
L 154.024313 49.1808 
L 155.990486 51.5832 
L 157.95666 51.2136 
L 159.922833 51.9528 
L 161.889006 51.9528 
L 165.821353 47.148 
L 167.787526 45.8544 
L 169.7537 43.452 
L 171.719873 38.4624 
L 173.686047 35.8752 
L 175.65222 39.3864 
L 177.618393 44.1912 
L 179.584567 46.0392 
L 181.55074 46.0392 
L 183.516913 45.4848 
L 185.483087 43.452 
L 187.44926 42.1584 
L 189.415433 43.8216 
L 191.381607 43.6368 
L 193.34778 39.756 
L 195.313953 38.4624 
L 197.280127 37.908 
L 199.2463 36.06 
L 201.212474 36.6144 
L 203.178647 38.2776 
L 205.14482 36.4296 
L 207.110994 34.3968 
L 209.077167 36.6144 
L 211.04334 38.6472 
L 213.009514 37.1688 
L 214.975687 36.984 
L 216.94186 36.6144 
L 218.908034 34.0272 
L 220.874207 35.3208 
L 222.840381 36.7992 
L 224.806554 34.5816 
L 226.772727 36.06 
L 228.738901 37.1688 
L 230.705074 34.9512 
L 232.671247 38.2776 
L 234.637421 40.68 
L 236.603594 35.136 
L 238.569767 36.984 
L 240.535941 42.1584 
L 242.502114 37.908 
L 244.468288 37.1688 
L 246.434461 38.832 
L 248.400634 36.6144 
L 252.332981 47.5176 
L 254.299154 43.6368 
L 256.265328 40.3104 
L 258.231501 41.604 
L 260.197674 40.1256 
L 262.163848 36.984 
L 264.130021 37.1688 
L 266.096195 38.6472 
L 268.062368 36.6144 
L 270.028541 36.06 
L 271.994715 37.908 
L 273.960888 37.7232 
L 275.927061 39.2016 
L 277.893235 41.2344 
L 279.859408 41.7888 
L 281.825581 44.1912 
L 283.791755 43.2672 
L 285.757928 40.3104 
L 287.724101 43.452 
L 289.690275 48.2568 
L 291.656448 48.2568 
L 293.622622 48.072 
L 295.588795 50.2896 
L 297.554968 49.5504 
L 299.521142 49.1808 
L 301.487315 49.92 
L 303.453488 50.1048 
L 305.419662 46.4088 
L 307.385835 37.7232 
L 309.352008 39.5712 
L 311.318182 48.6264 
L 311.318182 48.6264 
" clip-path="url(#pd1a7dc9487)" style="fill: none; stroke: #a9a9a9; stroke-width: 2.5; stroke-linecap: square"/>
   </g>
  </g>
 </g>
 <defs>
  <clipPath id="pd1a7dc9487">
   <rect x="45" y="12.96" width="279" height="83.16"/>
  </clipPath>
 </defs>
</svg>
