<?xml version="1.0" encoding="utf-8" standalone="no"?>
<!DOCTYPE svg PUBLIC "-//W3C//DTD SVG 1.1//EN"
  "http://www.w3.org/Graphics/SVG/1.1/DTD/svg11.dtd">
<svg xmlns:xlink="http://www.w3.org/1999/xlink" width="360pt" height="108pt" viewBox="0 0 360 108" xmlns="http://www.w3.org/2000/svg" version="1.1">
 <metadata>
  <rdf:RDF xmlns:dc="http://purl.org/dc/elements/1.1/" xmlns:cc="http://creativecommons.org/ns#" xmlns:rdf="http://www.w3.org/1999/02/22-rdf-syntax-ns#">
   <cc:Work>
    <dc:type rdf:resource="http://purl.org/dc/dcmitype/StillImage"/>
    <dc:date>2022-11-16T22:33:34.561338</dc:date>
    <dc:format>image/svg+xml</dc:format>
    <dc:creator>
     <cc:Agent>
      <dc:title>Matplotlib v3.5.2, https://matplotlib.org/</dc:title>
     </cc:Agent>
    </dc:creator>
   </cc:Work>
  </rdf:RDF>
 </metadata>
 <defs>
  <style type="text/css">*{stroke-linejoin: round; stroke-linecap: butt}</style>
 </defs>
 <g id="figure_1">
  <g id="patch_1">
   <path d="M 0 108 
L 360 108 
L 360 0 
L 0 0 
L 0 108 
z
" style="fill: none"/>
  </g>
  <g id="axes_1">
   <g id="line2d_1">
    <path d="M 57.681818 34.9512 
L 59.647992 36.2448 
L 61.614165 43.2672 
L 63.580338 42.3432 
L 65.546512 36.4296 
L 67.512685 40.8648 
L 69.478858 44.9304 
L 71.445032 41.2344 
L 73.411205 41.604 
L 75.377378 44.7456 
L 77.343552 40.4952 
L 79.309725 35.3208 
L 81.275899 34.9512 
L 85.208245 42.528 
L 87.174419 44.0064 
L 89.140592 42.3432 
L 91.106765 41.604 
L 93.072939 43.8216 
L 95.039112 43.0824 
L 97.005285 39.2016 
L 98.971459 38.2776 
L 100.937632 38.2776 
L 102.903805 37.3536 
L 104.869979 39.5712 
L 106.836152 44.5608 
L 108.802326 44.7456 
L 110.768499 42.528 
L 112.734672 43.2672 
L 114.700846 42.528 
L 116.667019 38.832 
L 118.633192 39.2016 
L 120.599366 44.0064 
L 122.565539 45.4848 
L 124.531712 43.8216 
L 126.497886 38.832 
L 128.464059 36.2448 
L 130.430233 40.3104 
L 132.396406 38.832 
L 134.362579 33.6576 
L 136.328753 37.1688 
L 138.294926 38.6472 
L 140.261099 34.0272 
L 142.227273 33.6576 
L 144.193446 36.4296 
L 146.159619 40.3104 
L 148.125793 44.9304 
L 150.091966 44.376 
L 152.05814 42.3432 
L 154.024313 48.996 
L 155.990486 53.0616 
L 157.95666 48.996 
L 159.922833 50.6592 
L 161.889006 54.1704 
L 163.85518 51.3984 
L 165.821353 45.1152 
L 167.787526 40.68 
L 169.7537 43.0824 
L 171.719873 43.6368 
L 173.686047 41.2344 
L 175.65222 44.0064 
L 177.618393 46.0392 
L 179.584567 44.7456 
L 181.55074 44.5608 
L 183.516913 40.68 
L 185.483087 37.7232 
L 187.44926 41.9736 
L 189.415433 43.6368 
L 191.381607 41.2344 
L 193.34778 39.0168 
L 195.313953 39.5712 
L 197.280127 39.3864 
L 199.2463 36.2448 
L 201.212474 36.06 
L 203.178647 36.4296 
L 205.14482 34.3968 
L 207.110994 34.3968 
L 209.077167 34.7664 
L 211.04334 36.06 
L 213.009514 36.984 
L 214.975687 34.212 
L 216.94186 32.5488 
L 218.908034 34.212 
L 220.874207 37.7232 
L 222.840381 40.3104 
L 224.806554 39.5712 
L 226.772727 38.6472 
L 228.738901 39.2016 
L 230.705074 40.3104 
L 232.671247 41.9736 
L 234.637421 39.2016 
L 236.603594 36.7992 
L 238.569767 38.832 
L 240.535941 39.3864 
L 242.502114 38.6472 
L 244.468288 39.2016 
L 246.434461 37.3536 
L 248.400634 37.3536 
L 250.366808 41.0496 
L 252.332981 41.4192 
L 254.299154 39.9408 
L 256.265328 41.2344 
L 258.231501 40.68 
L 260.197674 37.3536 
L 262.163848 35.8752 
L 264.130021 34.7664 
L 266.096195 34.212 
L 268.062368 39.2016 
L 270.028541 44.9304 
L 271.994715 42.3432 
L 273.960888 38.2776 
L 275.927061 38.2776 
L 277.893235 39.0168 
L 279.859408 42.3432 
L 281.825581 43.0824 
L 283.791755 37.908 
L 285.757928 39.9408 
L 287.724101 46.9632 
L 289.690275 48.2568 
L 291.656448 49.1808 
L 293.622622 51.3984 
L 295.588795 50.844 
L 297.554968 49.7352 
L 299.521142 48.996 
L 301.487315 46.7784 
L 305.419662 47.5176 
L 307.385835 42.3432 
L 309.352008 40.3104 
L 311.318182 44.376 
L 311.318182 44.376 
" clip-path="url(#pb260f4f4aa)" style="fill: none; stroke: #a9a9a9; stroke-width: 2.5; stroke-linecap: square"/>
   </g>
  </g>
 </g>
 <defs>
  <clipPath id="pb260f4f4aa">
   <rect x="45" y="12.96" width="279" height="83.16"/>
  </clipPath>
 </defs>
</svg>
