<?xml version="1.0" encoding="utf-8" standalone="no"?>
<!DOCTYPE svg PUBLIC "-//W3C//DTD SVG 1.1//EN"
  "http://www.w3.org/Graphics/SVG/1.1/DTD/svg11.dtd">
<svg xmlns:xlink="http://www.w3.org/1999/xlink" width="360pt" height="108pt" viewBox="0 0 360 108" xmlns="http://www.w3.org/2000/svg" version="1.1">
 <metadata>
  <rdf:RDF xmlns:dc="http://purl.org/dc/elements/1.1/" xmlns:cc="http://creativecommons.org/ns#" xmlns:rdf="http://www.w3.org/1999/02/22-rdf-syntax-ns#">
   <cc:Work>
    <dc:type rdf:resource="http://purl.org/dc/dcmitype/StillImage"/>
    <dc:date>2022-11-16T22:33:34.540877</dc:date>
    <dc:format>image/svg+xml</dc:format>
    <dc:creator>
     <cc:Agent>
      <dc:title>Matplotlib v3.5.2, https://matplotlib.org/</dc:title>
     </cc:Agent>
    </dc:creator>
   </cc:Work>
  </rdf:RDF>
 </metadata>
 <defs>
  <style type="text/css">*{stroke-linejoin: round; stroke-linecap: butt}</style>
 </defs>
 <g id="figure_1">
  <g id="patch_1">
   <path d="M 0 108 
L 360 108 
L 360 0 
L 0 0 
L 0 108 
z
" style="fill: none"/>
  </g>
  <g id="axes_1">
   <g id="line2d_1">
    <path d="M 57.681818 34.3968 
L 59.647992 33.288 
L 61.614165 37.908 
L 63.580338 45.3 
L 65.546512 44.0064 
L 67.512685 39.3864 
L 69.478858 40.8648 
L 71.445032 43.452 
L 73.411205 41.9736 
L 75.377378 39.756 
L 77.343552 38.6472 
L 79.309725 39.0168 
L 81.275899 39.9408 
L 83.242072 43.6368 
L 85.208245 44.1912 
L 87.174419 41.2344 
L 89.140592 40.4952 
L 93.072939 38.6472 
L 95.039112 39.756 
L 97.005285 41.7888 
L 98.971459 42.8976 
L 100.937632 42.528 
L 102.903805 41.4192 
L 104.869979 39.3864 
L 106.836152 38.6472 
L 108.802326 38.2776 
L 110.768499 38.0928 
L 112.734672 38.2776 
L 114.700846 37.7232 
L 116.667019 36.4296 
L 118.633192 40.4952 
L 120.599366 45.8544 
L 124.531712 37.7232 
L 126.497886 36.4296 
L 128.464059 33.288 
L 130.430233 31.9944 
L 132.396406 29.9616 
L 134.362579 25.5264 
L 136.328753 21.8304 
L 138.294926 19.6128 
L 140.261099 20.1672 
L 142.227273 23.6784 
L 144.193446 28.4832 
L 146.159619 31.9944 
L 148.125793 34.9512 
L 150.091966 43.6368 
L 152.05814 56.5728 
L 154.024313 67.476 
L 155.990486 74.4984 
L 157.95666 75.792 
L 159.922833 72.6504 
L 161.889006 69.8784 
L 163.85518 64.704 
L 165.821353 54.9096 
L 167.787526 49.1808 
L 169.7537 48.2568 
L 171.719873 47.5176 
L 173.686047 47.7024 
L 175.65222 46.9632 
L 177.618393 44.0064 
L 179.584567 43.452 
L 181.55074 44.7456 
L 183.516913 39.756 
L 185.483087 37.7232 
L 187.44926 42.1584 
L 189.415433 40.8648 
L 191.381607 39.2016 
L 193.34778 40.68 
L 195.313953 36.7992 
L 197.280127 34.0272 
L 199.2463 38.832 
L 201.212474 39.3864 
L 203.178647 33.4728 
L 205.14482 30.8856 
L 207.110994 29.9616 
L 209.077167 30.1464 
L 211.04334 35.3208 
L 213.009514 35.8752 
L 214.975687 32.1792 
L 216.94186 33.1032 
L 218.908034 34.5816 
L 220.874207 34.7664 
L 224.806554 37.3536 
L 228.738901 43.8216 
L 230.705074 41.7888 
L 232.671247 37.908 
L 234.637421 37.908 
L 236.603594 38.0928 
L 238.569767 35.8752 
L 240.535941 34.7664 
L 242.502114 36.4296 
L 244.468288 37.1688 
L 246.434461 36.7992 
L 248.400634 38.2776 
L 250.366808 38.832 
L 252.332981 37.908 
L 254.299154 35.8752 
L 256.265328 35.5056 
L 258.231501 39.9408 
L 260.197674 41.2344 
L 262.163848 39.756 
L 264.130021 40.68 
L 266.096195 39.756 
L 268.062368 39.2016 
L 270.028541 40.8648 
L 271.994715 41.0496 
L 273.960888 39.3864 
L 275.927061 37.3536 
L 277.893235 39.3864 
L 279.859408 43.0824 
L 281.825581 41.2344 
L 283.791755 36.7992 
L 285.757928 36.6144 
L 289.690275 46.5936 
L 291.656448 48.2568 
L 293.622622 48.2568 
L 295.588795 45.4848 
L 297.554968 44.0064 
L 299.521142 44.1912 
L 301.487315 42.1584 
L 305.419662 47.8872 
L 307.385835 42.8976 
L 309.352008 41.9736 
L 311.318182 44.9304 
L 311.318182 44.9304 
" clip-path="url(#pc4604e17b8)" style="fill: none; stroke: #a9a9a9; stroke-width: 2.5; stroke-linecap: square"/>
   </g>
   <g id="line2d_2">
    <path d="M 116.667019 36.4296 
L 118.633192 40.4952 
L 120.599366 45.8544 
L 122.565539 41.7888 
L 124.531712 37.7232 
L 126.497886 36.4296 
L 128.464059 33.288 
L 130.430233 31.9944 
L 132.396406 29.9616 
L 134.362579 25.5264 
L 136.328753 21.8304 
L 138.294926 19.6128 
L 140.261099 20.1672 
L 142.227273 23.6784 
L 144.193446 28.4832 
L 146.159619 31.9944 
L 148.125793 34.9512 
L 150.091966 43.6368 
L 152.05814 56.5728 
L 154.024313 67.476 
L 155.990486 74.4984 
L 157.95666 75.792 
L 159.922833 72.6504 
L 161.889006 69.8784 
L 163.85518 64.704 
L 165.821353 54.9096 
L 167.787526 49.1808 
L 169.7537 48.2568 
L 171.719873 47.5176 
L 173.686047 47.7024 
L 175.65222 46.9632 
L 177.618393 44.0064 
L 179.584567 43.452 
L 181.55074 44.7456 
L 183.516913 39.756 
L 185.483087 37.7232 
L 187.44926 42.1584 
L 189.415433 40.8648 
L 191.381607 39.2016 
L 193.34778 40.68 
L 195.313953 36.7992 
L 197.280127 34.0272 
L 199.2463 38.832 
L 201.212474 39.3864 
L 203.178647 33.4728 
L 205.14482 30.8856 
L 207.110994 29.9616 
L 209.077167 30.1464 
L 211.04334 35.3208 
L 213.009514 35.8752 
" clip-path="url(#pc4604e17b8)" style="fill: none; stroke: #6495ed; stroke-width: 5; stroke-linecap: square"/>
   </g>
  </g>
 </g>
 <defs>
  <clipPath id="pc4604e17b8">
   <rect x="45" y="12.96" width="279" height="83.16"/>
  </clipPath>
 </defs>
</svg>
