<?xml version="1.0" encoding="utf-8" standalone="no"?>
<!DOCTYPE svg PUBLIC "-//W3C//DTD SVG 1.1//EN"
  "http://www.w3.org/Graphics/SVG/1.1/DTD/svg11.dtd">
<svg xmlns:xlink="http://www.w3.org/1999/xlink" width="360pt" height="108pt" viewBox="0 0 360 108" xmlns="http://www.w3.org/2000/svg" version="1.1">
 <metadata>
  <rdf:RDF xmlns:dc="http://purl.org/dc/elements/1.1/" xmlns:cc="http://creativecommons.org/ns#" xmlns:rdf="http://www.w3.org/1999/02/22-rdf-syntax-ns#">
   <cc:Work>
    <dc:type rdf:resource="http://purl.org/dc/dcmitype/StillImage"/>
    <dc:date>2022-11-16T22:34:38.268029</dc:date>
    <dc:format>image/svg+xml</dc:format>
    <dc:creator>
     <cc:Agent>
      <dc:title>Matplotlib v3.5.2, https://matplotlib.org/</dc:title>
     </cc:Agent>
    </dc:creator>
   </cc:Work>
  </rdf:RDF>
 </metadata>
 <defs>
  <style type="text/css">*{stroke-linejoin: round; stroke-linecap: butt}</style>
 </defs>
 <g id="figure_1">
  <g id="patch_1">
   <path d="M 0 108 
L 360 108 
L 360 0 
L 0 0 
L 0 108 
z
" style="fill: none"/>
  </g>
  <g id="axes_1">
   <g id="line2d_1">
    <path d="M 57.681818 45.3 
L 59.647992 42.3432 
L 61.614165 44.7456 
L 63.580338 47.5176 
L 65.546512 43.0824 
L 67.512685 40.4952 
L 69.478858 41.9736 
L 71.445032 40.1256 
L 73.411205 40.4952 
L 75.377378 42.528 
L 77.343552 40.68 
L 79.309725 42.1584 
L 81.275899 43.2672 
L 83.242072 40.8648 
L 85.208245 41.7888 
L 87.174419 41.7888 
L 89.140592 37.5384 
L 91.106765 35.8752 
L 95.039112 35.5056 
L 98.971459 38.0928 
L 100.937632 37.5384 
L 102.903805 35.5056 
L 104.869979 34.9512 
L 106.836152 39.2016 
L 108.802326 42.3432 
L 110.768499 40.8648 
L 112.734672 38.2776 
L 114.700846 37.3536 
L 116.667019 38.0928 
L 118.633192 39.0168 
L 120.599366 39.5712 
L 122.565539 40.3104 
L 124.531712 40.4952 
L 126.497886 41.0496 
L 128.464059 42.1584 
L 130.430233 42.528 
L 132.396406 42.3432 
L 134.362579 42.528 
L 136.328753 40.68 
L 138.294926 36.6144 
L 140.261099 36.2448 
L 142.227273 36.06 
L 144.193446 30.7008 
L 146.159619 28.1136 
L 148.125793 31.9944 
L 150.091966 35.3208 
L 152.05814 35.5056 
L 154.024313 38.2776 
L 155.990486 45.6696 
L 157.95666 51.9528 
L 159.922833 53.4312 
L 161.889006 54.54 
L 163.85518 54.54 
L 165.821353 51.5832 
L 167.787526 52.5072 
L 169.7537 55.0944 
L 171.719873 50.844 
L 173.686047 45.4848 
L 175.65222 47.5176 
L 177.618393 48.8112 
L 179.584567 43.8216 
L 181.55074 43.6368 
L 183.516913 45.3 
L 185.483087 38.4624 
L 187.44926 34.212 
L 189.415433 40.3104 
L 191.381607 42.528 
L 193.34778 40.1256 
L 195.313953 39.5712 
L 197.280127 36.4296 
L 199.2463 34.3968 
L 201.212474 38.0928 
L 203.178647 39.756 
L 205.14482 38.2776 
L 207.110994 39.3864 
L 209.077167 40.3104 
L 211.04334 38.4624 
L 213.009514 35.3208 
L 214.975687 33.8424 
L 216.94186 36.6144 
L 218.908034 41.604 
L 220.874207 39.3864 
L 222.840381 35.6904 
L 224.806554 40.8648 
L 226.772727 41.4192 
L 228.738901 35.8752 
L 230.705074 38.4624 
L 232.671247 41.9736 
L 234.637421 39.9408 
L 236.603594 39.756 
L 238.569767 38.832 
L 240.535941 35.5056 
L 242.502114 36.4296 
L 244.468288 40.68 
L 246.434461 40.1256 
L 248.400634 37.908 
L 250.366808 41.4192 
L 252.332981 42.1584 
L 254.299154 38.4624 
L 256.265328 41.9736 
L 258.231501 43.452 
L 260.197674 37.1688 
L 262.163848 38.0928 
L 264.130021 42.7128 
L 266.096195 41.9736 
L 268.062368 42.8976 
L 270.028541 46.0392 
L 271.994715 43.6368 
L 273.960888 38.6472 
L 275.927061 37.908 
L 277.893235 39.3864 
L 279.859408 39.3864 
L 281.825581 39.0168 
L 283.791755 40.1256 
L 285.757928 39.0168 
L 287.724101 38.2776 
L 289.690275 40.1256 
L 291.656448 40.8648 
L 293.622622 39.3864 
L 295.588795 37.5384 
L 297.554968 39.5712 
L 299.521142 42.1584 
L 301.487315 40.3104 
L 303.453488 39.756 
L 305.419662 40.4952 
L 307.385835 38.832 
L 309.352008 40.1256 
L 311.318182 41.9736 
L 311.318182 41.9736 
" clip-path="url(#p54bee94aba)" style="fill: none; stroke: #a9a9a9; stroke-width: 2.5; stroke-linecap: square"/>
   </g>
   <g id="line2d_2">
    <path d="M 116.667019 38.0928 
L 118.633192 39.0168 
L 120.599366 39.5712 
L 122.565539 40.3104 
L 124.531712 40.4952 
L 126.497886 41.0496 
L 128.464059 42.1584 
L 130.430233 42.528 
L 132.396406 42.3432 
L 134.362579 42.528 
L 136.328753 40.68 
L 138.294926 36.6144 
L 140.261099 36.2448 
L 142.227273 36.06 
L 144.193446 30.7008 
L 146.159619 28.1136 
L 148.125793 31.9944 
L 150.091966 35.3208 
L 152.05814 35.5056 
L 154.024313 38.2776 
L 155.990486 45.6696 
L 157.95666 51.9528 
L 159.922833 53.4312 
L 161.889006 54.54 
L 163.85518 54.54 
L 165.821353 51.5832 
L 167.787526 52.5072 
L 169.7537 55.0944 
L 171.719873 50.844 
L 173.686047 45.4848 
L 175.65222 47.5176 
L 177.618393 48.8112 
L 179.584567 43.8216 
L 181.55074 43.6368 
L 183.516913 45.3 
L 185.483087 38.4624 
L 187.44926 34.212 
L 189.415433 40.3104 
L 191.381607 42.528 
L 193.34778 40.1256 
L 195.313953 39.5712 
L 197.280127 36.4296 
L 199.2463 34.3968 
L 201.212474 38.0928 
L 203.178647 39.756 
L 205.14482 38.2776 
L 207.110994 39.3864 
L 209.077167 40.3104 
L 211.04334 38.4624 
L 213.009514 35.3208 
" clip-path="url(#p54bee94aba)" style="fill: none; stroke: #0000c0; stroke-width: 5; stroke-linecap: square"/>
   </g>
  </g>
 </g>
 <defs>
  <clipPath id="p54bee94aba">
   <rect x="45" y="12.96" width="279" height="83.16"/>
  </clipPath>
 </defs>
</svg>
