<?xml version="1.0" encoding="utf-8" standalone="no"?>
<!DOCTYPE svg PUBLIC "-//W3C//DTD SVG 1.1//EN"
  "http://www.w3.org/Graphics/SVG/1.1/DTD/svg11.dtd">
<svg xmlns:xlink="http://www.w3.org/1999/xlink" width="360pt" height="108pt" viewBox="0 0 360 108" xmlns="http://www.w3.org/2000/svg" version="1.1">
 <metadata>
  <rdf:RDF xmlns:dc="http://purl.org/dc/elements/1.1/" xmlns:cc="http://creativecommons.org/ns#" xmlns:rdf="http://www.w3.org/1999/02/22-rdf-syntax-ns#">
   <cc:Work>
    <dc:type rdf:resource="http://purl.org/dc/dcmitype/StillImage"/>
    <dc:date>2022-11-16T22:34:38.148704</dc:date>
    <dc:format>image/svg+xml</dc:format>
    <dc:creator>
     <cc:Agent>
      <dc:title>Matplotlib v3.5.2, https://matplotlib.org/</dc:title>
     </cc:Agent>
    </dc:creator>
   </cc:Work>
  </rdf:RDF>
 </metadata>
 <defs>
  <style type="text/css">*{stroke-linejoin: round; stroke-linecap: butt}</style>
 </defs>
 <g id="figure_1">
  <g id="patch_1">
   <path d="M 0 108 
L 360 108 
L 360 0 
L 0 0 
L 0 108 
z
" style="fill: none"/>
  </g>
  <g id="axes_1">
   <g id="line2d_1">
    <path d="M 57.681818 40.3104 
L 59.647992 44.376 
L 61.614165 44.1912 
L 63.580338 40.1256 
L 65.546512 40.3104 
L 67.512685 41.7888 
L 69.478858 40.4952 
L 71.445032 39.5712 
L 73.411205 40.3104 
L 75.377378 38.0928 
L 77.343552 36.7992 
L 79.309725 39.0168 
L 81.275899 36.984 
L 83.242072 36.06 
L 85.208245 37.7232 
L 87.174419 36.2448 
L 89.140592 33.6576 
L 91.106765 31.9944 
L 93.072939 31.2552 
L 95.039112 31.6248 
L 97.005285 31.6248 
L 98.971459 32.9184 
L 100.937632 33.1032 
L 102.903805 34.0272 
L 104.869979 36.984 
L 106.836152 38.6472 
L 108.802326 39.3864 
L 110.768499 36.06 
L 112.734672 31.6248 
L 114.700846 33.4728 
L 116.667019 34.5816 
L 118.633192 32.7336 
L 120.599366 35.136 
L 122.565539 39.2016 
L 124.531712 39.0168 
L 126.497886 34.7664 
L 128.464059 35.3208 
L 130.430233 39.5712 
L 132.396406 40.4952 
L 134.362579 38.4624 
L 136.328753 36.06 
L 138.294926 34.212 
L 140.261099 33.6576 
L 142.227273 38.4624 
L 144.193446 51.0288 
L 146.159619 60.8232 
L 148.125793 65.2584 
L 150.091966 72.096 
L 152.05814 75.9768 
L 154.024313 70.9872 
L 155.990486 63.0408 
L 157.95666 57.312 
L 159.922833 51.2136 
L 161.889006 48.4416 
L 163.85518 48.996 
L 167.787526 41.2344 
L 169.7537 39.2016 
L 171.719873 38.2776 
L 173.686047 39.9408 
L 175.65222 41.0496 
L 177.618393 40.3104 
L 179.584567 38.0928 
L 181.55074 37.5384 
L 183.516913 40.8648 
L 185.483087 39.2016 
L 187.44926 32.1792 
L 189.415433 36.06 
L 191.381607 42.8976 
L 193.34778 39.756 
L 195.313953 36.06 
L 197.280127 36.984 
L 199.2463 40.1256 
L 201.212474 42.1584 
L 203.178647 39.2016 
L 205.14482 38.2776 
L 207.110994 39.5712 
L 209.077167 35.5056 
L 211.04334 34.0272 
L 213.009514 37.1688 
L 214.975687 33.4728 
L 216.94186 26.4504 
L 218.908034 29.4072 
L 220.874207 35.3208 
L 222.840381 34.3968 
L 224.806554 33.8424 
L 226.772727 38.4624 
L 228.738901 42.7128 
L 230.705074 40.8648 
L 232.671247 35.8752 
L 234.637421 34.3968 
L 236.603594 38.0928 
L 238.569767 40.4952 
L 240.535941 38.6472 
L 242.502114 37.1688 
L 244.468288 38.6472 
L 246.434461 39.2016 
L 248.400634 39.2016 
L 250.366808 41.7888 
L 252.332981 43.0824 
L 254.299154 40.1256 
L 256.265328 38.2776 
L 258.231501 36.6144 
L 260.197674 36.06 
L 262.163848 37.7232 
L 264.130021 38.832 
L 266.096195 40.4952 
L 268.062368 41.4192 
L 270.028541 40.4952 
L 273.960888 40.8648 
L 275.927061 41.9736 
L 277.893235 46.224 
L 279.859408 47.7024 
L 281.825581 44.376 
L 283.791755 43.8216 
L 285.757928 45.4848 
L 287.724101 44.5608 
L 291.656448 41.2344 
L 293.622622 40.1256 
L 295.588795 40.8648 
L 297.554968 42.3432 
L 299.521142 43.2672 
L 301.487315 45.1152 
L 303.453488 45.8544 
L 305.419662 42.3432 
L 307.385835 41.4192 
L 309.352008 45.1152 
L 311.318182 44.0064 
L 311.318182 44.0064 
" clip-path="url(#p070ed97d6b)" style="fill: none; stroke: #a9a9a9; stroke-width: 2.5; stroke-linecap: square"/>
   </g>
   <g id="line2d_2">
    <path d="M 116.667019 34.5816 
L 118.633192 32.7336 
L 120.599366 35.136 
L 122.565539 39.2016 
L 124.531712 39.0168 
L 126.497886 34.7664 
L 128.464059 35.3208 
L 130.430233 39.5712 
L 132.396406 40.4952 
L 134.362579 38.4624 
L 136.328753 36.06 
L 138.294926 34.212 
L 140.261099 33.6576 
L 142.227273 38.4624 
L 144.193446 51.0288 
L 146.159619 60.8232 
L 148.125793 65.2584 
L 150.091966 72.096 
L 152.05814 75.9768 
L 154.024313 70.9872 
L 155.990486 63.0408 
L 157.95666 57.312 
L 159.922833 51.2136 
L 161.889006 48.4416 
L 163.85518 48.996 
L 165.821353 45.1152 
L 167.787526 41.2344 
L 169.7537 39.2016 
L 171.719873 38.2776 
L 173.686047 39.9408 
L 175.65222 41.0496 
L 177.618393 40.3104 
L 179.584567 38.0928 
L 181.55074 37.5384 
L 183.516913 40.8648 
L 185.483087 39.2016 
L 187.44926 32.1792 
L 189.415433 36.06 
L 191.381607 42.8976 
L 193.34778 39.756 
L 195.313953 36.06 
L 197.280127 36.984 
L 199.2463 40.1256 
L 201.212474 42.1584 
L 203.178647 39.2016 
L 205.14482 38.2776 
L 207.110994 39.5712 
L 209.077167 35.5056 
L 211.04334 34.0272 
L 213.009514 37.1688 
" clip-path="url(#p070ed97d6b)" style="fill: none; stroke: #0000c0; stroke-width: 5; stroke-linecap: square"/>
   </g>
  </g>
 </g>
 <defs>
  <clipPath id="p070ed97d6b">
   <rect x="45" y="12.96" width="279" height="83.16"/>
  </clipPath>
 </defs>
</svg>
