<?xml version="1.0" encoding="utf-8" standalone="no"?>
<!DOCTYPE svg PUBLIC "-//W3C//DTD SVG 1.1//EN"
  "http://www.w3.org/Graphics/SVG/1.1/DTD/svg11.dtd">
<svg xmlns:xlink="http://www.w3.org/1999/xlink" width="360pt" height="108pt" viewBox="0 0 360 108" xmlns="http://www.w3.org/2000/svg" version="1.1">
 <metadata>
  <rdf:RDF xmlns:dc="http://purl.org/dc/elements/1.1/" xmlns:cc="http://creativecommons.org/ns#" xmlns:rdf="http://www.w3.org/1999/02/22-rdf-syntax-ns#">
   <cc:Work>
    <dc:type rdf:resource="http://purl.org/dc/dcmitype/StillImage"/>
    <dc:date>2022-11-16T22:34:38.161375</dc:date>
    <dc:format>image/svg+xml</dc:format>
    <dc:creator>
     <cc:Agent>
      <dc:title>Matplotlib v3.5.2, https://matplotlib.org/</dc:title>
     </cc:Agent>
    </dc:creator>
   </cc:Work>
  </rdf:RDF>
 </metadata>
 <defs>
  <style type="text/css">*{stroke-linejoin: round; stroke-linecap: butt}</style>
 </defs>
 <g id="figure_1">
  <g id="patch_1">
   <path d="M 0 108 
L 360 108 
L 360 0 
L 0 0 
L 0 108 
z
" style="fill: none"/>
  </g>
  <g id="axes_1">
   <g id="line2d_1">
    <path d="M 57.681818 40.4952 
L 61.614165 54.3552 
L 63.580338 47.5176 
L 65.546512 39.2016 
L 67.512685 38.6472 
L 69.478858 39.3864 
L 71.445032 41.0496 
L 73.411205 44.5608 
L 75.377378 42.528 
L 77.343552 40.8648 
L 79.309725 42.528 
L 81.275899 37.7232 
L 83.242072 34.7664 
L 85.208245 37.908 
L 87.174419 39.2016 
L 89.140592 40.8648 
L 91.106765 38.0928 
L 93.072939 30.3312 
L 95.039112 32.9184 
L 97.005285 39.0168 
L 98.971459 37.3536 
L 100.937632 35.3208 
L 102.903805 38.0928 
L 104.869979 38.4624 
L 106.836152 35.3208 
L 108.802326 34.212 
L 110.768499 34.9512 
L 112.734672 33.8424 
L 114.700846 36.6144 
L 116.667019 41.7888 
L 118.633192 39.2016 
L 120.599366 39.3864 
L 122.565539 42.3432 
L 124.531712 40.4952 
L 126.497886 41.604 
L 128.464059 44.5608 
L 132.396406 41.2344 
L 134.362579 41.7888 
L 136.328753 41.604 
L 138.294926 39.9408 
L 140.261099 37.7232 
L 142.227273 39.0168 
L 144.193446 44.1912 
L 146.159619 45.6696 
L 148.125793 41.2344 
L 150.091966 40.3104 
L 152.05814 43.8216 
L 154.024313 45.6696 
L 155.990486 44.376 
L 157.95666 46.0392 
L 159.922833 48.8112 
L 161.889006 46.4088 
L 163.85518 44.5608 
L 165.821353 45.1152 
L 167.787526 45.3 
L 169.7537 45.6696 
L 171.719873 44.0064 
L 173.686047 38.4624 
L 175.65222 37.1688 
L 177.618393 40.1256 
L 179.584567 38.4624 
L 181.55074 39.756 
L 183.516913 43.6368 
L 185.483087 37.908 
L 187.44926 32.7336 
L 189.415433 37.3536 
L 191.381607 38.832 
L 193.34778 41.2344 
L 195.313953 46.0392 
L 197.280127 43.8216 
L 199.2463 40.4952 
L 201.212474 42.3432 
L 203.178647 43.452 
L 205.14482 41.0496 
L 207.110994 42.3432 
L 209.077167 44.9304 
L 211.04334 41.2344 
L 213.009514 41.4192 
L 214.975687 46.5936 
L 216.94186 44.9304 
L 218.908034 39.5712 
L 220.874207 37.1688 
L 222.840381 38.2776 
L 224.806554 41.4192 
L 226.772727 42.8976 
L 228.738901 41.604 
L 230.705074 36.4296 
L 232.671247 34.3968 
L 234.637421 38.6472 
L 236.603594 38.4624 
L 238.569767 33.288 
L 240.535941 32.9184 
L 242.502114 36.984 
L 244.468288 38.0928 
L 246.434461 36.6144 
L 248.400634 36.984 
L 250.366808 37.5384 
L 252.332981 39.0168 
L 254.299154 40.8648 
L 256.265328 39.5712 
L 258.231501 37.1688 
L 260.197674 36.984 
L 262.163848 41.4192 
L 264.130021 44.0064 
L 266.096195 40.3104 
L 268.062368 40.1256 
L 270.028541 42.7128 
L 271.994715 40.3104 
L 273.960888 40.3104 
L 275.927061 43.0824 
L 277.893235 41.7888 
L 279.859408 40.8648 
L 281.825581 42.7128 
L 283.791755 45.3 
L 285.757928 45.1152 
L 287.724101 42.1584 
L 289.690275 40.68 
L 291.656448 40.3104 
L 293.622622 38.0928 
L 295.588795 37.3536 
L 297.554968 39.756 
L 299.521142 40.8648 
L 301.487315 43.452 
L 303.453488 44.9304 
L 305.419662 41.4192 
L 307.385835 41.4192 
L 309.352008 46.4088 
L 311.318182 48.6264 
L 311.318182 48.6264 
" clip-path="url(#pf3adbf56e2)" style="fill: none; stroke: #a9a9a9; stroke-width: 2.5; stroke-linecap: square"/>
   </g>
  </g>
 </g>
 <defs>
  <clipPath id="pf3adbf56e2">
   <rect x="45" y="12.96" width="279" height="83.16"/>
  </clipPath>
 </defs>
</svg>
