<?xml version="1.0" encoding="utf-8" standalone="no"?>
<!DOCTYPE svg PUBLIC "-//W3C//DTD SVG 1.1//EN"
  "http://www.w3.org/Graphics/SVG/1.1/DTD/svg11.dtd">
<svg xmlns:xlink="http://www.w3.org/1999/xlink" width="360pt" height="108pt" viewBox="0 0 360 108" xmlns="http://www.w3.org/2000/svg" version="1.1">
 <metadata>
  <rdf:RDF xmlns:dc="http://purl.org/dc/elements/1.1/" xmlns:cc="http://creativecommons.org/ns#" xmlns:rdf="http://www.w3.org/1999/02/22-rdf-syntax-ns#">
   <cc:Work>
    <dc:type rdf:resource="http://purl.org/dc/dcmitype/StillImage"/>
    <dc:date>2022-11-16T22:34:38.237550</dc:date>
    <dc:format>image/svg+xml</dc:format>
    <dc:creator>
     <cc:Agent>
      <dc:title>Matplotlib v3.5.2, https://matplotlib.org/</dc:title>
     </cc:Agent>
    </dc:creator>
   </cc:Work>
  </rdf:RDF>
 </metadata>
 <defs>
  <style type="text/css">*{stroke-linejoin: round; stroke-linecap: butt}</style>
 </defs>
 <g id="figure_1">
  <g id="patch_1">
   <path d="M 0 108 
L 360 108 
L 360 0 
L 0 0 
L 0 108 
z
" style="fill: none"/>
  </g>
  <g id="axes_1">
   <g id="line2d_1">
    <path d="M 57.681818 38.0928 
L 59.647992 39.2016 
L 61.614165 40.68 
L 63.580338 42.528 
L 65.546512 41.2344 
L 67.512685 38.6472 
L 69.478858 39.0168 
L 71.445032 38.6472 
L 73.411205 39.3864 
L 75.377378 41.2344 
L 77.343552 41.7888 
L 79.309725 40.68 
L 81.275899 37.908 
L 83.242072 37.7232 
L 85.208245 39.9408 
L 87.174419 37.5384 
L 89.140592 34.0272 
L 91.106765 32.1792 
L 93.072939 30.7008 
L 95.039112 33.6576 
L 97.005285 38.6472 
L 98.971459 40.3104 
L 100.937632 36.2448 
L 102.903805 34.5816 
L 104.869979 38.4624 
L 106.836152 39.3864 
L 108.802326 37.3536 
L 110.768499 36.4296 
L 112.734672 38.2776 
L 114.700846 39.9408 
L 116.667019 37.3536 
L 118.633192 32.7336 
L 120.599366 33.288 
L 122.565539 38.832 
L 124.531712 41.604 
L 126.497886 40.68 
L 128.464059 38.0928 
L 130.430233 38.0928 
L 132.396406 41.0496 
L 134.362579 41.9736 
L 136.328753 35.5056 
L 138.294926 30.8856 
L 140.261099 34.3968 
L 142.227273 30.7008 
L 144.193446 24.048 
L 146.159619 30.516 
L 148.125793 39.756 
L 150.091966 44.376 
L 152.05814 55.0944 
L 154.024313 68.0304 
L 155.990486 71.7264 
L 157.95666 69.324 
L 159.922833 64.8888 
L 161.889006 59.16 
L 163.85518 54.54 
L 165.821353 51.0288 
L 167.787526 48.072 
L 169.7537 47.7024 
L 171.719873 48.2568 
L 173.686047 47.3328 
L 175.65222 45.3 
L 177.618393 42.7128 
L 179.584567 40.8648 
L 181.55074 39.9408 
L 183.516913 38.4624 
L 185.483087 37.7232 
L 187.44926 36.2448 
L 189.415433 37.5384 
L 191.381607 40.68 
L 193.34778 39.2016 
L 195.313953 36.2448 
L 197.280127 36.4296 
L 199.2463 39.2016 
L 201.212474 41.0496 
L 203.178647 39.2016 
L 205.14482 38.4624 
L 207.110994 41.604 
L 209.077167 40.4952 
L 211.04334 35.136 
L 213.009514 34.3968 
L 214.975687 34.7664 
L 216.94186 33.8424 
L 218.908034 39.0168 
L 220.874207 42.8976 
L 222.840381 38.4624 
L 224.806554 37.7232 
L 226.772727 38.4624 
L 228.738901 35.5056 
L 230.705074 32.9184 
L 232.671247 32.364 
L 234.637421 35.3208 
L 236.603594 37.908 
L 238.569767 36.6144 
L 240.535941 36.4296 
L 242.502114 39.0168 
L 244.468288 39.9408 
L 246.434461 39.756 
L 248.400634 40.4952 
L 250.366808 40.3104 
L 252.332981 40.68 
L 254.299154 42.3432 
L 256.265328 43.0824 
L 258.231501 42.1584 
L 260.197674 41.604 
L 262.163848 40.4952 
L 264.130021 38.6472 
L 266.096195 38.2776 
L 268.062368 40.3104 
L 270.028541 43.0824 
L 271.994715 40.1256 
L 273.960888 35.8752 
L 275.927061 38.2776 
L 277.893235 41.4192 
L 279.859408 40.4952 
L 281.825581 38.6472 
L 283.791755 37.7232 
L 285.757928 37.5384 
L 287.724101 37.908 
L 289.690275 39.0168 
L 291.656448 41.4192 
L 293.622622 42.1584 
L 295.588795 41.2344 
L 297.554968 43.2672 
L 299.521142 43.2672 
L 301.487315 42.528 
L 303.453488 46.224 
L 305.419662 46.4088 
L 307.385835 40.8648 
L 309.352008 39.9408 
L 311.318182 42.528 
L 311.318182 42.528 
" clip-path="url(#p5ca96e905e)" style="fill: none; stroke: #a9a9a9; stroke-width: 2.5; stroke-linecap: square"/>
   </g>
   <g id="line2d_2">
    <path d="M 116.667019 37.3536 
L 118.633192 32.7336 
L 120.599366 33.288 
L 122.565539 38.832 
L 124.531712 41.604 
L 126.497886 40.68 
L 128.464059 38.0928 
L 130.430233 38.0928 
L 132.396406 41.0496 
L 134.362579 41.9736 
L 136.328753 35.5056 
L 138.294926 30.8856 
L 140.261099 34.3968 
L 142.227273 30.7008 
L 144.193446 24.048 
L 146.159619 30.516 
L 148.125793 39.756 
L 150.091966 44.376 
L 152.05814 55.0944 
L 154.024313 68.0304 
L 155.990486 71.7264 
L 157.95666 69.324 
L 159.922833 64.8888 
L 161.889006 59.16 
L 163.85518 54.54 
L 165.821353 51.0288 
L 167.787526 48.072 
L 169.7537 47.7024 
L 171.719873 48.2568 
L 173.686047 47.3328 
L 175.65222 45.3 
L 177.618393 42.7128 
L 179.584567 40.8648 
L 181.55074 39.9408 
L 183.516913 38.4624 
L 185.483087 37.7232 
L 187.44926 36.2448 
L 189.415433 37.5384 
L 191.381607 40.68 
L 193.34778 39.2016 
L 195.313953 36.2448 
L 197.280127 36.4296 
L 199.2463 39.2016 
L 201.212474 41.0496 
L 203.178647 39.2016 
L 205.14482 38.4624 
L 207.110994 41.604 
L 209.077167 40.4952 
L 211.04334 35.136 
L 213.009514 34.3968 
" clip-path="url(#p5ca96e905e)" style="fill: none; stroke: #0000c0; stroke-width: 5; stroke-linecap: square"/>
   </g>
  </g>
 </g>
 <defs>
  <clipPath id="p5ca96e905e">
   <rect x="45" y="12.96" width="279" height="83.16"/>
  </clipPath>
 </defs>
</svg>
