<?xml version="1.0" encoding="utf-8" standalone="no"?>
<!DOCTYPE svg PUBLIC "-//W3C//DTD SVG 1.1//EN"
  "http://www.w3.org/Graphics/SVG/1.1/DTD/svg11.dtd">
<svg xmlns:xlink="http://www.w3.org/1999/xlink" width="360pt" height="108pt" viewBox="0 0 360 108" xmlns="http://www.w3.org/2000/svg" version="1.1">
 <metadata>
  <rdf:RDF xmlns:dc="http://purl.org/dc/elements/1.1/" xmlns:cc="http://creativecommons.org/ns#" xmlns:rdf="http://www.w3.org/1999/02/22-rdf-syntax-ns#">
   <cc:Work>
    <dc:type rdf:resource="http://purl.org/dc/dcmitype/StillImage"/>
    <dc:date>2022-11-16T22:40:06.931101</dc:date>
    <dc:format>image/svg+xml</dc:format>
    <dc:creator>
     <cc:Agent>
      <dc:title>Matplotlib v3.5.2, https://matplotlib.org/</dc:title>
     </cc:Agent>
    </dc:creator>
   </cc:Work>
  </rdf:RDF>
 </metadata>
 <defs>
  <style type="text/css">*{stroke-linejoin: round; stroke-linecap: butt}</style>
 </defs>
 <g id="figure_1">
  <g id="patch_1">
   <path d="M 0 108 
L 360 108 
L 360 0 
L 0 0 
L 0 108 
z
" style="fill: none"/>
  </g>
  <g id="axes_1">
   <g id="line2d_1">
    <path d="M 57.681818 45.3 
L 59.647992 40.3104 
L 61.614165 36.984 
L 63.580338 42.528 
L 65.546512 47.7024 
L 67.512685 49.1808 
L 69.478858 44.376 
L 71.445032 39.2016 
L 73.411205 43.6368 
L 75.377378 49.5504 
L 77.343552 46.4088 
L 79.309725 45.8544 
L 81.275899 45.6696 
L 83.242072 38.0928 
L 85.208245 35.3208 
L 87.174419 40.1256 
L 89.140592 41.2344 
L 91.106765 39.5712 
L 93.072939 38.0928 
L 95.039112 36.984 
L 97.005285 37.7232 
L 98.971459 37.908 
L 100.937632 36.2448 
L 102.903805 33.1032 
L 104.869979 33.8424 
L 106.836152 35.8752 
L 108.802326 30.8856 
L 110.768499 31.8096 
L 112.734672 37.7232 
L 114.700846 34.5816 
L 116.667019 34.7664 
L 118.633192 39.3864 
L 120.599366 36.984 
L 122.565539 37.5384 
L 124.531712 42.528 
L 126.497886 41.0496 
L 128.464059 38.4624 
L 130.430233 40.3104 
L 132.396406 40.68 
L 134.362579 36.984 
L 136.328753 35.8752 
L 138.294926 36.06 
L 140.261099 37.1688 
L 142.227273 41.2344 
L 144.193446 41.9736 
L 146.159619 40.1256 
L 148.125793 44.5608 
L 150.091966 49.5504 
L 152.05814 48.2568 
L 154.024313 46.4088 
L 155.990486 47.8872 
L 157.95666 49.1808 
L 159.922833 48.072 
L 161.889006 48.072 
L 163.85518 52.3224 
L 165.821353 51.3984 
L 167.787526 44.0064 
L 169.7537 39.0168 
L 171.719873 40.4952 
L 173.686047 40.4952 
L 175.65222 38.2776 
L 177.618393 39.0168 
L 179.584567 39.3864 
L 181.55074 41.604 
L 183.516913 45.1152 
L 185.483087 41.7888 
L 187.44926 36.984 
L 191.381607 42.8976 
L 193.34778 42.1584 
L 195.313953 42.1584 
L 197.280127 40.3104 
L 199.2463 38.6472 
L 201.212474 38.4624 
L 203.178647 35.6904 
L 207.110994 36.4296 
L 209.077167 34.7664 
L 211.04334 38.2776 
L 213.009514 43.452 
L 214.975687 41.604 
L 216.94186 36.6144 
L 218.908034 35.8752 
L 220.874207 38.832 
L 222.840381 43.452 
L 224.806554 44.7456 
L 226.772727 39.756 
L 228.738901 35.3208 
L 230.705074 37.1688 
L 232.671247 40.68 
L 234.637421 40.68 
L 236.603594 38.4624 
L 238.569767 38.4624 
L 240.535941 41.2344 
L 242.502114 42.1584 
L 244.468288 40.4952 
L 246.434461 38.4624 
L 248.400634 43.0824 
L 250.366808 48.996 
L 252.332981 43.452 
L 254.299154 33.4728 
L 256.265328 36.6144 
L 258.231501 44.376 
L 262.163848 41.4192 
L 264.130021 41.4192 
L 266.096195 39.756 
L 268.062368 43.2672 
L 270.028541 46.224 
L 271.994715 40.8648 
L 273.960888 38.0928 
L 275.927061 39.9408 
L 277.893235 38.4624 
L 279.859408 39.3864 
L 281.825581 41.0496 
L 283.791755 37.5384 
L 285.757928 40.3104 
L 287.724101 45.8544 
L 289.690275 41.7888 
L 291.656448 36.2448 
L 293.622622 39.3864 
L 295.588795 43.0824 
L 297.554968 40.3104 
L 299.521142 38.6472 
L 301.487315 38.832 
L 303.453488 41.4192 
L 305.419662 45.4848 
L 307.385835 44.7456 
L 309.352008 45.3 
L 311.318182 46.7784 
L 311.318182 46.7784 
" clip-path="url(#pc960ecf418)" style="fill: none; stroke: #a9a9a9; stroke-width: 2.5; stroke-linecap: square"/>
   </g>
  </g>
 </g>
 <defs>
  <clipPath id="pc960ecf418">
   <rect x="45" y="12.96" width="279" height="83.16"/>
  </clipPath>
 </defs>
</svg>
