<?xml version="1.0" encoding="utf-8" standalone="no"?>
<!DOCTYPE svg PUBLIC "-//W3C//DTD SVG 1.1//EN"
  "http://www.w3.org/Graphics/SVG/1.1/DTD/svg11.dtd">
<svg xmlns:xlink="http://www.w3.org/1999/xlink" width="360pt" height="108pt" viewBox="0 0 360 108" xmlns="http://www.w3.org/2000/svg" version="1.1">
 <metadata>
  <rdf:RDF xmlns:dc="http://purl.org/dc/elements/1.1/" xmlns:cc="http://creativecommons.org/ns#" xmlns:rdf="http://www.w3.org/1999/02/22-rdf-syntax-ns#">
   <cc:Work>
    <dc:type rdf:resource="http://purl.org/dc/dcmitype/StillImage"/>
    <dc:date>2022-11-16T22:40:06.960729</dc:date>
    <dc:format>image/svg+xml</dc:format>
    <dc:creator>
     <cc:Agent>
      <dc:title>Matplotlib v3.5.2, https://matplotlib.org/</dc:title>
     </cc:Agent>
    </dc:creator>
   </cc:Work>
  </rdf:RDF>
 </metadata>
 <defs>
  <style type="text/css">*{stroke-linejoin: round; stroke-linecap: butt}</style>
 </defs>
 <g id="figure_1">
  <g id="patch_1">
   <path d="M 0 108 
L 360 108 
L 360 0 
L 0 0 
L 0 108 
z
" style="fill: none"/>
  </g>
  <g id="axes_1">
   <g id="line2d_1">
    <path d="M 57.681818 36.984 
L 59.647992 39.756 
L 61.614165 44.376 
L 63.580338 43.452 
L 65.546512 42.3432 
L 67.512685 45.6696 
L 69.478858 46.224 
L 71.445032 43.452 
L 73.411205 44.7456 
L 75.377378 47.3328 
L 77.343552 46.4088 
L 79.309725 45.3 
L 81.275899 42.8976 
L 83.242072 40.1256 
L 85.208245 39.3864 
L 87.174419 38.4624 
L 89.140592 38.0928 
L 91.106765 41.7888 
L 93.072939 43.8216 
L 95.039112 38.832 
L 97.005285 37.1688 
L 98.971459 40.4952 
L 100.937632 38.0928 
L 102.903805 33.4728 
L 104.869979 32.5488 
L 106.836152 33.8424 
L 108.802326 33.6576 
L 110.768499 30.516 
L 112.734672 29.0376 
L 114.700846 32.364 
L 116.667019 35.136 
L 118.633192 35.5056 
L 120.599366 39.3864 
L 122.565539 41.7888 
L 124.531712 41.4192 
L 126.497886 41.604 
L 128.464059 43.0824 
L 130.430233 40.3104 
L 132.396406 37.1688 
L 134.362579 39.3864 
L 136.328753 41.0496 
L 138.294926 40.1256 
L 140.261099 44.5608 
L 142.227273 47.148 
L 144.193446 42.3432 
L 146.159619 40.3104 
L 148.125793 41.9736 
L 150.091966 43.2672 
L 152.05814 43.0824 
L 154.024313 41.2344 
L 157.95666 45.6696 
L 159.922833 43.452 
L 161.889006 46.224 
L 163.85518 49.3656 
L 165.821353 45.1152 
L 167.787526 45.4848 
L 169.7537 44.9304 
L 171.719873 39.0168 
L 173.686047 39.5712 
L 175.65222 44.1912 
L 179.584567 39.0168 
L 181.55074 43.2672 
L 183.516913 42.528 
L 185.483087 39.3864 
L 187.44926 40.3104 
L 189.415433 39.0168 
L 191.381607 36.2448 
L 193.34778 36.2448 
L 195.313953 36.6144 
L 197.280127 36.06 
L 199.2463 36.984 
L 201.212474 38.0928 
L 203.178647 37.5384 
L 205.14482 39.2016 
L 207.110994 43.0824 
L 209.077167 41.0496 
L 211.04334 37.5384 
L 213.009514 40.1256 
L 214.975687 43.2672 
L 216.94186 42.8976 
L 218.908034 40.8648 
L 220.874207 37.908 
L 222.840381 36.6144 
L 224.806554 37.908 
L 226.772727 35.8752 
L 228.738901 34.5816 
L 230.705074 39.3864 
L 232.671247 39.9408 
L 234.637421 33.6576 
L 236.603594 36.4296 
L 238.569767 42.8976 
L 240.535941 41.604 
L 242.502114 42.3432 
L 244.468288 43.452 
L 246.434461 39.3864 
L 248.400634 40.8648 
L 250.366808 47.5176 
L 252.332981 46.9632 
L 254.299154 42.1584 
L 256.265328 43.0824 
L 258.231501 43.0824 
L 260.197674 40.1256 
L 262.163848 42.528 
L 264.130021 44.1912 
L 266.096195 40.8648 
L 268.062368 42.7128 
L 270.028541 45.4848 
L 271.994715 43.6368 
L 273.960888 43.2672 
L 275.927061 43.0824 
L 277.893235 43.2672 
L 279.859408 44.9304 
L 281.825581 41.604 
L 283.791755 39.756 
L 285.757928 44.376 
L 287.724101 44.1912 
L 289.690275 40.8648 
L 291.656448 41.0496 
L 293.622622 39.756 
L 295.588795 39.756 
L 297.554968 43.0824 
L 301.487315 41.9736 
L 303.453488 44.0064 
L 305.419662 42.8976 
L 307.385835 40.8648 
L 309.352008 44.0064 
L 311.318182 46.224 
L 311.318182 46.224 
" clip-path="url(#p094ce87939)" style="fill: none; stroke: #a9a9a9; stroke-width: 2.5; stroke-linecap: square"/>
   </g>
  </g>
 </g>
 <defs>
  <clipPath id="p094ce87939">
   <rect x="45" y="12.96" width="279" height="83.16"/>
  </clipPath>
 </defs>
</svg>
