<?xml version="1.0" encoding="utf-8" standalone="no"?>
<!DOCTYPE svg PUBLIC "-//W3C//DTD SVG 1.1//EN"
  "http://www.w3.org/Graphics/SVG/1.1/DTD/svg11.dtd">
<svg xmlns:xlink="http://www.w3.org/1999/xlink" width="360pt" height="108pt" viewBox="0 0 360 108" xmlns="http://www.w3.org/2000/svg" version="1.1">
 <metadata>
  <rdf:RDF xmlns:dc="http://purl.org/dc/elements/1.1/" xmlns:cc="http://creativecommons.org/ns#" xmlns:rdf="http://www.w3.org/1999/02/22-rdf-syntax-ns#">
   <cc:Work>
    <dc:type rdf:resource="http://purl.org/dc/dcmitype/StillImage"/>
    <dc:date>2022-11-16T22:40:07.010805</dc:date>
    <dc:format>image/svg+xml</dc:format>
    <dc:creator>
     <cc:Agent>
      <dc:title>Matplotlib v3.5.2, https://matplotlib.org/</dc:title>
     </cc:Agent>
    </dc:creator>
   </cc:Work>
  </rdf:RDF>
 </metadata>
 <defs>
  <style type="text/css">*{stroke-linejoin: round; stroke-linecap: butt}</style>
 </defs>
 <g id="figure_1">
  <g id="patch_1">
   <path d="M 0 108 
L 360 108 
L 360 0 
L 0 0 
L 0 108 
z
" style="fill: none"/>
  </g>
  <g id="axes_1">
   <g id="line2d_1">
    <path d="M 57.681818 39.0168 
L 59.647992 37.908 
L 61.614165 40.68 
L 63.580338 44.376 
L 65.546512 47.5176 
L 67.512685 47.7024 
L 69.478858 47.148 
L 71.445032 48.4416 
L 73.411205 46.5936 
L 75.377378 41.0496 
L 77.343552 37.908 
L 81.275899 44.1912 
L 83.242072 42.1584 
L 85.208245 37.3536 
L 87.174419 36.4296 
L 89.140592 40.8648 
L 91.106765 42.1584 
L 93.072939 38.6472 
L 95.039112 38.2776 
L 97.005285 41.4192 
L 98.971459 40.8648 
L 100.937632 39.756 
L 102.903805 40.8648 
L 104.869979 38.832 
L 106.836152 36.06 
L 108.802326 36.2448 
L 110.768499 36.6144 
L 112.734672 37.5384 
L 114.700846 37.908 
L 116.667019 36.6144 
L 118.633192 39.0168 
L 120.599366 43.2672 
L 122.565539 42.7128 
L 124.531712 40.68 
L 126.497886 39.9408 
L 128.464059 37.7232 
L 130.430233 37.1688 
L 132.396406 39.2016 
L 134.362579 39.3864 
L 136.328753 39.0168 
L 138.294926 39.2016 
L 140.261099 39.2016 
L 142.227273 37.908 
L 144.193446 34.3968 
L 146.159619 31.44 
L 148.125793 30.516 
L 150.091966 34.212 
L 152.05814 46.5936 
L 154.024313 56.2032 
L 155.990486 57.1272 
L 157.95666 55.0944 
L 159.922833 52.3224 
L 163.85518 50.4744 
L 165.821353 43.8216 
L 167.787526 41.2344 
L 169.7537 44.0064 
L 171.719873 44.0064 
L 173.686047 40.68 
L 175.65222 38.4624 
L 177.618393 37.3536 
L 179.584567 37.908 
L 181.55074 42.1584 
L 183.516913 44.0064 
L 185.483087 38.2776 
L 187.44926 33.6576 
L 189.415433 35.6904 
L 191.381607 37.1688 
L 193.34778 35.6904 
L 195.313953 34.5816 
L 197.280127 32.9184 
L 199.2463 32.9184 
L 201.212474 37.7232 
L 203.178647 37.7232 
L 205.14482 33.288 
L 207.110994 36.4296 
L 209.077167 41.4192 
L 211.04334 37.3536 
L 213.009514 35.3208 
L 214.975687 40.1256 
L 216.94186 39.9408 
L 218.908034 39.2016 
L 220.874207 41.4192 
L 222.840381 40.8648 
L 224.806554 40.68 
L 226.772727 42.8976 
L 228.738901 43.0824 
L 230.705074 39.3864 
L 232.671247 39.3864 
L 234.637421 46.0392 
L 236.603594 46.4088 
L 238.569767 40.8648 
L 240.535941 40.8648 
L 242.502114 42.8976 
L 244.468288 44.0064 
L 246.434461 44.9304 
L 248.400634 43.8216 
L 250.366808 42.3432 
L 252.332981 42.7128 
L 254.299154 42.1584 
L 256.265328 40.8648 
L 258.231501 40.1256 
L 260.197674 40.68 
L 262.163848 44.0064 
L 264.130021 45.6696 
L 266.096195 41.9736 
L 268.062368 41.604 
L 270.028541 43.6368 
L 271.994715 42.3432 
L 273.960888 42.3432 
L 275.927061 44.5608 
L 277.893235 46.0392 
L 279.859408 44.376 
L 281.825581 43.0824 
L 283.791755 42.8976 
L 285.757928 42.1584 
L 287.724101 43.452 
L 289.690275 44.0064 
L 291.656448 40.8648 
L 293.622622 38.4624 
L 295.588795 38.832 
L 297.554968 39.0168 
L 299.521142 38.6472 
L 301.487315 39.3864 
L 303.453488 39.2016 
L 305.419662 37.1688 
L 307.385835 35.8752 
L 309.352008 38.2776 
L 311.318182 41.0496 
L 311.318182 41.0496 
" clip-path="url(#p32d9249ded)" style="fill: none; stroke: #a9a9a9; stroke-width: 2.5; stroke-linecap: square"/>
   </g>
   <g id="line2d_2">
    <path d="M 116.667019 36.6144 
L 118.633192 39.0168 
L 120.599366 43.2672 
L 122.565539 42.7128 
L 124.531712 40.68 
L 126.497886 39.9408 
L 128.464059 37.7232 
L 130.430233 37.1688 
L 132.396406 39.2016 
L 134.362579 39.3864 
L 136.328753 39.0168 
L 138.294926 39.2016 
L 140.261099 39.2016 
L 142.227273 37.908 
L 144.193446 34.3968 
L 146.159619 31.44 
L 148.125793 30.516 
L 150.091966 34.212 
L 152.05814 46.5936 
L 154.024313 56.2032 
L 155.990486 57.1272 
L 157.95666 55.0944 
L 159.922833 52.3224 
L 161.889006 51.3984 
L 163.85518 50.4744 
L 165.821353 43.8216 
L 167.787526 41.2344 
L 169.7537 44.0064 
L 171.719873 44.0064 
L 173.686047 40.68 
L 175.65222 38.4624 
L 177.618393 37.3536 
L 179.584567 37.908 
L 181.55074 42.1584 
L 183.516913 44.0064 
L 185.483087 38.2776 
L 187.44926 33.6576 
L 189.415433 35.6904 
L 191.381607 37.1688 
L 193.34778 35.6904 
L 195.313953 34.5816 
L 197.280127 32.9184 
L 199.2463 32.9184 
L 201.212474 37.7232 
L 203.178647 37.7232 
L 205.14482 33.288 
L 207.110994 36.4296 
L 209.077167 41.4192 
L 211.04334 37.3536 
L 213.009514 35.3208 
" clip-path="url(#p32d9249ded)" style="fill: none; stroke: #e4717a; stroke-width: 5; stroke-linecap: square"/>
   </g>
  </g>
 </g>
 <defs>
  <clipPath id="p32d9249ded">
   <rect x="45" y="12.96" width="279" height="83.16"/>
  </clipPath>
 </defs>
</svg>
