<?xml version="1.0" encoding="utf-8" standalone="no"?>
<!DOCTYPE svg PUBLIC "-//W3C//DTD SVG 1.1//EN"
  "http://www.w3.org/Graphics/SVG/1.1/DTD/svg11.dtd">
<svg xmlns:xlink="http://www.w3.org/1999/xlink" width="360pt" height="108pt" viewBox="0 0 360 108" xmlns="http://www.w3.org/2000/svg" version="1.1">
 <metadata>
  <rdf:RDF xmlns:dc="http://purl.org/dc/elements/1.1/" xmlns:cc="http://creativecommons.org/ns#" xmlns:rdf="http://www.w3.org/1999/02/22-rdf-syntax-ns#">
   <cc:Work>
    <dc:type rdf:resource="http://purl.org/dc/dcmitype/StillImage"/>
    <dc:date>2022-11-16T22:40:21.311751</dc:date>
    <dc:format>image/svg+xml</dc:format>
    <dc:creator>
     <cc:Agent>
      <dc:title>Matplotlib v3.5.2, https://matplotlib.org/</dc:title>
     </cc:Agent>
    </dc:creator>
   </cc:Work>
  </rdf:RDF>
 </metadata>
 <defs>
  <style type="text/css">*{stroke-linejoin: round; stroke-linecap: butt}</style>
 </defs>
 <g id="figure_1">
  <g id="patch_1">
   <path d="M 0 108 
L 360 108 
L 360 0 
L 0 0 
L 0 108 
z
" style="fill: none"/>
  </g>
  <g id="axes_1">
   <g id="line2d_1">
    <path d="M 57.681818 47.3328 
L 59.647992 45.6696 
L 61.614165 39.0168 
L 63.580338 35.8752 
L 65.546512 41.604 
L 67.512685 41.604 
L 69.478858 37.3536 
L 73.411205 44.376 
L 75.377378 43.2672 
L 77.343552 44.5608 
L 79.309725 42.1584 
L 81.275899 37.908 
L 83.242072 42.1584 
L 85.208245 44.5608 
L 87.174419 41.4192 
L 89.140592 39.9408 
L 91.106765 37.3536 
L 93.072939 36.2448 
L 95.039112 37.1688 
L 97.005285 35.6904 
L 98.971459 38.4624 
L 100.937632 42.528 
L 102.903805 39.756 
L 104.869979 38.0928 
L 106.836152 38.4624 
L 108.802326 37.908 
L 110.768499 41.4192 
L 112.734672 41.604 
L 114.700846 38.2776 
L 116.667019 41.4192 
L 118.633192 42.8976 
L 120.599366 39.9408 
L 124.531712 31.6248 
L 126.497886 32.364 
L 128.464059 37.7232 
L 130.430233 37.3536 
L 132.396406 35.136 
L 134.362579 39.2016 
L 136.328753 41.4192 
L 138.294926 38.6472 
L 140.261099 38.832 
L 142.227273 42.3432 
L 144.193446 41.7888 
L 146.159619 41.604 
L 148.125793 46.224 
L 150.091966 48.2568 
L 152.05814 45.4848 
L 154.024313 48.072 
L 155.990486 50.2896 
L 157.95666 49.5504 
L 159.922833 50.2896 
L 161.889006 47.3328 
L 163.85518 46.224 
L 165.821353 46.7784 
L 167.787526 40.68 
L 169.7537 36.6144 
L 171.719873 41.4192 
L 173.686047 43.0824 
L 175.65222 39.3864 
L 177.618393 41.7888 
L 179.584567 43.2672 
L 181.55074 38.2776 
L 183.516913 36.2448 
L 185.483087 38.4624 
L 187.44926 39.756 
L 191.381607 40.1256 
L 193.34778 41.604 
L 195.313953 42.3432 
L 197.280127 36.6144 
L 199.2463 32.5488 
L 201.212474 36.7992 
L 203.178647 38.6472 
L 205.14482 38.2776 
L 207.110994 41.604 
L 209.077167 43.452 
L 211.04334 39.9408 
L 213.009514 38.4624 
L 214.975687 40.68 
L 216.94186 39.756 
L 218.908034 37.7232 
L 220.874207 37.7232 
L 222.840381 37.3536 
L 224.806554 40.3104 
L 226.772727 41.9736 
L 228.738901 39.756 
L 230.705074 39.3864 
L 232.671247 40.1256 
L 234.637421 42.3432 
L 236.603594 43.6368 
L 238.569767 40.1256 
L 240.535941 39.2016 
L 242.502114 41.7888 
L 244.468288 39.3864 
L 246.434461 36.06 
L 250.366808 42.3432 
L 252.332981 41.604 
L 254.299154 38.832 
L 256.265328 38.4624 
L 258.231501 42.1584 
L 260.197674 42.3432 
L 262.163848 41.9736 
L 264.130021 42.528 
L 266.096195 38.4624 
L 268.062368 36.984 
L 270.028541 43.2672 
L 271.994715 47.3328 
L 273.960888 44.0064 
L 275.927061 41.604 
L 277.893235 43.0824 
L 279.859408 43.2672 
L 281.825581 40.1256 
L 283.791755 40.1256 
L 285.757928 41.7888 
L 287.724101 41.7888 
L 289.690275 44.0064 
L 291.656448 44.1912 
L 293.622622 38.0928 
L 295.588795 37.7232 
L 297.554968 42.8976 
L 299.521142 41.4192 
L 301.487315 37.908 
L 303.453488 39.5712 
L 305.419662 42.1584 
L 307.385835 43.452 
L 309.352008 43.6368 
L 311.318182 42.1584 
L 311.318182 42.1584 
" clip-path="url(#p1eb14950dc)" style="fill: none; stroke: #a9a9a9; stroke-width: 2.5; stroke-linecap: square"/>
   </g>
  </g>
 </g>
 <defs>
  <clipPath id="p1eb14950dc">
   <rect x="45" y="12.96" width="279" height="83.16"/>
  </clipPath>
 </defs>
</svg>
