<?xml version="1.0" encoding="utf-8" standalone="no"?>
<!DOCTYPE svg PUBLIC "-//W3C//DTD SVG 1.1//EN"
  "http://www.w3.org/Graphics/SVG/1.1/DTD/svg11.dtd">
<svg xmlns:xlink="http://www.w3.org/1999/xlink" width="360pt" height="108pt" viewBox="0 0 360 108" xmlns="http://www.w3.org/2000/svg" version="1.1">
 <metadata>
  <rdf:RDF xmlns:dc="http://purl.org/dc/elements/1.1/" xmlns:cc="http://creativecommons.org/ns#" xmlns:rdf="http://www.w3.org/1999/02/22-rdf-syntax-ns#">
   <cc:Work>
    <dc:type rdf:resource="http://purl.org/dc/dcmitype/StillImage"/>
    <dc:date>2022-11-16T22:40:21.341828</dc:date>
    <dc:format>image/svg+xml</dc:format>
    <dc:creator>
     <cc:Agent>
      <dc:title>Matplotlib v3.5.2, https://matplotlib.org/</dc:title>
     </cc:Agent>
    </dc:creator>
   </cc:Work>
  </rdf:RDF>
 </metadata>
 <defs>
  <style type="text/css">*{stroke-linejoin: round; stroke-linecap: butt}</style>
 </defs>
 <g id="figure_1">
  <g id="patch_1">
   <path d="M 0 108 
L 360 108 
L 360 0 
L 0 0 
L 0 108 
z
" style="fill: none"/>
  </g>
  <g id="axes_1">
   <g id="line2d_1">
    <path d="M 57.681818 38.4624 
L 59.647992 41.9736 
L 61.614165 38.2776 
L 63.580338 35.136 
L 65.546512 40.8648 
L 67.512685 46.0392 
L 71.445032 39.756 
L 73.411205 43.452 
L 75.377378 45.8544 
L 77.343552 46.5936 
L 79.309725 44.7456 
L 81.275899 40.1256 
L 83.242072 38.2776 
L 85.208245 39.2016 
L 87.174419 41.4192 
L 89.140592 43.8216 
L 91.106765 41.2344 
L 93.072939 35.3208 
L 95.039112 35.3208 
L 97.005285 40.8648 
L 98.971459 44.0064 
L 100.937632 41.9736 
L 102.903805 38.6472 
L 104.869979 38.832 
L 106.836152 40.68 
L 108.802326 41.0496 
L 110.768499 41.2344 
L 112.734672 40.4952 
L 114.700846 39.5712 
L 116.667019 41.0496 
L 118.633192 41.9736 
L 120.599366 40.8648 
L 122.565539 37.7232 
L 124.531712 34.212 
L 126.497886 34.0272 
L 130.430233 40.1256 
L 132.396406 38.6472 
L 134.362579 36.7992 
L 136.328753 39.0168 
L 138.294926 38.6472 
L 140.261099 35.6904 
L 142.227273 36.2448 
L 144.193446 37.908 
L 146.159619 38.2776 
L 148.125793 39.5712 
L 150.091966 42.528 
L 152.05814 44.9304 
L 154.024313 45.6696 
L 155.990486 45.3 
L 157.95666 46.224 
L 159.922833 48.8112 
L 161.889006 49.3656 
L 163.85518 50.2896 
L 165.821353 49.1808 
L 167.787526 43.0824 
L 169.7537 39.9408 
L 171.719873 45.1152 
L 173.686047 45.1152 
L 175.65222 38.832 
L 177.618393 41.604 
L 179.584567 45.4848 
L 181.55074 42.3432 
L 183.516913 40.3104 
L 185.483087 38.832 
L 187.44926 35.6904 
L 189.415433 36.2448 
L 191.381607 40.3104 
L 193.34778 42.1584 
L 195.313953 41.604 
L 197.280127 39.3864 
L 199.2463 36.984 
L 201.212474 36.6144 
L 203.178647 37.5384 
L 205.14482 39.2016 
L 207.110994 39.0168 
L 209.077167 38.2776 
L 211.04334 40.1256 
L 213.009514 41.0496 
L 214.975687 40.8648 
L 216.94186 43.0824 
L 218.908034 40.1256 
L 220.874207 34.5816 
L 222.840381 36.7992 
L 224.806554 39.756 
L 226.772727 37.7232 
L 228.738901 39.5712 
L 230.705074 43.0824 
L 232.671247 40.1256 
L 234.637421 38.0928 
L 236.603594 41.2344 
L 238.569767 41.604 
L 240.535941 39.0168 
L 242.502114 39.2016 
L 244.468288 42.1584 
L 246.434461 43.0824 
L 248.400634 40.3104 
L 250.366808 40.8648 
L 252.332981 43.6368 
L 254.299154 41.7888 
L 256.265328 39.3864 
L 258.231501 41.7888 
L 260.197674 42.7128 
L 262.163848 44.376 
L 264.130021 46.5936 
L 268.062368 37.908 
L 270.028541 39.3864 
L 271.994715 42.3432 
L 273.960888 43.8216 
L 275.927061 41.7888 
L 277.893235 37.908 
L 279.859408 39.756 
L 281.825581 43.6368 
L 285.757928 37.5384 
L 287.724101 38.6472 
L 289.690275 37.5384 
L 291.656448 35.3208 
L 293.622622 35.8752 
L 295.588795 38.4624 
L 297.554968 41.4192 
L 299.521142 43.0824 
L 301.487315 41.7888 
L 303.453488 38.832 
L 305.419662 40.68 
L 307.385835 44.376 
L 309.352008 45.1152 
L 311.318182 45.4848 
L 311.318182 45.4848 
" clip-path="url(#p869934a7ba)" style="fill: none; stroke: #a9a9a9; stroke-width: 2.5; stroke-linecap: square"/>
   </g>
  </g>
 </g>
 <defs>
  <clipPath id="p869934a7ba">
   <rect x="45" y="12.96" width="279" height="83.16"/>
  </clipPath>
 </defs>
</svg>
