<?xml version="1.0" encoding="utf-8" standalone="no"?>
<!DOCTYPE svg PUBLIC "-//W3C//DTD SVG 1.1//EN"
  "http://www.w3.org/Graphics/SVG/1.1/DTD/svg11.dtd">
<svg xmlns:xlink="http://www.w3.org/1999/xlink" width="360pt" height="108pt" viewBox="0 0 360 108" xmlns="http://www.w3.org/2000/svg" version="1.1">
 <metadata>
  <rdf:RDF xmlns:dc="http://purl.org/dc/elements/1.1/" xmlns:cc="http://creativecommons.org/ns#" xmlns:rdf="http://www.w3.org/1999/02/22-rdf-syntax-ns#">
   <cc:Work>
    <dc:type rdf:resource="http://purl.org/dc/dcmitype/StillImage"/>
    <dc:date>2022-11-16T22:40:21.291826</dc:date>
    <dc:format>image/svg+xml</dc:format>
    <dc:creator>
     <cc:Agent>
      <dc:title>Matplotlib v3.5.2, https://matplotlib.org/</dc:title>
     </cc:Agent>
    </dc:creator>
   </cc:Work>
  </rdf:RDF>
 </metadata>
 <defs>
  <style type="text/css">*{stroke-linejoin: round; stroke-linecap: butt}</style>
 </defs>
 <g id="figure_1">
  <g id="patch_1">
   <path d="M 0 108 
L 360 108 
L 360 0 
L 0 0 
L 0 108 
z
" style="fill: none"/>
  </g>
  <g id="axes_1">
   <g id="line2d_1">
    <path d="M 57.681818 43.0824 
L 59.647992 38.832 
L 61.614165 37.3536 
L 63.580338 37.1688 
L 65.546512 40.3104 
L 67.512685 44.0064 
L 69.478858 44.376 
L 71.445032 44.9304 
L 73.411205 44.0064 
L 75.377378 43.452 
L 77.343552 46.5936 
L 79.309725 44.1912 
L 81.275899 38.6472 
L 83.242072 40.68 
L 85.208245 41.7888 
L 87.174419 37.3536 
L 89.140592 35.6904 
L 91.106765 37.908 
L 93.072939 39.9408 
L 95.039112 39.3864 
L 97.005285 40.1256 
L 98.971459 42.1584 
L 100.937632 41.4192 
L 102.903805 38.0928 
L 104.869979 36.7992 
L 106.836152 38.0928 
L 108.802326 39.2016 
L 110.768499 39.3864 
L 114.700846 38.6472 
L 116.667019 37.1688 
L 118.633192 33.8424 
L 120.599366 31.2552 
L 122.565539 28.1136 
L 124.531712 27.9288 
L 126.497886 31.6248 
L 128.464059 31.44 
L 130.430233 27.744 
L 132.396406 26.4504 
L 134.362579 29.592 
L 136.328753 32.1792 
L 138.294926 32.9184 
L 140.261099 39.9408 
L 142.227273 52.8768 
L 144.193446 64.704 
L 146.159619 74.6832 
L 148.125793 81.5208 
L 150.091966 77.4552 
L 152.05814 63.78 
L 154.024313 55.0944 
L 155.990486 52.3224 
L 157.95666 48.8112 
L 159.922833 45.8544 
L 161.889006 46.4088 
L 163.85518 44.9304 
L 165.821353 39.9408 
L 167.787526 39.2016 
L 169.7537 40.8648 
L 171.719873 38.6472 
L 173.686047 36.984 
L 175.65222 40.68 
L 177.618393 42.8976 
L 179.584567 40.4952 
L 181.55074 37.7232 
L 183.516913 39.2016 
L 185.483087 41.4192 
L 187.44926 38.2776 
L 189.415433 35.6904 
L 191.381607 37.908 
L 193.34778 39.0168 
L 195.313953 39.0168 
L 197.280127 41.2344 
L 199.2463 40.4952 
L 201.212474 36.6144 
L 203.178647 35.136 
L 205.14482 34.212 
L 207.110994 30.8856 
L 209.077167 32.7336 
L 211.04334 36.7992 
L 213.009514 35.5056 
L 214.975687 33.8424 
L 216.94186 32.9184 
L 218.908034 33.8424 
L 220.874207 36.7992 
L 222.840381 34.5816 
L 224.806554 34.3968 
L 226.772727 36.06 
L 228.738901 34.3968 
L 230.705074 37.7232 
L 232.671247 45.3 
L 234.637421 45.6696 
L 236.603594 39.756 
L 238.569767 35.6904 
L 240.535941 35.8752 
L 242.502114 35.8752 
L 244.468288 35.6904 
L 246.434461 40.3104 
L 248.400634 44.1912 
L 252.332981 41.9736 
L 254.299154 41.604 
L 256.265328 39.9408 
L 258.231501 42.3432 
L 260.197674 45.6696 
L 262.163848 42.8976 
L 264.130021 41.2344 
L 266.096195 45.3 
L 268.062368 45.3 
L 270.028541 43.0824 
L 271.994715 46.224 
L 273.960888 46.9632 
L 275.927061 44.1912 
L 277.893235 45.6696 
L 279.859408 43.452 
L 281.825581 38.832 
L 283.791755 42.3432 
L 285.757928 45.1152 
L 287.724101 42.528 
L 289.690275 41.9736 
L 291.656448 42.8976 
L 293.622622 42.8976 
L 295.588795 41.604 
L 297.554968 39.0168 
L 299.521142 40.68 
L 301.487315 40.1256 
L 303.453488 36.4296 
L 305.419662 40.1256 
L 307.385835 42.528 
L 309.352008 39.9408 
L 311.318182 40.8648 
L 311.318182 40.8648 
" clip-path="url(#p9d84443977)" style="fill: none; stroke: #a9a9a9; stroke-width: 2.5; stroke-linecap: square"/>
   </g>
   <g id="line2d_2">
    <path d="M 116.667019 37.1688 
L 118.633192 33.8424 
L 120.599366 31.2552 
L 122.565539 28.1136 
L 124.531712 27.9288 
L 126.497886 31.6248 
L 128.464059 31.44 
L 130.430233 27.744 
L 132.396406 26.4504 
L 134.362579 29.592 
L 136.328753 32.1792 
L 138.294926 32.9184 
L 140.261099 39.9408 
L 142.227273 52.8768 
L 144.193446 64.704 
L 146.159619 74.6832 
L 148.125793 81.5208 
L 150.091966 77.4552 
L 152.05814 63.78 
L 154.024313 55.0944 
L 155.990486 52.3224 
L 157.95666 48.8112 
L 159.922833 45.8544 
L 161.889006 46.4088 
L 163.85518 44.9304 
L 165.821353 39.9408 
L 167.787526 39.2016 
L 169.7537 40.8648 
L 171.719873 38.6472 
L 173.686047 36.984 
L 175.65222 40.68 
L 177.618393 42.8976 
L 179.584567 40.4952 
L 181.55074 37.7232 
L 183.516913 39.2016 
L 185.483087 41.4192 
L 187.44926 38.2776 
L 189.415433 35.6904 
L 191.381607 37.908 
L 193.34778 39.0168 
L 195.313953 39.0168 
L 197.280127 41.2344 
L 199.2463 40.4952 
L 201.212474 36.6144 
L 203.178647 35.136 
L 205.14482 34.212 
L 207.110994 30.8856 
L 209.077167 32.7336 
L 211.04334 36.7992 
L 213.009514 35.5056 
" clip-path="url(#p9d84443977)" style="fill: none; stroke: #e32636; stroke-width: 5; stroke-linecap: square"/>
   </g>
  </g>
 </g>
 <defs>
  <clipPath id="p9d84443977">
   <rect x="45" y="12.96" width="279" height="83.16"/>
  </clipPath>
 </defs>
</svg>
