<?xml version="1.0" encoding="utf-8" standalone="no"?>
<!DOCTYPE svg PUBLIC "-//W3C//DTD SVG 1.1//EN"
  "http://www.w3.org/Graphics/SVG/1.1/DTD/svg11.dtd">
<svg xmlns:xlink="http://www.w3.org/1999/xlink" width="360pt" height="108pt" viewBox="0 0 360 108" xmlns="http://www.w3.org/2000/svg" version="1.1">
 <metadata>
  <rdf:RDF xmlns:dc="http://purl.org/dc/elements/1.1/" xmlns:cc="http://creativecommons.org/ns#" xmlns:rdf="http://www.w3.org/1999/02/22-rdf-syntax-ns#">
   <cc:Work>
    <dc:type rdf:resource="http://purl.org/dc/dcmitype/StillImage"/>
    <dc:date>2022-11-16T22:40:21.331828</dc:date>
    <dc:format>image/svg+xml</dc:format>
    <dc:creator>
     <cc:Agent>
      <dc:title>Matplotlib v3.5.2, https://matplotlib.org/</dc:title>
     </cc:Agent>
    </dc:creator>
   </cc:Work>
  </rdf:RDF>
 </metadata>
 <defs>
  <style type="text/css">*{stroke-linejoin: round; stroke-linecap: butt}</style>
 </defs>
 <g id="figure_1">
  <g id="patch_1">
   <path d="M 0 108 
L 360 108 
L 360 0 
L 0 0 
L 0 108 
z
" style="fill: none"/>
  </g>
  <g id="axes_1">
   <g id="line2d_1">
    <path d="M 57.681818 37.5384 
L 59.647992 40.4952 
L 61.614165 39.3864 
L 63.580338 36.984 
L 65.546512 36.984 
L 67.512685 42.7128 
L 69.478858 46.9632 
L 71.445032 41.9736 
L 73.411205 35.136 
L 75.377378 37.5384 
L 77.343552 42.8976 
L 79.309725 40.1256 
L 81.275899 37.7232 
L 83.242072 41.4192 
L 85.208245 39.9408 
L 87.174419 35.5056 
L 89.140592 37.1688 
L 91.106765 41.2344 
L 93.072939 41.2344 
L 95.039112 39.5712 
L 97.005285 41.7888 
L 98.971459 44.9304 
L 100.937632 41.604 
L 102.903805 36.4296 
L 104.869979 38.0928 
L 106.836152 39.9408 
L 108.802326 38.6472 
L 110.768499 37.908 
L 112.734672 34.5816 
L 114.700846 33.1032 
L 116.667019 36.2448 
L 118.633192 33.4728 
L 120.599366 31.9944 
L 122.565539 33.6576 
L 124.531712 30.7008 
L 126.497886 32.1792 
L 128.464059 37.1688 
L 130.430233 35.136 
L 132.396406 27.0048 
L 134.362579 25.3416 
L 136.328753 30.7008 
L 138.294926 29.7768 
L 140.261099 27.0048 
L 142.227273 36.984 
L 144.193446 50.6592 
L 146.159619 61.3776 
L 148.125793 77.64 
L 150.091966 87.804 
L 152.05814 80.0424 
L 154.024313 70.4328 
L 155.990486 63.4104 
L 157.95666 57.8664 
L 159.922833 55.8336 
L 163.85518 46.0392 
L 165.821353 43.8216 
L 167.787526 42.528 
L 169.7537 44.376 
L 171.719873 46.9632 
L 175.65222 38.4624 
L 177.618393 40.68 
L 179.584567 42.3432 
L 181.55074 39.2016 
L 183.516913 36.4296 
L 185.483087 38.6472 
L 187.44926 37.5384 
L 189.415433 33.4728 
L 191.381607 36.984 
L 193.34778 39.3864 
L 195.313953 36.7992 
L 197.280127 38.2776 
L 199.2463 37.5384 
L 201.212474 34.0272 
L 203.178647 34.212 
L 205.14482 31.2552 
L 207.110994 29.4072 
L 209.077167 36.06 
L 211.04334 37.7232 
L 213.009514 33.288 
L 214.975687 34.212 
L 216.94186 34.212 
L 218.908034 31.8096 
L 220.874207 33.8424 
L 222.840381 34.3968 
L 224.806554 33.4728 
L 226.772727 35.6904 
L 228.738901 36.6144 
L 230.705074 36.4296 
L 232.671247 38.4624 
L 234.637421 40.3104 
L 238.569767 37.3536 
L 240.535941 38.6472 
L 242.502114 37.5384 
L 244.468288 36.2448 
L 246.434461 37.908 
L 248.400634 40.3104 
L 250.366808 43.0824 
L 252.332981 43.8216 
L 254.299154 42.1584 
L 256.265328 38.832 
L 258.231501 36.984 
L 260.197674 38.6472 
L 262.163848 39.9408 
L 264.130021 42.7128 
L 266.096195 47.148 
L 268.062368 46.7784 
L 270.028541 42.3432 
L 271.994715 41.604 
L 273.960888 44.1912 
L 275.927061 44.9304 
L 277.893235 46.0392 
L 279.859408 44.7456 
L 281.825581 41.4192 
L 283.791755 41.7888 
L 285.757928 43.6368 
L 289.690275 44.376 
L 291.656448 44.9304 
L 293.622622 42.3432 
L 295.588795 39.2016 
L 297.554968 41.2344 
L 299.521142 44.1912 
L 301.487315 41.7888 
L 303.453488 38.4624 
L 305.419662 39.756 
L 307.385835 40.4952 
L 309.352008 41.9736 
L 311.318182 45.3 
L 311.318182 45.3 
" clip-path="url(#p0a1d5667ff)" style="fill: none; stroke: #a9a9a9; stroke-width: 2.5; stroke-linecap: square"/>
   </g>
   <g id="line2d_2">
    <path d="M 116.667019 36.2448 
L 118.633192 33.4728 
L 120.599366 31.9944 
L 122.565539 33.6576 
L 124.531712 30.7008 
L 126.497886 32.1792 
L 128.464059 37.1688 
L 130.430233 35.136 
L 132.396406 27.0048 
L 134.362579 25.3416 
L 136.328753 30.7008 
L 138.294926 29.7768 
L 140.261099 27.0048 
L 142.227273 36.984 
L 144.193446 50.6592 
L 146.159619 61.3776 
L 148.125793 77.64 
L 150.091966 87.804 
L 152.05814 80.0424 
L 154.024313 70.4328 
L 155.990486 63.4104 
L 157.95666 57.8664 
L 159.922833 55.8336 
L 161.889006 51.0288 
L 163.85518 46.0392 
L 165.821353 43.8216 
L 167.787526 42.528 
L 169.7537 44.376 
L 171.719873 46.9632 
L 173.686047 42.7128 
L 175.65222 38.4624 
L 177.618393 40.68 
L 179.584567 42.3432 
L 181.55074 39.2016 
L 183.516913 36.4296 
L 185.483087 38.6472 
L 187.44926 37.5384 
L 189.415433 33.4728 
L 191.381607 36.984 
L 193.34778 39.3864 
L 195.313953 36.7992 
L 197.280127 38.2776 
L 199.2463 37.5384 
L 201.212474 34.0272 
L 203.178647 34.212 
L 205.14482 31.2552 
L 207.110994 29.4072 
L 209.077167 36.06 
L 211.04334 37.7232 
L 213.009514 33.288 
" clip-path="url(#p0a1d5667ff)" style="fill: none; stroke: #e32636; stroke-width: 5; stroke-linecap: square"/>
   </g>
  </g>
 </g>
 <defs>
  <clipPath id="p0a1d5667ff">
   <rect x="45" y="12.96" width="279" height="83.16"/>
  </clipPath>
 </defs>
</svg>
