<?xml version="1.0" encoding="utf-8" standalone="no"?>
<!DOCTYPE svg PUBLIC "-//W3C//DTD SVG 1.1//EN"
  "http://www.w3.org/Graphics/SVG/1.1/DTD/svg11.dtd">
<svg xmlns:xlink="http://www.w3.org/1999/xlink" width="360pt" height="108pt" viewBox="0 0 360 108" xmlns="http://www.w3.org/2000/svg" version="1.1">
 <metadata>
  <rdf:RDF xmlns:dc="http://purl.org/dc/elements/1.1/" xmlns:cc="http://creativecommons.org/ns#" xmlns:rdf="http://www.w3.org/1999/02/22-rdf-syntax-ns#">
   <cc:Work>
    <dc:type rdf:resource="http://purl.org/dc/dcmitype/StillImage"/>
    <dc:date>2022-11-16T22:40:21.371844</dc:date>
    <dc:format>image/svg+xml</dc:format>
    <dc:creator>
     <cc:Agent>
      <dc:title>Matplotlib v3.5.2, https://matplotlib.org/</dc:title>
     </cc:Agent>
    </dc:creator>
   </cc:Work>
  </rdf:RDF>
 </metadata>
 <defs>
  <style type="text/css">*{stroke-linejoin: round; stroke-linecap: butt}</style>
 </defs>
 <g id="figure_1">
  <g id="patch_1">
   <path d="M 0 108 
L 360 108 
L 360 0 
L 0 0 
L 0 108 
z
" style="fill: none"/>
  </g>
  <g id="axes_1">
   <g id="line2d_1">
    <path d="M 57.681818 35.6904 
L 59.647992 40.8648 
L 61.614165 42.528 
L 63.580338 37.908 
L 65.546512 36.984 
L 67.512685 40.1256 
L 69.478858 40.68 
L 71.445032 40.3104 
L 73.411205 40.4952 
L 75.377378 38.4624 
L 77.343552 39.756 
L 79.309725 42.8976 
L 81.275899 41.2344 
L 83.242072 38.6472 
L 85.208245 40.1256 
L 87.174419 43.6368 
L 89.140592 44.0064 
L 91.106765 39.756 
L 93.072939 36.7992 
L 97.005285 41.604 
L 98.971459 42.7128 
L 100.937632 42.7128 
L 102.903805 40.1256 
L 104.869979 39.0168 
L 106.836152 41.2344 
L 108.802326 41.7888 
L 110.768499 42.7128 
L 112.734672 42.8976 
L 114.700846 36.4296 
L 116.667019 36.7992 
L 118.633192 44.376 
L 120.599366 43.452 
L 122.565539 38.832 
L 124.531712 39.2016 
L 126.497886 39.2016 
L 128.464059 39.0168 
L 130.430233 41.2344 
L 132.396406 42.528 
L 134.362579 42.8976 
L 136.328753 42.7128 
L 138.294926 40.3104 
L 140.261099 36.6144 
L 142.227273 35.3208 
L 144.193446 35.5056 
L 148.125793 38.4624 
L 150.091966 38.832 
L 152.05814 38.0928 
L 154.024313 37.908 
L 155.990486 40.4952 
L 157.95666 46.9632 
L 159.922833 52.1376 
L 161.889006 50.2896 
L 163.85518 48.996 
L 165.821353 50.2896 
L 167.787526 45.6696 
L 169.7537 38.832 
L 171.719873 40.4952 
L 173.686047 44.9304 
L 177.618393 38.832 
L 179.584567 41.7888 
L 181.55074 41.7888 
L 183.516913 39.756 
L 185.483087 40.4952 
L 187.44926 37.7232 
L 189.415433 32.7336 
L 191.381607 36.984 
L 193.34778 42.7128 
L 197.280127 36.6144 
L 199.2463 37.5384 
L 201.212474 36.984 
L 203.178647 35.3208 
L 205.14482 35.136 
L 207.110994 38.4624 
L 209.077167 43.2672 
L 211.04334 43.452 
L 213.009514 41.0496 
L 214.975687 42.8976 
L 216.94186 44.5608 
L 218.908034 42.528 
L 220.874207 41.7888 
L 222.840381 38.4624 
L 224.806554 37.5384 
L 226.772727 43.6368 
L 228.738901 43.452 
L 230.705074 38.2776 
L 232.671247 40.68 
L 234.637421 44.0064 
L 236.603594 41.604 
L 238.569767 40.4952 
L 240.535941 41.604 
L 242.502114 38.0928 
L 244.468288 36.4296 
L 246.434461 40.68 
L 248.400634 41.7888 
L 250.366808 41.4192 
L 252.332981 43.8216 
L 254.299154 42.528 
L 256.265328 38.832 
L 258.231501 40.3104 
L 260.197674 44.1912 
L 262.163848 44.9304 
L 264.130021 44.1912 
L 266.096195 42.528 
L 268.062368 42.528 
L 270.028541 43.2672 
L 271.994715 42.528 
L 273.960888 43.0824 
L 275.927061 42.8976 
L 277.893235 40.4952 
L 279.859408 40.4952 
L 281.825581 39.756 
L 283.791755 36.6144 
L 285.757928 37.3536 
L 287.724101 40.8648 
L 289.690275 39.9408 
L 291.656448 39.9408 
L 293.622622 43.2672 
L 295.588795 42.7128 
L 297.554968 39.5712 
L 299.521142 38.4624 
L 301.487315 37.5384 
L 303.453488 39.0168 
L 305.419662 41.7888 
L 307.385835 42.3432 
L 309.352008 39.3864 
L 311.318182 35.6904 
L 311.318182 35.6904 
" clip-path="url(#pd34d4c2033)" style="fill: none; stroke: #a9a9a9; stroke-width: 2.5; stroke-linecap: square"/>
   </g>
  </g>
 </g>
 <defs>
  <clipPath id="pd34d4c2033">
   <rect x="45" y="12.96" width="279" height="83.16"/>
  </clipPath>
 </defs>
</svg>
