<?xml version="1.0" encoding="utf-8" standalone="no"?>
<!DOCTYPE svg PUBLIC "-//W3C//DTD SVG 1.1//EN"
  "http://www.w3.org/Graphics/SVG/1.1/DTD/svg11.dtd">
<svg xmlns:xlink="http://www.w3.org/1999/xlink" width="360pt" height="108pt" viewBox="0 0 360 108" xmlns="http://www.w3.org/2000/svg" version="1.1">
 <metadata>
  <rdf:RDF xmlns:dc="http://purl.org/dc/elements/1.1/" xmlns:cc="http://creativecommons.org/ns#" xmlns:rdf="http://www.w3.org/1999/02/22-rdf-syntax-ns#">
   <cc:Work>
    <dc:type rdf:resource="http://purl.org/dc/dcmitype/StillImage"/>
    <dc:date>2022-11-16T22:41:15.208794</dc:date>
    <dc:format>image/svg+xml</dc:format>
    <dc:creator>
     <cc:Agent>
      <dc:title>Matplotlib v3.5.2, https://matplotlib.org/</dc:title>
     </cc:Agent>
    </dc:creator>
   </cc:Work>
  </rdf:RDF>
 </metadata>
 <defs>
  <style type="text/css">*{stroke-linejoin: round; stroke-linecap: butt}</style>
 </defs>
 <g id="figure_1">
  <g id="patch_1">
   <path d="M 0 108 
L 360 108 
L 360 0 
L 0 0 
L 0 108 
z
" style="fill: none"/>
  </g>
  <g id="axes_1">
   <g id="line2d_1">
    <path d="M 57.681818 40.4952 
L 59.647992 40.8648 
L 61.614165 39.756 
L 63.580338 43.2672 
L 65.546512 46.4088 
L 67.512685 44.0064 
L 69.478858 41.4192 
L 71.445032 39.756 
L 73.411205 38.4624 
L 75.377378 38.4624 
L 77.343552 39.2016 
L 79.309725 38.2776 
L 81.275899 34.5816 
L 83.242072 31.6248 
L 85.208245 32.9184 
L 87.174419 31.9944 
L 89.140592 29.9616 
L 91.106765 36.2448 
L 93.072939 41.2344 
L 95.039112 36.6144 
L 97.005285 31.2552 
L 98.971459 33.4728 
L 100.937632 37.7232 
L 102.903805 38.0928 
L 104.869979 34.5816 
L 106.836152 33.8424 
L 108.802326 33.8424 
L 110.768499 33.6576 
L 112.734672 32.9184 
L 114.700846 30.516 
L 116.667019 30.3312 
L 118.633192 32.7336 
L 120.599366 34.9512 
L 122.565539 34.9512 
L 124.531712 35.5056 
L 126.497886 35.6904 
L 128.464059 33.288 
L 130.430233 33.6576 
L 132.396406 33.8424 
L 134.362579 28.668 
L 136.328753 27.3744 
L 138.294926 29.592 
L 140.261099 28.8528 
L 142.227273 36.984 
L 144.193446 51.768 
L 146.159619 63.5952 
L 148.125793 79.3032 
L 150.091966 92.0544 
L 152.05814 83.5536 
L 154.024313 67.2912 
L 155.990486 59.5296 
L 159.922833 52.692 
L 161.889006 51.768 
L 163.85518 51.3984 
L 165.821353 48.8112 
L 167.787526 46.5936 
L 169.7537 47.148 
L 171.719873 45.4848 
L 173.686047 42.8976 
L 175.65222 44.7456 
L 177.618393 42.7128 
L 179.584567 37.1688 
L 181.55074 36.6144 
L 183.516913 39.756 
L 185.483087 41.9736 
L 187.44926 41.604 
L 189.415433 40.1256 
L 191.381607 42.3432 
L 193.34778 43.6368 
L 195.313953 40.68 
L 197.280127 35.6904 
L 199.2463 36.2448 
L 201.212474 38.6472 
L 205.14482 31.9944 
L 207.110994 31.9944 
L 209.077167 33.1032 
L 211.04334 35.5056 
L 213.009514 37.3536 
L 216.94186 33.6576 
L 218.908034 35.3208 
L 220.874207 37.1688 
L 222.840381 36.06 
L 224.806554 35.136 
L 228.738901 38.0928 
L 230.705074 36.6144 
L 232.671247 35.6904 
L 234.637421 37.5384 
L 236.603594 39.0168 
L 238.569767 38.0928 
L 240.535941 37.7232 
L 244.468288 43.8216 
L 246.434461 42.1584 
L 248.400634 39.2016 
L 252.332981 44.376 
L 254.299154 42.3432 
L 256.265328 41.9736 
L 258.231501 43.0824 
L 260.197674 40.68 
L 262.163848 37.908 
L 264.130021 38.4624 
L 266.096195 38.6472 
L 268.062368 38.6472 
L 270.028541 37.908 
L 271.994715 35.6904 
L 273.960888 35.5056 
L 275.927061 38.4624 
L 277.893235 41.0496 
L 279.859408 41.604 
L 283.791755 35.5056 
L 285.757928 37.3536 
L 287.724101 41.9736 
L 289.690275 41.604 
L 291.656448 36.984 
L 293.622622 36.6144 
L 295.588795 39.9408 
L 297.554968 37.908 
L 299.521142 34.0272 
L 301.487315 34.3968 
L 303.453488 37.7232 
L 305.419662 39.3864 
L 307.385835 36.7992 
L 309.352008 36.6144 
L 311.318182 41.0496 
L 311.318182 41.0496 
" clip-path="url(#p23cba03380)" style="fill: none; stroke: #a9a9a9; stroke-width: 2.5; stroke-linecap: square"/>
   </g>
   <g id="line2d_2">
    <path d="M 116.667019 30.3312 
L 118.633192 32.7336 
L 120.599366 34.9512 
L 122.565539 34.9512 
L 124.531712 35.5056 
L 126.497886 35.6904 
L 128.464059 33.288 
L 130.430233 33.6576 
L 132.396406 33.8424 
L 134.362579 28.668 
L 136.328753 27.3744 
L 138.294926 29.592 
L 140.261099 28.8528 
L 142.227273 36.984 
L 144.193446 51.768 
L 146.159619 63.5952 
L 148.125793 79.3032 
L 150.091966 92.0544 
L 152.05814 83.5536 
L 154.024313 67.2912 
L 155.990486 59.5296 
L 157.95666 56.2032 
L 159.922833 52.692 
L 161.889006 51.768 
L 163.85518 51.3984 
L 165.821353 48.8112 
L 167.787526 46.5936 
L 169.7537 47.148 
L 171.719873 45.4848 
L 173.686047 42.8976 
L 175.65222 44.7456 
L 177.618393 42.7128 
L 179.584567 37.1688 
L 181.55074 36.6144 
L 183.516913 39.756 
L 185.483087 41.9736 
L 187.44926 41.604 
L 189.415433 40.1256 
L 191.381607 42.3432 
L 193.34778 43.6368 
L 195.313953 40.68 
L 197.280127 35.6904 
L 199.2463 36.2448 
L 201.212474 38.6472 
L 203.178647 35.3208 
L 205.14482 31.9944 
L 207.110994 31.9944 
L 209.077167 33.1032 
L 211.04334 35.5056 
L 213.009514 37.3536 
" clip-path="url(#p23cba03380)" style="fill: none; stroke: #a00000; stroke-width: 5; stroke-linecap: square"/>
   </g>
  </g>
 </g>
 <defs>
  <clipPath id="p23cba03380">
   <rect x="45" y="12.96" width="279" height="83.16"/>
  </clipPath>
 </defs>
</svg>
