<?xml version="1.0" encoding="utf-8" standalone="no"?>
<!DOCTYPE svg PUBLIC "-//W3C//DTD SVG 1.1//EN"
  "http://www.w3.org/Graphics/SVG/1.1/DTD/svg11.dtd">
<svg xmlns:xlink="http://www.w3.org/1999/xlink" width="360pt" height="108pt" viewBox="0 0 360 108" xmlns="http://www.w3.org/2000/svg" version="1.1">
 <metadata>
  <rdf:RDF xmlns:dc="http://purl.org/dc/elements/1.1/" xmlns:cc="http://creativecommons.org/ns#" xmlns:rdf="http://www.w3.org/1999/02/22-rdf-syntax-ns#">
   <cc:Work>
    <dc:type rdf:resource="http://purl.org/dc/dcmitype/StillImage"/>
    <dc:date>2022-11-16T22:41:15.248790</dc:date>
    <dc:format>image/svg+xml</dc:format>
    <dc:creator>
     <cc:Agent>
      <dc:title>Matplotlib v3.5.2, https://matplotlib.org/</dc:title>
     </cc:Agent>
    </dc:creator>
   </cc:Work>
  </rdf:RDF>
 </metadata>
 <defs>
  <style type="text/css">*{stroke-linejoin: round; stroke-linecap: butt}</style>
 </defs>
 <g id="figure_1">
  <g id="patch_1">
   <path d="M 0 108 
L 360 108 
L 360 0 
L 0 0 
L 0 108 
z
" style="fill: none"/>
  </g>
  <g id="axes_1">
   <g id="line2d_1">
    <path d="M 57.681818 38.2776 
L 59.647992 42.528 
L 61.614165 43.452 
L 63.580338 39.5712 
L 65.546512 42.7128 
L 67.512685 47.5176 
L 69.478858 44.7456 
L 71.445032 41.4192 
L 73.411205 40.8648 
L 75.377378 36.984 
L 77.343552 36.6144 
L 79.309725 42.1584 
L 81.275899 43.452 
L 83.242072 39.9408 
L 85.208245 39.0168 
L 87.174419 39.0168 
L 91.106765 39.3864 
L 93.072939 40.1256 
L 95.039112 38.4624 
L 97.005285 35.5056 
L 98.971459 38.4624 
L 100.937632 43.8216 
L 102.903805 43.0824 
L 104.869979 38.6472 
L 106.836152 37.908 
L 108.802326 41.2344 
L 110.768499 45.4848 
L 112.734672 45.6696 
L 114.700846 41.4192 
L 116.667019 39.9408 
L 118.633192 41.4192 
L 120.599366 41.2344 
L 122.565539 38.832 
L 124.531712 38.0928 
L 126.497886 40.1256 
L 128.464059 41.2344 
L 130.430233 37.908 
L 132.396406 37.1688 
L 134.362579 40.4952 
L 136.328753 39.9408 
L 138.294926 37.908 
L 140.261099 38.0928 
L 142.227273 39.5712 
L 144.193446 41.9736 
L 146.159619 42.1584 
L 148.125793 37.1688 
L 150.091966 34.0272 
L 152.05814 36.984 
L 154.024313 41.7888 
L 155.990486 44.7456 
L 157.95666 44.1912 
L 159.922833 42.7128 
L 161.889006 45.6696 
L 163.85518 46.5936 
L 165.821353 42.528 
L 167.787526 41.604 
L 169.7537 44.9304 
L 171.719873 42.528 
L 173.686047 39.2016 
L 175.65222 41.7888 
L 177.618393 40.68 
L 179.584567 36.2448 
L 181.55074 36.06 
L 183.516913 40.1256 
L 185.483087 42.528 
L 187.44926 40.68 
L 189.415433 42.528 
L 191.381607 48.072 
L 193.34778 46.9632 
L 195.313953 41.0496 
L 197.280127 38.0928 
L 199.2463 41.604 
L 201.212474 45.6696 
L 203.178647 42.1584 
L 205.14482 36.7992 
L 207.110994 36.6144 
L 209.077167 38.4624 
L 211.04334 38.2776 
L 213.009514 40.8648 
L 214.975687 42.8976 
L 216.94186 38.4624 
L 218.908034 37.5384 
L 220.874207 41.2344 
L 222.840381 38.2776 
L 224.806554 34.212 
L 226.772727 36.06 
L 230.705074 40.4952 
L 232.671247 40.68 
L 234.637421 39.2016 
L 236.603594 44.376 
L 238.569767 45.8544 
L 240.535941 40.8648 
L 242.502114 41.604 
L 244.468288 42.7128 
L 246.434461 40.3104 
L 248.400634 43.452 
L 250.366808 46.0392 
L 252.332981 43.0824 
L 254.299154 44.376 
L 256.265328 45.8544 
L 258.231501 41.7888 
L 260.197674 40.8648 
L 262.163848 42.8976 
L 264.130021 41.2344 
L 266.096195 41.2344 
L 268.062368 45.4848 
L 270.028541 44.1912 
L 271.994715 39.2016 
L 275.927061 37.3536 
L 277.893235 36.2448 
L 279.859408 39.2016 
L 281.825581 41.2344 
L 283.791755 40.68 
L 285.757928 41.604 
L 287.724101 42.3432 
L 289.690275 41.2344 
L 293.622622 34.7664 
L 295.588795 34.9512 
L 297.554968 36.7992 
L 299.521142 35.8752 
L 301.487315 33.4728 
L 303.453488 34.9512 
L 305.419662 38.4624 
L 307.385835 38.832 
L 309.352008 38.0928 
L 311.318182 40.68 
L 311.318182 40.68 
" clip-path="url(#pddc4c269ec)" style="fill: none; stroke: #a9a9a9; stroke-width: 2.5; stroke-linecap: square"/>
   </g>
  </g>
 </g>
 <defs>
  <clipPath id="pddc4c269ec">
   <rect x="45" y="12.96" width="279" height="83.16"/>
  </clipPath>
 </defs>
</svg>
