<?xml version="1.0" encoding="utf-8" standalone="no"?>
<!DOCTYPE svg PUBLIC "-//W3C//DTD SVG 1.1//EN"
  "http://www.w3.org/Graphics/SVG/1.1/DTD/svg11.dtd">
<svg xmlns:xlink="http://www.w3.org/1999/xlink" width="360pt" height="108pt" viewBox="0 0 360 108" xmlns="http://www.w3.org/2000/svg" version="1.1">
 <metadata>
  <rdf:RDF xmlns:dc="http://purl.org/dc/elements/1.1/" xmlns:cc="http://creativecommons.org/ns#" xmlns:rdf="http://www.w3.org/1999/02/22-rdf-syntax-ns#">
   <cc:Work>
    <dc:type rdf:resource="http://purl.org/dc/dcmitype/StillImage"/>
    <dc:date>2022-11-16T22:41:15.178720</dc:date>
    <dc:format>image/svg+xml</dc:format>
    <dc:creator>
     <cc:Agent>
      <dc:title>Matplotlib v3.5.2, https://matplotlib.org/</dc:title>
     </cc:Agent>
    </dc:creator>
   </cc:Work>
  </rdf:RDF>
 </metadata>
 <defs>
  <style type="text/css">*{stroke-linejoin: round; stroke-linecap: butt}</style>
 </defs>
 <g id="figure_1">
  <g id="patch_1">
   <path d="M 0 108 
L 360 108 
L 360 0 
L 0 0 
L 0 108 
z
" style="fill: none"/>
  </g>
  <g id="axes_1">
   <g id="line2d_1">
    <path d="M 57.681818 42.3432 
L 59.647992 42.7128 
L 61.614165 43.8216 
L 63.580338 44.0064 
L 65.546512 41.9736 
L 67.512685 38.4624 
L 69.478858 36.4296 
L 73.411205 41.604 
L 75.377378 37.3536 
L 77.343552 32.7336 
L 79.309725 34.0272 
L 81.275899 32.9184 
L 83.242072 31.6248 
L 85.208245 37.5384 
L 87.174419 36.984 
L 89.140592 30.516 
L 91.106765 31.8096 
L 93.072939 34.3968 
L 95.039112 32.364 
L 97.005285 33.4728 
L 98.971459 38.4624 
L 100.937632 41.2344 
L 102.903805 40.3104 
L 104.869979 37.3536 
L 106.836152 37.5384 
L 108.802326 39.3864 
L 110.768499 38.2776 
L 112.734672 35.136 
L 114.700846 32.5488 
L 116.667019 30.516 
L 118.633192 31.2552 
L 120.599366 34.3968 
L 122.565539 34.212 
L 124.531712 31.44 
L 126.497886 30.8856 
L 128.464059 31.44 
L 130.430233 31.6248 
L 132.396406 32.9184 
L 134.362579 33.6576 
L 136.328753 32.1792 
L 138.294926 34.5816 
L 140.261099 41.2344 
L 142.227273 51.3984 
L 144.193446 66.7368 
L 146.159619 79.6728 
L 148.125793 83.5536 
L 150.091966 79.3032 
L 154.024313 58.7904 
L 155.990486 55.6488 
L 157.95666 54.9096 
L 161.889006 41.4192 
L 163.85518 41.7888 
L 165.821353 43.6368 
L 167.787526 39.756 
L 169.7537 39.2016 
L 171.719873 44.9304 
L 173.686047 45.6696 
L 175.65222 40.4952 
L 177.618393 40.1256 
L 179.584567 42.8976 
L 181.55074 40.8648 
L 183.516913 39.3864 
L 185.483087 42.8976 
L 187.44926 43.6368 
L 189.415433 44.5608 
L 191.381607 47.5176 
L 193.34778 41.9736 
L 195.313953 33.6576 
L 197.280127 32.9184 
L 199.2463 34.0272 
L 201.212474 32.1792 
L 203.178647 32.1792 
L 205.14482 36.06 
L 207.110994 36.4296 
L 209.077167 31.0704 
L 211.04334 31.0704 
L 213.009514 38.4624 
L 214.975687 40.4952 
L 216.94186 38.4624 
L 218.908034 39.756 
L 220.874207 39.0168 
L 222.840381 33.6576 
L 224.806554 31.6248 
L 226.772727 36.06 
L 228.738901 39.2016 
L 230.705074 38.0928 
L 232.671247 36.6144 
L 234.637421 37.3536 
L 236.603594 41.9736 
L 238.569767 45.6696 
L 240.535941 45.8544 
L 242.502114 44.9304 
L 244.468288 44.1912 
L 246.434461 43.0824 
L 248.400634 40.3104 
L 250.366808 39.756 
L 252.332981 41.4192 
L 254.299154 40.4952 
L 256.265328 40.3104 
L 258.231501 39.5712 
L 260.197674 37.908 
L 262.163848 38.0928 
L 264.130021 38.832 
L 266.096195 39.2016 
L 268.062368 40.1256 
L 270.028541 39.0168 
L 271.994715 37.7232 
L 273.960888 36.7992 
L 275.927061 37.7232 
L 277.893235 39.3864 
L 279.859408 39.3864 
L 281.825581 36.984 
L 283.791755 35.5056 
L 287.724101 45.6696 
L 291.656448 37.7232 
L 293.622622 37.908 
L 295.588795 35.6904 
L 297.554968 32.1792 
L 299.521142 30.7008 
L 301.487315 32.7336 
L 303.453488 36.06 
L 305.419662 36.984 
L 307.385835 35.6904 
L 311.318182 37.908 
L 311.318182 37.908 
" clip-path="url(#pb699e023c4)" style="fill: none; stroke: #a9a9a9; stroke-width: 2.5; stroke-linecap: square"/>
   </g>
   <g id="line2d_2">
    <path d="M 116.667019 30.516 
L 118.633192 31.2552 
L 120.599366 34.3968 
L 122.565539 34.212 
L 124.531712 31.44 
L 126.497886 30.8856 
L 128.464059 31.44 
L 130.430233 31.6248 
L 132.396406 32.9184 
L 134.362579 33.6576 
L 136.328753 32.1792 
L 138.294926 34.5816 
L 140.261099 41.2344 
L 142.227273 51.3984 
L 144.193446 66.7368 
L 146.159619 79.6728 
L 148.125793 83.5536 
L 150.091966 79.3032 
L 152.05814 68.9544 
L 154.024313 58.7904 
L 155.990486 55.6488 
L 157.95666 54.9096 
L 159.922833 48.2568 
L 161.889006 41.4192 
L 163.85518 41.7888 
L 165.821353 43.6368 
L 167.787526 39.756 
L 169.7537 39.2016 
L 171.719873 44.9304 
L 173.686047 45.6696 
L 175.65222 40.4952 
L 177.618393 40.1256 
L 179.584567 42.8976 
L 181.55074 40.8648 
L 183.516913 39.3864 
L 185.483087 42.8976 
L 187.44926 43.6368 
L 189.415433 44.5608 
L 191.381607 47.5176 
L 193.34778 41.9736 
L 195.313953 33.6576 
L 197.280127 32.9184 
L 199.2463 34.0272 
L 201.212474 32.1792 
L 203.178647 32.1792 
L 205.14482 36.06 
L 207.110994 36.4296 
L 209.077167 31.0704 
L 211.04334 31.0704 
L 213.009514 38.4624 
" clip-path="url(#pb699e023c4)" style="fill: none; stroke: #a00000; stroke-width: 5; stroke-linecap: square"/>
   </g>
  </g>
 </g>
 <defs>
  <clipPath id="pb699e023c4">
   <rect x="45" y="12.96" width="279" height="83.16"/>
  </clipPath>
 </defs>
</svg>
