<?xml version="1.0" encoding="utf-8" standalone="no"?>
<!DOCTYPE svg PUBLIC "-//W3C//DTD SVG 1.1//EN"
  "http://www.w3.org/Graphics/SVG/1.1/DTD/svg11.dtd">
<svg xmlns:xlink="http://www.w3.org/1999/xlink" width="360pt" height="108pt" viewBox="0 0 360 108" xmlns="http://www.w3.org/2000/svg" version="1.1">
 <metadata>
  <rdf:RDF xmlns:dc="http://purl.org/dc/elements/1.1/" xmlns:cc="http://creativecommons.org/ns#" xmlns:rdf="http://www.w3.org/1999/02/22-rdf-syntax-ns#">
   <cc:Work>
    <dc:type rdf:resource="http://purl.org/dc/dcmitype/StillImage"/>
    <dc:date>2022-11-16T22:41:15.268791</dc:date>
    <dc:format>image/svg+xml</dc:format>
    <dc:creator>
     <cc:Agent>
      <dc:title>Matplotlib v3.5.2, https://matplotlib.org/</dc:title>
     </cc:Agent>
    </dc:creator>
   </cc:Work>
  </rdf:RDF>
 </metadata>
 <defs>
  <style type="text/css">*{stroke-linejoin: round; stroke-linecap: butt}</style>
 </defs>
 <g id="figure_1">
  <g id="patch_1">
   <path d="M 0 108 
L 360 108 
L 360 0 
L 0 0 
L 0 108 
z
" style="fill: none"/>
  </g>
  <g id="axes_1">
   <g id="line2d_1">
    <path d="M 57.681818 39.2016 
L 59.647992 36.984 
L 61.614165 35.3208 
L 63.580338 39.2016 
L 65.546512 41.9736 
L 67.512685 39.2016 
L 69.478858 41.604 
L 71.445032 43.8216 
L 73.411205 41.4192 
L 75.377378 43.2672 
L 77.343552 45.4848 
L 79.309725 43.6368 
L 81.275899 41.9736 
L 83.242072 39.0168 
L 85.208245 36.7992 
L 87.174419 37.5384 
L 89.140592 37.1688 
L 91.106765 37.908 
L 93.072939 40.68 
L 95.039112 40.8648 
L 97.005285 39.3864 
L 98.971459 38.6472 
L 100.937632 40.1256 
L 102.903805 42.7128 
L 104.869979 39.5712 
L 106.836152 36.984 
L 108.802326 40.1256 
L 110.768499 42.7128 
L 112.734672 41.9736 
L 116.667019 37.908 
L 118.633192 37.1688 
L 120.599366 39.2016 
L 122.565539 38.832 
L 124.531712 37.5384 
L 126.497886 37.1688 
L 128.464059 37.1688 
L 130.430233 39.2016 
L 132.396406 39.5712 
L 134.362579 36.4296 
L 136.328753 34.5816 
L 138.294926 35.136 
L 140.261099 32.7336 
L 142.227273 28.2984 
L 144.193446 29.4072 
L 146.159619 31.6248 
L 148.125793 29.0376 
L 150.091966 34.9512 
L 152.05814 49.3656 
L 154.024313 57.1272 
L 155.990486 57.8664 
L 157.95666 58.9752 
L 159.922833 56.7576 
L 161.889006 52.692 
L 165.821353 52.3224 
L 167.787526 46.7784 
L 169.7537 45.1152 
L 171.719873 46.7784 
L 173.686047 41.604 
L 175.65222 38.2776 
L 177.618393 40.3104 
L 179.584567 40.4952 
L 181.55074 40.3104 
L 183.516913 41.7888 
L 187.44926 39.9408 
L 189.415433 41.4192 
L 191.381607 39.756 
L 193.34778 36.6144 
L 195.313953 38.832 
L 197.280127 39.9408 
L 199.2463 40.68 
L 201.212474 44.1912 
L 203.178647 42.528 
L 205.14482 41.604 
L 207.110994 43.452 
L 209.077167 37.7232 
L 211.04334 34.3968 
L 213.009514 39.5712 
L 214.975687 40.1256 
L 216.94186 37.908 
L 218.908034 41.0496 
L 220.874207 41.9736 
L 222.840381 38.4624 
L 224.806554 35.8752 
L 226.772727 35.136 
L 228.738901 36.4296 
L 230.705074 37.908 
L 232.671247 38.0928 
L 234.637421 40.68 
L 236.603594 42.3432 
L 238.569767 39.2016 
L 240.535941 39.756 
L 242.502114 44.1912 
L 244.468288 42.3432 
L 246.434461 38.6472 
L 248.400634 41.9736 
L 250.366808 43.0824 
L 252.332981 39.0168 
L 254.299154 40.8648 
L 256.265328 43.452 
L 258.231501 38.832 
L 260.197674 40.68 
L 262.163848 46.5936 
L 264.130021 44.9304 
L 266.096195 40.3104 
L 268.062368 37.1688 
L 270.028541 38.4624 
L 271.994715 43.452 
L 273.960888 40.3104 
L 275.927061 35.8752 
L 279.859408 43.2672 
L 281.825581 42.8976 
L 283.791755 40.4952 
L 285.757928 37.1688 
L 287.724101 36.7992 
L 289.690275 41.4192 
L 291.656448 43.0824 
L 293.622622 39.2016 
L 295.588795 38.0928 
L 297.554968 39.5712 
L 299.521142 39.756 
L 301.487315 41.0496 
L 303.453488 39.9408 
L 305.419662 37.1688 
L 307.385835 39.2016 
L 309.352008 40.68 
L 311.318182 40.3104 
L 311.318182 40.3104 
" clip-path="url(#pa864b4ce7f)" style="fill: none; stroke: #a9a9a9; stroke-width: 2.5; stroke-linecap: square"/>
   </g>
   <g id="line2d_2">
    <path d="M 116.667019 37.908 
L 118.633192 37.1688 
L 120.599366 39.2016 
L 122.565539 38.832 
L 124.531712 37.5384 
L 126.497886 37.1688 
L 128.464059 37.1688 
L 130.430233 39.2016 
L 132.396406 39.5712 
L 134.362579 36.4296 
L 136.328753 34.5816 
L 138.294926 35.136 
L 140.261099 32.7336 
L 142.227273 28.2984 
L 144.193446 29.4072 
L 146.159619 31.6248 
L 148.125793 29.0376 
L 150.091966 34.9512 
L 152.05814 49.3656 
L 154.024313 57.1272 
L 155.990486 57.8664 
L 157.95666 58.9752 
L 159.922833 56.7576 
L 161.889006 52.692 
L 163.85518 52.5072 
L 165.821353 52.3224 
L 167.787526 46.7784 
L 169.7537 45.1152 
L 171.719873 46.7784 
L 173.686047 41.604 
L 175.65222 38.2776 
L 177.618393 40.3104 
L 179.584567 40.4952 
L 181.55074 40.3104 
L 183.516913 41.7888 
L 185.483087 40.8648 
L 187.44926 39.9408 
L 189.415433 41.4192 
L 191.381607 39.756 
L 193.34778 36.6144 
L 195.313953 38.832 
L 197.280127 39.9408 
L 199.2463 40.68 
L 201.212474 44.1912 
L 203.178647 42.528 
L 205.14482 41.604 
L 207.110994 43.452 
L 209.077167 37.7232 
L 211.04334 34.3968 
L 213.009514 39.5712 
" clip-path="url(#pa864b4ce7f)" style="fill: none; stroke: #a00000; stroke-width: 5; stroke-linecap: square"/>
   </g>
  </g>
 </g>
 <defs>
  <clipPath id="pa864b4ce7f">
   <rect x="45" y="12.96" width="279" height="83.16"/>
  </clipPath>
 </defs>
</svg>
