<?xml version="1.0" encoding="utf-8" standalone="no"?>
<!DOCTYPE svg PUBLIC "-//W3C//DTD SVG 1.1//EN"
  "http://www.w3.org/Graphics/SVG/1.1/DTD/svg11.dtd">
<svg xmlns:xlink="http://www.w3.org/1999/xlink" width="1440pt" height="144pt" viewBox="0 0 1440 144" xmlns="http://www.w3.org/2000/svg" version="1.1">
 <metadata>
  <rdf:RDF xmlns:dc="http://purl.org/dc/elements/1.1/" xmlns:cc="http://creativecommons.org/ns#" xmlns:rdf="http://www.w3.org/1999/02/22-rdf-syntax-ns#">
   <cc:Work>
    <dc:type rdf:resource="http://purl.org/dc/dcmitype/StillImage"/>
    <dc:date>2023-03-01T03:47:49.699149</dc:date>
    <dc:format>image/svg+xml</dc:format>
    <dc:creator>
     <cc:Agent>
      <dc:title>Matplotlib v3.5.2, https://matplotlib.org/</dc:title>
     </cc:Agent>
    </dc:creator>
   </cc:Work>
  </rdf:RDF>
 </metadata>
 <defs>
  <style type="text/css">*{stroke-linejoin: round; stroke-linecap: butt}</style>
 </defs>
 <g id="figure_1">
  <g id="patch_1">
   <path d="M 0 144 
L 1440 144 
L 1440 0 
L 0 0 
L 0 144 
z
" style="fill: none"/>
  </g>
  <g id="axes_1">
   <g id="LineCollection_1">
    <path d="M 182.29152 128.16 
L 182.29152 54.24 
" clip-path="url(#pd17125aed6)" style="fill: none; stroke: #ffa500; stroke-width: 2"/>
    <path d="M 202.26792 128.16 
L 202.26792 54.24 
" clip-path="url(#pd17125aed6)" style="fill: none; stroke: #ffa500; stroke-width: 2"/>
    <path d="M 235.54704 128.16 
L 235.54704 54.24 
" clip-path="url(#pd17125aed6)" style="fill: none; stroke: #ffa500; stroke-width: 2"/>
    <path d="M 276.03552 128.16 
L 276.03552 54.24 
" clip-path="url(#pd17125aed6)" style="fill: none; stroke: #ffa500; stroke-width: 2"/>
    <path d="M 324.38808 128.16 
L 324.38808 54.24 
" clip-path="url(#pd17125aed6)" style="fill: none; stroke: #ffa500; stroke-width: 2"/>
    <path d="M 363.57456 128.16 
L 363.57456 54.24 
" clip-path="url(#pd17125aed6)" style="fill: none; stroke: #ffa500; stroke-width: 2"/>
    <path d="M 383.45424 128.16 
L 383.45424 54.24 
" clip-path="url(#pd17125aed6)" style="fill: none; stroke: #ffa500; stroke-width: 2"/>
    <path d="M 464.9148 128.16 
L 464.9148 54.24 
" clip-path="url(#pd17125aed6)" style="fill: none; stroke: #ffa500; stroke-width: 2"/>
    <path d="M 484.13976 128.16 
L 484.13976 54.24 
" clip-path="url(#pd17125aed6)" style="fill: none; stroke: #ffa500; stroke-width: 2"/>
    <path d="M 504.74856 128.16 
L 504.74856 54.24 
" clip-path="url(#pd17125aed6)" style="fill: none; stroke: #ffa500; stroke-width: 2"/>
    <path d="M 548.82312 128.16 
L 548.82312 54.24 
" clip-path="url(#pd17125aed6)" style="fill: none; stroke: #ffa500; stroke-width: 2"/>
    <path d="M 567.49752 128.16 
L 567.49752 54.24 
" clip-path="url(#pd17125aed6)" style="fill: none; stroke: #ffa500; stroke-width: 2"/>
    <path d="M 585.47256 128.16 
L 585.47256 54.24 
" clip-path="url(#pd17125aed6)" style="fill: none; stroke: #ffa500; stroke-width: 2"/>
    <path d="M 605.1216 128.16 
L 605.1216 54.24 
" clip-path="url(#pd17125aed6)" style="fill: none; stroke: #ffa500; stroke-width: 2"/>
    <path d="M 619.58496 128.16 
L 619.58496 54.24 
" clip-path="url(#pd17125aed6)" style="fill: none; stroke: #ffa500; stroke-width: 2"/>
    <path d="M 645.88536 128.16 
L 645.88536 54.24 
" clip-path="url(#pd17125aed6)" style="fill: none; stroke: #ffa500; stroke-width: 2"/>
    <path d="M 648.9804 128.16 
L 648.9804 54.24 
" clip-path="url(#pd17125aed6)" style="fill: none; stroke: #ffa500; stroke-width: 2"/>
    <path d="M 741.98784 128.16 
L 741.98784 54.24 
" clip-path="url(#pd17125aed6)" style="fill: none; stroke: #ffa500; stroke-width: 2"/>
    <path d="M 785.84664 128.16 
L 785.84664 54.24 
" clip-path="url(#pd17125aed6)" style="fill: none; stroke: #ffa500; stroke-width: 2"/>
    <path d="M 848.32032 128.16 
L 848.32032 54.24 
" clip-path="url(#pd17125aed6)" style="fill: none; stroke: #ffa500; stroke-width: 2"/>
    <path d="M 882.08304 128.16 
L 882.08304 54.24 
" clip-path="url(#pd17125aed6)" style="fill: none; stroke: #ffa500; stroke-width: 2"/>
    <path d="M 910.30296 128.16 
L 910.30296 54.24 
" clip-path="url(#pd17125aed6)" style="fill: none; stroke: #ffa500; stroke-width: 2"/>
    <path d="M 925.45824 128.16 
L 925.45824 54.24 
" clip-path="url(#pd17125aed6)" style="fill: none; stroke: #ffa500; stroke-width: 2"/>
    <path d="M 964.25784 128.16 
L 964.25784 54.24 
" clip-path="url(#pd17125aed6)" style="fill: none; stroke: #ffa500; stroke-width: 2"/>
    <path d="M 977.382 128.16 
L 977.382 54.24 
" clip-path="url(#pd17125aed6)" style="fill: none; stroke: #ffa500; stroke-width: 2"/>
    <path d="M 987.6864 128.16 
L 987.6864 54.24 
" clip-path="url(#pd17125aed6)" style="fill: none; stroke: #ffa500; stroke-width: 2"/>
    <path d="M 1016.5908 128.16 
L 1016.5908 54.24 
" clip-path="url(#pd17125aed6)" style="fill: none; stroke: #ffa500; stroke-width: 2"/>
    <path d="M 1031.72376 128.16 
L 1031.72376 54.24 
" clip-path="url(#pd17125aed6)" style="fill: none; stroke: #ffa500; stroke-width: 2"/>
    <path d="M 1052.92776 128.16 
L 1052.92776 54.24 
" clip-path="url(#pd17125aed6)" style="fill: none; stroke: #ffa500; stroke-width: 2"/>
    <path d="M 1076.0364 128.16 
L 1076.0364 54.24 
" clip-path="url(#pd17125aed6)" style="fill: none; stroke: #ffa500; stroke-width: 2"/>
    <path d="M 1116.33144 128.16 
L 1116.33144 54.24 
" clip-path="url(#pd17125aed6)" style="fill: none; stroke: #ffa500; stroke-width: 2"/>
    <path d="M 1187.16768 128.16 
L 1187.16768 54.24 
" clip-path="url(#pd17125aed6)" style="fill: none; stroke: #ffa500; stroke-width: 2"/>
    <path d="M 1231.33152 128.16 
L 1231.33152 54.24 
" clip-path="url(#pd17125aed6)" style="fill: none; stroke: #ffa500; stroke-width: 2"/>
    <path d="M 1264.6776 128.16 
L 1264.6776 54.24 
" clip-path="url(#pd17125aed6)" style="fill: none; stroke: #ffa500; stroke-width: 2"/>
    <path d="M 1286.05272 128.16 
L 1286.05272 54.24 
" clip-path="url(#pd17125aed6)" style="fill: none; stroke: #ffa500; stroke-width: 2"/>
   </g>
   <g id="line2d_1"/>
   <g id="line2d_2">
    <path d="M 180 128.16 
L 1296 128.16 
" clip-path="url(#pd17125aed6)" style="fill: none; stroke: #000000; stroke-width: 1.5; stroke-linecap: square"/>
   </g>
  </g>
 </g>
 <defs>
  <clipPath id="pd17125aed6">
   <rect x="180" y="17.28" width="1116" height="110.88"/>
  </clipPath>
 </defs>
</svg>
