<?xml version="1.0" encoding="utf-8" standalone="no"?>
<!DOCTYPE svg PUBLIC "-//W3C//DTD SVG 1.1//EN"
  "http://www.w3.org/Graphics/SVG/1.1/DTD/svg11.dtd">
<svg xmlns:xlink="http://www.w3.org/1999/xlink" width="360pt" height="108pt" viewBox="0 0 360 108" xmlns="http://www.w3.org/2000/svg" version="1.1">
 <metadata>
  <rdf:RDF xmlns:dc="http://purl.org/dc/elements/1.1/" xmlns:cc="http://creativecommons.org/ns#" xmlns:rdf="http://www.w3.org/1999/02/22-rdf-syntax-ns#">
   <cc:Work>
    <dc:type rdf:resource="http://purl.org/dc/dcmitype/StillImage"/>
    <dc:date>2022-11-19T11:31:16.454534</dc:date>
    <dc:format>image/svg+xml</dc:format>
    <dc:creator>
     <cc:Agent>
      <dc:title>Matplotlib v3.5.2, https://matplotlib.org/</dc:title>
     </cc:Agent>
    </dc:creator>
   </cc:Work>
  </rdf:RDF>
 </metadata>
 <defs>
  <style type="text/css">*{stroke-linejoin: round; stroke-linecap: butt}</style>
 </defs>
 <g id="figure_1">
  <g id="patch_1">
   <path d="M 0 108 
L 360 108 
L 360 0 
L 0 0 
L 0 108 
z
" style="fill: none"/>
  </g>
  <g id="axes_1">
   <g id="line2d_1">
    <path d="M 57.681818 44.517392 
L 62.858071 44.501908 
L 68.034323 44.572011 
L 73.210575 44.474317 
L 78.386827 44.38169 
L 83.56308 44.416883 
L 88.739332 44.109723 
L 93.915584 43.75076 
L 99.091837 43.994855 
L 104.268089 44.184049 
L 109.444341 43.92081 
L 114.620594 44.059046 
L 119.796846 43.658696 
L 124.973098 41.747886 
L 130.149351 40.127907 
L 135.325603 39.202767 
L 140.501855 43.970079 
L 145.678108 61.782253 
L 150.85436 80.228173 
L 156.030612 82.321702 
L 161.206865 75.47719 
L 166.383117 70.727333 
L 171.559369 66.959206 
L 176.735622 63.215009 
L 181.911874 60.647366 
L 187.088126 58.53244 
L 192.264378 56.507606 
L 197.440631 54.99067 
L 202.616883 53.954604 
L 207.793135 52.962458 
L 212.969388 51.88951 
L 218.14564 51.017019 
L 223.321892 50.447464 
L 228.498145 49.877346 
L 233.674397 49.260211 
L 238.850649 48.65124 
L 244.026902 47.75707 
L 249.203154 46.971574 
L 254.379406 46.597689 
L 259.555659 46.063327 
L 264.731911 45.510946 
L 269.908163 45.142411 
L 275.084416 44.550614 
L 280.260668 43.96839 
L 285.43692 43.836629 
L 290.613173 43.689666 
L 295.789425 43.386166 
L 300.965677 43.258628 
L 306.141929 43.187962 
L 311.318182 43.126868 
" clip-path="url(#pf51e617457)" style="fill: none; stroke: #7e2f8e; stroke-width: 5; stroke-linecap: square"/>
   </g>
  </g>
 </g>
 <defs>
  <clipPath id="pf51e617457">
   <rect x="45" y="12.96" width="279" height="83.16"/>
  </clipPath>
 </defs>
</svg>
