<?xml version="1.0" encoding="utf-8" standalone="no"?>
<!DOCTYPE svg PUBLIC "-//W3C//DTD SVG 1.1//EN"
  "http://www.w3.org/Graphics/SVG/1.1/DTD/svg11.dtd">
<svg xmlns:xlink="http://www.w3.org/1999/xlink" width="360pt" height="108pt" viewBox="0 0 360 108" xmlns="http://www.w3.org/2000/svg" version="1.1">
 <metadata>
  <rdf:RDF xmlns:dc="http://purl.org/dc/elements/1.1/" xmlns:cc="http://creativecommons.org/ns#" xmlns:rdf="http://www.w3.org/1999/02/22-rdf-syntax-ns#">
   <cc:Work>
    <dc:type rdf:resource="http://purl.org/dc/dcmitype/StillImage"/>
    <dc:date>2022-11-19T11:31:16.474557</dc:date>
    <dc:format>image/svg+xml</dc:format>
    <dc:creator>
     <cc:Agent>
      <dc:title>Matplotlib v3.5.2, https://matplotlib.org/</dc:title>
     </cc:Agent>
    </dc:creator>
   </cc:Work>
  </rdf:RDF>
 </metadata>
 <defs>
  <style type="text/css">*{stroke-linejoin: round; stroke-linecap: butt}</style>
 </defs>
 <g id="figure_1">
  <g id="patch_1">
   <path d="M 0 108 
L 360 108 
L 360 0 
L 0 0 
L 0 108 
z
" style="fill: none"/>
  </g>
  <g id="axes_1">
   <g id="line2d_1">
    <path d="M 57.681818 45.807971 
L 62.858071 45.638202 
L 68.034323 45.672268 
L 73.210575 45.844289 
L 78.386827 45.726042 
L 83.56308 45.612864 
L 88.739332 45.593437 
L 93.915584 45.473501 
L 99.091837 45.616524 
L 104.268089 45.89384 
L 109.444341 45.821484 
L 114.620594 45.673676 
L 119.796846 45.382282 
L 124.973098 45.031484 
L 130.149351 46.239289 
L 135.325603 49.409427 
L 140.501855 54.062152 
L 145.678108 59.531624 
L 150.85436 63.067482 
L 156.030612 63.185447 
L 161.206865 61.913732 
L 166.383117 60.598097 
L 171.559369 58.894782 
L 176.735622 57.039716 
L 181.911874 55.695927 
L 187.088126 54.645221 
L 192.264378 53.414611 
L 197.440631 52.370943 
L 202.616883 51.875152 
L 207.793135 51.334595 
L 212.969388 50.657211 
L 218.14564 50.283044 
L 223.321892 49.932809 
L 228.498145 49.308072 
L 233.674397 48.978108 
L 238.850649 48.819883 
L 244.026902 48.297908 
L 249.203154 47.800427 
L 254.379406 47.570128 
L 259.555659 47.263812 
L 264.731911 46.920616 
L 269.908163 46.549546 
L 275.084416 46.112878 
L 280.260668 45.755323 
L 285.43692 45.631727 
L 290.613173 45.511228 
L 295.789425 45.507849 
L 300.965677 45.487578 
L 306.141929 45.266851 
L 311.318182 45.245454 
" clip-path="url(#pe08fa75049)" style="fill: none; stroke: #7e2f8e; stroke-width: 5; stroke-linecap: square"/>
   </g>
  </g>
 </g>
 <defs>
  <clipPath id="pe08fa75049">
   <rect x="45" y="12.96" width="279" height="83.16"/>
  </clipPath>
 </defs>
</svg>
