<?xml version="1.0" encoding="utf-8" standalone="no"?>
<!DOCTYPE svg PUBLIC "-//W3C//DTD SVG 1.1//EN"
  "http://www.w3.org/Graphics/SVG/1.1/DTD/svg11.dtd">
<svg xmlns:xlink="http://www.w3.org/1999/xlink" width="360pt" height="108pt" viewBox="0 0 360 108" xmlns="http://www.w3.org/2000/svg" version="1.1">
 <metadata>
  <rdf:RDF xmlns:dc="http://purl.org/dc/elements/1.1/" xmlns:cc="http://creativecommons.org/ns#" xmlns:rdf="http://www.w3.org/1999/02/22-rdf-syntax-ns#">
   <cc:Work>
    <dc:type rdf:resource="http://purl.org/dc/dcmitype/StillImage"/>
    <dc:date>2022-11-19T11:30:11.169234</dc:date>
    <dc:format>image/svg+xml</dc:format>
    <dc:creator>
     <cc:Agent>
      <dc:title>Matplotlib v3.5.2, https://matplotlib.org/</dc:title>
     </cc:Agent>
    </dc:creator>
   </cc:Work>
  </rdf:RDF>
 </metadata>
 <defs>
  <style type="text/css">*{stroke-linejoin: round; stroke-linecap: butt}</style>
 </defs>
 <g id="figure_1">
  <g id="patch_1">
   <path d="M 0 108 
L 360 108 
L 360 0 
L 0 0 
L 0 108 
z
" style="fill: none"/>
  </g>
  <g id="axes_1">
   <g id="line2d_1">
    <path d="M 57.681818 45.072593 
L 62.858071 44.810599 
L 68.034323 44.357794 
L 73.210575 44.068595 
L 78.386827 44.127479 
L 83.56308 44.239282 
L 88.739332 44.023501 
L 93.915584 43.672065 
L 99.091837 43.497651 
L 104.268089 43.519639 
L 109.444341 43.433923 
L 114.620594 43.223359 
L 119.796846 42.673285 
L 124.973098 41.039833 
L 130.149351 38.570461 
L 135.325603 36.214012 
L 140.501855 34.519813 
L 145.678108 36.604579 
L 150.85436 45.559312 
L 156.030612 57.085902 
L 161.206865 65.107073 
L 166.383117 69.009396 
L 171.559369 69.99215 
L 176.735622 68.867778 
L 181.911874 66.983512 
L 187.088126 65.183473 
L 192.264378 63.387532 
L 197.440631 61.342642 
L 202.616883 59.197129 
L 207.793135 57.526036 
L 212.969388 56.056935 
L 218.14564 54.499509 
L 223.321892 53.227929 
L 228.498145 52.287287 
L 233.674397 51.333974 
L 238.850649 50.503272 
L 244.026902 49.766113 
L 249.203154 49.139639 
L 254.379406 48.777768 
L 259.555659 48.458755 
L 264.731911 48.072659 
L 269.908163 47.804703 
L 275.084416 47.372768 
L 280.260668 46.969529 
L 285.43692 46.81524 
L 290.613173 46.50368 
L 295.789425 46.032614 
L 300.965677 45.716955 
L 306.141929 45.65509 
L 311.318182 45.73857 
" clip-path="url(#pea72dd8f46)" style="fill: none; stroke: #edb120; stroke-width: 5; stroke-linecap: square"/>
   </g>
  </g>
 </g>
 <defs>
  <clipPath id="pea72dd8f46">
   <rect x="45" y="12.96" width="279" height="83.16"/>
  </clipPath>
 </defs>
</svg>
