<?xml version="1.0" encoding="utf-8" standalone="no"?>
<!DOCTYPE svg PUBLIC "-//W3C//DTD SVG 1.1//EN"
  "http://www.w3.org/Graphics/SVG/1.1/DTD/svg11.dtd">
<svg xmlns:xlink="http://www.w3.org/1999/xlink" width="360pt" height="108pt" viewBox="0 0 360 108" xmlns="http://www.w3.org/2000/svg" version="1.1">
 <metadata>
  <rdf:RDF xmlns:dc="http://purl.org/dc/elements/1.1/" xmlns:cc="http://creativecommons.org/ns#" xmlns:rdf="http://www.w3.org/1999/02/22-rdf-syntax-ns#">
   <cc:Work>
    <dc:type rdf:resource="http://purl.org/dc/dcmitype/StillImage"/>
    <dc:date>2022-11-19T11:30:11.182274</dc:date>
    <dc:format>image/svg+xml</dc:format>
    <dc:creator>
     <cc:Agent>
      <dc:title>Matplotlib v3.5.2, https://matplotlib.org/</dc:title>
     </cc:Agent>
    </dc:creator>
   </cc:Work>
  </rdf:RDF>
 </metadata>
 <defs>
  <style type="text/css">*{stroke-linejoin: round; stroke-linecap: butt}</style>
 </defs>
 <g id="figure_1">
  <g id="patch_1">
   <path d="M 0 108 
L 360 108 
L 360 0 
L 0 0 
L 0 108 
z
" style="fill: none"/>
  </g>
  <g id="axes_1">
   <g id="line2d_1">
    <path d="M 57.681818 46.40343 
L 62.858071 46.391504 
L 68.034323 46.26442 
L 73.210575 46.111995 
L 78.386827 46.183922 
L 83.56308 46.083298 
L 88.739332 45.595089 
L 93.915584 45.470614 
L 99.091837 45.555957 
L 104.268089 45.368873 
L 109.444341 45.331977 
L 114.620594 45.331605 
L 119.796846 44.927621 
L 124.973098 44.251581 
L 130.149351 43.216651 
L 135.325603 42.385204 
L 140.501855 43.726476 
L 145.678108 48.437885 
L 150.85436 54.185714 
L 156.030612 57.655728 
L 161.206865 58.791654 
L 166.383117 58.915011 
L 171.559369 58.2986 
L 176.735622 57.645293 
L 181.911874 57.237582 
L 187.088126 56.483653 
L 192.264378 55.349218 
L 197.440631 54.253169 
L 202.616883 53.453027 
L 207.793135 52.787049 
L 212.969388 51.951503 
L 218.14564 51.206145 
L 223.321892 50.615076 
L 228.498145 50.085126 
L 233.674397 49.678533 
L 238.850649 49.296537 
L 244.026902 48.974542 
L 249.203154 48.722611 
L 254.379406 48.370057 
L 259.555659 48.117008 
L 264.731911 48.080858 
L 269.908163 48.048435 
L 275.084416 47.88781 
L 280.260668 47.818119 
L 285.43692 47.644078 
L 290.613173 47.283698 
L 295.789425 47.166304 
L 300.965677 47.071271 
L 306.141929 46.88195 
L 311.318182 46.928162 
" clip-path="url(#p8bbbcf72bf)" style="fill: none; stroke: #edb120; stroke-width: 5; stroke-linecap: square"/>
   </g>
  </g>
 </g>
 <defs>
  <clipPath id="p8bbbcf72bf">
   <rect x="45" y="12.96" width="279" height="83.16"/>
  </clipPath>
 </defs>
</svg>
