<?xml version="1.0" encoding="utf-8" standalone="no"?>
<!DOCTYPE svg PUBLIC "-//W3C//DTD SVG 1.1//EN"
  "http://www.w3.org/Graphics/SVG/1.1/DTD/svg11.dtd">
<svg xmlns:xlink="http://www.w3.org/1999/xlink" width="360pt" height="108pt" viewBox="0 0 360 108" xmlns="http://www.w3.org/2000/svg" version="1.1">
 <metadata>
  <rdf:RDF xmlns:dc="http://purl.org/dc/elements/1.1/" xmlns:cc="http://creativecommons.org/ns#" xmlns:rdf="http://www.w3.org/1999/02/22-rdf-syntax-ns#">
   <cc:Work>
    <dc:type rdf:resource="http://purl.org/dc/dcmitype/StillImage"/>
    <dc:date>2022-11-19T11:30:11.242355</dc:date>
    <dc:format>image/svg+xml</dc:format>
    <dc:creator>
     <cc:Agent>
      <dc:title>Matplotlib v3.5.2, https://matplotlib.org/</dc:title>
     </cc:Agent>
    </dc:creator>
   </cc:Work>
  </rdf:RDF>
 </metadata>
 <defs>
  <style type="text/css">*{stroke-linejoin: round; stroke-linecap: butt}</style>
 </defs>
 <g id="figure_1">
  <g id="patch_1">
   <path d="M 0 108 
L 360 108 
L 360 0 
L 0 0 
L 0 108 
z
" style="fill: none"/>
  </g>
  <g id="axes_1">
   <g id="line2d_1">
    <path d="M 57.681818 44.821034 
L 62.858071 45.100916 
L 68.034323 45.096444 
L 73.210575 44.906378 
L 78.386827 44.683143 
L 83.56308 44.186735 
L 88.739332 43.780887 
L 93.915584 44.033936 
L 99.091837 44.229965 
L 104.268089 43.934431 
L 109.444341 44.012694 
L 114.620594 44.480406 
L 119.796846 44.502021 
L 124.973098 44.726001 
L 130.149351 46.014725 
L 135.325603 48.172537 
L 140.501855 51.919452 
L 145.678108 57.252117 
L 150.85436 61.353077 
L 156.030612 62.838576 
L 161.206865 63.075973 
L 166.383117 62.390243 
L 171.559369 60.909589 
L 176.735622 59.476638 
L 181.911874 58.295618 
L 187.088126 57.213731 
L 192.264378 56.23284 
L 197.440631 55.115921 
L 202.616883 53.796264 
L 207.793135 52.829907 
L 212.969388 52.172501 
L 218.14564 51.414845 
L 223.321892 50.655325 
L 228.498145 49.974813 
L 233.674397 49.379645 
L 238.850649 48.971188 
L 244.026902 48.791184 
L 249.203154 48.570931 
L 254.379406 48.030546 
L 259.555659 47.509914 
L 264.731911 47.226305 
L 269.908163 46.861452 
L 275.084416 46.486537 
L 280.260668 46.425045 
L 285.43692 46.359826 
L 290.613173 46.1433 
L 295.789425 45.939817 
L 300.965677 45.627139 
L 306.141929 45.538442 
L 311.318182 45.772484 
" clip-path="url(#p47a186479a)" style="fill: none; stroke: #edb120; stroke-width: 5; stroke-linecap: square"/>
   </g>
  </g>
 </g>
 <defs>
  <clipPath id="p47a186479a">
   <rect x="45" y="12.96" width="279" height="83.16"/>
  </clipPath>
 </defs>
</svg>
