<?xml version="1.0" encoding="utf-8" standalone="no"?>
<!DOCTYPE svg PUBLIC "-//W3C//DTD SVG 1.1//EN"
  "http://www.w3.org/Graphics/SVG/1.1/DTD/svg11.dtd">
<svg xmlns:xlink="http://www.w3.org/1999/xlink" width="360pt" height="108pt" viewBox="0 0 360 108" xmlns="http://www.w3.org/2000/svg" version="1.1">
 <metadata>
  <rdf:RDF xmlns:dc="http://purl.org/dc/elements/1.1/" xmlns:cc="http://creativecommons.org/ns#" xmlns:rdf="http://www.w3.org/1999/02/22-rdf-syntax-ns#">
   <cc:Work>
    <dc:type rdf:resource="http://purl.org/dc/dcmitype/StillImage"/>
    <dc:date>2022-11-19T11:30:11.212335</dc:date>
    <dc:format>image/svg+xml</dc:format>
    <dc:creator>
     <cc:Agent>
      <dc:title>Matplotlib v3.5.2, https://matplotlib.org/</dc:title>
     </cc:Agent>
    </dc:creator>
   </cc:Work>
  </rdf:RDF>
 </metadata>
 <defs>
  <style type="text/css">*{stroke-linejoin: round; stroke-linecap: butt}</style>
 </defs>
 <g id="figure_1">
  <g id="patch_1">
   <path d="M 0 108 
L 360 108 
L 360 0 
L 0 0 
L 0 108 
z
" style="fill: none"/>
  </g>
  <g id="axes_1">
   <g id="line2d_1">
    <path d="M 57.681818 45.3685 
L 62.858071 45.498565 
L 68.034323 45.643164 
L 73.210575 45.203776 
L 78.386827 45.12365 
L 83.56308 45.318188 
L 88.739332 45.001411 
L 93.915584 44.814699 
L 99.091837 44.944764 
L 104.268089 44.74389 
L 109.444341 44.642148 
L 114.620594 44.851967 
L 119.796846 44.696187 
L 124.973098 44.348105 
L 130.149351 44.454318 
L 135.325603 45.433719 
L 140.501855 48.577267 
L 145.678108 54.170061 
L 150.85436 59.200856 
L 156.030612 61.265125 
L 161.206865 61.443638 
L 166.383117 60.843252 
L 171.559369 59.694655 
L 176.735622 58.705193 
L 181.911874 57.916231 
L 187.088126 56.722913 
L 192.264378 55.345118 
L 197.440631 54.34522 
L 202.616883 53.494021 
L 207.793135 52.731893 
L 212.969388 52.074487 
L 218.14564 51.385403 
L 223.321892 50.640418 
L 228.498145 49.933818 
L 233.674397 49.446727 
L 238.850649 49.023736 
L 244.026902 48.672672 
L 249.203154 48.564595 
L 254.379406 48.41366 
L 259.555659 47.980235 
L 264.731911 47.582214 
L 269.908163 47.410781 
L 275.084416 47.057481 
L 280.260668 46.777227 
L 285.43692 46.80965 
L 290.613173 46.672131 
L 295.789425 46.508898 
L 300.965677 46.44107 
L 306.141929 46.176841 
L 311.318182 46.08777 
" clip-path="url(#p6b9d20a3cf)" style="fill: none; stroke: #edb120; stroke-width: 5; stroke-linecap: square"/>
   </g>
  </g>
 </g>
 <defs>
  <clipPath id="p6b9d20a3cf">
   <rect x="45" y="12.96" width="279" height="83.16"/>
  </clipPath>
 </defs>
</svg>
