<?xml version="1.0" encoding="utf-8" standalone="no"?>
<!DOCTYPE svg PUBLIC "-//W3C//DTD SVG 1.1//EN"
  "http://www.w3.org/Graphics/SVG/1.1/DTD/svg11.dtd">
<svg xmlns:xlink="http://www.w3.org/1999/xlink" width="1440pt" height="144pt" viewBox="0 0 1440 144" xmlns="http://www.w3.org/2000/svg" version="1.1">
 <metadata>
  <rdf:RDF xmlns:dc="http://purl.org/dc/elements/1.1/" xmlns:cc="http://creativecommons.org/ns#" xmlns:rdf="http://www.w3.org/1999/02/22-rdf-syntax-ns#">
   <cc:Work>
    <dc:type rdf:resource="http://purl.org/dc/dcmitype/StillImage"/>
    <dc:date>2022-11-16T18:19:13.339038</dc:date>
    <dc:format>image/svg+xml</dc:format>
    <dc:creator>
     <cc:Agent>
      <dc:title>Matplotlib v3.5.2, https://matplotlib.org/</dc:title>
     </cc:Agent>
    </dc:creator>
   </cc:Work>
  </rdf:RDF>
 </metadata>
 <defs>
  <style type="text/css">*{stroke-linejoin: round; stroke-linecap: butt}</style>
 </defs>
 <g id="figure_1">
  <g id="patch_1">
   <path d="M 0 144 
L 1440 144 
L 1440 0 
L 0 0 
L 0 144 
z
" style="fill: none"/>
  </g>
  <g id="axes_1">
   <g id="line2d_1">
    <path d="M 230.727273 55.9296 
L 232.081806 55.296 
L 233.436339 52.7616 
L 234.790873 52.4448 
L 236.145406 50.8608 
L 237.499939 52.7616 
L 238.854473 61.3152 
L 240.209006 67.6512 
L 241.563539 70.8192 
L 242.918073 69.8688 
L 244.272606 66.384 
L 245.627139 66.0672 
L 246.981673 66.384 
L 248.336206 68.6016 
L 249.690739 69.2352 
L 251.045272 71.7696 
L 252.399806 81.9072 
L 253.754339 86.0256 
L 255.108872 81.5904 
L 256.463406 81.9072 
L 257.817939 83.808 
L 259.172472 79.3728 
L 260.527006 78.1056 
L 261.881539 81.2736 
L 263.236072 78.1056 
L 264.590606 69.552 
L 265.945139 67.6512 
L 267.299672 71.136 
L 268.654206 73.6704 
L 270.008739 72.4032 
L 271.363272 65.7504 
L 272.717806 63.216 
L 274.072339 68.2848 
L 275.426872 65.1168 
L 276.781406 55.296 
L 278.135939 56.88 
L 279.490472 61.3152 
L 282.199539 53.712 
L 283.554072 55.9296 
L 284.908605 55.9296 
L 286.263139 51.8112 
L 287.617672 52.7616 
L 288.972205 55.9296 
L 290.326739 48.0096 
L 291.681272 38.1888 
L 293.035805 38.5056 
L 294.390339 42.3072 
L 295.744872 48.6432 
L 297.099405 54.3456 
L 298.453939 53.712 
L 299.808472 52.7616 
L 301.163005 56.5632 
L 303.872072 67.968 
L 305.226605 70.8192 
L 306.581138 71.136 
L 307.935672 74.9376 
L 309.290205 77.7888 
L 310.644738 75.888 
L 311.999272 73.6704 
L 313.353805 73.6704 
L 314.708338 76.5216 
L 316.062872 77.472 
L 317.417405 72.72 
L 318.771938 69.2352 
L 320.126472 69.552 
L 321.481005 67.968 
L 322.835538 64.4832 
L 324.190072 61.3152 
L 325.544605 62.2656 
L 326.899138 67.6512 
L 328.253672 73.9872 
L 329.608205 76.5216 
L 330.962738 75.888 
L 332.317272 69.8688 
L 333.671805 62.5824 
L 336.380871 68.9184 
L 337.735405 63.216 
L 339.089938 64.4832 
L 340.444471 74.304 
L 341.799005 72.4032 
L 343.153538 63.216 
L 344.508071 63.216 
L 345.862605 61.3152 
L 347.217138 58.7808 
L 348.571671 64.4832 
L 349.926205 67.3344 
L 351.280738 64.8 
L 352.635271 60.3648 
L 353.989805 58.464 
L 355.344338 63.8496 
L 356.698871 68.6016 
L 358.053405 69.552 
L 359.407938 66.0672 
L 360.762471 57.8304 
L 362.117004 52.7616 
L 363.471538 51.8112 
L 364.826071 61.632 
L 366.180604 75.5712 
L 367.535138 79.056 
L 370.244204 79.056 
L 371.598738 77.7888 
L 372.953271 78.4224 
L 375.662338 60.048 
L 377.016871 61.632 
L 378.371404 58.7808 
L 379.725938 57.8304 
L 381.080471 62.8992 
L 382.435004 58.1472 
L 383.789538 55.6128 
L 385.144071 63.216 
L 386.498604 62.2656 
L 387.853138 56.2464 
L 389.207671 60.6816 
L 390.562204 63.5328 
L 391.916737 58.7808 
L 393.271271 55.296 
L 394.625804 55.296 
L 395.980337 52.4448 
L 397.334871 51.8112 
L 398.689404 60.9984 
L 400.043937 61.9488 
L 401.398471 50.2272 
L 402.753004 48.6432 
L 404.107537 60.048 
L 405.462071 67.0176 
L 406.816604 62.8992 
L 408.171137 55.9296 
L 409.525671 58.464 
L 410.880204 66.384 
L 412.234737 70.5024 
L 413.589271 66.0672 
L 414.943804 60.3648 
L 416.298337 65.4336 
L 417.65287 73.6704 
L 419.007404 73.0368 
L 420.361937 70.5024 
L 421.71647 71.4528 
L 423.071004 69.8688 
L 424.425537 64.4832 
L 425.78007 63.8496 
L 428.489137 72.4032 
L 429.84367 70.8192 
L 431.198204 64.8 
L 432.552737 62.5824 
L 433.90727 67.3344 
L 435.261804 69.2352 
L 436.616337 70.8192 
L 437.97087 72.0864 
L 439.325404 67.0176 
L 440.679937 66.7008 
L 442.03447 72.4032 
L 443.389004 73.9872 
L 444.743537 72.0864 
L 446.09807 70.8192 
L 447.452603 71.4528 
L 448.807137 73.0368 
L 451.516203 64.4832 
L 452.870737 63.8496 
L 454.22527 66.0672 
L 455.579803 70.5024 
L 456.934337 66.7008 
L 458.28887 67.0176 
L 459.643403 72.0864 
L 460.997937 67.3344 
L 462.35247 60.6816 
L 463.707003 62.8992 
L 465.061537 72.0864 
L 466.41607 80.3232 
L 467.770603 77.472 
L 469.125137 67.6512 
L 470.47967 66.0672 
L 471.834203 66.0672 
L 473.188736 65.1168 
L 474.54327 64.8 
L 475.897803 60.3648 
L 477.252336 56.88 
L 478.60687 59.0976 
L 479.961403 60.048 
L 481.315936 54.6624 
L 482.67047 50.544 
L 484.025003 49.9104 
L 485.379536 54.6624 
L 486.73407 64.8 
L 488.088603 58.1472 
L 489.443136 43.8912 
L 492.152203 55.296 
L 493.506736 51.8112 
L 496.215803 63.216 
L 497.570336 56.2464 
L 498.92487 56.2464 
L 500.279403 65.1168 
L 501.633936 61.3152 
L 502.988469 60.6816 
L 504.343003 73.0368 
L 505.697536 69.2352 
L 507.052069 60.6816 
L 508.406603 67.968 
L 509.761136 69.8688 
L 511.115669 65.7504 
L 512.470203 67.6512 
L 513.824736 65.4336 
L 515.179269 60.9984 
L 516.533803 58.464 
L 517.888336 59.4144 
L 519.242869 64.1664 
L 520.597403 66.0672 
L 521.951936 66.384 
L 523.306469 72.4032 
L 524.661003 76.5216 
L 526.015536 73.3536 
L 527.370069 74.9376 
L 528.724603 78.4224 
L 531.433669 73.9872 
L 532.788202 70.8192 
L 534.142736 71.4528 
L 535.497269 75.2544 
L 536.851802 75.2544 
L 539.560869 73.3536 
L 540.915402 70.8192 
L 542.269936 71.7696 
L 543.624469 68.9184 
L 544.979002 56.2464 
L 546.333536 46.7424 
L 547.688069 58.464 
L 549.042602 72.0864 
L 550.397136 66.7008 
L 551.751669 58.464 
L 553.106202 59.4144 
L 554.460736 57.1968 
L 555.815269 59.0976 
L 557.169802 67.0176 
L 558.524335 69.8688 
L 559.878869 71.4528 
L 561.233402 78.4224 
L 562.587935 82.8576 
L 563.942469 77.472 
L 565.297002 67.6512 
L 566.651535 63.8496 
L 568.006069 61.632 
L 569.360602 53.712 
L 570.715135 48.0096 
L 572.069669 52.4448 
L 573.424202 57.5136 
L 574.778735 48.0096 
L 576.133269 39.456 
L 577.487802 49.2768 
L 578.842335 52.128 
L 580.196869 46.7424 
L 581.551402 53.3952 
L 582.905935 56.88 
L 584.260469 52.7616 
L 585.615002 57.8304 
L 586.969535 66.7008 
L 588.324068 61.632 
L 589.678602 44.8416 
L 591.033135 39.1392 
L 592.387668 60.6816 
L 593.742202 79.3728 
L 595.096735 81.9072 
L 596.451268 79.6896 
L 597.805802 76.2048 
L 599.160335 79.3728 
L 600.514868 88.2432 
L 601.869402 90.7776 
L 603.223935 82.8576 
L 604.578468 76.2048 
L 605.933002 78.4224 
L 607.287535 78.1056 
L 608.642068 71.136 
L 609.996602 70.8192 
L 611.351135 71.136 
L 612.705668 67.3344 
L 614.060201 64.1664 
L 615.414735 58.464 
L 616.769268 55.296 
L 618.123801 62.2656 
L 619.478335 62.8992 
L 620.832868 58.7808 
L 622.187401 63.5328 
L 623.541935 61.632 
L 624.896468 58.464 
L 626.251001 62.5824 
L 627.605535 64.8 
L 628.960068 66.7008 
L 630.314601 69.552 
L 631.669135 68.2848 
L 634.378201 60.9984 
L 635.732735 63.5328 
L 637.087268 69.552 
L 638.441801 69.8688 
L 639.796335 68.6016 
L 641.150868 68.2848 
L 642.505401 62.8992 
L 643.859934 55.6128 
L 645.214468 54.6624 
L 647.923534 64.4832 
L 650.632601 66.384 
L 651.987134 70.1856 
L 653.341668 71.7696 
L 654.696201 68.6016 
L 656.050734 61.3152 
L 657.405268 55.9296 
L 658.759801 56.5632 
L 660.114334 59.0976 
L 661.468868 60.048 
L 662.823401 59.7312 
L 664.177934 57.8304 
L 665.532468 54.6624 
L 666.887001 62.5824 
L 668.241534 72.72 
L 669.596067 71.136 
L 670.950601 71.4528 
L 672.305134 70.8192 
L 673.659667 60.3648 
L 675.014201 58.7808 
L 676.368734 67.0176 
L 677.723267 64.4832 
L 679.077801 62.2656 
L 680.432334 67.3344 
L 681.786867 66.7008 
L 683.141401 66.384 
L 684.495934 70.5024 
L 685.850467 70.1856 
L 687.205001 67.3344 
L 688.559534 65.4336 
L 689.914067 65.4336 
L 692.623134 64.8 
L 693.977667 66.384 
L 695.332201 64.4832 
L 696.686734 61.3152 
L 698.041267 64.1664 
L 699.3958 67.968 
L 702.104867 67.3344 
L 703.4594 67.6512 
L 704.813934 66.384 
L 706.168467 63.8496 
L 707.523 61.9488 
L 708.877534 60.9984 
L 710.232067 62.5824 
L 711.5866 62.5824 
L 712.941134 58.464 
L 714.295667 60.048 
L 715.6502 63.5328 
L 717.004734 61.3152 
L 718.359267 60.9984 
L 719.7138 60.3648 
L 721.068334 59.4144 
L 722.422867 64.1664 
L 723.7774 68.2848 
L 725.131933 64.8 
L 726.486467 59.7312 
L 727.841 59.7312 
L 729.195533 57.5136 
L 730.550067 50.8608 
L 733.259133 57.8304 
L 734.613667 50.8608 
L 735.9682 47.0592 
L 737.322733 48.3264 
L 738.677267 52.128 
L 740.0318 60.9984 
L 741.386333 67.3344 
L 742.740867 69.2352 
L 744.0954 66.384 
L 745.449933 65.1168 
L 746.804467 79.6896 
L 748.159 98.3808 
L 749.513533 99.3312 
L 750.868067 95.8464 
L 752.2226 98.3808 
L 753.577133 96.48 
L 754.931666 92.6784 
L 756.2862 89.5104 
L 758.995266 63.8496 
L 760.3498 66.7008 
L 761.704333 72.4032 
L 763.058866 72.72 
L 764.4134 68.2848 
L 765.767933 60.3648 
L 767.122466 54.3456 
L 768.477 53.3952 
L 769.831533 52.7616 
L 771.186066 51.8112 
L 772.5406 58.7808 
L 773.895133 67.3344 
L 776.6042 57.5136 
L 777.958733 64.8 
L 779.313266 62.8992 
L 780.667799 52.7616 
L 782.022333 56.2464 
L 783.376866 59.0976 
L 784.731399 54.0288 
L 786.085933 55.6128 
L 787.440466 57.5136 
L 788.794999 54.0288 
L 790.149533 56.2464 
L 791.504066 60.6816 
L 792.858599 63.8496 
L 794.213133 64.8 
L 795.567666 63.216 
L 796.922199 64.8 
L 798.276733 67.3344 
L 799.631266 60.6816 
L 800.985799 56.2464 
L 802.340333 64.8 
L 803.694866 67.6512 
L 805.049399 55.6128 
L 806.403933 55.296 
L 807.758466 60.3648 
L 809.112999 52.4448 
L 810.467532 59.0976 
L 811.822066 72.72 
L 813.176599 64.4832 
L 814.531132 58.464 
L 815.885666 64.8 
L 817.240199 64.1664 
L 818.594732 58.464 
L 819.949266 55.9296 
L 822.658332 67.6512 
L 824.012866 63.216 
L 825.367399 59.7312 
L 826.721932 62.5824 
L 828.076466 62.5824 
L 829.430999 61.3152 
L 830.785532 62.8992 
L 832.140066 63.5328 
L 833.494599 59.7312 
L 834.849132 54.9792 
L 836.203665 60.9984 
L 837.558199 69.2352 
L 838.912732 67.6512 
L 840.267265 76.2048 
L 841.621799 93.9456 
L 842.976332 91.728 
L 844.330865 84.4416 
L 845.685399 88.8768 
L 847.039932 86.3424 
L 848.394465 76.5216 
L 849.748999 74.304 
L 851.103532 77.472 
L 852.458065 73.3536 
L 853.812599 64.8 
L 855.167132 66.384 
L 857.876199 84.1248 
L 859.230732 82.5408 
L 860.585265 68.6016 
L 861.939799 66.384 
L 863.294332 79.3728 
L 864.648865 76.5216 
L 866.003398 61.3152 
L 867.357932 60.048 
L 868.712465 65.4336 
L 870.066998 64.1664 
L 871.421532 58.464 
L 872.776065 53.712 
L 874.130598 54.3456 
L 875.485132 55.6128 
L 876.839665 54.0288 
L 878.194198 48.3264 
L 882.257798 35.9712 
L 883.612332 41.3568 
L 884.966865 51.8112 
L 886.321398 53.0784 
L 887.675932 51.4944 
L 889.030465 53.712 
L 890.384998 55.6128 
L 891.739531 56.2464 
L 893.094065 57.1968 
L 894.448598 57.5136 
L 895.803131 62.8992 
L 897.157665 66.384 
L 898.512198 65.1168 
L 901.221265 85.7088 
L 903.930331 69.2352 
L 906.639398 72.4032 
L 907.993931 70.1856 
L 909.348465 64.4832 
L 910.702998 62.8992 
L 912.057531 66.7008 
L 913.412065 62.8992 
L 914.766598 52.4448 
L 916.121131 50.544 
L 917.475665 55.9296 
L 920.184731 61.632 
L 921.539264 65.4336 
L 922.893798 66.0672 
L 924.248331 65.1168 
L 925.602864 65.1168 
L 926.957398 66.0672 
L 928.311931 66.0672 
L 929.666464 63.216 
L 931.020998 70.5024 
L 932.375531 90.4608 
L 933.730064 93.6288 
L 935.084598 82.8576 
L 936.439131 80.64 
L 937.793664 80.3232 
L 939.148198 74.6208 
L 940.502731 70.8192 
L 941.857264 73.9872 
L 943.211798 73.3536 
L 944.566331 69.8688 
L 945.920864 71.7696 
L 947.275397 71.136 
L 948.629931 72.72 
L 949.984464 71.4528 
L 951.338997 62.8992 
L 952.693531 64.4832 
L 954.048064 67.0176 
L 955.402597 60.048 
L 956.757131 60.9984 
L 958.111664 67.968 
L 959.466197 62.8992 
L 960.820731 57.1968 
L 962.175264 53.3952 
L 963.529797 48.3264 
L 964.884331 56.2464 
L 966.238864 69.552 
L 967.593397 72.4032 
L 968.947931 66.7008 
L 970.302464 56.5632 
L 971.656997 44.8416 
L 973.011531 44.8416 
L 974.366064 53.712 
L 975.720597 57.5136 
L 977.07513 54.6624 
L 978.429664 54.3456 
L 979.784197 59.4144 
L 981.13873 62.8992 
L 982.493264 63.8496 
L 983.847797 67.0176 
L 985.20233 73.0368 
L 986.556864 71.7696 
L 987.911397 65.7504 
L 989.26593 65.7504 
L 990.620464 62.2656 
L 991.974997 52.7616 
L 993.32953 55.6128 
L 994.684064 66.384 
L 996.038597 73.3536 
L 997.39313 71.4528 
L 998.747664 64.8 
L 1000.102197 61.632 
L 1001.45673 67.3344 
L 1002.811264 69.8688 
L 1004.165797 65.1168 
L 1005.52033 68.6016 
L 1006.874863 69.8688 
L 1008.229397 57.5136 
L 1009.58393 54.6624 
L 1010.938463 64.1664 
L 1012.292997 67.6512 
L 1013.64753 67.968 
L 1015.002063 71.136 
L 1016.356597 70.8192 
L 1017.71113 73.6704 
L 1019.065663 78.1056 
L 1020.420197 68.2848 
L 1021.77473 63.5328 
L 1023.129263 67.3344 
L 1025.83833 52.128 
L 1027.192863 54.6624 
L 1028.547397 51.8112 
L 1029.90193 51.8112 
L 1031.256463 63.216 
L 1032.610996 66.384 
L 1033.96553 57.8304 
L 1035.320063 57.1968 
L 1036.674596 62.2656 
L 1038.02913 58.1472 
L 1039.383663 51.1776 
L 1040.738196 47.0592 
L 1042.09273 54.0288 
L 1043.447263 63.5328 
L 1044.801796 60.048 
L 1046.15633 57.8304 
L 1047.510863 67.0176 
L 1048.865396 68.6016 
L 1050.21993 63.5328 
L 1051.574463 66.384 
L 1052.928996 73.6704 
L 1054.28353 79.3728 
L 1055.638063 74.304 
L 1056.992596 73.9872 
L 1058.34713 84.4416 
L 1059.701663 88.8768 
L 1061.056196 84.7584 
L 1062.410729 82.8576 
L 1063.765263 84.7584 
L 1065.119796 88.2432 
L 1066.474329 84.1248 
L 1067.828863 74.9376 
L 1069.183396 72.4032 
L 1070.537929 73.6704 
L 1073.246996 71.136 
L 1074.601529 69.552 
L 1075.956063 67.0176 
L 1077.310596 67.0176 
L 1078.665129 69.2352 
L 1080.019663 67.968 
L 1081.374196 64.8 
L 1082.728729 63.216 
L 1084.083263 62.5824 
L 1085.437796 60.6816 
L 1086.792329 58.1472 
L 1088.146862 59.0976 
L 1089.501396 62.5824 
L 1090.855929 65.4336 
L 1092.210462 62.2656 
L 1093.564996 55.9296 
L 1094.919529 51.8112 
L 1096.274062 52.128 
L 1097.628596 54.6624 
L 1098.983129 58.1472 
L 1100.337662 57.5136 
L 1101.692196 51.1776 
L 1103.046729 47.0592 
L 1104.401262 51.4944 
L 1105.755796 59.7312 
L 1107.110329 62.5824 
L 1108.464862 60.3648 
L 1109.819396 53.3952 
L 1111.173929 47.376 
L 1112.528462 49.9104 
L 1113.882996 58.464 
L 1115.237529 61.3152 
L 1116.592062 60.048 
L 1117.946595 64.1664 
L 1119.301129 67.6512 
L 1120.655662 63.216 
L 1122.010195 57.8304 
L 1123.364729 55.9296 
L 1124.719262 53.3952 
L 1126.073795 53.3952 
L 1127.428329 58.464 
L 1128.782862 60.048 
L 1130.137395 52.7616 
L 1131.491929 52.7616 
L 1132.846462 62.8992 
L 1134.200995 64.1664 
L 1135.555529 58.1472 
L 1136.910062 60.6816 
L 1140.973662 80.0064 
L 1142.328195 82.8576 
L 1143.682728 85.0752 
L 1145.037262 85.7088 
L 1146.391795 83.808 
L 1147.746328 81.2736 
L 1149.100862 80.0064 
L 1150.455395 80.0064 
L 1151.809928 76.2048 
L 1153.164462 70.1856 
L 1154.518995 68.9184 
L 1155.873528 68.6016 
L 1157.228062 65.1168 
L 1158.582595 66.0672 
L 1159.937128 66.0672 
L 1161.291662 65.7504 
L 1162.646195 69.552 
L 1164.000728 72.0864 
L 1165.355262 71.4528 
L 1166.709795 64.4832 
L 1168.064328 56.88 
L 1169.418862 60.048 
L 1170.773395 65.1168 
L 1172.127928 67.6512 
L 1173.482461 65.7504 
L 1174.836995 61.632 
L 1176.191528 62.8992 
L 1177.546061 71.136 
L 1178.900595 72.72 
L 1180.255128 66.0672 
L 1181.609661 61.9488 
L 1182.964195 60.3648 
L 1184.318728 57.1968 
L 1187.027795 65.1168 
L 1188.382328 63.5328 
L 1189.736861 68.6016 
L 1191.091395 67.968 
L 1192.445928 62.2656 
L 1193.800461 70.1856 
L 1195.154995 75.5712 
L 1196.509528 70.8192 
L 1197.864061 66.7008 
L 1199.218594 63.5328 
L 1200.573128 61.9488 
L 1201.927661 61.632 
L 1203.282194 52.4448 
L 1204.636728 41.6736 
L 1205.991261 47.6928 
L 1207.345794 59.0976 
L 1210.054861 66.384 
L 1211.409394 65.1168 
L 1212.763928 59.0976 
L 1214.118461 60.048 
L 1215.472994 58.7808 
L 1216.827528 54.9792 
L 1218.182061 61.3152 
L 1219.536594 68.6016 
L 1220.891128 68.6016 
L 1222.245661 68.2848 
L 1223.600194 70.1856 
L 1226.309261 69.552 
L 1227.663794 71.4528 
L 1230.372861 62.8992 
L 1231.727394 68.9184 
L 1233.081927 70.8192 
L 1234.436461 67.3344 
L 1235.790994 71.7696 
L 1237.145527 78.1056 
L 1238.500061 78.1056 
L 1239.854594 73.0368 
L 1241.209127 62.5824 
L 1242.563661 53.712 
L 1243.918194 57.1968 
L 1245.272727 61.632 
L 1245.272727 61.632 
" clip-path="url(#p9467a74b4f)" style="fill: none; stroke: #a9a9a9; stroke-width: 2.5; stroke-linecap: square"/>
   </g>
   <g id="line2d_2">
    <path d="M 287.617672 52.7616 
L 288.972205 55.9296 
L 290.326739 48.0096 
L 291.681272 38.1888 
L 293.035805 38.5056 
L 294.390339 42.3072 
L 295.744872 48.6432 
L 297.099405 54.3456 
L 298.453939 53.712 
L 299.808472 52.7616 
L 301.163005 56.5632 
L 302.517539 62.2656 
L 303.872072 67.968 
L 305.226605 70.8192 
L 306.581138 71.136 
L 307.935672 74.9376 
L 309.290205 77.7888 
L 310.644738 75.888 
L 311.999272 73.6704 
L 313.353805 73.6704 
L 314.708338 76.5216 
L 316.062872 77.472 
L 317.417405 72.72 
L 318.771938 69.2352 
L 320.126472 69.552 
L 321.481005 67.968 
L 322.835538 64.4832 
L 324.190072 61.3152 
L 325.544605 62.2656 
L 326.899138 67.6512 
L 328.253672 73.9872 
L 329.608205 76.5216 
L 330.962738 75.888 
L 332.317272 69.8688 
L 333.671805 62.5824 
L 335.026338 65.7504 
L 336.380871 68.9184 
L 337.735405 63.216 
L 339.089938 64.4832 
L 340.444471 74.304 
" clip-path="url(#p9467a74b4f)" style="fill: none; stroke: #edb120; stroke-width: 5; stroke-linecap: square"/>
   </g>
   <g id="line2d_3">
    <path d="M 539.560869 73.3536 
L 540.915402 70.8192 
L 542.269936 71.7696 
L 543.624469 68.9184 
L 544.979002 56.2464 
L 546.333536 46.7424 
L 547.688069 58.464 
L 549.042602 72.0864 
L 550.397136 66.7008 
L 551.751669 58.464 
L 553.106202 59.4144 
L 554.460736 57.1968 
L 555.815269 59.0976 
L 557.169802 67.0176 
L 558.524335 69.8688 
L 559.878869 71.4528 
L 561.233402 78.4224 
L 562.587935 82.8576 
L 563.942469 77.472 
L 565.297002 67.6512 
L 566.651535 63.8496 
L 568.006069 61.632 
L 569.360602 53.712 
L 570.715135 48.0096 
L 572.069669 52.4448 
L 573.424202 57.5136 
L 574.778735 48.0096 
L 576.133269 39.456 
L 577.487802 49.2768 
L 578.842335 52.128 
L 580.196869 46.7424 
L 581.551402 53.3952 
L 582.905935 56.88 
L 584.260469 52.7616 
L 585.615002 57.8304 
L 586.969535 66.7008 
L 588.324068 61.632 
L 589.678602 44.8416 
L 591.033135 39.1392 
L 592.387668 60.6816 
" clip-path="url(#p9467a74b4f)" style="fill: none; stroke: #edb120; stroke-width: 5; stroke-linecap: square"/>
   </g>
   <g id="line2d_4">
    <path d="M 729.195533 57.5136 
L 730.550067 50.8608 
L 731.9046 54.3456 
L 733.259133 57.8304 
L 734.613667 50.8608 
L 735.9682 47.0592 
L 737.322733 48.3264 
L 738.677267 52.128 
L 740.0318 60.9984 
L 741.386333 67.3344 
L 742.740867 69.2352 
L 744.0954 66.384 
L 745.449933 65.1168 
L 746.804467 79.6896 
L 748.159 98.3808 
L 749.513533 99.3312 
L 750.868067 95.8464 
L 752.2226 98.3808 
L 753.577133 96.48 
L 754.931666 92.6784 
L 756.2862 89.5104 
L 757.640733 76.5216 
L 758.995266 63.8496 
L 760.3498 66.7008 
L 761.704333 72.4032 
L 763.058866 72.72 
L 764.4134 68.2848 
L 765.767933 60.3648 
L 767.122466 54.3456 
L 768.477 53.3952 
L 769.831533 52.7616 
L 771.186066 51.8112 
L 772.5406 58.7808 
L 773.895133 67.3344 
L 775.249666 62.5824 
L 776.6042 57.5136 
L 777.958733 64.8 
L 779.313266 62.8992 
L 780.667799 52.7616 
L 782.022333 56.2464 
" clip-path="url(#p9467a74b4f)" style="fill: none; stroke: #7e2f8e; stroke-width: 5; stroke-linecap: square"/>
   </g>
   <g id="line2d_5">
    <path d="M 1043.447263 63.5328 
L 1044.801796 60.048 
L 1046.15633 57.8304 
L 1047.510863 67.0176 
L 1048.865396 68.6016 
L 1050.21993 63.5328 
L 1051.574463 66.384 
L 1052.928996 73.6704 
L 1054.28353 79.3728 
L 1055.638063 74.304 
L 1056.992596 73.9872 
L 1058.34713 84.4416 
L 1059.701663 88.8768 
L 1061.056196 84.7584 
L 1062.410729 82.8576 
L 1063.765263 84.7584 
L 1065.119796 88.2432 
L 1066.474329 84.1248 
L 1067.828863 74.9376 
L 1069.183396 72.4032 
L 1070.537929 73.6704 
L 1071.892463 72.4032 
L 1073.246996 71.136 
L 1074.601529 69.552 
L 1075.956063 67.0176 
L 1077.310596 67.0176 
L 1078.665129 69.2352 
L 1080.019663 67.968 
L 1081.374196 64.8 
L 1082.728729 63.216 
L 1084.083263 62.5824 
L 1085.437796 60.6816 
L 1086.792329 58.1472 
L 1088.146862 59.0976 
L 1089.501396 62.5824 
L 1090.855929 65.4336 
L 1092.210462 62.2656 
L 1093.564996 55.9296 
L 1094.919529 51.8112 
L 1096.274062 52.128 
" clip-path="url(#p9467a74b4f)" style="fill: none; stroke: #7e2f8e; stroke-width: 5; stroke-linecap: square"/>
   </g>
   <g id="line2d_6">
    <path d="M 1120.655662 63.216 
L 1122.010195 57.8304 
L 1123.364729 55.9296 
L 1124.719262 53.3952 
L 1126.073795 53.3952 
L 1127.428329 58.464 
L 1128.782862 60.048 
L 1130.137395 52.7616 
L 1131.491929 52.7616 
L 1132.846462 62.8992 
L 1134.200995 64.1664 
L 1135.555529 58.1472 
L 1136.910062 60.6816 
L 1138.264595 67.0176 
L 1139.619129 73.3536 
L 1140.973662 80.0064 
L 1142.328195 82.8576 
L 1143.682728 85.0752 
L 1145.037262 85.7088 
L 1146.391795 83.808 
L 1147.746328 81.2736 
L 1149.100862 80.0064 
L 1150.455395 80.0064 
L 1151.809928 76.2048 
L 1153.164462 70.1856 
L 1154.518995 68.9184 
L 1155.873528 68.6016 
L 1157.228062 65.1168 
L 1158.582595 66.0672 
L 1159.937128 66.0672 
L 1161.291662 65.7504 
L 1162.646195 69.552 
L 1164.000728 72.0864 
L 1165.355262 71.4528 
L 1166.709795 64.4832 
L 1168.064328 56.88 
L 1169.418862 60.048 
L 1170.773395 65.1168 
L 1172.127928 67.6512 
L 1173.482461 65.7504 
" clip-path="url(#p9467a74b4f)" style="fill: none; stroke: #7e2f8e; stroke-width: 5; stroke-linecap: square"/>
   </g>
  </g>
 </g>
 <defs>
  <clipPath id="p9467a74b4f">
   <rect x="180" y="17.28" width="1116" height="110.88"/>
  </clipPath>
 </defs>
</svg>
