<?xml version="1.0" encoding="utf-8" standalone="no"?>
<!DOCTYPE svg PUBLIC "-//W3C//DTD SVG 1.1//EN"
  "http://www.w3.org/Graphics/SVG/1.1/DTD/svg11.dtd">
<svg xmlns:xlink="http://www.w3.org/1999/xlink" width="1440pt" height="144pt" viewBox="0 0 1440 144" xmlns="http://www.w3.org/2000/svg" version="1.1">
 <metadata>
  <rdf:RDF xmlns:dc="http://purl.org/dc/elements/1.1/" xmlns:cc="http://creativecommons.org/ns#" xmlns:rdf="http://www.w3.org/1999/02/22-rdf-syntax-ns#">
   <cc:Work>
    <dc:type rdf:resource="http://purl.org/dc/dcmitype/StillImage"/>
    <dc:date>2022-11-16T18:16:14.379265</dc:date>
    <dc:format>image/svg+xml</dc:format>
    <dc:creator>
     <cc:Agent>
      <dc:title>Matplotlib v3.5.2, https://matplotlib.org/</dc:title>
     </cc:Agent>
    </dc:creator>
   </cc:Work>
  </rdf:RDF>
 </metadata>
 <defs>
  <style type="text/css">*{stroke-linejoin: round; stroke-linecap: butt}</style>
 </defs>
 <g id="figure_1">
  <g id="patch_1">
   <path d="M 0 144 
L 1440 144 
L 1440 0 
L 0 0 
L 0 144 
z
" style="fill: none"/>
  </g>
  <g id="axes_1">
   <g id="line2d_1">
    <path d="M 230.727273 62.2656 
L 232.081806 63.5328 
L 234.790873 54.9792 
L 236.145406 53.3952 
L 237.499939 55.6128 
L 238.854473 60.9984 
L 240.209006 62.2656 
L 241.563539 63.216 
L 242.918073 67.3344 
L 244.272606 65.4336 
L 245.627139 60.6816 
L 246.981673 63.216 
L 248.336206 68.9184 
L 251.045272 65.7504 
L 253.754339 76.2048 
L 255.108872 78.1056 
L 256.463406 79.056 
L 257.817939 78.7392 
L 259.172472 78.7392 
L 260.527006 80.3232 
L 261.881539 78.4224 
L 263.236072 75.888 
L 264.590606 78.1056 
L 265.945139 77.472 
L 267.299672 71.7696 
L 268.654206 70.8192 
L 270.008739 71.7696 
L 271.363272 65.7504 
L 272.717806 62.2656 
L 274.072339 66.0672 
L 275.426872 60.048 
L 276.781406 54.9792 
L 278.135939 59.7312 
L 279.490472 55.296 
L 280.845005 52.128 
L 282.199539 64.4832 
L 283.554072 71.7696 
L 286.263139 58.1472 
L 287.617672 57.8304 
L 288.972205 57.8304 
L 290.326739 53.0784 
L 293.035805 48.6432 
L 294.390339 42.3072 
L 295.744872 42.624 
L 297.099405 46.7424 
L 298.453939 47.0592 
L 299.808472 51.1776 
L 301.163005 54.3456 
L 302.517539 52.7616 
L 303.872072 58.1472 
L 305.226605 61.9488 
L 306.581138 61.9488 
L 307.935672 67.6512 
L 309.290205 71.136 
L 310.644738 73.0368 
L 311.999272 75.2544 
L 313.353805 73.3536 
L 314.708338 72.4032 
L 316.062872 73.0368 
L 317.417405 72.72 
L 318.771938 73.3536 
L 320.126472 73.3536 
L 322.835538 70.1856 
L 324.190072 66.384 
L 325.544605 59.4144 
L 326.899138 56.2464 
L 328.253672 65.7504 
L 329.608205 76.8384 
L 330.962738 72.72 
L 332.317272 64.4832 
L 333.671805 64.4832 
L 335.026338 67.3344 
L 336.380871 66.7008 
L 337.735405 65.7504 
L 339.089938 66.384 
L 340.444471 69.8688 
L 341.799005 70.8192 
L 344.508071 67.0176 
L 345.862605 60.3648 
L 347.217138 61.9488 
L 348.571671 67.968 
L 349.926205 68.9184 
L 351.280738 72.4032 
L 352.635271 69.8688 
L 353.989805 60.3648 
L 355.344338 65.4336 
L 356.698871 76.2048 
L 358.053405 73.6704 
L 359.407938 67.3344 
L 360.762471 66.0672 
L 362.117004 61.9488 
L 363.471538 61.3152 
L 364.826071 68.9184 
L 367.535138 79.056 
L 368.889671 85.392 
L 370.244204 80.9568 
L 372.953271 69.8688 
L 374.307804 61.632 
L 375.662338 61.9488 
L 377.016871 64.8 
L 379.725938 49.2768 
L 381.080471 51.8112 
L 382.435004 54.9792 
L 383.789538 57.8304 
L 385.144071 63.216 
L 386.498604 57.1968 
L 387.853138 47.0592 
L 389.207671 52.7616 
L 390.562204 62.5824 
L 391.916737 61.3152 
L 393.271271 56.88 
L 394.625804 54.9792 
L 395.980337 52.128 
L 397.334871 47.376 
L 398.689404 45.1584 
L 401.398471 47.0592 
L 402.753004 55.9296 
L 404.107537 63.8496 
L 405.462071 61.632 
L 406.816604 62.8992 
L 408.171137 69.2352 
L 410.880204 60.6816 
L 412.234737 66.0672 
L 413.589271 68.9184 
L 414.943804 67.6512 
L 416.298337 74.304 
L 417.65287 82.5408 
L 419.007404 78.4224 
L 420.361937 72.72 
L 421.71647 77.1552 
L 423.071004 82.5408 
L 424.425537 78.1056 
L 425.78007 71.136 
L 427.134604 71.4528 
L 428.489137 76.5216 
L 429.84367 69.552 
L 431.198204 59.7312 
L 433.90727 67.3344 
L 435.261804 60.048 
L 436.616337 58.1472 
L 437.97087 61.9488 
L 439.325404 64.8 
L 440.679937 64.4832 
L 442.03447 64.4832 
L 443.389004 67.0176 
L 444.743537 65.4336 
L 446.09807 64.1664 
L 447.452603 68.9184 
L 448.807137 67.968 
L 450.16167 63.8496 
L 452.870737 70.1856 
L 454.22527 72.0864 
L 455.579803 74.6208 
L 456.934337 70.5024 
L 458.28887 70.5024 
L 459.643403 69.552 
L 460.997937 61.3152 
L 462.35247 60.6816 
L 463.707003 63.216 
L 465.061537 61.9488 
L 466.41607 66.384 
L 467.770603 71.4528 
L 469.125137 67.6512 
L 470.47967 65.1168 
L 471.834203 64.1664 
L 473.188736 61.9488 
L 474.54327 65.1168 
L 475.897803 66.0672 
L 477.252336 57.1968 
L 478.60687 52.128 
L 479.961403 56.2464 
L 481.315936 58.1472 
L 484.025003 63.216 
L 485.379536 59.7312 
L 488.088603 67.968 
L 489.443136 58.7808 
L 490.79767 55.6128 
L 492.152203 62.8992 
L 493.506736 60.6816 
L 494.86127 52.4448 
L 496.215803 56.5632 
L 497.570336 57.1968 
L 498.92487 56.88 
L 500.279403 67.0176 
L 501.633936 68.6016 
L 502.988469 66.7008 
L 504.343003 72.4032 
L 505.697536 71.4528 
L 507.052069 67.0176 
L 508.406603 68.2848 
L 511.115669 73.3536 
L 512.470203 74.9376 
L 513.824736 73.6704 
L 515.179269 70.5024 
L 516.533803 63.216 
L 517.888336 57.1968 
L 519.242869 60.3648 
L 520.597403 58.7808 
L 521.951936 55.9296 
L 523.306469 61.3152 
L 524.661003 66.0672 
L 526.015536 69.552 
L 527.370069 74.6208 
L 528.724603 70.5024 
L 530.079136 64.1664 
L 531.433669 65.4336 
L 534.142736 61.632 
L 535.497269 65.1168 
L 536.851802 70.1856 
L 538.206336 76.5216 
L 539.560869 75.5712 
L 540.915402 65.4336 
L 542.269936 59.4144 
L 543.624469 64.1664 
L 544.979002 65.4336 
L 546.333536 58.464 
L 547.688069 61.3152 
L 549.042602 66.384 
L 551.751669 57.5136 
L 553.106202 58.7808 
L 554.460736 56.2464 
L 555.815269 54.0288 
L 557.169802 59.7312 
L 558.524335 68.2848 
L 559.878869 75.888 
L 561.233402 79.6896 
L 562.587935 80.64 
L 563.942469 79.6896 
L 566.651535 63.5328 
L 568.006069 63.5328 
L 569.360602 64.4832 
L 570.715135 64.1664 
L 572.069669 66.7008 
L 573.424202 59.4144 
L 574.778735 48.6432 
L 576.133269 53.712 
L 577.487802 56.88 
L 578.842335 45.4752 
L 580.196869 46.1088 
L 581.551402 59.0976 
L 582.905935 60.048 
L 584.260469 59.0976 
L 585.615002 66.7008 
L 586.969535 67.968 
L 589.678602 41.6736 
L 591.033135 41.3568 
L 592.387668 49.5936 
L 593.742202 59.4144 
L 595.096735 71.4528 
L 596.451268 77.472 
L 597.805802 76.5216 
L 599.160335 77.472 
L 600.514868 81.9072 
L 601.869402 86.976 
L 603.223935 87.9264 
L 604.578468 86.976 
L 605.933002 82.8576 
L 607.287535 75.888 
L 608.642068 75.5712 
L 609.996602 73.9872 
L 611.351135 64.1664 
L 612.705668 62.8992 
L 614.060201 73.3536 
L 615.414735 69.2352 
L 616.769268 58.1472 
L 618.123801 62.2656 
L 619.478335 67.0176 
L 620.832868 66.0672 
L 622.187401 69.552 
L 623.541935 70.5024 
L 624.896468 66.0672 
L 626.251001 62.2656 
L 627.605535 62.8992 
L 628.960068 69.552 
L 630.314601 75.2544 
L 631.669135 71.136 
L 633.023668 63.8496 
L 634.378201 60.6816 
L 635.732735 60.9984 
L 637.087268 60.048 
L 638.441801 59.7312 
L 639.796335 62.5824 
L 641.150868 63.8496 
L 642.505401 60.3648 
L 643.859934 54.6624 
L 645.214468 51.4944 
L 646.569001 55.9296 
L 647.923534 61.9488 
L 649.278068 60.6816 
L 650.632601 60.3648 
L 651.987134 60.3648 
L 653.341668 57.1968 
L 654.696201 59.4144 
L 656.050734 60.048 
L 657.405268 54.3456 
L 658.759801 54.3456 
L 660.114334 55.296 
L 661.468868 54.9792 
L 662.823401 56.2464 
L 664.177934 54.0288 
L 665.532468 57.5136 
L 666.887001 71.7696 
L 668.241534 74.9376 
L 669.596067 65.7504 
L 670.950601 65.1168 
L 672.305134 68.9184 
L 673.659667 70.1856 
L 675.014201 70.1856 
L 676.368734 66.7008 
L 677.723267 62.8992 
L 679.077801 66.0672 
L 680.432334 68.9184 
L 681.786867 64.4832 
L 683.141401 63.216 
L 684.495934 62.2656 
L 685.850467 66.384 
L 687.205001 78.1056 
L 688.559534 76.5216 
L 689.914067 68.6016 
L 691.268601 67.3344 
L 692.623134 65.4336 
L 693.977667 61.9488 
L 695.332201 59.4144 
L 696.686734 58.1472 
L 699.3958 70.8192 
L 700.750334 70.1856 
L 702.104867 72.4032 
L 703.4594 73.0368 
L 704.813934 67.3344 
L 706.168467 69.8688 
L 707.523 70.8192 
L 708.877534 67.3344 
L 710.232067 73.9872 
L 711.5866 71.7696 
L 712.941134 62.5824 
L 714.295667 67.6512 
L 715.6502 66.7008 
L 717.004734 57.1968 
L 718.359267 64.8 
L 719.7138 71.7696 
L 721.068334 65.7504 
L 722.422867 62.2656 
L 723.7774 62.2656 
L 725.131933 62.8992 
L 726.486467 66.384 
L 727.841 71.136 
L 729.195533 67.6512 
L 730.550067 55.6128 
L 731.9046 52.128 
L 733.259133 56.2464 
L 734.613667 52.7616 
L 735.9682 54.3456 
L 737.322733 52.128 
L 738.677267 43.2576 
L 740.0318 54.9792 
L 741.386333 65.1168 
L 742.740867 51.1776 
L 744.0954 43.2576 
L 745.449933 55.6128 
L 746.804467 69.8688 
L 749.513533 81.2736 
L 750.868067 93.312 
L 752.2226 97.7472 
L 753.577133 91.728 
L 754.931666 90.4608 
L 756.2862 90.7776 
L 758.995266 67.6512 
L 760.3498 68.6016 
L 761.704333 66.0672 
L 763.058866 58.7808 
L 764.4134 62.5824 
L 765.767933 61.3152 
L 767.122466 54.9792 
L 768.477 57.5136 
L 769.831533 55.296 
L 771.186066 49.9104 
L 772.5406 57.5136 
L 773.895133 62.8992 
L 775.249666 55.296 
L 776.6042 55.296 
L 777.958733 61.632 
L 779.313266 58.1472 
L 780.667799 59.0976 
L 782.022333 66.0672 
L 783.376866 65.7504 
L 784.731399 63.216 
L 786.085933 62.2656 
L 787.440466 59.4144 
L 788.794999 59.0976 
L 790.149533 65.1168 
L 791.504066 66.7008 
L 792.858599 60.3648 
L 794.213133 58.7808 
L 795.567666 65.7504 
L 796.922199 70.5024 
L 798.276733 72.4032 
L 799.631266 66.384 
L 800.985799 56.88 
L 802.340333 60.048 
L 803.694866 66.7008 
L 805.049399 57.8304 
L 806.403933 54.0288 
L 807.758466 59.7312 
L 809.112999 55.6128 
L 810.467532 55.6128 
L 811.822066 68.9184 
L 813.176599 73.6704 
L 814.531132 66.384 
L 815.885666 63.8496 
L 817.240199 67.0176 
L 818.594732 67.968 
L 819.949266 67.0176 
L 821.303799 70.1856 
L 822.658332 72.4032 
L 824.012866 64.8 
L 825.367399 56.2464 
L 826.721932 62.2656 
L 828.076466 67.6512 
L 829.430999 61.9488 
L 830.785532 58.1472 
L 832.140066 61.632 
L 833.494599 63.216 
L 834.849132 58.1472 
L 836.203665 58.464 
L 837.558199 62.5824 
L 838.912732 60.6816 
L 840.267265 71.136 
L 841.621799 86.0256 
L 842.976332 83.4912 
L 844.330865 79.056 
L 845.685399 82.224 
L 847.039932 78.7392 
L 848.394465 71.136 
L 849.748999 70.1856 
L 852.458065 76.5216 
L 853.812599 74.9376 
L 855.167132 71.136 
L 856.521665 76.2048 
L 857.876199 79.3728 
L 859.230732 66.384 
L 860.585265 60.048 
L 861.939799 69.2352 
L 863.294332 71.7696 
L 864.648865 66.384 
L 866.003398 67.0176 
L 867.357932 68.9184 
L 868.712465 64.8 
L 870.066998 59.7312 
L 871.421532 61.9488 
L 872.776065 61.9488 
L 874.130598 57.8304 
L 875.485132 54.9792 
L 876.839665 53.712 
L 878.194198 51.4944 
L 879.548732 50.544 
L 880.903265 47.0592 
L 882.257798 42.9408 
L 883.612332 48.0096 
L 884.966865 60.9984 
L 886.321398 63.8496 
L 887.675932 58.464 
L 889.030465 55.9296 
L 890.384998 53.712 
L 891.739531 53.3952 
L 893.094065 57.1968 
L 894.448598 54.3456 
L 895.803131 49.2768 
L 897.157665 53.0784 
L 898.512198 63.8496 
L 899.866731 73.6704 
L 901.221265 76.8384 
L 902.575798 76.5216 
L 903.930331 72.72 
L 905.284865 67.968 
L 906.639398 73.9872 
L 907.993931 78.1056 
L 909.348465 68.9184 
L 910.702998 63.8496 
L 912.057531 69.8688 
L 913.412065 66.0672 
L 914.766598 53.0784 
L 916.121131 53.0784 
L 917.475665 61.3152 
L 918.830198 61.9488 
L 920.184731 60.9984 
L 921.539264 64.1664 
L 922.893798 65.7504 
L 924.248331 66.7008 
L 925.602864 69.2352 
L 926.957398 67.3344 
L 929.666464 49.2768 
L 931.020998 55.9296 
L 932.375531 78.4224 
L 933.730064 89.5104 
L 935.084598 83.4912 
L 936.439131 78.7392 
L 937.793664 78.4224 
L 939.148198 78.7392 
L 940.502731 80.9568 
L 941.857264 79.3728 
L 943.211798 73.6704 
L 945.920864 71.136 
L 947.275397 66.7008 
L 948.629931 68.6016 
L 949.984464 68.2848 
L 951.338997 65.7504 
L 952.693531 71.136 
L 954.048064 68.9184 
L 955.402597 61.632 
L 956.757131 64.4832 
L 958.111664 66.7008 
L 959.466197 60.3648 
L 960.820731 57.8304 
L 962.175264 57.5136 
L 963.529797 55.296 
L 964.884331 59.0976 
L 966.238864 66.7008 
L 967.593397 68.9184 
L 968.947931 60.048 
L 970.302464 52.128 
L 973.011531 61.9488 
L 974.366064 56.5632 
L 975.720597 54.6624 
L 977.07513 59.4144 
L 978.429664 54.0288 
L 979.784197 47.6928 
L 981.13873 56.88 
L 982.493264 62.2656 
L 983.847797 55.6128 
L 985.20233 55.9296 
L 986.556864 63.8496 
L 987.911397 62.8992 
L 989.26593 58.464 
L 990.620464 60.048 
L 991.974997 61.3152 
L 993.32953 61.9488 
L 994.684064 67.3344 
L 996.038597 73.9872 
L 997.39313 76.2048 
L 998.747664 73.0368 
L 1000.102197 68.9184 
L 1001.45673 72.4032 
L 1002.811264 74.6208 
L 1004.165797 65.1168 
L 1005.52033 61.9488 
L 1006.874863 70.1856 
L 1008.229397 67.968 
L 1009.58393 60.6816 
L 1010.938463 61.9488 
L 1012.292997 66.7008 
L 1013.64753 68.6016 
L 1015.002063 70.8192 
L 1016.356597 76.8384 
L 1017.71113 78.4224 
L 1019.065663 75.2544 
L 1020.420197 70.5024 
L 1021.77473 68.6016 
L 1023.129263 65.4336 
L 1024.483797 58.1472 
L 1025.83833 54.0288 
L 1027.192863 55.296 
L 1028.547397 54.6624 
L 1029.90193 54.6624 
L 1031.256463 55.9296 
L 1032.610996 56.5632 
L 1033.96553 58.1472 
L 1035.320063 61.632 
L 1036.674596 64.1664 
L 1038.02913 63.5328 
L 1039.383663 61.9488 
L 1040.738196 61.3152 
L 1042.09273 61.3152 
L 1043.447263 60.6816 
L 1044.801796 57.8304 
L 1046.15633 58.7808 
L 1047.510863 65.1168 
L 1048.865396 65.1168 
L 1050.21993 60.048 
L 1051.574463 58.464 
L 1052.928996 65.4336 
L 1054.28353 71.7696 
L 1055.638063 67.6512 
L 1056.992596 69.8688 
L 1058.34713 79.056 
L 1061.056196 71.7696 
L 1062.410729 80.0064 
L 1063.765263 83.808 
L 1065.119796 80.3232 
L 1066.474329 76.5216 
L 1067.828863 71.7696 
L 1069.183396 70.5024 
L 1070.537929 72.0864 
L 1073.246996 64.1664 
L 1074.601529 66.384 
L 1075.956063 69.552 
L 1077.310596 70.5024 
L 1078.665129 69.2352 
L 1080.019663 66.384 
L 1081.374196 64.1664 
L 1082.728729 64.8 
L 1084.083263 64.4832 
L 1085.437796 61.632 
L 1088.146862 70.1856 
L 1089.501396 67.0176 
L 1090.855929 70.1856 
L 1092.210462 72.0864 
L 1093.564996 61.632 
L 1094.919529 56.2464 
L 1096.274062 60.6816 
L 1098.983129 59.4144 
L 1100.337662 59.0976 
L 1103.046729 61.632 
L 1104.401262 54.6624 
L 1105.755796 49.9104 
L 1107.110329 55.9296 
L 1108.464862 61.3152 
L 1109.819396 57.1968 
L 1111.173929 51.1776 
L 1112.528462 52.7616 
L 1113.882996 62.5824 
L 1115.237529 61.632 
L 1116.592062 54.3456 
L 1119.301129 65.4336 
L 1120.655662 65.4336 
L 1122.010195 68.9184 
L 1123.364729 65.4336 
L 1124.719262 56.2464 
L 1126.073795 55.6128 
L 1127.428329 52.4448 
L 1128.782862 49.5936 
L 1130.137395 55.6128 
L 1131.491929 60.048 
L 1132.846462 61.9488 
L 1134.200995 56.2464 
L 1135.555529 47.0592 
L 1136.910062 47.376 
L 1138.264595 55.6128 
L 1139.619129 65.4336 
L 1140.973662 72.0864 
L 1142.328195 77.7888 
L 1143.682728 85.7088 
L 1145.037262 87.6096 
L 1146.391795 82.8576 
L 1147.746328 74.9376 
L 1149.100862 74.304 
L 1150.455395 86.0256 
L 1151.809928 86.0256 
L 1153.164462 71.4528 
L 1154.518995 62.8992 
L 1155.873528 63.216 
L 1157.228062 66.0672 
L 1158.582595 70.1856 
L 1159.937128 73.6704 
L 1161.291662 75.5712 
L 1162.646195 70.1856 
L 1164.000728 67.6512 
L 1165.355262 70.5024 
L 1166.709795 67.6512 
L 1168.064328 65.7504 
L 1169.418862 67.968 
L 1170.773395 66.0672 
L 1172.127928 65.4336 
L 1173.482461 63.5328 
L 1174.836995 59.4144 
L 1176.191528 60.6816 
L 1177.546061 67.6512 
L 1178.900595 68.2848 
L 1180.255128 63.5328 
L 1181.609661 61.632 
L 1182.964195 60.3648 
L 1184.318728 58.7808 
L 1185.673261 61.9488 
L 1187.027795 64.8 
L 1188.382328 64.8 
L 1189.736861 69.8688 
L 1191.091395 70.1856 
L 1192.445928 64.1664 
L 1193.800461 63.8496 
L 1195.154995 67.3344 
L 1196.509528 72.4032 
L 1197.864061 72.0864 
L 1199.218594 63.8496 
L 1200.573128 60.9984 
L 1201.927661 64.1664 
L 1203.282194 60.6816 
L 1204.636728 51.1776 
L 1205.991261 50.2272 
L 1207.345794 56.88 
L 1210.054861 67.968 
L 1211.409394 67.968 
L 1212.763928 63.8496 
L 1214.118461 62.5824 
L 1215.472994 62.2656 
L 1216.827528 59.7312 
L 1218.182061 58.464 
L 1220.891128 67.0176 
L 1222.245661 62.8992 
L 1223.600194 56.88 
L 1224.954728 62.5824 
L 1226.309261 69.2352 
L 1227.663794 66.0672 
L 1229.018327 61.9488 
L 1230.372861 61.9488 
L 1231.727394 66.7008 
L 1233.081927 74.9376 
L 1234.436461 75.5712 
L 1235.790994 72.4032 
L 1237.145527 74.6208 
L 1238.500061 76.2048 
L 1239.854594 69.2352 
L 1241.209127 59.7312 
L 1242.563661 57.8304 
L 1243.918194 60.6816 
L 1245.272727 59.7312 
L 1245.272727 59.7312 
" clip-path="url(#p3b8e9111e8)" style="fill: none; stroke: #a9a9a9; stroke-width: 2.5; stroke-linecap: square"/>
   </g>
  </g>
 </g>
 <defs>
  <clipPath id="p3b8e9111e8">
   <rect x="180" y="17.28" width="1116" height="110.88"/>
  </clipPath>
 </defs>
</svg>
