<?xml version="1.0" encoding="utf-8" standalone="no"?>
<!DOCTYPE svg PUBLIC "-//W3C//DTD SVG 1.1//EN"
  "http://www.w3.org/Graphics/SVG/1.1/DTD/svg11.dtd">
<svg xmlns:xlink="http://www.w3.org/1999/xlink" width="1440pt" height="144pt" viewBox="0 0 1440 144" xmlns="http://www.w3.org/2000/svg" version="1.1">
 <metadata>
  <rdf:RDF xmlns:dc="http://purl.org/dc/elements/1.1/" xmlns:cc="http://creativecommons.org/ns#" xmlns:rdf="http://www.w3.org/1999/02/22-rdf-syntax-ns#">
   <cc:Work>
    <dc:type rdf:resource="http://purl.org/dc/dcmitype/StillImage"/>
    <dc:date>2022-11-16T18:18:17.039896</dc:date>
    <dc:format>image/svg+xml</dc:format>
    <dc:creator>
     <cc:Agent>
      <dc:title>Matplotlib v3.5.2, https://matplotlib.org/</dc:title>
     </cc:Agent>
    </dc:creator>
   </cc:Work>
  </rdf:RDF>
 </metadata>
 <defs>
  <style type="text/css">*{stroke-linejoin: round; stroke-linecap: butt}</style>
 </defs>
 <g id="figure_1">
  <g id="patch_1">
   <path d="M 0 144 
L 1440 144 
L 1440 0 
L 0 0 
L 0 144 
z
" style="fill: none"/>
  </g>
  <g id="axes_1">
   <g id="line2d_1">
    <path d="M 230.727273 71.4528 
L 232.081806 72.4032 
L 233.436339 71.7696 
L 234.790873 65.1168 
L 236.145406 60.6816 
L 237.499939 65.7504 
L 238.854473 69.8688 
L 240.209006 68.9184 
L 241.563539 67.6512 
L 242.918073 66.7008 
L 244.272606 67.3344 
L 245.627139 65.4336 
L 246.981673 55.9296 
L 248.336206 51.1776 
L 249.690739 57.5136 
L 253.754339 81.9072 
L 255.108872 82.8576 
L 256.463406 78.7392 
L 257.817939 82.224 
L 259.172472 83.1744 
L 260.527006 75.5712 
L 261.881539 73.6704 
L 263.236072 76.8384 
L 264.590606 67.6512 
L 265.945139 59.7312 
L 267.299672 67.968 
L 268.654206 72.0864 
L 270.008739 60.9984 
L 271.363272 57.1968 
L 272.717806 65.1168 
L 274.072339 62.8992 
L 275.426872 54.9792 
L 276.781406 53.3952 
L 278.135939 51.4944 
L 279.490472 46.4256 
L 280.845005 47.376 
L 282.199539 54.3456 
L 283.554072 57.1968 
L 284.908605 51.1776 
L 286.263139 48.6432 
L 287.617672 54.0288 
L 288.972205 53.3952 
L 290.326739 46.7424 
L 291.681272 48.3264 
L 293.035805 54.6624 
L 294.390339 48.3264 
L 295.744872 39.456 
L 297.099405 44.208 
L 298.453939 42.624 
L 299.808472 33.12 
L 301.163005 41.3568 
L 302.517539 57.5136 
L 303.872072 68.6016 
L 305.226605 82.5408 
L 306.581138 92.0448 
L 307.935672 90.7776 
L 309.290205 94.5792 
L 310.644738 95.8464 
L 311.999272 81.9072 
L 313.353805 73.9872 
L 314.708338 77.472 
L 316.062872 76.5216 
L 317.417405 80.64 
L 318.771938 91.728 
L 320.126472 87.6096 
L 321.481005 74.304 
L 322.835538 69.8688 
L 324.190072 69.552 
L 325.544605 60.9984 
L 326.899138 54.3456 
L 328.253672 67.3344 
L 329.608205 78.4224 
L 330.962738 69.552 
L 332.317272 67.968 
L 333.671805 69.552 
L 335.026338 60.9984 
L 336.380871 59.4144 
L 337.735405 64.1664 
L 339.089938 62.5824 
L 340.444471 61.3152 
L 341.799005 65.4336 
L 343.153538 64.1664 
L 344.508071 60.9984 
L 345.862605 62.5824 
L 347.217138 63.216 
L 348.571671 57.8304 
L 349.926205 59.7312 
L 351.280738 67.968 
L 352.635271 65.7504 
L 353.989805 68.2848 
L 355.344338 75.2544 
L 356.698871 67.968 
L 358.053405 62.8992 
L 359.407938 68.6016 
L 360.762471 68.9184 
L 362.117004 61.9488 
L 363.471538 59.0976 
L 364.826071 64.8 
L 366.180604 66.7008 
L 367.535138 66.7008 
L 368.889671 77.7888 
L 370.244204 80.0064 
L 371.598738 69.2352 
L 372.953271 63.5328 
L 375.662338 54.9792 
L 377.016871 57.1968 
L 378.371404 59.0976 
L 381.080471 55.296 
L 382.435004 55.9296 
L 383.789538 59.7312 
L 385.144071 59.4144 
L 386.498604 53.0784 
L 387.853138 48.96 
L 389.207671 44.208 
L 390.562204 46.1088 
L 391.916737 58.7808 
L 393.271271 66.0672 
L 394.625804 66.7008 
L 395.980337 66.384 
L 397.334871 64.1664 
L 398.689404 62.8992 
L 400.043937 59.4144 
L 401.398471 54.9792 
L 402.753004 58.1472 
L 404.107537 59.4144 
L 405.462071 58.464 
L 406.816604 65.7504 
L 408.171137 71.136 
L 409.525671 71.4528 
L 410.880204 70.1856 
L 412.234737 64.1664 
L 413.589271 59.0976 
L 414.943804 60.3648 
L 417.65287 68.2848 
L 419.007404 70.5024 
L 420.361937 73.3536 
L 421.71647 75.888 
L 423.071004 71.4528 
L 424.425537 65.4336 
L 425.78007 64.1664 
L 427.134604 63.8496 
L 428.489137 67.0176 
L 429.84367 68.6016 
L 431.198204 65.4336 
L 432.552737 70.1856 
L 433.90727 78.4224 
L 435.261804 70.8192 
L 436.616337 60.9984 
L 437.97087 62.5824 
L 439.325404 69.8688 
L 440.679937 78.1056 
L 442.03447 77.1552 
L 443.389004 70.1856 
L 444.743537 70.8192 
L 446.09807 73.9872 
L 447.452603 77.7888 
L 448.807137 80.3232 
L 451.516203 71.7696 
L 452.870737 73.0368 
L 454.22527 72.72 
L 455.579803 69.2352 
L 456.934337 65.1168 
L 458.28887 63.5328 
L 459.643403 62.2656 
L 460.997937 60.6816 
L 462.35247 63.216 
L 463.707003 66.0672 
L 466.41607 57.1968 
L 467.770603 56.2464 
L 469.125137 57.5136 
L 470.47967 61.3152 
L 471.834203 58.7808 
L 473.188736 59.0976 
L 474.54327 65.4336 
L 477.252336 55.9296 
L 478.60687 61.9488 
L 479.961403 60.6816 
L 481.315936 54.6624 
L 482.67047 58.464 
L 484.025003 59.4144 
L 485.379536 54.6624 
L 486.73407 53.3952 
L 488.088603 56.2464 
L 489.443136 61.632 
L 490.79767 64.8 
L 492.152203 67.3344 
L 493.506736 70.8192 
L 494.86127 65.1168 
L 496.215803 57.8304 
L 497.570336 58.1472 
L 498.92487 55.296 
L 500.279403 49.9104 
L 501.633936 54.9792 
L 502.988469 64.1664 
L 504.343003 67.968 
L 505.697536 73.9872 
L 507.052069 81.2736 
L 508.406603 74.9376 
L 509.761136 66.0672 
L 511.115669 66.7008 
L 512.470203 64.4832 
L 513.824736 64.4832 
L 515.179269 68.2848 
L 516.533803 62.2656 
L 517.888336 49.9104 
L 519.242869 43.2576 
L 520.597403 46.4256 
L 521.951936 59.7312 
L 523.306469 71.7696 
L 524.661003 75.888 
L 526.015536 76.5216 
L 527.370069 73.9872 
L 528.724603 73.9872 
L 530.079136 76.2048 
L 531.433669 76.8384 
L 532.788202 77.1552 
L 534.142736 77.1552 
L 535.497269 73.9872 
L 536.851802 68.6016 
L 538.206336 67.0176 
L 539.560869 69.552 
L 540.915402 67.968 
L 542.269936 61.3152 
L 543.624469 61.3152 
L 544.979002 66.7008 
L 546.333536 64.4832 
L 547.688069 57.5136 
L 549.042602 56.2464 
L 550.397136 56.88 
L 551.751669 53.3952 
L 553.106202 52.7616 
L 554.460736 50.8608 
L 555.815269 51.1776 
L 558.524335 83.808 
L 559.878869 86.976 
L 561.233402 84.1248 
L 562.587935 85.0752 
L 563.942469 82.224 
L 565.297002 73.0368 
L 566.651535 71.7696 
L 568.006069 76.2048 
L 569.360602 72.72 
L 570.715135 65.1168 
L 572.069669 64.1664 
L 573.424202 65.4336 
L 574.778735 58.7808 
L 576.133269 54.6624 
L 577.487802 58.1472 
L 578.842335 58.1472 
L 580.196869 58.7808 
L 581.551402 60.048 
L 582.905935 50.544 
L 584.260469 44.5248 
L 585.615002 46.7424 
L 588.324068 46.7424 
L 589.678602 44.8416 
L 591.033135 36.6048 
L 592.387668 35.9712 
L 593.742202 53.712 
L 595.096735 73.6704 
L 596.451268 78.7392 
L 597.805802 78.1056 
L 599.160335 76.5216 
L 600.514868 76.8384 
L 601.869402 82.8576 
L 603.223935 85.392 
L 604.578468 80.3232 
L 605.933002 77.1552 
L 607.287535 74.9376 
L 608.642068 71.7696 
L 609.996602 72.4032 
L 611.351135 71.136 
L 612.705668 66.384 
L 614.060201 63.5328 
L 615.414735 64.1664 
L 616.769268 67.0176 
L 618.123801 67.6512 
L 619.478335 67.0176 
L 620.832868 67.3344 
L 622.187401 67.968 
L 623.541935 67.0176 
L 624.896468 65.1168 
L 626.251001 61.9488 
L 627.605535 60.9984 
L 628.960068 61.9488 
L 630.314601 65.4336 
L 631.669135 68.2848 
L 633.023668 62.8992 
L 634.378201 58.7808 
L 635.732735 61.9488 
L 637.087268 58.1472 
L 638.441801 53.0784 
L 639.796335 59.4144 
L 641.150868 62.8992 
L 642.505401 57.5136 
L 643.859934 50.8608 
L 645.214468 46.7424 
L 646.569001 45.792 
L 647.923534 50.544 
L 649.278068 57.5136 
L 650.632601 66.384 
L 651.987134 77.472 
L 653.341668 76.5216 
L 654.696201 61.3152 
L 656.050734 55.6128 
L 657.405268 61.632 
L 658.759801 63.8496 
L 660.114334 63.216 
L 661.468868 61.3152 
L 662.823401 61.3152 
L 664.177934 72.72 
L 665.532468 82.8576 
L 666.887001 76.8384 
L 668.241534 67.3344 
L 669.596067 66.0672 
L 670.950601 69.2352 
L 672.305134 69.2352 
L 673.659667 69.8688 
L 675.014201 72.72 
L 676.368734 69.8688 
L 677.723267 66.7008 
L 679.077801 72.4032 
L 680.432334 78.7392 
L 681.786867 78.1056 
L 683.141401 68.2848 
L 684.495934 65.1168 
L 685.850467 69.552 
L 687.205001 63.8496 
L 688.559534 62.8992 
L 689.914067 77.472 
L 691.268601 79.3728 
L 692.623134 67.3344 
L 693.977667 67.6512 
L 695.332201 71.7696 
L 696.686734 67.6512 
L 698.041267 67.6512 
L 699.3958 68.9184 
L 700.750334 64.4832 
L 702.104867 66.7008 
L 703.4594 71.4528 
L 706.168467 67.6512 
L 707.523 70.8192 
L 708.877534 70.1856 
L 711.5866 55.9296 
L 712.941134 56.2464 
L 714.295667 60.6816 
L 715.6502 56.5632 
L 717.004734 47.0592 
L 718.359267 48.0096 
L 719.7138 57.1968 
L 721.068334 62.8992 
L 722.422867 55.296 
L 723.7774 46.7424 
L 725.131933 49.5936 
L 726.486467 51.1776 
L 727.841 48.0096 
L 729.195533 45.792 
L 730.550067 43.2576 
L 731.9046 43.8912 
L 733.259133 49.9104 
L 734.613667 49.2768 
L 735.9682 45.4752 
L 737.322733 51.1776 
L 738.677267 64.8 
L 740.0318 75.2544 
L 741.386333 76.8384 
L 742.740867 74.6208 
L 745.449933 58.7808 
L 746.804467 69.2352 
L 748.159 86.0256 
L 749.513533 90.4608 
L 750.868067 88.56 
L 752.2226 85.0752 
L 753.577133 85.392 
L 756.2862 97.1136 
L 757.640733 88.8768 
L 758.995266 72.72 
L 760.3498 70.8192 
L 761.704333 71.136 
L 763.058866 57.1968 
L 764.4134 49.2768 
L 765.767933 53.0784 
L 767.122466 54.0288 
L 768.477 55.296 
L 769.831533 57.5136 
L 771.186066 56.5632 
L 772.5406 54.9792 
L 773.895133 58.1472 
L 775.249666 64.4832 
L 776.6042 61.632 
L 777.958733 56.5632 
L 779.313266 61.632 
L 780.667799 63.216 
L 782.022333 60.6816 
L 784.731399 67.0176 
L 786.085933 62.2656 
L 787.440466 60.3648 
L 788.794999 66.384 
L 790.149533 71.136 
L 791.504066 71.136 
L 792.858599 72.0864 
L 794.213133 74.304 
L 795.567666 76.2048 
L 796.922199 71.4528 
L 798.276733 65.4336 
L 799.631266 65.1168 
L 800.985799 65.4336 
L 802.340333 66.384 
L 803.694866 68.2848 
L 805.049399 61.3152 
L 806.403933 59.0976 
L 807.758466 65.1168 
L 809.112999 63.216 
L 810.467532 61.9488 
L 811.822066 66.7008 
L 813.176599 67.968 
L 814.531132 67.968 
L 815.885666 67.0176 
L 817.240199 63.8496 
L 818.594732 66.384 
L 819.949266 71.136 
L 821.303799 67.968 
L 822.658332 64.4832 
L 824.012866 65.1168 
L 825.367399 61.3152 
L 826.721932 56.5632 
L 828.076466 54.9792 
L 830.785532 66.0672 
L 832.140066 67.3344 
L 833.494599 68.2848 
L 834.849132 66.7008 
L 836.203665 65.4336 
L 837.558199 65.4336 
L 838.912732 61.9488 
L 840.267265 58.1472 
L 841.621799 58.464 
L 842.976332 67.968 
L 844.330865 75.2544 
L 845.685399 70.5024 
L 847.039932 71.7696 
L 848.394465 76.2048 
L 849.748999 72.0864 
L 851.103532 66.7008 
L 852.458065 64.8 
L 853.812599 64.1664 
L 855.167132 61.3152 
L 856.521665 61.9488 
L 857.876199 69.8688 
L 859.230732 68.2848 
L 860.585265 63.5328 
L 861.939799 67.0176 
L 863.294332 67.6512 
L 864.648865 65.7504 
L 866.003398 61.3152 
L 867.357932 56.2464 
L 868.712465 56.5632 
L 871.421532 55.9296 
L 872.776065 56.2464 
L 874.130598 54.9792 
L 875.485132 56.5632 
L 876.839665 61.9488 
L 878.194198 55.9296 
L 879.548732 48.0096 
L 880.903265 55.6128 
L 882.257798 60.3648 
L 883.612332 51.4944 
L 884.966865 50.544 
L 886.321398 51.8112 
L 887.675932 48.3264 
L 889.030465 50.2272 
L 890.384998 52.7616 
L 891.739531 55.9296 
L 893.094065 61.3152 
L 894.448598 61.3152 
L 895.803131 59.4144 
L 897.157665 66.7008 
L 898.512198 78.7392 
L 899.866731 84.7584 
L 901.221265 89.5104 
L 902.575798 90.7776 
L 903.930331 85.392 
L 905.284865 84.7584 
L 906.639398 87.2928 
L 907.993931 74.9376 
L 909.348465 65.7504 
L 910.702998 73.0368 
L 912.057531 73.0368 
L 913.412065 64.4832 
L 914.766598 62.8992 
L 916.121131 65.7504 
L 917.475665 66.7008 
L 918.830198 64.8 
L 920.184731 66.7008 
L 921.539264 70.1856 
L 922.893798 68.6016 
L 924.248331 63.8496 
L 925.602864 63.8496 
L 926.957398 62.8992 
L 928.311931 53.0784 
L 929.666464 45.1584 
L 931.020998 51.8112 
L 932.375531 69.8688 
L 933.730064 85.392 
L 935.084598 89.5104 
L 936.439131 85.0752 
L 937.793664 79.3728 
L 939.148198 79.3728 
L 940.502731 78.7392 
L 941.857264 69.2352 
L 943.211798 63.8496 
L 944.566331 67.3344 
L 945.920864 67.0176 
L 947.275397 62.2656 
L 948.629931 62.2656 
L 951.338997 73.3536 
L 952.693531 69.8688 
L 954.048064 62.8992 
L 955.402597 61.9488 
L 956.757131 59.7312 
L 958.111664 55.6128 
L 959.466197 56.5632 
L 960.820731 57.1968 
L 962.175264 53.0784 
L 963.529797 54.3456 
L 964.884331 56.88 
L 966.238864 54.3456 
L 967.593397 54.6624 
L 968.947931 51.1776 
L 970.302464 44.5248 
L 971.656997 47.6928 
L 973.011531 54.3456 
L 974.366064 52.7616 
L 975.720597 47.0592 
L 977.07513 49.5936 
L 978.429664 53.3952 
L 979.784197 52.128 
L 981.13873 60.9984 
L 982.493264 72.4032 
L 983.847797 74.6208 
L 985.20233 77.1552 
L 986.556864 80.64 
L 987.911397 75.2544 
L 989.26593 65.7504 
L 990.620464 63.8496 
L 991.974997 66.0672 
L 993.32953 62.2656 
L 994.684064 59.7312 
L 996.038597 67.968 
L 997.39313 72.0864 
L 998.747664 67.0176 
L 1000.102197 66.0672 
L 1001.45673 74.6208 
L 1002.811264 77.7888 
L 1004.165797 75.5712 
L 1005.52033 80.64 
L 1006.874863 81.5904 
L 1008.229397 67.6512 
L 1009.58393 58.1472 
L 1010.938463 66.7008 
L 1012.292997 72.4032 
L 1013.64753 71.136 
L 1015.002063 77.1552 
L 1016.356597 82.224 
L 1017.71113 82.5408 
L 1019.065663 75.5712 
L 1020.420197 57.8304 
L 1021.77473 52.128 
L 1023.129263 58.1472 
L 1024.483797 53.3952 
L 1025.83833 47.0592 
L 1027.192863 51.4944 
L 1028.547397 50.544 
L 1029.90193 48.3264 
L 1031.256463 49.2768 
L 1032.610996 50.544 
L 1033.96553 55.6128 
L 1035.320063 58.7808 
L 1036.674596 55.6128 
L 1038.02913 54.6624 
L 1039.383663 61.3152 
L 1040.738196 63.8496 
L 1042.09273 54.9792 
L 1043.447263 47.376 
L 1044.801796 54.3456 
L 1046.15633 59.4144 
L 1047.510863 59.0976 
L 1048.865396 59.7312 
L 1050.21993 60.9984 
L 1051.574463 63.5328 
L 1052.928996 67.968 
L 1054.28353 71.136 
L 1055.638063 65.1168 
L 1056.992596 61.3152 
L 1058.34713 67.3344 
L 1061.056196 76.8384 
L 1062.410729 87.9264 
L 1063.765263 96.1632 
L 1065.119796 95.5296 
L 1066.474329 90.144 
L 1067.828863 83.1744 
L 1069.183396 80.3232 
L 1070.537929 84.1248 
L 1071.892463 83.808 
L 1073.246996 78.7392 
L 1074.601529 77.7888 
L 1075.956063 80.0064 
L 1077.310596 78.7392 
L 1078.665129 74.6208 
L 1080.019663 74.6208 
L 1081.374196 73.0368 
L 1082.728729 64.4832 
L 1084.083263 59.4144 
L 1085.437796 65.1168 
L 1086.792329 69.8688 
L 1088.146862 62.8992 
L 1089.501396 58.464 
L 1090.855929 67.3344 
L 1092.210462 66.7008 
L 1093.564996 54.9792 
L 1094.919529 54.9792 
L 1096.274062 59.0976 
L 1097.628596 57.8304 
L 1098.983129 61.632 
L 1100.337662 61.9488 
L 1101.692196 54.9792 
L 1103.046729 48.96 
L 1104.401262 43.5744 
L 1105.755796 47.0592 
L 1107.110329 55.6128 
L 1108.464862 52.4448 
L 1109.819396 45.792 
L 1111.173929 48.0096 
L 1112.528462 51.1776 
L 1113.882996 54.9792 
L 1115.237529 56.88 
L 1116.592062 57.1968 
L 1117.946595 60.9984 
L 1119.301129 63.216 
L 1120.655662 57.5136 
L 1122.010195 50.544 
L 1123.364729 49.5936 
L 1124.719262 52.4448 
L 1126.073795 62.8992 
L 1127.428329 70.5024 
L 1130.137395 53.0784 
L 1131.491929 56.2464 
L 1132.846462 57.5136 
L 1134.200995 54.0288 
L 1135.555529 48.96 
L 1136.910062 42.624 
L 1138.264595 48.3264 
L 1139.619129 69.8688 
L 1140.973662 88.56 
L 1142.328195 94.896 
L 1143.682728 92.6784 
L 1145.037262 86.3424 
L 1146.391795 82.5408 
L 1147.746328 73.9872 
L 1149.100862 69.552 
L 1150.455395 79.056 
L 1151.809928 77.7888 
L 1153.164462 68.6016 
L 1154.518995 68.9184 
L 1155.873528 71.136 
L 1157.228062 70.5024 
L 1158.582595 73.9872 
L 1159.937128 77.1552 
L 1161.291662 74.304 
L 1162.646195 70.8192 
L 1164.000728 71.7696 
L 1165.355262 71.136 
L 1166.709795 62.5824 
L 1168.064328 57.1968 
L 1169.418862 62.5824 
L 1170.773395 62.8992 
L 1172.127928 58.7808 
L 1173.482461 59.4144 
L 1176.191528 63.216 
L 1177.546061 66.7008 
L 1178.900595 68.9184 
L 1180.255128 70.5024 
L 1181.609661 73.3536 
L 1182.964195 74.9376 
L 1184.318728 72.0864 
L 1185.673261 68.9184 
L 1187.027795 68.9184 
L 1188.382328 61.632 
L 1189.736861 56.2464 
L 1191.091395 65.4336 
L 1192.445928 70.5024 
L 1193.800461 64.8 
L 1195.154995 61.3152 
L 1196.509528 57.5136 
L 1197.864061 54.3456 
L 1199.218594 60.9984 
L 1200.573128 62.8992 
L 1201.927661 56.2464 
L 1203.282194 61.632 
L 1204.636728 68.6016 
L 1205.991261 60.6816 
L 1207.345794 55.296 
L 1208.700328 61.9488 
L 1210.054861 66.0672 
L 1211.409394 65.4336 
L 1212.763928 65.1168 
L 1214.118461 65.4336 
L 1215.472994 63.216 
L 1216.827528 58.1472 
L 1218.182061 58.1472 
L 1219.536594 63.216 
L 1220.891128 62.5824 
L 1222.245661 61.3152 
L 1223.600194 70.5024 
L 1224.954728 77.472 
L 1226.309261 73.3536 
L 1227.663794 74.9376 
L 1229.018327 76.8384 
L 1230.372861 67.968 
L 1231.727394 66.384 
L 1233.081927 70.8192 
L 1234.436461 67.0176 
L 1235.790994 60.3648 
L 1237.145527 57.8304 
L 1238.500061 64.4832 
L 1239.854594 69.2352 
L 1241.209127 65.7504 
L 1242.563661 63.216 
L 1243.918194 59.7312 
L 1245.272727 58.464 
L 1245.272727 58.464 
" clip-path="url(#p4f9b0070c1)" style="fill: none; stroke: #a9a9a9; stroke-width: 2; stroke-linecap: square"/>
   </g>
   <g id="line2d_2">
    <path d="M 287.617672 54.0288 
L 288.972205 53.3952 
L 290.326739 46.7424 
L 291.681272 48.3264 
L 293.035805 54.6624 
L 294.390339 48.3264 
L 295.744872 39.456 
L 297.099405 44.208 
L 298.453939 42.624 
L 299.808472 33.12 
L 301.163005 41.3568 
L 302.517539 57.5136 
L 303.872072 68.6016 
L 305.226605 82.5408 
L 306.581138 92.0448 
L 307.935672 90.7776 
L 309.290205 94.5792 
L 310.644738 95.8464 
L 311.999272 81.9072 
L 313.353805 73.9872 
L 314.708338 77.472 
L 316.062872 76.5216 
L 317.417405 80.64 
L 318.771938 91.728 
L 320.126472 87.6096 
L 321.481005 74.304 
L 322.835538 69.8688 
L 324.190072 69.552 
L 325.544605 60.9984 
L 326.899138 54.3456 
L 328.253672 67.3344 
L 329.608205 78.4224 
L 330.962738 69.552 
L 332.317272 67.968 
L 333.671805 69.552 
L 335.026338 60.9984 
L 336.380871 59.4144 
L 337.735405 64.1664 
L 339.089938 62.5824 
L 340.444471 61.3152 
" clip-path="url(#p4f9b0070c1)" style="fill: none; stroke: #edb120; stroke-width: 4; stroke-linecap: square"/>
   </g>
   <g id="line2d_3">
    <path d="M 539.560869 69.552 
L 540.915402 67.968 
L 542.269936 61.3152 
L 543.624469 61.3152 
L 544.979002 66.7008 
L 546.333536 64.4832 
L 547.688069 57.5136 
L 549.042602 56.2464 
L 550.397136 56.88 
L 551.751669 53.3952 
L 553.106202 52.7616 
L 554.460736 50.8608 
L 555.815269 51.1776 
L 557.169802 67.6512 
L 558.524335 83.808 
L 559.878869 86.976 
L 561.233402 84.1248 
L 562.587935 85.0752 
L 563.942469 82.224 
L 565.297002 73.0368 
L 566.651535 71.7696 
L 568.006069 76.2048 
L 569.360602 72.72 
L 570.715135 65.1168 
L 572.069669 64.1664 
L 573.424202 65.4336 
L 574.778735 58.7808 
L 576.133269 54.6624 
L 577.487802 58.1472 
L 578.842335 58.1472 
L 580.196869 58.7808 
L 581.551402 60.048 
L 582.905935 50.544 
L 584.260469 44.5248 
L 585.615002 46.7424 
L 586.969535 46.7424 
L 588.324068 46.7424 
L 589.678602 44.8416 
L 591.033135 36.6048 
L 592.387668 35.9712 
" clip-path="url(#p4f9b0070c1)" style="fill: none; stroke: #edb120; stroke-width: 4; stroke-linecap: square"/>
   </g>
  </g>
 </g>
 <defs>
  <clipPath id="p4f9b0070c1">
   <rect x="180" y="17.28" width="1116" height="110.88"/>
  </clipPath>
 </defs>
</svg>
