<?xml version="1.0" encoding="utf-8" standalone="no"?>
<!DOCTYPE svg PUBLIC "-//W3C//DTD SVG 1.1//EN"
  "http://www.w3.org/Graphics/SVG/1.1/DTD/svg11.dtd">
<svg xmlns:xlink="http://www.w3.org/1999/xlink" width="1440pt" height="144pt" viewBox="0 0 1440 144" xmlns="http://www.w3.org/2000/svg" version="1.1">
 <metadata>
  <rdf:RDF xmlns:dc="http://purl.org/dc/elements/1.1/" xmlns:cc="http://creativecommons.org/ns#" xmlns:rdf="http://www.w3.org/1999/02/22-rdf-syntax-ns#">
   <cc:Work>
    <dc:type rdf:resource="http://purl.org/dc/dcmitype/StillImage"/>
    <dc:date>2022-11-19T11:08:04.381698</dc:date>
    <dc:format>image/svg+xml</dc:format>
    <dc:creator>
     <cc:Agent>
      <dc:title>Matplotlib v3.5.2, https://matplotlib.org/</dc:title>
     </cc:Agent>
    </dc:creator>
   </cc:Work>
  </rdf:RDF>
 </metadata>
 <defs>
  <style type="text/css">*{stroke-linejoin: round; stroke-linecap: butt}</style>
 </defs>
 <g id="figure_1">
  <g id="patch_1">
   <path d="M 0 144 
L 1440 144 
L 1440 0 
L 0 0 
L 0 144 
z
" style="fill: none"/>
  </g>
  <g id="axes_1">
   <g id="line2d_1">
    <path d="M 230.727273 67.968 
L 232.081806 69.2352 
L 233.436339 68.2848 
L 236.145406 60.9984 
L 237.499939 60.048 
L 238.854473 62.2656 
L 240.209006 66.7008 
L 241.563539 69.8688 
L 242.918073 71.136 
L 244.272606 67.0176 
L 245.627139 58.7808 
L 246.981673 54.3456 
L 248.336206 56.88 
L 249.690739 57.1968 
L 251.045272 59.4144 
L 252.399806 69.2352 
L 253.754339 77.7888 
L 255.108872 80.3232 
L 256.463406 84.1248 
L 257.817939 83.808 
L 259.172472 75.888 
L 260.527006 72.72 
L 261.881539 77.7888 
L 263.236072 77.7888 
L 264.590606 68.2848 
L 265.945139 64.1664 
L 267.299672 67.6512 
L 268.654206 67.968 
L 270.008739 64.8 
L 271.363272 59.0976 
L 272.717806 57.8304 
L 274.072339 63.5328 
L 275.426872 63.8496 
L 276.781406 55.9296 
L 278.135939 52.4448 
L 279.490472 52.7616 
L 280.845005 55.9296 
L 282.199539 61.3152 
L 283.554072 60.048 
L 284.908605 54.3456 
L 286.263139 55.296 
L 287.617672 55.9296 
L 288.972205 49.2768 
L 290.326739 50.544 
L 291.681272 59.7312 
L 293.035805 59.7312 
L 294.390339 53.3952 
L 295.744872 52.7616 
L 297.099405 54.0288 
L 298.453939 48.6432 
L 299.808472 34.0704 
L 301.163005 32.8032 
L 302.517539 48.0096 
L 303.872072 56.2464 
L 305.226605 63.216 
L 306.581138 78.7392 
L 307.935672 85.0752 
L 309.290205 81.2736 
L 311.999272 86.976 
L 313.353805 81.2736 
L 314.708338 76.8384 
L 316.062872 78.1056 
L 317.417405 83.1744 
L 318.771938 88.8768 
L 320.126472 87.6096 
L 321.481005 81.2736 
L 322.835538 74.304 
L 324.190072 71.4528 
L 325.544605 69.8688 
L 326.899138 64.4832 
L 328.253672 63.8496 
L 329.608205 64.1664 
L 330.962738 58.7808 
L 332.317272 61.3152 
L 333.671805 65.1168 
L 335.026338 61.632 
L 336.380871 62.8992 
L 337.735405 67.3344 
L 339.089938 64.1664 
L 340.444471 62.2656 
L 341.799005 67.968 
L 343.153538 68.2848 
L 344.508071 61.632 
L 345.862605 64.4832 
L 347.217138 66.384 
L 348.571671 56.5632 
L 349.926205 60.6816 
L 351.280738 70.8192 
L 352.635271 67.3344 
L 353.989805 66.7008 
L 355.344338 67.3344 
L 356.698871 63.5328 
L 358.053405 66.0672 
L 359.407938 67.0176 
L 360.762471 60.9984 
L 362.117004 59.7312 
L 363.471538 61.632 
L 364.826071 65.4336 
L 366.180604 68.2848 
L 367.535138 67.3344 
L 368.889671 70.5024 
L 370.244204 70.1856 
L 371.598738 65.7504 
L 372.953271 64.4832 
L 374.307804 60.3648 
L 375.662338 56.88 
L 377.016871 61.3152 
L 378.371404 59.0976 
L 379.725938 54.0288 
L 381.080471 55.6128 
L 382.435004 57.5136 
L 383.789538 60.9984 
L 385.144071 63.8496 
L 386.498604 63.216 
L 387.853138 60.9984 
L 389.207671 55.9296 
L 390.562204 54.9792 
L 391.916737 57.8304 
L 393.271271 58.7808 
L 394.625804 59.4144 
L 395.980337 59.0976 
L 397.334871 61.9488 
L 398.689404 66.7008 
L 400.043937 62.5824 
L 401.398471 55.9296 
L 402.753004 59.7312 
L 404.107537 64.1664 
L 405.462071 65.7504 
L 406.816604 69.8688 
L 408.171137 72.0864 
L 410.880204 61.632 
L 412.234737 58.464 
L 413.589271 57.5136 
L 414.943804 56.88 
L 416.298337 60.6816 
L 417.65287 72.4032 
L 419.007404 79.6896 
L 420.361937 77.1552 
L 421.71647 77.7888 
L 423.071004 78.1056 
L 424.425537 74.9376 
L 425.78007 73.6704 
L 427.134604 66.7008 
L 428.489137 63.216 
L 429.84367 71.136 
L 431.198204 73.0368 
L 432.552737 66.384 
L 433.90727 66.7008 
L 435.261804 64.4832 
L 436.616337 58.464 
L 437.97087 57.1968 
L 439.325404 61.632 
L 440.679937 70.1856 
L 442.03447 74.9376 
L 444.743537 62.5824 
L 446.09807 63.216 
L 447.452603 64.8 
L 448.807137 64.8 
L 450.16167 68.9184 
L 451.516203 69.2352 
L 452.870737 65.4336 
L 454.22527 72.4032 
L 455.579803 75.5712 
L 456.934337 65.7504 
L 458.28887 64.1664 
L 459.643403 66.7008 
L 460.997937 64.1664 
L 462.35247 63.216 
L 463.707003 59.7312 
L 465.061537 59.4144 
L 466.41607 66.7008 
L 467.770603 65.7504 
L 469.125137 63.8496 
L 470.47967 68.6016 
L 473.188736 60.6816 
L 474.54327 63.8496 
L 475.897803 61.632 
L 477.252336 58.7808 
L 478.60687 64.8 
L 479.961403 66.0672 
L 481.315936 60.9984 
L 482.67047 61.632 
L 484.025003 63.5328 
L 485.379536 60.9984 
L 486.73407 62.8992 
L 488.088603 68.6016 
L 489.443136 70.1856 
L 492.152203 65.1168 
L 494.86127 62.5824 
L 496.215803 65.1168 
L 497.570336 63.216 
L 498.92487 50.8608 
L 500.279403 46.4256 
L 501.633936 54.0288 
L 502.988469 56.88 
L 504.343003 56.2464 
L 507.052069 67.0176 
L 509.761136 74.6208 
L 511.115669 74.9376 
L 512.470203 70.1856 
L 516.533803 58.464 
L 517.888336 56.2464 
L 519.242869 51.4944 
L 520.597403 49.5936 
L 521.951936 58.7808 
L 523.306469 63.8496 
L 524.661003 59.4144 
L 526.015536 62.8992 
L 527.370069 72.4032 
L 528.724603 78.4224 
L 530.079136 81.9072 
L 531.433669 83.1744 
L 532.788202 80.64 
L 534.142736 77.1552 
L 535.497269 74.304 
L 536.851802 72.4032 
L 538.206336 71.7696 
L 539.560869 73.0368 
L 540.915402 73.3536 
L 542.269936 70.8192 
L 543.624469 64.8 
L 544.979002 60.048 
L 546.333536 59.0976 
L 547.688069 60.3648 
L 549.042602 57.8304 
L 550.397136 52.7616 
L 551.751669 49.9104 
L 553.106202 51.4944 
L 554.460736 50.2272 
L 555.815269 51.4944 
L 557.169802 56.88 
L 558.524335 61.632 
L 559.878869 68.6016 
L 561.233402 73.3536 
L 562.587935 71.4528 
L 563.942469 69.2352 
L 565.297002 70.1856 
L 566.651535 71.7696 
L 568.006069 75.5712 
L 569.360602 76.2048 
L 570.715135 69.8688 
L 572.069669 65.7504 
L 573.424202 68.9184 
L 574.778735 68.2848 
L 576.133269 61.632 
L 577.487802 57.8304 
L 578.842335 59.0976 
L 580.196869 62.2656 
L 581.551402 60.048 
L 582.905935 52.7616 
L 584.260469 56.2464 
L 585.615002 60.6816 
L 586.969535 53.712 
L 588.324068 49.9104 
L 589.678602 52.4448 
L 592.387668 29.6352 
L 593.742202 45.792 
L 595.096735 73.6704 
L 596.451268 83.4912 
L 597.805802 84.7584 
L 599.160335 84.4416 
L 600.514868 79.056 
L 601.869402 81.5904 
L 603.223935 89.1936 
L 604.578468 92.0448 
L 605.933002 86.6592 
L 607.287535 77.472 
L 608.642068 75.888 
L 609.996602 75.5712 
L 611.351135 69.8688 
L 612.705668 69.8688 
L 614.060201 72.4032 
L 616.769268 65.4336 
L 618.123801 64.8 
L 619.478335 59.0976 
L 620.832868 55.6128 
L 622.187401 60.3648 
L 623.541935 60.9984 
L 624.896468 58.7808 
L 626.251001 60.048 
L 627.605535 61.9488 
L 630.314601 60.048 
L 631.669135 60.048 
L 633.023668 62.5824 
L 634.378201 64.4832 
L 635.732735 62.2656 
L 637.087268 56.5632 
L 638.441801 55.6128 
L 639.796335 59.0976 
L 641.150868 55.6128 
L 642.505401 48.6432 
L 643.859934 47.6928 
L 645.214468 50.8608 
L 646.569001 50.2272 
L 647.923534 50.2272 
L 649.278068 54.3456 
L 650.632601 60.048 
L 651.987134 67.968 
L 653.341668 73.3536 
L 654.696201 70.1856 
L 656.050734 61.9488 
L 657.405268 61.9488 
L 658.759801 68.2848 
L 660.114334 67.6512 
L 661.468868 64.8 
L 662.823401 65.1168 
L 664.177934 65.7504 
L 665.532468 70.5024 
L 666.887001 75.888 
L 668.241534 75.2544 
L 669.596067 73.6704 
L 670.950601 70.5024 
L 672.305134 66.384 
L 673.659667 67.968 
L 675.014201 70.5024 
L 676.368734 69.552 
L 679.077801 66.384 
L 680.432334 66.0672 
L 681.786867 67.0176 
L 683.141401 68.9184 
L 684.495934 69.552 
L 685.850467 66.0672 
L 687.205001 60.9984 
L 688.559534 62.2656 
L 689.914067 73.6704 
L 691.268601 75.5712 
L 692.623134 65.4336 
L 693.977667 60.6816 
L 695.332201 60.3648 
L 696.686734 63.216 
L 698.041267 72.0864 
L 699.3958 76.2048 
L 700.750334 76.2048 
L 702.104867 78.1056 
L 703.4594 75.888 
L 704.813934 72.0864 
L 706.168467 72.4032 
L 708.877534 64.8 
L 710.232067 66.7008 
L 711.5866 62.2656 
L 712.941134 55.9296 
L 714.295667 58.1472 
L 715.6502 59.4144 
L 717.004734 54.3456 
L 718.359267 53.3952 
L 719.7138 60.3648 
L 721.068334 64.8 
L 722.422867 62.2656 
L 723.7774 58.464 
L 725.131933 52.128 
L 726.486467 44.5248 
L 727.841 44.8416 
L 729.195533 51.4944 
L 730.550067 52.4448 
L 731.9046 48.96 
L 733.259133 47.376 
L 734.613667 44.8416 
L 735.9682 47.0592 
L 737.322733 52.7616 
L 738.677267 59.7312 
L 740.0318 68.6016 
L 741.386333 71.4528 
L 742.740867 69.552 
L 744.0954 69.2352 
L 745.449933 65.1168 
L 746.804467 65.4336 
L 749.513533 91.728 
L 750.868067 97.1136 
L 752.2226 93.6288 
L 753.577133 86.3424 
L 754.931666 87.6096 
L 756.2862 94.2624 
L 757.640733 91.4112 
L 758.995266 81.2736 
L 760.3498 78.7392 
L 761.704333 75.888 
L 763.058866 64.4832 
L 764.4134 55.9296 
L 765.767933 53.0784 
L 767.122466 56.88 
L 768.477 58.1472 
L 769.831533 48.3264 
L 771.186066 43.8912 
L 775.249666 58.7808 
L 776.6042 58.1472 
L 777.958733 53.3952 
L 779.313266 51.4944 
L 780.667799 53.0784 
L 782.022333 55.296 
L 783.376866 59.0976 
L 784.731399 65.4336 
L 786.085933 63.8496 
L 787.440466 58.1472 
L 788.794999 60.048 
L 790.149533 64.8 
L 791.504066 64.1664 
L 792.858599 65.7504 
L 794.213133 70.8192 
L 795.567666 74.304 
L 796.922199 71.4528 
L 798.276733 68.2848 
L 799.631266 69.2352 
L 800.985799 67.968 
L 802.340333 66.0672 
L 803.694866 66.384 
L 805.049399 60.9984 
L 806.403933 58.464 
L 807.758466 63.8496 
L 809.112999 67.3344 
L 810.467532 66.0672 
L 811.822066 66.7008 
L 813.176599 67.968 
L 814.531132 68.2848 
L 815.885666 67.968 
L 817.240199 64.8 
L 818.594732 66.384 
L 819.949266 72.0864 
L 821.303799 66.7008 
L 822.658332 60.6816 
L 824.012866 64.8 
L 825.367399 67.3344 
L 826.721932 67.0176 
L 828.076466 65.7504 
L 829.430999 65.4336 
L 830.785532 64.4832 
L 832.140066 60.048 
L 833.494599 62.2656 
L 834.849132 67.6512 
L 836.203665 65.4336 
L 837.558199 61.632 
L 838.912732 60.048 
L 840.267265 60.9984 
L 841.621799 69.2352 
L 842.976332 75.888 
L 844.330865 74.6208 
L 845.685399 73.6704 
L 847.039932 71.136 
L 848.394465 67.968 
L 851.103532 74.9376 
L 852.458065 77.1552 
L 853.812599 75.2544 
L 855.167132 65.1168 
L 856.521665 61.9488 
L 857.876199 66.7008 
L 859.230732 63.216 
L 860.585265 62.5824 
L 861.939799 66.384 
L 863.294332 63.8496 
L 864.648865 64.4832 
L 866.003398 67.3344 
L 867.357932 63.5328 
L 868.712465 62.8992 
L 870.066998 63.216 
L 871.421532 60.9984 
L 872.776065 60.6816 
L 874.130598 59.4144 
L 875.485132 51.8112 
L 876.839665 49.2768 
L 878.194198 50.2272 
L 879.548732 49.2768 
L 880.903265 53.3952 
L 882.257798 54.9792 
L 883.612332 50.2272 
L 884.966865 54.9792 
L 886.321398 57.8304 
L 887.675932 51.1776 
L 889.030465 50.8608 
L 890.384998 52.4448 
L 891.739531 49.2768 
L 893.094065 53.0784 
L 894.448598 61.3152 
L 895.803131 62.8992 
L 897.157665 60.6816 
L 898.512198 67.0176 
L 899.866731 81.2736 
L 901.221265 84.4416 
L 902.575798 78.4224 
L 905.284865 75.888 
L 906.639398 71.136 
L 907.993931 70.5024 
L 909.348465 72.72 
L 910.702998 72.4032 
L 912.057531 73.3536 
L 913.412065 72.72 
L 914.766598 66.7008 
L 916.121131 61.3152 
L 918.830198 65.7504 
L 920.184731 68.2848 
L 921.539264 73.9872 
L 922.893798 76.5216 
L 925.602864 68.6016 
L 926.957398 66.7008 
L 928.311931 62.2656 
L 929.666464 52.128 
L 931.020998 48.6432 
L 932.375531 59.0976 
L 933.730064 73.9872 
L 935.084598 87.2928 
L 936.439131 88.56 
L 937.793664 82.224 
L 939.148198 84.7584 
L 940.502731 82.5408 
L 941.857264 71.7696 
L 943.211798 70.5024 
L 944.566331 71.7696 
L 945.920864 64.8 
L 947.275397 62.2656 
L 948.629931 69.2352 
L 949.984464 71.7696 
L 951.338997 68.2848 
L 952.693531 63.216 
L 954.048064 56.5632 
L 955.402597 53.3952 
L 956.757131 59.4144 
L 958.111664 64.4832 
L 959.466197 58.464 
L 960.820731 50.8608 
L 962.175264 47.0592 
L 963.529797 48.96 
L 964.884331 56.2464 
L 966.238864 60.9984 
L 967.593397 58.464 
L 968.947931 53.712 
L 971.656997 51.8112 
L 973.011531 49.5936 
L 974.366064 48.3264 
L 975.720597 48.3264 
L 977.07513 49.5936 
L 979.784197 46.4256 
L 981.13873 51.4944 
L 982.493264 52.7616 
L 983.847797 56.88 
L 985.20233 72.0864 
L 986.556864 82.224 
L 987.911397 81.9072 
L 989.26593 77.7888 
L 990.620464 69.2352 
L 991.974997 67.0176 
L 993.32953 73.3536 
L 994.684064 73.6704 
L 996.038597 74.9376 
L 997.39313 80.9568 
L 998.747664 81.9072 
L 1000.102197 80.0064 
L 1001.45673 82.8576 
L 1002.811264 78.1056 
L 1004.165797 72.0864 
L 1005.52033 76.5216 
L 1006.874863 74.6208 
L 1008.229397 64.8 
L 1009.58393 63.216 
L 1010.938463 64.8 
L 1012.292997 65.4336 
L 1013.64753 70.5024 
L 1015.002063 74.9376 
L 1016.356597 77.1552 
L 1017.71113 76.5216 
L 1019.065663 68.9184 
L 1020.420197 56.5632 
L 1021.77473 54.6624 
L 1023.129263 60.3648 
L 1024.483797 59.7312 
L 1025.83833 54.6624 
L 1027.192863 50.544 
L 1028.547397 47.6928 
L 1031.256463 56.5632 
L 1032.610996 55.6128 
L 1033.96553 54.9792 
L 1035.320063 58.1472 
L 1038.02913 63.216 
L 1039.383663 67.6512 
L 1040.738196 65.1168 
L 1042.09273 54.0288 
L 1043.447263 47.6928 
L 1044.801796 52.4448 
L 1046.15633 58.1472 
L 1047.510863 59.7312 
L 1048.865396 59.0976 
L 1050.21993 52.128 
L 1051.574463 46.1088 
L 1052.928996 55.6128 
L 1054.28353 66.384 
L 1055.638063 58.7808 
L 1056.992596 60.3648 
L 1058.34713 73.9872 
L 1059.701663 70.8192 
L 1061.056196 60.6816 
L 1062.410729 65.7504 
L 1063.765263 80.0064 
L 1065.119796 86.976 
L 1066.474329 82.5408 
L 1067.828863 77.472 
L 1070.537929 88.8768 
L 1071.892463 84.4416 
L 1073.246996 78.1056 
L 1074.601529 76.8384 
L 1075.956063 81.2736 
L 1077.310596 84.7584 
L 1078.665129 80.9568 
L 1080.019663 73.3536 
L 1081.374196 68.2848 
L 1082.728729 64.4832 
L 1084.083263 61.632 
L 1085.437796 65.4336 
L 1086.792329 72.72 
L 1088.146862 68.9184 
L 1089.501396 59.0976 
L 1090.855929 61.632 
L 1092.210462 67.3344 
L 1094.919529 57.8304 
L 1096.274062 63.8496 
L 1097.628596 67.3344 
L 1098.983129 58.7808 
L 1100.337662 53.712 
L 1101.692196 60.9984 
L 1103.046729 65.1168 
L 1104.401262 61.632 
L 1105.755796 62.5824 
L 1107.110329 63.8496 
L 1108.464862 60.9984 
L 1109.819396 53.3952 
L 1111.173929 49.2768 
L 1112.528462 54.6624 
L 1113.882996 59.4144 
L 1115.237529 56.88 
L 1116.592062 58.1472 
L 1117.946595 66.7008 
L 1119.301129 68.9184 
L 1120.655662 65.4336 
L 1122.010195 62.2656 
L 1123.364729 56.2464 
L 1124.719262 55.9296 
L 1126.073795 63.216 
L 1127.428329 58.1472 
L 1128.782862 47.376 
L 1130.137395 46.4256 
L 1131.491929 50.544 
L 1132.846462 57.8304 
L 1134.200995 60.6816 
L 1135.555529 53.3952 
L 1136.910062 41.9904 
L 1138.264595 40.0896 
L 1139.619129 54.0288 
L 1140.973662 70.8192 
L 1142.328195 80.3232 
L 1143.682728 79.3728 
L 1145.037262 72.0864 
L 1146.391795 70.8192 
L 1147.746328 72.72 
L 1149.100862 73.0368 
L 1150.455395 79.056 
L 1151.809928 83.4912 
L 1153.164462 78.1056 
L 1154.518995 71.7696 
L 1155.873528 68.9184 
L 1157.228062 70.5024 
L 1158.582595 75.888 
L 1159.937128 77.1552 
L 1161.291662 71.7696 
L 1162.646195 68.6016 
L 1164.000728 70.1856 
L 1165.355262 70.8192 
L 1166.709795 67.968 
L 1168.064328 62.5824 
L 1169.418862 59.0976 
L 1170.773395 59.4144 
L 1172.127928 61.632 
L 1173.482461 61.9488 
L 1174.836995 58.7808 
L 1176.191528 53.0784 
L 1177.546061 56.88 
L 1178.900595 65.4336 
L 1180.255128 65.4336 
L 1181.609661 64.1664 
L 1182.964195 68.6016 
L 1184.318728 69.552 
L 1185.673261 68.9184 
L 1187.027795 72.72 
L 1188.382328 73.6704 
L 1189.736861 67.6512 
L 1191.091395 62.2656 
L 1192.445928 60.6816 
L 1193.800461 60.9984 
L 1195.154995 60.6816 
L 1196.509528 59.0976 
L 1197.864061 60.6816 
L 1199.218594 66.384 
L 1200.573128 68.9184 
L 1201.927661 62.8992 
L 1203.282194 62.5824 
L 1204.636728 68.6016 
L 1205.991261 63.216 
L 1207.345794 56.88 
L 1208.700328 64.1664 
L 1210.054861 67.968 
L 1211.409394 60.9984 
L 1212.763928 61.3152 
L 1214.118461 70.1856 
L 1215.472994 68.9184 
L 1216.827528 63.5328 
L 1218.182061 63.8496 
L 1219.536594 65.4336 
L 1220.891128 66.7008 
L 1222.245661 69.552 
L 1223.600194 73.6704 
L 1224.954728 75.2544 
L 1226.309261 77.472 
L 1227.663794 80.64 
L 1229.018327 73.6704 
L 1230.372861 64.8 
L 1231.727394 65.4336 
L 1233.081927 66.384 
L 1234.436461 64.8 
L 1235.790994 65.1168 
L 1237.145527 65.1168 
L 1238.500061 69.8688 
L 1239.854594 76.5216 
L 1241.209127 72.0864 
L 1242.563661 62.5824 
L 1243.918194 60.9984 
L 1245.272727 62.2656 
L 1245.272727 62.2656 
" clip-path="url(#pf459cd8b25)" style="fill: none; stroke: #a9a9a9; stroke-width: 2.5; stroke-linecap: square"/>
   </g>
   <g id="line2d_2">
    <path d="M 280.845005 55.9296 
L 282.199539 61.3152 
L 283.554072 60.048 
L 284.908605 54.3456 
L 286.263139 55.296 
L 287.617672 55.9296 
L 288.972205 49.2768 
L 290.326739 50.544 
L 291.681272 59.7312 
L 293.035805 59.7312 
L 294.390339 53.3952 
L 295.744872 52.7616 
L 297.099405 54.0288 
L 298.453939 48.6432 
L 299.808472 34.0704 
L 301.163005 32.8032 
L 302.517539 48.0096 
L 303.872072 56.2464 
L 305.226605 63.216 
L 306.581138 78.7392 
L 307.935672 85.0752 
L 309.290205 81.2736 
L 310.644738 84.1248 
L 311.999272 86.976 
L 313.353805 81.2736 
L 314.708338 76.8384 
L 316.062872 78.1056 
L 317.417405 83.1744 
L 318.771938 88.8768 
L 320.126472 87.6096 
L 321.481005 81.2736 
L 322.835538 74.304 
L 324.190072 71.4528 
L 325.544605 69.8688 
L 326.899138 64.4832 
L 328.253672 63.8496 
L 329.608205 64.1664 
L 330.962738 58.7808 
L 332.317272 61.3152 
L 333.671805 65.1168 
L 335.026338 61.632 
L 336.380871 62.8992 
L 337.735405 67.3344 
L 339.089938 64.1664 
L 340.444471 62.2656 
L 341.799005 67.968 
L 343.153538 68.2848 
L 344.508071 61.632 
L 345.862605 64.4832 
L 347.217138 66.384 
L 348.571671 56.5632 
L 349.926205 60.6816 
L 351.280738 70.8192 
L 352.635271 67.3344 
L 353.989805 66.7008 
L 355.344338 67.3344 
L 356.698871 63.5328 
L 358.053405 66.0672 
L 359.407938 67.0176 
L 360.762471 60.9984 
L 362.117004 59.7312 
L 363.471538 61.632 
L 364.826071 65.4336 
L 366.180604 68.2848 
L 367.535138 67.3344 
L 368.889671 70.5024 
L 370.244204 70.1856 
L 371.598738 65.7504 
L 372.953271 64.4832 
L 374.307804 60.3648 
" clip-path="url(#pf459cd8b25)" style="fill: none; stroke: #edb120; stroke-width: 5; stroke-linecap: square"/>
   </g>
   <g id="line2d_3">
    <path d="M 532.788202 80.64 
L 534.142736 77.1552 
L 535.497269 74.304 
L 536.851802 72.4032 
L 538.206336 71.7696 
L 539.560869 73.0368 
L 540.915402 73.3536 
L 542.269936 70.8192 
L 543.624469 64.8 
L 544.979002 60.048 
L 546.333536 59.0976 
L 547.688069 60.3648 
L 549.042602 57.8304 
L 550.397136 52.7616 
L 551.751669 49.9104 
L 553.106202 51.4944 
L 554.460736 50.2272 
L 555.815269 51.4944 
L 557.169802 56.88 
L 558.524335 61.632 
L 559.878869 68.6016 
L 561.233402 73.3536 
L 562.587935 71.4528 
L 563.942469 69.2352 
L 565.297002 70.1856 
L 566.651535 71.7696 
L 568.006069 75.5712 
L 569.360602 76.2048 
L 570.715135 69.8688 
L 572.069669 65.7504 
L 573.424202 68.9184 
L 574.778735 68.2848 
L 576.133269 61.632 
L 577.487802 57.8304 
L 578.842335 59.0976 
L 580.196869 62.2656 
L 581.551402 60.048 
L 582.905935 52.7616 
L 584.260469 56.2464 
L 585.615002 60.6816 
L 586.969535 53.712 
L 588.324068 49.9104 
L 589.678602 52.4448 
L 591.033135 41.3568 
L 592.387668 29.6352 
L 593.742202 45.792 
L 595.096735 73.6704 
L 596.451268 83.4912 
L 597.805802 84.7584 
L 599.160335 84.4416 
L 600.514868 79.056 
L 601.869402 81.5904 
L 603.223935 89.1936 
L 604.578468 92.0448 
L 605.933002 86.6592 
L 607.287535 77.472 
L 608.642068 75.888 
L 609.996602 75.5712 
L 611.351135 69.8688 
L 612.705668 69.8688 
L 614.060201 72.4032 
L 615.414735 68.9184 
L 616.769268 65.4336 
L 618.123801 64.8 
L 619.478335 59.0976 
L 620.832868 55.6128 
L 622.187401 60.3648 
L 623.541935 60.9984 
L 624.896468 58.7808 
L 626.251001 60.048 
" clip-path="url(#pf459cd8b25)" style="fill: none; stroke: #edb120; stroke-width: 5; stroke-linecap: square"/>
   </g>
  </g>
 </g>
 <defs>
  <clipPath id="pf459cd8b25">
   <rect x="180" y="17.28" width="1116" height="110.88"/>
  </clipPath>
 </defs>
</svg>
