<?xml version="1.0" encoding="utf-8" standalone="no"?>
<!DOCTYPE svg PUBLIC "-//W3C//DTD SVG 1.1//EN"
  "http://www.w3.org/Graphics/SVG/1.1/DTD/svg11.dtd">
<svg xmlns:xlink="http://www.w3.org/1999/xlink" width="1440pt" height="144pt" viewBox="0 0 1440 144" xmlns="http://www.w3.org/2000/svg" version="1.1">
 <metadata>
  <rdf:RDF xmlns:dc="http://purl.org/dc/elements/1.1/" xmlns:cc="http://creativecommons.org/ns#" xmlns:rdf="http://www.w3.org/1999/02/22-rdf-syntax-ns#">
   <cc:Work>
    <dc:type rdf:resource="http://purl.org/dc/dcmitype/StillImage"/>
    <dc:date>2022-11-16T18:16:28.996401</dc:date>
    <dc:format>image/svg+xml</dc:format>
    <dc:creator>
     <cc:Agent>
      <dc:title>Matplotlib v3.5.2, https://matplotlib.org/</dc:title>
     </cc:Agent>
    </dc:creator>
   </cc:Work>
  </rdf:RDF>
 </metadata>
 <defs>
  <style type="text/css">*{stroke-linejoin: round; stroke-linecap: butt}</style>
 </defs>
 <g id="figure_1">
  <g id="patch_1">
   <path d="M 0 144 
L 1440 144 
L 1440 0 
L 0 0 
L 0 144 
z
" style="fill: none"/>
  </g>
  <g id="axes_1">
   <g id="line2d_1">
    <path d="M 230.727273 61.3152 
L 232.081806 56.5632 
L 233.436339 49.5936 
L 234.790873 48.96 
L 236.145406 56.5632 
L 237.499939 65.7504 
L 238.854473 63.8496 
L 240.209006 61.3152 
L 241.563539 66.0672 
L 242.918073 67.0176 
L 245.627139 67.0176 
L 246.981673 66.0672 
L 248.336206 67.3344 
L 249.690739 66.0672 
L 251.045272 69.8688 
L 252.399806 79.056 
L 253.754339 77.472 
L 255.108872 72.4032 
L 256.463406 75.5712 
L 257.817939 77.7888 
L 259.172472 74.9376 
L 261.881539 83.1744 
L 263.236072 79.3728 
L 265.945139 69.552 
L 267.299672 65.4336 
L 268.654206 67.968 
L 270.008739 68.6016 
L 271.363272 58.464 
L 272.717806 50.2272 
L 274.072339 57.1968 
L 275.426872 60.9984 
L 276.781406 55.296 
L 278.135939 58.1472 
L 279.490472 63.216 
L 280.845005 56.2464 
L 282.199539 49.9104 
L 283.554072 52.128 
L 284.908605 50.544 
L 286.263139 44.8416 
L 287.617672 45.4752 
L 288.972205 47.0592 
L 290.326739 40.4064 
L 291.681272 35.6544 
L 293.035805 34.704 
L 294.390339 35.6544 
L 297.099405 63.216 
L 298.453939 59.7312 
L 299.808472 61.632 
L 301.163005 69.552 
L 302.517539 66.0672 
L 303.872072 68.9184 
L 305.226605 82.8576 
L 306.581138 85.392 
L 307.935672 83.808 
L 309.290205 86.976 
L 310.644738 86.6592 
L 313.353805 77.7888 
L 314.708338 75.5712 
L 316.062872 74.304 
L 317.417405 76.5216 
L 318.771938 76.5216 
L 320.126472 65.7504 
L 321.481005 58.7808 
L 322.835538 61.9488 
L 324.190072 63.8496 
L 325.544605 67.0176 
L 326.899138 75.2544 
L 328.253672 85.0752 
L 329.608205 87.6096 
L 330.962738 81.2736 
L 332.317272 75.888 
L 333.671805 71.136 
L 335.026338 64.1664 
L 336.380871 62.5824 
L 337.735405 62.8992 
L 339.089938 62.5824 
L 341.799005 75.5712 
L 343.153538 69.8688 
L 344.508071 60.3648 
L 345.862605 58.464 
L 347.217138 64.1664 
L 348.571671 63.8496 
L 349.926205 60.048 
L 351.280738 65.4336 
L 352.635271 62.5824 
L 353.989805 49.5936 
L 355.344338 53.0784 
L 356.698871 59.4144 
L 358.053405 54.9792 
L 359.407938 56.2464 
L 360.762471 55.296 
L 362.117004 49.2768 
L 363.471538 55.6128 
L 364.826071 66.384 
L 366.180604 68.6016 
L 367.535138 66.7008 
L 368.889671 72.4032 
L 370.244204 78.7392 
L 371.598738 78.1056 
L 372.953271 77.1552 
L 374.307804 72.4032 
L 375.662338 62.5824 
L 377.016871 56.88 
L 378.371404 60.048 
L 379.725938 64.1664 
L 381.080471 58.1472 
L 382.435004 50.544 
L 383.789538 54.3456 
L 385.144071 63.216 
L 386.498604 67.6512 
L 387.853138 65.1168 
L 389.207671 60.3648 
L 390.562204 56.5632 
L 391.916737 54.3456 
L 393.271271 52.7616 
L 394.625804 51.4944 
L 395.980337 50.8608 
L 397.334871 48.6432 
L 398.689404 53.712 
L 400.043937 60.9984 
L 401.398471 58.1472 
L 402.753004 56.88 
L 404.107537 64.4832 
L 405.462071 67.6512 
L 406.816604 59.7312 
L 408.171137 54.9792 
L 409.525671 59.0976 
L 410.880204 65.4336 
L 412.234737 74.6208 
L 413.589271 77.7888 
L 414.943804 70.5024 
L 416.298337 66.7008 
L 417.65287 69.2352 
L 419.007404 68.9184 
L 420.361937 66.7008 
L 423.071004 80.9568 
L 425.78007 66.7008 
L 427.134604 72.4032 
L 428.489137 76.2048 
L 429.84367 70.1856 
L 431.198204 70.8192 
L 432.552737 73.0368 
L 433.90727 67.6512 
L 435.261804 66.7008 
L 436.616337 70.5024 
L 437.97087 65.4336 
L 439.325404 58.7808 
L 440.679937 64.4832 
L 442.03447 69.552 
L 443.389004 67.968 
L 444.743537 68.6016 
L 446.09807 71.136 
L 447.452603 75.2544 
L 448.807137 77.1552 
L 450.16167 72.4032 
L 451.516203 70.8192 
L 452.870737 73.6704 
L 454.22527 67.0176 
L 455.579803 62.5824 
L 456.934337 61.9488 
L 458.28887 62.5824 
L 459.643403 64.4832 
L 460.997937 61.3152 
L 462.35247 60.6816 
L 463.707003 61.632 
L 465.061537 62.2656 
L 466.41607 71.136 
L 467.770603 75.5712 
L 469.125137 71.136 
L 470.47967 69.552 
L 471.834203 70.8192 
L 473.188736 72.4032 
L 474.54327 68.9184 
L 475.897803 60.9984 
L 477.252336 55.9296 
L 478.60687 56.5632 
L 479.961403 57.5136 
L 481.315936 51.1776 
L 482.67047 46.7424 
L 484.025003 50.544 
L 485.379536 55.296 
L 486.73407 59.0976 
L 488.088603 54.6624 
L 489.443136 48.6432 
L 490.79767 52.128 
L 492.152203 56.2464 
L 493.506736 54.6624 
L 494.86127 52.7616 
L 496.215803 59.0976 
L 497.570336 66.7008 
L 498.92487 65.4336 
L 500.279403 63.216 
L 501.633936 65.1168 
L 502.988469 64.1664 
L 504.343003 67.6512 
L 505.697536 71.4528 
L 507.052069 66.0672 
L 508.406603 61.9488 
L 509.761136 63.5328 
L 511.115669 67.0176 
L 512.470203 69.2352 
L 513.824736 67.3344 
L 515.179269 66.0672 
L 516.533803 63.8496 
L 517.888336 61.9488 
L 519.242869 69.8688 
L 520.597403 73.3536 
L 521.951936 67.3344 
L 523.306469 69.552 
L 524.661003 79.3728 
L 526.015536 79.6896 
L 527.370069 74.6208 
L 528.724603 75.2544 
L 530.079136 73.0368 
L 531.433669 65.7504 
L 532.788202 61.632 
L 534.142736 65.4336 
L 535.497269 76.2048 
L 536.851802 81.2736 
L 538.206336 73.0368 
L 539.560869 62.5824 
L 540.915402 63.8496 
L 542.269936 66.384 
L 543.624469 55.9296 
L 544.979002 43.8912 
L 546.333536 44.5248 
L 547.688069 55.9296 
L 549.042602 65.1168 
L 550.397136 62.8992 
L 551.751669 56.2464 
L 553.106202 53.3952 
L 554.460736 55.296 
L 555.815269 66.7008 
L 557.169802 81.2736 
L 558.524335 85.0752 
L 559.878869 82.8576 
L 561.233402 81.5904 
L 562.587935 84.7584 
L 563.942469 82.8576 
L 565.297002 69.2352 
L 566.651535 64.8 
L 568.006069 63.216 
L 569.360602 50.544 
L 570.715135 49.9104 
L 572.069669 60.6816 
L 573.424202 60.9984 
L 576.133269 46.1088 
L 577.487802 45.1584 
L 578.842335 46.4256 
L 580.196869 42.624 
L 581.551402 42.9408 
L 582.905935 53.0784 
L 584.260469 58.464 
L 585.615002 58.7808 
L 586.969535 62.5824 
L 588.324068 60.6816 
L 589.678602 53.0784 
L 591.033135 50.2272 
L 592.387668 58.7808 
L 593.742202 72.4032 
L 595.096735 84.1248 
L 596.451268 84.7584 
L 597.805802 82.5408 
L 599.160335 84.7584 
L 600.514868 82.5408 
L 601.869402 80.64 
L 603.223935 87.2928 
L 604.578468 84.7584 
L 605.933002 75.5712 
L 608.642068 73.6704 
L 609.996602 69.8688 
L 611.351135 67.6512 
L 612.705668 66.0672 
L 614.060201 64.1664 
L 616.769268 57.8304 
L 618.123801 58.464 
L 619.478335 55.6128 
L 620.832868 56.2464 
L 622.187401 64.4832 
L 623.541935 62.8992 
L 624.896468 57.8304 
L 627.605535 64.1664 
L 628.960068 60.3648 
L 630.314601 60.6816 
L 631.669135 68.6016 
L 633.023668 67.0176 
L 634.378201 58.1472 
L 635.732735 63.8496 
L 637.087268 74.304 
L 638.441801 72.4032 
L 639.796335 71.4528 
L 641.150868 70.1856 
L 642.505401 66.7008 
L 643.859934 64.1664 
L 645.214468 60.6816 
L 646.569001 58.7808 
L 647.923534 60.3648 
L 649.278068 60.048 
L 650.632601 61.9488 
L 651.987134 67.3344 
L 653.341668 64.8 
L 654.696201 58.7808 
L 656.050734 59.4144 
L 657.405268 58.7808 
L 658.759801 56.88 
L 660.114334 61.632 
L 661.468868 64.4832 
L 662.823401 58.464 
L 664.177934 56.5632 
L 665.532468 60.6816 
L 666.887001 63.216 
L 668.241534 68.9184 
L 669.596067 73.3536 
L 670.950601 72.72 
L 672.305134 66.384 
L 673.659667 54.3456 
L 675.014201 58.1472 
L 676.368734 73.9872 
L 677.723267 70.1856 
L 679.077801 61.632 
L 680.432334 67.3344 
L 681.786867 68.2848 
L 683.141401 66.0672 
L 684.495934 73.0368 
L 685.850467 74.304 
L 687.205001 67.968 
L 688.559534 69.8688 
L 689.914067 72.4032 
L 691.268601 66.7008 
L 692.623134 62.2656 
L 693.977667 65.4336 
L 695.332201 70.1856 
L 696.686734 69.2352 
L 698.041267 62.5824 
L 699.3958 61.9488 
L 702.104867 67.0176 
L 703.4594 70.5024 
L 704.813934 67.0176 
L 706.168467 59.7312 
L 707.523 56.88 
L 708.877534 53.712 
L 710.232067 50.2272 
L 712.941134 50.2272 
L 714.295667 56.88 
L 715.6502 66.7008 
L 717.004734 64.8 
L 718.359267 61.9488 
L 719.7138 64.1664 
L 721.068334 61.9488 
L 722.422867 62.2656 
L 723.7774 67.0176 
L 725.131933 60.6816 
L 726.486467 57.1968 
L 727.841 63.8496 
L 729.195533 58.1472 
L 730.550067 48.3264 
L 731.9046 50.8608 
L 733.259133 52.4448 
L 734.613667 49.5936 
L 735.9682 50.8608 
L 738.677267 59.4144 
L 741.386333 72.0864 
L 742.740867 74.304 
L 744.0954 75.5712 
L 745.449933 76.5216 
L 746.804467 82.224 
L 748.159 97.1136 
L 749.513533 104.4 
L 750.868067 96.1632 
L 752.2226 89.8272 
L 753.577133 92.9952 
L 754.931666 90.4608 
L 756.2862 85.392 
L 757.640733 82.224 
L 758.995266 73.9872 
L 760.3498 70.1856 
L 761.704333 73.0368 
L 763.058866 72.0864 
L 764.4134 68.9184 
L 765.767933 62.5824 
L 767.122466 52.128 
L 768.477 49.2768 
L 769.831533 53.712 
L 771.186066 55.296 
L 773.895133 59.7312 
L 775.249666 57.8304 
L 776.6042 54.9792 
L 777.958733 55.296 
L 779.313266 59.4144 
L 780.667799 60.3648 
L 782.022333 55.6128 
L 783.376866 49.9104 
L 784.731399 54.9792 
L 786.085933 61.9488 
L 787.440466 56.2464 
L 788.794999 52.4448 
L 790.149533 60.3648 
L 791.504066 60.9984 
L 792.858599 60.6816 
L 794.213133 62.8992 
L 795.567666 59.4144 
L 796.922199 59.0976 
L 798.276733 63.8496 
L 799.631266 60.6816 
L 800.985799 58.1472 
L 802.340333 64.8 
L 803.694866 66.0672 
L 805.049399 56.88 
L 806.403933 55.9296 
L 807.758466 57.5136 
L 809.112999 53.712 
L 810.467532 61.632 
L 811.822066 71.136 
L 813.176599 67.0176 
L 814.531132 64.1664 
L 815.885666 64.1664 
L 817.240199 65.4336 
L 818.594732 69.8688 
L 819.949266 64.8 
L 821.303799 58.7808 
L 822.658332 64.1664 
L 824.012866 64.8 
L 825.367399 57.8304 
L 826.721932 62.8992 
L 828.076466 71.136 
L 829.430999 66.384 
L 830.785532 60.048 
L 832.140066 62.5824 
L 833.494599 61.632 
L 834.849132 52.4448 
L 836.203665 53.3952 
L 837.558199 64.1664 
L 838.912732 63.5328 
L 840.267265 64.4832 
L 841.621799 78.4224 
L 842.976332 83.808 
L 844.330865 81.9072 
L 845.685399 85.7088 
L 847.039932 84.7584 
L 848.394465 77.472 
L 849.748999 73.9872 
L 851.103532 74.6208 
L 852.458065 76.2048 
L 853.812599 75.5712 
L 855.167132 73.3536 
L 856.521665 74.6208 
L 857.876199 77.7888 
L 859.230732 73.6704 
L 860.585265 68.2848 
L 861.939799 67.968 
L 864.648865 76.5216 
L 866.003398 75.5712 
L 867.357932 67.6512 
L 868.712465 63.8496 
L 870.066998 66.0672 
L 871.421532 65.1168 
L 872.776065 55.296 
L 874.130598 51.4944 
L 875.485132 59.4144 
L 876.839665 60.9984 
L 878.194198 49.2768 
L 879.548732 42.9408 
L 880.903265 47.6928 
L 882.257798 50.8608 
L 883.612332 51.8112 
L 884.966865 54.9792 
L 886.321398 55.9296 
L 887.675932 58.1472 
L 889.030465 60.048 
L 890.384998 57.8304 
L 891.739531 60.6816 
L 893.094065 64.8 
L 894.448598 62.2656 
L 895.803131 59.0976 
L 897.157665 58.7808 
L 898.512198 63.216 
L 899.866731 68.2848 
L 901.221265 69.2352 
L 902.575798 68.6016 
L 903.930331 70.5024 
L 905.284865 70.8192 
L 906.639398 71.4528 
L 907.993931 70.5024 
L 909.348465 63.216 
L 910.702998 57.8304 
L 912.057531 59.7312 
L 913.412065 57.5136 
L 914.766598 51.8112 
L 916.121131 52.7616 
L 917.475665 58.1472 
L 918.830198 56.5632 
L 920.184731 50.8608 
L 921.539264 57.1968 
L 922.893798 67.6512 
L 924.248331 67.0176 
L 925.602864 63.8496 
L 926.957398 63.8496 
L 929.666464 67.0176 
L 931.020998 72.4032 
L 932.375531 79.6896 
L 933.730064 84.1248 
L 935.084598 87.6096 
L 936.439131 85.392 
L 937.793664 77.1552 
L 940.502731 78.4224 
L 941.857264 76.2048 
L 943.211798 77.7888 
L 944.566331 75.2544 
L 945.920864 72.0864 
L 947.275397 70.8192 
L 948.629931 67.3344 
L 949.984464 62.8992 
L 951.338997 60.9984 
L 952.693531 59.4144 
L 954.048064 58.7808 
L 956.757131 66.384 
L 958.111664 66.7008 
L 959.466197 62.2656 
L 960.820731 60.3648 
L 962.175264 55.6128 
L 963.529797 48.0096 
L 964.884331 57.8304 
L 966.238864 72.4032 
L 967.593397 72.0864 
L 968.947931 72.72 
L 970.302464 70.5024 
L 971.656997 54.0288 
L 973.011531 46.4256 
L 974.366064 48.0096 
L 975.720597 46.1088 
L 977.07513 48.96 
L 978.429664 53.3952 
L 979.784197 54.6624 
L 981.13873 65.4336 
L 982.493264 75.2544 
L 983.847797 69.8688 
L 985.20233 69.2352 
L 986.556864 77.7888 
L 987.911397 71.7696 
L 989.26593 62.8992 
L 990.620464 63.216 
L 991.974997 60.3648 
L 993.32953 57.8304 
L 994.684064 66.0672 
L 996.038597 76.2048 
L 997.39313 71.136 
L 998.747664 62.5824 
L 1000.102197 59.0976 
L 1001.45673 61.632 
L 1002.811264 65.4336 
L 1005.52033 60.3648 
L 1006.874863 57.5136 
L 1008.229397 54.9792 
L 1009.58393 59.4144 
L 1010.938463 60.3648 
L 1012.292997 61.9488 
L 1013.64753 71.136 
L 1015.002063 78.4224 
L 1016.356597 80.3232 
L 1017.71113 81.2736 
L 1019.065663 80.0064 
L 1021.77473 69.552 
L 1024.483797 53.0784 
L 1025.83833 53.3952 
L 1027.192863 52.4448 
L 1028.547397 47.0592 
L 1029.90193 55.296 
L 1031.256463 64.4832 
L 1032.610996 60.048 
L 1033.96553 61.3152 
L 1035.320063 63.5328 
L 1036.674596 52.7616 
L 1038.02913 49.9104 
L 1039.383663 58.464 
L 1040.738196 56.5632 
L 1042.09273 55.296 
L 1043.447263 61.9488 
L 1044.801796 66.0672 
L 1047.510863 64.1664 
L 1048.865396 65.4336 
L 1050.21993 67.0176 
L 1051.574463 67.6512 
L 1052.928996 71.7696 
L 1054.28353 76.5216 
L 1055.638063 71.136 
L 1056.992596 66.7008 
L 1059.701663 86.6592 
L 1061.056196 86.6592 
L 1062.410729 83.1744 
L 1063.765263 82.224 
L 1065.119796 83.1744 
L 1066.474329 81.2736 
L 1067.828863 74.9376 
L 1069.183396 70.5024 
L 1070.537929 71.4528 
L 1071.892463 70.8192 
L 1073.246996 71.7696 
L 1074.601529 72.4032 
L 1075.956063 69.552 
L 1077.310596 68.9184 
L 1078.665129 70.5024 
L 1080.019663 71.4528 
L 1081.374196 69.8688 
L 1082.728729 66.0672 
L 1085.437796 57.5136 
L 1086.792329 57.1968 
L 1088.146862 57.1968 
L 1089.501396 56.2464 
L 1090.855929 60.6816 
L 1092.210462 62.8992 
L 1093.564996 57.8304 
L 1094.919529 56.2464 
L 1096.274062 59.4144 
L 1097.628596 60.6816 
L 1098.983129 59.7312 
L 1100.337662 57.5136 
L 1101.692196 58.7808 
L 1103.046729 53.3952 
L 1104.401262 43.2576 
L 1105.755796 49.5936 
L 1107.110329 56.5632 
L 1108.464862 54.3456 
L 1109.819396 56.5632 
L 1111.173929 57.8304 
L 1112.528462 59.4144 
L 1113.882996 66.0672 
L 1115.237529 62.8992 
L 1116.592062 55.296 
L 1119.301129 67.0176 
L 1120.655662 57.8304 
L 1122.010195 51.4944 
L 1123.364729 51.1776 
L 1124.719262 45.1584 
L 1126.073795 47.376 
L 1127.428329 58.1472 
L 1128.782862 58.7808 
L 1130.137395 51.1776 
L 1131.491929 51.8112 
L 1132.846462 62.8992 
L 1134.200995 64.8 
L 1135.555529 59.4144 
L 1138.264595 70.8192 
L 1139.619129 74.6208 
L 1140.973662 80.3232 
L 1143.682728 84.1248 
L 1145.037262 88.56 
L 1146.391795 89.8272 
L 1147.746328 88.2432 
L 1149.100862 86.976 
L 1150.455395 84.4416 
L 1151.809928 82.224 
L 1153.164462 82.224 
L 1154.518995 76.2048 
L 1155.873528 65.7504 
L 1157.228062 57.1968 
L 1158.582595 58.1472 
L 1159.937128 65.7504 
L 1161.291662 69.552 
L 1162.646195 68.9184 
L 1164.000728 66.0672 
L 1165.355262 62.5824 
L 1166.709795 61.9488 
L 1168.064328 62.8992 
L 1169.418862 65.4336 
L 1170.773395 65.1168 
L 1172.127928 62.5824 
L 1173.482461 64.8 
L 1174.836995 64.4832 
L 1176.191528 60.048 
L 1177.546061 65.4336 
L 1178.900595 71.4528 
L 1180.255128 66.384 
L 1181.609661 64.8 
L 1182.964195 64.4832 
L 1184.318728 54.0288 
L 1185.673261 52.4448 
L 1187.027795 64.4832 
L 1188.382328 66.384 
L 1189.736861 65.1168 
L 1191.091395 68.9184 
L 1192.445928 67.0176 
L 1193.800461 65.7504 
L 1195.154995 67.0176 
L 1196.509528 64.4832 
L 1197.864061 64.1664 
L 1199.218594 63.5328 
L 1200.573128 58.464 
L 1201.927661 52.4448 
L 1203.282194 47.376 
L 1204.636728 46.4256 
L 1205.991261 54.6624 
L 1207.345794 60.6816 
L 1208.700328 57.8304 
L 1210.054861 60.048 
L 1211.409394 64.1664 
L 1212.763928 65.4336 
L 1214.118461 65.1168 
L 1215.472994 61.9488 
L 1216.827528 60.6816 
L 1218.182061 62.8992 
L 1220.891128 70.8192 
L 1222.245661 72.0864 
L 1223.600194 74.304 
L 1224.954728 73.9872 
L 1226.309261 68.6016 
L 1227.663794 67.3344 
L 1229.018327 67.968 
L 1230.372861 67.968 
L 1231.727394 70.8192 
L 1233.081927 74.9376 
L 1234.436461 75.888 
L 1237.145527 72.72 
L 1238.500061 70.1856 
L 1239.854594 68.2848 
L 1241.209127 64.4832 
L 1242.563661 57.8304 
L 1243.918194 57.1968 
L 1245.272727 59.7312 
L 1245.272727 59.7312 
" clip-path="url(#p220e73e1c2)" style="fill: none; stroke: #a9a9a9; stroke-width: 2.5; stroke-linecap: square"/>
   </g>
  </g>
 </g>
 <defs>
  <clipPath id="p220e73e1c2">
   <rect x="180" y="17.28" width="1116" height="110.88"/>
  </clipPath>
 </defs>
</svg>
