<?xml version="1.0" encoding="utf-8" standalone="no"?>
<!DOCTYPE svg PUBLIC "-//W3C//DTD SVG 1.1//EN"
  "http://www.w3.org/Graphics/SVG/1.1/DTD/svg11.dtd">
<svg xmlns:xlink="http://www.w3.org/1999/xlink" width="1440pt" height="144pt" viewBox="0 0 1440 144" xmlns="http://www.w3.org/2000/svg" version="1.1">
 <metadata>
  <rdf:RDF xmlns:dc="http://purl.org/dc/elements/1.1/" xmlns:cc="http://creativecommons.org/ns#" xmlns:rdf="http://www.w3.org/1999/02/22-rdf-syntax-ns#">
   <cc:Work>
    <dc:type rdf:resource="http://purl.org/dc/dcmitype/StillImage"/>
    <dc:date>2022-11-16T18:20:17.948611</dc:date>
    <dc:format>image/svg+xml</dc:format>
    <dc:creator>
     <cc:Agent>
      <dc:title>Matplotlib v3.5.2, https://matplotlib.org/</dc:title>
     </cc:Agent>
    </dc:creator>
   </cc:Work>
  </rdf:RDF>
 </metadata>
 <defs>
  <style type="text/css">*{stroke-linejoin: round; stroke-linecap: butt}</style>
 </defs>
 <g id="figure_1">
  <g id="patch_1">
   <path d="M 0 144 
L 1440 144 
L 1440 0 
L 0 0 
L 0 144 
z
" style="fill: none"/>
  </g>
  <g id="axes_1">
   <g id="line2d_1">
    <path d="M 230.727273 57.1968 
L 232.081806 64.8 
L 233.436339 64.1664 
L 234.790873 57.1968 
L 236.145406 60.9984 
L 237.499939 69.8688 
L 238.854473 73.6704 
L 240.209006 72.72 
L 241.563539 67.3344 
L 242.918073 65.4336 
L 244.272606 66.7008 
L 245.627139 59.7312 
L 246.981673 55.296 
L 248.336206 63.216 
L 249.690739 64.1664 
L 251.045272 59.4144 
L 252.399806 56.5632 
L 253.754339 54.6624 
L 255.108872 60.9984 
L 256.463406 65.1168 
L 257.817939 59.7312 
L 259.172472 60.048 
L 260.527006 69.8688 
L 261.881539 73.9872 
L 263.236072 73.9872 
L 264.590606 75.5712 
L 265.945139 67.6512 
L 267.299672 55.6128 
L 268.654206 52.4448 
L 270.008739 52.4448 
L 271.363272 50.2272 
L 274.072339 58.1472 
L 275.426872 50.8608 
L 276.781406 41.6736 
L 279.490472 42.3072 
L 280.845005 45.1584 
L 282.199539 56.5632 
L 283.554072 60.6816 
L 284.908605 52.4448 
L 286.263139 46.1088 
L 287.617672 43.8912 
L 288.972205 36.288 
L 290.326739 26.784 
L 291.681272 28.368 
L 293.035805 36.288 
L 294.390339 38.5056 
L 295.744872 43.2576 
L 297.099405 55.296 
L 298.453939 61.9488 
L 299.808472 66.384 
L 301.163005 81.9072 
L 302.517539 105.3504 
L 303.872072 120.8736 
L 305.226605 116.4384 
L 306.581138 105.6672 
L 307.935672 103.4496 
L 309.290205 101.8656 
L 310.644738 95.8464 
L 311.999272 92.9952 
L 313.353805 96.7968 
L 314.708338 99.0144 
L 316.062872 97.7472 
L 317.417405 101.232 
L 318.771938 101.8656 
L 320.126472 92.6784 
L 321.481005 82.5408 
L 322.835538 75.5712 
L 324.190072 67.0176 
L 325.544605 65.7504 
L 326.899138 73.3536 
L 328.253672 74.304 
L 329.608205 65.1168 
L 330.962738 58.464 
L 332.317272 61.632 
L 333.671805 63.5328 
L 335.026338 58.1472 
L 336.380871 51.8112 
L 337.735405 52.4448 
L 339.089938 57.5136 
L 340.444471 58.464 
L 341.799005 60.6816 
L 343.153538 67.3344 
L 344.508071 65.1168 
L 345.862605 54.9792 
L 347.217138 52.4448 
L 348.571671 48.3264 
L 349.926205 47.376 
L 351.280738 58.1472 
L 352.635271 58.7808 
L 353.989805 53.712 
L 355.344338 52.128 
L 356.698871 45.1584 
L 358.053405 46.1088 
L 359.407938 55.296 
L 360.762471 57.1968 
L 362.117004 61.9488 
L 363.471538 72.0864 
L 364.826071 78.4224 
L 366.180604 75.888 
L 367.535138 70.1856 
L 368.889671 68.2848 
L 370.244204 67.3344 
L 372.953271 56.2464 
L 374.307804 53.712 
L 375.662338 57.1968 
L 377.016871 59.0976 
L 378.371404 56.2464 
L 379.725938 52.7616 
L 381.080471 48.0096 
L 382.435004 52.4448 
L 383.789538 59.4144 
L 385.144071 54.0288 
L 386.498604 48.0096 
L 387.853138 48.96 
L 389.207671 53.712 
L 390.562204 60.6816 
L 391.916737 64.1664 
L 393.271271 60.9984 
L 394.625804 57.1968 
L 395.980337 55.296 
L 397.334871 53.0784 
L 398.689404 53.712 
L 400.043937 57.5136 
L 401.398471 54.9792 
L 402.753004 48.0096 
L 404.107537 52.7616 
L 405.462071 67.3344 
L 406.816604 74.304 
L 408.171137 72.4032 
L 409.525671 72.72 
L 410.880204 76.2048 
L 412.234737 72.4032 
L 413.589271 67.0176 
L 414.943804 68.9184 
L 416.298337 71.4528 
L 417.65287 73.6704 
L 419.007404 75.2544 
L 420.361937 76.2048 
L 421.71647 75.5712 
L 423.071004 70.8192 
L 424.425537 65.1168 
L 425.78007 65.4336 
L 427.134604 67.6512 
L 428.489137 67.6512 
L 429.84367 66.0672 
L 431.198204 65.4336 
L 432.552737 65.1168 
L 433.90727 70.5024 
L 435.261804 75.2544 
L 436.616337 74.304 
L 439.325404 76.2048 
L 440.679937 77.7888 
L 442.03447 83.4912 
L 443.389004 85.7088 
L 446.09807 72.72 
L 447.452603 75.5712 
L 448.807137 79.056 
L 451.516203 70.5024 
L 452.870737 72.4032 
L 454.22527 74.6208 
L 455.579803 74.9376 
L 456.934337 74.9376 
L 458.28887 73.0368 
L 459.643403 69.2352 
L 460.997937 62.2656 
L 462.35247 57.5136 
L 463.707003 59.4144 
L 466.41607 64.4832 
L 467.770603 65.7504 
L 469.125137 63.8496 
L 470.47967 63.8496 
L 471.834203 63.5328 
L 473.188736 60.9984 
L 474.54327 60.048 
L 475.897803 58.7808 
L 477.252336 57.8304 
L 478.60687 55.9296 
L 479.961403 54.6624 
L 481.315936 55.9296 
L 482.67047 55.296 
L 484.025003 52.4448 
L 485.379536 50.8608 
L 486.73407 51.4944 
L 488.088603 49.9104 
L 489.443136 50.544 
L 490.79767 55.9296 
L 492.152203 50.8608 
L 493.506736 50.8608 
L 494.86127 65.4336 
L 496.215803 67.3344 
L 497.570336 65.1168 
L 498.92487 74.9376 
L 500.279403 76.5216 
L 501.633936 70.5024 
L 502.988469 70.5024 
L 504.343003 70.1856 
L 505.697536 67.968 
L 507.052069 64.8 
L 508.406603 56.88 
L 509.761136 55.296 
L 511.115669 61.3152 
L 512.470203 60.9984 
L 513.824736 58.7808 
L 515.179269 57.8304 
L 516.533803 51.1776 
L 517.888336 52.4448 
L 519.242869 59.4144 
L 521.951936 69.2352 
L 523.306469 71.7696 
L 524.661003 71.7696 
L 526.015536 66.0672 
L 527.370069 57.1968 
L 528.724603 59.7312 
L 530.079136 64.8 
L 532.788202 60.9984 
L 534.142736 64.1664 
L 535.497269 65.1168 
L 536.851802 62.2656 
L 538.206336 60.3648 
L 539.560869 60.6816 
L 540.915402 59.7312 
L 542.269936 55.296 
L 543.624469 48.3264 
L 544.979002 44.5248 
L 546.333536 45.4752 
L 547.688069 48.3264 
L 549.042602 51.4944 
L 550.397136 56.88 
L 551.751669 62.8992 
L 553.106202 67.968 
L 554.460736 84.1248 
L 555.815269 104.0832 
L 557.169802 111.3696 
L 558.524335 112.9536 
L 559.878869 109.152 
L 561.233402 96.7968 
L 562.587935 87.9264 
L 565.297002 73.6704 
L 566.651535 71.7696 
L 568.006069 68.6016 
L 569.360602 59.7312 
L 570.715135 55.296 
L 572.069669 58.7808 
L 573.424202 60.3648 
L 574.778735 52.4448 
L 576.133269 50.544 
L 577.487802 61.9488 
L 578.842335 62.8992 
L 580.196869 55.9296 
L 581.551402 60.3648 
L 582.905935 60.048 
L 584.260469 47.6928 
L 585.615002 45.4752 
L 586.969535 52.128 
L 588.324068 58.1472 
L 589.678602 67.968 
L 591.033135 78.7392 
L 592.387668 86.0256 
L 593.742202 84.1248 
L 595.096735 77.1552 
L 596.451268 74.6208 
L 597.805802 74.304 
L 599.160335 73.3536 
L 601.869402 63.8496 
L 603.223935 67.3344 
L 604.578468 70.5024 
L 605.933002 65.1168 
L 607.287535 64.4832 
L 608.642068 67.6512 
L 611.351135 57.1968 
L 612.705668 62.8992 
L 614.060201 62.2656 
L 615.414735 50.544 
L 616.769268 48.96 
L 618.123801 55.6128 
L 619.478335 55.296 
L 620.832868 53.0784 
L 622.187401 58.1472 
L 623.541935 63.8496 
L 624.896468 66.7008 
L 626.251001 67.0176 
L 627.605535 62.2656 
L 628.960068 55.6128 
L 630.314601 52.7616 
L 631.669135 52.128 
L 633.023668 51.1776 
L 634.378201 55.6128 
L 635.732735 63.216 
L 637.087268 65.4336 
L 638.441801 63.8496 
L 639.796335 61.3152 
L 641.150868 58.464 
L 642.505401 58.1472 
L 643.859934 59.0976 
L 645.214468 61.9488 
L 646.569001 64.4832 
L 647.923534 65.4336 
L 649.278068 66.7008 
L 650.632601 73.0368 
L 651.987134 77.7888 
L 653.341668 75.2544 
L 656.050734 59.0976 
L 658.759801 67.0176 
L 660.114334 60.048 
L 661.468868 58.464 
L 662.823401 66.7008 
L 664.177934 69.8688 
L 665.532468 68.9184 
L 666.887001 72.72 
L 668.241534 78.1056 
L 669.596067 75.5712 
L 670.950601 71.136 
L 672.305134 70.1856 
L 673.659667 67.3344 
L 675.014201 70.5024 
L 676.368734 75.5712 
L 677.723267 67.6512 
L 679.077801 63.216 
L 680.432334 74.9376 
L 681.786867 80.0064 
L 683.141401 72.4032 
L 684.495934 70.8192 
L 685.850467 70.1856 
L 687.205001 61.9488 
L 688.559534 60.9984 
L 689.914067 68.9184 
L 691.268601 69.8688 
L 692.623134 64.1664 
L 693.977667 62.8992 
L 695.332201 62.2656 
L 696.686734 61.9488 
L 698.041267 67.3344 
L 699.3958 70.8192 
L 700.750334 66.7008 
L 702.104867 64.8 
L 703.4594 61.9488 
L 704.813934 54.6624 
L 706.168467 58.464 
L 707.523 72.0864 
L 708.877534 70.1856 
L 710.232067 56.5632 
L 711.5866 58.1472 
L 712.941134 60.6816 
L 714.295667 55.296 
L 715.6502 56.88 
L 717.004734 54.6624 
L 718.359267 44.208 
L 719.7138 44.208 
L 721.068334 52.128 
L 722.422867 52.128 
L 723.7774 50.544 
L 725.131933 50.544 
L 726.486467 45.792 
L 727.841 42.3072 
L 729.195533 47.376 
L 730.550067 49.9104 
L 731.9046 47.376 
L 733.259133 53.712 
L 734.613667 58.1472 
L 735.9682 50.544 
L 737.322733 51.1776 
L 738.677267 59.4144 
L 740.0318 62.5824 
L 741.386333 71.7696 
L 742.740867 82.224 
L 744.0954 85.392 
L 745.449933 96.1632 
L 746.804467 110.1024 
L 748.159 110.4192 
L 749.513533 105.3504 
L 750.868067 98.6976 
L 752.2226 94.896 
L 753.577133 101.5488 
L 754.931666 106.9344 
L 756.2862 101.5488 
L 757.640733 89.1936 
L 758.995266 71.7696 
L 760.3498 59.0976 
L 763.058866 56.5632 
L 764.4134 53.0784 
L 765.767933 52.7616 
L 767.122466 51.1776 
L 768.477 47.6928 
L 769.831533 43.5744 
L 771.186066 45.1584 
L 772.5406 56.88 
L 773.895133 64.1664 
L 775.249666 63.5328 
L 776.6042 60.3648 
L 777.958733 58.7808 
L 779.313266 60.3648 
L 782.022333 48.96 
L 783.376866 53.3952 
L 784.731399 57.1968 
L 786.085933 60.3648 
L 787.440466 66.7008 
L 788.794999 61.3152 
L 790.149533 54.9792 
L 792.858599 68.6016 
L 794.213133 67.3344 
L 795.567666 71.136 
L 796.922199 73.0368 
L 798.276733 65.7504 
L 799.631266 64.4832 
L 800.985799 66.7008 
L 802.340333 62.5824 
L 803.694866 64.1664 
L 805.049399 65.4336 
L 806.403933 58.7808 
L 807.758466 59.4144 
L 809.112999 63.216 
L 810.467532 58.7808 
L 811.822066 58.1472 
L 813.176599 60.3648 
L 814.531132 59.7312 
L 815.885666 63.5328 
L 817.240199 65.7504 
L 818.594732 63.216 
L 819.949266 62.5824 
L 821.303799 65.1168 
L 822.658332 63.216 
L 824.012866 61.632 
L 825.367399 64.1664 
L 826.721932 64.8 
L 828.076466 60.048 
L 829.430999 60.6816 
L 830.785532 65.4336 
L 832.140066 61.9488 
L 833.494599 61.3152 
L 834.849132 67.6512 
L 836.203665 67.0176 
L 837.558199 60.6816 
L 838.912732 57.1968 
L 841.621799 66.7008 
L 842.976332 69.552 
L 844.330865 79.6896 
L 845.685399 82.5408 
L 847.039932 75.2544 
L 848.394465 72.4032 
L 849.748999 73.0368 
L 851.103532 73.0368 
L 852.458065 71.4528 
L 853.812599 67.3344 
L 855.167132 64.4832 
L 856.521665 64.1664 
L 857.876199 70.8192 
L 859.230732 78.1056 
L 860.585265 79.056 
L 861.939799 80.3232 
L 863.294332 77.7888 
L 864.648865 68.6016 
L 866.003398 64.8 
L 867.357932 65.1168 
L 868.712465 66.0672 
L 870.066998 63.5328 
L 871.421532 51.8112 
L 872.776065 43.5744 
L 874.130598 51.8112 
L 875.485132 51.4944 
L 876.839665 43.8912 
L 878.194198 50.544 
L 879.548732 54.0288 
L 880.903265 44.8416 
L 882.257798 48.0096 
L 883.612332 55.6128 
L 884.966865 53.3952 
L 886.321398 55.9296 
L 887.675932 65.1168 
L 889.030465 69.8688 
L 890.384998 70.1856 
L 891.739531 67.3344 
L 893.094065 61.9488 
L 894.448598 60.9984 
L 895.803131 65.4336 
L 897.157665 67.3344 
L 898.512198 70.1856 
L 899.866731 81.5904 
L 901.221265 84.4416 
L 902.575798 75.888 
L 903.930331 75.888 
L 905.284865 77.472 
L 906.639398 67.6512 
L 907.993931 62.5824 
L 909.348465 62.5824 
L 912.057531 55.296 
L 914.766598 62.5824 
L 916.121131 58.7808 
L 917.475665 59.4144 
L 918.830198 65.4336 
L 920.184731 69.8688 
L 921.539264 71.136 
L 922.893798 64.4832 
L 924.248331 56.5632 
L 925.602864 58.1472 
L 926.957398 60.048 
L 928.311931 65.1168 
L 929.666464 80.0064 
L 931.020998 88.2432 
L 932.375531 86.0256 
L 933.730064 86.976 
L 935.084598 84.7584 
L 936.439131 80.3232 
L 937.793664 76.8384 
L 939.148198 71.7696 
L 940.502731 70.1856 
L 941.857264 69.552 
L 943.211798 65.1168 
L 944.566331 64.4832 
L 945.920864 67.968 
L 947.275397 64.8 
L 948.629931 58.1472 
L 949.984464 52.7616 
L 951.338997 50.8608 
L 952.693531 51.8112 
L 954.048064 53.712 
L 955.402597 57.8304 
L 956.757131 56.88 
L 958.111664 51.4944 
L 959.466197 50.544 
L 960.820731 57.1968 
L 962.175264 63.216 
L 963.529797 65.4336 
L 964.884331 70.1856 
L 966.238864 67.0176 
L 967.593397 55.6128 
L 968.947931 51.1776 
L 970.302464 51.1776 
L 971.656997 53.3952 
L 973.011531 60.3648 
L 974.366064 60.9984 
L 975.720597 58.464 
L 977.07513 62.5824 
L 978.429664 65.7504 
L 979.784197 66.384 
L 981.13873 75.5712 
L 982.493264 86.976 
L 983.847797 86.3424 
L 985.20233 91.4112 
L 986.556864 105.0336 
L 987.911397 94.896 
L 989.26593 71.136 
L 990.620464 65.7504 
L 991.974997 72.0864 
L 993.32953 73.3536 
L 994.684064 63.5328 
L 996.038597 55.296 
L 997.39313 51.4944 
L 998.747664 45.4752 
L 1000.102197 41.04 
L 1001.45673 45.792 
L 1002.811264 51.1776 
L 1004.165797 52.7616 
L 1005.52033 51.8112 
L 1006.874863 49.5936 
L 1008.229397 56.2464 
L 1009.58393 66.7008 
L 1010.938463 70.1856 
L 1012.292997 73.9872 
L 1013.64753 80.3232 
L 1015.002063 74.9376 
L 1016.356597 63.8496 
L 1017.71113 63.5328 
L 1019.065663 64.1664 
L 1021.77473 40.0896 
L 1023.129263 40.7232 
L 1024.483797 46.1088 
L 1025.83833 49.5936 
L 1027.192863 51.1776 
L 1028.547397 44.5248 
L 1029.90193 43.2576 
L 1031.256463 51.4944 
L 1032.610996 54.0288 
L 1033.96553 53.3952 
L 1035.320063 54.3456 
L 1036.674596 51.4944 
L 1038.02913 47.6928 
L 1039.383663 56.5632 
L 1040.738196 61.9488 
L 1042.09273 54.3456 
L 1043.447263 55.296 
L 1044.801796 67.6512 
L 1046.15633 74.9376 
L 1047.510863 73.9872 
L 1048.865396 74.304 
L 1050.21993 77.472 
L 1051.574463 75.5712 
L 1052.928996 72.72 
L 1054.28353 80.3232 
L 1055.638063 86.0256 
L 1056.992596 89.8272 
L 1058.34713 101.8656 
L 1059.701663 119.6064 
L 1061.056196 130.0608 
L 1062.410729 123.0912 
L 1063.765263 105.0336 
L 1065.119796 94.5792 
L 1066.474329 91.4112 
L 1067.828863 84.4416 
L 1069.183396 79.6896 
L 1070.537929 80.9568 
L 1071.892463 78.7392 
L 1074.601529 72.4032 
L 1075.956063 67.0176 
L 1077.310596 64.1664 
L 1078.665129 66.384 
L 1080.019663 70.5024 
L 1081.374196 67.0176 
L 1082.728729 58.1472 
L 1084.083263 57.8304 
L 1085.437796 55.6128 
L 1086.792329 47.0592 
L 1088.146862 47.0592 
L 1089.501396 51.1776 
L 1092.210462 60.6816 
L 1093.564996 58.464 
L 1094.919529 49.9104 
L 1096.274062 53.712 
L 1097.628596 59.4144 
L 1098.983129 52.128 
L 1100.337662 48.0096 
L 1101.692196 50.8608 
L 1103.046729 43.8912 
L 1104.401262 32.8032 
L 1105.755796 36.6048 
L 1107.110329 43.8912 
L 1108.464862 40.4064 
L 1109.819396 41.04 
L 1111.173929 46.1088 
L 1112.528462 43.8912 
L 1113.882996 44.8416 
L 1115.237529 49.9104 
L 1116.592062 46.1088 
L 1117.946595 42.9408 
L 1119.301129 50.8608 
L 1120.655662 57.8304 
L 1122.010195 55.6128 
L 1123.364729 47.376 
L 1124.719262 44.8416 
L 1126.073795 54.6624 
L 1127.428329 61.3152 
L 1130.137395 47.0592 
L 1131.491929 49.2768 
L 1132.846462 54.3456 
L 1134.200995 66.7008 
L 1135.555529 82.8576 
L 1136.910062 89.8272 
L 1138.264595 94.5792 
L 1139.619129 102.816 
L 1140.973662 100.2816 
L 1142.328195 90.144 
L 1143.682728 90.7776 
L 1145.037262 96.1632 
L 1146.391795 92.9952 
L 1147.746328 84.7584 
L 1149.100862 80.9568 
L 1150.455395 81.2736 
L 1151.809928 73.6704 
L 1153.164462 64.1664 
L 1154.518995 66.7008 
L 1155.873528 70.1856 
L 1157.228062 63.216 
L 1158.582595 60.048 
L 1159.937128 64.1664 
L 1161.291662 66.7008 
L 1162.646195 71.7696 
L 1164.000728 71.136 
L 1165.355262 58.464 
L 1166.709795 54.6624 
L 1168.064328 61.632 
L 1169.418862 57.8304 
L 1170.773395 51.1776 
L 1172.127928 60.3648 
L 1173.482461 71.4528 
L 1174.836995 76.2048 
L 1176.191528 76.5216 
L 1177.546061 73.0368 
L 1178.900595 70.8192 
L 1180.255128 72.72 
L 1181.609661 72.0864 
L 1182.964195 64.4832 
L 1184.318728 61.3152 
L 1185.673261 63.5328 
L 1187.027795 65.1168 
L 1188.382328 64.4832 
L 1189.736861 61.3152 
L 1191.091395 60.3648 
L 1192.445928 62.5824 
L 1193.800461 66.384 
L 1195.154995 66.384 
L 1196.509528 61.9488 
L 1197.864061 56.88 
L 1199.218594 59.7312 
L 1200.573128 67.968 
L 1201.927661 62.5824 
L 1203.282194 51.4944 
L 1204.636728 55.6128 
L 1205.991261 58.464 
L 1207.345794 53.3952 
L 1208.700328 56.88 
L 1210.054861 60.9984 
L 1211.409394 57.8304 
L 1212.763928 63.216 
L 1214.118461 69.2352 
L 1215.472994 63.5328 
L 1216.827528 60.9984 
L 1218.182061 64.8 
L 1219.536594 74.304 
L 1220.891128 85.0752 
L 1222.245661 84.1248 
L 1223.600194 79.3728 
L 1224.954728 83.4912 
L 1226.309261 91.728 
L 1227.663794 97.7472 
L 1229.018327 91.728 
L 1230.372861 75.888 
L 1231.727394 69.8688 
L 1233.081927 67.968 
L 1234.436461 58.7808 
L 1235.790994 53.0784 
L 1237.145527 51.8112 
L 1238.500061 49.9104 
L 1239.854594 45.792 
L 1241.209127 45.1584 
L 1242.563661 48.0096 
L 1243.918194 47.376 
L 1245.272727 49.2768 
L 1245.272727 49.2768 
" clip-path="url(#p6eaf1b20e5)" style="fill: none; stroke: #a9a9a9; stroke-width: 2.5; stroke-linecap: square"/>
   </g>
   <g id="line2d_2">
    <path d="M 729.195533 47.376 
L 730.550067 49.9104 
L 731.9046 47.376 
L 733.259133 53.712 
L 734.613667 58.1472 
L 735.9682 50.544 
L 737.322733 51.1776 
L 738.677267 59.4144 
L 740.0318 62.5824 
L 741.386333 71.7696 
L 742.740867 82.224 
L 744.0954 85.392 
L 745.449933 96.1632 
L 746.804467 110.1024 
L 748.159 110.4192 
L 749.513533 105.3504 
L 750.868067 98.6976 
L 752.2226 94.896 
L 753.577133 101.5488 
L 754.931666 106.9344 
L 756.2862 101.5488 
L 757.640733 89.1936 
L 758.995266 71.7696 
L 760.3498 59.0976 
L 761.704333 57.8304 
L 763.058866 56.5632 
L 764.4134 53.0784 
L 765.767933 52.7616 
L 767.122466 51.1776 
L 768.477 47.6928 
L 769.831533 43.5744 
L 771.186066 45.1584 
L 772.5406 56.88 
L 773.895133 64.1664 
L 775.249666 63.5328 
L 776.6042 60.3648 
L 777.958733 58.7808 
L 779.313266 60.3648 
L 780.667799 54.6624 
L 782.022333 48.96 
" clip-path="url(#p6eaf1b20e5)" style="fill: none; stroke: #7e2f8e; stroke-width: 5; stroke-linecap: square"/>
   </g>
   <g id="line2d_3">
    <path d="M 1043.447263 55.296 
L 1044.801796 67.6512 
L 1046.15633 74.9376 
L 1047.510863 73.9872 
L 1048.865396 74.304 
L 1050.21993 77.472 
L 1051.574463 75.5712 
L 1052.928996 72.72 
L 1054.28353 80.3232 
L 1055.638063 86.0256 
L 1056.992596 89.8272 
L 1058.34713 101.8656 
L 1059.701663 119.6064 
L 1061.056196 130.0608 
L 1062.410729 123.0912 
L 1063.765263 105.0336 
L 1065.119796 94.5792 
L 1066.474329 91.4112 
L 1067.828863 84.4416 
L 1069.183396 79.6896 
L 1070.537929 80.9568 
L 1071.892463 78.7392 
L 1073.246996 75.5712 
L 1074.601529 72.4032 
L 1075.956063 67.0176 
L 1077.310596 64.1664 
L 1078.665129 66.384 
L 1080.019663 70.5024 
L 1081.374196 67.0176 
L 1082.728729 58.1472 
L 1084.083263 57.8304 
L 1085.437796 55.6128 
L 1086.792329 47.0592 
L 1088.146862 47.0592 
L 1089.501396 51.1776 
L 1090.855929 55.9296 
L 1092.210462 60.6816 
L 1093.564996 58.464 
L 1094.919529 49.9104 
L 1096.274062 53.712 
" clip-path="url(#p6eaf1b20e5)" style="fill: none; stroke: #7e2f8e; stroke-width: 5; stroke-linecap: square"/>
   </g>
   <g id="line2d_4">
    <path d="M 1120.655662 57.8304 
L 1122.010195 55.6128 
L 1123.364729 47.376 
L 1124.719262 44.8416 
L 1126.073795 54.6624 
L 1127.428329 61.3152 
L 1128.782862 54.3456 
L 1130.137395 47.0592 
L 1131.491929 49.2768 
L 1132.846462 54.3456 
L 1134.200995 66.7008 
L 1135.555529 82.8576 
L 1136.910062 89.8272 
L 1138.264595 94.5792 
L 1139.619129 102.816 
L 1140.973662 100.2816 
L 1142.328195 90.144 
L 1143.682728 90.7776 
L 1145.037262 96.1632 
L 1146.391795 92.9952 
L 1147.746328 84.7584 
L 1149.100862 80.9568 
L 1150.455395 81.2736 
L 1151.809928 73.6704 
L 1153.164462 64.1664 
L 1154.518995 66.7008 
L 1155.873528 70.1856 
L 1157.228062 63.216 
L 1158.582595 60.048 
L 1159.937128 64.1664 
L 1161.291662 66.7008 
L 1162.646195 71.7696 
L 1164.000728 71.136 
L 1165.355262 58.464 
L 1166.709795 54.6624 
L 1168.064328 61.632 
L 1169.418862 57.8304 
L 1170.773395 51.1776 
L 1172.127928 60.3648 
L 1173.482461 71.4528 
" clip-path="url(#p6eaf1b20e5)" style="fill: none; stroke: #7e2f8e; stroke-width: 5; stroke-linecap: square"/>
   </g>
  </g>
 </g>
 <defs>
  <clipPath id="p6eaf1b20e5">
   <rect x="180" y="17.28" width="1116" height="110.88"/>
  </clipPath>
 </defs>
</svg>
