<?xml version="1.0" encoding="utf-8" standalone="no"?>
<!DOCTYPE svg PUBLIC "-//W3C//DTD SVG 1.1//EN"
  "http://www.w3.org/Graphics/SVG/1.1/DTD/svg11.dtd">
<svg xmlns:xlink="http://www.w3.org/1999/xlink" width="1440pt" height="144pt" viewBox="0 0 1440 144" xmlns="http://www.w3.org/2000/svg" version="1.1">
 <metadata>
  <rdf:RDF xmlns:dc="http://purl.org/dc/elements/1.1/" xmlns:cc="http://creativecommons.org/ns#" xmlns:rdf="http://www.w3.org/1999/02/22-rdf-syntax-ns#">
   <cc:Work>
    <dc:type rdf:resource="http://purl.org/dc/dcmitype/StillImage"/>
    <dc:date>2022-11-15T14:29:01.443980</dc:date>
    <dc:format>image/svg+xml</dc:format>
    <dc:creator>
     <cc:Agent>
      <dc:title>Matplotlib v3.5.2, https://matplotlib.org/</dc:title>
     </cc:Agent>
    </dc:creator>
   </cc:Work>
  </rdf:RDF>
 </metadata>
 <defs>
  <style type="text/css">*{stroke-linejoin: round; stroke-linecap: butt}</style>
 </defs>
 <g id="figure_1">
  <g id="patch_1">
   <path d="M 0 144 
L 1440 144 
L 1440 0 
L 0 0 
L 0 144 
z
" style="fill: none"/>
  </g>
  <g id="axes_1">
   <g id="line2d_1">
    <path d="M 230.727273 43.6448 
L 233.907666 46.3552 
L 237.088059 42.9056 
L 240.268453 37.7312 
L 243.448846 44.1376 
L 246.629239 50.0512 
L 249.809632 44.1376 
L 252.990026 39.2096 
L 256.170419 41.1808 
L 259.350812 44.8768 
L 262.531205 46.848 
L 265.711599 45.8624 
L 268.891992 43.8912 
L 272.072385 43.152 
L 275.252779 41.6736 
L 278.433172 44.384 
L 281.613565 45.8624 
L 284.793958 39.9488 
L 287.974352 38.4704 
L 291.154745 38.7168 
L 294.335138 35.76 
L 297.515531 39.7024 
L 300.695925 42.6592 
L 303.876318 38.9632 
L 307.056711 41.1808 
L 310.237105 37.7312 
L 313.417498 28.6144 
L 316.597891 34.528 
L 319.778284 42.4128 
L 322.958678 40.688 
L 326.139071 41.92 
L 329.319464 41.92 
L 332.499858 36.0064 
L 335.680251 37.4848 
L 338.860644 39.9488 
L 342.041037 36.7456 
L 345.221431 36.992 
L 348.401824 33.5424 
L 351.582217 31.5712 
L 354.76261 39.9488 
L 357.943004 42.4128 
L 361.123397 40.1952 
L 364.30379 47.8336 
L 367.484184 53.2544 
L 370.664577 52.0224 
L 373.84497 50.0512 
L 377.025363 49.0656 
L 380.205757 50.7904 
L 383.38615 52.0224 
L 386.566543 48.5728 
L 389.746936 47.8336 
L 392.92733 53.008 
L 396.107723 50.7904 
L 399.288116 40.9344 
L 402.46851 40.1952 
L 405.648903 49.0656 
L 408.829296 49.312 
L 412.009689 43.8912 
L 415.190083 45.3696 
L 418.370476 47.5872 
L 421.550869 49.0656 
L 424.731262 49.8048 
L 427.911656 46.848 
L 431.092049 46.1088 
L 434.272442 46.1088 
L 437.452836 41.6736 
L 440.633229 40.1952 
L 443.813622 40.9344 
L 446.994015 40.688 
L 450.174409 40.688 
L 453.354802 43.152 
L 456.535195 46.1088 
L 459.715588 45.616 
L 462.895982 41.4272 
L 466.076375 36.0064 
L 469.256768 37.4848 
L 472.437162 40.1952 
L 475.617555 38.7168 
L 478.797948 38.4704 
L 481.978341 38.9632 
L 485.158735 36.4992 
L 488.339128 33.7888 
L 491.519521 32.5568 
L 494.699915 30.832 
L 497.880308 31.5712 
L 501.060701 38.7168 
L 504.241094 43.3984 
L 507.421488 40.688 
L 510.601881 39.456 
L 513.782274 40.1952 
L 516.962667 39.2096 
L 520.143061 37.7312 
L 523.323454 38.224 
L 526.503847 41.92 
L 529.684241 42.6592 
L 532.864634 39.456 
L 536.045027 37.2384 
L 539.22542 35.76 
L 545.586207 44.1376 
L 548.7666 41.92 
L 551.946993 41.92 
L 555.127387 44.8768 
L 558.30778 45.8624 
L 561.488173 43.152 
L 564.668567 39.456 
L 567.84896 37.9776 
L 571.029353 38.4704 
L 574.209746 39.7024 
L 577.39014 39.9488 
L 580.570533 40.688 
L 583.750926 43.8912 
L 586.931319 44.384 
L 590.111713 41.6736 
L 593.292106 42.6592 
L 596.472499 45.616 
L 599.652893 45.3696 
L 602.833286 40.4416 
L 606.013679 36.0064 
L 609.194072 37.2384 
L 612.374466 38.7168 
L 615.554859 38.224 
L 618.735252 39.2096 
L 621.915645 42.4128 
L 625.096039 41.4272 
L 628.276432 39.2096 
L 634.637219 48.08 
L 637.817612 45.1232 
L 640.998005 40.1952 
L 647.358792 31.8176 
L 650.539185 36.0064 
L 653.719578 46.848 
L 656.899972 49.8048 
L 660.080365 42.1664 
L 663.260758 41.1808 
L 666.441151 50.544 
L 669.621545 52.2688 
L 672.801938 46.6016 
L 675.982331 51.2832 
L 679.162724 57.1968 
L 682.343118 51.5296 
L 685.523511 45.3696 
L 688.703904 41.1808 
L 691.884298 41.1808 
L 695.064691 46.1088 
L 698.245084 48.08 
L 701.425477 45.8624 
L 704.605871 43.3984 
L 707.786264 43.6448 
L 710.966657 47.0944 
L 714.14705 48.5728 
L 717.327444 48.5728 
L 720.507837 47.5872 
L 723.68823 42.6592 
L 726.868624 41.4272 
L 730.049017 45.3696 
L 733.22941 47.5872 
L 736.409803 43.152 
L 739.590197 39.456 
L 742.77059 40.9344 
L 745.950983 38.224 
L 749.131376 34.2816 
L 752.31177 34.528 
L 755.492163 33.7888 
L 761.85295 35.2672 
L 765.033343 33.5424 
L 768.213736 36.992 
L 771.394129 40.9344 
L 774.574523 40.1952 
L 777.754916 41.4272 
L 780.935309 38.7168 
L 784.115702 30.5856 
L 787.296096 33.7888 
L 790.476489 45.1232 
L 793.656882 46.1088 
L 796.837276 39.9488 
L 800.017669 41.4272 
L 803.198062 45.616 
L 809.558849 38.224 
L 812.739242 37.7312 
L 815.919635 34.7744 
L 819.100028 37.4848 
L 822.280422 47.0944 
L 825.460815 50.2976 
L 828.641208 48.8192 
L 831.821602 52.7616 
L 835.001995 52.2688 
L 838.182388 44.6304 
L 841.362781 41.92 
L 844.543175 45.616 
L 847.723568 45.616 
L 850.903961 42.1664 
L 854.084355 39.456 
L 857.264748 38.9632 
L 860.445141 39.9488 
L 863.625534 38.4704 
L 866.805928 37.7312 
L 869.986321 37.7312 
L 873.166714 36.4992 
L 876.347107 39.2096 
L 879.527501 42.9056 
L 882.707894 39.456 
L 885.888287 36.2528 
L 889.068681 41.4272 
L 892.249074 44.8768 
L 895.429467 45.8624 
L 898.60986 47.8336 
L 901.790254 44.8768 
L 904.970647 39.7024 
L 908.15104 38.9632 
L 911.331433 36.4992 
L 914.511827 34.2816 
L 917.69222 41.92 
L 920.872613 51.2832 
L 924.053007 49.5584 
L 927.2334 43.3984 
L 930.413793 43.152 
L 933.594186 41.6736 
L 936.77458 37.7312 
L 939.954973 38.224 
L 943.135366 38.224 
L 946.315759 36.0064 
L 949.496153 36.4992 
L 952.676546 40.4416 
L 955.856939 41.92 
L 959.037333 42.6592 
L 962.217726 45.3696 
L 965.398119 47.8336 
L 968.578512 48.8192 
L 971.758906 41.4272 
L 974.939299 29.8464 
L 978.119692 33.0496 
L 981.300085 42.9056 
L 984.480479 40.688 
L 987.660872 37.2384 
L 990.841265 39.456 
L 994.021659 39.7024 
L 997.202052 40.9344 
L 1000.382445 45.8624 
L 1003.562838 43.8912 
L 1006.743232 36.0064 
L 1009.923625 35.2672 
L 1013.104018 40.688 
L 1016.284412 42.4128 
L 1019.464805 37.4848 
L 1022.645198 31.8176 
L 1025.825591 37.9776 
L 1029.005985 45.8624 
L 1032.186378 42.6592 
L 1035.366771 40.1952 
L 1038.547164 45.616 
L 1041.727558 51.776 
L 1048.088344 54.7328 
L 1051.268738 57.6896 
L 1054.449131 59.4144 
L 1057.629524 56.2112 
L 1060.809917 50.7904 
L 1063.990311 48.5728 
L 1067.170704 49.0656 
L 1070.351097 48.5728 
L 1073.53149 49.0656 
L 1076.711884 45.616 
L 1079.892277 40.4416 
L 1086.253064 49.8048 
L 1089.433457 42.6592 
L 1092.61385 38.224 
L 1095.794243 37.9776 
L 1098.974637 36.992 
L 1102.15503 39.456 
L 1105.335423 42.1664 
L 1108.515816 40.1952 
L 1111.69621 39.2096 
L 1114.876603 37.4848 
L 1118.056996 34.0352 
L 1121.23739 36.7456 
L 1124.417783 41.1808 
L 1127.598176 39.2096 
L 1130.778569 35.0208 
L 1133.958963 37.7312 
L 1137.139356 37.9776 
L 1140.319749 32.3104 
L 1143.500142 34.0352 
L 1146.680536 42.6592 
L 1149.860929 43.6448 
L 1153.041322 39.7024 
L 1156.221716 37.9776 
L 1159.402109 37.2384 
L 1162.582502 38.9632 
L 1165.762895 42.4128 
L 1168.943289 44.6304 
L 1172.123682 47.3408 
L 1175.304075 49.0656 
L 1178.484469 41.92 
L 1181.664862 37.9776 
L 1184.845255 40.688 
L 1188.025648 39.2096 
L 1191.206042 38.7168 
L 1194.386435 45.616 
L 1197.566828 47.8336 
L 1200.747221 43.8912 
L 1207.108008 42.9056 
L 1210.288401 38.9632 
L 1213.468795 35.5136 
L 1216.649188 33.7888 
L 1219.829581 32.5568 
L 1223.009974 33.5424 
L 1226.190368 36.4992 
L 1229.370761 38.7168 
L 1232.551154 43.8912 
L 1235.731547 47.8336 
L 1238.911941 44.1376 
L 1242.092334 42.6592 
L 1245.272727 45.8624 
L 1245.272727 45.8624 
" clip-path="url(#p27d2d9b9da)" style="fill: none; stroke: #a9a9a9; stroke-width: 2.5; stroke-linecap: square"/>
   </g>
  </g>
 </g>
 <defs>
  <clipPath id="p27d2d9b9da">
   <rect x="180" y="17.28" width="1116" height="110.88"/>
  </clipPath>
 </defs>
</svg>
