<?xml version="1.0" encoding="utf-8" standalone="no"?>
<!DOCTYPE svg PUBLIC "-//W3C//DTD SVG 1.1//EN"
  "http://www.w3.org/Graphics/SVG/1.1/DTD/svg11.dtd">
<svg xmlns:xlink="http://www.w3.org/1999/xlink" width="1440pt" height="144pt" viewBox="0 0 1440 144" xmlns="http://www.w3.org/2000/svg" version="1.1">
 <metadata>
  <rdf:RDF xmlns:dc="http://purl.org/dc/elements/1.1/" xmlns:cc="http://creativecommons.org/ns#" xmlns:rdf="http://www.w3.org/1999/02/22-rdf-syntax-ns#">
   <cc:Work>
    <dc:type rdf:resource="http://purl.org/dc/dcmitype/StillImage"/>
    <dc:date>2022-11-15T14:28:16.686113</dc:date>
    <dc:format>image/svg+xml</dc:format>
    <dc:creator>
     <cc:Agent>
      <dc:title>Matplotlib v3.5.2, https://matplotlib.org/</dc:title>
     </cc:Agent>
    </dc:creator>
   </cc:Work>
  </rdf:RDF>
 </metadata>
 <defs>
  <style type="text/css">*{stroke-linejoin: round; stroke-linecap: butt}</style>
 </defs>
 <g id="figure_1">
  <g id="patch_1">
   <path d="M 0 144 
L 1440 144 
L 1440 0 
L 0 0 
L 0 144 
z
" style="fill: none"/>
  </g>
  <g id="axes_1">
   <g id="line2d_1">
    <path d="M 230.727273 42.1664 
L 233.907666 42.1664 
L 237.088059 44.8768 
L 240.268453 49.8048 
L 243.448846 49.5584 
L 246.629239 44.8768 
L 249.809632 43.152 
L 252.990026 41.6736 
L 256.170419 40.4416 
L 259.350812 42.4128 
L 262.531205 44.1376 
L 265.711599 43.6448 
L 268.891992 45.1232 
L 272.072385 44.8768 
L 275.252779 43.152 
L 278.433172 44.384 
L 281.613565 43.6448 
L 284.793958 40.9344 
L 287.974352 40.688 
L 291.154745 38.224 
L 294.335138 39.9488 
L 297.515531 44.384 
L 300.695925 37.4848 
L 303.876318 32.8032 
L 307.056711 38.9632 
L 310.237105 38.224 
L 313.417498 35.5136 
L 316.597891 36.0064 
L 319.778284 35.5136 
L 322.958678 39.2096 
L 326.139071 44.1376 
L 329.319464 41.6736 
L 332.499858 39.7024 
L 335.680251 37.9776 
L 338.860644 34.0352 
L 342.041037 35.5136 
L 345.221431 37.7312 
L 348.401824 33.296 
L 351.582217 32.5568 
L 354.76261 44.1376 
L 357.943004 52.2688 
L 361.123397 48.8192 
L 364.30379 48.5728 
L 367.484184 51.0368 
L 370.664577 51.0368 
L 373.84497 50.2976 
L 377.025363 48.5728 
L 380.205757 47.5872 
L 383.38615 49.0656 
L 386.566543 46.848 
L 389.746936 44.1376 
L 392.92733 48.5728 
L 396.107723 50.0512 
L 399.288116 46.6016 
L 402.46851 44.6304 
L 405.648903 44.8768 
L 408.829296 45.616 
L 412.009689 46.1088 
L 415.190083 48.5728 
L 418.370476 49.5584 
L 421.550869 50.0512 
L 424.731262 51.0368 
L 427.911656 47.3408 
L 431.092049 43.152 
L 434.272442 44.8768 
L 437.452836 43.6448 
L 440.633229 42.1664 
L 443.813622 43.8912 
L 446.994015 43.152 
L 450.174409 41.4272 
L 453.354802 41.1808 
L 456.535195 40.1952 
L 459.715588 38.224 
L 462.895982 35.0208 
L 466.076375 34.528 
L 469.256768 40.9344 
L 472.437162 41.4272 
L 475.617555 34.2816 
L 478.797948 33.296 
L 481.978341 35.2672 
L 485.158735 29.6 
L 488.339128 24.9184 
L 491.519521 33.5424 
L 494.699915 43.8912 
L 497.880308 43.152 
L 501.060701 41.92 
L 504.241094 43.6448 
L 507.421488 39.9488 
L 510.601881 40.688 
L 513.782274 43.152 
L 516.962667 37.9776 
L 520.143061 37.4848 
L 523.323454 40.4416 
L 526.503847 34.2816 
L 529.684241 37.4848 
L 532.864634 45.8624 
L 536.045027 36.992 
L 539.22542 28.8608 
L 542.405814 35.0208 
L 545.586207 40.688 
L 548.7666 39.456 
L 551.946993 36.992 
L 555.127387 37.2384 
L 558.30778 39.2096 
L 561.488173 39.9488 
L 567.84896 44.8768 
L 571.029353 46.3552 
L 574.209746 46.848 
L 577.39014 46.6016 
L 580.570533 48.8192 
L 583.750926 47.5872 
L 586.931319 45.8624 
L 590.111713 46.6016 
L 593.292106 43.3984 
L 596.472499 43.152 
L 599.652893 48.08 
L 602.833286 45.8624 
L 606.013679 41.1808 
L 609.194072 42.4128 
L 612.374466 40.1952 
L 615.554859 32.5568 
L 618.735252 30.0928 
L 621.915645 35.76 
L 625.096039 39.456 
L 628.276432 39.2096 
L 631.456825 39.2096 
L 634.637219 44.6304 
L 637.817612 46.848 
L 640.998005 37.7312 
L 644.178398 35.2672 
L 647.358792 44.1376 
L 650.539185 43.8912 
L 653.719578 39.2096 
L 656.899972 43.8912 
L 660.080365 46.1088 
L 663.260758 45.8624 
L 666.441151 54.9792 
L 669.621545 59.168 
L 672.801938 50.2976 
L 675.982331 48.8192 
L 679.162724 55.2256 
L 682.343118 51.0368 
L 685.523511 43.6448 
L 688.703904 44.384 
L 691.884298 48.8192 
L 695.064691 55.472 
L 698.245084 56.4576 
L 701.425477 43.6448 
L 704.605871 34.2816 
L 707.786264 37.4848 
L 710.966657 38.4704 
L 714.14705 37.4848 
L 717.327444 43.152 
L 720.507837 44.6304 
L 723.68823 41.6736 
L 726.868624 44.8768 
L 730.049017 43.6448 
L 733.22941 40.4416 
L 736.409803 44.1376 
L 739.590197 40.9344 
L 742.77059 34.0352 
L 749.131376 39.456 
L 752.31177 34.2816 
L 755.492163 32.3104 
L 758.672556 34.528 
L 765.033343 37.4848 
L 768.213736 34.528 
L 771.394129 29.6 
L 774.574523 34.7744 
L 777.754916 43.3984 
L 780.935309 40.1952 
L 784.115702 36.4992 
L 787.296096 41.1808 
L 790.476489 45.1232 
L 793.656882 45.1232 
L 796.837276 42.9056 
L 800.017669 41.1808 
L 803.198062 44.1376 
L 806.378455 44.8768 
L 809.558849 44.384 
L 812.739242 44.6304 
L 815.919635 40.688 
L 819.100028 39.456 
L 822.280422 44.384 
L 828.641208 39.9488 
L 831.821602 42.6592 
L 835.001995 41.92 
L 838.182388 40.1952 
L 841.362781 39.9488 
L 844.543175 42.9056 
L 847.723568 47.3408 
L 850.903961 47.8336 
L 854.084355 43.3984 
L 857.264748 39.9488 
L 860.445141 37.7312 
L 863.625534 37.4848 
L 866.805928 42.4128 
L 869.986321 39.7024 
L 873.166714 32.064 
L 876.347107 36.992 
L 879.527501 43.8912 
L 882.707894 45.1232 
L 885.888287 48.3264 
L 889.068681 48.3264 
L 892.249074 39.456 
L 895.429467 36.7456 
L 898.60986 46.848 
L 901.790254 52.0224 
L 904.970647 43.8912 
L 908.15104 36.7456 
L 911.331433 40.688 
L 914.511827 47.8336 
L 917.69222 45.8624 
L 920.872613 41.4272 
L 927.2334 43.3984 
L 930.413793 43.3984 
L 933.594186 46.6016 
L 936.77458 46.1088 
L 939.954973 40.9344 
L 943.135366 41.1808 
L 946.315759 44.1376 
L 949.496153 44.1376 
L 952.676546 44.384 
L 955.856939 41.92 
L 959.037333 37.2384 
L 962.217726 37.7312 
L 965.398119 41.6736 
L 968.578512 41.6736 
L 971.758906 34.2816 
L 974.939299 29.1072 
L 978.119692 35.2672 
L 981.300085 40.4416 
L 984.480479 37.4848 
L 987.660872 37.2384 
L 990.841265 40.1952 
L 994.021659 38.4704 
L 997.202052 38.224 
L 1000.382445 41.1808 
L 1003.562838 37.4848 
L 1006.743232 32.3104 
L 1009.923625 35.76 
L 1013.104018 44.1376 
L 1016.284412 49.312 
L 1019.464805 45.8624 
L 1022.645198 40.9344 
L 1025.825591 44.1376 
L 1029.005985 45.8624 
L 1032.186378 40.688 
L 1035.366771 44.6304 
L 1038.547164 55.2256 
L 1041.727558 56.2112 
L 1044.907951 48.8192 
L 1048.088344 45.1232 
L 1051.268738 45.8624 
L 1054.449131 45.616 
L 1057.629524 47.3408 
L 1060.809917 50.0512 
L 1063.990311 49.5584 
L 1067.170704 47.8336 
L 1070.351097 45.8624 
L 1073.53149 45.8624 
L 1076.711884 46.848 
L 1079.892277 48.3264 
L 1083.07267 48.8192 
L 1086.253064 45.3696 
L 1089.433457 38.7168 
L 1092.61385 36.0064 
L 1095.794243 39.2096 
L 1098.974637 40.4416 
L 1102.15503 35.76 
L 1105.335423 35.76 
L 1108.515816 43.8912 
L 1111.69621 46.1088 
L 1114.876603 34.0352 
L 1118.056996 27.3824 
L 1121.23739 34.0352 
L 1124.417783 38.224 
L 1127.598176 37.9776 
L 1130.778569 38.224 
L 1133.958963 36.2528 
L 1137.139356 31.8176 
L 1140.319749 34.7744 
L 1143.500142 41.6736 
L 1146.680536 41.4272 
L 1149.860929 39.456 
L 1153.041322 38.9632 
L 1156.221716 35.5136 
L 1159.402109 38.224 
L 1162.582502 50.0512 
L 1165.762895 54.9792 
L 1168.943289 49.8048 
L 1172.123682 43.8912 
L 1175.304075 42.1664 
L 1178.484469 39.7024 
L 1181.664862 36.4992 
L 1184.845255 39.9488 
L 1188.025648 45.3696 
L 1191.206042 43.8912 
L 1194.386435 45.8624 
L 1197.566828 48.8192 
L 1200.747221 46.1088 
L 1203.927615 45.1232 
L 1207.108008 43.6448 
L 1210.288401 37.2384 
L 1213.468795 35.2672 
L 1216.649188 38.9632 
L 1219.829581 40.688 
L 1223.009974 42.9056 
L 1226.190368 44.1376 
L 1229.370761 45.1232 
L 1232.551154 46.6016 
L 1235.731547 44.8768 
L 1238.911941 43.3984 
L 1242.092334 42.9056 
L 1245.272727 42.1664 
L 1245.272727 42.1664 
" clip-path="url(#pb0ac3c3fab)" style="fill: none; stroke: #a9a9a9; stroke-width: 2.5; stroke-linecap: square"/>
   </g>
  </g>
 </g>
 <defs>
  <clipPath id="pb0ac3c3fab">
   <rect x="180" y="17.28" width="1116" height="110.88"/>
  </clipPath>
 </defs>
</svg>
