<?xml version="1.0" encoding="utf-8" standalone="no"?>
<!DOCTYPE svg PUBLIC "-//W3C//DTD SVG 1.1//EN"
  "http://www.w3.org/Graphics/SVG/1.1/DTD/svg11.dtd">
<svg xmlns:xlink="http://www.w3.org/1999/xlink" width="1440pt" height="144pt" viewBox="0 0 1440 144" xmlns="http://www.w3.org/2000/svg" version="1.1">
 <metadata>
  <rdf:RDF xmlns:dc="http://purl.org/dc/elements/1.1/" xmlns:cc="http://creativecommons.org/ns#" xmlns:rdf="http://www.w3.org/1999/02/22-rdf-syntax-ns#">
   <cc:Work>
    <dc:type rdf:resource="http://purl.org/dc/dcmitype/StillImage"/>
    <dc:date>2022-11-15T14:28:36.869380</dc:date>
    <dc:format>image/svg+xml</dc:format>
    <dc:creator>
     <cc:Agent>
      <dc:title>Matplotlib v3.5.2, https://matplotlib.org/</dc:title>
     </cc:Agent>
    </dc:creator>
   </cc:Work>
  </rdf:RDF>
 </metadata>
 <defs>
  <style type="text/css">*{stroke-linejoin: round; stroke-linecap: butt}</style>
 </defs>
 <g id="figure_1">
  <g id="patch_1">
   <path d="M 0 144 
L 1440 144 
L 1440 0 
L 0 0 
L 0 144 
z
" style="fill: none"/>
  </g>
  <g id="axes_1">
   <g id="line2d_1">
    <path d="M 230.727273 54.24 
L 233.907666 58.9216 
L 237.088059 55.7184 
L 240.268453 49.0656 
L 243.448846 40.1952 
L 246.629239 35.76 
L 249.809632 36.4992 
L 252.990026 35.2672 
L 256.170419 34.528 
L 262.531205 47.0944 
L 265.711599 40.9344 
L 268.891992 33.5424 
L 272.072385 37.7312 
L 275.252779 42.4128 
L 278.433172 39.9488 
L 281.613565 36.4992 
L 284.793958 36.0064 
L 287.974352 37.2384 
L 291.154745 36.0064 
L 294.335138 35.0208 
L 297.515531 35.76 
L 300.695925 28.8608 
L 303.876318 23.44 
L 307.056711 30.3392 
L 310.237105 29.3536 
L 313.417498 24.672 
L 316.597891 28.8608 
L 319.778284 31.3248 
L 326.139071 39.2096 
L 329.319464 30.832 
L 332.499858 28.8608 
L 335.680251 36.4992 
L 338.860644 31.3248 
L 342.041037 25.1648 
L 345.221431 30.5856 
L 348.401824 30.3392 
L 351.582217 29.6 
L 354.76261 40.4416 
L 357.943004 56.9504 
L 361.123397 87.9968 
L 364.30379 121.7536 
L 367.484184 115.3472 
L 370.664577 88.2432 
L 373.84497 75.6768 
L 377.025363 69.2704 
L 380.205757 60.6464 
L 383.38615 58.9216 
L 386.566543 61.1392 
L 389.746936 54.7328 
L 392.92733 47.3408 
L 399.288116 45.3696 
L 402.46851 44.8768 
L 405.648903 46.3552 
L 408.829296 44.6304 
L 412.009689 44.6304 
L 415.190083 48.3264 
L 418.370476 46.848 
L 421.550869 43.152 
L 424.731262 42.6592 
L 427.911656 41.6736 
L 431.092049 39.2096 
L 434.272442 37.2384 
L 437.452836 36.0064 
L 440.633229 34.528 
L 443.813622 30.3392 
L 446.994015 26.3968 
L 450.174409 30.5856 
L 453.354802 33.5424 
L 456.535195 25.1648 
L 459.715588 22.9472 
L 462.895982 32.3104 
L 466.076375 35.76 
L 469.256768 35.2672 
L 472.437162 35.76 
L 475.617555 34.0352 
L 478.797948 34.528 
L 481.978341 37.2384 
L 485.158735 37.9776 
L 488.339128 37.9776 
L 491.519521 37.7312 
L 494.699915 34.2816 
L 497.880308 36.2528 
L 501.060701 44.8768 
L 504.241094 41.92 
L 507.421488 30.832 
L 510.601881 29.3536 
L 513.782274 35.0208 
L 516.962667 38.7168 
L 520.143061 38.7168 
L 523.323454 35.5136 
L 526.503847 36.992 
L 529.684241 41.92 
L 532.864634 39.456 
L 536.045027 36.7456 
L 539.22542 41.4272 
L 542.405814 42.9056 
L 545.586207 40.1952 
L 548.7666 45.8624 
L 551.946993 50.544 
L 555.127387 44.384 
L 558.30778 44.8768 
L 561.488173 52.5152 
L 564.668567 47.3408 
L 567.84896 35.76 
L 571.029353 37.4848 
L 574.209746 48.08 
L 577.39014 45.3696 
L 580.570533 34.2816 
L 583.750926 36.0064 
L 586.931319 44.6304 
L 590.111713 47.3408 
L 593.292106 45.3696 
L 596.472499 39.2096 
L 599.652893 35.0208 
L 602.833286 36.992 
L 606.013679 37.4848 
L 609.194072 33.0496 
L 612.374466 30.0928 
L 615.554859 33.296 
L 618.735252 35.2672 
L 621.915645 38.224 
L 625.096039 45.3696 
L 628.276432 47.3408 
L 631.456825 42.4128 
L 634.637219 39.9488 
L 637.817612 38.224 
L 640.998005 36.2528 
L 644.178398 36.992 
L 647.358792 37.4848 
L 653.719578 46.3552 
L 656.899972 42.1664 
L 660.080365 36.2528 
L 663.260758 40.688 
L 666.441151 43.8912 
L 669.621545 35.2672 
L 672.801938 24.1792 
L 675.982331 20.976 
L 679.162724 27.3824 
L 685.523511 53.2544 
L 688.703904 68.2848 
L 691.884298 93.1712 
L 695.064691 109.68 
L 698.245084 100.0704 
L 701.425477 78.6336 
L 704.605871 65.5744 
L 707.786264 58.4288 
L 710.966657 47.5872 
L 714.14705 41.1808 
L 717.327444 45.1232 
L 720.507837 45.8624 
L 723.68823 42.1664 
L 726.868624 42.4128 
L 730.049017 40.688 
L 733.22941 36.7456 
L 736.409803 37.9776 
L 739.590197 37.9776 
L 742.77059 35.5136 
L 745.950983 37.2384 
L 749.131376 35.76 
L 752.31177 33.5424 
L 755.492163 35.0208 
L 758.672556 31.8176 
L 761.85295 28.8608 
L 765.033343 32.3104 
L 768.213736 37.2384 
L 771.394129 38.224 
L 774.574523 34.528 
L 777.754916 35.5136 
L 780.935309 39.456 
L 784.115702 36.0064 
L 787.296096 31.8176 
L 790.476489 32.8032 
L 793.656882 29.3536 
L 796.837276 26.8896 
L 800.017669 33.7888 
L 803.198062 37.9776 
L 806.378455 35.76 
L 809.558849 33.0496 
L 812.739242 35.0208 
L 815.919635 44.1376 
L 819.100028 57.4432 
L 822.280422 64.5888 
L 825.460815 58.9216 
L 828.641208 50.0512 
L 831.821602 47.3408 
L 835.001995 42.1664 
L 838.182388 33.0496 
L 841.362781 29.3536 
L 844.543175 35.0208 
L 847.723568 44.6304 
L 850.903961 50.2976 
L 854.084355 47.5872 
L 857.264748 46.1088 
L 860.445141 50.0512 
L 863.625534 50.0512 
L 866.805928 43.3984 
L 869.986321 40.4416 
L 873.166714 44.384 
L 876.347107 44.1376 
L 879.527501 39.2096 
L 882.707894 39.9488 
L 885.888287 41.4272 
L 892.249074 36.4992 
L 895.429467 36.4992 
L 898.60986 37.9776 
L 901.790254 42.6592 
L 904.970647 46.6016 
L 908.15104 44.1376 
L 911.331433 40.4416 
L 914.511827 40.688 
L 917.69222 37.9776 
L 920.872613 32.3104 
L 924.053007 31.5712 
L 927.2334 31.0784 
L 930.413793 33.0496 
L 933.594186 39.456 
L 936.77458 40.1952 
L 939.954973 34.528 
L 943.135366 33.296 
L 946.315759 40.4416 
L 949.496153 40.9344 
L 952.676546 32.064 
L 955.856939 30.832 
L 959.037333 38.224 
L 962.217726 38.7168 
L 965.398119 32.8032 
L 971.758906 36.2528 
L 974.939299 32.5568 
L 978.119692 33.0496 
L 981.300085 34.0352 
L 984.480479 31.3248 
L 987.660872 31.5712 
L 990.841265 35.2672 
L 994.021659 39.9488 
L 997.202052 40.1952 
L 1000.382445 33.7888 
L 1003.562838 31.0784 
L 1006.743232 31.5712 
L 1009.923625 31.3248 
L 1013.104018 33.296 
L 1016.284412 36.992 
L 1019.464805 38.4704 
L 1022.645198 35.5136 
L 1025.825591 39.7024 
L 1032.186378 64.3424 
L 1035.366771 82.576 
L 1038.547164 101.7952 
L 1041.727558 106.9696 
L 1044.907951 97.8528 
L 1051.268738 80.6048 
L 1054.449131 69.5168 
L 1057.629524 66.56 
L 1060.809917 61.1392 
L 1063.990311 46.6016 
L 1067.170704 44.1376 
L 1070.351097 50.7904 
L 1073.53149 46.3552 
L 1076.711884 39.2096 
L 1079.892277 43.152 
L 1083.07267 45.616 
L 1086.253064 39.2096 
L 1089.433457 35.2672 
L 1092.61385 35.76 
L 1095.794243 37.4848 
L 1098.974637 41.1808 
L 1102.15503 40.1952 
L 1105.335423 38.4704 
L 1108.515816 37.7312 
L 1114.876603 36.7456 
L 1118.056996 31.0784 
L 1121.23739 25.1648 
L 1124.417783 26.3968 
L 1127.598176 28.1216 
L 1130.778569 27.136 
L 1133.958963 28.8608 
L 1137.139356 28.8608 
L 1140.319749 23.44 
L 1143.500142 24.672 
L 1146.680536 31.8176 
L 1149.860929 36.2528 
L 1153.041322 38.7168 
L 1156.221716 36.7456 
L 1159.402109 33.5424 
L 1162.582502 35.5136 
L 1165.762895 38.4704 
L 1168.943289 36.0064 
L 1172.123682 36.2528 
L 1175.304075 37.7312 
L 1178.484469 33.7888 
L 1181.664862 33.296 
L 1184.845255 32.064 
L 1188.025648 32.8032 
L 1191.206042 43.152 
L 1194.386435 45.616 
L 1197.566828 37.2384 
L 1200.747221 34.7744 
L 1203.927615 38.4704 
L 1207.108008 38.9632 
L 1210.288401 37.4848 
L 1213.468795 37.9776 
L 1216.649188 39.456 
L 1219.829581 37.9776 
L 1223.009974 36.2528 
L 1226.190368 36.7456 
L 1229.370761 40.1952 
L 1232.551154 43.8912 
L 1235.731547 42.1664 
L 1238.911941 39.2096 
L 1242.092334 37.2384 
L 1245.272727 38.224 
L 1245.272727 38.224 
" clip-path="url(#pd104becf32)" style="fill: none; stroke: #a9a9a9; stroke-width: 2.5; stroke-linecap: square"/>
   </g>
   <g id="line2d_2">
    <path d="M 310.237105 29.3536 
L 313.417498 24.672 
L 316.597891 28.8608 
L 319.778284 31.3248 
L 322.958678 35.2672 
L 326.139071 39.2096 
L 329.319464 30.832 
L 332.499858 28.8608 
L 335.680251 36.4992 
L 338.860644 31.3248 
L 342.041037 25.1648 
L 345.221431 30.5856 
L 348.401824 30.3392 
L 351.582217 29.6 
L 354.76261 40.4416 
L 357.943004 56.9504 
L 361.123397 87.9968 
L 364.30379 121.7536 
L 367.484184 115.3472 
L 370.664577 88.2432 
L 373.84497 75.6768 
L 377.025363 69.2704 
L 380.205757 60.6464 
L 383.38615 58.9216 
L 386.566543 61.1392 
L 389.746936 54.7328 
L 392.92733 47.3408 
L 396.107723 46.3552 
L 399.288116 45.3696 
L 402.46851 44.8768 
L 405.648903 46.3552 
L 408.829296 44.6304 
L 412.009689 44.6304 
L 415.190083 48.3264 
L 418.370476 46.848 
L 421.550869 43.152 
L 424.731262 42.6592 
L 427.911656 41.6736 
L 431.092049 39.2096 
L 434.272442 37.2384 
" clip-path="url(#pd104becf32)" style="fill: none; stroke: #d22730; stroke-width: 5; stroke-linecap: square"/>
   </g>
   <g id="line2d_3">
    <path d="M 634.637219 39.9488 
L 637.817612 38.224 
L 640.998005 36.2528 
L 644.178398 36.992 
L 647.358792 37.4848 
L 650.539185 41.92 
L 653.719578 46.3552 
L 656.899972 42.1664 
L 660.080365 36.2528 
L 663.260758 40.688 
L 666.441151 43.8912 
L 669.621545 35.2672 
L 672.801938 24.1792 
L 675.982331 20.976 
L 679.162724 27.3824 
L 682.343118 40.4416 
L 685.523511 53.2544 
L 688.703904 68.2848 
L 691.884298 93.1712 
L 695.064691 109.68 
L 698.245084 100.0704 
L 701.425477 78.6336 
L 704.605871 65.5744 
L 707.786264 58.4288 
L 710.966657 47.5872 
L 714.14705 41.1808 
L 717.327444 45.1232 
L 720.507837 45.8624 
L 723.68823 42.1664 
L 726.868624 42.4128 
L 730.049017 40.688 
L 733.22941 36.7456 
L 736.409803 37.9776 
L 739.590197 37.9776 
L 742.77059 35.5136 
L 745.950983 37.2384 
L 749.131376 35.76 
L 752.31177 33.5424 
L 755.492163 35.0208 
L 758.672556 31.8176 
" clip-path="url(#pd104becf32)" style="fill: none; stroke: #d22730; stroke-width: 5; stroke-linecap: square"/>
   </g>
   <g id="line2d_4">
    <path d="M 978.119692 33.0496 
L 981.300085 34.0352 
L 984.480479 31.3248 
L 987.660872 31.5712 
L 990.841265 35.2672 
L 994.021659 39.9488 
L 997.202052 40.1952 
L 1000.382445 33.7888 
L 1003.562838 31.0784 
L 1006.743232 31.5712 
L 1009.923625 31.3248 
L 1013.104018 33.296 
L 1016.284412 36.992 
L 1019.464805 38.4704 
L 1022.645198 35.5136 
L 1025.825591 39.7024 
L 1029.005985 52.0224 
L 1032.186378 64.3424 
L 1035.366771 82.576 
L 1038.547164 101.7952 
L 1041.727558 106.9696 
L 1044.907951 97.8528 
L 1048.088344 89.2288 
L 1051.268738 80.6048 
L 1054.449131 69.5168 
L 1057.629524 66.56 
L 1060.809917 61.1392 
L 1063.990311 46.6016 
L 1067.170704 44.1376 
L 1070.351097 50.7904 
L 1073.53149 46.3552 
L 1076.711884 39.2096 
L 1079.892277 43.152 
L 1083.07267 45.616 
L 1086.253064 39.2096 
L 1089.433457 35.2672 
L 1092.61385 35.76 
L 1095.794243 37.4848 
L 1098.974637 41.1808 
L 1102.15503 40.1952 
" clip-path="url(#pd104becf32)" style="fill: none; stroke: #1f77b4; stroke-width: 5; stroke-linecap: square"/>
   </g>
  </g>
 </g>
 <defs>
  <clipPath id="pd104becf32">
   <rect x="180" y="17.28" width="1116" height="110.88"/>
  </clipPath>
 </defs>
</svg>
