<?xml version="1.0" encoding="utf-8" standalone="no"?>
<!DOCTYPE svg PUBLIC "-//W3C//DTD SVG 1.1//EN"
  "http://www.w3.org/Graphics/SVG/1.1/DTD/svg11.dtd">
<svg xmlns:xlink="http://www.w3.org/1999/xlink" width="1440pt" height="144pt" viewBox="0 0 1440 144" xmlns="http://www.w3.org/2000/svg" version="1.1">
 <metadata>
  <rdf:RDF xmlns:dc="http://purl.org/dc/elements/1.1/" xmlns:cc="http://creativecommons.org/ns#" xmlns:rdf="http://www.w3.org/1999/02/22-rdf-syntax-ns#">
   <cc:Work>
    <dc:type rdf:resource="http://purl.org/dc/dcmitype/StillImage"/>
    <dc:date>2022-11-15T14:30:09.670503</dc:date>
    <dc:format>image/svg+xml</dc:format>
    <dc:creator>
     <cc:Agent>
      <dc:title>Matplotlib v3.5.2, https://matplotlib.org/</dc:title>
     </cc:Agent>
    </dc:creator>
   </cc:Work>
  </rdf:RDF>
 </metadata>
 <defs>
  <style type="text/css">*{stroke-linejoin: round; stroke-linecap: butt}</style>
 </defs>
 <g id="figure_1">
  <g id="patch_1">
   <path d="M 0 144 
L 1440 144 
L 1440 0 
L 0 0 
L 0 144 
z
" style="fill: none"/>
  </g>
  <g id="axes_1">
   <g id="line2d_1">
    <path d="M 230.727273 49.0656 
L 233.907666 44.8768 
L 237.088059 42.4128 
L 243.448846 45.8624 
L 246.629239 44.8768 
L 249.809632 42.4128 
L 256.170419 45.8624 
L 259.350812 43.6448 
L 262.531205 44.8768 
L 265.711599 43.8912 
L 268.891992 40.1952 
L 272.072385 41.6736 
L 275.252779 40.9344 
L 278.433172 37.9776 
L 281.613565 39.2096 
L 284.793958 41.1808 
L 287.974352 41.92 
L 291.154745 37.7312 
L 294.335138 36.7456 
L 297.515531 42.4128 
L 300.695925 40.4416 
L 303.876318 39.2096 
L 307.056711 46.1088 
L 310.237105 41.6736 
L 313.417498 34.2816 
L 316.597891 38.9632 
L 319.778284 41.1808 
L 322.958678 39.456 
L 326.139071 43.152 
L 329.319464 41.6736 
L 332.499858 36.992 
L 335.680251 39.456 
L 338.860644 41.4272 
L 342.041037 39.2096 
L 348.401824 39.2096 
L 351.582217 37.2384 
L 354.76261 34.0352 
L 357.943004 28.368 
L 361.123397 25.904 
L 364.30379 35.5136 
L 367.484184 49.0656 
L 370.664577 57.1968 
L 373.84497 61.3856 
L 377.025363 61.8784 
L 380.205757 58.4288 
L 383.38615 57.6896 
L 386.566543 59.168 
L 389.746936 55.7184 
L 392.92733 50.544 
L 396.107723 48.8192 
L 399.288116 48.5728 
L 402.46851 43.8912 
L 405.648903 37.2384 
L 408.829296 37.4848 
L 412.009689 43.6448 
L 415.190083 45.8624 
L 418.370476 44.1376 
L 421.550869 44.384 
L 424.731262 44.384 
L 427.911656 43.8912 
L 431.092049 43.6448 
L 434.272442 41.4272 
L 437.452836 41.4272 
L 440.633229 43.8912 
L 443.813622 39.456 
L 446.994015 34.7744 
L 450.174409 35.5136 
L 453.354802 33.296 
L 456.535195 30.832 
L 462.895982 37.2384 
L 466.076375 34.7744 
L 469.256768 34.528 
L 472.437162 35.0208 
L 475.617555 36.4992 
L 478.797948 42.4128 
L 481.978341 42.9056 
L 485.158735 40.1952 
L 488.339128 41.92 
L 491.519521 40.1952 
L 494.699915 36.0064 
L 497.880308 36.992 
L 501.060701 41.6736 
L 504.241094 44.8768 
L 507.421488 42.1664 
L 510.601881 40.9344 
L 513.782274 46.3552 
L 516.962667 45.1232 
L 520.143061 41.4272 
L 523.323454 43.8912 
L 526.503847 43.3984 
L 529.684241 38.7168 
L 532.864634 38.9632 
L 536.045027 42.9056 
L 539.22542 42.6592 
L 542.405814 44.1376 
L 545.586207 47.3408 
L 551.946993 39.9488 
L 555.127387 40.4416 
L 558.30778 41.6736 
L 561.488173 45.3696 
L 564.668567 45.1232 
L 567.84896 40.688 
L 571.029353 39.2096 
L 577.39014 46.6016 
L 580.570533 47.0944 
L 583.750926 44.384 
L 586.931319 42.1664 
L 590.111713 41.4272 
L 593.292106 40.4416 
L 599.652893 35.5136 
L 602.833286 40.9344 
L 606.013679 45.616 
L 609.194072 36.2528 
L 612.374466 29.8464 
L 615.554859 37.7312 
L 618.735252 40.688 
L 621.915645 36.4992 
L 625.096039 36.4992 
L 628.276432 38.4704 
L 631.456825 39.456 
L 634.637219 39.2096 
L 637.817612 37.4848 
L 640.998005 37.7312 
L 644.178398 41.4272 
L 647.358792 46.6016 
L 650.539185 51.5296 
L 653.719578 53.008 
L 656.899972 49.8048 
L 660.080365 44.384 
L 663.260758 40.688 
L 666.441151 41.1808 
L 669.621545 43.3984 
L 672.801938 42.4128 
L 675.982331 40.9344 
L 679.162724 39.2096 
L 682.343118 34.2816 
L 685.523511 30.832 
L 688.703904 28.8608 
L 691.884298 28.368 
L 695.064691 35.76 
L 698.245084 51.2832 
L 701.425477 60.6464 
L 704.605871 58.6752 
L 707.786264 56.9504 
L 710.966657 59.6608 
L 714.14705 57.936 
L 717.327444 52.0224 
L 720.507837 50.544 
L 723.68823 48.08 
L 726.868624 44.8768 
L 730.049017 46.848 
L 733.22941 47.5872 
L 736.409803 43.3984 
L 739.590197 38.7168 
L 742.77059 37.9776 
L 745.950983 42.6592 
L 749.131376 41.6736 
L 752.31177 33.5424 
L 755.492163 36.2528 
L 758.672556 43.8912 
L 761.85295 39.2096 
L 765.033343 35.2672 
L 768.213736 42.1664 
L 771.394129 43.3984 
L 774.574523 37.2384 
L 777.754916 36.2528 
L 780.935309 40.9344 
L 784.115702 38.4704 
L 787.296096 30.5856 
L 790.476489 32.3104 
L 793.656882 36.0064 
L 796.837276 37.2384 
L 800.017669 43.3984 
L 803.198062 45.616 
L 806.378455 43.6448 
L 809.558849 45.616 
L 812.739242 47.0944 
L 815.919635 45.8624 
L 819.100028 42.6592 
L 822.280422 40.1952 
L 825.460815 41.92 
L 828.641208 46.1088 
L 831.821602 43.6448 
L 835.001995 39.9488 
L 838.182388 41.1808 
L 841.362781 41.1808 
L 844.543175 39.9488 
L 847.723568 43.8912 
L 850.903961 47.3408 
L 854.084355 41.4272 
L 857.264748 39.2096 
L 860.445141 46.1088 
L 863.625534 45.3696 
L 866.805928 39.456 
L 873.166714 38.4704 
L 876.347107 39.2096 
L 879.527501 41.92 
L 882.707894 40.4416 
L 885.888287 38.4704 
L 889.068681 42.6592 
L 892.249074 43.3984 
L 895.429467 39.2096 
L 898.60986 36.992 
L 901.790254 35.2672 
L 904.970647 37.7312 
L 908.15104 45.1232 
L 911.331433 47.0944 
L 914.511827 43.3984 
L 917.69222 40.688 
L 920.872613 40.1952 
L 924.053007 40.1952 
L 927.2334 38.7168 
L 930.413793 38.7168 
L 933.594186 38.9632 
L 936.77458 36.7456 
L 939.954973 37.4848 
L 943.135366 39.7024 
L 946.315759 41.1808 
L 949.496153 42.4128 
L 952.676546 42.6592 
L 955.856939 44.384 
L 959.037333 43.152 
L 962.217726 40.9344 
L 965.398119 43.8912 
L 968.578512 46.1088 
L 971.758906 43.8912 
L 974.939299 41.92 
L 978.119692 42.6592 
L 981.300085 44.384 
L 984.480479 42.6592 
L 987.660872 40.688 
L 990.841265 40.9344 
L 994.021659 38.9632 
L 997.202052 35.5136 
L 1000.382445 38.9632 
L 1003.562838 43.6448 
L 1006.743232 41.92 
L 1009.923625 40.9344 
L 1013.104018 41.4272 
L 1016.284412 40.1952 
L 1019.464805 39.7024 
L 1022.645198 37.2384 
L 1025.825591 32.064 
L 1029.005985 30.5856 
L 1032.186378 27.8752 
L 1035.366771 24.4256 
L 1038.547164 30.3392 
L 1041.727558 43.3984 
L 1044.907951 53.7472 
L 1048.088344 60.1536 
L 1051.268738 63.8496 
L 1054.449131 65.5744 
L 1057.629524 66.0672 
L 1060.809917 63.8496 
L 1063.990311 59.4144 
L 1067.170704 57.4432 
L 1070.351097 53.2544 
L 1073.53149 48.08 
L 1076.711884 46.6016 
L 1079.892277 44.8768 
L 1083.07267 41.92 
L 1086.253064 43.6448 
L 1089.433457 41.4272 
L 1092.61385 35.5136 
L 1095.794243 36.2528 
L 1098.974637 37.2384 
L 1102.15503 35.76 
L 1105.335423 36.4992 
L 1108.515816 36.0064 
L 1111.69621 38.4704 
L 1114.876603 42.9056 
L 1118.056996 40.9344 
L 1121.23739 37.2384 
L 1124.417783 38.224 
L 1127.598176 40.688 
L 1130.778569 36.992 
L 1133.958963 35.0208 
L 1137.139356 37.4848 
L 1140.319749 38.224 
L 1143.500142 39.9488 
L 1146.680536 45.616 
L 1149.860929 51.0368 
L 1153.041322 50.2976 
L 1156.221716 47.0944 
L 1159.402109 47.0944 
L 1162.582502 43.6448 
L 1165.762895 38.9632 
L 1168.943289 39.2096 
L 1172.123682 38.224 
L 1175.304075 35.76 
L 1178.484469 37.4848 
L 1181.664862 37.9776 
L 1184.845255 35.76 
L 1188.025648 38.7168 
L 1191.206042 45.1232 
L 1194.386435 43.6448 
L 1197.566828 38.4704 
L 1200.747221 40.1952 
L 1203.927615 41.6736 
L 1207.108008 38.9632 
L 1210.288401 39.456 
L 1213.468795 38.4704 
L 1216.649188 38.224 
L 1219.829581 42.4128 
L 1223.009974 44.384 
L 1226.190368 39.7024 
L 1229.370761 36.2528 
L 1232.551154 38.7168 
L 1235.731547 37.7312 
L 1238.911941 38.224 
L 1242.092334 43.6448 
L 1245.272727 42.9056 
L 1245.272727 42.9056 
" clip-path="url(#p29d93655c7)" style="fill: none; stroke: #a9a9a9; stroke-width: 2.5; stroke-linecap: square"/>
   </g>
   <g id="line2d_2">
    <path d="M 310.237105 41.6736 
L 313.417498 34.2816 
L 316.597891 38.9632 
L 319.778284 41.1808 
L 322.958678 39.456 
L 326.139071 43.152 
L 329.319464 41.6736 
L 332.499858 36.992 
L 335.680251 39.456 
L 338.860644 41.4272 
L 342.041037 39.2096 
L 345.221431 39.2096 
L 348.401824 39.2096 
L 351.582217 37.2384 
L 354.76261 34.0352 
L 357.943004 28.368 
L 361.123397 25.904 
L 364.30379 35.5136 
L 367.484184 49.0656 
L 370.664577 57.1968 
L 373.84497 61.3856 
L 377.025363 61.8784 
L 380.205757 58.4288 
L 383.38615 57.6896 
L 386.566543 59.168 
L 389.746936 55.7184 
L 392.92733 50.544 
L 396.107723 48.8192 
L 399.288116 48.5728 
L 402.46851 43.8912 
L 405.648903 37.2384 
L 408.829296 37.4848 
L 412.009689 43.6448 
L 415.190083 45.8624 
L 418.370476 44.1376 
L 421.550869 44.384 
L 424.731262 44.384 
L 427.911656 43.8912 
L 431.092049 43.6448 
L 434.272442 41.4272 
" clip-path="url(#p29d93655c7)" style="fill: none; stroke: #d22730; stroke-width: 5; stroke-linecap: square"/>
   </g>
   <g id="line2d_3">
    <path d="M 634.637219 39.2096 
L 637.817612 37.4848 
L 640.998005 37.7312 
L 644.178398 41.4272 
L 647.358792 46.6016 
L 650.539185 51.5296 
L 653.719578 53.008 
L 656.899972 49.8048 
L 660.080365 44.384 
L 663.260758 40.688 
L 666.441151 41.1808 
L 669.621545 43.3984 
L 672.801938 42.4128 
L 675.982331 40.9344 
L 679.162724 39.2096 
L 682.343118 34.2816 
L 685.523511 30.832 
L 688.703904 28.8608 
L 691.884298 28.368 
L 695.064691 35.76 
L 698.245084 51.2832 
L 701.425477 60.6464 
L 704.605871 58.6752 
L 707.786264 56.9504 
L 710.966657 59.6608 
L 714.14705 57.936 
L 717.327444 52.0224 
L 720.507837 50.544 
L 723.68823 48.08 
L 726.868624 44.8768 
L 730.049017 46.848 
L 733.22941 47.5872 
L 736.409803 43.3984 
L 739.590197 38.7168 
L 742.77059 37.9776 
L 745.950983 42.6592 
L 749.131376 41.6736 
L 752.31177 33.5424 
L 755.492163 36.2528 
L 758.672556 43.8912 
" clip-path="url(#p29d93655c7)" style="fill: none; stroke: #d22730; stroke-width: 5; stroke-linecap: square"/>
   </g>
   <g id="line2d_4">
    <path d="M 978.119692 42.6592 
L 981.300085 44.384 
L 984.480479 42.6592 
L 987.660872 40.688 
L 990.841265 40.9344 
L 994.021659 38.9632 
L 997.202052 35.5136 
L 1000.382445 38.9632 
L 1003.562838 43.6448 
L 1006.743232 41.92 
L 1009.923625 40.9344 
L 1013.104018 41.4272 
L 1016.284412 40.1952 
L 1019.464805 39.7024 
L 1022.645198 37.2384 
L 1025.825591 32.064 
L 1029.005985 30.5856 
L 1032.186378 27.8752 
L 1035.366771 24.4256 
L 1038.547164 30.3392 
L 1041.727558 43.3984 
L 1044.907951 53.7472 
L 1048.088344 60.1536 
L 1051.268738 63.8496 
L 1054.449131 65.5744 
L 1057.629524 66.0672 
L 1060.809917 63.8496 
L 1063.990311 59.4144 
L 1067.170704 57.4432 
L 1070.351097 53.2544 
L 1073.53149 48.08 
L 1076.711884 46.6016 
L 1079.892277 44.8768 
L 1083.07267 41.92 
L 1086.253064 43.6448 
L 1089.433457 41.4272 
L 1092.61385 35.5136 
L 1095.794243 36.2528 
L 1098.974637 37.2384 
L 1102.15503 35.76 
" clip-path="url(#p29d93655c7)" style="fill: none; stroke: #1f77b4; stroke-width: 5; stroke-linecap: square"/>
   </g>
  </g>
 </g>
 <defs>
  <clipPath id="p29d93655c7">
   <rect x="180" y="17.28" width="1116" height="110.88"/>
  </clipPath>
 </defs>
</svg>
