<?xml version="1.0" encoding="utf-8" standalone="no"?>
<!DOCTYPE svg PUBLIC "-//W3C//DTD SVG 1.1//EN"
  "http://www.w3.org/Graphics/SVG/1.1/DTD/svg11.dtd">
<svg xmlns:xlink="http://www.w3.org/1999/xlink" width="1440pt" height="144pt" viewBox="0 0 1440 144" xmlns="http://www.w3.org/2000/svg" version="1.1">
 <metadata>
  <rdf:RDF xmlns:dc="http://purl.org/dc/elements/1.1/" xmlns:cc="http://creativecommons.org/ns#" xmlns:rdf="http://www.w3.org/1999/02/22-rdf-syntax-ns#">
   <cc:Work>
    <dc:type rdf:resource="http://purl.org/dc/dcmitype/StillImage"/>
    <dc:date>2022-11-15T14:29:29.023568</dc:date>
    <dc:format>image/svg+xml</dc:format>
    <dc:creator>
     <cc:Agent>
      <dc:title>Matplotlib v3.5.2, https://matplotlib.org/</dc:title>
     </cc:Agent>
    </dc:creator>
   </cc:Work>
  </rdf:RDF>
 </metadata>
 <defs>
  <style type="text/css">*{stroke-linejoin: round; stroke-linecap: butt}</style>
 </defs>
 <g id="figure_1">
  <g id="patch_1">
   <path d="M 0 144 
L 1440 144 
L 1440 0 
L 0 0 
L 0 144 
z
" style="fill: none"/>
  </g>
  <g id="axes_1">
   <g id="line2d_1">
    <path d="M 230.727273 49.8048 
L 233.907666 51.5296 
L 237.088059 47.3408 
L 240.268453 45.1232 
L 243.448846 43.8912 
L 246.629239 38.7168 
L 249.809632 35.5136 
L 252.990026 38.7168 
L 256.170419 39.7024 
L 259.350812 41.6736 
L 262.531205 47.0944 
L 265.711599 43.3984 
L 268.891992 38.4704 
L 272.072385 38.7168 
L 275.252779 33.7888 
L 278.433172 31.8176 
L 281.613565 37.4848 
L 284.793958 39.456 
L 287.974352 39.2096 
L 291.154745 38.4704 
L 294.335138 38.224 
L 297.515531 38.4704 
L 300.695925 33.0496 
L 303.876318 26.3968 
L 307.056711 30.3392 
L 310.237105 33.5424 
L 313.417498 29.6 
L 316.597891 30.832 
L 319.778284 38.224 
L 322.958678 38.224 
L 326.139071 36.2528 
L 329.319464 37.4848 
L 332.499858 38.9632 
L 335.680251 43.152 
L 338.860644 43.8912 
L 342.041037 34.2816 
L 345.221431 29.8464 
L 348.401824 32.3104 
L 351.582217 26.6432 
L 354.76261 21.2224 
L 357.943004 24.672 
L 361.123397 37.7312 
L 364.30379 66.8064 
L 367.484184 91.2 
L 370.664577 91.9392 
L 373.84497 83.808 
L 377.025363 74.9376 
L 380.205757 65.328 
L 383.38615 63.1104 
L 386.566543 63.1104 
L 392.92733 51.776 
L 396.107723 48.8192 
L 399.288116 43.152 
L 402.46851 38.224 
L 405.648903 40.688 
L 408.829296 42.4128 
L 412.009689 41.4272 
L 415.190083 44.384 
L 418.370476 48.8192 
L 421.550869 48.8192 
L 424.731262 45.616 
L 427.911656 44.1376 
L 431.092049 43.6448 
L 434.272442 43.8912 
L 437.452836 46.1088 
L 440.633229 43.6448 
L 443.813622 35.0208 
L 446.994015 29.3536 
L 450.174409 31.8176 
L 453.354802 35.0208 
L 459.715588 30.5856 
L 462.895982 34.2816 
L 466.076375 36.2528 
L 469.256768 34.0352 
L 472.437162 31.0784 
L 475.617555 31.5712 
L 478.797948 36.4992 
L 481.978341 40.4416 
L 485.158735 42.1664 
L 488.339128 41.92 
L 491.519521 39.9488 
L 494.699915 36.0064 
L 497.880308 36.7456 
L 501.060701 44.384 
L 504.241094 45.1232 
L 507.421488 36.7456 
L 510.601881 34.2816 
L 513.782274 39.2096 
L 516.962667 40.1952 
L 520.143061 42.1664 
L 523.323454 44.384 
L 526.503847 40.1952 
L 529.684241 38.4704 
L 532.864634 40.688 
L 536.045027 37.9776 
L 539.22542 35.0208 
L 542.405814 36.4992 
L 545.586207 36.0064 
L 548.7666 37.4848 
L 551.946993 42.1664 
L 555.127387 42.6592 
L 558.30778 44.384 
L 561.488173 49.312 
L 564.668567 47.0944 
L 567.84896 40.688 
L 571.029353 39.456 
L 574.209746 43.152 
L 577.39014 43.8912 
L 580.570533 42.6592 
L 583.750926 43.8912 
L 586.931319 44.6304 
L 590.111713 41.92 
L 593.292106 41.1808 
L 596.472499 41.1808 
L 599.652893 37.9776 
L 606.013679 37.4848 
L 609.194072 34.528 
L 612.374466 32.064 
L 615.554859 30.832 
L 618.735252 34.7744 
L 621.915645 42.1664 
L 625.096039 43.8912 
L 628.276432 43.8912 
L 631.456825 45.616 
L 634.637219 44.384 
L 637.817612 38.9632 
L 640.998005 36.2528 
L 644.178398 40.1952 
L 650.539185 43.6448 
L 653.719578 49.312 
L 656.899972 50.0512 
L 660.080365 44.1376 
L 663.260758 42.9056 
L 666.441151 44.8768 
L 669.621545 39.7024 
L 672.801938 30.3392 
L 675.982331 30.832 
L 679.162724 30.3392 
L 682.343118 24.9184 
L 685.523511 26.6432 
L 688.703904 26.1504 
L 691.884298 32.5568 
L 695.064691 63.1104 
L 698.245084 86.272 
L 701.425477 81.8368 
L 704.605871 73.7056 
L 707.786264 67.0528 
L 710.966657 63.1104 
L 714.14705 63.6032 
L 717.327444 58.4288 
L 720.507837 50.2976 
L 723.68823 45.616 
L 726.868624 47.0944 
L 730.049017 48.8192 
L 733.22941 42.4128 
L 736.409803 37.4848 
L 739.590197 40.4416 
L 742.77059 42.9056 
L 745.950983 43.6448 
L 749.131376 41.4272 
L 752.31177 37.4848 
L 755.492163 38.9632 
L 758.672556 39.9488 
L 761.85295 36.4992 
L 765.033343 34.0352 
L 768.213736 36.0064 
L 771.394129 37.4848 
L 774.574523 35.76 
L 777.754916 35.2672 
L 780.935309 37.4848 
L 784.115702 35.5136 
L 787.296096 32.3104 
L 790.476489 34.2816 
L 793.656882 34.528 
L 796.837276 31.0784 
L 800.017669 33.0496 
L 803.198062 37.4848 
L 806.378455 37.7312 
L 809.558849 36.4992 
L 812.739242 39.2096 
L 815.919635 43.6448 
L 819.100028 45.8624 
L 822.280422 44.384 
L 825.460815 39.456 
L 828.641208 37.2384 
L 831.821602 42.4128 
L 835.001995 46.1088 
L 838.182388 40.4416 
L 841.362781 38.7168 
L 844.543175 44.8768 
L 847.723568 46.848 
L 850.903961 45.3696 
L 854.084355 41.4272 
L 857.264748 39.2096 
L 860.445141 42.9056 
L 863.625534 44.6304 
L 866.805928 43.6448 
L 869.986321 42.4128 
L 873.166714 43.3984 
L 876.347107 46.6016 
L 879.527501 44.6304 
L 882.707894 38.4704 
L 885.888287 35.76 
L 889.068681 37.9776 
L 892.249074 39.7024 
L 895.429467 41.92 
L 898.60986 40.9344 
L 901.790254 38.224 
L 904.970647 42.6592 
L 908.15104 47.3408 
L 911.331433 47.0944 
L 914.511827 44.8768 
L 917.69222 41.4272 
L 920.872613 40.4416 
L 924.053007 41.4272 
L 927.2334 43.152 
L 930.413793 44.384 
L 933.594186 41.6736 
L 936.77458 38.224 
L 939.954973 38.224 
L 943.135366 39.2096 
L 946.315759 40.9344 
L 949.496153 41.92 
L 952.676546 41.6736 
L 955.856939 37.9776 
L 959.037333 34.528 
L 962.217726 34.0352 
L 965.398119 31.0784 
L 968.578512 32.8032 
L 971.758906 37.9776 
L 974.939299 38.224 
L 978.119692 38.9632 
L 981.300085 38.9632 
L 984.480479 33.5424 
L 987.660872 31.5712 
L 990.841265 35.2672 
L 994.021659 36.992 
L 997.202052 35.76 
L 1000.382445 36.992 
L 1003.562838 40.4416 
L 1006.743232 42.4128 
L 1009.923625 44.1376 
L 1013.104018 41.92 
L 1016.284412 37.4848 
L 1019.464805 37.4848 
L 1022.645198 35.0208 
L 1025.825591 28.1216 
L 1029.005985 26.6432 
L 1032.186378 26.1504 
L 1035.366771 33.296 
L 1038.547164 62.1248 
L 1041.727558 87.504 
L 1044.907951 82.576 
L 1048.088344 77.1552 
L 1051.268738 80.8512 
L 1054.449131 74.6912 
L 1057.629524 69.5168 
L 1060.809917 69.024 
L 1063.990311 60.6464 
L 1067.170704 53.7472 
L 1070.351097 51.2832 
L 1073.53149 49.0656 
L 1076.711884 46.6016 
L 1079.892277 44.6304 
L 1083.07267 44.1376 
L 1086.253064 41.92 
L 1089.433457 37.4848 
L 1092.61385 35.76 
L 1095.794243 35.5136 
L 1098.974637 34.528 
L 1102.15503 33.0496 
L 1105.335423 34.2816 
L 1108.515816 36.0064 
L 1111.69621 38.4704 
L 1114.876603 39.7024 
L 1118.056996 34.2816 
L 1121.23739 33.5424 
L 1124.417783 41.4272 
L 1127.598176 39.456 
L 1130.778569 27.6288 
L 1133.958963 30.3392 
L 1137.139356 34.2816 
L 1140.319749 27.3824 
L 1143.500142 35.0208 
L 1146.680536 47.3408 
L 1149.860929 44.6304 
L 1153.041322 42.6592 
L 1156.221716 43.152 
L 1159.402109 35.76 
L 1162.582502 32.3104 
L 1165.762895 36.992 
L 1168.943289 35.5136 
L 1172.123682 31.5712 
L 1175.304075 32.3104 
L 1178.484469 31.5712 
L 1181.664862 31.0784 
L 1184.845255 30.0928 
L 1188.025648 30.0928 
L 1191.206042 39.9488 
L 1194.386435 47.0944 
L 1197.566828 41.1808 
L 1200.747221 38.224 
L 1203.927615 41.92 
L 1207.108008 40.688 
L 1210.288401 38.9632 
L 1213.468795 41.92 
L 1216.649188 42.9056 
L 1219.829581 39.456 
L 1223.009974 38.9632 
L 1226.190368 44.1376 
L 1229.370761 46.848 
L 1232.551154 44.384 
L 1235.731547 40.9344 
L 1238.911941 41.92 
L 1242.092334 43.152 
L 1245.272727 44.6304 
L 1245.272727 44.6304 
" clip-path="url(#pb6353d0d7d)" style="fill: none; stroke: #a9a9a9; stroke-width: 2.5; stroke-linecap: square"/>
   </g>
   <g id="line2d_2">
    <path d="M 310.237105 33.5424 
L 313.417498 29.6 
L 316.597891 30.832 
L 319.778284 38.224 
L 322.958678 38.224 
L 326.139071 36.2528 
L 329.319464 37.4848 
L 332.499858 38.9632 
L 335.680251 43.152 
L 338.860644 43.8912 
L 342.041037 34.2816 
L 345.221431 29.8464 
L 348.401824 32.3104 
L 351.582217 26.6432 
L 354.76261 21.2224 
L 357.943004 24.672 
L 361.123397 37.7312 
L 364.30379 66.8064 
L 367.484184 91.2 
L 370.664577 91.9392 
L 373.84497 83.808 
L 377.025363 74.9376 
L 380.205757 65.328 
L 383.38615 63.1104 
L 386.566543 63.1104 
L 389.746936 57.4432 
L 392.92733 51.776 
L 396.107723 48.8192 
L 399.288116 43.152 
L 402.46851 38.224 
L 405.648903 40.688 
L 408.829296 42.4128 
L 412.009689 41.4272 
L 415.190083 44.384 
L 418.370476 48.8192 
L 421.550869 48.8192 
L 424.731262 45.616 
L 427.911656 44.1376 
L 431.092049 43.6448 
L 434.272442 43.8912 
" clip-path="url(#pb6353d0d7d)" style="fill: none; stroke: #d22730; stroke-width: 5; stroke-linecap: square"/>
   </g>
   <g id="line2d_3">
    <path d="M 634.637219 44.384 
L 637.817612 38.9632 
L 640.998005 36.2528 
L 644.178398 40.1952 
L 647.358792 41.92 
L 650.539185 43.6448 
L 653.719578 49.312 
L 656.899972 50.0512 
L 660.080365 44.1376 
L 663.260758 42.9056 
L 666.441151 44.8768 
L 669.621545 39.7024 
L 672.801938 30.3392 
L 675.982331 30.832 
L 679.162724 30.3392 
L 682.343118 24.9184 
L 685.523511 26.6432 
L 688.703904 26.1504 
L 691.884298 32.5568 
L 695.064691 63.1104 
L 698.245084 86.272 
L 701.425477 81.8368 
L 704.605871 73.7056 
L 707.786264 67.0528 
L 710.966657 63.1104 
L 714.14705 63.6032 
L 717.327444 58.4288 
L 720.507837 50.2976 
L 723.68823 45.616 
L 726.868624 47.0944 
L 730.049017 48.8192 
L 733.22941 42.4128 
L 736.409803 37.4848 
L 739.590197 40.4416 
L 742.77059 42.9056 
L 745.950983 43.6448 
L 749.131376 41.4272 
L 752.31177 37.4848 
L 755.492163 38.9632 
L 758.672556 39.9488 
" clip-path="url(#pb6353d0d7d)" style="fill: none; stroke: #d22730; stroke-width: 5; stroke-linecap: square"/>
   </g>
   <g id="line2d_4">
    <path d="M 978.119692 38.9632 
L 981.300085 38.9632 
L 984.480479 33.5424 
L 987.660872 31.5712 
L 990.841265 35.2672 
L 994.021659 36.992 
L 997.202052 35.76 
L 1000.382445 36.992 
L 1003.562838 40.4416 
L 1006.743232 42.4128 
L 1009.923625 44.1376 
L 1013.104018 41.92 
L 1016.284412 37.4848 
L 1019.464805 37.4848 
L 1022.645198 35.0208 
L 1025.825591 28.1216 
L 1029.005985 26.6432 
L 1032.186378 26.1504 
L 1035.366771 33.296 
L 1038.547164 62.1248 
L 1041.727558 87.504 
L 1044.907951 82.576 
L 1048.088344 77.1552 
L 1051.268738 80.8512 
L 1054.449131 74.6912 
L 1057.629524 69.5168 
L 1060.809917 69.024 
L 1063.990311 60.6464 
L 1067.170704 53.7472 
L 1070.351097 51.2832 
L 1073.53149 49.0656 
L 1076.711884 46.6016 
L 1079.892277 44.6304 
L 1083.07267 44.1376 
L 1086.253064 41.92 
L 1089.433457 37.4848 
L 1092.61385 35.76 
L 1095.794243 35.5136 
L 1098.974637 34.528 
L 1102.15503 33.0496 
" clip-path="url(#pb6353d0d7d)" style="fill: none; stroke: #1f77b4; stroke-width: 5; stroke-linecap: square"/>
   </g>
  </g>
 </g>
 <defs>
  <clipPath id="pb6353d0d7d">
   <rect x="180" y="17.28" width="1116" height="110.88"/>
  </clipPath>
 </defs>
</svg>
