<?xml version="1.0" encoding="utf-8" standalone="no"?>
<!DOCTYPE svg PUBLIC "-//W3C//DTD SVG 1.1//EN"
  "http://www.w3.org/Graphics/SVG/1.1/DTD/svg11.dtd">
<svg xmlns:xlink="http://www.w3.org/1999/xlink" width="360pt" height="108pt" viewBox="0 0 360 108" xmlns="http://www.w3.org/2000/svg" version="1.1">
 <metadata>
  <rdf:RDF xmlns:dc="http://purl.org/dc/elements/1.1/" xmlns:cc="http://creativecommons.org/ns#" xmlns:rdf="http://www.w3.org/1999/02/22-rdf-syntax-ns#">
   <cc:Work>
    <dc:type rdf:resource="http://purl.org/dc/dcmitype/StillImage"/>
    <dc:date>2022-11-19T16:43:54.990607</dc:date>
    <dc:format>image/svg+xml</dc:format>
    <dc:creator>
     <cc:Agent>
      <dc:title>Matplotlib v3.5.2, https://matplotlib.org/</dc:title>
     </cc:Agent>
    </dc:creator>
   </cc:Work>
  </rdf:RDF>
 </metadata>
 <defs>
  <style type="text/css">*{stroke-linejoin: round; stroke-linecap: butt}</style>
 </defs>
 <g id="figure_1">
  <g id="patch_1">
   <path d="M 0 108 
L 360 108 
L 360 0 
L 0 0 
L 0 108 
z
" style="fill: none"/>
  </g>
  <g id="axes_1">
   <g id="line2d_1">
    <path d="M 57.681818 31.618211 
L 87.174419 30.864 
L 91.106765 30.715984 
L 104.869979 30.386992 
L 110.768499 30.039984 
L 114.700846 29.935903 
L 118.633192 29.539074 
L 122.565539 29.450423 
L 124.531712 29.339399 
L 128.464059 29.433383 
L 130.430233 29.526667 
L 134.362579 30.084342 
L 136.328753 30.455968 
L 152.05814 34.586503 
L 154.024313 35.024633 
L 155.990486 35.126828 
L 159.922833 34.630324 
L 175.65222 32.650471 
L 179.584567 32.270894 
L 185.483087 31.679935 
L 197.280127 30.995333 
L 203.178647 30.839951 
L 242.502114 30.905415 
L 254.299154 30.963789 
L 264.130021 31.052163 
L 270.028541 31.164033 
L 275.927061 31.245155 
L 279.859408 31.293463 
L 285.757928 31.343187 
L 305.419662 31.659236 
L 311.318182 31.623967 
L 311.318182 31.623967 
" clip-path="url(#pc887647f34)" style="fill: none; stroke: #a9a9a9; stroke-width: 2.5; stroke-linecap: square"/>
   </g>
   <g id="line2d_2">
    <path d="M 116.667019 29.699789 
L 118.633192 29.539074 
L 120.599366 29.52109 
L 122.565539 29.450423 
L 124.531712 29.339399 
L 126.497886 29.354245 
L 128.464059 29.433383 
L 130.430233 29.526667 
L 132.396406 29.757301 
L 134.362579 30.084342 
L 136.328753 30.455968 
L 138.294926 30.981724 
L 140.261099 31.609268 
L 142.227273 32.144748 
L 144.193446 32.63652 
L 146.159619 33.121658 
L 148.125793 33.565999 
L 150.091966 34.042373 
L 152.05814 34.586503 
L 154.024313 35.024633 
L 155.990486 35.126828 
L 157.95666 34.912958 
L 159.922833 34.630324 
L 161.889006 34.369446 
L 163.85518 34.057804 
L 165.821353 33.745918 
L 167.787526 33.513203 
L 169.7537 33.257951 
L 171.719873 32.990097 
L 173.686047 32.785138 
L 175.65222 32.650471 
L 177.618393 32.494715 
L 179.584567 32.270894 
L 181.55074 32.058097 
L 183.516913 31.858211 
L 185.483087 31.679935 
L 187.44926 31.553333 
L 189.415433 31.454878 
L 191.381607 31.327512 
L 193.34778 31.224049 
L 195.313953 31.124927 
L 197.280127 30.995333 
L 199.2463 30.925106 
L 201.212474 30.888212 
L 203.178647 30.839951 
L 205.14482 30.838163 
L 207.110994 30.802504 
L 209.077167 30.749886 
L 211.04334 30.788732 
L 213.009514 30.815659 
" clip-path="url(#pc887647f34)" style="fill: none; stroke: #1f77b4; stroke-width: 5; stroke-linecap: square"/>
   </g>
  </g>
 </g>
 <defs>
  <clipPath id="pc887647f34">
   <rect x="45" y="12.96" width="279" height="83.16"/>
  </clipPath>
 </defs>
</svg>
