<?xml version="1.0" encoding="utf-8" standalone="no"?>
<!DOCTYPE svg PUBLIC "-//W3C//DTD SVG 1.1//EN"
  "http://www.w3.org/Graphics/SVG/1.1/DTD/svg11.dtd">
<svg xmlns:xlink="http://www.w3.org/1999/xlink" width="360pt" height="108pt" viewBox="0 0 360 108" xmlns="http://www.w3.org/2000/svg" version="1.1">
 <metadata>
  <rdf:RDF xmlns:dc="http://purl.org/dc/elements/1.1/" xmlns:cc="http://creativecommons.org/ns#" xmlns:rdf="http://www.w3.org/1999/02/22-rdf-syntax-ns#">
   <cc:Work>
    <dc:type rdf:resource="http://purl.org/dc/dcmitype/StillImage"/>
    <dc:date>2022-11-19T16:43:55.000617</dc:date>
    <dc:format>image/svg+xml</dc:format>
    <dc:creator>
     <cc:Agent>
      <dc:title>Matplotlib v3.5.2, https://matplotlib.org/</dc:title>
     </cc:Agent>
    </dc:creator>
   </cc:Work>
  </rdf:RDF>
 </metadata>
 <defs>
  <style type="text/css">*{stroke-linejoin: round; stroke-linecap: butt}</style>
 </defs>
 <g id="figure_1">
  <g id="patch_1">
   <path d="M 0 108 
L 360 108 
L 360 0 
L 0 0 
L 0 108 
z
" style="fill: none"/>
  </g>
  <g id="axes_1">
   <g id="line2d_1">
    <path d="M 57.681818 31.761008 
L 69.478858 30.461008 
L 81.275899 28.726651 
L 85.208245 28.129367 
L 93.072939 26.930229 
L 97.005285 26.324213 
L 104.869979 25.130701 
L 110.768499 24.156523 
L 112.734672 23.972539 
L 114.700846 23.621287 
L 118.633192 22.159011 
L 122.565539 21.759808 
L 124.531712 21.379646 
L 128.464059 21.095337 
L 130.430233 21.141548 
L 132.396406 21.80454 
L 134.362579 23.296068 
L 136.328753 25.680782 
L 138.294926 29.142212 
L 144.193446 42.111086 
L 146.159619 45.86393 
L 150.091966 52.886903 
L 152.05814 56.850804 
L 154.024313 59.450706 
L 155.990486 58.599308 
L 157.95666 55.147049 
L 159.922833 51.199148 
L 161.889006 47.537946 
L 163.85518 44.261687 
L 165.821353 41.546696 
L 167.787526 39.336371 
L 169.7537 37.422665 
L 171.719873 35.81395 
L 173.686047 34.483105 
L 175.65222 33.306926 
L 177.618393 32.308618 
L 181.55074 30.825155 
L 185.483087 29.614423 
L 189.415433 28.697074 
L 191.381607 28.393448 
L 195.313953 27.954099 
L 197.280127 27.696896 
L 201.212474 27.516782 
L 205.14482 27.483107 
L 209.077167 27.488408 
L 213.009514 27.591855 
L 222.840381 27.916944 
L 236.603594 28.482359 
L 244.468288 28.870684 
L 256.265328 29.590375 
L 260.197674 29.879253 
L 264.130021 30.03122 
L 268.062368 30.388391 
L 271.994715 30.668147 
L 277.893235 31.199024 
L 297.554968 32.288455 
L 311.318182 32.9173 
L 311.318182 32.9173 
" clip-path="url(#pa656d6e64c)" style="fill: none; stroke: #a9a9a9; stroke-width: 2.5; stroke-linecap: square"/>
   </g>
   <g id="line2d_2">
    <path d="M 116.667019 22.834328 
L 118.633192 22.159011 
L 120.599366 21.978458 
L 122.565539 21.759808 
L 124.531712 21.379646 
L 126.497886 21.192247 
L 128.464059 21.095337 
L 130.430233 21.141548 
L 132.396406 21.80454 
L 134.362579 23.296068 
L 136.328753 25.680782 
L 138.294926 29.142212 
L 140.261099 33.514585 
L 142.227273 38.014177 
L 144.193446 42.111086 
L 146.159619 45.86393 
L 148.125793 49.3251 
L 150.091966 52.886903 
L 152.05814 56.850804 
L 154.024313 59.450706 
L 155.990486 58.599308 
L 157.95666 55.147049 
L 159.922833 51.199148 
L 161.889006 47.537946 
L 163.85518 44.261687 
L 165.821353 41.546696 
L 167.787526 39.336371 
L 169.7537 37.422665 
L 171.719873 35.81395 
L 173.686047 34.483105 
L 175.65222 33.306926 
L 177.618393 32.308618 
L 179.584567 31.513171 
L 181.55074 30.825155 
L 183.516913 30.163805 
L 185.483087 29.614423 
L 187.44926 29.137757 
L 189.415433 28.697074 
L 191.381607 28.393448 
L 193.34778 28.202977 
L 195.313953 27.954099 
L 197.280127 27.696896 
L 199.2463 27.575514 
L 201.212474 27.516782 
L 203.178647 27.460408 
L 205.14482 27.483107 
L 207.110994 27.530701 
L 209.077167 27.488408 
L 211.04334 27.495318 
L 213.009514 27.591855 
" clip-path="url(#pa656d6e64c)" style="fill: none; stroke: #1f77b4; stroke-width: 5; stroke-linecap: square"/>
   </g>
  </g>
 </g>
 <defs>
  <clipPath id="pa656d6e64c">
   <rect x="45" y="12.96" width="279" height="83.16"/>
  </clipPath>
 </defs>
</svg>
