<?xml version="1.0" encoding="utf-8" standalone="no"?>
<!DOCTYPE svg PUBLIC "-//W3C//DTD SVG 1.1//EN"
  "http://www.w3.org/Graphics/SVG/1.1/DTD/svg11.dtd">
<svg xmlns:xlink="http://www.w3.org/1999/xlink" width="360pt" height="108pt" viewBox="0 0 360 108" xmlns="http://www.w3.org/2000/svg" version="1.1">
 <metadata>
  <rdf:RDF xmlns:dc="http://purl.org/dc/elements/1.1/" xmlns:cc="http://creativecommons.org/ns#" xmlns:rdf="http://www.w3.org/1999/02/22-rdf-syntax-ns#">
   <cc:Work>
    <dc:type rdf:resource="http://purl.org/dc/dcmitype/StillImage"/>
    <dc:date>2022-11-19T16:43:55.071016</dc:date>
    <dc:format>image/svg+xml</dc:format>
    <dc:creator>
     <cc:Agent>
      <dc:title>Matplotlib v3.5.2, https://matplotlib.org/</dc:title>
     </cc:Agent>
    </dc:creator>
   </cc:Work>
  </rdf:RDF>
 </metadata>
 <defs>
  <style type="text/css">*{stroke-linejoin: round; stroke-linecap: butt}</style>
 </defs>
 <g id="figure_1">
  <g id="patch_1">
   <path d="M 0 108 
L 360 108 
L 360 0 
L 0 0 
L 0 108 
z
" style="fill: none"/>
  </g>
  <g id="axes_1">
   <g id="line2d_1">
    <path d="M 57.681818 32.610926 
L 75.377378 32.149561 
L 81.275899 31.890878 
L 91.106765 31.412943 
L 104.869979 30.463691 
L 126.497886 28.230489 
L 130.430233 27.555351 
L 132.396406 26.95805 
L 134.362579 26.084034 
L 142.227273 22.168117 
L 144.193446 21.822686 
L 146.159619 21.881028 
L 148.125793 22.353792 
L 150.091966 23.13345 
L 152.05814 24.501401 
L 154.024313 27.399416 
L 157.95666 35.887836 
L 159.922833 38.792128 
L 161.889006 40.585509 
L 163.85518 41.500094 
L 165.821353 41.677818 
L 167.787526 41.521997 
L 169.7537 41.240306 
L 171.719873 40.745883 
L 185.483087 36.164893 
L 189.415433 35.07943 
L 195.313953 33.5493 
L 201.212474 32.365788 
L 211.04334 31.121268 
L 214.975687 30.86839 
L 218.908034 30.432862 
L 226.772727 30.04787 
L 232.671247 29.697334 
L 234.637421 29.623171 
L 238.569767 29.815188 
L 242.502114 29.619773 
L 246.434461 29.70122 
L 252.332981 29.621659 
L 258.231501 29.71974 
L 262.163848 29.838131 
L 266.096195 29.92509 
L 275.927061 30.287252 
L 279.859408 30.523594 
L 285.757928 30.589317 
L 305.419662 31.412455 
L 309.352008 31.568618 
L 311.318182 31.61 
L 311.318182 31.61 
" clip-path="url(#pa4d395c9ec)" style="fill: none; stroke: #a9a9a9; stroke-width: 2.5; stroke-linecap: square"/>
   </g>
   <g id="line2d_2">
    <path d="M 116.667019 29.327903 
L 118.633192 29.073041 
L 120.599366 28.885432 
L 122.565539 28.725237 
L 124.531712 28.51579 
L 126.497886 28.230489 
L 128.464059 27.918765 
L 130.430233 27.555351 
L 132.396406 26.95805 
L 134.362579 26.084034 
L 136.328753 25.074425 
L 138.294926 24.001759 
L 140.261099 22.944604 
L 142.227273 22.168117 
L 144.193446 21.822686 
L 146.159619 21.881028 
L 148.125793 22.353792 
L 150.091966 23.13345 
L 152.05814 24.501401 
L 154.024313 27.399416 
L 155.990486 31.733512 
L 157.95666 35.887836 
L 159.922833 38.792128 
L 161.889006 40.585509 
L 163.85518 41.500094 
L 165.821353 41.677818 
L 167.787526 41.521997 
L 169.7537 41.240306 
L 171.719873 40.745883 
L 173.686047 40.08346 
L 175.65222 39.43042 
L 177.618393 38.793396 
L 179.584567 38.118486 
L 181.55074 37.441787 
L 183.516913 36.792388 
L 185.483087 36.164893 
L 187.44926 35.586438 
L 189.415433 35.07943 
L 191.381607 34.545999 
L 193.34778 33.989755 
L 195.313953 33.5493 
L 197.280127 33.131723 
L 199.2463 32.685496 
L 201.212474 32.365788 
L 203.178647 32.122162 
L 205.14482 31.896618 
L 207.110994 31.692683 
L 209.077167 31.396553 
L 211.04334 31.121268 
L 213.009514 31.021203 
" clip-path="url(#pa4d395c9ec)" style="fill: none; stroke: #1f77b4; stroke-width: 5; stroke-linecap: square"/>
   </g>
  </g>
 </g>
 <defs>
  <clipPath id="pa4d395c9ec">
   <rect x="45" y="12.96" width="279" height="83.16"/>
  </clipPath>
 </defs>
</svg>
