<?xml version="1.0" encoding="utf-8" standalone="no"?>
<!DOCTYPE svg PUBLIC "-//W3C//DTD SVG 1.1//EN"
  "http://www.w3.org/Graphics/SVG/1.1/DTD/svg11.dtd">
<svg xmlns:xlink="http://www.w3.org/1999/xlink" width="360pt" height="108pt" viewBox="0 0 360 108" xmlns="http://www.w3.org/2000/svg" version="1.1">
 <metadata>
  <rdf:RDF xmlns:dc="http://purl.org/dc/elements/1.1/" xmlns:cc="http://creativecommons.org/ns#" xmlns:rdf="http://www.w3.org/1999/02/22-rdf-syntax-ns#">
   <cc:Work>
    <dc:type rdf:resource="http://purl.org/dc/dcmitype/StillImage"/>
    <dc:date>2022-11-19T16:43:55.031043</dc:date>
    <dc:format>image/svg+xml</dc:format>
    <dc:creator>
     <cc:Agent>
      <dc:title>Matplotlib v3.5.2, https://matplotlib.org/</dc:title>
     </cc:Agent>
    </dc:creator>
   </cc:Work>
  </rdf:RDF>
 </metadata>
 <defs>
  <style type="text/css">*{stroke-linejoin: round; stroke-linecap: butt}</style>
 </defs>
 <g id="figure_1">
  <g id="patch_1">
   <path d="M 0 108 
L 360 108 
L 360 0 
L 0 0 
L 0 108 
z
" style="fill: none"/>
  </g>
  <g id="axes_1">
   <g id="line2d_1">
    <path d="M 57.681818 32.559187 
L 63.580338 32.180796 
L 75.377378 31.257317 
L 85.208245 30.125968 
L 89.140592 29.702277 
L 100.937632 28.234147 
L 104.869979 27.720961 
L 108.802326 27.246554 
L 112.734672 26.644636 
L 114.700846 26.352229 
L 118.633192 25.287677 
L 122.565539 24.758393 
L 130.430233 23.159255 
L 136.328753 21.595418 
L 138.294926 21.376426 
L 140.261099 21.647304 
L 142.227273 22.523353 
L 144.193446 23.886962 
L 146.159619 25.829075 
L 148.125793 28.433269 
L 150.091966 32.077902 
L 152.05814 38.047624 
L 154.024313 45.924499 
L 155.990486 52.056156 
L 157.95666 54.123846 
L 159.922833 53.432643 
L 161.889006 51.615993 
L 165.821353 46.936629 
L 167.787526 44.855036 
L 169.7537 42.945427 
L 171.719873 41.288582 
L 175.65222 38.419477 
L 177.618393 37.194827 
L 183.516913 34.316666 
L 189.415433 32.320048 
L 193.34778 31.382244 
L 199.2463 30.000879 
L 203.178647 29.669968 
L 209.077167 29.24605 
L 220.874207 28.75444 
L 232.671247 28.502245 
L 236.603594 28.594229 
L 240.535941 28.660912 
L 244.468288 28.694164 
L 250.366808 28.92592 
L 254.299154 29.004375 
L 262.163848 29.429838 
L 266.096195 29.680342 
L 270.028541 29.925854 
L 273.960888 30.134472 
L 277.893235 30.507545 
L 281.825581 30.708456 
L 289.690275 31.12639 
L 311.318182 32.392699 
L 311.318182 32.392699 
" clip-path="url(#p3b9555b660)" style="fill: none; stroke: #a9a9a9; stroke-width: 2.5; stroke-linecap: square"/>
   </g>
   <g id="line2d_2">
    <path d="M 116.667019 25.813628 
L 118.633192 25.287677 
L 120.599366 25.026214 
L 122.565539 24.758393 
L 124.531712 24.370328 
L 126.497886 23.996637 
L 128.464059 23.617938 
L 130.430233 23.159255 
L 132.396406 22.602507 
L 134.362579 22.040117 
L 136.328753 21.595418 
L 138.294926 21.376426 
L 140.261099 21.647304 
L 142.227273 22.523353 
L 144.193446 23.886962 
L 146.159619 25.829075 
L 148.125793 28.433269 
L 150.091966 32.077902 
L 152.05814 38.047624 
L 154.024313 45.924499 
L 155.990486 52.056156 
L 157.95666 54.123846 
L 159.922833 53.432643 
L 161.889006 51.615993 
L 163.85518 49.273994 
L 165.821353 46.936629 
L 167.787526 44.855036 
L 169.7537 42.945427 
L 171.719873 41.288582 
L 173.686047 39.834891 
L 175.65222 38.419477 
L 177.618393 37.194827 
L 179.584567 36.208551 
L 181.55074 35.237771 
L 183.516913 34.316666 
L 185.483087 33.643528 
L 187.44926 33.00813 
L 189.415433 32.320048 
L 191.381607 31.800162 
L 193.34778 31.382244 
L 195.313953 30.896016 
L 197.280127 30.393903 
L 199.2463 30.000879 
L 201.212474 29.79083 
L 203.178647 29.669968 
L 205.14482 29.510976 
L 207.110994 29.359919 
L 209.077167 29.24605 
L 211.04334 29.146976 
L 213.009514 29.033594 
" clip-path="url(#p3b9555b660)" style="fill: none; stroke: #1f77b4; stroke-width: 5; stroke-linecap: square"/>
   </g>
  </g>
 </g>
 <defs>
  <clipPath id="p3b9555b660">
   <rect x="45" y="12.96" width="279" height="83.16"/>
  </clipPath>
 </defs>
</svg>
