<?xml version="1.0" encoding="utf-8" standalone="no"?>
<!DOCTYPE svg PUBLIC "-//W3C//DTD SVG 1.1//EN"
  "http://www.w3.org/Graphics/SVG/1.1/DTD/svg11.dtd">
<svg xmlns:xlink="http://www.w3.org/1999/xlink" width="360pt" height="108pt" viewBox="0 0 360 108" xmlns="http://www.w3.org/2000/svg" version="1.1">
 <metadata>
  <rdf:RDF xmlns:dc="http://purl.org/dc/elements/1.1/" xmlns:cc="http://creativecommons.org/ns#" xmlns:rdf="http://www.w3.org/1999/02/22-rdf-syntax-ns#">
   <cc:Work>
    <dc:type rdf:resource="http://purl.org/dc/dcmitype/StillImage"/>
    <dc:date>2022-11-19T16:42:27.034650</dc:date>
    <dc:format>image/svg+xml</dc:format>
    <dc:creator>
     <cc:Agent>
      <dc:title>Matplotlib v3.5.2, https://matplotlib.org/</dc:title>
     </cc:Agent>
    </dc:creator>
   </cc:Work>
  </rdf:RDF>
 </metadata>
 <defs>
  <style type="text/css">*{stroke-linejoin: round; stroke-linecap: butt}</style>
 </defs>
 <g id="figure_1">
  <g id="patch_1">
   <path d="M 0 108 
L 360 108 
L 360 0 
L 0 0 
L 0 108 
z
" style="fill: none"/>
  </g>
  <g id="axes_1">
   <g id="line2d_1">
    <path d="M 57.681818 32.001107 
L 61.614165 31.632739 
L 67.512685 31.590216 
L 69.478858 31.351431 
L 71.445032 30.953623 
L 79.309725 30.364838 
L 85.208245 30.0868 
L 87.174419 29.874435 
L 89.140592 29.494241 
L 93.072939 29.161351 
L 95.039112 28.971128 
L 97.005285 28.902688 
L 98.971459 28.954018 
L 100.937632 28.777382 
L 104.869979 28.20621 
L 108.802326 27.817209 
L 112.734672 27.558043 
L 118.633192 27.033672 
L 120.599366 27.013542 
L 128.464059 26.106964 
L 130.430233 25.850817 
L 132.396406 25.926303 
L 134.362579 25.770803 
L 138.294926 24.997834 
L 140.261099 23.121018 
L 142.227273 20.384172 
L 144.193446 19.852504 
L 146.159619 21.257789 
L 148.125793 26.727956 
L 150.091966 42.306611 
L 152.05814 60.213735 
L 154.024313 65.461724 
L 155.990486 60.634188 
L 157.95666 55.422684 
L 161.889006 46.578827 
L 163.85518 43.262003 
L 167.787526 37.928716 
L 169.7537 35.943453 
L 171.719873 34.538671 
L 173.686047 33.339965 
L 175.65222 32.557686 
L 179.584567 31.388167 
L 183.516913 30.903551 
L 185.483087 30.731948 
L 189.415433 30.689425 
L 193.34778 30.468504 
L 195.313953 30.389748 
L 197.280127 30.179144 
L 201.212474 29.581552 
L 203.178647 29.391581 
L 207.110994 28.736117 
L 211.04334 27.948554 
L 213.009514 27.775692 
L 216.94186 27.764118 
L 220.874207 27.70222 
L 222.840381 27.73644 
L 230.705074 28.238166 
L 232.671247 28.332522 
L 236.603594 28.823177 
L 240.535941 28.993522 
L 246.434461 29.974327 
L 250.366808 30.309482 
L 254.299154 30.728677 
L 260.197674 30.950604 
L 266.096195 31.540899 
L 270.028541 31.403264 
L 273.960888 31.919583 
L 275.927061 31.828749 
L 277.893235 31.900209 
L 281.825581 32.231589 
L 287.724101 32.541834 
L 291.656448 32.3033 
L 297.554968 32.333243 
L 299.521142 32.147046 
L 309.352008 32.188562 
L 311.318182 32.142768 
L 311.318182 32.142768 
" clip-path="url(#p92df41aa74)" style="fill: none; stroke: #a9a9a9; stroke-width: 2.5; stroke-linecap: square"/>
   </g>
   <g id="line2d_2">
    <path d="M 116.667019 27.15621 
L 118.633192 27.033672 
L 120.599366 27.013542 
L 122.565539 26.803945 
L 124.531712 26.527669 
L 126.497886 26.385002 
L 128.464059 26.106964 
L 130.430233 25.850817 
L 132.396406 25.926303 
L 134.362579 25.770803 
L 136.328753 25.410486 
L 138.294926 24.997834 
L 140.261099 23.121018 
L 142.227273 20.384172 
L 144.193446 19.852504 
L 146.159619 21.257789 
L 148.125793 26.727956 
L 150.091966 42.306611 
L 152.05814 60.213735 
L 154.024313 65.461724 
L 155.990486 60.634188 
L 157.95666 55.422684 
L 159.922833 50.953451 
L 161.889006 46.578827 
L 163.85518 43.262003 
L 165.821353 40.56743 
L 167.787526 37.928716 
L 169.7537 35.943453 
L 171.719873 34.538671 
L 173.686047 33.339965 
L 175.65222 32.557686 
L 177.618393 31.96412 
L 179.584567 31.388167 
L 181.55074 31.101826 
L 183.516913 30.903551 
L 185.483087 30.731948 
L 187.44926 30.737735 
L 189.415433 30.689425 
L 191.381607 30.537196 
L 193.34778 30.468504 
L 195.313953 30.389748 
L 197.280127 30.179144 
L 199.2463 29.852796 
L 201.212474 29.581552 
L 203.178647 29.391581 
L 205.14482 29.08964 
L 207.110994 28.736117 
L 209.077167 28.363471 
L 211.04334 27.948554 
L 213.009514 27.775692 
" clip-path="url(#p92df41aa74)" style="fill: none; stroke: #d22730; stroke-width: 5; stroke-linecap: square"/>
   </g>
  </g>
 </g>
 <defs>
  <clipPath id="p92df41aa74">
   <rect x="45" y="12.96" width="279" height="83.16"/>
  </clipPath>
 </defs>
</svg>
