<?xml version="1.0" encoding="utf-8" standalone="no"?>
<!DOCTYPE svg PUBLIC "-//W3C//DTD SVG 1.1//EN"
  "http://www.w3.org/Graphics/SVG/1.1/DTD/svg11.dtd">
<svg xmlns:xlink="http://www.w3.org/1999/xlink" width="360pt" height="108pt" viewBox="0 0 360 108" xmlns="http://www.w3.org/2000/svg" version="1.1">
 <metadata>
  <rdf:RDF xmlns:dc="http://purl.org/dc/elements/1.1/" xmlns:cc="http://creativecommons.org/ns#" xmlns:rdf="http://www.w3.org/1999/02/22-rdf-syntax-ns#">
   <cc:Work>
    <dc:type rdf:resource="http://purl.org/dc/dcmitype/StillImage"/>
    <dc:date>2022-11-19T16:42:26.981583</dc:date>
    <dc:format>image/svg+xml</dc:format>
    <dc:creator>
     <cc:Agent>
      <dc:title>Matplotlib v3.5.2, https://matplotlib.org/</dc:title>
     </cc:Agent>
    </dc:creator>
   </cc:Work>
  </rdf:RDF>
 </metadata>
 <defs>
  <style type="text/css">*{stroke-linejoin: round; stroke-linecap: butt}</style>
 </defs>
 <g id="figure_1">
  <g id="patch_1">
   <path d="M 0 108 
L 360 108 
L 360 0 
L 0 0 
L 0 108 
z
" style="fill: none"/>
  </g>
  <g id="axes_1">
   <g id="line2d_1">
    <path d="M 57.681818 31.51473 
L 59.647992 31.494098 
L 63.580338 31.633746 
L 65.546512 31.430439 
L 67.512685 31.350173 
L 69.478858 31.407541 
L 83.242072 30.878138 
L 85.208245 30.990108 
L 91.106765 30.811711 
L 95.039112 30.599345 
L 97.005285 30.661998 
L 98.971459 30.854737 
L 100.937632 30.781013 
L 102.903805 30.419187 
L 104.869979 30.347979 
L 108.802326 30.504486 
L 110.768499 30.4368 
L 112.734672 30.25312 
L 116.667019 30.25312 
L 118.633192 30.074219 
L 122.565539 30.052077 
L 132.396406 29.980366 
L 134.362579 29.751142 
L 136.328753 29.656283 
L 140.261099 29.843738 
L 142.227273 30.686908 
L 146.159619 33.545285 
L 148.125793 34.818722 
L 150.091966 36.277852 
L 152.05814 37.067932 
L 154.024313 36.55438 
L 155.990486 35.782417 
L 157.95666 35.506141 
L 159.922833 35.101792 
L 161.889006 34.310202 
L 163.85518 33.674365 
L 169.7537 32.52875 
L 173.686047 32.071309 
L 175.65222 31.98903 
L 179.584567 31.501646 
L 183.516913 31.631984 
L 185.483087 31.412574 
L 187.44926 31.367534 
L 189.415433 31.436477 
L 193.34778 31.291042 
L 195.313953 31.260093 
L 197.280127 31.080942 
L 201.212474 30.546254 
L 207.110994 30.821272 
L 211.04334 30.589029 
L 213.009514 30.581481 
L 216.94186 30.405851 
L 220.874207 30.486872 
L 228.738901 30.515305 
L 230.705074 30.795859 
L 240.535941 30.760632 
L 244.468288 31.083206 
L 248.400634 31.14913 
L 250.366808 31.197441 
L 252.332981 31.116671 
L 258.231501 31.234932 
L 262.163848 31.153408 
L 271.994715 31.581409 
L 275.927061 31.349418 
L 277.893235 31.556499 
L 283.791755 31.664191 
L 287.724101 31.888131 
L 297.554968 31.572099 
L 301.487315 31.798555 
L 303.453488 31.463904 
L 305.419662 31.442013 
L 307.385835 31.682056 
L 311.318182 31.266887 
L 311.318182 31.266887 
" clip-path="url(#p10c4798a56)" style="fill: none; stroke: #a9a9a9; stroke-width: 2.5; stroke-linecap: square"/>
   </g>
   <g id="line2d_2">
    <path d="M 116.667019 30.25312 
L 118.633192 30.074219 
L 120.599366 30.013076 
L 122.565539 30.052077 
L 124.531712 30.059122 
L 126.497886 30.06038 
L 128.464059 30.025909 
L 130.430233 30.022889 
L 132.396406 29.980366 
L 134.362579 29.751142 
L 136.328753 29.656283 
L 138.294926 29.702077 
L 140.261099 29.843738 
L 142.227273 30.686908 
L 144.193446 32.171704 
L 146.159619 33.545285 
L 148.125793 34.818722 
L 150.091966 36.277852 
L 152.05814 37.067932 
L 154.024313 36.55438 
L 155.990486 35.782417 
L 157.95666 35.506141 
L 159.922833 35.101792 
L 161.889006 34.310202 
L 163.85518 33.674365 
L 165.821353 33.281086 
L 167.787526 32.852078 
L 169.7537 32.52875 
L 171.719873 32.282416 
L 173.686047 32.071309 
L 175.65222 31.98903 
L 177.618393 31.793774 
L 179.584567 31.501646 
L 181.55074 31.558764 
L 183.516913 31.631984 
L 185.483087 31.412574 
L 187.44926 31.367534 
L 189.415433 31.436477 
L 191.381607 31.326772 
L 193.34778 31.291042 
L 195.313953 31.260093 
L 197.280127 31.080942 
L 199.2463 30.775478 
L 201.212474 30.546254 
L 203.178647 30.632559 
L 205.14482 30.828318 
L 207.110994 30.821272 
L 209.077167 30.67005 
L 211.04334 30.589029 
L 213.009514 30.581481 
" clip-path="url(#p10c4798a56)" style="fill: none; stroke: #d22730; stroke-width: 5; stroke-linecap: square"/>
   </g>
  </g>
 </g>
 <defs>
  <clipPath id="p10c4798a56">
   <rect x="45" y="12.96" width="279" height="83.16"/>
  </clipPath>
 </defs>
</svg>
