<?xml version="1.0" encoding="utf-8" standalone="no"?>
<!DOCTYPE svg PUBLIC "-//W3C//DTD SVG 1.1//EN"
  "http://www.w3.org/Graphics/SVG/1.1/DTD/svg11.dtd">
<svg xmlns:xlink="http://www.w3.org/1999/xlink" width="360pt" height="108pt" viewBox="0 0 360 108" xmlns="http://www.w3.org/2000/svg" version="1.1">
 <metadata>
  <rdf:RDF xmlns:dc="http://purl.org/dc/elements/1.1/" xmlns:cc="http://creativecommons.org/ns#" xmlns:rdf="http://www.w3.org/1999/02/22-rdf-syntax-ns#">
   <cc:Work>
    <dc:type rdf:resource="http://purl.org/dc/dcmitype/StillImage"/>
    <dc:date>2022-11-19T16:42:27.054254</dc:date>
    <dc:format>image/svg+xml</dc:format>
    <dc:creator>
     <cc:Agent>
      <dc:title>Matplotlib v3.5.2, https://matplotlib.org/</dc:title>
     </cc:Agent>
    </dc:creator>
   </cc:Work>
  </rdf:RDF>
 </metadata>
 <defs>
  <style type="text/css">*{stroke-linejoin: round; stroke-linecap: butt}</style>
 </defs>
 <g id="figure_1">
  <g id="patch_1">
   <path d="M 0 108 
L 360 108 
L 360 0 
L 0 0 
L 0 108 
z
" style="fill: none"/>
  </g>
  <g id="axes_1">
   <g id="line2d_1">
    <path d="M 57.681818 31.582416 
L 59.647992 31.630475 
L 61.614165 31.818433 
L 77.343552 31.513976 
L 79.309725 31.622423 
L 83.242072 31.31243 
L 89.140592 31.415845 
L 91.106765 31.317965 
L 93.072939 31.043199 
L 95.039112 31.106858 
L 97.005285 31.412825 
L 98.971459 31.437232 
L 102.903805 31.235183 
L 106.836152 31.160956 
L 110.768499 31.050496 
L 114.700846 30.99514 
L 116.667019 31.100568 
L 118.633192 31.067606 
L 122.565539 30.762142 
L 134.362579 30.489892 
L 138.294926 29.971559 
L 140.261099 29.533242 
L 142.227273 28.708187 
L 144.193446 27.70851 
L 148.125793 26.082809 
L 150.091966 25.657575 
L 152.05814 26.996684 
L 155.990486 33.204846 
L 157.95666 35.240433 
L 159.922833 36.281123 
L 161.889006 36.531483 
L 165.821353 36.326415 
L 167.787526 35.832489 
L 169.7537 35.209987 
L 179.584567 32.831697 
L 181.55074 32.472639 
L 185.483087 32.204666 
L 187.44926 31.952042 
L 195.313953 31.6345 
L 199.2463 31.686585 
L 203.178647 31.50693 
L 207.110994 31.572099 
L 216.94186 31.194924 
L 220.874207 30.889461 
L 232.671247 30.4212 
L 234.637421 30.563364 
L 236.603594 30.582235 
L 238.569767 30.480582 
L 246.434461 30.813472 
L 248.400634 31.068612 
L 250.366808 31.076413 
L 252.332981 30.921668 
L 256.265328 31.096039 
L 260.197674 30.844169 
L 262.163848 30.992372 
L 266.096195 30.793846 
L 268.062368 31.073896 
L 270.028541 31.154162 
L 271.994715 31.049489 
L 275.927061 31.278461 
L 277.893235 31.252042 
L 281.825581 31.596255 
L 285.757928 31.538382 
L 287.724101 31.648591 
L 291.656448 31.539137 
L 293.622622 31.63601 
L 297.554968 31.451323 
L 301.487315 31.56757 
L 305.419662 31.599777 
L 309.352008 31.651359 
L 311.318182 31.648339 
L 311.318182 31.648339 
" clip-path="url(#peba5d81fe9)" style="fill: none; stroke: #a9a9a9; stroke-width: 2.5; stroke-linecap: square"/>
   </g>
   <g id="line2d_2">
    <path d="M 116.667019 31.100568 
L 118.633192 31.067606 
L 120.599366 30.867318 
L 122.565539 30.762142 
L 124.531712 30.731445 
L 126.497886 30.728425 
L 128.464059 30.650927 
L 130.430233 30.570913 
L 132.396406 30.598339 
L 134.362579 30.489892 
L 136.328753 30.238274 
L 138.294926 29.971559 
L 140.261099 29.533242 
L 142.227273 28.708187 
L 144.193446 27.70851 
L 146.159619 26.877166 
L 148.125793 26.082809 
L 150.091966 25.657575 
L 152.05814 26.996684 
L 154.024313 30.133601 
L 155.990486 33.204846 
L 157.95666 35.240433 
L 159.922833 36.281123 
L 161.889006 36.531483 
L 163.85518 36.477888 
L 165.821353 36.326415 
L 167.787526 35.832489 
L 169.7537 35.209987 
L 171.719873 34.724113 
L 173.686047 34.282021 
L 175.65222 33.784322 
L 177.618393 33.293919 
L 179.584567 32.831697 
L 181.55074 32.472639 
L 183.516913 32.337269 
L 185.483087 32.204666 
L 187.44926 31.952042 
L 189.415433 31.853911 
L 191.381607 31.845859 
L 193.34778 31.731373 
L 195.313953 31.6345 
L 197.280127 31.690611 
L 199.2463 31.686585 
L 201.212474 31.563544 
L 203.178647 31.50693 
L 205.14482 31.568325 
L 207.110994 31.572099 
L 209.077167 31.501395 
L 211.04334 31.415593 
L 213.009514 31.408296 
" clip-path="url(#peba5d81fe9)" style="fill: none; stroke: #d22730; stroke-width: 5; stroke-linecap: square"/>
   </g>
  </g>
 </g>
 <defs>
  <clipPath id="peba5d81fe9">
   <rect x="45" y="12.96" width="279" height="83.16"/>
  </clipPath>
 </defs>
</svg>
