<?xml version="1.0" encoding="utf-8" standalone="no"?>
<!DOCTYPE svg PUBLIC "-//W3C//DTD SVG 1.1//EN"
  "http://www.w3.org/Graphics/SVG/1.1/DTD/svg11.dtd">
<svg xmlns:xlink="http://www.w3.org/1999/xlink" width="360pt" height="108pt" viewBox="0 0 360 108" xmlns="http://www.w3.org/2000/svg" version="1.1">
 <metadata>
  <rdf:RDF xmlns:dc="http://purl.org/dc/elements/1.1/" xmlns:cc="http://creativecommons.org/ns#" xmlns:rdf="http://www.w3.org/1999/02/22-rdf-syntax-ns#">
   <cc:Work>
    <dc:type rdf:resource="http://purl.org/dc/dcmitype/StillImage"/>
    <dc:date>2022-11-19T16:42:26.954409</dc:date>
    <dc:format>image/svg+xml</dc:format>
    <dc:creator>
     <cc:Agent>
      <dc:title>Matplotlib v3.5.2, https://matplotlib.org/</dc:title>
     </cc:Agent>
    </dc:creator>
   </cc:Work>
  </rdf:RDF>
 </metadata>
 <defs>
  <style type="text/css">*{stroke-linejoin: round; stroke-linecap: butt}</style>
 </defs>
 <g id="figure_1">
  <g id="patch_1">
   <path d="M 0 108 
L 360 108 
L 360 0 
L 0 0 
L 0 108 
z
" style="fill: none"/>
  </g>
  <g id="axes_1">
   <g id="line2d_1">
    <path d="M 57.681818 31.259087 
L 61.614165 31.088742 
L 63.580338 30.864047 
L 69.478858 30.620481 
L 75.377378 29.737555 
L 79.309725 29.435362 
L 83.242072 28.901933 
L 85.208245 28.864442 
L 97.005285 27.529107 
L 98.971459 27.553766 
L 100.937632 27.45186 
L 104.869979 26.849991 
L 110.768499 26.302471 
L 114.700846 26.077022 
L 118.633192 25.538057 
L 122.565539 25.364944 
L 132.396406 24.276194 
L 134.362579 24.363002 
L 136.328753 24.58971 
L 138.294926 23.976266 
L 140.261099 26.424254 
L 142.227273 36.937845 
L 144.193446 50.565708 
L 146.159619 60.718732 
L 148.125793 67.663882 
L 150.091966 68.618016 
L 152.05814 60.899393 
L 154.024313 51.251367 
L 155.990486 45.048992 
L 157.95666 40.808731 
L 159.922833 37.561606 
L 161.889006 35.49205 
L 163.85518 33.942086 
L 165.821353 32.753947 
L 167.787526 31.769116 
L 169.7537 31.031373 
L 177.618393 30.556319 
L 179.584567 30.569906 
L 183.516913 30.218648 
L 187.44926 30.265449 
L 189.415433 30.19097 
L 195.313953 29.53299 
L 203.178647 27.903262 
L 207.110994 27.247295 
L 214.975687 26.833384 
L 222.840381 27.435505 
L 226.772727 28.151106 
L 230.705074 28.535074 
L 234.637421 29.128892 
L 240.535941 29.755672 
L 242.502114 30.263688 
L 244.468288 30.466491 
L 252.332981 30.879144 
L 258.231501 31.4244 
L 262.163848 31.516995 
L 268.062368 32.259015 
L 275.927061 32.234105 
L 285.757928 32.622603 
L 287.724101 32.775838 
L 295.588795 32.521956 
L 297.554968 32.275371 
L 305.419662 31.944745 
L 307.385835 32.08087 
L 311.318182 31.84913 
L 311.318182 31.84913 
" clip-path="url(#paff9689d83)" style="fill: none; stroke: #a9a9a9; stroke-width: 2.5; stroke-linecap: square"/>
   </g>
   <g id="line2d_2">
    <path d="M 116.667019 25.805275 
L 118.633192 25.538057 
L 120.599366 25.477165 
L 122.565539 25.364944 
L 124.531712 25.143772 
L 126.497886 24.882593 
L 128.464059 24.631227 
L 130.430233 24.468682 
L 132.396406 24.276194 
L 134.362579 24.363002 
L 136.328753 24.58971 
L 138.294926 23.976266 
L 140.261099 26.424254 
L 142.227273 36.937845 
L 144.193446 50.565708 
L 146.159619 60.718732 
L 148.125793 67.663882 
L 150.091966 68.618016 
L 152.05814 60.899393 
L 154.024313 51.251367 
L 155.990486 45.048992 
L 157.95666 40.808731 
L 159.922833 37.561606 
L 161.889006 35.49205 
L 163.85518 33.942086 
L 165.821353 32.753947 
L 167.787526 31.769116 
L 169.7537 31.031373 
L 171.719873 30.887699 
L 173.686047 30.851718 
L 175.65222 30.6001 
L 177.618393 30.556319 
L 179.584567 30.569906 
L 181.55074 30.356786 
L 183.516913 30.218648 
L 185.483087 30.253623 
L 187.44926 30.265449 
L 189.415433 30.19097 
L 191.381607 29.978102 
L 193.34778 29.748878 
L 195.313953 29.53299 
L 197.280127 29.10373 
L 199.2463 28.592443 
L 201.212474 28.237914 
L 203.178647 27.903262 
L 205.14482 27.524578 
L 207.110994 27.247295 
L 209.077167 27.125512 
L 211.04334 26.9914 
L 213.009514 26.848481 
" clip-path="url(#paff9689d83)" style="fill: none; stroke: #d22730; stroke-width: 5; stroke-linecap: square"/>
   </g>
  </g>
 </g>
 <defs>
  <clipPath id="paff9689d83">
   <rect x="45" y="12.96" width="279" height="83.16"/>
  </clipPath>
 </defs>
</svg>
