<?xml version="1.0" encoding="utf-8" standalone="no"?>
<!DOCTYPE svg PUBLIC "-//W3C//DTD SVG 1.1//EN"
  "http://www.w3.org/Graphics/SVG/1.1/DTD/svg11.dtd">
<svg xmlns:xlink="http://www.w3.org/1999/xlink" width="360pt" height="108pt" viewBox="0 0 360 108" xmlns="http://www.w3.org/2000/svg" version="1.1">
 <metadata>
  <rdf:RDF xmlns:dc="http://purl.org/dc/elements/1.1/" xmlns:cc="http://creativecommons.org/ns#" xmlns:rdf="http://www.w3.org/1999/02/22-rdf-syntax-ns#">
   <cc:Work>
    <dc:type rdf:resource="http://purl.org/dc/dcmitype/StillImage"/>
    <dc:date>2022-11-19T16:42:27.064259</dc:date>
    <dc:format>image/svg+xml</dc:format>
    <dc:creator>
     <cc:Agent>
      <dc:title>Matplotlib v3.5.2, https://matplotlib.org/</dc:title>
     </cc:Agent>
    </dc:creator>
   </cc:Work>
  </rdf:RDF>
 </metadata>
 <defs>
  <style type="text/css">*{stroke-linejoin: round; stroke-linecap: butt}</style>
 </defs>
 <g id="figure_1">
  <g id="patch_1">
   <path d="M 0 108 
L 360 108 
L 360 0 
L 0 0 
L 0 108 
z
" style="fill: none"/>
  </g>
  <g id="axes_1">
   <g id="line2d_1">
    <path d="M 57.681818 31.900712 
L 59.647992 31.709231 
L 63.580338 31.642804 
L 67.512685 31.838814 
L 69.478858 31.69514 
L 71.445032 31.39949 
L 85.208245 30.973249 
L 89.140592 30.835111 
L 98.971459 30.470014 
L 100.937632 30.472279 
L 108.802326 29.866383 
L 110.768499 29.713903 
L 114.700846 29.63716 
L 116.667019 29.410955 
L 118.633192 29.335973 
L 120.599366 29.380006 
L 126.497886 29.0368 
L 134.362579 28.450028 
L 138.294926 28.19841 
L 140.261099 26.954161 
L 142.227273 24.107862 
L 144.193446 21.505632 
L 146.159619 20.118716 
L 148.125793 19.219434 
L 150.091966 22.373713 
L 154.024313 43.61301 
L 155.990486 48.113443 
L 157.95666 48.371099 
L 159.922833 47.63864 
L 161.889006 46.012687 
L 163.85518 43.828143 
L 169.7537 38.009988 
L 171.719873 36.288924 
L 173.686047 34.918362 
L 175.65222 33.821561 
L 177.618393 32.899131 
L 179.584567 32.243667 
L 185.483087 31.171524 
L 187.44926 30.855995 
L 189.415433 30.70578 
L 193.34778 30.725154 
L 195.313953 30.750819 
L 199.2463 30.488885 
L 203.178647 30.457685 
L 209.077167 29.863867 
L 211.04334 29.831408 
L 214.975687 29.566707 
L 216.94186 29.591114 
L 220.874207 29.285398 
L 224.806554 29.530474 
L 226.772727 29.464047 
L 230.705074 29.630618 
L 232.671247 29.57501 
L 236.603594 29.795175 
L 238.569767 29.766491 
L 240.535941 29.898087 
L 242.502114 30.190718 
L 250.366808 30.849202 
L 256.265328 30.963185 
L 258.231501 30.947081 
L 260.197674 30.785291 
L 270.028541 31.401503 
L 273.960888 31.757038 
L 277.893235 31.390935 
L 281.825581 31.854917 
L 283.791755 31.758548 
L 285.757928 31.84284 
L 287.724101 32.050173 
L 293.622622 31.922351 
L 295.588795 32.050928 
L 299.521142 31.876557 
L 301.487315 31.932164 
L 305.419662 31.75427 
L 307.385835 31.955061 
L 309.352008 32.020985 
L 311.318182 31.857434 
L 311.318182 31.857434 
" clip-path="url(#p94217309c4)" style="fill: none; stroke: #a9a9a9; stroke-width: 2.5; stroke-linecap: square"/>
   </g>
   <g id="line2d_2">
    <path d="M 116.667019 29.410955 
L 118.633192 29.335973 
L 120.599366 29.380006 
L 122.565539 29.286656 
L 124.531712 29.131157 
L 126.497886 29.0368 
L 128.464059 28.868971 
L 130.430233 28.678748 
L 132.396406 28.583385 
L 134.362579 28.450028 
L 136.328753 28.333529 
L 138.294926 28.19841 
L 140.261099 26.954161 
L 142.227273 24.107862 
L 144.193446 21.505632 
L 146.159619 20.118716 
L 148.125793 19.219434 
L 150.091966 22.373713 
L 152.05814 32.732308 
L 154.024313 43.61301 
L 155.990486 48.113443 
L 157.95666 48.371099 
L 159.922833 47.63864 
L 161.889006 46.012687 
L 163.85518 43.828143 
L 165.821353 41.851938 
L 167.787526 39.96078 
L 169.7537 38.009988 
L 171.719873 36.288924 
L 173.686047 34.918362 
L 175.65222 33.821561 
L 177.618393 32.899131 
L 179.584567 32.243667 
L 181.55074 31.855924 
L 183.516913 31.524292 
L 185.483087 31.171524 
L 187.44926 30.855995 
L 189.415433 30.70578 
L 191.381607 30.680366 
L 193.34778 30.725154 
L 195.313953 30.750819 
L 197.280127 30.612178 
L 199.2463 30.488885 
L 201.212474 30.490143 
L 203.178647 30.457685 
L 205.14482 30.263688 
L 207.110994 29.978605 
L 209.077167 29.863867 
L 211.04334 29.831408 
L 213.009514 29.668612 
" clip-path="url(#p94217309c4)" style="fill: none; stroke: #d22730; stroke-width: 5; stroke-linecap: square"/>
   </g>
  </g>
 </g>
 <defs>
  <clipPath id="p94217309c4">
   <rect x="45" y="12.96" width="279" height="83.16"/>
  </clipPath>
 </defs>
</svg>
