<?xml version="1.0" encoding="utf-8" standalone="no"?>
<!DOCTYPE svg PUBLIC "-//W3C//DTD SVG 1.1//EN"
  "http://www.w3.org/Graphics/SVG/1.1/DTD/svg11.dtd">
<svg xmlns:xlink="http://www.w3.org/1999/xlink" width="360pt" height="108pt" viewBox="0 0 360 108" xmlns="http://www.w3.org/2000/svg" version="1.1">
 <metadata>
  <rdf:RDF xmlns:dc="http://purl.org/dc/elements/1.1/" xmlns:cc="http://creativecommons.org/ns#" xmlns:rdf="http://www.w3.org/1999/02/22-rdf-syntax-ns#">
   <cc:Work>
    <dc:type rdf:resource="http://purl.org/dc/dcmitype/StillImage"/>
    <dc:date>2022-11-16T22:28:49.958356</dc:date>
    <dc:format>image/svg+xml</dc:format>
    <dc:creator>
     <cc:Agent>
      <dc:title>Matplotlib v3.5.2, https://matplotlib.org/</dc:title>
     </cc:Agent>
    </dc:creator>
   </cc:Work>
  </rdf:RDF>
 </metadata>
 <defs>
  <style type="text/css">*{stroke-linejoin: round; stroke-linecap: butt}</style>
 </defs>
 <g id="figure_1">
  <g id="patch_1">
   <path d="M 0 108 
L 360 108 
L 360 0 
L 0 0 
L 0 108 
z
" style="fill: none"/>
  </g>
  <g id="axes_1">
   <g id="line2d_1">
    <path d="M 57.681818 45.8544 
L 59.647992 48.2568 
L 61.614165 42.1584 
L 63.580338 37.3536 
L 65.546512 39.9408 
L 67.512685 42.1584 
L 69.478858 45.1152 
L 71.445032 49.3656 
L 73.411205 46.4088 
L 75.377378 39.5712 
L 77.343552 38.6472 
L 79.309725 40.8648 
L 81.275899 42.1584 
L 83.242072 42.528 
L 85.208245 41.4192 
L 87.174419 40.1256 
L 89.140592 41.604 
L 91.106765 42.528 
L 93.072939 38.832 
L 95.039112 35.8752 
L 97.005285 38.0928 
L 98.971459 39.756 
L 100.937632 37.3536 
L 102.903805 36.2448 
L 104.869979 39.2016 
L 106.836152 39.9408 
L 108.802326 38.4624 
L 112.734672 32.5488 
L 114.700846 34.212 
L 116.667019 38.6472 
L 118.633192 39.0168 
L 120.599366 37.3536 
L 122.565539 38.832 
L 124.531712 38.6472 
L 126.497886 38.0928 
L 128.464059 39.2016 
L 130.430233 38.0928 
L 132.396406 40.4952 
L 134.362579 45.1152 
L 136.328753 43.452 
L 138.294926 39.2016 
L 140.261099 37.3536 
L 142.227273 37.908 
L 144.193446 40.4952 
L 146.159619 40.4952 
L 148.125793 35.136 
L 150.091966 30.1464 
L 152.05814 27.3744 
L 154.024313 28.668 
L 155.990486 33.6576 
L 157.95666 39.5712 
L 159.922833 44.376 
L 161.889006 47.7024 
L 163.85518 51.9528 
L 165.821353 54.7248 
L 167.787526 52.1376 
L 169.7537 49.92 
L 171.719873 49.7352 
L 173.686047 47.5176 
L 175.65222 44.9304 
L 177.618393 44.7456 
L 179.584567 45.6696 
L 181.55074 45.6696 
L 183.516913 45.1152 
L 185.483087 44.9304 
L 187.44926 43.0824 
L 189.415433 42.528 
L 191.381607 43.6368 
L 193.34778 41.604 
L 195.313953 39.756 
L 197.280127 40.1256 
L 199.2463 41.4192 
L 201.212474 40.8648 
L 203.178647 37.908 
L 205.14482 35.8752 
L 207.110994 39.0168 
L 209.077167 43.6368 
L 211.04334 44.9304 
L 213.009514 41.604 
L 214.975687 35.8752 
L 216.94186 35.5056 
L 218.908034 41.9736 
L 220.874207 42.7128 
L 222.840381 39.9408 
L 224.806554 38.832 
L 226.772727 36.06 
L 228.738901 34.0272 
L 230.705074 37.1688 
L 232.671247 41.2344 
L 234.637421 40.68 
L 236.603594 38.832 
L 238.569767 40.68 
L 240.535941 39.5712 
L 242.502114 37.5384 
L 244.468288 42.528 
L 246.434461 46.9632 
L 248.400634 41.7888 
L 250.366808 37.5384 
L 252.332981 45.3 
L 254.299154 48.4416 
L 256.265328 41.7888 
L 258.231501 39.756 
L 260.197674 43.2672 
L 262.163848 43.2672 
L 266.096195 40.3104 
L 268.062368 36.984 
L 270.028541 34.5816 
L 271.994715 38.2776 
L 273.960888 41.2344 
L 275.927061 36.7992 
L 277.893235 35.5056 
L 279.859408 37.3536 
L 281.825581 35.5056 
L 283.791755 36.06 
L 285.757928 39.3864 
L 287.724101 41.4192 
L 289.690275 43.6368 
L 291.656448 41.9736 
L 293.622622 39.9408 
L 295.588795 41.604 
L 297.554968 42.3432 
L 299.521142 42.1584 
L 301.487315 40.8648 
L 303.453488 38.4624 
L 305.419662 39.9408 
L 307.385835 41.0496 
L 309.352008 39.3864 
L 311.318182 40.8648 
L 311.318182 40.8648 
" clip-path="url(#p839678ee89)" style="fill: none; stroke: #a9a9a9; stroke-width: 2.5; stroke-linecap: square"/>
   </g>
  </g>
 </g>
 <defs>
  <clipPath id="p839678ee89">
   <rect x="45" y="12.96" width="279" height="83.16"/>
  </clipPath>
 </defs>
</svg>
