<?xml version="1.0" encoding="utf-8" standalone="no"?>
<!DOCTYPE svg PUBLIC "-//W3C//DTD SVG 1.1//EN"
  "http://www.w3.org/Graphics/SVG/1.1/DTD/svg11.dtd">
<svg xmlns:xlink="http://www.w3.org/1999/xlink" width="360pt" height="108pt" viewBox="0 0 360 108" xmlns="http://www.w3.org/2000/svg" version="1.1">
 <metadata>
  <rdf:RDF xmlns:dc="http://purl.org/dc/elements/1.1/" xmlns:cc="http://creativecommons.org/ns#" xmlns:rdf="http://www.w3.org/1999/02/22-rdf-syntax-ns#">
   <cc:Work>
    <dc:type rdf:resource="http://purl.org/dc/dcmitype/StillImage"/>
    <dc:date>2022-11-16T22:28:49.878487</dc:date>
    <dc:format>image/svg+xml</dc:format>
    <dc:creator>
     <cc:Agent>
      <dc:title>Matplotlib v3.5.2, https://matplotlib.org/</dc:title>
     </cc:Agent>
    </dc:creator>
   </cc:Work>
  </rdf:RDF>
 </metadata>
 <defs>
  <style type="text/css">*{stroke-linejoin: round; stroke-linecap: butt}</style>
 </defs>
 <g id="figure_1">
  <g id="patch_1">
   <path d="M 0 108 
L 360 108 
L 360 0 
L 0 0 
L 0 108 
z
" style="fill: none"/>
  </g>
  <g id="axes_1">
   <g id="line2d_1">
    <path d="M 57.681818 39.3864 
L 59.647992 39.5712 
L 61.614165 45.6696 
L 63.580338 47.7024 
L 65.546512 42.3432 
L 67.512685 40.8648 
L 69.478858 41.7888 
L 71.445032 42.528 
L 73.411205 43.452 
L 75.377378 41.9736 
L 77.343552 43.0824 
L 79.309725 43.452 
L 81.275899 39.756 
L 83.242072 38.6472 
L 85.208245 42.528 
L 87.174419 44.1912 
L 89.140592 41.604 
L 93.072939 37.1688 
L 95.039112 35.6904 
L 97.005285 38.2776 
L 98.971459 37.5384 
L 100.937632 32.364 
L 102.903805 33.1032 
L 104.869979 35.136 
L 106.836152 32.5488 
L 108.802326 31.8096 
L 110.768499 33.288 
L 112.734672 32.7336 
L 114.700846 28.8528 
L 116.667019 28.668 
L 118.633192 32.9184 
L 120.599366 33.288 
L 122.565539 30.1464 
L 124.531712 32.5488 
L 126.497886 36.984 
L 128.464059 32.9184 
L 130.430233 29.2224 
L 132.396406 29.2224 
L 134.362579 28.1136 
L 136.328753 29.592 
L 138.294926 29.592 
L 140.261099 30.7008 
L 142.227273 44.0064 
L 144.193446 59.5296 
L 146.159619 69.324 
L 148.125793 81.1512 
L 150.091966 91.5 
L 152.05814 89.652 
L 155.990486 63.5952 
L 157.95666 58.7904 
L 159.922833 55.2792 
L 161.889006 50.1048 
L 163.85518 47.7024 
L 165.821353 48.4416 
L 167.787526 47.8872 
L 171.719873 39.9408 
L 173.686047 40.1256 
L 175.65222 43.0824 
L 177.618393 43.8216 
L 179.584567 43.6368 
L 181.55074 42.1584 
L 183.516913 42.7128 
L 185.483087 44.376 
L 189.415433 36.2448 
L 191.381607 34.3968 
L 193.34778 34.5816 
L 195.313953 35.6904 
L 197.280127 35.136 
L 199.2463 36.7992 
L 201.212474 33.6576 
L 203.178647 28.8528 
L 205.14482 33.6576 
L 207.110994 37.908 
L 209.077167 36.4296 
L 211.04334 36.6144 
L 213.009514 36.984 
L 214.975687 33.6576 
L 216.94186 33.288 
L 218.908034 34.5816 
L 220.874207 34.3968 
L 222.840381 37.1688 
L 224.806554 35.8752 
L 226.772727 31.9944 
L 228.738901 32.7336 
L 230.705074 33.6576 
L 232.671247 34.212 
L 234.637421 34.0272 
L 236.603594 33.4728 
L 238.569767 35.5056 
L 240.535941 34.9512 
L 242.502114 34.212 
L 244.468288 36.06 
L 248.400634 37.908 
L 250.366808 41.2344 
L 252.332981 42.8976 
L 254.299154 38.6472 
L 256.265328 37.3536 
L 258.231501 41.604 
L 260.197674 37.908 
L 262.163848 31.2552 
L 264.130021 38.2776 
L 266.096195 47.7024 
L 268.062368 41.604 
L 270.028541 33.8424 
L 271.994715 36.06 
L 273.960888 39.756 
L 277.893235 42.7128 
L 279.859408 40.3104 
L 281.825581 38.2776 
L 283.791755 38.6472 
L 285.757928 37.5384 
L 289.690275 38.2776 
L 291.656448 37.908 
L 293.622622 39.3864 
L 295.588795 41.0496 
L 297.554968 43.8216 
L 299.521142 48.6264 
L 301.487315 55.0944 
L 303.453488 54.3552 
L 305.419662 47.148 
L 307.385835 45.4848 
L 309.352008 46.0392 
L 311.318182 41.604 
L 311.318182 41.604 
" clip-path="url(#p55ab363f16)" style="fill: none; stroke: #a9a9a9; stroke-width: 2.5; stroke-linecap: square"/>
   </g>
   <g id="line2d_2">
    <path d="M 116.667019 28.668 
L 118.633192 32.9184 
L 120.599366 33.288 
L 122.565539 30.1464 
L 124.531712 32.5488 
L 126.497886 36.984 
L 128.464059 32.9184 
L 130.430233 29.2224 
L 132.396406 29.2224 
L 134.362579 28.1136 
L 136.328753 29.592 
L 138.294926 29.592 
L 140.261099 30.7008 
L 142.227273 44.0064 
L 144.193446 59.5296 
L 146.159619 69.324 
L 148.125793 81.1512 
L 150.091966 91.5 
L 152.05814 89.652 
L 154.024313 76.5312 
L 155.990486 63.5952 
L 157.95666 58.7904 
L 159.922833 55.2792 
L 161.889006 50.1048 
L 163.85518 47.7024 
L 165.821353 48.4416 
L 167.787526 47.8872 
L 169.7537 43.8216 
L 171.719873 39.9408 
L 173.686047 40.1256 
L 175.65222 43.0824 
L 177.618393 43.8216 
L 179.584567 43.6368 
L 181.55074 42.1584 
L 183.516913 42.7128 
L 185.483087 44.376 
L 187.44926 40.3104 
L 189.415433 36.2448 
L 191.381607 34.3968 
L 193.34778 34.5816 
L 195.313953 35.6904 
L 197.280127 35.136 
L 199.2463 36.7992 
L 201.212474 33.6576 
L 203.178647 28.8528 
L 205.14482 33.6576 
L 207.110994 37.908 
L 209.077167 36.4296 
L 211.04334 36.6144 
L 213.009514 36.984 
" clip-path="url(#p55ab363f16)" style="fill: none; stroke: #87cefa; stroke-width: 5; stroke-linecap: square"/>
   </g>
  </g>
 </g>
 <defs>
  <clipPath id="p55ab363f16">
   <rect x="45" y="12.96" width="279" height="83.16"/>
  </clipPath>
 </defs>
</svg>
