<?xml version="1.0" encoding="utf-8" standalone="no"?>
<!DOCTYPE svg PUBLIC "-//W3C//DTD SVG 1.1//EN"
  "http://www.w3.org/Graphics/SVG/1.1/DTD/svg11.dtd">
<svg xmlns:xlink="http://www.w3.org/1999/xlink" width="360pt" height="108pt" viewBox="0 0 360 108" xmlns="http://www.w3.org/2000/svg" version="1.1">
 <metadata>
  <rdf:RDF xmlns:dc="http://purl.org/dc/elements/1.1/" xmlns:cc="http://creativecommons.org/ns#" xmlns:rdf="http://www.w3.org/1999/02/22-rdf-syntax-ns#">
   <cc:Work>
    <dc:type rdf:resource="http://purl.org/dc/dcmitype/StillImage"/>
    <dc:date>2022-11-16T22:28:49.948354</dc:date>
    <dc:format>image/svg+xml</dc:format>
    <dc:creator>
     <cc:Agent>
      <dc:title>Matplotlib v3.5.2, https://matplotlib.org/</dc:title>
     </cc:Agent>
    </dc:creator>
   </cc:Work>
  </rdf:RDF>
 </metadata>
 <defs>
  <style type="text/css">*{stroke-linejoin: round; stroke-linecap: butt}</style>
 </defs>
 <g id="figure_1">
  <g id="patch_1">
   <path d="M 0 108 
L 360 108 
L 360 0 
L 0 0 
L 0 108 
z
" style="fill: none"/>
  </g>
  <g id="axes_1">
   <g id="line2d_1">
    <path d="M 57.681818 39.3864 
L 59.647992 38.0928 
L 61.614165 40.1256 
L 65.546512 42.7128 
L 67.512685 47.148 
L 69.478858 47.3328 
L 71.445032 42.3432 
L 73.411205 40.4952 
L 75.377378 40.68 
L 77.343552 40.3104 
L 79.309725 38.2776 
L 81.275899 36.984 
L 83.242072 37.908 
L 85.208245 37.3536 
L 87.174419 36.6144 
L 89.140592 38.2776 
L 91.106765 39.0168 
L 93.072939 36.4296 
L 95.039112 36.6144 
L 97.005285 40.3104 
L 98.971459 40.68 
L 100.937632 37.5384 
L 102.903805 37.7232 
L 104.869979 37.7232 
L 106.836152 34.212 
L 108.802326 33.4728 
L 110.768499 37.3536 
L 112.734672 39.0168 
L 114.700846 35.8752 
L 116.667019 35.8752 
L 118.633192 36.984 
L 120.599366 33.4728 
L 122.565539 33.1032 
L 124.531712 35.136 
L 126.497886 33.1032 
L 128.464059 31.9944 
L 130.430233 31.8096 
L 132.396406 30.7008 
L 134.362579 33.1032 
L 136.328753 34.3968 
L 138.294926 33.1032 
L 140.261099 33.288 
L 144.193446 25.7112 
L 146.159619 31.8096 
L 148.125793 35.8752 
L 150.091966 41.9736 
L 152.05814 62.856 
L 154.024313 75.6072 
L 155.990486 70.6176 
L 157.95666 68.4 
L 159.922833 68.5848 
L 161.889006 65.628 
L 163.85518 64.3344 
L 165.821353 62.1168 
L 167.787526 55.464 
L 169.7537 50.4744 
L 171.719873 49.5504 
L 173.686047 49.1808 
L 175.65222 50.6592 
L 177.618393 49.92 
L 179.584567 46.224 
L 181.55074 46.9632 
L 183.516913 46.9632 
L 185.483087 41.9736 
L 187.44926 36.2448 
L 189.415433 34.9512 
L 191.381607 35.5056 
L 193.34778 33.288 
L 195.313953 31.9944 
L 197.280127 34.5816 
L 199.2463 39.756 
L 201.212474 39.756 
L 203.178647 34.0272 
L 205.14482 33.4728 
L 207.110994 35.5056 
L 209.077167 35.3208 
L 211.04334 34.212 
L 213.009514 33.8424 
L 216.94186 40.3104 
L 218.908034 38.6472 
L 220.874207 35.8752 
L 222.840381 37.1688 
L 224.806554 37.908 
L 228.738901 34.9512 
L 230.705074 32.1792 
L 232.671247 31.0704 
L 234.637421 33.288 
L 236.603594 33.6576 
L 238.569767 33.4728 
L 240.535941 34.5816 
L 242.502114 37.908 
L 244.468288 42.1584 
L 246.434461 44.1912 
L 248.400634 43.8216 
L 250.366808 42.7128 
L 252.332981 43.8216 
L 254.299154 42.1584 
L 256.265328 39.756 
L 258.231501 42.3432 
L 260.197674 41.0496 
L 262.163848 35.5056 
L 264.130021 36.06 
L 266.096195 39.3864 
L 268.062368 37.7232 
L 270.028541 35.5056 
L 271.994715 35.5056 
L 275.927061 35.136 
L 277.893235 35.5056 
L 279.859408 37.908 
L 281.825581 43.0824 
L 283.791755 43.6368 
L 285.757928 39.9408 
L 287.724101 39.9408 
L 289.690275 41.0496 
L 291.656448 40.4952 
L 293.622622 42.3432 
L 295.588795 42.8976 
L 297.554968 39.9408 
L 299.521142 41.0496 
L 301.487315 44.1912 
L 303.453488 43.6368 
L 305.419662 44.7456 
L 307.385835 47.3328 
L 309.352008 46.5936 
L 311.318182 45.1152 
L 311.318182 45.1152 
" clip-path="url(#p5dac0f3884)" style="fill: none; stroke: #a9a9a9; stroke-width: 2.5; stroke-linecap: square"/>
   </g>
   <g id="line2d_2">
    <path d="M 116.667019 35.8752 
L 118.633192 36.984 
L 120.599366 33.4728 
L 122.565539 33.1032 
L 124.531712 35.136 
L 126.497886 33.1032 
L 128.464059 31.9944 
L 130.430233 31.8096 
L 132.396406 30.7008 
L 134.362579 33.1032 
L 136.328753 34.3968 
L 138.294926 33.1032 
L 140.261099 33.288 
L 142.227273 29.4072 
L 144.193446 25.7112 
L 146.159619 31.8096 
L 148.125793 35.8752 
L 150.091966 41.9736 
L 152.05814 62.856 
L 154.024313 75.6072 
L 155.990486 70.6176 
L 157.95666 68.4 
L 159.922833 68.5848 
L 161.889006 65.628 
L 163.85518 64.3344 
L 165.821353 62.1168 
L 167.787526 55.464 
L 169.7537 50.4744 
L 171.719873 49.5504 
L 173.686047 49.1808 
L 175.65222 50.6592 
L 177.618393 49.92 
L 179.584567 46.224 
L 181.55074 46.9632 
L 183.516913 46.9632 
L 185.483087 41.9736 
L 187.44926 36.2448 
L 189.415433 34.9512 
L 191.381607 35.5056 
L 193.34778 33.288 
L 195.313953 31.9944 
L 197.280127 34.5816 
L 199.2463 39.756 
L 201.212474 39.756 
L 203.178647 34.0272 
L 205.14482 33.4728 
L 207.110994 35.5056 
L 209.077167 35.3208 
L 211.04334 34.212 
L 213.009514 33.8424 
" clip-path="url(#p5dac0f3884)" style="fill: none; stroke: #87cefa; stroke-width: 5; stroke-linecap: square"/>
   </g>
  </g>
 </g>
 <defs>
  <clipPath id="p5dac0f3884">
   <rect x="45" y="12.96" width="279" height="83.16"/>
  </clipPath>
 </defs>
</svg>
