<?xml version="1.0" encoding="utf-8" standalone="no"?>
<!DOCTYPE svg PUBLIC "-//W3C//DTD SVG 1.1//EN"
  "http://www.w3.org/Graphics/SVG/1.1/DTD/svg11.dtd">
<svg xmlns:xlink="http://www.w3.org/1999/xlink" width="360pt" height="108pt" viewBox="0 0 360 108" xmlns="http://www.w3.org/2000/svg" version="1.1">
 <metadata>
  <rdf:RDF xmlns:dc="http://purl.org/dc/elements/1.1/" xmlns:cc="http://creativecommons.org/ns#" xmlns:rdf="http://www.w3.org/1999/02/22-rdf-syntax-ns#">
   <cc:Work>
    <dc:type rdf:resource="http://purl.org/dc/dcmitype/StillImage"/>
    <dc:date>2022-11-16T22:33:34.480874</dc:date>
    <dc:format>image/svg+xml</dc:format>
    <dc:creator>
     <cc:Agent>
      <dc:title>Matplotlib v3.5.2, https://matplotlib.org/</dc:title>
     </cc:Agent>
    </dc:creator>
   </cc:Work>
  </rdf:RDF>
 </metadata>
 <defs>
  <style type="text/css">*{stroke-linejoin: round; stroke-linecap: butt}</style>
 </defs>
 <g id="figure_1">
  <g id="patch_1">
   <path d="M 0 108 
L 360 108 
L 360 0 
L 0 0 
L 0 108 
z
" style="fill: none"/>
  </g>
  <g id="axes_1">
   <g id="line2d_1">
    <path d="M 57.681818 39.0168 
L 59.647992 38.6472 
L 61.614165 39.5712 
L 63.580338 35.6904 
L 65.546512 39.2016 
L 67.512685 43.8216 
L 69.478858 41.2344 
L 71.445032 40.4952 
L 73.411205 40.68 
L 75.377378 37.5384 
L 77.343552 38.0928 
L 79.309725 40.8648 
L 81.275899 39.2016 
L 83.242072 39.756 
L 85.208245 42.8976 
L 87.174419 41.604 
L 89.140592 37.7232 
L 91.106765 37.7232 
L 93.072939 37.908 
L 95.039112 34.9512 
L 97.005285 36.7992 
L 98.971459 40.3104 
L 100.937632 38.0928 
L 102.903805 37.5384 
L 104.869979 40.3104 
L 108.802326 37.7232 
L 110.768499 42.1584 
L 112.734672 43.452 
L 114.700846 38.2776 
L 116.667019 37.5384 
L 118.633192 40.8648 
L 120.599366 40.68 
L 122.565539 36.984 
L 124.531712 36.7992 
L 126.497886 33.8424 
L 128.464059 27.3744 
L 130.430233 28.2984 
L 132.396406 32.364 
L 134.362579 30.1464 
L 136.328753 28.1136 
L 138.294926 31.2552 
L 140.261099 35.6904 
L 142.227273 41.604 
L 144.193446 52.692 
L 146.159619 62.6712 
L 148.125793 64.704 
L 150.091966 66.1824 
L 152.05814 69.1392 
L 154.024313 65.4432 
L 155.990486 57.1272 
L 157.95666 53.616 
L 159.922833 52.692 
L 161.889006 47.7024 
L 163.85518 43.452 
L 165.821353 42.7128 
L 167.787526 43.452 
L 169.7537 43.8216 
L 171.719873 42.1584 
L 173.686047 42.1584 
L 175.65222 42.3432 
L 177.618393 40.68 
L 179.584567 41.9736 
L 181.55074 43.6368 
L 183.516913 41.2344 
L 185.483087 41.7888 
L 187.44926 42.7128 
L 189.415433 39.0168 
L 191.381607 39.756 
L 193.34778 39.0168 
L 195.313953 33.1032 
L 197.280127 36.6144 
L 199.2463 41.0496 
L 201.212474 36.7992 
L 203.178647 37.3536 
L 205.14482 40.68 
L 209.077167 28.4832 
L 211.04334 31.8096 
L 213.009514 32.9184 
L 214.975687 32.364 
L 216.94186 33.6576 
L 218.908034 32.9184 
L 220.874207 33.1032 
L 222.840381 35.8752 
L 224.806554 39.5712 
L 226.772727 42.528 
L 228.738901 42.1584 
L 230.705074 40.8648 
L 232.671247 38.0928 
L 234.637421 33.288 
L 236.603594 35.3208 
L 238.569767 41.7888 
L 240.535941 38.832 
L 242.502114 35.3208 
L 244.468288 38.6472 
L 246.434461 37.7232 
L 248.400634 36.06 
L 250.366808 39.5712 
L 252.332981 40.3104 
L 254.299154 38.832 
L 256.265328 40.8648 
L 258.231501 43.0824 
L 260.197674 42.528 
L 262.163848 41.2344 
L 264.130021 39.3864 
L 266.096195 37.908 
L 268.062368 37.3536 
L 270.028541 37.7232 
L 271.994715 39.2016 
L 273.960888 37.1688 
L 275.927061 32.9184 
L 277.893235 36.7992 
L 279.859408 41.0496 
L 281.825581 38.0928 
L 283.791755 38.4624 
L 285.757928 41.0496 
L 287.724101 39.9408 
L 289.690275 41.0496 
L 291.656448 43.2672 
L 293.622622 44.376 
L 297.554968 46.224 
L 299.521142 46.5936 
L 301.487315 46.4088 
L 303.453488 47.7024 
L 305.419662 47.5176 
L 307.385835 44.1912 
L 309.352008 42.528 
L 311.318182 44.9304 
L 311.318182 44.9304 
" clip-path="url(#pebf71781c0)" style="fill: none; stroke: #a9a9a9; stroke-width: 2.5; stroke-linecap: square"/>
   </g>
   <g id="line2d_2">
    <path d="M 116.667019 37.5384 
L 118.633192 40.8648 
L 120.599366 40.68 
L 122.565539 36.984 
L 124.531712 36.7992 
L 126.497886 33.8424 
L 128.464059 27.3744 
L 130.430233 28.2984 
L 132.396406 32.364 
L 134.362579 30.1464 
L 136.328753 28.1136 
L 138.294926 31.2552 
L 140.261099 35.6904 
L 142.227273 41.604 
L 144.193446 52.692 
L 146.159619 62.6712 
L 148.125793 64.704 
L 150.091966 66.1824 
L 152.05814 69.1392 
L 154.024313 65.4432 
L 155.990486 57.1272 
L 157.95666 53.616 
L 159.922833 52.692 
L 161.889006 47.7024 
L 163.85518 43.452 
L 165.821353 42.7128 
L 167.787526 43.452 
L 169.7537 43.8216 
L 171.719873 42.1584 
L 173.686047 42.1584 
L 175.65222 42.3432 
L 177.618393 40.68 
L 179.584567 41.9736 
L 181.55074 43.6368 
L 183.516913 41.2344 
L 185.483087 41.7888 
L 187.44926 42.7128 
L 189.415433 39.0168 
L 191.381607 39.756 
L 193.34778 39.0168 
L 195.313953 33.1032 
L 197.280127 36.6144 
L 199.2463 41.0496 
L 201.212474 36.7992 
L 203.178647 37.3536 
L 205.14482 40.68 
L 207.110994 34.5816 
L 209.077167 28.4832 
L 211.04334 31.8096 
L 213.009514 32.9184 
" clip-path="url(#pebf71781c0)" style="fill: none; stroke: #6495ed; stroke-width: 5; stroke-linecap: square"/>
   </g>
  </g>
 </g>
 <defs>
  <clipPath id="pebf71781c0">
   <rect x="45" y="12.96" width="279" height="83.16"/>
  </clipPath>
 </defs>
</svg>
