<?xml version="1.0" encoding="utf-8" standalone="no"?>
<!DOCTYPE svg PUBLIC "-//W3C//DTD SVG 1.1//EN"
  "http://www.w3.org/Graphics/SVG/1.1/DTD/svg11.dtd">
<svg xmlns:xlink="http://www.w3.org/1999/xlink" width="360pt" height="108pt" viewBox="0 0 360 108" xmlns="http://www.w3.org/2000/svg" version="1.1">
 <metadata>
  <rdf:RDF xmlns:dc="http://purl.org/dc/elements/1.1/" xmlns:cc="http://creativecommons.org/ns#" xmlns:rdf="http://www.w3.org/1999/02/22-rdf-syntax-ns#">
   <cc:Work>
    <dc:type rdf:resource="http://purl.org/dc/dcmitype/StillImage"/>
    <dc:date>2022-11-16T22:33:34.571438</dc:date>
    <dc:format>image/svg+xml</dc:format>
    <dc:creator>
     <cc:Agent>
      <dc:title>Matplotlib v3.5.2, https://matplotlib.org/</dc:title>
     </cc:Agent>
    </dc:creator>
   </cc:Work>
  </rdf:RDF>
 </metadata>
 <defs>
  <style type="text/css">*{stroke-linejoin: round; stroke-linecap: butt}</style>
 </defs>
 <g id="figure_1">
  <g id="patch_1">
   <path d="M 0 108 
L 360 108 
L 360 0 
L 0 0 
L 0 108 
z
" style="fill: none"/>
  </g>
  <g id="axes_1">
   <g id="line2d_1">
    <path d="M 57.681818 36.7992 
L 59.647992 36.4296 
L 61.614165 41.0496 
L 63.580338 42.7128 
L 65.546512 40.1256 
L 67.512685 40.8648 
L 69.478858 42.8976 
L 71.445032 40.3104 
L 73.411205 38.6472 
L 75.377378 39.756 
L 77.343552 39.756 
L 79.309725 40.1256 
L 81.275899 41.604 
L 83.242072 42.7128 
L 85.208245 40.68 
L 87.174419 39.5712 
L 89.140592 44.0064 
L 91.106765 44.376 
L 93.072939 40.8648 
L 95.039112 41.4192 
L 97.005285 41.7888 
L 98.971459 39.2016 
L 100.937632 37.5384 
L 102.903805 38.2776 
L 104.869979 38.832 
L 106.836152 38.832 
L 108.802326 41.7888 
L 110.768499 42.1584 
L 112.734672 38.6472 
L 114.700846 39.2016 
L 116.667019 38.832 
L 118.633192 35.5056 
L 122.565539 42.3432 
L 124.531712 39.2016 
L 126.497886 37.1688 
L 128.464059 38.2776 
L 132.396406 39.3864 
L 134.362579 41.2344 
L 136.328753 38.2776 
L 138.294926 30.1464 
L 140.261099 28.1136 
L 142.227273 30.516 
L 146.159619 30.8856 
L 148.125793 31.2552 
L 150.091966 33.6576 
L 152.05814 39.2016 
L 154.024313 43.2672 
L 155.990486 45.8544 
L 159.922833 57.4968 
L 161.889006 58.7904 
L 163.85518 57.6816 
L 165.821353 55.2792 
L 167.787526 50.1048 
L 169.7537 47.8872 
L 171.719873 49.7352 
L 173.686047 50.1048 
L 175.65222 50.1048 
L 177.618393 49.7352 
L 179.584567 48.8112 
L 181.55074 49.5504 
L 183.516913 45.6696 
L 185.483087 40.1256 
L 187.44926 40.8648 
L 189.415433 40.4952 
L 191.381607 39.5712 
L 193.34778 42.528 
L 195.313953 41.7888 
L 197.280127 39.3864 
L 199.2463 42.8976 
L 201.212474 43.8216 
L 203.178647 38.6472 
L 205.14482 37.5384 
L 207.110994 37.3536 
L 209.077167 32.5488 
L 211.04334 32.5488 
L 213.009514 37.1688 
L 214.975687 36.6144 
L 216.94186 32.1792 
L 218.908034 32.5488 
L 220.874207 37.1688 
L 222.840381 38.832 
L 224.806554 38.4624 
L 226.772727 40.68 
L 228.738901 42.7128 
L 230.705074 38.832 
L 232.671247 35.5056 
L 234.637421 36.4296 
L 236.603594 36.6144 
L 238.569767 36.984 
L 240.535941 37.908 
L 242.502114 35.5056 
L 244.468288 33.4728 
L 246.434461 34.3968 
L 248.400634 35.5056 
L 250.366808 39.2016 
L 252.332981 38.832 
L 254.299154 34.9512 
L 256.265328 36.2448 
L 258.231501 39.0168 
L 260.197674 39.0168 
L 262.163848 40.3104 
L 264.130021 42.528 
L 266.096195 40.68 
L 268.062368 38.2776 
L 270.028541 38.4624 
L 273.960888 38.0928 
L 275.927061 39.756 
L 277.893235 44.0064 
L 279.859408 44.1912 
L 281.825581 39.5712 
L 283.791755 40.4952 
L 285.757928 44.1912 
L 287.724101 44.0064 
L 289.690275 44.7456 
L 291.656448 43.452 
L 293.622622 41.4192 
L 295.588795 43.6368 
L 297.554968 44.376 
L 299.521142 43.8216 
L 301.487315 45.4848 
L 303.453488 47.8872 
L 305.419662 48.2568 
L 307.385835 46.7784 
L 309.352008 44.9304 
L 311.318182 44.376 
L 311.318182 44.376 
" clip-path="url(#pa21bd17924)" style="fill: none; stroke: #a9a9a9; stroke-width: 2.5; stroke-linecap: square"/>
   </g>
   <g id="line2d_2">
    <path d="M 116.667019 38.832 
L 118.633192 35.5056 
L 120.599366 39.0168 
L 122.565539 42.3432 
L 124.531712 39.2016 
L 126.497886 37.1688 
L 128.464059 38.2776 
L 130.430233 38.832 
L 132.396406 39.3864 
L 134.362579 41.2344 
L 136.328753 38.2776 
L 138.294926 30.1464 
L 140.261099 28.1136 
L 142.227273 30.516 
L 144.193446 30.7008 
L 146.159619 30.8856 
L 148.125793 31.2552 
L 150.091966 33.6576 
L 152.05814 39.2016 
L 154.024313 43.2672 
L 155.990486 45.8544 
L 157.95666 51.768 
L 159.922833 57.4968 
L 161.889006 58.7904 
L 163.85518 57.6816 
L 165.821353 55.2792 
L 167.787526 50.1048 
L 169.7537 47.8872 
L 171.719873 49.7352 
L 173.686047 50.1048 
L 175.65222 50.1048 
L 177.618393 49.7352 
L 179.584567 48.8112 
L 181.55074 49.5504 
L 183.516913 45.6696 
L 185.483087 40.1256 
L 187.44926 40.8648 
L 189.415433 40.4952 
L 191.381607 39.5712 
L 193.34778 42.528 
L 195.313953 41.7888 
L 197.280127 39.3864 
L 199.2463 42.8976 
L 201.212474 43.8216 
L 203.178647 38.6472 
L 205.14482 37.5384 
L 207.110994 37.3536 
L 209.077167 32.5488 
L 211.04334 32.5488 
L 213.009514 37.1688 
" clip-path="url(#pa21bd17924)" style="fill: none; stroke: #6495ed; stroke-width: 5; stroke-linecap: square"/>
   </g>
  </g>
 </g>
 <defs>
  <clipPath id="pa21bd17924">
   <rect x="45" y="12.96" width="279" height="83.16"/>
  </clipPath>
 </defs>
</svg>
