<?xml version="1.0" encoding="utf-8" standalone="no"?>
<!DOCTYPE svg PUBLIC "-//W3C//DTD SVG 1.1//EN"
  "http://www.w3.org/Graphics/SVG/1.1/DTD/svg11.dtd">
<svg xmlns:xlink="http://www.w3.org/1999/xlink" width="360pt" height="108pt" viewBox="0 0 360 108" xmlns="http://www.w3.org/2000/svg" version="1.1">
 <metadata>
  <rdf:RDF xmlns:dc="http://purl.org/dc/elements/1.1/" xmlns:cc="http://creativecommons.org/ns#" xmlns:rdf="http://www.w3.org/1999/02/22-rdf-syntax-ns#">
   <cc:Work>
    <dc:type rdf:resource="http://purl.org/dc/dcmitype/StillImage"/>
    <dc:date>2022-11-16T22:33:34.500884</dc:date>
    <dc:format>image/svg+xml</dc:format>
    <dc:creator>
     <cc:Agent>
      <dc:title>Matplotlib v3.5.2, https://matplotlib.org/</dc:title>
     </cc:Agent>
    </dc:creator>
   </cc:Work>
  </rdf:RDF>
 </metadata>
 <defs>
  <style type="text/css">*{stroke-linejoin: round; stroke-linecap: butt}</style>
 </defs>
 <g id="figure_1">
  <g id="patch_1">
   <path d="M 0 108 
L 360 108 
L 360 0 
L 0 0 
L 0 108 
z
" style="fill: none"/>
  </g>
  <g id="axes_1">
   <g id="line2d_1">
    <path d="M 57.681818 37.1688 
L 59.647992 36.984 
L 61.614165 39.5712 
L 63.580338 35.5056 
L 65.546512 35.6904 
L 67.512685 43.0824 
L 69.478858 44.9304 
L 71.445032 43.0824 
L 73.411205 41.604 
L 75.377378 37.908 
L 77.343552 36.2448 
L 79.309725 37.7232 
L 81.275899 38.4624 
L 83.242072 41.2344 
L 85.208245 43.2672 
L 87.174419 40.3104 
L 89.140592 39.3864 
L 91.106765 41.4192 
L 93.072939 40.1256 
L 95.039112 41.4192 
L 97.005285 44.7456 
L 98.971459 41.7888 
L 100.937632 37.7232 
L 102.903805 39.9408 
L 104.869979 43.2672 
L 106.836152 41.7888 
L 108.802326 41.7888 
L 110.768499 44.5608 
L 112.734672 41.7888 
L 114.700846 38.0928 
L 116.667019 38.4624 
L 120.599366 46.4088 
L 122.565539 42.528 
L 124.531712 39.5712 
L 126.497886 40.8648 
L 128.464059 40.8648 
L 130.430233 39.5712 
L 132.396406 40.8648 
L 134.362579 40.68 
L 136.328753 38.6472 
L 138.294926 37.1688 
L 140.261099 34.9512 
L 142.227273 36.7992 
L 144.193446 41.9736 
L 146.159619 43.2672 
L 148.125793 42.8976 
L 150.091966 44.1912 
L 152.05814 46.5936 
L 154.024313 49.92 
L 155.990486 50.6592 
L 157.95666 51.2136 
L 159.922833 52.8768 
L 161.889006 50.1048 
L 163.85518 42.7128 
L 165.821353 38.2776 
L 167.787526 41.7888 
L 169.7537 46.4088 
L 171.719873 43.0824 
L 173.686047 38.6472 
L 175.65222 37.5384 
L 177.618393 38.0928 
L 179.584567 39.9408 
L 185.483087 41.604 
L 187.44926 37.3536 
L 189.415433 34.9512 
L 191.381607 38.832 
L 193.34778 39.5712 
L 195.313953 40.4952 
L 197.280127 43.2672 
L 199.2463 41.0496 
L 201.212474 36.06 
L 203.178647 34.212 
L 205.14482 34.3968 
L 207.110994 33.6576 
L 209.077167 35.5056 
L 211.04334 40.3104 
L 213.009514 41.4192 
L 214.975687 39.756 
L 216.94186 35.8752 
L 218.908034 33.6576 
L 220.874207 38.6472 
L 222.840381 39.3864 
L 224.806554 33.6576 
L 226.772727 36.06 
L 228.738901 43.2672 
L 230.705074 43.0824 
L 232.671247 39.756 
L 234.637421 39.5712 
L 236.603594 39.0168 
L 238.569767 38.832 
L 242.502114 38.832 
L 244.468288 41.7888 
L 246.434461 41.7888 
L 248.400634 39.0168 
L 250.366808 40.3104 
L 252.332981 39.0168 
L 254.299154 34.7664 
L 258.231501 44.1912 
L 260.197674 37.5384 
L 262.163848 35.136 
L 264.130021 37.3536 
L 266.096195 34.9512 
L 268.062368 37.5384 
L 270.028541 44.1912 
L 271.994715 44.5608 
L 273.960888 41.2344 
L 275.927061 41.7888 
L 277.893235 46.9632 
L 279.859408 47.7024 
L 281.825581 41.604 
L 283.791755 40.4952 
L 285.757928 44.5608 
L 287.724101 44.9304 
L 289.690275 46.0392 
L 291.656448 47.8872 
L 293.622622 44.376 
L 295.588795 41.604 
L 297.554968 44.1912 
L 299.521142 47.7024 
L 301.487315 48.4416 
L 303.453488 48.4416 
L 307.385835 40.8648 
L 309.352008 44.5608 
L 311.318182 49.1808 
L 311.318182 49.1808 
" clip-path="url(#pdc9a186838)" style="fill: none; stroke: #a9a9a9; stroke-width: 2.5; stroke-linecap: square"/>
   </g>
  </g>
 </g>
 <defs>
  <clipPath id="pdc9a186838">
   <rect x="45" y="12.96" width="279" height="83.16"/>
  </clipPath>
 </defs>
</svg>
