<?xml version="1.0" encoding="utf-8" standalone="no"?>
<!DOCTYPE svg PUBLIC "-//W3C//DTD SVG 1.1//EN"
  "http://www.w3.org/Graphics/SVG/1.1/DTD/svg11.dtd">
<svg xmlns:xlink="http://www.w3.org/1999/xlink" width="360pt" height="108pt" viewBox="0 0 360 108" xmlns="http://www.w3.org/2000/svg" version="1.1">
 <metadata>
  <rdf:RDF xmlns:dc="http://purl.org/dc/elements/1.1/" xmlns:cc="http://creativecommons.org/ns#" xmlns:rdf="http://www.w3.org/1999/02/22-rdf-syntax-ns#">
   <cc:Work>
    <dc:type rdf:resource="http://purl.org/dc/dcmitype/StillImage"/>
    <dc:date>2022-11-16T22:34:38.181339</dc:date>
    <dc:format>image/svg+xml</dc:format>
    <dc:creator>
     <cc:Agent>
      <dc:title>Matplotlib v3.5.2, https://matplotlib.org/</dc:title>
     </cc:Agent>
    </dc:creator>
   </cc:Work>
  </rdf:RDF>
 </metadata>
 <defs>
  <style type="text/css">*{stroke-linejoin: round; stroke-linecap: butt}</style>
 </defs>
 <g id="figure_1">
  <g id="patch_1">
   <path d="M 0 108 
L 360 108 
L 360 0 
L 0 0 
L 0 108 
z
" style="fill: none"/>
  </g>
  <g id="axes_1">
   <g id="line2d_1">
    <path d="M 57.681818 41.2344 
L 59.647992 44.7456 
L 61.614165 42.7128 
L 63.580338 39.9408 
L 65.546512 39.3864 
L 67.512685 36.984 
L 69.478858 35.136 
L 71.445032 37.7232 
L 73.411205 42.1584 
L 75.377378 40.8648 
L 77.343552 35.8752 
L 79.309725 36.4296 
L 81.275899 36.7992 
L 83.242072 35.3208 
L 85.208245 33.4728 
L 87.174419 30.516 
L 89.140592 27.0048 
L 91.106765 24.4176 
L 93.072939 29.7768 
L 95.039112 36.2448 
L 97.005285 34.7664 
L 98.971459 36.4296 
L 100.937632 37.7232 
L 102.903805 33.4728 
L 104.869979 33.4728 
L 106.836152 35.6904 
L 108.802326 34.0272 
L 110.768499 33.4728 
L 112.734672 34.7664 
L 114.700846 34.0272 
L 116.667019 32.1792 
L 118.633192 29.4072 
L 120.599366 30.516 
L 122.565539 36.06 
L 124.531712 36.6144 
L 126.497886 34.3968 
L 128.464059 36.06 
L 130.430233 36.984 
L 132.396406 35.8752 
L 134.362579 34.5816 
L 136.328753 33.8424 
L 138.294926 35.8752 
L 140.261099 32.1792 
L 142.227273 27.744 
L 144.193446 39.3864 
L 146.159619 56.5728 
L 148.125793 65.8128 
L 152.05814 87.0648 
L 154.024313 84.6624 
L 155.990486 75.0528 
L 157.95666 67.2912 
L 159.922833 58.236 
L 161.889006 52.3224 
L 163.85518 51.0288 
L 167.787526 43.0824 
L 169.7537 41.2344 
L 171.719873 39.9408 
L 173.686047 41.0496 
L 175.65222 42.7128 
L 177.618393 43.8216 
L 181.55074 41.2344 
L 183.516913 41.7888 
L 185.483087 39.5712 
L 187.44926 35.8752 
L 189.415433 39.3864 
L 191.381607 40.3104 
L 193.34778 36.2448 
L 195.313953 36.7992 
L 197.280127 36.2448 
L 199.2463 35.3208 
L 201.212474 38.6472 
L 203.178647 37.5384 
L 205.14482 35.136 
L 207.110994 41.0496 
L 209.077167 40.3104 
L 211.04334 32.364 
L 213.009514 34.0272 
L 214.975687 38.0928 
L 216.94186 36.2448 
L 220.874207 35.136 
L 222.840381 31.9944 
L 224.806554 33.288 
L 226.772727 35.8752 
L 228.738901 36.4296 
L 232.671247 36.06 
L 234.637421 35.136 
L 236.603594 36.4296 
L 238.569767 38.2776 
L 240.535941 37.3536 
L 242.502114 37.1688 
L 244.468288 39.0168 
L 246.434461 40.4952 
L 248.400634 38.4624 
L 250.366808 35.6904 
L 252.332981 37.3536 
L 254.299154 39.756 
L 256.265328 39.756 
L 258.231501 37.3536 
L 260.197674 34.212 
L 262.163848 34.212 
L 264.130021 37.3536 
L 266.096195 39.5712 
L 268.062368 40.68 
L 270.028541 42.528 
L 271.994715 42.7128 
L 273.960888 41.2344 
L 275.927061 41.7888 
L 279.859408 41.0496 
L 281.825581 42.3432 
L 283.791755 43.0824 
L 285.757928 43.0824 
L 287.724101 44.376 
L 289.690275 44.9304 
L 291.656448 45.1152 
L 293.622622 43.8216 
L 295.588795 39.3864 
L 297.554968 41.4192 
L 299.521142 44.9304 
L 301.487315 40.68 
L 303.453488 40.3104 
L 305.419662 44.1912 
L 307.385835 41.4192 
L 309.352008 39.2016 
L 311.318182 39.756 
L 311.318182 39.756 
" clip-path="url(#pf7f0496cad)" style="fill: none; stroke: #a9a9a9; stroke-width: 2.5; stroke-linecap: square"/>
   </g>
   <g id="line2d_2">
    <path d="M 116.667019 32.1792 
L 118.633192 29.4072 
L 120.599366 30.516 
L 122.565539 36.06 
L 124.531712 36.6144 
L 126.497886 34.3968 
L 128.464059 36.06 
L 130.430233 36.984 
L 132.396406 35.8752 
L 134.362579 34.5816 
L 136.328753 33.8424 
L 138.294926 35.8752 
L 140.261099 32.1792 
L 142.227273 27.744 
L 144.193446 39.3864 
L 146.159619 56.5728 
L 148.125793 65.8128 
L 150.091966 76.5312 
L 152.05814 87.0648 
L 154.024313 84.6624 
L 155.990486 75.0528 
L 157.95666 67.2912 
L 159.922833 58.236 
L 161.889006 52.3224 
L 163.85518 51.0288 
L 165.821353 46.9632 
L 167.787526 43.0824 
L 169.7537 41.2344 
L 171.719873 39.9408 
L 173.686047 41.0496 
L 175.65222 42.7128 
L 177.618393 43.8216 
L 179.584567 42.528 
L 181.55074 41.2344 
L 183.516913 41.7888 
L 185.483087 39.5712 
L 187.44926 35.8752 
L 189.415433 39.3864 
L 191.381607 40.3104 
L 193.34778 36.2448 
L 195.313953 36.7992 
L 197.280127 36.2448 
L 199.2463 35.3208 
L 201.212474 38.6472 
L 203.178647 37.5384 
L 205.14482 35.136 
L 207.110994 41.0496 
L 209.077167 40.3104 
L 211.04334 32.364 
L 213.009514 34.0272 
" clip-path="url(#pf7f0496cad)" style="fill: none; stroke: #0000c0; stroke-width: 5; stroke-linecap: square"/>
   </g>
  </g>
 </g>
 <defs>
  <clipPath id="pf7f0496cad">
   <rect x="45" y="12.96" width="279" height="83.16"/>
  </clipPath>
 </defs>
</svg>
