<?xml version="1.0" encoding="utf-8" standalone="no"?>
<!DOCTYPE svg PUBLIC "-//W3C//DTD SVG 1.1//EN"
  "http://www.w3.org/Graphics/SVG/1.1/DTD/svg11.dtd">
<svg xmlns:xlink="http://www.w3.org/1999/xlink" width="360pt" height="108pt" viewBox="0 0 360 108" xmlns="http://www.w3.org/2000/svg" version="1.1">
 <metadata>
  <rdf:RDF xmlns:dc="http://purl.org/dc/elements/1.1/" xmlns:cc="http://creativecommons.org/ns#" xmlns:rdf="http://www.w3.org/1999/02/22-rdf-syntax-ns#">
   <cc:Work>
    <dc:type rdf:resource="http://purl.org/dc/dcmitype/StillImage"/>
    <dc:date>2022-11-16T22:34:38.217524</dc:date>
    <dc:format>image/svg+xml</dc:format>
    <dc:creator>
     <cc:Agent>
      <dc:title>Matplotlib v3.5.2, https://matplotlib.org/</dc:title>
     </cc:Agent>
    </dc:creator>
   </cc:Work>
  </rdf:RDF>
 </metadata>
 <defs>
  <style type="text/css">*{stroke-linejoin: round; stroke-linecap: butt}</style>
 </defs>
 <g id="figure_1">
  <g id="patch_1">
   <path d="M 0 108 
L 360 108 
L 360 0 
L 0 0 
L 0 108 
z
" style="fill: none"/>
  </g>
  <g id="axes_1">
   <g id="line2d_1">
    <path d="M 57.681818 40.1256 
L 59.647992 43.0824 
L 61.614165 49.3656 
L 63.580338 50.6592 
L 65.546512 44.376 
L 67.512685 39.3864 
L 69.478858 41.4192 
L 71.445032 41.2344 
L 73.411205 39.0168 
L 75.377378 42.3432 
L 77.343552 41.9736 
L 79.309725 36.06 
L 81.275899 32.5488 
L 83.242072 32.5488 
L 87.174419 40.4952 
L 89.140592 39.756 
L 91.106765 36.4296 
L 93.072939 34.0272 
L 95.039112 35.8752 
L 97.005285 38.4624 
L 98.971459 37.7232 
L 100.937632 35.136 
L 102.903805 32.9184 
L 104.869979 30.1464 
L 106.836152 30.8856 
L 108.802326 36.2448 
L 110.768499 38.4624 
L 112.734672 33.8424 
L 114.700846 34.5816 
L 116.667019 42.8976 
L 118.633192 41.9736 
L 120.599366 37.5384 
L 122.565539 42.3432 
L 124.531712 46.5936 
L 126.497886 47.148 
L 128.464059 46.5936 
L 130.430233 45.6696 
L 132.396406 46.0392 
L 134.362579 46.224 
L 136.328753 44.9304 
L 138.294926 43.8216 
L 140.261099 41.0496 
L 142.227273 38.832 
L 144.193446 40.4952 
L 146.159619 41.4192 
L 148.125793 40.1256 
L 150.091966 40.1256 
L 155.990486 44.0064 
L 157.95666 46.224 
L 159.922833 46.7784 
L 161.889006 44.1912 
L 163.85518 43.0824 
L 165.821353 45.3 
L 167.787526 46.4088 
L 169.7537 45.3 
L 171.719873 45.1152 
L 173.686047 45.3 
L 175.65222 46.224 
L 177.618393 45.1152 
L 179.584567 39.9408 
L 181.55074 39.0168 
L 183.516913 40.8648 
L 185.483087 39.0168 
L 187.44926 34.3968 
L 189.415433 34.5816 
L 191.381607 38.832 
L 193.34778 40.1256 
L 195.313953 38.2776 
L 197.280127 38.0928 
L 199.2463 38.4624 
L 201.212474 39.9408 
L 203.178647 40.3104 
L 205.14482 39.9408 
L 207.110994 43.0824 
L 209.077167 45.1152 
L 211.04334 42.3432 
L 213.009514 41.0496 
L 214.975687 42.3432 
L 216.94186 42.8976 
L 218.908034 42.528 
L 220.874207 40.3104 
L 222.840381 37.1688 
L 224.806554 37.7232 
L 226.772727 38.832 
L 228.738901 38.6472 
L 232.671247 38.6472 
L 234.637421 38.2776 
L 236.603594 36.984 
L 238.569767 32.5488 
L 240.535941 31.9944 
L 242.502114 38.6472 
L 244.468288 40.3104 
L 246.434461 35.3208 
L 248.400634 37.3536 
L 250.366808 40.4952 
L 252.332981 38.0928 
L 254.299154 39.2016 
L 256.265328 42.1584 
L 258.231501 40.4952 
L 260.197674 40.1256 
L 262.163848 42.8976 
L 264.130021 41.9736 
L 266.096195 41.9736 
L 268.062368 46.7784 
L 270.028541 46.4088 
L 271.994715 41.0496 
L 273.960888 39.9408 
L 275.927061 41.4192 
L 277.893235 40.68 
L 279.859408 40.4952 
L 281.825581 40.1256 
L 283.791755 41.2344 
L 285.757928 43.0824 
L 287.724101 41.604 
L 289.690275 40.8648 
L 291.656448 41.0496 
L 293.622622 37.5384 
L 295.588795 37.5384 
L 297.554968 40.1256 
L 299.521142 37.908 
L 301.487315 39.756 
L 303.453488 45.8544 
L 305.419662 48.4416 
L 307.385835 47.3328 
L 309.352008 43.452 
L 311.318182 40.8648 
L 311.318182 40.8648 
" clip-path="url(#pa456aca72c)" style="fill: none; stroke: #a9a9a9; stroke-width: 2.5; stroke-linecap: square"/>
   </g>
  </g>
 </g>
 <defs>
  <clipPath id="pa456aca72c">
   <rect x="45" y="12.96" width="279" height="83.16"/>
  </clipPath>
 </defs>
</svg>
