<?xml version="1.0" encoding="utf-8" standalone="no"?>
<!DOCTYPE svg PUBLIC "-//W3C//DTD SVG 1.1//EN"
  "http://www.w3.org/Graphics/SVG/1.1/DTD/svg11.dtd">
<svg xmlns:xlink="http://www.w3.org/1999/xlink" width="360pt" height="108pt" viewBox="0 0 360 108" xmlns="http://www.w3.org/2000/svg" version="1.1">
 <metadata>
  <rdf:RDF xmlns:dc="http://purl.org/dc/elements/1.1/" xmlns:cc="http://creativecommons.org/ns#" xmlns:rdf="http://www.w3.org/1999/02/22-rdf-syntax-ns#">
   <cc:Work>
    <dc:type rdf:resource="http://purl.org/dc/dcmitype/StillImage"/>
    <dc:date>2022-11-16T22:34:38.248003</dc:date>
    <dc:format>image/svg+xml</dc:format>
    <dc:creator>
     <cc:Agent>
      <dc:title>Matplotlib v3.5.2, https://matplotlib.org/</dc:title>
     </cc:Agent>
    </dc:creator>
   </cc:Work>
  </rdf:RDF>
 </metadata>
 <defs>
  <style type="text/css">*{stroke-linejoin: round; stroke-linecap: butt}</style>
 </defs>
 <g id="figure_1">
  <g id="patch_1">
   <path d="M 0 108 
L 360 108 
L 360 0 
L 0 0 
L 0 108 
z
" style="fill: none"/>
  </g>
  <g id="axes_1">
   <g id="line2d_1">
    <path d="M 57.681818 41.604 
L 59.647992 43.6368 
L 61.614165 47.5176 
L 63.580338 46.4088 
L 65.546512 42.1584 
L 67.512685 41.2344 
L 69.478858 41.4192 
L 71.445032 39.5712 
L 73.411205 36.6144 
L 75.377378 34.9512 
L 77.343552 36.4296 
L 79.309725 38.2776 
L 81.275899 34.9512 
L 83.242072 32.9184 
L 85.208245 37.7232 
L 87.174419 41.9736 
L 89.140592 40.4952 
L 91.106765 36.2448 
L 93.072939 34.0272 
L 95.039112 35.8752 
L 97.005285 40.3104 
L 98.971459 41.2344 
L 100.937632 37.5384 
L 102.903805 38.2776 
L 104.869979 38.6472 
L 106.836152 35.3208 
L 108.802326 36.6144 
L 110.768499 40.3104 
L 112.734672 39.756 
L 114.700846 38.4624 
L 116.667019 39.5712 
L 118.633192 38.6472 
L 120.599366 38.4624 
L 122.565539 43.452 
L 124.531712 43.8216 
L 126.497886 40.4952 
L 128.464059 43.6368 
L 130.430233 47.148 
L 132.396406 46.7784 
L 134.362579 49.1808 
L 136.328753 48.8112 
L 138.294926 42.528 
L 140.261099 40.1256 
L 142.227273 41.9736 
L 144.193446 41.4192 
L 146.159619 41.0496 
L 148.125793 39.5712 
L 150.091966 36.2448 
L 152.05814 35.8752 
L 154.024313 37.3536 
L 155.990486 38.0928 
L 157.95666 41.0496 
L 159.922833 45.4848 
L 161.889006 46.0392 
L 163.85518 44.376 
L 165.821353 44.9304 
L 167.787526 46.0392 
L 169.7537 44.1912 
L 171.719873 43.452 
L 173.686047 44.5608 
L 175.65222 46.5936 
L 177.618393 45.3 
L 179.584567 39.0168 
L 181.55074 39.3864 
L 183.516913 44.9304 
L 185.483087 40.4952 
L 187.44926 32.1792 
L 189.415433 34.7664 
L 191.381607 41.604 
L 193.34778 44.0064 
L 195.313953 41.7888 
L 197.280127 38.6472 
L 199.2463 38.4624 
L 201.212474 39.3864 
L 203.178647 38.832 
L 205.14482 39.0168 
L 207.110994 40.3104 
L 209.077167 40.3104 
L 211.04334 38.6472 
L 213.009514 38.6472 
L 214.975687 41.4192 
L 216.94186 44.5608 
L 218.908034 44.0064 
L 220.874207 40.3104 
L 222.840381 38.4624 
L 224.806554 39.9408 
L 226.772727 39.3864 
L 228.738901 39.2016 
L 230.705074 42.528 
L 232.671247 43.2672 
L 234.637421 40.1256 
L 236.603594 35.8752 
L 238.569767 34.9512 
L 240.535941 39.0168 
L 242.502114 43.452 
L 244.468288 41.7888 
L 246.434461 37.3536 
L 248.400634 37.5384 
L 250.366808 41.604 
L 252.332981 42.1584 
L 254.299154 40.1256 
L 256.265328 41.2344 
L 258.231501 41.9736 
L 260.197674 40.4952 
L 262.163848 40.1256 
L 264.130021 38.4624 
L 266.096195 38.6472 
L 268.062368 44.376 
L 270.028541 45.4848 
L 271.994715 39.756 
L 273.960888 37.908 
L 275.927061 38.6472 
L 277.893235 35.8752 
L 279.859408 36.4296 
L 281.825581 38.6472 
L 283.791755 39.3864 
L 285.757928 39.2016 
L 287.724101 39.2016 
L 289.690275 39.3864 
L 293.622622 39.0168 
L 295.588795 38.0928 
L 297.554968 37.5384 
L 299.521142 40.3104 
L 301.487315 43.6368 
L 303.453488 44.0064 
L 305.419662 45.8544 
L 307.385835 49.5504 
L 309.352008 49.92 
L 311.318182 47.5176 
L 311.318182 47.5176 
" clip-path="url(#pf5aff5201e)" style="fill: none; stroke: #a9a9a9; stroke-width: 2.5; stroke-linecap: square"/>
   </g>
  </g>
 </g>
 <defs>
  <clipPath id="pf5aff5201e">
   <rect x="45" y="12.96" width="279" height="83.16"/>
  </clipPath>
 </defs>
</svg>
