<?xml version="1.0" encoding="utf-8" standalone="no"?>
<!DOCTYPE svg PUBLIC "-//W3C//DTD SVG 1.1//EN"
  "http://www.w3.org/Graphics/SVG/1.1/DTD/svg11.dtd">
<svg xmlns:xlink="http://www.w3.org/1999/xlink" width="360pt" height="108pt" viewBox="0 0 360 108" xmlns="http://www.w3.org/2000/svg" version="1.1">
 <metadata>
  <rdf:RDF xmlns:dc="http://purl.org/dc/elements/1.1/" xmlns:cc="http://creativecommons.org/ns#" xmlns:rdf="http://www.w3.org/1999/02/22-rdf-syntax-ns#">
   <cc:Work>
    <dc:type rdf:resource="http://purl.org/dc/dcmitype/StillImage"/>
    <dc:date>2022-11-16T22:40:06.980754</dc:date>
    <dc:format>image/svg+xml</dc:format>
    <dc:creator>
     <cc:Agent>
      <dc:title>Matplotlib v3.5.2, https://matplotlib.org/</dc:title>
     </cc:Agent>
    </dc:creator>
   </cc:Work>
  </rdf:RDF>
 </metadata>
 <defs>
  <style type="text/css">*{stroke-linejoin: round; stroke-linecap: butt}</style>
 </defs>
 <g id="figure_1">
  <g id="patch_1">
   <path d="M 0 108 
L 360 108 
L 360 0 
L 0 0 
L 0 108 
z
" style="fill: none"/>
  </g>
  <g id="axes_1">
   <g id="line2d_1">
    <path d="M 57.681818 36.4296 
L 59.647992 40.68 
L 61.614165 40.3104 
L 63.580338 42.3432 
L 65.546512 47.5176 
L 67.512685 49.92 
L 69.478858 52.1376 
L 71.445032 51.2136 
L 73.411205 46.0392 
L 75.377378 43.6368 
L 77.343552 43.2672 
L 79.309725 44.376 
L 81.275899 43.6368 
L 83.242072 38.2776 
L 85.208245 33.6576 
L 87.174419 34.212 
L 89.140592 36.7992 
L 91.106765 39.756 
L 93.072939 39.2016 
L 95.039112 38.0928 
L 97.005285 39.756 
L 98.971459 38.0928 
L 100.937632 37.908 
L 102.903805 41.4192 
L 104.869979 37.908 
L 106.836152 33.4728 
L 108.802326 33.6576 
L 110.768499 32.1792 
L 112.734672 32.7336 
L 114.700846 35.8752 
L 116.667019 36.2448 
L 118.633192 33.8424 
L 120.599366 34.212 
L 122.565539 37.5384 
L 124.531712 38.6472 
L 126.497886 37.3536 
L 128.464059 34.9512 
L 130.430233 31.6248 
L 132.396406 33.288 
L 134.362579 37.7232 
L 136.328753 37.908 
L 138.294926 36.2448 
L 140.261099 34.9512 
L 142.227273 30.8856 
L 144.193446 25.1568 
L 146.159619 21.4608 
L 148.125793 29.592 
L 150.091966 54.3552 
L 152.05814 76.5312 
L 154.024313 76.9008 
L 155.990486 66.1824 
L 157.95666 59.5296 
L 159.922833 57.4968 
L 161.889006 54.3552 
L 163.85518 51.768 
L 165.821353 50.844 
L 169.7537 44.1912 
L 171.719873 43.8216 
L 173.686047 41.9736 
L 175.65222 41.7888 
L 177.618393 44.5608 
L 179.584567 41.0496 
L 181.55074 35.8752 
L 183.516913 36.4296 
L 185.483087 38.4624 
L 187.44926 39.5712 
L 189.415433 38.2776 
L 191.381607 35.3208 
L 193.34778 32.9184 
L 195.313953 31.44 
L 197.280127 31.8096 
L 199.2463 35.3208 
L 201.212474 40.8648 
L 203.178647 39.5712 
L 205.14482 34.9512 
L 207.110994 38.6472 
L 209.077167 40.4952 
L 211.04334 35.6904 
L 213.009514 32.9184 
L 214.975687 35.5056 
L 216.94186 39.0168 
L 218.908034 40.1256 
L 220.874207 37.7232 
L 222.840381 36.7992 
L 224.806554 38.4624 
L 226.772727 39.0168 
L 228.738901 39.0168 
L 230.705074 39.3864 
L 232.671247 42.1584 
L 234.637421 45.3 
L 236.603594 43.452 
L 238.569767 38.6472 
L 240.535941 37.7232 
L 242.502114 41.9736 
L 244.468288 46.5936 
L 246.434461 44.7456 
L 248.400634 40.8648 
L 250.366808 41.2344 
L 252.332981 43.0824 
L 254.299154 43.2672 
L 256.265328 43.8216 
L 258.231501 43.6368 
L 260.197674 42.3432 
L 262.163848 44.0064 
L 264.130021 46.224 
L 266.096195 44.7456 
L 268.062368 45.1152 
L 270.028541 44.1912 
L 271.994715 39.9408 
L 273.960888 40.8648 
L 275.927061 43.452 
L 277.893235 42.1584 
L 279.859408 41.9736 
L 281.825581 41.4192 
L 283.791755 37.1688 
L 285.757928 38.4624 
L 287.724101 43.6368 
L 289.690275 46.7784 
L 291.656448 47.8872 
L 293.622622 43.452 
L 295.588795 38.2776 
L 297.554968 41.7888 
L 299.521142 43.6368 
L 301.487315 38.0928 
L 303.453488 36.2448 
L 305.419662 37.1688 
L 307.385835 33.8424 
L 309.352008 34.3968 
L 311.318182 39.0168 
L 311.318182 39.0168 
" clip-path="url(#p33000f58d5)" style="fill: none; stroke: #a9a9a9; stroke-width: 2.5; stroke-linecap: square"/>
   </g>
   <g id="line2d_2">
    <path d="M 116.667019 36.2448 
L 118.633192 33.8424 
L 120.599366 34.212 
L 122.565539 37.5384 
L 124.531712 38.6472 
L 126.497886 37.3536 
L 128.464059 34.9512 
L 130.430233 31.6248 
L 132.396406 33.288 
L 134.362579 37.7232 
L 136.328753 37.908 
L 138.294926 36.2448 
L 140.261099 34.9512 
L 142.227273 30.8856 
L 144.193446 25.1568 
L 146.159619 21.4608 
L 148.125793 29.592 
L 150.091966 54.3552 
L 152.05814 76.5312 
L 154.024313 76.9008 
L 155.990486 66.1824 
L 157.95666 59.5296 
L 159.922833 57.4968 
L 161.889006 54.3552 
L 163.85518 51.768 
L 165.821353 50.844 
L 167.787526 47.5176 
L 169.7537 44.1912 
L 171.719873 43.8216 
L 173.686047 41.9736 
L 175.65222 41.7888 
L 177.618393 44.5608 
L 179.584567 41.0496 
L 181.55074 35.8752 
L 183.516913 36.4296 
L 185.483087 38.4624 
L 187.44926 39.5712 
L 189.415433 38.2776 
L 191.381607 35.3208 
L 193.34778 32.9184 
L 195.313953 31.44 
L 197.280127 31.8096 
L 199.2463 35.3208 
L 201.212474 40.8648 
L 203.178647 39.5712 
L 205.14482 34.9512 
L 207.110994 38.6472 
L 209.077167 40.4952 
L 211.04334 35.6904 
L 213.009514 32.9184 
" clip-path="url(#p33000f58d5)" style="fill: none; stroke: #e4717a; stroke-width: 5; stroke-linecap: square"/>
   </g>
  </g>
 </g>
 <defs>
  <clipPath id="p33000f58d5">
   <rect x="45" y="12.96" width="279" height="83.16"/>
  </clipPath>
 </defs>
</svg>
