<?xml version="1.0" encoding="utf-8" standalone="no"?>
<!DOCTYPE svg PUBLIC "-//W3C//DTD SVG 1.1//EN"
  "http://www.w3.org/Graphics/SVG/1.1/DTD/svg11.dtd">
<svg xmlns:xlink="http://www.w3.org/1999/xlink" width="360pt" height="108pt" viewBox="0 0 360 108" xmlns="http://www.w3.org/2000/svg" version="1.1">
 <metadata>
  <rdf:RDF xmlns:dc="http://purl.org/dc/elements/1.1/" xmlns:cc="http://creativecommons.org/ns#" xmlns:rdf="http://www.w3.org/1999/02/22-rdf-syntax-ns#">
   <cc:Work>
    <dc:type rdf:resource="http://purl.org/dc/dcmitype/StillImage"/>
    <dc:date>2022-11-16T22:40:06.990757</dc:date>
    <dc:format>image/svg+xml</dc:format>
    <dc:creator>
     <cc:Agent>
      <dc:title>Matplotlib v3.5.2, https://matplotlib.org/</dc:title>
     </cc:Agent>
    </dc:creator>
   </cc:Work>
  </rdf:RDF>
 </metadata>
 <defs>
  <style type="text/css">*{stroke-linejoin: round; stroke-linecap: butt}</style>
 </defs>
 <g id="figure_1">
  <g id="patch_1">
   <path d="M 0 108 
L 360 108 
L 360 0 
L 0 0 
L 0 108 
z
" style="fill: none"/>
  </g>
  <g id="axes_1">
   <g id="line2d_1">
    <path d="M 57.681818 44.376 
L 61.614165 38.4624 
L 63.580338 43.6368 
L 65.546512 49.3656 
L 67.512685 47.148 
L 69.478858 44.376 
L 71.445032 44.376 
L 73.411205 42.8976 
L 75.377378 41.9736 
L 77.343552 42.528 
L 79.309725 44.376 
L 81.275899 42.3432 
L 83.242072 37.5384 
L 85.208245 38.4624 
L 87.174419 41.7888 
L 89.140592 41.2344 
L 91.106765 40.8648 
L 95.039112 38.6472 
L 97.005285 40.4952 
L 98.971459 41.2344 
L 100.937632 40.3104 
L 102.903805 39.756 
L 106.836152 38.2776 
L 108.802326 33.6576 
L 110.768499 31.9944 
L 112.734672 40.1256 
L 114.700846 42.528 
L 116.667019 38.2776 
L 118.633192 37.908 
L 120.599366 40.4952 
L 122.565539 39.3864 
L 124.531712 35.8752 
L 126.497886 38.0928 
L 128.464059 42.1584 
L 130.430233 39.5712 
L 132.396406 39.9408 
L 134.362579 42.3432 
L 136.328753 38.6472 
L 138.294926 40.3104 
L 140.261099 46.224 
L 142.227273 41.2344 
L 144.193446 33.6576 
L 146.159619 33.4728 
L 148.125793 31.6248 
L 150.091966 28.668 
L 152.05814 32.9184 
L 154.024313 38.4624 
L 155.990486 44.376 
L 157.95666 51.2136 
L 159.922833 50.2896 
L 161.889006 44.9304 
L 163.85518 46.7784 
L 165.821353 47.7024 
L 167.787526 42.528 
L 169.7537 38.6472 
L 171.719873 40.4952 
L 173.686047 43.8216 
L 175.65222 42.3432 
L 177.618393 39.3864 
L 179.584567 38.0928 
L 181.55074 39.756 
L 183.516913 43.2672 
L 185.483087 45.4848 
L 187.44926 44.0064 
L 189.415433 42.8976 
L 191.381607 44.0064 
L 195.313953 35.5056 
L 197.280127 39.2016 
L 199.2463 40.8648 
L 201.212474 38.4624 
L 203.178647 41.0496 
L 205.14482 44.0064 
L 207.110994 42.8976 
L 209.077167 40.68 
L 211.04334 38.2776 
L 213.009514 39.756 
L 214.975687 44.1912 
L 216.94186 43.8216 
L 218.908034 39.9408 
L 220.874207 35.5056 
L 222.840381 33.6576 
L 224.806554 37.5384 
L 226.772727 38.2776 
L 228.738901 36.4296 
L 230.705074 39.3864 
L 232.671247 41.2344 
L 234.637421 38.0928 
L 236.603594 37.7232 
L 238.569767 37.7232 
L 240.535941 35.6904 
L 244.468288 41.2344 
L 248.400634 38.6472 
L 250.366808 38.6472 
L 252.332981 39.5712 
L 254.299154 41.7888 
L 256.265328 43.0824 
L 258.231501 43.452 
L 262.163848 49.1808 
L 264.130021 48.2568 
L 266.096195 46.0392 
L 268.062368 45.4848 
L 270.028541 44.376 
L 271.994715 41.0496 
L 273.960888 41.2344 
L 275.927061 45.4848 
L 277.893235 45.3 
L 279.859408 41.7888 
L 281.825581 42.7128 
L 283.791755 44.376 
L 285.757928 42.528 
L 287.724101 41.7888 
L 289.690275 44.7456 
L 291.656448 45.6696 
L 293.622622 43.2672 
L 295.588795 41.9736 
L 297.554968 40.4952 
L 299.521142 38.0928 
L 301.487315 36.4296 
L 303.453488 36.2448 
L 305.419662 37.7232 
L 307.385835 39.5712 
L 309.352008 43.0824 
L 311.318182 44.0064 
L 311.318182 44.0064 
" clip-path="url(#p337806df2c)" style="fill: none; stroke: #a9a9a9; stroke-width: 2.5; stroke-linecap: square"/>
   </g>
  </g>
 </g>
 <defs>
  <clipPath id="p337806df2c">
   <rect x="45" y="12.96" width="279" height="83.16"/>
  </clipPath>
 </defs>
</svg>
