<?xml version="1.0" encoding="utf-8" standalone="no"?>
<!DOCTYPE svg PUBLIC "-//W3C//DTD SVG 1.1//EN"
  "http://www.w3.org/Graphics/SVG/1.1/DTD/svg11.dtd">
<svg xmlns:xlink="http://www.w3.org/1999/xlink" width="360pt" height="108pt" viewBox="0 0 360 108" xmlns="http://www.w3.org/2000/svg" version="1.1">
 <metadata>
  <rdf:RDF xmlns:dc="http://purl.org/dc/elements/1.1/" xmlns:cc="http://creativecommons.org/ns#" xmlns:rdf="http://www.w3.org/1999/02/22-rdf-syntax-ns#">
   <cc:Work>
    <dc:type rdf:resource="http://purl.org/dc/dcmitype/StillImage"/>
    <dc:date>2022-11-16T22:40:06.910975</dc:date>
    <dc:format>image/svg+xml</dc:format>
    <dc:creator>
     <cc:Agent>
      <dc:title>Matplotlib v3.5.2, https://matplotlib.org/</dc:title>
     </cc:Agent>
    </dc:creator>
   </cc:Work>
  </rdf:RDF>
 </metadata>
 <defs>
  <style type="text/css">*{stroke-linejoin: round; stroke-linecap: butt}</style>
 </defs>
 <g id="figure_1">
  <g id="patch_1">
   <path d="M 0 108 
L 360 108 
L 360 0 
L 0 0 
L 0 108 
z
" style="fill: none"/>
  </g>
  <g id="axes_1">
   <g id="line2d_1">
    <path d="M 57.681818 36.7992 
L 59.647992 35.136 
L 61.614165 35.6904 
L 63.580338 37.908 
L 65.546512 39.2016 
L 67.512685 41.9736 
L 69.478858 45.1152 
L 71.445032 43.6368 
L 73.411205 43.452 
L 75.377378 44.9304 
L 77.343552 41.4192 
L 79.309725 42.3432 
L 81.275899 44.376 
L 83.242072 36.6144 
L 85.208245 30.7008 
L 87.174419 34.212 
L 89.140592 33.8424 
L 91.106765 31.9944 
L 93.072939 34.9512 
L 95.039112 36.7992 
L 97.005285 36.4296 
L 98.971459 34.9512 
L 100.937632 34.5816 
L 102.903805 31.8096 
L 104.869979 27.9288 
L 106.836152 31.2552 
L 108.802326 33.4728 
L 110.768499 31.2552 
L 112.734672 33.4728 
L 114.700846 35.5056 
L 116.667019 34.7664 
L 118.633192 32.9184 
L 120.599366 31.6248 
L 122.565539 34.5816 
L 124.531712 33.8424 
L 126.497886 29.4072 
L 128.464059 27.744 
L 130.430233 23.3088 
L 132.396406 20.9064 
L 134.362579 26.4504 
L 136.328753 28.4832 
L 138.294926 25.3416 
L 140.261099 28.8528 
L 142.227273 43.0824 
L 144.193446 65.2584 
L 146.159619 90.2064 
L 148.125793 104.8056 
L 150.091966 96.8592 
L 152.05814 78.564 
L 154.024313 66.9216 
L 155.990486 59.7144 
L 157.95666 51.3984 
L 159.922833 48.072 
L 161.889006 46.7784 
L 163.85518 44.9304 
L 165.821353 42.7128 
L 169.7537 34.212 
L 171.719873 36.7992 
L 173.686047 42.1584 
L 175.65222 45.8544 
L 177.618393 47.3328 
L 179.584567 39.9408 
L 181.55074 31.9944 
L 183.516913 36.7992 
L 185.483087 38.6472 
L 187.44926 31.9944 
L 189.415433 34.9512 
L 191.381607 39.9408 
L 193.34778 35.8752 
L 195.313953 36.2448 
L 197.280127 38.0928 
L 199.2463 36.2448 
L 201.212474 35.8752 
L 203.178647 34.7664 
L 205.14482 34.3968 
L 207.110994 36.6144 
L 209.077167 37.7232 
L 211.04334 34.7664 
L 213.009514 31.2552 
L 214.975687 32.1792 
L 218.908034 37.3536 
L 220.874207 37.1688 
L 222.840381 37.1688 
L 224.806554 39.2016 
L 226.772727 39.0168 
L 228.738901 39.0168 
L 230.705074 39.756 
L 232.671247 39.756 
L 234.637421 42.3432 
L 236.603594 42.8976 
L 238.569767 36.4296 
L 240.535941 36.2448 
L 242.502114 46.7784 
L 244.468288 49.5504 
L 246.434461 40.68 
L 248.400634 40.1256 
L 250.366808 46.4088 
L 252.332981 45.6696 
L 254.299154 44.7456 
L 256.265328 45.8544 
L 258.231501 43.452 
L 260.197674 43.6368 
L 262.163848 46.224 
L 264.130021 43.0824 
L 266.096195 41.2344 
L 268.062368 45.6696 
L 270.028541 45.3 
L 271.994715 43.452 
L 273.960888 42.3432 
L 275.927061 36.4296 
L 277.893235 36.6144 
L 279.859408 43.6368 
L 281.825581 41.4192 
L 283.791755 37.5384 
L 285.757928 42.528 
L 287.724101 43.6368 
L 289.690275 42.3432 
L 291.656448 42.8976 
L 293.622622 40.1256 
L 295.588795 37.908 
L 297.554968 38.4624 
L 301.487315 34.7664 
L 303.453488 36.2448 
L 305.419662 36.7992 
L 307.385835 36.984 
L 309.352008 36.7992 
L 311.318182 32.9184 
L 311.318182 32.9184 
" clip-path="url(#p5f88fb93f8)" style="fill: none; stroke: #a9a9a9; stroke-width: 2.5; stroke-linecap: square"/>
   </g>
   <g id="line2d_2">
    <path d="M 116.667019 34.7664 
L 118.633192 32.9184 
L 120.599366 31.6248 
L 122.565539 34.5816 
L 124.531712 33.8424 
L 126.497886 29.4072 
L 128.464059 27.744 
L 130.430233 23.3088 
L 132.396406 20.9064 
L 134.362579 26.4504 
L 136.328753 28.4832 
L 138.294926 25.3416 
L 140.261099 28.8528 
L 142.227273 43.0824 
L 144.193446 65.2584 
L 146.159619 90.2064 
L 148.125793 104.8056 
L 150.091966 96.8592 
L 152.05814 78.564 
L 154.024313 66.9216 
L 155.990486 59.7144 
L 157.95666 51.3984 
L 159.922833 48.072 
L 161.889006 46.7784 
L 163.85518 44.9304 
L 165.821353 42.7128 
L 167.787526 38.4624 
L 169.7537 34.212 
L 171.719873 36.7992 
L 173.686047 42.1584 
L 175.65222 45.8544 
L 177.618393 47.3328 
L 179.584567 39.9408 
L 181.55074 31.9944 
L 183.516913 36.7992 
L 185.483087 38.6472 
L 187.44926 31.9944 
L 189.415433 34.9512 
L 191.381607 39.9408 
L 193.34778 35.8752 
L 195.313953 36.2448 
L 197.280127 38.0928 
L 199.2463 36.2448 
L 201.212474 35.8752 
L 203.178647 34.7664 
L 205.14482 34.3968 
L 207.110994 36.6144 
L 209.077167 37.7232 
L 211.04334 34.7664 
L 213.009514 31.2552 
" clip-path="url(#p5f88fb93f8)" style="fill: none; stroke: #e4717a; stroke-width: 5; stroke-linecap: square"/>
   </g>
  </g>
 </g>
 <defs>
  <clipPath id="p5f88fb93f8">
   <rect x="45" y="12.96" width="279" height="83.16"/>
  </clipPath>
 </defs>
</svg>
