<?xml version="1.0" encoding="utf-8" standalone="no"?>
<!DOCTYPE svg PUBLIC "-//W3C//DTD SVG 1.1//EN"
  "http://www.w3.org/Graphics/SVG/1.1/DTD/svg11.dtd">
<svg xmlns:xlink="http://www.w3.org/1999/xlink" width="360pt" height="108pt" viewBox="0 0 360 108" xmlns="http://www.w3.org/2000/svg" version="1.1">
 <metadata>
  <rdf:RDF xmlns:dc="http://purl.org/dc/elements/1.1/" xmlns:cc="http://creativecommons.org/ns#" xmlns:rdf="http://www.w3.org/1999/02/22-rdf-syntax-ns#">
   <cc:Work>
    <dc:type rdf:resource="http://purl.org/dc/dcmitype/StillImage"/>
    <dc:date>2022-11-16T22:40:21.361841</dc:date>
    <dc:format>image/svg+xml</dc:format>
    <dc:creator>
     <cc:Agent>
      <dc:title>Matplotlib v3.5.2, https://matplotlib.org/</dc:title>
     </cc:Agent>
    </dc:creator>
   </cc:Work>
  </rdf:RDF>
 </metadata>
 <defs>
  <style type="text/css">*{stroke-linejoin: round; stroke-linecap: butt}</style>
 </defs>
 <g id="figure_1">
  <g id="patch_1">
   <path d="M 0 108 
L 360 108 
L 360 0 
L 0 0 
L 0 108 
z
" style="fill: none"/>
  </g>
  <g id="axes_1">
   <g id="line2d_1">
    <path d="M 57.681818 39.756 
L 59.647992 39.5712 
L 61.614165 39.756 
L 63.580338 40.4952 
L 65.546512 41.604 
L 67.512685 43.452 
L 71.445032 37.908 
L 73.411205 41.604 
L 75.377378 44.7456 
L 77.343552 43.452 
L 81.275899 42.7128 
L 83.242072 41.0496 
L 85.208245 37.7232 
L 87.174419 32.1792 
L 89.140592 35.136 
L 91.106765 43.8216 
L 93.072939 43.6368 
L 95.039112 41.2344 
L 97.005285 42.3432 
L 100.937632 40.1256 
L 102.903805 39.756 
L 104.869979 37.1688 
L 106.836152 34.0272 
L 108.802326 35.6904 
L 110.768499 40.68 
L 112.734672 40.3104 
L 114.700846 36.7992 
L 116.667019 37.5384 
L 120.599366 36.7992 
L 122.565539 38.2776 
L 124.531712 37.1688 
L 126.497886 34.7664 
L 128.464059 33.6576 
L 130.430233 35.3208 
L 132.396406 35.3208 
L 134.362579 33.288 
L 136.328753 35.6904 
L 138.294926 34.7664 
L 140.261099 27.9288 
L 142.227273 28.2984 
L 144.193446 31.9944 
L 146.159619 30.7008 
L 148.125793 39.3864 
L 150.091966 58.9752 
L 152.05814 68.2152 
L 154.024313 68.5848 
L 155.990486 67.2912 
L 157.95666 61.1928 
L 159.922833 55.8336 
L 161.889006 53.9856 
L 163.85518 52.3224 
L 165.821353 50.4744 
L 167.787526 50.2896 
L 169.7537 50.2896 
L 171.719873 46.9632 
L 173.686047 41.9736 
L 175.65222 42.1584 
L 177.618393 44.376 
L 179.584567 43.452 
L 181.55074 38.4624 
L 183.516913 34.3968 
L 185.483087 39.5712 
L 187.44926 41.2344 
L 189.415433 34.212 
L 191.381607 35.5056 
L 193.34778 40.4952 
L 195.313953 38.832 
L 197.280127 39.756 
L 199.2463 41.4192 
L 201.212474 38.0928 
L 203.178647 35.8752 
L 205.14482 34.7664 
L 207.110994 36.06 
L 209.077167 40.8648 
L 211.04334 40.1256 
L 213.009514 36.7992 
L 214.975687 36.06 
L 216.94186 34.3968 
L 218.908034 35.3208 
L 220.874207 40.3104 
L 222.840381 39.0168 
L 224.806554 33.6576 
L 226.772727 35.5056 
L 228.738901 35.8752 
L 230.705074 34.3968 
L 232.671247 39.756 
L 234.637421 42.3432 
L 236.603594 39.2016 
L 240.535941 39.9408 
L 242.502114 36.4296 
L 244.468288 37.5384 
L 246.434461 41.9736 
L 248.400634 41.2344 
L 250.366808 41.4192 
L 252.332981 43.8216 
L 254.299154 41.2344 
L 256.265328 37.5384 
L 258.231501 38.2776 
L 260.197674 38.832 
L 262.163848 38.832 
L 264.130021 41.4192 
L 266.096195 42.528 
L 268.062368 41.604 
L 270.028541 41.604 
L 273.960888 44.5608 
L 275.927061 43.0824 
L 277.893235 39.5712 
L 279.859408 37.908 
L 281.825581 38.2776 
L 283.791755 38.2776 
L 285.757928 42.3432 
L 287.724101 46.9632 
L 289.690275 41.9736 
L 291.656448 39.0168 
L 293.622622 41.9736 
L 295.588795 40.68 
L 297.554968 39.0168 
L 299.521142 40.1256 
L 301.487315 39.2016 
L 303.453488 39.5712 
L 305.419662 41.604 
L 307.385835 38.6472 
L 309.352008 39.9408 
L 311.318182 44.9304 
L 311.318182 44.9304 
" clip-path="url(#p5b07e58935)" style="fill: none; stroke: #a9a9a9; stroke-width: 2.5; stroke-linecap: square"/>
   </g>
   <g id="line2d_2">
    <path d="M 116.667019 37.5384 
L 118.633192 37.1688 
L 120.599366 36.7992 
L 122.565539 38.2776 
L 124.531712 37.1688 
L 126.497886 34.7664 
L 128.464059 33.6576 
L 130.430233 35.3208 
L 132.396406 35.3208 
L 134.362579 33.288 
L 136.328753 35.6904 
L 138.294926 34.7664 
L 140.261099 27.9288 
L 142.227273 28.2984 
L 144.193446 31.9944 
L 146.159619 30.7008 
L 148.125793 39.3864 
L 150.091966 58.9752 
L 152.05814 68.2152 
L 154.024313 68.5848 
L 155.990486 67.2912 
L 157.95666 61.1928 
L 159.922833 55.8336 
L 161.889006 53.9856 
L 163.85518 52.3224 
L 165.821353 50.4744 
L 167.787526 50.2896 
L 169.7537 50.2896 
L 171.719873 46.9632 
L 173.686047 41.9736 
L 175.65222 42.1584 
L 177.618393 44.376 
L 179.584567 43.452 
L 181.55074 38.4624 
L 183.516913 34.3968 
L 185.483087 39.5712 
L 187.44926 41.2344 
L 189.415433 34.212 
L 191.381607 35.5056 
L 193.34778 40.4952 
L 195.313953 38.832 
L 197.280127 39.756 
L 199.2463 41.4192 
L 201.212474 38.0928 
L 203.178647 35.8752 
L 205.14482 34.7664 
L 207.110994 36.06 
L 209.077167 40.8648 
L 211.04334 40.1256 
L 213.009514 36.7992 
" clip-path="url(#p5b07e58935)" style="fill: none; stroke: #e32636; stroke-width: 5; stroke-linecap: square"/>
   </g>
  </g>
 </g>
 <defs>
  <clipPath id="p5b07e58935">
   <rect x="45" y="12.96" width="279" height="83.16"/>
  </clipPath>
 </defs>
</svg>
