<?xml version="1.0" encoding="utf-8" standalone="no"?>
<!DOCTYPE svg PUBLIC "-//W3C//DTD SVG 1.1//EN"
  "http://www.w3.org/Graphics/SVG/1.1/DTD/svg11.dtd">
<svg xmlns:xlink="http://www.w3.org/1999/xlink" width="360pt" height="108pt" viewBox="0 0 360 108" xmlns="http://www.w3.org/2000/svg" version="1.1">
 <metadata>
  <rdf:RDF xmlns:dc="http://purl.org/dc/elements/1.1/" xmlns:cc="http://creativecommons.org/ns#" xmlns:rdf="http://www.w3.org/1999/02/22-rdf-syntax-ns#">
   <cc:Work>
    <dc:type rdf:resource="http://purl.org/dc/dcmitype/StillImage"/>
    <dc:date>2022-11-16T22:40:21.391844</dc:date>
    <dc:format>image/svg+xml</dc:format>
    <dc:creator>
     <cc:Agent>
      <dc:title>Matplotlib v3.5.2, https://matplotlib.org/</dc:title>
     </cc:Agent>
    </dc:creator>
   </cc:Work>
  </rdf:RDF>
 </metadata>
 <defs>
  <style type="text/css">*{stroke-linejoin: round; stroke-linecap: butt}</style>
 </defs>
 <g id="figure_1">
  <g id="patch_1">
   <path d="M 0 108 
L 360 108 
L 360 0 
L 0 0 
L 0 108 
z
" style="fill: none"/>
  </g>
  <g id="axes_1">
   <g id="line2d_1">
    <path d="M 57.681818 40.8648 
L 59.647992 40.3104 
L 61.614165 40.1256 
L 65.546512 41.9736 
L 67.512685 41.7888 
L 69.478858 41.0496 
L 71.445032 39.3864 
L 73.411205 39.3864 
L 75.377378 41.9736 
L 77.343552 43.8216 
L 79.309725 43.6368 
L 81.275899 42.8976 
L 85.208245 39.2016 
L 87.174419 39.9408 
L 89.140592 42.7128 
L 91.106765 42.528 
L 93.072939 38.6472 
L 95.039112 39.5712 
L 97.005285 43.452 
L 98.971459 41.604 
L 100.937632 41.4192 
L 102.903805 44.0064 
L 104.869979 41.2344 
L 106.836152 36.2448 
L 108.802326 37.5384 
L 110.768499 40.68 
L 112.734672 39.5712 
L 114.700846 37.5384 
L 116.667019 39.9408 
L 118.633192 40.8648 
L 120.599366 39.2016 
L 122.565539 40.4952 
L 124.531712 40.4952 
L 126.497886 39.9408 
L 128.464059 40.1256 
L 130.430233 38.4624 
L 132.396406 36.4296 
L 134.362579 35.8752 
L 136.328753 36.06 
L 138.294926 35.6904 
L 140.261099 30.516 
L 142.227273 25.7112 
L 144.193446 28.2984 
L 146.159619 29.2224 
L 148.125793 27.744 
L 150.091966 35.3208 
L 152.05814 46.9632 
L 154.024313 50.6592 
L 155.990486 50.2896 
L 157.95666 50.844 
L 159.922833 52.3224 
L 161.889006 53.4312 
L 163.85518 52.692 
L 165.821353 50.6592 
L 167.787526 49.1808 
L 169.7537 48.4416 
L 171.719873 46.5936 
L 173.686047 43.0824 
L 175.65222 44.0064 
L 177.618393 46.0392 
L 179.584567 44.0064 
L 181.55074 42.7128 
L 183.516913 41.604 
L 185.483087 38.4624 
L 187.44926 38.832 
L 189.415433 40.8648 
L 191.381607 39.9408 
L 193.34778 38.2776 
L 195.313953 39.756 
L 197.280127 42.8976 
L 199.2463 41.7888 
L 201.212474 36.4296 
L 203.178647 35.5056 
L 205.14482 39.0168 
L 207.110994 40.8648 
L 209.077167 41.4192 
L 211.04334 39.5712 
L 213.009514 35.6904 
L 214.975687 37.3536 
L 216.94186 40.4952 
L 218.908034 39.2016 
L 220.874207 41.7888 
L 222.840381 42.8976 
L 224.806554 36.06 
L 226.772727 35.5056 
L 228.738901 39.756 
L 230.705074 41.2344 
L 232.671247 42.8976 
L 236.603594 44.0064 
L 238.569767 42.8976 
L 242.502114 37.5384 
L 244.468288 37.1688 
L 246.434461 41.2344 
L 248.400634 44.9304 
L 250.366808 43.452 
L 252.332981 40.8648 
L 254.299154 41.4192 
L 256.265328 41.2344 
L 258.231501 39.5712 
L 260.197674 39.0168 
L 262.163848 37.5384 
L 264.130021 35.6904 
L 266.096195 38.4624 
L 268.062368 45.4848 
L 270.028541 44.5608 
L 271.994715 37.908 
L 273.960888 39.9408 
L 275.927061 41.2344 
L 277.893235 35.8752 
L 279.859408 36.6144 
L 281.825581 40.1256 
L 283.791755 36.6144 
L 285.757928 35.6904 
L 287.724101 41.0496 
L 289.690275 41.9736 
L 291.656448 41.4192 
L 293.622622 41.2344 
L 295.588795 39.0168 
L 297.554968 39.756 
L 299.521142 41.604 
L 301.487315 41.7888 
L 303.453488 43.2672 
L 305.419662 43.6368 
L 307.385835 40.4952 
L 309.352008 41.2344 
L 311.318182 43.452 
L 311.318182 43.452 
" clip-path="url(#p6d9eac04b1)" style="fill: none; stroke: #a9a9a9; stroke-width: 2.5; stroke-linecap: square"/>
   </g>
   <g id="line2d_2">
    <path d="M 116.667019 39.9408 
L 118.633192 40.8648 
L 120.599366 39.2016 
L 122.565539 40.4952 
L 124.531712 40.4952 
L 126.497886 39.9408 
L 128.464059 40.1256 
L 130.430233 38.4624 
L 132.396406 36.4296 
L 134.362579 35.8752 
L 136.328753 36.06 
L 138.294926 35.6904 
L 140.261099 30.516 
L 142.227273 25.7112 
L 144.193446 28.2984 
L 146.159619 29.2224 
L 148.125793 27.744 
L 150.091966 35.3208 
L 152.05814 46.9632 
L 154.024313 50.6592 
L 155.990486 50.2896 
L 157.95666 50.844 
L 159.922833 52.3224 
L 161.889006 53.4312 
L 163.85518 52.692 
L 165.821353 50.6592 
L 167.787526 49.1808 
L 169.7537 48.4416 
L 171.719873 46.5936 
L 173.686047 43.0824 
L 175.65222 44.0064 
L 177.618393 46.0392 
L 179.584567 44.0064 
L 181.55074 42.7128 
L 183.516913 41.604 
L 185.483087 38.4624 
L 187.44926 38.832 
L 189.415433 40.8648 
L 191.381607 39.9408 
L 193.34778 38.2776 
L 195.313953 39.756 
L 197.280127 42.8976 
L 199.2463 41.7888 
L 201.212474 36.4296 
L 203.178647 35.5056 
L 205.14482 39.0168 
L 207.110994 40.8648 
L 209.077167 41.4192 
L 211.04334 39.5712 
L 213.009514 35.6904 
" clip-path="url(#p6d9eac04b1)" style="fill: none; stroke: #e32636; stroke-width: 5; stroke-linecap: square"/>
   </g>
  </g>
 </g>
 <defs>
  <clipPath id="p6d9eac04b1">
   <rect x="45" y="12.96" width="279" height="83.16"/>
  </clipPath>
 </defs>
</svg>
