<?xml version="1.0" encoding="utf-8" standalone="no"?>
<!DOCTYPE svg PUBLIC "-//W3C//DTD SVG 1.1//EN"
  "http://www.w3.org/Graphics/SVG/1.1/DTD/svg11.dtd">
<svg xmlns:xlink="http://www.w3.org/1999/xlink" width="360pt" height="108pt" viewBox="0 0 360 108" xmlns="http://www.w3.org/2000/svg" version="1.1">
 <metadata>
  <rdf:RDF xmlns:dc="http://purl.org/dc/elements/1.1/" xmlns:cc="http://creativecommons.org/ns#" xmlns:rdf="http://www.w3.org/1999/02/22-rdf-syntax-ns#">
   <cc:Work>
    <dc:type rdf:resource="http://purl.org/dc/dcmitype/StillImage"/>
    <dc:date>2022-11-16T22:41:15.218794</dc:date>
    <dc:format>image/svg+xml</dc:format>
    <dc:creator>
     <cc:Agent>
      <dc:title>Matplotlib v3.5.2, https://matplotlib.org/</dc:title>
     </cc:Agent>
    </dc:creator>
   </cc:Work>
  </rdf:RDF>
 </metadata>
 <defs>
  <style type="text/css">*{stroke-linejoin: round; stroke-linecap: butt}</style>
 </defs>
 <g id="figure_1">
  <g id="patch_1">
   <path d="M 0 108 
L 360 108 
L 360 0 
L 0 0 
L 0 108 
z
" style="fill: none"/>
  </g>
  <g id="axes_1">
   <g id="line2d_1">
    <path d="M 57.681818 39.756 
L 59.647992 39.756 
L 61.614165 42.8976 
L 63.580338 45.3 
L 65.546512 43.2672 
L 67.512685 40.3104 
L 69.478858 38.4624 
L 71.445032 35.5056 
L 73.411205 35.3208 
L 75.377378 34.5816 
L 77.343552 31.44 
L 79.309725 34.0272 
L 81.275899 38.6472 
L 83.242072 37.3536 
L 85.208245 38.6472 
L 87.174419 41.2344 
L 89.140592 38.4624 
L 91.106765 37.3536 
L 93.072939 38.832 
L 95.039112 36.7992 
L 97.005285 38.2776 
L 98.971459 44.9304 
L 100.937632 45.4848 
L 102.903805 44.7456 
L 104.869979 46.4088 
L 106.836152 46.5936 
L 108.802326 42.7128 
L 110.768499 41.9736 
L 112.734672 47.8872 
L 114.700846 46.0392 
L 116.667019 39.5712 
L 118.633192 39.756 
L 120.599366 40.4952 
L 122.565539 38.6472 
L 124.531712 40.3104 
L 126.497886 41.2344 
L 128.464059 39.0168 
L 130.430233 36.4296 
L 132.396406 34.212 
L 134.362579 34.212 
L 136.328753 36.06 
L 138.294926 36.2448 
L 140.261099 37.908 
L 142.227273 40.8648 
L 144.193446 40.8648 
L 146.159619 41.0496 
L 148.125793 42.528 
L 154.024313 44.7456 
L 157.95666 45.8544 
L 159.922833 43.8216 
L 161.889006 41.604 
L 163.85518 41.0496 
L 165.821353 41.0496 
L 167.787526 38.832 
L 169.7537 38.2776 
L 171.719873 40.1256 
L 173.686047 40.3104 
L 175.65222 40.3104 
L 177.618393 42.528 
L 179.584567 39.5712 
L 181.55074 34.7664 
L 183.516913 39.0168 
L 185.483087 44.0064 
L 187.44926 42.8976 
L 189.415433 44.376 
L 191.381607 47.7024 
L 195.313953 41.2344 
L 197.280127 39.9408 
L 199.2463 39.5712 
L 201.212474 42.528 
L 203.178647 42.3432 
L 205.14482 39.0168 
L 207.110994 38.832 
L 209.077167 41.2344 
L 211.04334 42.3432 
L 213.009514 41.4192 
L 214.975687 37.7232 
L 216.94186 34.3968 
L 218.908034 36.984 
L 220.874207 41.604 
L 222.840381 40.4952 
L 224.806554 38.6472 
L 226.772727 39.3864 
L 228.738901 39.0168 
L 230.705074 39.2016 
L 232.671247 37.7232 
L 234.637421 35.3208 
L 236.603594 38.4624 
L 238.569767 42.1584 
L 240.535941 41.9736 
L 242.502114 43.0824 
L 244.468288 43.0824 
L 246.434461 42.1584 
L 248.400634 43.0824 
L 250.366808 42.3432 
L 252.332981 42.8976 
L 254.299154 46.224 
L 256.265328 45.4848 
L 258.231501 41.2344 
L 260.197674 43.452 
L 262.163848 45.1152 
L 264.130021 40.4952 
L 266.096195 41.604 
L 268.062368 46.5936 
L 270.028541 44.5608 
L 271.994715 40.8648 
L 273.960888 39.3864 
L 275.927061 38.4624 
L 277.893235 40.1256 
L 279.859408 41.0496 
L 281.825581 39.5712 
L 283.791755 39.9408 
L 285.757928 41.2344 
L 287.724101 41.7888 
L 289.690275 42.8976 
L 293.622622 37.3536 
L 295.588795 40.4952 
L 297.554968 40.3104 
L 299.521142 36.06 
L 301.487315 34.3968 
L 303.453488 36.06 
L 305.419662 39.0168 
L 307.385835 39.5712 
L 309.352008 37.3536 
L 311.318182 35.5056 
L 311.318182 35.5056 
" clip-path="url(#pe72815d5f3)" style="fill: none; stroke: #a9a9a9; stroke-width: 2.5; stroke-linecap: square"/>
   </g>
  </g>
 </g>
 <defs>
  <clipPath id="pe72815d5f3">
   <rect x="45" y="12.96" width="279" height="83.16"/>
  </clipPath>
 </defs>
</svg>
