<?xml version="1.0" encoding="utf-8" standalone="no"?>
<!DOCTYPE svg PUBLIC "-//W3C//DTD SVG 1.1//EN"
  "http://www.w3.org/Graphics/SVG/1.1/DTD/svg11.dtd">
<svg xmlns:xlink="http://www.w3.org/1999/xlink" width="360pt" height="108pt" viewBox="0 0 360 108" xmlns="http://www.w3.org/2000/svg" version="1.1">
 <metadata>
  <rdf:RDF xmlns:dc="http://purl.org/dc/elements/1.1/" xmlns:cc="http://creativecommons.org/ns#" xmlns:rdf="http://www.w3.org/1999/02/22-rdf-syntax-ns#">
   <cc:Work>
    <dc:type rdf:resource="http://purl.org/dc/dcmitype/StillImage"/>
    <dc:date>2022-11-16T22:41:15.188791</dc:date>
    <dc:format>image/svg+xml</dc:format>
    <dc:creator>
     <cc:Agent>
      <dc:title>Matplotlib v3.5.2, https://matplotlib.org/</dc:title>
     </cc:Agent>
    </dc:creator>
   </cc:Work>
  </rdf:RDF>
 </metadata>
 <defs>
  <style type="text/css">*{stroke-linejoin: round; stroke-linecap: butt}</style>
 </defs>
 <g id="figure_1">
  <g id="patch_1">
   <path d="M 0 108 
L 360 108 
L 360 0 
L 0 0 
L 0 108 
z
" style="fill: none"/>
  </g>
  <g id="axes_1">
   <g id="line2d_1">
    <path d="M 57.681818 39.3864 
L 59.647992 38.6472 
L 61.614165 40.1256 
L 63.580338 43.0824 
L 65.546512 45.3 
L 67.512685 42.7128 
L 69.478858 37.908 
L 71.445032 37.5384 
L 73.411205 39.2016 
L 75.377378 34.9512 
L 77.343552 32.364 
L 79.309725 37.3536 
L 81.275899 40.1256 
L 83.242072 39.2016 
L 85.208245 38.6472 
L 87.174419 39.2016 
L 89.140592 41.4192 
L 91.106765 41.4192 
L 93.072939 40.4952 
L 95.039112 43.452 
L 97.005285 43.0824 
L 98.971459 42.8976 
L 100.937632 45.4848 
L 102.903805 40.3104 
L 104.869979 35.5056 
L 106.836152 41.9736 
L 108.802326 46.5936 
L 110.768499 44.7456 
L 112.734672 43.6368 
L 114.700846 41.4192 
L 116.667019 38.4624 
L 118.633192 38.2776 
L 120.599366 40.3104 
L 122.565539 40.8648 
L 124.531712 40.1256 
L 126.497886 41.0496 
L 128.464059 41.7888 
L 132.396406 35.6904 
L 134.362579 35.3208 
L 136.328753 36.06 
L 138.294926 35.6904 
L 140.261099 37.3536 
L 142.227273 40.4952 
L 144.193446 41.604 
L 146.159619 41.604 
L 148.125793 42.1584 
L 150.091966 44.0064 
L 152.05814 42.3432 
L 154.024313 36.6144 
L 155.990486 35.5056 
L 157.95666 43.452 
L 159.922833 47.7024 
L 161.889006 42.1584 
L 163.85518 37.3536 
L 165.821353 40.1256 
L 167.787526 44.1912 
L 169.7537 45.4848 
L 171.719873 41.7888 
L 173.686047 38.6472 
L 175.65222 41.2344 
L 177.618393 41.9736 
L 179.584567 38.0928 
L 181.55074 37.1688 
L 183.516913 39.9408 
L 185.483087 41.4192 
L 187.44926 43.8216 
L 189.415433 45.4848 
L 191.381607 44.1912 
L 193.34778 42.528 
L 195.313953 43.0824 
L 197.280127 44.1912 
L 199.2463 43.452 
L 201.212474 42.3432 
L 203.178647 42.1584 
L 205.14482 39.0168 
L 207.110994 37.5384 
L 209.077167 40.68 
L 211.04334 43.2672 
L 213.009514 41.7888 
L 214.975687 36.6144 
L 216.94186 35.6904 
L 218.908034 39.756 
L 220.874207 41.604 
L 222.840381 38.832 
L 224.806554 36.984 
L 226.772727 37.1688 
L 228.738901 39.0168 
L 230.705074 41.604 
L 232.671247 44.0064 
L 234.637421 43.8216 
L 236.603594 40.8648 
L 238.569767 38.6472 
L 242.502114 43.8216 
L 244.468288 39.756 
L 246.434461 38.0928 
L 248.400634 45.6696 
L 250.366808 46.4088 
L 252.332981 41.2344 
L 254.299154 43.452 
L 256.265328 45.3 
L 258.231501 40.1256 
L 260.197674 39.9408 
L 262.163848 42.8976 
L 264.130021 39.5712 
L 266.096195 39.3864 
L 268.062368 46.4088 
L 270.028541 45.6696 
L 271.994715 37.3536 
L 273.960888 34.7664 
L 275.927061 38.0928 
L 277.893235 39.0168 
L 279.859408 39.756 
L 281.825581 39.5712 
L 283.791755 36.6144 
L 285.757928 38.6472 
L 287.724101 44.376 
L 289.690275 41.2344 
L 291.656448 35.5056 
L 293.622622 34.5816 
L 295.588795 35.6904 
L 297.554968 37.5384 
L 299.521142 36.4296 
L 301.487315 33.288 
L 303.453488 36.4296 
L 305.419662 40.8648 
L 307.385835 39.2016 
L 309.352008 37.1688 
L 311.318182 39.756 
L 311.318182 39.756 
" clip-path="url(#pa852594a58)" style="fill: none; stroke: #a9a9a9; stroke-width: 2.5; stroke-linecap: square"/>
   </g>
  </g>
 </g>
 <defs>
  <clipPath id="pa852594a58">
   <rect x="45" y="12.96" width="279" height="83.16"/>
  </clipPath>
 </defs>
</svg>
