<?xml version="1.0" encoding="utf-8" standalone="no"?>
<!DOCTYPE svg PUBLIC "-//W3C//DTD SVG 1.1//EN"
  "http://www.w3.org/Graphics/SVG/1.1/DTD/svg11.dtd">
<svg xmlns:xlink="http://www.w3.org/1999/xlink" width="360pt" height="108pt" viewBox="0 0 360 108" xmlns="http://www.w3.org/2000/svg" version="1.1">
 <metadata>
  <rdf:RDF xmlns:dc="http://purl.org/dc/elements/1.1/" xmlns:cc="http://creativecommons.org/ns#" xmlns:rdf="http://www.w3.org/1999/02/22-rdf-syntax-ns#">
   <cc:Work>
    <dc:type rdf:resource="http://purl.org/dc/dcmitype/StillImage"/>
    <dc:date>2022-11-16T22:41:15.238789</dc:date>
    <dc:format>image/svg+xml</dc:format>
    <dc:creator>
     <cc:Agent>
      <dc:title>Matplotlib v3.5.2, https://matplotlib.org/</dc:title>
     </cc:Agent>
    </dc:creator>
   </cc:Work>
  </rdf:RDF>
 </metadata>
 <defs>
  <style type="text/css">*{stroke-linejoin: round; stroke-linecap: butt}</style>
 </defs>
 <g id="figure_1">
  <g id="patch_1">
   <path d="M 0 108 
L 360 108 
L 360 0 
L 0 0 
L 0 108 
z
" style="fill: none"/>
  </g>
  <g id="axes_1">
   <g id="line2d_1">
    <path d="M 57.681818 38.6472 
L 59.647992 38.4624 
L 61.614165 37.3536 
L 63.580338 42.528 
L 65.546512 46.9632 
L 67.512685 42.7128 
L 69.478858 41.4192 
L 71.445032 43.2672 
L 73.411205 41.9736 
L 75.377378 41.7888 
L 79.309725 35.3208 
L 81.275899 39.9408 
L 83.242072 42.528 
L 85.208245 40.4952 
L 87.174419 37.7232 
L 89.140592 36.6144 
L 91.106765 39.9408 
L 93.072939 44.0064 
L 95.039112 42.528 
L 97.005285 38.832 
L 98.971459 37.3536 
L 100.937632 37.1688 
L 102.903805 37.7232 
L 104.869979 35.6904 
L 106.836152 34.9512 
L 108.802326 35.8752 
L 110.768499 35.8752 
L 112.734672 35.3208 
L 114.700846 33.1032 
L 116.667019 33.4728 
L 118.633192 36.6144 
L 120.599366 36.2448 
L 122.565539 36.2448 
L 124.531712 38.0928 
L 126.497886 34.7664 
L 128.464059 33.288 
L 130.430233 37.908 
L 132.396406 35.8752 
L 134.362579 29.2224 
L 136.328753 30.7008 
L 138.294926 32.9184 
L 140.261099 28.8528 
L 142.227273 28.2984 
L 144.193446 29.2224 
L 146.159619 29.2224 
L 148.125793 40.4952 
L 150.091966 63.0408 
L 152.05814 75.6072 
L 154.024313 72.6504 
L 155.990486 66.7368 
L 159.922833 56.7576 
L 161.889006 55.464 
L 163.85518 56.5728 
L 165.821353 53.616 
L 167.787526 46.7784 
L 169.7537 45.8544 
L 171.719873 47.8872 
L 173.686047 44.376 
L 175.65222 41.9736 
L 177.618393 41.4192 
L 179.584567 38.832 
L 181.55074 36.984 
L 183.516913 38.832 
L 185.483087 40.4952 
L 187.44926 39.9408 
L 189.415433 41.4192 
L 191.381607 41.9736 
L 193.34778 39.3864 
L 195.313953 40.3104 
L 197.280127 40.68 
L 199.2463 37.7232 
L 201.212474 38.4624 
L 203.178647 41.604 
L 207.110994 34.7664 
L 209.077167 37.7232 
L 211.04334 38.6472 
L 213.009514 37.5384 
L 214.975687 37.908 
L 216.94186 36.06 
L 218.908034 33.288 
L 220.874207 36.7992 
L 222.840381 38.832 
L 224.806554 34.7664 
L 226.772727 33.6576 
L 228.738901 36.984 
L 230.705074 37.908 
L 232.671247 37.908 
L 236.603594 39.0168 
L 238.569767 41.0496 
L 240.535941 41.2344 
L 242.502114 39.3864 
L 244.468288 42.3432 
L 246.434461 44.9304 
L 248.400634 43.0824 
L 250.366808 43.452 
L 252.332981 42.7128 
L 254.299154 41.604 
L 256.265328 44.0064 
L 258.231501 40.4952 
L 260.197674 37.7232 
L 262.163848 42.1584 
L 264.130021 42.7128 
L 266.096195 39.9408 
L 268.062368 40.68 
L 270.028541 40.8648 
L 271.994715 42.1584 
L 273.960888 41.7888 
L 275.927061 38.4624 
L 279.859408 38.4624 
L 281.825581 35.5056 
L 283.791755 34.7664 
L 285.757928 39.2016 
L 287.724101 42.1584 
L 289.690275 39.2016 
L 291.656448 37.1688 
L 293.622622 39.0168 
L 295.588795 39.0168 
L 297.554968 36.06 
L 299.521142 35.8752 
L 301.487315 37.908 
L 303.453488 37.908 
L 305.419662 36.6144 
L 307.385835 35.8752 
L 309.352008 37.7232 
L 311.318182 40.3104 
L 311.318182 40.3104 
" clip-path="url(#p91ebb6d59b)" style="fill: none; stroke: #a9a9a9; stroke-width: 2.5; stroke-linecap: square"/>
   </g>
   <g id="line2d_2">
    <path d="M 116.667019 33.4728 
L 118.633192 36.6144 
L 120.599366 36.2448 
L 122.565539 36.2448 
L 124.531712 38.0928 
L 126.497886 34.7664 
L 128.464059 33.288 
L 130.430233 37.908 
L 132.396406 35.8752 
L 134.362579 29.2224 
L 136.328753 30.7008 
L 138.294926 32.9184 
L 140.261099 28.8528 
L 142.227273 28.2984 
L 144.193446 29.2224 
L 146.159619 29.2224 
L 148.125793 40.4952 
L 150.091966 63.0408 
L 152.05814 75.6072 
L 154.024313 72.6504 
L 155.990486 66.7368 
L 157.95666 61.7472 
L 159.922833 56.7576 
L 161.889006 55.464 
L 163.85518 56.5728 
L 165.821353 53.616 
L 167.787526 46.7784 
L 169.7537 45.8544 
L 171.719873 47.8872 
L 173.686047 44.376 
L 175.65222 41.9736 
L 177.618393 41.4192 
L 179.584567 38.832 
L 181.55074 36.984 
L 183.516913 38.832 
L 185.483087 40.4952 
L 187.44926 39.9408 
L 189.415433 41.4192 
L 191.381607 41.9736 
L 193.34778 39.3864 
L 195.313953 40.3104 
L 197.280127 40.68 
L 199.2463 37.7232 
L 201.212474 38.4624 
L 203.178647 41.604 
L 205.14482 38.0928 
L 207.110994 34.7664 
L 209.077167 37.7232 
L 211.04334 38.6472 
L 213.009514 37.5384 
" clip-path="url(#p91ebb6d59b)" style="fill: none; stroke: #a00000; stroke-width: 5; stroke-linecap: square"/>
   </g>
  </g>
 </g>
 <defs>
  <clipPath id="p91ebb6d59b">
   <rect x="45" y="12.96" width="279" height="83.16"/>
  </clipPath>
 </defs>
</svg>
