<?xml version="1.0" encoding="utf-8" standalone="no"?>
<!DOCTYPE svg PUBLIC "-//W3C//DTD SVG 1.1//EN"
  "http://www.w3.org/Graphics/SVG/1.1/DTD/svg11.dtd">
<svg xmlns:xlink="http://www.w3.org/1999/xlink" width="288pt" height="576pt" viewBox="0 0 288 576" xmlns="http://www.w3.org/2000/svg" version="1.1">
 <metadata>
  <rdf:RDF xmlns:dc="http://purl.org/dc/elements/1.1/" xmlns:cc="http://creativecommons.org/ns#" xmlns:rdf="http://www.w3.org/1999/02/22-rdf-syntax-ns#">
   <cc:Work>
    <dc:type rdf:resource="http://purl.org/dc/dcmitype/StillImage"/>
    <dc:date>2023-02-24T15:49:41.089859</dc:date>
    <dc:format>image/svg+xml</dc:format>
    <dc:creator>
     <cc:Agent>
      <dc:title>Matplotlib v3.5.2, https://matplotlib.org/</dc:title>
     </cc:Agent>
    </dc:creator>
   </cc:Work>
  </rdf:RDF>
 </metadata>
 <defs>
  <style type="text/css">*{stroke-linejoin: round; stroke-linecap: butt}</style>
 </defs>
 <g id="figure_1">
  <g id="patch_1">
   <path d="M 0 576 
L 288 576 
L 288 0 
L 0 0 
L 0 576 
z
" style="fill: none"/>
  </g>
  <g id="axes_1">
   <g id="line2d_1">
    <path d="M 13.459091 20.854645 
L 14.822727 20.87128 
L 16.186364 20.807674 
L 17.55 20.771272 
L 18.913636 20.752484 
L 20.277273 20.727433 
L 21.640909 20.682615 
L 23.004545 20.727041 
L 24.368182 20.712167 
L 25.731818 20.540529 
L 27.095455 20.47888 
L 28.459091 20.488078 
L 29.822727 20.427016 
L 31.186364 20.312721 
L 32.55 20.071018 
L 33.913636 19.68488 
L 35.277273 19.430652 
L 36.640909 19.4741 
L 38.004545 19.809548 
L 39.368182 20.20919 
L 40.731818 20.593371 
L 42.095455 21.025305 
L 43.459091 21.392458 
L 44.822727 21.578188 
L 46.186364 21.765483 
L 47.55 22.004838 
L 48.913636 22.059833 
L 50.277273 21.937513 
L 51.640909 21.834961 
L 53.004545 21.772333 
L 54.368182 21.717534 
L 55.731818 21.653732 
L 57.095455 21.565271 
L 58.459091 21.593062 
L 59.822727 21.596976 
L 61.186364 21.410855 
L 62.55 21.356839 
L 63.913636 21.47681 
L 65.277273 21.398917 
L 66.640909 21.1852 
" clip-path="url(#pa5ad02d59e)" style="fill: none; stroke: #1f77b4; stroke-width: 2.5; stroke-linecap: square"/>
   </g>
  </g>
  <g id="axes_2">
   <g id="line2d_2">
    <path d="M 82.759091 20.814066 
L 84.122727 20.926685 
L 85.486364 20.867448 
L 86.85 20.80494 
L 88.213636 20.84644 
L 89.577273 20.845579 
L 90.940909 20.865382 
L 92.304545 20.981616 
L 93.668182 20.888973 
L 95.031818 20.842479 
L 96.395455 21.043953 
L 97.759091 20.980411 
L 99.122727 20.675446 
L 100.486364 20.446937 
L 101.85 20.107187 
L 103.213636 19.728004 
L 104.577273 19.718878 
L 105.940909 19.887805 
L 107.304545 20.044851 
L 108.668182 20.276115 
L 110.031818 20.528215 
L 111.395455 20.760684 
L 112.759091 21.025527 
L 114.122727 21.151405 
L 115.486364 21.208403 
L 116.85 21.344441 
L 118.213636 21.400922 
L 119.577273 21.295536 
L 120.940909 21.238194 
L 122.304545 21.206165 
L 123.668182 21.189461 
L 125.031818 21.20892 
L 126.395455 21.212364 
L 127.759091 21.245598 
L 129.122727 21.289509 
L 130.486364 21.277455 
L 131.85 21.362694 
L 133.213636 21.443283 
L 134.577273 21.416592 
L 135.940909 21.373026 
" clip-path="url(#p6e636ac0d3)" style="fill: none; stroke: #d22730; stroke-width: 2.5; stroke-linecap: square"/>
   </g>
  </g>
  <g id="axes_3">
   <g id="line2d_3">
    <path d="M 152.059091 20.369477 
L 153.422727 20.349319 
L 154.786364 20.307241 
L 156.15 20.239917 
L 157.513636 20.327204 
L 158.877273 20.450502 
L 160.240909 20.415469 
L 161.604545 20.284147 
L 162.968182 20.183748 
L 164.331818 20.143431 
L 165.695455 19.971206 
L 167.059091 19.748486 
L 168.422727 19.702494 
L 169.786364 19.608749 
L 171.15 19.214196 
L 172.513636 18.606709 
L 173.877273 17.945989 
L 175.240909 17.304253 
L 176.604545 16.823391 
L 177.968182 16.926726 
L 179.331818 17.798227 
L 180.695455 19.164485 
L 182.059091 20.771663 
L 183.422727 22.262785 
L 184.786364 23.298879 
L 186.15 23.990521 
L 187.513636 24.440265 
L 188.877273 24.562975 
L 190.240909 24.459053 
L 191.604545 24.334385 
L 192.968182 24.190733 
L 194.331818 23.965079 
L 195.695455 23.631783 
L 197.059091 23.330779 
L 198.422727 23.134677 
L 199.786364 23.037017 
L 201.15 22.839936 
L 202.513636 22.465541 
L 203.877273 22.206812 
L 205.240909 22.112283 
" clip-path="url(#p731a8f104a)" style="fill: none; stroke: #1f77b4; stroke-width: 2.5; stroke-linecap: square"/>
   </g>
  </g>
  <g id="axes_4">
   <g id="line2d_4">
    <path d="M 221.359091 20.473628 
L 222.722727 20.511512 
L 224.086364 20.425412 
L 225.45 20.278181 
L 226.813636 20.159708 
L 228.177273 20.152304 
L 229.540909 20.190704 
L 230.904545 20.272327 
L 232.268182 20.218084 
L 233.631818 20.048295 
L 234.995455 19.998185 
L 236.359091 19.991125 
L 237.722727 19.902959 
L 239.086364 19.646554 
L 240.45 19.162329 
L 241.813636 18.537589 
L 243.177273 18.062146 
L 244.540909 17.529533 
L 245.904545 16.738449 
L 247.268182 16.479116 
L 248.631818 17.385574 
L 249.995455 18.878716 
L 251.359091 20.418868 
L 252.722727 21.905122 
L 254.086364 23.164417 
L 255.45 24.007678 
L 256.813636 24.454536 
L 258.177273 24.710424 
L 259.540909 24.866265 
L 260.904545 24.715246 
L 262.268182 24.448509 
L 263.631818 24.337613 
L 264.995455 24.173506 
L 266.359091 23.796734 
L 267.722727 23.464217 
L 269.086364 23.252583 
L 270.45 22.98533 
L 271.813636 22.688974 
L 273.177273 22.51953 
L 274.540909 22.315646 
" clip-path="url(#p9cd960ba77)" style="fill: none; stroke: #d22730; stroke-width: 2.5; stroke-linecap: square"/>
   </g>
  </g>
  <g id="axes_5">
   <g id="line2d_5">
    <path d="M 13.459091 72.169921 
L 14.822727 72.155243 
L 16.186364 72.102401 
L 17.55 72.06776 
L 18.913636 72.022159 
L 20.277273 71.961685 
L 21.640909 71.925087 
L 23.004545 71.941918 
L 24.368182 71.823904 
L 25.731818 71.639936 
L 27.095455 71.648156 
L 28.459091 71.673794 
L 29.822727 71.549126 
L 31.186364 71.41115 
L 32.55 71.018749 
L 33.913636 70.30871 
L 35.277273 69.957409 
L 36.640909 70.334153 
L 38.004545 71.153007 
L 39.368182 71.954443 
L 40.731818 72.507131 
L 42.095455 73.031832 
L 43.459091 73.610941 
L 44.822727 73.937191 
L 46.186364 74.06499 
L 47.55 74.175175 
L 48.913636 74.16676 
L 50.277273 73.996883 
L 51.640909 73.805282 
L 53.004545 73.60096 
L 54.368182 73.43304 
L 55.731818 73.428342 
L 57.095455 73.361214 
L 58.459091 73.21032 
L 59.822727 73.129492 
L 61.186364 72.941609 
L 62.55 72.681705 
L 63.913636 72.699515 
L 65.277273 72.759207 
L 66.640909 72.607531 
" clip-path="url(#p0483b4d2f0)" style="fill: none; stroke: #1f77b4; stroke-width: 2.5; stroke-linecap: square"/>
   </g>
  </g>
  <g id="axes_6">
   <g id="line2d_6">
    <path d="M 82.759091 72.058986 
L 84.122727 72.056403 
L 85.486364 71.909 
L 86.85 71.896085 
L 88.213636 71.977191 
L 89.577273 71.881104 
L 90.940909 71.832544 
L 92.304545 72.073967 
L 93.668182 72.180903 
L 95.031818 72.065874 
L 96.395455 72.024718 
L 97.759091 72.067596 
L 99.122727 71.993722 
L 100.486364 71.6185 
L 101.85 71.154939 
L 103.213636 70.821732 
L 104.577273 70.718413 
L 105.940909 71.097424 
L 107.304545 71.773996 
L 108.668182 72.318663 
L 110.031818 72.786012 
L 111.395455 73.183104 
L 112.759091 73.337567 
L 114.122727 73.386472 
L 115.486364 73.499779 
L 116.85 73.58209 
L 118.213636 73.545412 
L 119.577273 73.457418 
L 120.940909 73.317592 
L 122.304545 73.068936 
L 123.668182 72.978531 
L 125.031818 73.090805 
L 126.395455 73.006944 
L 127.759091 72.827857 
L 129.122727 72.821657 
L 130.486364 72.756738 
L 131.85 72.699912 
L 133.213636 72.709383 
L 134.577273 72.672533 
L 135.940909 72.64567 
" clip-path="url(#p7e4d3d272e)" style="fill: none; stroke: #d22730; stroke-width: 2.5; stroke-linecap: square"/>
   </g>
  </g>
  <g id="axes_7">
   <g id="line2d_7">
    <path d="M 152.059091 71.264171 
L 153.422727 71.228552 
L 154.786364 71.117388 
L 156.15 70.986457 
L 157.513636 70.994286 
L 158.877273 71.018554 
L 160.240909 70.90054 
L 161.604545 70.742601 
L 162.968182 70.642397 
L 164.331818 70.592295 
L 165.695455 70.524384 
L 167.059091 70.490134 
L 168.422727 70.405 
L 169.786364 69.943122 
L 171.15 69.256372 
L 172.513636 68.555532 
L 173.877273 67.61651 
L 175.240909 66.635999 
L 176.604545 66.508395 
L 177.968182 67.668765 
L 179.331818 70.002031 
L 180.695455 72.991907 
L 182.059091 75.832064 
L 183.422727 77.827729 
L 184.786364 78.863235 
L 186.15 79.303389 
L 187.513636 79.325309 
L 188.877273 78.895136 
L 190.240909 78.330901 
L 191.604545 77.827337 
L 192.968182 77.13863 
L 194.331818 76.372813 
L 195.695455 75.795858 
L 197.059091 75.322041 
L 198.422727 74.796362 
L 199.786364 74.38713 
L 201.15 74.073014 
L 202.513636 73.644407 
L 203.877273 73.276275 
L 205.240909 73.099744 
" clip-path="url(#p75a54095be)" style="fill: none; stroke: #1f77b4; stroke-width: 2.5; stroke-linecap: square"/>
   </g>
  </g>
  <g id="axes_8">
   <g id="line2d_8">
    <path d="M 221.359091 71.48384 
L 222.722727 71.490383 
L 224.086364 71.427186 
L 225.45 71.418748 
L 226.813636 71.381553 
L 228.177273 71.217964 
L 229.540909 71.138063 
L 230.904545 71.253437 
L 232.268182 71.235356 
L 233.631818 71.084509 
L 234.995455 71.025617 
L 236.359091 70.978606 
L 237.722727 70.872876 
L 239.086364 70.54518 
L 240.45 69.814882 
L 241.813636 68.89637 
L 243.177273 68.117339 
L 244.540909 67.421137 
L 245.904545 67.026972 
L 247.268182 67.934291 
L 248.631818 70.459769 
L 249.995455 73.059293 
L 251.359091 74.688989 
L 252.722727 75.863906 
L 254.086364 76.776047 
L 255.45 77.234786 
L 256.813636 77.379089 
L 258.177273 77.266127 
L 259.540909 77.06207 
L 260.904545 76.797916 
L 262.268182 76.380849 
L 263.631818 75.99495 
L 264.995455 75.680686 
L 266.359091 75.325266 
L 267.722727 74.963303 
L 269.086364 74.593418 
L 270.45 74.230938 
L 271.813636 74.000191 
L 273.177273 73.833846 
L 274.540909 73.457074 
" clip-path="url(#pc8cbb49cc9)" style="fill: none; stroke: #d22730; stroke-width: 2.5; stroke-linecap: square"/>
   </g>
  </g>
  <g id="axes_9">
   <g id="line2d_9">
    <path d="M 13.459091 123.295749 
L 14.822727 123.321779 
L 16.186364 123.35779 
L 17.55 123.370707 
L 18.913636 123.305535 
L 20.277273 123.15014 
L 21.640909 122.93936 
L 23.004545 122.847963 
L 24.368182 122.90648 
L 25.731818 122.951885 
L 27.095455 122.863033 
L 28.459091 122.721142 
L 29.822727 122.50997 
L 31.186364 122.128138 
L 32.55 121.605003 
L 33.913636 120.944283 
L 35.277273 120.604724 
L 36.640909 121.300281 
L 38.004545 122.7413 
L 39.368182 124.032993 
L 40.731818 124.975928 
L 42.095455 125.605334 
L 43.459091 125.949785 
L 44.822727 126.197555 
L 46.186364 126.360583 
L 47.55 126.433974 
L 48.913636 126.394441 
L 50.277273 126.126512 
L 51.640909 125.812788 
L 53.004545 125.596136 
L 54.368182 125.287891 
L 55.731818 125.030727 
L 57.095455 124.906059 
L 58.459091 124.735399 
L 59.822727 124.551626 
L 61.186364 124.385664 
L 62.55 124.19465 
L 63.913636 124.077223 
L 65.277273 123.952947 
L 66.640909 123.810078 
" clip-path="url(#p0cbc6afc71)" style="fill: none; stroke: #1f77b4; stroke-width: 2.5; stroke-linecap: square"/>
   </g>
  </g>
  <g id="axes_10">
   <g id="line2d_10">
    <path d="M 82.759091 123.186982 
L 84.122727 123.328702 
L 85.486364 123.329908 
L 86.85 123.094166 
L 88.213636 123.07092 
L 89.577273 123.160463 
L 90.940909 123.164424 
L 92.304545 123.276698 
L 93.668182 123.312171 
L 95.031818 123.197142 
L 96.395455 123.160291 
L 97.759091 123.106565 
L 99.122727 122.981376 
L 100.486364 122.666251 
L 101.85 122.031523 
L 103.213636 121.426759 
L 104.577273 121.543854 
L 105.940909 122.677788 
L 107.304545 124.123747 
L 108.668182 125.129048 
L 110.031818 125.712632 
L 111.395455 125.963527 
L 112.759091 125.901707 
L 114.122727 125.70075 
L 115.486364 125.561097 
L 116.85 125.495833 
L 118.213636 125.364789 
L 119.577273 125.144029 
L 120.940909 124.928952 
L 122.304545 124.778105 
L 123.668182 124.710087 
L 125.031818 124.693039 
L 126.395455 124.512574 
L 127.759091 124.315578 
L 129.122727 124.399783 
L 130.486364 124.395134 
L 131.85 124.175235 
L 133.213636 124.017672 
L 134.577273 123.916247 
L 135.940909 123.852361 
" clip-path="url(#p39d5178a2c)" style="fill: none; stroke: #d22730; stroke-width: 2.5; stroke-linecap: square"/>
   </g>
  </g>
  <g id="axes_11">
   <g id="line2d_11">
    <path d="M 152.059091 121.979985 
L 153.422727 122.012669 
L 154.786364 121.995446 
L 156.15 121.785252 
L 157.513636 121.690137 
L 158.877273 121.73789 
L 160.240909 121.621051 
L 161.604545 121.41849 
L 162.968182 121.267988 
L 164.331818 121.220235 
L 165.695455 121.25331 
L 167.059091 121.200272 
L 168.422727 120.882438 
L 169.786364 120.189817 
L 171.15 119.314793 
L 172.513636 118.296118 
L 173.877273 117.134573 
L 175.240909 116.77016 
L 176.604545 118.493199 
L 177.968182 122.352227 
L 179.331818 126.987836 
L 180.695455 130.704974 
L 182.059091 132.83333 
L 183.422727 133.622633 
L 184.786364 133.504423 
L 186.15 132.982462 
L 187.513636 132.308825 
L 188.877273 131.36315 
L 190.240909 130.278324 
L 191.604545 129.304271 
L 192.968182 128.383255 
L 194.331818 127.541502 
L 195.695455 126.808369 
L 197.059091 126.192663 
L 198.422727 125.703581 
L 199.786364 125.216652 
L 201.15 124.725222 
L 202.513636 124.341433 
L 203.877273 124.042387 
L 205.240909 123.880729 
" clip-path="url(#p8735d88ccd)" style="fill: none; stroke: #1f77b4; stroke-width: 2.5; stroke-linecap: square"/>
   </g>
  </g>
  <g id="axes_12">
   <g id="line2d_12">
    <path d="M 221.359091 122.551738 
L 222.722727 122.498012 
L 224.086364 122.531935 
L 225.45 122.507311 
L 226.813636 122.310314 
L 228.177273 122.247806 
L 229.540909 122.230069 
L 230.904545 122.2051 
L 232.268182 122.224903 
L 233.631818 122.09627 
L 234.995455 121.879816 
L 236.359091 121.799743 
L 237.722727 121.659056 
L 239.086364 121.127132 
L 240.45 120.163159 
L 241.813636 119.038352 
L 243.177273 118.121906 
L 244.540909 117.752194 
L 245.904545 118.957246 
L 247.268182 122.420694 
L 248.631818 126.612547 
L 249.995455 129.328649 
L 251.359091 130.360641 
L 252.722727 130.662851 
L 254.086364 130.61343 
L 255.45 130.213755 
L 256.813636 129.618289 
L 258.177273 129.034533 
L 259.540909 128.557884 
L 260.904545 127.988421 
L 262.268182 127.351971 
L 263.631818 126.882728 
L 264.995455 126.502339 
L 266.359091 126.103525 
L 267.722727 125.645474 
L 269.086364 125.212737 
L 270.45 125.039332 
L 271.813636 124.925164 
L 273.177273 124.648095 
L 274.540909 124.355528 
" clip-path="url(#p8c40bd06b1)" style="fill: none; stroke: #d22730; stroke-width: 2.5; stroke-linecap: square"/>
   </g>
  </g>
  <g id="axes_13">
   <g id="line2d_13">
    <path d="M 13.459091 174.38361 
L 14.822727 174.322352 
L 16.186364 174.376173 
L 17.55 174.399854 
L 18.913636 174.338205 
L 20.277273 174.214124 
L 21.640909 174.054033 
L 23.004545 174.044247 
L 24.368182 173.996494 
L 25.731818 173.867324 
L 27.095455 173.866933 
L 28.459091 173.795303 
L 29.822727 173.397618 
L 31.186364 172.909124 
L 32.55 172.396752 
L 33.913636 171.632893 
L 35.277273 171.345785 
L 36.640909 172.776823 
L 38.004545 175.307953 
L 39.368182 177.170534 
L 40.731818 178.014048 
L 42.095455 178.458899 
L 43.459091 178.655784 
L 44.822727 178.708821 
L 46.186364 178.823899 
L 47.55 178.76773 
L 48.913636 178.37533 
L 50.277273 177.873331 
L 51.640909 177.497762 
L 53.004545 177.196759 
L 54.368182 176.921785 
L 55.731818 176.707677 
L 57.095455 176.373011 
L 58.459091 176.038541 
L 59.822727 175.878646 
L 61.186364 175.733232 
L 62.55 175.535369 
L 63.913636 175.414419 
L 65.277273 175.419703 
L 66.640909 175.407374 
" clip-path="url(#p3c3552b0a1)" style="fill: none; stroke: #1f77b4; stroke-width: 2.5; stroke-linecap: square"/>
   </g>
  </g>
  <g id="axes_14">
   <g id="line2d_14">
    <path d="M 82.759091 174.535049 
L 84.122727 174.479945 
L 85.486364 174.518862 
L 86.85 174.479429 
L 88.213636 174.306713 
L 89.577273 174.24541 
L 90.940909 174.32135 
L 92.304545 174.338742 
L 93.668182 174.268829 
L 95.031818 174.2783 
L 96.395455 174.307057 
L 97.759091 174.244204 
L 99.122727 174.07872 
L 100.486364 173.658209 
L 101.85 173.075658 
L 103.213636 172.666168 
L 104.577273 173.093223 
L 105.940909 175.008081 
L 107.304545 177.398382 
L 108.668182 178.515268 
L 110.031818 178.585698 
L 111.395455 178.465331 
L 112.759091 178.244399 
L 114.122727 177.844724 
L 115.486364 177.464507 
L 116.85 177.189504 
L 118.213636 176.915191 
L 119.577273 176.697875 
L 120.940909 176.582329 
L 122.304545 176.353476 
L 123.668182 176.112224 
L 125.031818 176.072618 
L 126.395455 175.995645 
L 127.759091 175.785217 
L 129.122727 175.679143 
L 130.486364 175.540866 
L 131.85 175.301165 
L 133.213636 175.101069 
L 134.577273 175.044587 
L 135.940909 175.152729 
" clip-path="url(#pa92ca9b07c)" style="fill: none; stroke: #d22730; stroke-width: 2.5; stroke-linecap: square"/>
   </g>
  </g>
  <g id="axes_15">
   <g id="line2d_15">
    <path d="M 152.059091 173.238505 
L 153.422727 173.10092 
L 154.786364 172.863131 
L 156.15 172.71126 
L 157.513636 172.742182 
L 158.877273 172.800895 
L 160.240909 172.687579 
L 161.604545 172.503023 
L 162.968182 172.411431 
L 164.331818 172.422978 
L 165.695455 172.377964 
L 167.059091 172.267387 
L 168.422727 171.978518 
L 169.786364 171.120717 
L 171.15 169.823936 
L 172.513636 168.586456 
L 173.877273 167.696754 
L 175.240909 168.791561 
L 176.604545 173.494104 
L 177.968182 179.547247 
L 179.331818 183.759534 
L 180.695455 185.808823 
L 182.059091 186.324913 
L 183.422727 185.734453 
L 184.786364 184.744938 
L 186.15 183.799654 
L 187.513636 182.856523 
L 188.877273 181.782657 
L 190.240909 180.65595 
L 191.604545 179.778382 
L 192.968182 179.006889 
L 194.331818 178.189013 
L 195.695455 177.521248 
L 197.059091 177.027273 
L 198.422727 176.526645 
L 199.786364 176.090405 
L 201.15 175.703289 
L 202.513636 175.374299 
L 203.877273 175.184263 
L 205.240909 175.016735 
" clip-path="url(#p40f939632f)" style="fill: none; stroke: #1f77b4; stroke-width: 2.5; stroke-linecap: square"/>
   </g>
  </g>
  <g id="axes_16">
   <g id="line2d_16">
    <path d="M 221.359091 173.358066 
L 222.722727 173.379246 
L 224.086364 173.417302 
L 225.45 173.363059 
L 226.813636 173.25664 
L 228.177273 173.20498 
L 229.540909 173.152115 
L 230.904545 173.117847 
L 232.268182 173.1392 
L 233.631818 173.03433 
L 234.995455 172.791701 
L 236.359091 172.802722 
L 237.722727 172.760533 
L 239.086364 171.885071 
L 240.45 170.54622 
L 241.813636 169.425373 
L 243.177273 168.672862 
L 244.540909 170.121576 
L 245.904545 175.284289 
L 247.268182 181.070709 
L 248.631818 184.037534 
L 249.995455 184.69327 
L 251.359091 184.458734 
L 252.722727 183.756849 
L 254.086364 182.95991 
L 255.45 182.205848 
L 256.813636 181.362243 
L 258.177273 180.437704 
L 259.540909 179.657468 
L 260.904545 178.9499 
L 262.268182 178.258863 
L 263.631818 177.735893 
L 264.995455 177.252357 
L 266.359091 176.750223 
L 267.722727 176.377584 
L 269.086364 175.957761 
L 270.45 175.553437 
L 271.813636 175.400696 
L 273.177273 175.275335 
L 274.540909 175.069901 
" clip-path="url(#p72a65eee7c)" style="fill: none; stroke: #d22730; stroke-width: 2.5; stroke-linecap: square"/>
   </g>
  </g>
  <g id="axes_17">
   <g id="line2d_17">
    <path d="M 13.459091 225.319207 
L 14.822727 225.312944 
L 16.186364 225.246207 
L 17.55 225.166161 
L 18.913636 225.203933 
L 20.277273 225.151091 
L 21.640909 224.89471 
L 23.004545 224.829343 
L 24.368182 224.87416 
L 25.731818 224.775913 
L 27.095455 224.756538 
L 28.459091 224.756342 
L 29.822727 224.544192 
L 31.186364 224.189172 
L 32.55 223.645683 
L 33.913636 223.209052 
L 35.277273 223.913415 
L 36.640909 226.387593 
L 38.004545 229.406043 
L 39.368182 231.228307 
L 40.731818 231.824834 
L 42.095455 231.889615 
L 43.459091 231.565909 
L 44.822727 231.222827 
L 46.186364 231.00872 
L 47.55 230.612796 
L 48.913636 230.017052 
L 50.277273 229.441466 
L 51.640909 229.021275 
L 53.004545 228.67154 
L 54.368182 228.232756 
L 55.731818 227.841334 
L 57.095455 227.530936 
L 58.459091 227.252635 
L 59.822727 227.039115 
L 61.186364 226.838511 
L 62.55 226.669417 
L 63.913636 226.537116 
L 65.277273 226.351974 
L 66.640909 226.219086 
" clip-path="url(#p1eebdd7440)" style="fill: none; stroke: #1f77b4; stroke-width: 2.5; stroke-linecap: square"/>
   </g>
  </g>
  <g id="axes_18">
   <g id="line2d_18">
    <path d="M 82.759091 225.629639 
L 84.122727 225.63601 
L 85.486364 225.71746 
L 86.85 225.654952 
L 88.213636 225.550771 
L 89.577273 225.551977 
L 90.940909 225.576084 
L 92.304545 225.587622 
L 93.668182 225.519086 
L 95.031818 225.44969 
L 96.395455 225.391831 
L 97.759091 225.313136 
L 99.122727 225.209127 
L 100.486364 224.889697 
L 101.85 224.558902 
L 103.213636 224.566823 
L 104.577273 225.673549 
L 105.940909 228.507609 
L 107.304545 231.386612 
L 108.668182 232.215236 
L 110.031818 231.679007 
L 111.395455 231.038769 
L 112.759091 230.424706 
L 114.122727 229.724887 
L 115.486364 229.159384 
L 116.85 228.807408 
L 118.213636 228.424781 
L 119.577273 227.99101 
L 120.940909 227.745109 
L 122.304545 227.461497 
L 123.668182 227.113137 
L 125.031818 226.997764 
L 126.395455 226.98261 
L 127.759091 226.847433 
L 129.122727 226.807828 
L 130.486364 226.722072 
L 131.85 226.458607 
L 133.213636 226.251623 
L 134.577273 226.162596 
L 135.940909 226.111108 
" clip-path="url(#pa8360001f7)" style="fill: none; stroke: #d22730; stroke-width: 2.5; stroke-linecap: square"/>
   </g>
  </g>
  <g id="axes_19">
   <g id="line2d_19">
    <path d="M 152.059091 224.20522 
L 153.422727 224.162555 
L 154.786364 224.120282 
L 156.15 223.929659 
L 157.513636 223.801077 
L 158.877273 223.798729 
L 160.240909 223.716139 
L 161.604545 223.651946 
L 162.968182 223.594407 
L 164.331818 223.505358 
L 165.695455 223.480894 
L 167.059091 223.368556 
L 168.422727 222.960499 
L 169.786364 222.093695 
L 171.15 220.824118 
L 172.513636 219.654158 
L 173.877273 219.924044 
L 175.240909 223.811646 
L 176.604545 230.802049 
L 177.968182 236.453594 
L 179.331818 238.42499 
L 180.695455 238.387805 
L 182.059091 237.676787 
L 183.422727 236.531487 
L 184.786364 235.339803 
L 186.15 234.213878 
L 187.513636 233.076601 
L 188.877273 232.053425 
L 190.240909 231.167637 
L 191.604545 230.297702 
L 192.968182 229.482761 
L 194.331818 228.926747 
L 195.695455 228.422987 
L 197.059091 227.912181 
L 198.422727 227.533285 
L 199.786364 227.135992 
L 201.15 226.644953 
L 202.513636 226.378003 
L 203.877273 226.349234 
L 205.240909 226.270949 
" clip-path="url(#pb6934a9b5b)" style="fill: none; stroke: #1f77b4; stroke-width: 2.5; stroke-linecap: square"/>
   </g>
  </g>
  <g id="axes_20">
   <g id="line2d_20">
    <path d="M 221.359091 224.47969 
L 222.722727 224.452999 
L 224.086364 224.416665 
L 225.45 224.381364 
L 226.813636 224.324366 
L 228.177273 224.290787 
L 229.540909 224.185229 
L 230.904545 224.059351 
L 232.268182 224.085181 
L 233.631818 224.055907 
L 234.995455 223.873376 
L 236.359091 223.957237 
L 237.722727 223.855295 
L 239.086364 222.609948 
L 240.45 221.049132 
L 241.813636 219.794486 
L 243.177273 219.979773 
L 244.540909 225.9179 
L 245.904545 235.93905 
L 247.268182 241.021519 
L 248.631818 240.083892 
L 249.995455 238.36603 
L 251.359091 236.882531 
L 252.722727 235.157265 
L 254.086364 233.823235 
L 255.45 232.803298 
L 256.813636 231.868082 
L 258.177273 231.08113 
L 259.540909 230.358926 
L 260.904545 229.666167 
L 262.268182 229.003888 
L 263.631818 228.331104 
L 264.995455 227.836547 
L 266.359091 227.597707 
L 267.722727 227.371953 
L 269.086364 226.939905 
L 270.45 226.531964 
L 271.813636 226.284513 
L 273.177273 226.016226 
L 274.540909 225.738813 
" clip-path="url(#p3c44a705ad)" style="fill: none; stroke: #d22730; stroke-width: 2.5; stroke-linecap: square"/>
   </g>
  </g>
  <g id="axes_21">
   <g id="line2d_21">
    <path d="M 13.459091 276.157536 
L 14.822727 276.225839 
L 16.186364 276.301775 
L 17.55 276.071032 
L 18.913636 276.028954 
L 20.277273 276.131115 
L 21.640909 275.964761 
L 23.004545 275.866709 
L 24.368182 275.935013 
L 25.731818 275.829524 
L 27.095455 275.776095 
L 28.459091 275.886281 
L 29.822727 275.804473 
L 31.186364 275.621679 
L 32.55 275.677457 
L 33.913636 276.191785 
L 35.277273 277.842607 
L 36.640909 280.779641 
L 38.004545 283.421543 
L 39.368182 284.505586 
L 40.731818 284.599331 
L 42.095455 284.284041 
L 43.459091 283.68086 
L 44.822727 283.161248 
L 46.186364 282.746927 
L 47.55 282.120261 
L 48.913636 281.396718 
L 50.277273 280.871625 
L 51.640909 280.424621 
L 53.004545 280.024393 
L 54.368182 279.679159 
L 55.731818 279.317289 
L 57.095455 278.926063 
L 58.459091 278.554995 
L 59.822727 278.299201 
L 61.186364 278.077069 
L 62.55 277.892709 
L 63.913636 277.835953 
L 65.277273 277.75669 
L 66.640909 277.529078 
" clip-path="url(#p94cf912f32)" style="fill: none; stroke: #1f77b4; stroke-width: 2.5; stroke-linecap: square"/>
   </g>
  </g>
  <g id="axes_22">
   <g id="line2d_22">
    <path d="M 82.759091 276.559605 
L 84.122727 276.485387 
L 85.486364 276.578892 
L 86.85 276.581819 
L 88.213636 276.529642 
L 89.577273 276.529815 
L 90.940909 276.478671 
L 92.304545 276.41668 
L 93.668182 276.45508 
L 95.031818 276.508462 
L 96.395455 276.546862 
L 97.759091 276.514317 
L 99.122727 276.29304 
L 100.486364 276.066426 
L 101.85 276.389644 
L 103.213636 277.398217 
L 104.577273 279.476665 
L 105.940909 282.828872 
L 107.304545 285.438039 
L 108.668182 285.618504 
L 110.031818 284.67244 
L 111.395455 283.777864 
L 112.759091 282.819057 
L 114.122727 281.931024 
L 115.486364 281.282693 
L 116.85 280.720117 
L 118.213636 280.156336 
L 119.577273 279.659196 
L 120.940909 279.30481 
L 122.304545 278.922182 
L 123.668182 278.626688 
L 125.031818 278.583294 
L 126.395455 278.443468 
L 127.759091 278.136092 
L 129.122727 277.990583 
L 130.486364 277.85489 
L 131.85 277.640157 
L 133.213636 277.45952 
L 134.577273 277.278194 
L 135.940909 277.124592 
" clip-path="url(#p3571e5f4a3)" style="fill: none; stroke: #d22730; stroke-width: 2.5; stroke-linecap: square"/>
   </g>
  </g>
  <g id="axes_23">
   <g id="line2d_23">
    <path d="M 152.059091 274.934343 
L 153.422727 274.877586 
L 154.786364 274.812806 
L 156.15 274.552119 
L 157.513636 274.437433 
L 158.877273 274.581867 
L 160.240909 274.560143 
L 161.604545 274.417861 
L 162.968182 274.393006 
L 164.331818 274.419427 
L 165.695455 274.409054 
L 167.059091 274.383221 
L 168.422727 274.273818 
L 169.786364 273.961659 
L 171.15 273.569063 
L 172.513636 273.797066 
L 173.877273 276.533497 
L 175.240909 282.93755 
L 176.604545 289.709148 
L 177.968182 292.406632 
L 179.331818 291.845529 
L 180.695455 290.639167 
L 182.059091 289.150002 
L 183.422727 287.46043 
L 184.786364 285.981638 
L 186.15 284.688967 
L 187.513636 283.503937 
L 188.877273 282.568439 
L 190.240909 281.831979 
L 191.604545 281.03524 
L 192.968182 280.238696 
L 194.331818 279.73885 
L 195.695455 279.341753 
L 197.059091 278.795915 
L 198.422727 278.287262 
L 199.786364 277.987825 
L 201.15 277.704631 
L 202.513636 277.387383 
L 203.877273 277.222595 
L 205.240909 277.202241 
" clip-path="url(#p7ed81e0ce1)" style="fill: none; stroke: #1f77b4; stroke-width: 2.5; stroke-linecap: square"/>
   </g>
  </g>
  <g id="axes_24">
   <g id="line2d_24">
    <path d="M 221.359091 275.35748 
L 222.722727 275.34801 
L 224.086364 275.390887 
L 225.45 275.331134 
L 226.813636 275.27448 
L 228.177273 275.296005 
L 229.540909 275.108136 
L 230.904545 274.888581 
L 232.268182 275.037878 
L 233.631818 275.153596 
L 234.995455 274.99259 
L 236.359091 275.07714 
L 237.722727 274.832272 
L 239.086364 273.663554 
L 240.45 272.672718 
L 241.813636 272.106871 
L 243.177273 275.022725 
L 244.540909 285.91727 
L 245.904545 297.199437 
L 247.268182 298.479913 
L 248.631818 294.293571 
L 249.995455 291.388393 
L 251.359091 289.083675 
L 252.722727 286.793594 
L 254.086364 285.223134 
L 255.45 283.929572 
L 256.813636 282.691113 
L 258.177273 281.763302 
L 259.540909 281.129608 
L 260.904545 280.522777 
L 262.268182 279.866524 
L 263.631818 279.332878 
L 264.995455 278.984519 
L 266.359091 278.635815 
L 267.722727 278.258353 
L 269.086364 277.885886 
L 270.45 277.33898 
L 271.813636 276.858544 
L 273.177273 276.629863 
L 274.540909 276.303028 
" clip-path="url(#peeaac3d19c)" style="fill: none; stroke: #d22730; stroke-width: 2.5; stroke-linecap: square"/>
   </g>
  </g>
  <g id="axes_25">
   <g id="line2d_25">
    <path d="M 13.459091 327.251855 
L 14.822727 327.398834 
L 16.186364 327.396485 
L 17.55 327.296673 
L 18.913636 327.179442 
L 20.277273 326.918755 
L 21.640909 326.705626 
L 23.004545 326.838513 
L 24.368182 326.941457 
L 25.731818 326.786258 
L 27.095455 326.827358 
L 28.459091 327.072975 
L 29.822727 327.084326 
L 31.186364 327.201948 
L 32.55 327.878717 
L 33.913636 329.011883 
L 35.277273 330.979561 
L 36.640909 333.779989 
L 38.004545 335.933592 
L 39.368182 336.713696 
L 40.731818 336.838364 
L 42.095455 336.478255 
L 43.459091 335.700696 
L 44.822727 334.948187 
L 46.186364 334.327979 
L 47.55 333.759831 
L 48.913636 333.244719 
L 50.277273 332.658174 
L 51.640909 331.965161 
L 53.004545 331.457683 
L 54.368182 331.112449 
L 55.731818 330.714568 
L 57.095455 330.315709 
L 58.459091 329.958341 
L 59.822727 329.645791 
L 61.186364 329.431292 
L 62.55 329.336763 
L 63.913636 329.221098 
L 65.277273 328.937317 
L 66.640909 328.663909 
" clip-path="url(#paea8628937)" style="fill: none; stroke: #1f77b4; stroke-width: 2.5; stroke-linecap: square"/>
   </g>
  </g>
  <g id="axes_26">
   <g id="line2d_26">
    <path d="M 82.759091 327.528661 
L 84.122727 327.424825 
L 85.486364 327.445661 
L 86.85 327.550875 
L 88.213636 327.478551 
L 89.577273 327.409327 
L 90.940909 327.397445 
L 92.304545 327.324088 
L 93.668182 327.411566 
L 95.031818 327.581182 
L 96.395455 327.536927 
L 97.759091 327.446522 
L 99.122727 327.268296 
L 100.486364 327.053735 
L 101.85 327.792471 
L 103.213636 329.731437 
L 104.577273 332.577206 
L 105.940909 335.922526 
L 107.304545 338.085179 
L 108.668182 338.157331 
L 110.031818 337.379506 
L 111.395455 336.574818 
L 112.759091 335.533011 
L 114.122727 334.398388 
L 115.486364 333.57648 
L 116.85 332.933831 
L 118.213636 332.181147 
L 119.577273 331.542804 
L 120.940909 331.23956 
L 122.304545 330.908937 
L 123.668182 330.494625 
L 125.031818 330.265772 
L 126.395455 330.051556 
L 127.759091 329.669445 
L 129.122727 329.467628 
L 130.486364 329.370851 
L 131.85 329.051594 
L 133.213636 328.747317 
L 134.577273 328.606458 
L 135.940909 328.419105 
" clip-path="url(#p05f0292955)" style="fill: none; stroke: #d22730; stroke-width: 2.5; stroke-linecap: square"/>
   </g>
  </g>
  <g id="axes_27">
   <g id="line2d_27">
    <path d="M 152.059091 326.003806 
L 153.422727 325.807312 
L 154.786364 325.748795 
L 156.15 325.627258 
L 157.513636 325.569719 
L 158.877273 325.659942 
L 160.240909 325.624518 
L 161.604545 325.489869 
L 162.968182 325.541537 
L 164.331818 325.844106 
L 165.695455 326.194037 
L 167.059091 326.508936 
L 168.422727 326.885092 
L 169.786364 327.536027 
L 171.15 328.794448 
L 172.513636 330.939636 
L 173.877273 334.545806 
L 175.240909 339.287099 
L 176.604545 342.641976 
L 177.968182 343.011086 
L 179.331818 341.832124 
L 180.695455 340.47663 
L 182.059091 338.9585 
L 183.422727 337.425496 
L 184.786364 336.14085 
L 186.15 334.967563 
L 187.513636 333.918356 
L 188.877273 333.104003 
L 190.240909 332.39142 
L 191.604545 331.705453 
L 192.968182 331.141805 
L 194.331818 330.673469 
L 195.695455 330.146615 
L 197.059091 329.731512 
L 198.422727 329.510163 
L 199.786364 329.161602 
L 201.15 328.708727 
L 202.513636 328.528673 
L 203.877273 328.416726 
L 205.240909 328.26642 
" clip-path="url(#p412f7c0671)" style="fill: none; stroke: #1f77b4; stroke-width: 2.5; stroke-linecap: square"/>
   </g>
  </g>
  <g id="axes_28">
   <g id="line2d_28">
    <path d="M 221.359091 325.899137 
L 222.722727 325.945459 
L 224.086364 325.936677 
L 225.45 325.818892 
L 226.813636 325.73262 
L 228.177273 325.832152 
L 229.540909 325.796506 
L 230.904545 325.629989 
L 232.268182 325.760517 
L 233.631818 325.852127 
L 234.995455 325.805633 
L 236.359091 325.973355 
L 237.722727 325.714884 
L 239.086364 325.68871 
L 240.45 327.56775 
L 241.813636 330.441416 
L 243.177273 335.847275 
L 244.540909 345.813493 
L 245.904545 352.581278 
L 247.268182 350.662975 
L 248.631818 346.118458 
L 249.995455 343.036432 
L 251.359091 340.307586 
L 252.722727 338.053839 
L 254.086364 336.473564 
L 255.45 334.92153 
L 256.813636 333.715445 
L 258.177273 332.944508 
L 259.540909 332.205083 
L 260.904545 331.614611 
L 262.268182 331.20667 
L 263.631818 330.718829 
L 264.995455 330.194482 
L 266.359091 329.703541 
L 267.722727 329.346055 
L 269.086364 329.061581 
L 270.45 328.607319 
L 271.813636 328.160806 
L 273.177273 327.724796 
L 274.540909 327.153955 
" clip-path="url(#pdf3ad99e55)" style="fill: none; stroke: #d22730; stroke-width: 2.5; stroke-linecap: square"/>
   </g>
  </g>
  <g id="axes_29">
   <g id="line2d_29">
    <path d="M 13.459091 378.626627 
L 14.822727 378.550496 
L 16.186364 378.514094 
L 17.55 378.416629 
L 18.913636 378.159661 
L 20.277273 378.018945 
L 21.640909 378.024425 
L 23.004545 377.97765 
L 24.368182 377.961406 
L 25.731818 378.016205 
L 27.095455 378.092336 
L 28.459091 378.391774 
L 29.822727 378.802376 
L 31.186364 379.181272 
L 32.55 380.153564 
L 33.913636 381.879147 
L 35.277273 383.741924 
L 36.640909 385.404097 
L 38.004545 386.768398 
L 39.368182 387.605649 
L 40.731818 387.840698 
L 42.095455 387.664167 
L 43.459091 387.202093 
L 44.822727 386.681307 
L 46.186364 386.285579 
L 47.55 385.716452 
L 48.913636 384.89564 
L 50.277273 384.215153 
L 51.640909 383.596902 
L 53.004545 382.87649 
L 54.368182 382.432814 
L 55.731818 382.238473 
L 57.095455 381.772485 
L 58.459091 381.219797 
L 59.822727 381.071057 
L 61.186364 380.987097 
L 62.55 380.694313 
L 63.913636 380.483141 
L 65.277273 380.293889 
L 66.640909 380.009129 
" clip-path="url(#p6978e39862)" style="fill: none; stroke: #1f77b4; stroke-width: 2.5; stroke-linecap: square"/>
   </g>
  </g>
  <g id="axes_30">
   <g id="line2d_30">
    <path d="M 82.759091 378.468443 
L 84.122727 378.401458 
L 85.486364 378.471026 
L 86.85 378.428493 
L 88.213636 378.33826 
L 89.577273 378.391987 
L 90.940909 378.387682 
L 92.304545 378.218582 
L 93.668182 378.266625 
L 95.031818 378.474642 
L 96.395455 378.442786 
L 97.759091 378.2897 
L 99.122727 378.120772 
L 100.486364 378.229086 
L 101.85 379.575169 
L 103.213636 382.116834 
L 104.577273 384.941939 
L 105.940909 387.248551 
L 107.304545 388.542286 
L 108.668182 389.15015 
L 110.031818 389.437035 
L 111.395455 389.130692 
L 112.759091 388.322904 
L 114.122727 387.434871 
L 115.486364 386.560442 
L 116.85 385.688768 
L 118.213636 384.82691 
L 119.577273 384.109699 
L 120.940909 383.575708 
L 122.304545 383.039479 
L 123.668182 382.52908 
L 125.031818 382.173316 
L 126.395455 381.799815 
L 127.759091 381.339526 
L 129.122727 381.105334 
L 130.486364 380.924697 
L 131.85 380.473362 
L 133.213636 380.1436 
L 134.577273 380.023749 
L 135.940909 379.765105 
" clip-path="url(#p10cf490e16)" style="fill: none; stroke: #d22730; stroke-width: 2.5; stroke-linecap: square"/>
   </g>
  </g>
  <g id="axes_31">
   <g id="line2d_31">
    <path d="M 152.059091 377.232187 
L 153.422727 377.020232 
L 154.786364 376.921985 
L 156.15 376.813561 
L 157.513636 376.750542 
L 158.877273 376.827848 
L 160.240909 376.800253 
L 161.604545 376.787923 
L 162.968182 376.963671 
L 164.331818 377.243147 
L 165.695455 377.634177 
L 167.059091 378.383946 
L 168.422727 379.515351 
L 169.786364 381.118028 
L 171.15 383.778718 
L 172.513636 387.393499 
L 173.877273 390.946435 
L 175.240909 393.326867 
L 176.604545 393.834737 
L 177.968182 392.892976 
L 179.331818 391.597957 
L 180.695455 390.415863 
L 182.059091 389.234356 
L 183.422727 387.929942 
L 184.786364 386.697159 
L 186.15 385.747374 
L 187.513636 384.946916 
L 188.877273 384.1537 
L 190.240909 383.396886 
L 191.604545 382.658664 
L 192.968182 382.030628 
L 194.331818 381.656233 
L 195.695455 381.23017 
L 197.059091 380.743045 
L 198.422727 380.512302 
L 199.786364 380.348688 
L 201.15 380.027526 
L 202.513636 379.730046 
L 203.877273 379.516721 
L 205.240909 379.372286 
" clip-path="url(#p91fb167831)" style="fill: none; stroke: #1f77b4; stroke-width: 2.5; stroke-linecap: square"/>
   </g>
  </g>
  <g id="axes_32">
   <g id="line2d_32">
    <path d="M 221.359091 376.118437 
L 222.722727 376.027343 
L 224.086364 375.977233 
L 225.45 375.988254 
L 226.813636 375.922646 
L 228.177273 375.772488 
L 229.540909 375.656425 
L 230.904545 375.690177 
L 232.268182 375.800212 
L 233.631818 375.752168 
L 234.995455 375.864959 
L 236.359091 376.045941 
L 237.722727 376.101217 
L 239.086364 378.604481 
L 240.45 385.361589 
L 241.813636 393.1147 
L 243.177273 399.733187 
L 244.540909 404.657232 
L 245.904545 404.566827 
L 247.268182 400.274583 
L 248.631818 396.392517 
L 249.995455 393.70035 
L 251.359091 391.230148 
L 252.722727 389.262597 
L 254.086364 387.793735 
L 255.45 386.455917 
L 256.813636 385.379326 
L 258.177273 384.627158 
L 259.540909 383.992087 
L 260.904545 383.386805 
L 262.268182 382.862975 
L 263.631818 382.342071 
L 264.995455 381.915361 
L 266.359091 381.537899 
L 267.722727 381.135641 
L 269.086364 380.717197 
L 270.45 380.152899 
L 271.813636 379.681072 
L 273.177273 379.32152 
L 274.540909 378.763077 
" clip-path="url(#p99389ea4cb)" style="fill: none; stroke: #d22730; stroke-width: 2.5; stroke-linecap: square"/>
   </g>
  </g>
  <g id="axes_33">
   <g id="line2d_33">
    <path d="M 13.459091 430.05659 
L 14.822727 429.892976 
L 16.186364 429.73856 
L 17.55 429.753238 
L 18.913636 429.663016 
L 20.277273 429.429141 
L 21.640909 429.354184 
L 23.004545 429.300168 
L 24.368182 429.299972 
L 25.731818 429.432077 
L 27.095455 429.503511 
L 28.459091 429.779072 
L 29.822727 430.314929 
L 31.186364 430.839826 
L 32.55 431.902536 
L 33.913636 433.557859 
L 35.277273 434.926661 
L 36.640909 435.872532 
L 38.004545 436.864787 
L 39.368182 437.927106 
L 40.731818 438.684311 
L 42.095455 438.867301 
L 43.459091 438.535571 
L 44.822727 438.106181 
L 46.186364 437.73844 
L 47.55 437.187318 
L 48.913636 436.458295 
L 50.277273 435.794248 
L 51.640909 435.194394 
L 53.004545 434.694744 
L 54.368182 434.241086 
L 55.731818 433.735565 
L 57.095455 433.322027 
L 58.459091 433.082673 
L 59.822727 432.895769 
L 61.186364 432.630385 
L 62.55 432.350714 
L 63.913636 432.088461 
L 65.277273 431.786871 
L 66.640909 431.513854 
" clip-path="url(#p8d8cfb0810)" style="fill: none; stroke: #1f77b4; stroke-width: 2.5; stroke-linecap: square"/>
   </g>
  </g>
  <g id="axes_34">
   <g id="line2d_34">
    <path d="M 82.759091 429.756585 
L 84.122727 429.581114 
L 85.486364 429.658776 
L 86.85 429.77105 
L 88.213636 429.682023 
L 89.577273 429.622097 
L 90.940909 429.628641 
L 92.304545 429.520499 
L 93.668182 429.489331 
L 95.031818 429.659637 
L 96.395455 429.723523 
L 97.759091 429.626402 
L 99.122727 429.563033 
L 100.486364 429.939461 
L 101.85 431.355113 
L 103.213636 433.604899 
L 104.577273 435.625833 
L 105.940909 436.667812 
L 107.304545 437.607677 
L 108.668182 439.295232 
L 110.031818 440.718461 
L 111.395455 441.04564 
L 112.759091 440.6761 
L 114.122727 439.924277 
L 115.486364 439.006453 
L 116.85 438.119798 
L 118.213636 437.175628 
L 119.577273 436.256772 
L 120.940909 435.576584 
L 122.304545 434.933591 
L 123.668182 434.33072 
L 125.031818 433.842879 
L 126.395455 433.366747 
L 127.759091 432.945892 
L 129.122727 432.657802 
L 130.486364 432.392098 
L 131.85 431.983297 
L 133.213636 431.534545 
L 134.577273 431.274868 
L 135.940909 430.985401 
" clip-path="url(#pcd9ff8f01b)" style="fill: none; stroke: #d22730; stroke-width: 2.5; stroke-linecap: square"/>
   </g>
  </g>
  <g id="axes_35">
   <g id="line2d_35">
    <path d="M 152.059091 428.342358 
L 153.422727 428.223366 
L 154.786364 428.141755 
L 156.15 428.087543 
L 157.513636 427.96992 
L 158.877273 427.873043 
L 160.240909 427.98499 
L 161.604545 428.175025 
L 162.968182 428.371519 
L 164.331818 428.710686 
L 165.695455 429.193897 
L 167.059091 430.00688 
L 168.422727 431.341824 
L 169.786364 433.510301 
L 171.15 436.972232 
L 172.513636 441.023448 
L 173.877273 444.003735 
L 175.240909 444.994815 
L 176.604545 444.542527 
L 177.968182 443.647541 
L 179.331818 442.624364 
L 180.695455 441.468495 
L 182.059091 440.357836 
L 183.422727 439.209404 
L 184.786364 438.018111 
L 186.15 437.042297 
L 187.513636 436.200935 
L 188.877273 435.352137 
L 190.240909 434.689851 
L 191.604545 434.167303 
L 192.968182 433.549443 
L 194.331818 433.079933 
L 195.695455 432.746246 
L 197.059091 432.319792 
L 198.422727 431.961249 
L 199.786364 431.752621 
L 201.15 431.439484 
L 202.513636 431.029274 
L 203.877273 430.715353 
L 205.240909 430.541562 
" clip-path="url(#p081bf66c29)" style="fill: none; stroke: #1f77b4; stroke-width: 2.5; stroke-linecap: square"/>
   </g>
  </g>
  <g id="axes_36">
   <g id="line2d_36">
    <path d="M 221.359091 427.61184 
L 222.722727 427.555703 
L 224.086364 427.506454 
L 225.45 427.444634 
L 226.813636 427.249705 
L 228.177273 427.053569 
L 229.540909 426.938196 
L 230.904545 426.937679 
L 232.268182 427.052881 
L 233.631818 427.113495 
L 234.995455 427.264342 
L 236.359091 427.339937 
L 237.722727 427.721015 
L 239.086364 431.174648 
L 240.45 438.571477 
L 241.813636 446.025477 
L 243.177273 450.78025 
L 244.540909 452.389626 
L 245.904545 450.776117 
L 247.268182 447.80292 
L 248.631818 445.469101 
L 249.995455 443.764153 
L 251.359091 442.201787 
L 252.722727 440.757722 
L 254.086364 439.450211 
L 255.45 438.251186 
L 256.813636 437.259145 
L 258.177273 436.48287 
L 259.540909 435.821624 
L 260.904545 435.166749 
L 262.268182 434.65015 
L 263.631818 434.226023 
L 264.995455 433.763839 
L 266.359091 433.318359 
L 267.722727 432.919201 
L 269.086364 432.507472 
L 270.45 432.042878 
L 271.813636 431.613929 
L 273.177273 431.229924 
L 274.540909 430.697655 
" clip-path="url(#pc64b389b07)" style="fill: none; stroke: #d22730; stroke-width: 2.5; stroke-linecap: square"/>
   </g>
  </g>
  <g id="axes_37">
   <g id="line2d_37">
    <path d="M 13.459091 481.833353 
L 14.822727 481.595369 
L 16.186364 481.507886 
L 17.55 481.479704 
L 18.913636 481.306304 
L 20.277273 481.187116 
L 21.640909 481.190834 
L 23.004545 481.176156 
L 24.368182 481.148952 
L 25.731818 481.172242 
L 27.095455 481.291234 
L 28.459091 481.59987 
L 29.822727 481.984051 
L 31.186364 482.340832 
L 32.55 483.067115 
L 33.913636 484.153311 
L 35.277273 485.023833 
L 36.640909 485.482971 
L 38.004545 486.094959 
L 39.368182 487.138098 
L 40.731818 488.10902 
L 42.095455 488.581271 
L 43.459091 488.721595 
L 44.822727 488.811231 
L 46.186364 488.737839 
L 47.55 488.316474 
L 48.913636 487.712118 
L 50.277273 487.216774 
L 51.640909 486.712623 
L 53.004545 486.171482 
L 54.368182 485.712931 
L 55.731818 485.323662 
L 57.095455 484.953768 
L 58.459091 484.63065 
L 59.822727 484.316729 
L 61.186364 483.970908 
L 62.55 483.69339 
L 63.913636 483.466952 
L 65.277273 483.168102 
L 66.640909 482.948318 
" clip-path="url(#p16d1bb1da5)" style="fill: none; stroke: #1f77b4; stroke-width: 2.5; stroke-linecap: square"/>
   </g>
  </g>
  <g id="axes_38">
   <g id="line2d_38">
    <path d="M 82.759091 481.587499 
L 84.122727 481.576651 
L 85.486364 481.58285 
L 86.85 481.536701 
L 88.213636 481.460416 
L 89.577273 481.471609 
L 90.940909 481.491068 
L 92.304545 481.359679 
L 93.668182 481.244134 
L 95.031818 481.312497 
L 96.395455 481.415128 
L 97.759091 481.378277 
L 99.122727 481.382582 
L 100.486364 481.810153 
L 101.85 482.950286 
L 103.213636 484.54847 
L 104.577273 485.667939 
L 105.940909 485.660362 
L 107.304545 485.91625 
L 108.668182 487.659254 
L 110.031818 489.509882 
L 111.395455 490.297006 
L 112.759091 490.501579 
L 114.122727 490.332651 
L 115.486364 489.744073 
L 116.85 489.009126 
L 118.213636 488.339958 
L 119.577273 487.696449 
L 120.940909 487.040024 
L 122.304545 486.440081 
L 123.668182 485.96636 
L 125.031818 485.514509 
L 126.395455 485.059041 
L 127.759091 484.692773 
L 129.122727 484.334254 
L 130.486364 483.914948 
L 131.85 483.605678 
L 133.213636 483.307428 
L 134.577273 482.910508 
L 135.940909 482.548373 
" clip-path="url(#pa38fc836be)" style="fill: none; stroke: #d22730; stroke-width: 2.5; stroke-linecap: square"/>
   </g>
  </g>
  <g id="axes_39">
   <g id="line2d_39">
    <path d="M 152.059091 480.634819 
L 153.422727 480.473162 
L 154.786364 480.280387 
L 156.15 480.200928 
L 157.513636 480.166092 
L 158.877273 480.075869 
L 160.240909 480.115598 
L 161.604545 480.242223 
L 162.968182 480.346929 
L 164.331818 480.616814 
L 165.695455 481.068711 
L 167.059091 481.700857 
L 168.422727 482.751433 
L 169.786364 484.36233 
L 171.15 486.850599 
L 172.513636 489.849869 
L 173.877273 491.851209 
L 175.240909 492.189397 
L 176.604545 491.812262 
L 177.968182 491.55001 
L 179.331818 491.356843 
L 180.695455 490.893008 
L 182.059091 490.225243 
L 183.422727 489.531252 
L 184.786364 488.757215 
L 186.15 487.993942 
L 187.513636 487.317174 
L 188.877273 486.636491 
L 190.240909 486.01276 
L 191.604545 485.570845 
L 192.968182 485.158286 
L 194.331818 484.755905 
L 195.695455 484.438266 
L 197.059091 483.980694 
L 198.422727 483.511966 
L 199.786364 483.36303 
L 201.15 483.139919 
L 202.513636 482.742626 
L 203.877273 482.516189 
L 205.240909 482.374494 
" clip-path="url(#p1454ea76e4)" style="fill: none; stroke: #1f77b4; stroke-width: 2.5; stroke-linecap: square"/>
   </g>
  </g>
  <g id="axes_40">
   <g id="line2d_40">
    <path d="M 221.359091 480.334748 
L 222.722727 480.323211 
L 224.086364 480.384686 
L 225.45 480.395707 
L 226.813636 480.283777 
L 228.177273 480.145845 
L 229.540909 480.026339 
L 230.904545 479.98966 
L 232.268182 480.022206 
L 233.631818 480.031677 
L 234.995455 480.076277 
L 236.359091 480.127248 
L 237.722727 480.529161 
L 239.086364 482.655136 
L 240.45 486.644827 
L 241.813636 490.424606 
L 243.177273 492.513041 
L 244.540909 492.814907 
L 245.904545 492.336537 
L 247.268182 492.211175 
L 248.631818 492.266796 
L 249.995455 491.97905 
L 251.359091 491.425773 
L 252.722727 490.852005 
L 254.086364 490.207118 
L 255.45 489.362651 
L 256.813636 488.543498 
L 258.177273 487.922719 
L 259.540909 487.322776 
L 260.904545 486.710435 
L 262.268182 486.131844 
L 263.631818 485.641248 
L 264.995455 485.331289 
L 266.359091 485.01117 
L 267.722727 484.54537 
L 269.086364 484.211303 
L 270.45 483.894973 
L 271.813636 483.505802 
L 273.177273 483.133334 
L 274.540909 482.626551 
" clip-path="url(#p9cb013c9d0)" style="fill: none; stroke: #d22730; stroke-width: 2.5; stroke-linecap: square"/>
   </g>
  </g>
  <g id="axes_41">
   <g id="line2d_41">
    <path d="M 13.459091 533.759052 
L 14.822727 533.594459 
L 16.186364 533.467051 
L 17.55 533.53418 
L 18.913636 533.375067 
L 20.277273 533.204799 
L 21.640909 533.303633 
L 23.004545 533.336708 
L 24.368182 533.281517 
L 25.731818 533.319485 
L 27.095455 533.382113 
L 28.459091 533.52733 
L 29.822727 533.800739 
L 31.186364 534.140297 
L 32.55 534.716666 
L 33.913636 535.417115 
L 35.277273 535.782703 
L 36.640909 535.720467 
L 38.004545 535.697373 
L 39.368182 536.053567 
L 40.731818 536.655378 
L 42.095455 537.183015 
L 43.459091 537.62219 
L 44.822727 538.036315 
L 46.186364 538.256294 
L 47.55 538.134366 
L 48.913636 537.864285 
L 50.277273 537.622386 
L 51.640909 537.355828 
L 53.004545 537.097098 
L 54.368182 536.830148 
L 55.731818 536.546759 
L 57.095455 536.379426 
L 58.459091 536.230881 
L 59.822727 535.968824 
L 61.186364 535.633376 
L 62.55 535.345876 
L 63.913636 535.20653 
L 65.277273 535.064248 
L 66.640909 534.792014 
" clip-path="url(#p878ed0c41d)" style="fill: none; stroke: #1f77b4; stroke-width: 2.5; stroke-linecap: square"/>
   </g>
  </g>
  <g id="axes_42">
   <g id="line2d_42">
    <path d="M 82.759091 533.603873 
L 84.122727 533.54808 
L 85.486364 533.547563 
L 86.85 533.508646 
L 88.213636 533.428746 
L 89.577273 533.431501 
L 90.940909 533.512951 
L 92.304545 533.458709 
L 93.668182 533.263607 
L 95.031818 533.242598 
L 96.395455 533.461636 
L 97.759091 533.544464 
L 99.122727 533.458709 
L 100.486364 533.749898 
L 101.85 534.593848 
L 103.213636 535.567291 
L 104.577273 536.087162 
L 105.940909 535.606209 
L 107.304545 535.114407 
L 108.668182 535.878973 
L 110.031818 537.102967 
L 111.395455 537.87597 
L 112.759091 538.368289 
L 114.122727 538.740584 
L 115.486364 538.862673 
L 116.85 538.709071 
L 118.213636 538.417021 
L 119.577273 538.190579 
L 120.940909 538.00357 
L 122.304545 537.646428 
L 123.668182 537.173224 
L 125.031818 536.811433 
L 126.395455 536.550034 
L 127.759091 536.246963 
L 129.122727 535.935971 
L 130.486364 535.711422 
L 131.85 535.414895 
L 133.213636 535.063091 
L 134.577273 534.88917 
L 135.940909 534.640686 
" clip-path="url(#p0f2e119568)" style="fill: none; stroke: #d22730; stroke-width: 2.5; stroke-linecap: square"/>
   </g>
  </g>
  <g id="axes_43">
   <g id="line2d_43">
    <path d="M 152.059091 533.044316 
L 153.422727 532.859956 
L 154.786364 532.767189 
L 156.15 532.7028 
L 157.513636 532.621189 
L 158.877273 532.590658 
L 160.240909 532.586352 
L 161.604545 532.565215 
L 162.968182 532.602596 
L 164.331818 532.825902 
L 165.695455 533.127297 
L 167.059091 533.515001 
L 168.422727 534.208404 
L 169.786364 535.202812 
L 171.15 536.570635 
L 172.513636 538.16842 
L 173.877273 539.172808 
L 175.240909 539.208232 
L 176.604545 539.039529 
L 177.968182 539.146387 
L 179.331818 539.283776 
L 180.695455 539.325854 
L 182.059091 539.314698 
L 183.422727 539.101374 
L 184.786364 538.680986 
L 186.15 538.217347 
L 187.513636 537.859979 
L 188.877273 537.533142 
L 190.240909 537.131934 
L 191.604545 536.754799 
L 192.968182 536.388233 
L 194.331818 536.050631 
L 195.695455 535.851985 
L 197.059091 535.597561 
L 198.422727 535.255067 
L 199.786364 535.072468 
L 201.15 534.856012 
L 202.513636 534.525065 
L 203.877273 534.335225 
L 205.240909 534.267509 
" clip-path="url(#p9cc7dff42d)" style="fill: none; stroke: #1f77b4; stroke-width: 2.5; stroke-linecap: square"/>
   </g>
  </g>
  <g id="axes_44">
   <g id="line2d_44">
    <path d="M 221.359091 533.051629 
L 222.722727 532.906637 
L 224.086364 532.88649 
L 225.45 532.979133 
L 226.813636 532.915764 
L 228.177273 532.843956 
L 229.540909 532.865826 
L 230.904545 532.778693 
L 232.268182 532.695693 
L 233.631818 532.76044 
L 234.995455 532.847745 
L 236.359091 532.873058 
L 237.722727 533.097262 
L 239.086364 534.133558 
L 240.45 536.048072 
L 241.813636 537.837742 
L 243.177273 538.538594 
L 244.540909 538.174908 
L 245.904545 537.874765 
L 247.268182 538.318695 
L 248.631818 538.955489 
L 249.995455 539.314697 
L 251.359091 539.513071 
L 252.722727 539.564386 
L 254.086364 539.448668 
L 255.45 539.18968 
L 256.813636 538.776918 
L 258.177273 538.341942 
L 259.540909 538.041109 
L 260.904545 537.744754 
L 262.268182 537.357305 
L 263.631818 536.984149 
L 264.995455 536.649393 
L 266.359091 536.284675 
L 267.722727 535.931838 
L 269.086364 535.69403 
L 270.45 535.515632 
L 271.813636 535.220826 
L 273.177273 534.804792 
L 274.540909 534.393924 
" clip-path="url(#p1c73809ede)" style="fill: none; stroke: #d22730; stroke-width: 2.5; stroke-linecap: square"/>
   </g>
  </g>
 </g>
 <defs>
  <clipPath id="pa5ad02d59e">
   <rect x="10.8" y="10.8" width="58.5" height="40.581818"/>
  </clipPath>
  <clipPath id="p6e636ac0d3">
   <rect x="80.1" y="10.8" width="58.5" height="40.581818"/>
  </clipPath>
  <clipPath id="p731a8f104a">
   <rect x="149.4" y="10.8" width="58.5" height="40.581818"/>
  </clipPath>
  <clipPath id="p9cd960ba77">
   <rect x="218.7" y="10.8" width="58.5" height="40.581818"/>
  </clipPath>
  <clipPath id="p0483b4d2f0">
   <rect x="10.8" y="62.181818" width="58.5" height="40.581818"/>
  </clipPath>
  <clipPath id="p7e4d3d272e">
   <rect x="80.1" y="62.181818" width="58.5" height="40.581818"/>
  </clipPath>
  <clipPath id="p75a54095be">
   <rect x="149.4" y="62.181818" width="58.5" height="40.581818"/>
  </clipPath>
  <clipPath id="pc8cbb49cc9">
   <rect x="218.7" y="62.181818" width="58.5" height="40.581818"/>
  </clipPath>
  <clipPath id="p0cbc6afc71">
   <rect x="10.8" y="113.563636" width="58.5" height="40.581818"/>
  </clipPath>
  <clipPath id="p39d5178a2c">
   <rect x="80.1" y="113.563636" width="58.5" height="40.581818"/>
  </clipPath>
  <clipPath id="p8735d88ccd">
   <rect x="149.4" y="113.563636" width="58.5" height="40.581818"/>
  </clipPath>
  <clipPath id="p8c40bd06b1">
   <rect x="218.7" y="113.563636" width="58.5" height="40.581818"/>
  </clipPath>
  <clipPath id="p3c3552b0a1">
   <rect x="10.8" y="164.945455" width="58.5" height="40.581818"/>
  </clipPath>
  <clipPath id="pa92ca9b07c">
   <rect x="80.1" y="164.945455" width="58.5" height="40.581818"/>
  </clipPath>
  <clipPath id="p40f939632f">
   <rect x="149.4" y="164.945455" width="58.5" height="40.581818"/>
  </clipPath>
  <clipPath id="p72a65eee7c">
   <rect x="218.7" y="164.945455" width="58.5" height="40.581818"/>
  </clipPath>
  <clipPath id="p1eebdd7440">
   <rect x="10.8" y="216.327273" width="58.5" height="40.581818"/>
  </clipPath>
  <clipPath id="pa8360001f7">
   <rect x="80.1" y="216.327273" width="58.5" height="40.581818"/>
  </clipPath>
  <clipPath id="pb6934a9b5b">
   <rect x="149.4" y="216.327273" width="58.5" height="40.581818"/>
  </clipPath>
  <clipPath id="p3c44a705ad">
   <rect x="218.7" y="216.327273" width="58.5" height="40.581818"/>
  </clipPath>
  <clipPath id="p94cf912f32">
   <rect x="10.8" y="267.709091" width="58.5" height="40.581818"/>
  </clipPath>
  <clipPath id="p3571e5f4a3">
   <rect x="80.1" y="267.709091" width="58.5" height="40.581818"/>
  </clipPath>
  <clipPath id="p7ed81e0ce1">
   <rect x="149.4" y="267.709091" width="58.5" height="40.581818"/>
  </clipPath>
  <clipPath id="peeaac3d19c">
   <rect x="218.7" y="267.709091" width="58.5" height="40.581818"/>
  </clipPath>
  <clipPath id="paea8628937">
   <rect x="10.8" y="319.090909" width="58.5" height="40.581818"/>
  </clipPath>
  <clipPath id="p05f0292955">
   <rect x="80.1" y="319.090909" width="58.5" height="40.581818"/>
  </clipPath>
  <clipPath id="p412f7c0671">
   <rect x="149.4" y="319.090909" width="58.5" height="40.581818"/>
  </clipPath>
  <clipPath id="pdf3ad99e55">
   <rect x="218.7" y="319.090909" width="58.5" height="40.581818"/>
  </clipPath>
  <clipPath id="p6978e39862">
   <rect x="10.8" y="370.472727" width="58.5" height="40.581818"/>
  </clipPath>
  <clipPath id="p10cf490e16">
   <rect x="80.1" y="370.472727" width="58.5" height="40.581818"/>
  </clipPath>
  <clipPath id="p91fb167831">
   <rect x="149.4" y="370.472727" width="58.5" height="40.581818"/>
  </clipPath>
  <clipPath id="p99389ea4cb">
   <rect x="218.7" y="370.472727" width="58.5" height="40.581818"/>
  </clipPath>
  <clipPath id="p8d8cfb0810">
   <rect x="10.8" y="421.854545" width="58.5" height="40.581818"/>
  </clipPath>
  <clipPath id="pcd9ff8f01b">
   <rect x="80.1" y="421.854545" width="58.5" height="40.581818"/>
  </clipPath>
  <clipPath id="p081bf66c29">
   <rect x="149.4" y="421.854545" width="58.5" height="40.581818"/>
  </clipPath>
  <clipPath id="pc64b389b07">
   <rect x="218.7" y="421.854545" width="58.5" height="40.581818"/>
  </clipPath>
  <clipPath id="p16d1bb1da5">
   <rect x="10.8" y="473.236364" width="58.5" height="40.581818"/>
  </clipPath>
  <clipPath id="pa38fc836be">
   <rect x="80.1" y="473.236364" width="58.5" height="40.581818"/>
  </clipPath>
  <clipPath id="p1454ea76e4">
   <rect x="149.4" y="473.236364" width="58.5" height="40.581818"/>
  </clipPath>
  <clipPath id="p9cb013c9d0">
   <rect x="218.7" y="473.236364" width="58.5" height="40.581818"/>
  </clipPath>
  <clipPath id="p878ed0c41d">
   <rect x="10.8" y="524.618182" width="58.5" height="40.581818"/>
  </clipPath>
  <clipPath id="p0f2e119568">
   <rect x="80.1" y="524.618182" width="58.5" height="40.581818"/>
  </clipPath>
  <clipPath id="p9cc7dff42d">
   <rect x="149.4" y="524.618182" width="58.5" height="40.581818"/>
  </clipPath>
  <clipPath id="p1c73809ede">
   <rect x="218.7" y="524.618182" width="58.5" height="40.581818"/>
  </clipPath>
 </defs>
</svg>
