<?xml version="1.0" encoding="utf-8" standalone="no"?>
<!DOCTYPE svg PUBLIC "-//W3C//DTD SVG 1.1//EN"
  "http://www.w3.org/Graphics/SVG/1.1/DTD/svg11.dtd">
<svg xmlns:xlink="http://www.w3.org/1999/xlink" width="288pt" height="720pt" viewBox="0 0 288 720" xmlns="http://www.w3.org/2000/svg" version="1.1">
 <metadata>
  <rdf:RDF xmlns:dc="http://purl.org/dc/elements/1.1/" xmlns:cc="http://creativecommons.org/ns#" xmlns:rdf="http://www.w3.org/1999/02/22-rdf-syntax-ns#">
   <cc:Work>
    <dc:type rdf:resource="http://purl.org/dc/dcmitype/StillImage"/>
    <dc:date>2023-08-04T07:38:07.563345</dc:date>
    <dc:format>image/svg+xml</dc:format>
    <dc:creator>
     <cc:Agent>
      <dc:title>Matplotlib v3.5.2, https://matplotlib.org/</dc:title>
     </cc:Agent>
    </dc:creator>
   </cc:Work>
  </rdf:RDF>
 </metadata>
 <defs>
  <style type="text/css">*{stroke-linejoin: round; stroke-linecap: butt}</style>
 </defs>
 <g id="figure_1">
  <g id="patch_1">
   <path d="M 0 720 
L 288 720 
L 288 0 
L 0 0 
L 0 720 
z
" style="fill: none"/>
  </g>
  <g id="axes_1">
   <g id="line2d_1">
    <path d="M 46.145455 110.926452 
L 49.584592 117.313548 
L 53.023729 119.868387 
L 56.462866 122.934194 
L 59.902003 120.123871 
L 63.34114 109.904516 
L 66.780277 110.670968 
L 70.219414 119.868387 
L 73.658552 118.335484 
L 77.097689 112.714839 
L 80.536826 118.08 
L 83.975963 124.722581 
L 87.4151 118.590968 
L 90.854237 118.335484 
L 94.293374 133.153548 
L 97.732512 134.430968 
L 101.171649 127.532903 
L 104.610786 131.620645 
L 108.049923 134.430968 
L 111.48906 136.219355 
L 114.928197 142.861935 
L 118.367334 140.562581 
L 121.806471 131.365161 
L 125.245609 122.67871 
L 128.684746 110.926452 
L 132.123883 102.24 
L 135.56302 106.327742 
L 139.002157 120.123871 
L 142.441294 138.007742 
L 145.880431 152.825806 
L 149.319569 155.636129 
L 152.758706 155.891613 
L 156.197843 164.322581 
L 159.63698 163.045161 
L 163.076117 146.183226 
L 166.515254 139.796129 
L 169.954391 143.372903 
L 173.393529 140.818065 
L 176.832666 140.562581 
L 180.271803 140.562581 
L 183.71094 132.898065 
L 187.150077 125.744516 
L 190.589214 115.780645 
L 194.028351 105.816774 
L 197.467488 113.225806 
L 200.906626 124.978065 
L 204.345763 120.123871 
L 207.7849 111.181935 
L 211.224037 110.415484 
L 214.663174 108.116129 
L 218.102311 105.305806 
L 221.541448 110.415484 
L 224.980586 115.780645 
L 228.419723 114.75871 
L 231.85886 114.75871 
L 235.297997 117.058065 
L 238.737134 115.525161 
L 242.176271 110.16 
L 245.615408 106.583226 
L 249.054545 109.138065 
" clip-path="url(#p3b5be8abad)" style="fill: none; stroke: #1f77b4; stroke-width: 1.5; stroke-linecap: square"/>
   </g>
   <g id="line2d_2">
    <path d="M 97.732512 134.430968 
L 101.171649 127.532903 
L 104.610786 131.620645 
L 108.049923 134.430968 
L 111.48906 136.219355 
L 114.928197 142.861935 
L 118.367334 140.562581 
L 121.806471 131.365161 
L 125.245609 122.67871 
L 128.684746 110.926452 
L 132.123883 102.24 
L 135.56302 106.327742 
L 139.002157 120.123871 
L 142.441294 138.007742 
L 145.880431 152.825806 
L 149.319569 155.636129 
L 152.758706 155.891613 
L 156.197843 164.322581 
L 159.63698 163.045161 
L 163.076117 146.183226 
L 166.515254 139.796129 
L 169.954391 143.372903 
L 173.393529 140.818065 
L 176.832666 140.562581 
L 180.271803 140.562581 
L 183.71094 132.898065 
L 187.150077 125.744516 
L 190.589214 115.780645 
L 194.028351 105.816774 
L 197.467488 113.225806 
" clip-path="url(#p3b5be8abad)" style="fill: none; stroke: #ff0000; stroke-width: 3; stroke-linecap: square"/>
   </g>
  </g>
  <g id="axes_2">
   <g id="line2d_3">
    <path d="M 46.145455 220.784516 
L 49.584592 218.229677 
L 53.023729 215.930323 
L 56.462866 219.251613 
L 59.902003 224.36129 
L 63.34114 219.251613 
L 66.780277 214.397419 
L 70.219414 217.974194 
L 73.658552 220.529032 
L 77.097689 216.952258 
L 80.536826 214.908387 
L 83.975963 221.295484 
L 87.4151 225.894194 
L 90.854237 221.550968 
L 94.293374 224.36129 
L 97.732512 225.383226 
L 101.171649 215.419355 
L 104.610786 216.44129 
L 108.049923 226.916129 
L 111.48906 226.660645 
L 114.928197 222.828387 
L 118.367334 217.207742 
L 121.806471 206.221935 
L 125.245609 201.87871 
L 128.684746 203.922581 
L 132.123883 202.134194 
L 135.56302 207.243871 
L 139.002157 221.806452 
L 142.441294 234.325161 
L 145.880431 240.967742 
L 149.319569 246.843871 
L 152.758706 249.39871 
L 156.197843 247.865806 
L 159.63698 245.566452 
L 163.076117 245.055484 
L 166.515254 240.712258 
L 169.954391 229.470968 
L 173.393529 224.616774 
L 176.832666 226.916129 
L 180.271803 221.550968 
L 183.71094 214.397419 
L 187.150077 215.419355 
L 190.589214 215.930323 
L 194.028351 214.397419 
L 197.467488 216.44129 
L 200.906626 215.930323 
L 204.345763 212.609032 
L 207.7849 214.397419 
L 211.224037 215.930323 
L 214.663174 213.12 
L 218.102311 215.930323 
L 221.541448 222.061935 
L 224.980586 214.397419 
L 228.419723 202.134194 
L 231.85886 204.433548 
L 235.297997 212.098065 
L 238.737134 210.054194 
L 242.176271 205.2 
L 245.615408 208.52129 
L 249.054545 216.696774 
" clip-path="url(#p6e55a1916d)" style="fill: none; stroke: #1f77b4; stroke-width: 1.5; stroke-linecap: square"/>
   </g>
   <g id="line2d_4">
    <path d="M 97.732512 225.383226 
L 101.171649 215.419355 
L 104.610786 216.44129 
L 108.049923 226.916129 
L 111.48906 226.660645 
L 114.928197 222.828387 
L 118.367334 217.207742 
L 121.806471 206.221935 
L 125.245609 201.87871 
L 128.684746 203.922581 
L 132.123883 202.134194 
L 135.56302 207.243871 
L 139.002157 221.806452 
L 142.441294 234.325161 
L 145.880431 240.967742 
L 149.319569 246.843871 
L 152.758706 249.39871 
L 156.197843 247.865806 
L 159.63698 245.566452 
L 163.076117 245.055484 
L 166.515254 240.712258 
L 169.954391 229.470968 
L 173.393529 224.616774 
L 176.832666 226.916129 
L 180.271803 221.550968 
L 183.71094 214.397419 
L 187.150077 215.419355 
L 190.589214 215.930323 
L 194.028351 214.397419 
L 197.467488 216.44129 
" clip-path="url(#p6e55a1916d)" style="fill: none; stroke: #ff0000; stroke-width: 3; stroke-linecap: square"/>
   </g>
  </g>
  <g id="axes_3">
   <g id="line2d_5">
    <path d="M 46.145455 311.992258 
L 49.584592 309.948387 
L 53.023729 305.605161 
L 56.462866 309.948387 
L 59.902003 307.138065 
L 63.34114 295.64129 
L 66.780277 296.407742 
L 70.219414 302.028387 
L 73.658552 299.473548 
L 77.097689 295.896774 
L 80.536826 297.685161 
L 83.975963 305.860645 
L 87.4151 310.714839 
L 90.854237 307.649032 
L 94.293374 313.525161 
L 97.732512 321.700645 
L 101.171649 322.722581 
L 104.610786 325.277419 
L 108.049923 325.277419 
L 111.48906 323.233548 
L 114.928197 330.131613 
L 118.367334 335.24129 
L 121.806471 332.430968 
L 125.245609 327.065806 
L 128.684746 318.123871 
L 132.123883 308.415484 
L 135.56302 305.094194 
L 139.002157 314.547097 
L 142.441294 333.197419 
L 145.880431 343.672258 
L 149.319569 345.460645 
L 152.758706 344.949677 
L 156.197843 345.971613 
L 159.63698 348.015484 
L 163.076117 340.606452 
L 166.515254 328.343226 
L 169.954391 324.510968 
L 173.393529 323.489032 
L 176.832666 322.211613 
L 180.271803 322.467097 
L 183.71094 318.123871 
L 187.150077 309.948387 
L 190.589214 303.56129 
L 194.028351 300.24 
L 197.467488 307.393548 
L 200.906626 319.912258 
L 204.345763 316.335484 
L 207.7849 304.83871 
L 211.224037 307.649032 
L 214.663174 310.970323 
L 218.102311 303.816774 
L 221.541448 306.116129 
L 224.980586 309.948387 
L 228.419723 302.028387 
L 231.85886 302.539355 
L 235.297997 304.072258 
L 238.737134 292.575484 
L 242.176271 288.99871 
L 245.615408 295.64129 
L 249.054545 297.685161 
" clip-path="url(#p0b11952ec5)" style="fill: none; stroke: #1f77b4; stroke-width: 1.5; stroke-linecap: square"/>
   </g>
   <g id="line2d_6">
    <path d="M 97.732512 321.700645 
L 101.171649 322.722581 
L 104.610786 325.277419 
L 108.049923 325.277419 
L 111.48906 323.233548 
L 114.928197 330.131613 
L 118.367334 335.24129 
L 121.806471 332.430968 
L 125.245609 327.065806 
L 128.684746 318.123871 
L 132.123883 308.415484 
L 135.56302 305.094194 
L 139.002157 314.547097 
L 142.441294 333.197419 
L 145.880431 343.672258 
L 149.319569 345.460645 
L 152.758706 344.949677 
L 156.197843 345.971613 
L 159.63698 348.015484 
L 163.076117 340.606452 
L 166.515254 328.343226 
L 169.954391 324.510968 
L 173.393529 323.489032 
L 176.832666 322.211613 
L 180.271803 322.467097 
L 183.71094 318.123871 
L 187.150077 309.948387 
L 190.589214 303.56129 
L 194.028351 300.24 
L 197.467488 307.393548 
" clip-path="url(#p0b11952ec5)" style="fill: none; stroke: #ff0000; stroke-width: 3; stroke-linecap: square"/>
   </g>
  </g>
  <g id="axes_4">
   <g id="line2d_7">
    <path d="M 46.145455 420.061935 
L 49.584592 415.463226 
L 53.023729 412.652903 
L 56.462866 409.587097 
L 59.902003 407.79871 
L 63.34114 408.309677 
L 66.780277 407.543226 
L 70.219414 403.2 
L 73.658552 402.433548 
L 77.097689 406.52129 
L 80.536826 403.455484 
L 83.975963 400.134194 
L 87.4151 405.499355 
L 90.854237 407.543226 
L 94.293374 408.309677 
L 97.732512 411.12 
L 101.171649 410.098065 
L 104.610786 406.010323 
L 108.049923 406.010323 
L 111.48906 409.842581 
L 114.928197 410.609032 
L 118.367334 402.178065 
L 121.806471 392.980645 
L 125.245609 393.747097 
L 128.684746 397.068387 
L 132.123883 396.046452 
L 135.56302 400.900645 
L 139.002157 411.375484 
L 142.441294 421.850323 
L 145.880431 431.303226 
L 149.319569 436.668387 
L 152.758706 436.668387 
L 156.197843 436.668387 
L 159.63698 436.157419 
L 163.076117 434.624516 
L 166.515254 431.55871 
L 169.954391 425.938065 
L 173.393529 422.105806 
L 176.832666 419.806452 
L 180.271803 412.397419 
L 183.71094 405.243871 
L 187.150077 403.710968 
L 190.589214 403.966452 
L 194.028351 404.732903 
L 197.467488 403.2 
L 200.906626 400.389677 
L 204.345763 405.754839 
L 207.7849 414.185806 
L 211.224037 411.630968 
L 214.663174 404.988387 
L 218.102311 405.243871 
L 221.541448 409.076129 
L 224.980586 408.054194 
L 228.419723 400.645161 
L 231.85886 394.769032 
L 235.297997 397.323871 
L 238.737134 399.112258 
L 242.176271 396.301935 
L 245.615408 399.367742 
L 249.054545 405.243871 
" clip-path="url(#pa53fad7389)" style="fill: none; stroke: #1f77b4; stroke-width: 1.5; stroke-linecap: square"/>
   </g>
   <g id="line2d_8">
    <path d="M 97.732512 411.12 
L 101.171649 410.098065 
L 104.610786 406.010323 
L 108.049923 406.010323 
L 111.48906 409.842581 
L 114.928197 410.609032 
L 118.367334 402.178065 
L 121.806471 392.980645 
L 125.245609 393.747097 
L 128.684746 397.068387 
L 132.123883 396.046452 
L 135.56302 400.900645 
L 139.002157 411.375484 
L 142.441294 421.850323 
L 145.880431 431.303226 
L 149.319569 436.668387 
L 152.758706 436.668387 
L 156.197843 436.668387 
L 159.63698 436.157419 
L 163.076117 434.624516 
L 166.515254 431.55871 
L 169.954391 425.938065 
L 173.393529 422.105806 
L 176.832666 419.806452 
L 180.271803 412.397419 
L 183.71094 405.243871 
L 187.150077 403.710968 
L 190.589214 403.966452 
L 194.028351 404.732903 
L 197.467488 403.2 
" clip-path="url(#pa53fad7389)" style="fill: none; stroke: #ff0000; stroke-width: 3; stroke-linecap: square"/>
   </g>
  </g>
  <g id="axes_5">
   <g id="line2d_9">
    <path d="M 46.145455 505.904516 
L 49.584592 507.181935 
L 53.023729 503.860645 
L 56.462866 504.116129 
L 59.902003 502.583226 
L 63.34114 490.575484 
L 66.780277 488.020645 
L 70.219414 493.896774 
L 73.658552 488.276129 
L 77.097689 483.421935 
L 80.536826 489.809032 
L 83.975963 495.174194 
L 87.4151 496.451613 
L 90.854237 497.729032 
L 94.293374 505.138065 
L 97.732512 513.824516 
L 101.171649 512.802581 
L 104.610786 508.970323 
L 108.049923 508.459355 
L 111.48906 507.181935 
L 114.928197 507.437419 
L 118.367334 508.714839 
L 121.806471 510.75871 
L 125.245609 512.036129 
L 128.684746 505.138065 
L 132.123883 495.940645 
L 135.56302 499.261935 
L 139.002157 510.75871 
L 142.441294 525.32129 
L 145.880431 539.117419 
L 149.319569 542.949677 
L 152.758706 535.029677 
L 156.197843 528.387097 
L 159.63698 527.620645 
L 163.076117 524.043871 
L 166.515254 518.423226 
L 169.954391 517.656774 
L 173.393529 513.058065 
L 176.832666 504.116129 
L 180.271803 504.371613 
L 183.71094 504.371613 
L 187.150077 495.174194 
L 190.589214 492.108387 
L 194.028351 496.196129 
L 197.467488 494.407742 
L 200.906626 499.772903 
L 204.345763 509.48129 
L 207.7849 502.583226 
L 211.224037 496.451613 
L 214.663174 503.605161 
L 218.102311 503.094194 
L 221.541448 497.984516 
L 224.980586 497.218065 
L 228.419723 492.108387 
L 231.85886 489.553548 
L 235.297997 490.064516 
L 238.737134 485.210323 
L 242.176271 486.232258 
L 245.615408 490.830968 
L 249.054545 489.809032 
" clip-path="url(#p26f88fad80)" style="fill: none; stroke: #1f77b4; stroke-width: 1.5; stroke-linecap: square"/>
   </g>
   <g id="line2d_10">
    <path d="M 97.732512 513.824516 
L 101.171649 512.802581 
L 104.610786 508.970323 
L 108.049923 508.459355 
L 111.48906 507.181935 
L 114.928197 507.437419 
L 118.367334 508.714839 
L 121.806471 510.75871 
L 125.245609 512.036129 
L 128.684746 505.138065 
L 132.123883 495.940645 
L 135.56302 499.261935 
L 139.002157 510.75871 
L 142.441294 525.32129 
L 145.880431 539.117419 
L 149.319569 542.949677 
L 152.758706 535.029677 
L 156.197843 528.387097 
L 159.63698 527.620645 
L 163.076117 524.043871 
L 166.515254 518.423226 
L 169.954391 517.656774 
L 173.393529 513.058065 
L 176.832666 504.116129 
L 180.271803 504.371613 
L 183.71094 504.371613 
L 187.150077 495.174194 
L 190.589214 492.108387 
L 194.028351 496.196129 
L 197.467488 494.407742 
" clip-path="url(#p26f88fad80)" style="fill: none; stroke: #ff0000; stroke-width: 3; stroke-linecap: square"/>
   </g>
  </g>
  <g id="axes_6">
   <g id="line2d_11">
    <path d="M 46.145455 614.740645 
L 49.584592 612.696774 
L 53.023729 600.689032 
L 56.462866 594.046452 
L 59.902003 596.090323 
L 63.34114 593.790968 
L 66.780277 592.769032 
L 70.219414 593.535484 
L 73.658552 590.214194 
L 77.097689 589.447742 
L 80.536826 591.236129 
L 83.975963 589.447742 
L 87.4151 591.236129 
L 90.854237 595.579355 
L 94.293374 595.579355 
L 97.732512 592.769032 
L 101.171649 596.345806 
L 104.610786 600.689032 
L 108.049923 595.323871 
L 111.48906 589.703226 
L 114.928197 593.535484 
L 118.367334 596.345806 
L 121.806471 592.002581 
L 125.245609 587.403871 
L 128.684746 586.637419 
L 132.123883 590.469677 
L 135.56302 600.689032 
L 139.002157 608.609032 
L 142.441294 613.207742 
L 145.880431 622.916129 
L 149.319569 628.536774 
L 152.758706 623.682581 
L 156.197843 623.171613 
L 159.63698 624.193548 
L 163.076117 618.317419 
L 166.515254 614.996129 
L 169.954391 612.44129 
L 173.393529 610.652903 
L 176.832666 610.141935 
L 180.271803 604.52129 
L 183.71094 600.944516 
L 187.150077 599.156129 
L 190.589214 597.87871 
L 194.028351 603.499355 
L 197.467488 600.689032 
L 200.906626 594.557419 
L 204.345763 600.689032 
L 207.7849 601.455484 
L 211.224037 595.323871 
L 214.663174 602.221935 
L 218.102311 606.820645 
L 221.541448 599.156129 
L 224.980586 596.345806 
L 228.419723 597.87871 
L 231.85886 593.790968 
L 235.297997 588.425806 
L 238.737134 583.827097 
L 242.176271 583.571613 
L 245.615408 589.703226 
L 249.054545 594.812903 
" clip-path="url(#p0bf8df4a67)" style="fill: none; stroke: #1f77b4; stroke-width: 1.5; stroke-linecap: square"/>
   </g>
   <g id="line2d_12">
    <path d="M 97.732512 592.769032 
L 101.171649 596.345806 
L 104.610786 600.689032 
L 108.049923 595.323871 
L 111.48906 589.703226 
L 114.928197 593.535484 
L 118.367334 596.345806 
L 121.806471 592.002581 
L 125.245609 587.403871 
L 128.684746 586.637419 
L 132.123883 590.469677 
L 135.56302 600.689032 
L 139.002157 608.609032 
L 142.441294 613.207742 
L 145.880431 622.916129 
L 149.319569 628.536774 
L 152.758706 623.682581 
L 156.197843 623.171613 
L 159.63698 624.193548 
L 163.076117 618.317419 
L 166.515254 614.996129 
L 169.954391 612.44129 
L 173.393529 610.652903 
L 176.832666 610.141935 
L 180.271803 604.52129 
L 183.71094 600.944516 
L 187.150077 599.156129 
L 190.589214 597.87871 
L 194.028351 603.499355 
L 197.467488 600.689032 
" clip-path="url(#p0bf8df4a67)" style="fill: none; stroke: #ff0000; stroke-width: 3; stroke-linecap: square"/>
   </g>
  </g>
 </g>
 <defs>
  <clipPath id="p3b5be8abad">
   <rect x="36" y="86.4" width="223.2" height="79.2"/>
  </clipPath>
  <clipPath id="p6e55a1916d">
   <rect x="36" y="181.44" width="223.2" height="79.2"/>
  </clipPath>
  <clipPath id="p0b11952ec5">
   <rect x="36" y="276.48" width="223.2" height="79.2"/>
  </clipPath>
  <clipPath id="pa53fad7389">
   <rect x="36" y="371.52" width="223.2" height="79.2"/>
  </clipPath>
  <clipPath id="p26f88fad80">
   <rect x="36" y="466.56" width="223.2" height="79.2"/>
  </clipPath>
  <clipPath id="p0bf8df4a67">
   <rect x="36" y="561.6" width="223.2" height="79.2"/>
  </clipPath>
 </defs>
</svg>
