<?xml version="1.0" encoding="utf-8" standalone="no"?>
<!DOCTYPE svg PUBLIC "-//W3C//DTD SVG 1.1//EN"
  "http://www.w3.org/Graphics/SVG/1.1/DTD/svg11.dtd">
<svg xmlns:xlink="http://www.w3.org/1999/xlink" width="288pt" height="720pt" viewBox="0 0 288 720" xmlns="http://www.w3.org/2000/svg" version="1.1">
 <metadata>
  <rdf:RDF xmlns:dc="http://purl.org/dc/elements/1.1/" xmlns:cc="http://creativecommons.org/ns#" xmlns:rdf="http://www.w3.org/1999/02/22-rdf-syntax-ns#">
   <cc:Work>
    <dc:type rdf:resource="http://purl.org/dc/dcmitype/StillImage"/>
    <dc:date>2023-08-04T07:37:35.273181</dc:date>
    <dc:format>image/svg+xml</dc:format>
    <dc:creator>
     <cc:Agent>
      <dc:title>Matplotlib v3.5.2, https://matplotlib.org/</dc:title>
     </cc:Agent>
    </dc:creator>
   </cc:Work>
  </rdf:RDF>
 </metadata>
 <defs>
  <style type="text/css">*{stroke-linejoin: round; stroke-linecap: butt}</style>
 </defs>
 <g id="figure_1">
  <g id="patch_1">
   <path d="M 0 720 
L 288 720 
L 288 0 
L 0 0 
L 0 720 
z
" style="fill: none"/>
  </g>
  <g id="axes_1">
   <g id="line2d_1">
    <path d="M 46.145455 139.540645 
L 49.584592 138.263226 
L 53.023729 138.263226 
L 56.462866 139.540645 
L 59.902003 135.708387 
L 63.34114 131.876129 
L 66.780277 135.963871 
L 70.219414 136.985806 
L 73.658552 132.387097 
L 77.097689 131.365161 
L 80.536826 129.832258 
L 83.975963 124.467097 
L 87.4151 121.912258 
L 90.854237 120.634839 
L 94.293374 119.612903 
L 97.732512 120.890323 
L 101.171649 120.890323 
L 104.610786 124.467097 
L 108.049923 130.854194 
L 111.48906 130.343226 
L 114.928197 123.445161 
L 118.367334 112.970323 
L 121.806471 100.196129 
L 125.245609 98.91871 
L 128.684746 107.094194 
L 132.123883 109.393548 
L 135.56302 116.802581 
L 139.002157 134.941935 
L 142.441294 143.883871 
L 145.880431 149.504516 
L 149.319569 159.468387 
L 152.758706 158.701935 
L 156.197843 151.037419 
L 159.63698 146.694194 
L 163.076117 139.540645 
L 166.515254 134.686452 
L 169.954391 134.686452 
L 173.393529 128.299355 
L 176.832666 124.467097 
L 180.271803 129.065806 
L 183.71094 130.087742 
L 187.150077 128.043871 
L 190.589214 126.510968 
L 194.028351 121.145806 
L 197.467488 117.313548 
L 200.906626 119.101935 
L 204.345763 123.189677 
L 207.7849 127.788387 
L 211.224037 122.67871 
L 214.663174 111.692903 
L 218.102311 106.583226 
L 221.541448 104.794839 
L 224.980586 104.539355 
L 228.419723 101.984516 
L 231.85886 101.729032 
L 235.297997 109.393548 
L 238.737134 113.992258 
L 242.176271 109.649032 
L 245.615408 106.583226 
L 249.054545 104.539355 
" clip-path="url(#p8fd534cc1c)" style="fill: none; stroke: #1f77b4; stroke-width: 1.5; stroke-linecap: square"/>
   </g>
   <g id="line2d_2">
    <path d="M 97.732512 120.890323 
L 101.171649 120.890323 
L 104.610786 124.467097 
L 108.049923 130.854194 
L 111.48906 130.343226 
L 114.928197 123.445161 
L 118.367334 112.970323 
L 121.806471 100.196129 
L 125.245609 98.91871 
L 128.684746 107.094194 
L 132.123883 109.393548 
L 135.56302 116.802581 
L 139.002157 134.941935 
L 142.441294 143.883871 
L 145.880431 149.504516 
L 149.319569 159.468387 
L 152.758706 158.701935 
L 156.197843 151.037419 
L 159.63698 146.694194 
L 163.076117 139.540645 
L 166.515254 134.686452 
L 169.954391 134.686452 
L 173.393529 128.299355 
L 176.832666 124.467097 
L 180.271803 129.065806 
L 183.71094 130.087742 
L 187.150077 128.043871 
L 190.589214 126.510968 
L 194.028351 121.145806 
L 197.467488 117.313548 
" clip-path="url(#p8fd534cc1c)" style="fill: none; stroke: #ff0000; stroke-width: 3; stroke-linecap: square"/>
   </g>
  </g>
  <g id="axes_2">
   <g id="line2d_3">
    <path d="M 46.145455 252.209032 
L 49.584592 259.107097 
L 53.023729 258.596129 
L 56.462866 251.953548 
L 59.902003 244.8 
L 63.34114 240.20129 
L 66.780277 235.858065 
L 70.219414 234.325161 
L 73.658552 233.55871 
L 77.097689 229.981935 
L 80.536826 225.63871 
L 83.975963 224.616774 
L 87.4151 224.616774 
L 90.854237 221.806452 
L 94.293374 219.507097 
L 97.732512 218.229677 
L 101.171649 217.71871 
L 104.610786 217.974194 
L 108.049923 217.207742 
L 111.48906 221.550968 
L 114.928197 225.383226 
L 118.367334 219.507097 
L 121.806471 208.265806 
L 125.245609 204.689032 
L 128.684746 205.2 
L 132.123883 201.112258 
L 135.56302 203.667097 
L 139.002157 217.71871 
L 142.441294 228.96 
L 145.880431 232.025806 
L 149.319569 231.770323 
L 152.758706 226.660645 
L 156.197843 219.762581 
L 159.63698 219.507097 
L 163.076117 219.251613 
L 166.515254 217.207742 
L 169.954391 216.952258 
L 173.393529 214.908387 
L 176.832666 215.930323 
L 180.271803 224.616774 
L 183.71094 229.470968 
L 187.150077 222.828387 
L 190.589214 220.529032 
L 194.028351 225.127742 
L 197.467488 228.704516 
L 200.906626 231.259355 
L 204.345763 227.427097 
L 207.7849 218.996129 
L 211.224037 214.397419 
L 214.663174 211.587097 
L 218.102311 209.032258 
L 221.541448 208.265806 
L 224.980586 208.010323 
L 228.419723 203.922581 
L 231.85886 200.856774 
L 235.297997 202.134194 
L 238.737134 201.367742 
L 242.176271 199.834839 
L 245.615408 203.667097 
L 249.054545 207.499355 
" clip-path="url(#p40b780c97f)" style="fill: none; stroke: #1f77b4; stroke-width: 1.5; stroke-linecap: square"/>
   </g>
   <g id="line2d_4">
    <path d="M 97.732512 218.229677 
L 101.171649 217.71871 
L 104.610786 217.974194 
L 108.049923 217.207742 
L 111.48906 221.550968 
L 114.928197 225.383226 
L 118.367334 219.507097 
L 121.806471 208.265806 
L 125.245609 204.689032 
L 128.684746 205.2 
L 132.123883 201.112258 
L 135.56302 203.667097 
L 139.002157 217.71871 
L 142.441294 228.96 
L 145.880431 232.025806 
L 149.319569 231.770323 
L 152.758706 226.660645 
L 156.197843 219.762581 
L 159.63698 219.507097 
L 163.076117 219.251613 
L 166.515254 217.207742 
L 169.954391 216.952258 
L 173.393529 214.908387 
L 176.832666 215.930323 
L 180.271803 224.616774 
L 183.71094 229.470968 
L 187.150077 222.828387 
L 190.589214 220.529032 
L 194.028351 225.127742 
L 197.467488 228.704516 
" clip-path="url(#p40b780c97f)" style="fill: none; stroke: #ff0000; stroke-width: 3; stroke-linecap: square"/>
   </g>
  </g>
  <g id="axes_3">
   <g id="line2d_5">
    <path d="M 46.145455 331.664516 
L 49.584592 328.59871 
L 53.023729 328.59871 
L 56.462866 327.832258 
L 59.902003 326.810323 
L 63.34114 323.744516 
L 66.780277 319.656774 
L 70.219414 323.233548 
L 73.658552 325.532903 
L 77.097689 324 
L 80.536826 324.510968 
L 83.975963 321.189677 
L 87.4151 318.634839 
L 90.854237 318.379355 
L 94.293374 314.291613 
L 97.732512 310.970323 
L 101.171649 313.269677 
L 104.610786 319.145806 
L 108.049923 318.890323 
L 111.48906 313.269677 
L 114.928197 308.16 
L 118.367334 299.729032 
L 121.806471 285.166452 
L 125.245609 278.012903 
L 128.684746 279.80129 
L 132.123883 278.012903 
L 135.56302 282.100645 
L 139.002157 302.283871 
L 142.441294 315.824516 
L 145.880431 321.445161 
L 149.319569 336.007742 
L 152.758706 341.883871 
L 156.197843 331.409032 
L 159.63698 331.409032 
L 163.076117 337.285161 
L 166.515254 331.92 
L 169.954391 325.788387 
L 173.393529 320.67871 
L 176.832666 313.525161 
L 180.271803 314.036129 
L 183.71094 318.634839 
L 187.150077 317.612903 
L 190.589214 312.75871 
L 194.028351 310.970323 
L 197.467488 313.525161 
L 200.906626 316.335484 
L 204.345763 318.123871 
L 207.7849 321.956129 
L 211.224037 319.145806 
L 214.663174 307.649032 
L 218.102311 296.91871 
L 221.541448 293.086452 
L 224.980586 293.341935 
L 228.419723 291.809032 
L 231.85886 298.196129 
L 235.297997 308.415484 
L 238.737134 309.437419 
L 242.176271 306.371613 
L 245.615408 303.050323 
L 249.054545 298.196129 
" clip-path="url(#p2067e45100)" style="fill: none; stroke: #1f77b4; stroke-width: 1.5; stroke-linecap: square"/>
   </g>
   <g id="line2d_6">
    <path d="M 97.732512 310.970323 
L 101.171649 313.269677 
L 104.610786 319.145806 
L 108.049923 318.890323 
L 111.48906 313.269677 
L 114.928197 308.16 
L 118.367334 299.729032 
L 121.806471 285.166452 
L 125.245609 278.012903 
L 128.684746 279.80129 
L 132.123883 278.012903 
L 135.56302 282.100645 
L 139.002157 302.283871 
L 142.441294 315.824516 
L 145.880431 321.445161 
L 149.319569 336.007742 
L 152.758706 341.883871 
L 156.197843 331.409032 
L 159.63698 331.409032 
L 163.076117 337.285161 
L 166.515254 331.92 
L 169.954391 325.788387 
L 173.393529 320.67871 
L 176.832666 313.525161 
L 180.271803 314.036129 
L 183.71094 318.634839 
L 187.150077 317.612903 
L 190.589214 312.75871 
L 194.028351 310.970323 
L 197.467488 313.525161 
" clip-path="url(#p2067e45100)" style="fill: none; stroke: #ff0000; stroke-width: 3; stroke-linecap: square"/>
   </g>
  </g>
  <g id="axes_4">
   <g id="line2d_7">
    <path d="M 46.145455 429.003871 
L 49.584592 436.157419 
L 53.023729 436.157419 
L 56.462866 431.303226 
L 59.902003 426.449032 
L 63.34114 418.529032 
L 66.780277 411.886452 
L 70.219414 412.652903 
L 73.658552 417.507097 
L 77.097689 415.463226 
L 80.536826 409.076129 
L 83.975963 409.587097 
L 87.4151 409.587097 
L 90.854237 405.754839 
L 94.293374 407.79871 
L 97.732512 411.630968 
L 101.171649 412.141935 
L 104.610786 414.44129 
L 108.049923 414.696774 
L 111.48906 412.141935 
L 114.928197 409.076129 
L 118.367334 399.367742 
L 121.806471 388.637419 
L 125.245609 389.914839 
L 128.684746 390.936774 
L 132.123883 381.994839 
L 135.56302 384.805161 
L 139.002157 408.309677 
L 142.441294 423.383226 
L 145.880431 428.237419 
L 149.319569 434.113548 
L 152.758706 429.514839 
L 156.197843 418.018065 
L 159.63698 418.273548 
L 163.076117 422.36129 
L 166.515254 416.485161 
L 169.954391 410.098065 
L 173.393529 407.543226 
L 176.832666 405.754839 
L 180.271803 407.79871 
L 183.71094 412.141935 
L 187.150077 415.207742 
L 190.589214 417.507097 
L 194.028351 417.507097 
L 197.467488 417.762581 
L 200.906626 419.550968 
L 204.345763 415.463226 
L 207.7849 409.331613 
L 211.224037 406.52129 
L 214.663174 401.667097 
L 218.102311 397.068387 
L 221.541448 395.024516 
L 224.980586 394.258065 
L 228.419723 392.725161 
L 231.85886 395.024516 
L 235.297997 399.623226 
L 238.737134 394.513548 
L 242.176271 391.703226 
L 245.615408 404.477419 
L 249.054545 407.79871 
" clip-path="url(#p50f9a81866)" style="fill: none; stroke: #1f77b4; stroke-width: 1.5; stroke-linecap: square"/>
   </g>
   <g id="line2d_8">
    <path d="M 97.732512 411.630968 
L 101.171649 412.141935 
L 104.610786 414.44129 
L 108.049923 414.696774 
L 111.48906 412.141935 
L 114.928197 409.076129 
L 118.367334 399.367742 
L 121.806471 388.637419 
L 125.245609 389.914839 
L 128.684746 390.936774 
L 132.123883 381.994839 
L 135.56302 384.805161 
L 139.002157 408.309677 
L 142.441294 423.383226 
L 145.880431 428.237419 
L 149.319569 434.113548 
L 152.758706 429.514839 
L 156.197843 418.018065 
L 159.63698 418.273548 
L 163.076117 422.36129 
L 166.515254 416.485161 
L 169.954391 410.098065 
L 173.393529 407.543226 
L 176.832666 405.754839 
L 180.271803 407.79871 
L 183.71094 412.141935 
L 187.150077 415.207742 
L 190.589214 417.507097 
L 194.028351 417.507097 
L 197.467488 417.762581 
" clip-path="url(#p50f9a81866)" style="fill: none; stroke: #ff0000; stroke-width: 3; stroke-linecap: square"/>
   </g>
  </g>
  <g id="axes_5">
   <g id="line2d_9">
    <path d="M 46.145455 514.08 
L 49.584592 514.590968 
L 53.023729 512.036129 
L 56.462866 509.736774 
L 59.902003 515.357419 
L 63.34114 515.101935 
L 66.780277 509.736774 
L 70.219414 514.335484 
L 73.658552 517.40129 
L 77.097689 510.503226 
L 80.536826 509.736774 
L 83.975963 517.912258 
L 87.4151 522.510968 
L 90.854237 517.912258 
L 94.293374 509.992258 
L 97.732512 504.627097 
L 101.171649 503.860645 
L 104.610786 506.926452 
L 108.049923 505.138065 
L 111.48906 501.56129 
L 114.928197 498.750968 
L 118.367334 488.787097 
L 121.806471 477.290323 
L 125.245609 476.012903 
L 128.684746 477.034839 
L 132.123883 474.990968 
L 135.56302 481.378065 
L 139.002157 500.539355 
L 142.441294 509.48129 
L 145.880431 506.415484 
L 149.319569 512.802581 
L 152.758706 522 
L 156.197843 517.656774 
L 159.63698 511.269677 
L 163.076117 512.547097 
L 166.515254 513.313548 
L 169.954391 508.970323 
L 173.393529 502.327742 
L 176.832666 495.174194 
L 180.271803 492.363871 
L 183.71094 495.429677 
L 187.150077 497.473548 
L 190.589214 498.24 
L 194.028351 500.283871 
L 197.467488 500.794839 
L 200.906626 501.816774 
L 204.345763 505.393548 
L 207.7849 507.181935 
L 211.224037 502.583226 
L 214.663174 491.597419 
L 218.102311 484.188387 
L 221.541448 488.020645 
L 224.980586 490.830968 
L 228.419723 483.166452 
L 231.85886 484.954839 
L 235.297997 497.729032 
L 238.737134 501.305806 
L 242.176271 498.24 
L 245.615408 496.196129 
L 249.054545 488.787097 
" clip-path="url(#p61c4e52bec)" style="fill: none; stroke: #1f77b4; stroke-width: 1.5; stroke-linecap: square"/>
   </g>
   <g id="line2d_10">
    <path d="M 97.732512 504.627097 
L 101.171649 503.860645 
L 104.610786 506.926452 
L 108.049923 505.138065 
L 111.48906 501.56129 
L 114.928197 498.750968 
L 118.367334 488.787097 
L 121.806471 477.290323 
L 125.245609 476.012903 
L 128.684746 477.034839 
L 132.123883 474.990968 
L 135.56302 481.378065 
L 139.002157 500.539355 
L 142.441294 509.48129 
L 145.880431 506.415484 
L 149.319569 512.802581 
L 152.758706 522 
L 156.197843 517.656774 
L 159.63698 511.269677 
L 163.076117 512.547097 
L 166.515254 513.313548 
L 169.954391 508.970323 
L 173.393529 502.327742 
L 176.832666 495.174194 
L 180.271803 492.363871 
L 183.71094 495.429677 
L 187.150077 497.473548 
L 190.589214 498.24 
L 194.028351 500.283871 
L 197.467488 500.794839 
" clip-path="url(#p61c4e52bec)" style="fill: none; stroke: #ff0000; stroke-width: 3; stroke-linecap: square"/>
   </g>
  </g>
  <g id="axes_6">
   <g id="line2d_11">
    <path d="M 46.145455 620.36129 
L 49.584592 608.864516 
L 53.023729 605.79871 
L 56.462866 611.419355 
L 59.902003 606.054194 
L 63.34114 597.367742 
L 66.780277 599.411613 
L 70.219414 607.076129 
L 73.658552 612.952258 
L 77.097689 607.842581 
L 80.536826 599.922581 
L 83.975963 601.455484 
L 87.4151 602.477419 
L 90.854237 602.477419 
L 94.293374 605.287742 
L 97.732512 604.010323 
L 101.171649 602.477419 
L 104.610786 602.221935 
L 108.049923 600.178065 
L 111.48906 601.455484 
L 114.928197 603.499355 
L 118.367334 596.345806 
L 121.806471 586.381935 
L 125.245609 582.549677 
L 128.684746 574.629677 
L 132.123883 565.687742 
L 135.56302 574.885161 
L 139.002157 599.156129 
L 142.441294 611.163871 
L 145.880431 610.397419 
L 149.319569 615.507097 
L 152.758706 616.784516 
L 156.197843 606.565161 
L 159.63698 601.710968 
L 163.076117 604.265806 
L 166.515254 603.243871 
L 169.954391 598.645161 
L 173.393529 595.834839 
L 176.832666 597.87871 
L 180.271803 598.134194 
L 183.71094 595.579355 
L 187.150077 594.301935 
L 190.589214 594.557419 
L 194.028351 600.178065 
L 197.467488 605.032258 
L 200.906626 601.710968 
L 204.345763 599.922581 
L 207.7849 602.988387 
L 211.224037 604.52129 
L 214.663174 596.090323 
L 218.102311 586.126452 
L 221.541448 584.849032 
L 224.980586 584.593548 
L 228.419723 583.571613 
L 231.85886 586.381935 
L 235.297997 585.36 
L 238.737134 582.549677 
L 242.176271 584.849032 
L 245.615408 585.870968 
L 249.054545 587.659355 
" clip-path="url(#p15ed0d9d2c)" style="fill: none; stroke: #1f77b4; stroke-width: 1.5; stroke-linecap: square"/>
   </g>
   <g id="line2d_12">
    <path d="M 97.732512 604.010323 
L 101.171649 602.477419 
L 104.610786 602.221935 
L 108.049923 600.178065 
L 111.48906 601.455484 
L 114.928197 603.499355 
L 118.367334 596.345806 
L 121.806471 586.381935 
L 125.245609 582.549677 
L 128.684746 574.629677 
L 132.123883 565.687742 
L 135.56302 574.885161 
L 139.002157 599.156129 
L 142.441294 611.163871 
L 145.880431 610.397419 
L 149.319569 615.507097 
L 152.758706 616.784516 
L 156.197843 606.565161 
L 159.63698 601.710968 
L 163.076117 604.265806 
L 166.515254 603.243871 
L 169.954391 598.645161 
L 173.393529 595.834839 
L 176.832666 597.87871 
L 180.271803 598.134194 
L 183.71094 595.579355 
L 187.150077 594.301935 
L 190.589214 594.557419 
L 194.028351 600.178065 
L 197.467488 605.032258 
" clip-path="url(#p15ed0d9d2c)" style="fill: none; stroke: #ff0000; stroke-width: 3; stroke-linecap: square"/>
   </g>
  </g>
 </g>
 <defs>
  <clipPath id="p8fd534cc1c">
   <rect x="36" y="86.4" width="223.2" height="79.2"/>
  </clipPath>
  <clipPath id="p40b780c97f">
   <rect x="36" y="181.44" width="223.2" height="79.2"/>
  </clipPath>
  <clipPath id="p2067e45100">
   <rect x="36" y="276.48" width="223.2" height="79.2"/>
  </clipPath>
  <clipPath id="p50f9a81866">
   <rect x="36" y="371.52" width="223.2" height="79.2"/>
  </clipPath>
  <clipPath id="p61c4e52bec">
   <rect x="36" y="466.56" width="223.2" height="79.2"/>
  </clipPath>
  <clipPath id="p15ed0d9d2c">
   <rect x="36" y="561.6" width="223.2" height="79.2"/>
  </clipPath>
 </defs>
</svg>
