<?xml version="1.0" encoding="utf-8" standalone="no"?>
<!DOCTYPE svg PUBLIC "-//W3C//DTD SVG 1.1//EN"
  "http://www.w3.org/Graphics/SVG/1.1/DTD/svg11.dtd">
<svg xmlns:xlink="http://www.w3.org/1999/xlink" width="288pt" height="720pt" viewBox="0 0 288 720" xmlns="http://www.w3.org/2000/svg" version="1.1">
 <metadata>
  <rdf:RDF xmlns:dc="http://purl.org/dc/elements/1.1/" xmlns:cc="http://creativecommons.org/ns#" xmlns:rdf="http://www.w3.org/1999/02/22-rdf-syntax-ns#">
   <cc:Work>
    <dc:type rdf:resource="http://purl.org/dc/dcmitype/StillImage"/>
    <dc:date>2023-08-04T07:37:07.168517</dc:date>
    <dc:format>image/svg+xml</dc:format>
    <dc:creator>
     <cc:Agent>
      <dc:title>Matplotlib v3.5.2, https://matplotlib.org/</dc:title>
     </cc:Agent>
    </dc:creator>
   </cc:Work>
  </rdf:RDF>
 </metadata>
 <defs>
  <style type="text/css">*{stroke-linejoin: round; stroke-linecap: butt}</style>
 </defs>
 <g id="figure_1">
  <g id="patch_1">
   <path d="M 0 720 
L 288 720 
L 288 0 
L 0 0 
L 0 720 
z
" style="fill: none"/>
  </g>
  <g id="axes_1">
   <g id="line2d_1">
    <path d="M 46.145455 109.138065 
L 49.584592 118.08 
L 53.023729 121.40129 
L 56.462866 123.956129 
L 59.902003 125.233548 
L 63.34114 122.423226 
L 66.780277 118.590968 
L 70.219414 115.269677 
L 73.658552 111.692903 
L 77.097689 113.48129 
L 80.536826 120.890323 
L 83.975963 122.67871 
L 87.4151 119.101935 
L 90.854237 119.612903 
L 94.293374 118.335484 
L 97.732512 115.269677 
L 101.171649 121.145806 
L 104.610786 131.876129 
L 108.049923 140.818065 
L 111.48906 144.394839 
L 114.928197 141.584516 
L 118.367334 139.029677 
L 121.806471 136.730323 
L 125.245609 133.92 
L 128.684746 131.876129 
L 132.123883 132.898065 
L 135.56302 137.496774 
L 139.002157 142.606452 
L 142.441294 145.16129 
L 145.880431 148.227097 
L 149.319569 152.570323 
L 152.758706 153.592258 
L 156.197843 148.993548 
L 159.63698 142.606452 
L 163.076117 134.686452 
L 166.515254 124.722581 
L 169.954391 118.846452 
L 173.393529 114.75871 
L 176.832666 111.181935 
L 180.271803 119.868387 
L 183.71094 134.941935 
L 187.150077 139.029677 
L 190.589214 139.540645 
L 194.028351 140.818065 
L 197.467488 133.92 
L 200.906626 127.021935 
L 204.345763 123.700645 
L 207.7849 118.590968 
L 211.224037 115.269677 
L 214.663174 115.269677 
L 218.102311 111.181935 
L 221.541448 105.56129 
L 224.980586 106.583226 
L 228.419723 113.48129 
L 231.85886 117.313548 
L 235.297997 117.824516 
L 238.737134 123.189677 
L 242.176271 128.299355 
L 245.615408 126.255484 
L 249.054545 126 
" clip-path="url(#pb133c6cba0)" style="fill: none; stroke: #1f77b4; stroke-width: 1.5; stroke-linecap: square"/>
   </g>
   <g id="line2d_2">
    <path d="M 97.732512 115.269677 
L 101.171649 121.145806 
L 104.610786 131.876129 
L 108.049923 140.818065 
L 111.48906 144.394839 
L 114.928197 141.584516 
L 118.367334 139.029677 
L 121.806471 136.730323 
L 125.245609 133.92 
L 128.684746 131.876129 
L 132.123883 132.898065 
L 135.56302 137.496774 
L 139.002157 142.606452 
L 142.441294 145.16129 
L 145.880431 148.227097 
L 149.319569 152.570323 
L 152.758706 153.592258 
L 156.197843 148.993548 
L 159.63698 142.606452 
L 163.076117 134.686452 
L 166.515254 124.722581 
L 169.954391 118.846452 
L 173.393529 114.75871 
L 176.832666 111.181935 
L 180.271803 119.868387 
L 183.71094 134.941935 
L 187.150077 139.029677 
L 190.589214 139.540645 
L 194.028351 140.818065 
L 197.467488 133.92 
" clip-path="url(#pb133c6cba0)" style="fill: none; stroke: #ff0000; stroke-width: 3; stroke-linecap: square"/>
   </g>
  </g>
  <g id="axes_2">
   <g id="line2d_3">
    <path d="M 46.145455 234.325161 
L 49.584592 231.770323 
L 53.023729 228.449032 
L 56.462866 224.105806 
L 59.902003 216.44129 
L 63.34114 215.674839 
L 66.780277 218.229677 
L 70.219414 214.397419 
L 73.658552 211.587097 
L 77.097689 219.762581 
L 80.536826 231.514839 
L 83.975963 233.303226 
L 87.4151 230.237419 
L 90.854237 227.682581 
L 94.293374 221.550968 
L 97.732512 218.485161 
L 101.171649 221.550968 
L 104.610786 222.572903 
L 108.049923 224.105806 
L 111.48906 224.616774 
L 114.928197 214.908387 
L 118.367334 202.389677 
L 121.806471 194.980645 
L 125.245609 188.338065 
L 128.684746 186.549677 
L 132.123883 191.148387 
L 135.56302 193.703226 
L 139.002157 202.389677 
L 142.441294 224.36129 
L 145.880431 242.245161 
L 149.319569 248.376774 
L 152.758706 254.252903 
L 156.197843 255.274839 
L 159.63698 244.033548 
L 163.076117 233.814194 
L 166.515254 227.938065 
L 169.954391 219.762581 
L 173.393529 213.12 
L 176.832666 214.908387 
L 180.271803 223.339355 
L 183.71094 236.88 
L 187.150077 244.289032 
L 190.589214 243.522581 
L 194.028351 240.20129 
L 197.467488 236.88 
L 200.906626 237.901935 
L 204.345763 240.456774 
L 207.7849 231.003871 
L 211.224037 217.207742 
L 214.663174 216.185806 
L 218.102311 216.185806 
L 221.541448 211.331613 
L 224.980586 210.054194 
L 228.419723 215.163871 
L 231.85886 221.806452 
L 235.297997 225.383226 
L 238.737134 227.938065 
L 242.176271 232.025806 
L 245.615408 232.025806 
L 249.054545 226.660645 
" clip-path="url(#pb4263449be)" style="fill: none; stroke: #1f77b4; stroke-width: 1.5; stroke-linecap: square"/>
   </g>
   <g id="line2d_4">
    <path d="M 97.732512 218.485161 
L 101.171649 221.550968 
L 104.610786 222.572903 
L 108.049923 224.105806 
L 111.48906 224.616774 
L 114.928197 214.908387 
L 118.367334 202.389677 
L 121.806471 194.980645 
L 125.245609 188.338065 
L 128.684746 186.549677 
L 132.123883 191.148387 
L 135.56302 193.703226 
L 139.002157 202.389677 
L 142.441294 224.36129 
L 145.880431 242.245161 
L 149.319569 248.376774 
L 152.758706 254.252903 
L 156.197843 255.274839 
L 159.63698 244.033548 
L 163.076117 233.814194 
L 166.515254 227.938065 
L 169.954391 219.762581 
L 173.393529 213.12 
L 176.832666 214.908387 
L 180.271803 223.339355 
L 183.71094 236.88 
L 187.150077 244.289032 
L 190.589214 243.522581 
L 194.028351 240.20129 
L 197.467488 236.88 
" clip-path="url(#pb4263449be)" style="fill: none; stroke: #ff0000; stroke-width: 3; stroke-linecap: square"/>
   </g>
  </g>
  <g id="axes_3">
   <g id="line2d_5">
    <path d="M 46.145455 302.283871 
L 49.584592 299.729032 
L 53.023729 306.882581 
L 56.462866 317.868387 
L 59.902003 316.846452 
L 63.34114 314.291613 
L 66.780277 318.379355 
L 70.219414 316.08 
L 73.658552 310.970323 
L 77.097689 314.036129 
L 80.536826 314.802581 
L 83.975963 309.948387 
L 87.4151 307.649032 
L 90.854237 307.904516 
L 94.293374 306.371613 
L 97.732512 310.714839 
L 101.171649 320.934194 
L 104.610786 325.021935 
L 108.049923 324 
L 111.48906 325.021935 
L 114.928197 326.043871 
L 118.367334 321.189677 
L 121.806471 315.569032 
L 125.245609 313.014194 
L 128.684746 306.371613 
L 132.123883 301.261935 
L 135.56302 307.393548 
L 139.002157 316.590968 
L 142.441294 328.59871 
L 145.880431 343.672258 
L 149.319569 350.059355 
L 152.758706 352.35871 
L 156.197843 349.292903 
L 159.63698 335.752258 
L 163.076117 326.810323 
L 166.515254 321.956129 
L 169.954391 317.357419 
L 173.393529 317.101935 
L 176.832666 315.824516 
L 180.271803 320.934194 
L 183.71094 332.941935 
L 187.150077 332.430968 
L 190.589214 327.832258 
L 194.028351 328.343226 
L 197.467488 326.043871 
L 200.906626 323.233548 
L 204.345763 321.189677 
L 207.7849 316.08 
L 211.224037 309.692903 
L 214.663174 305.349677 
L 218.102311 304.072258 
L 221.541448 305.605161 
L 224.980586 307.393548 
L 228.419723 309.437419 
L 231.85886 309.181935 
L 235.297997 307.138065 
L 238.737134 309.437419 
L 242.176271 314.802581 
L 245.615408 311.225806 
L 249.054545 304.072258 
" clip-path="url(#p0975c2edfe)" style="fill: none; stroke: #1f77b4; stroke-width: 1.5; stroke-linecap: square"/>
   </g>
   <g id="line2d_6">
    <path d="M 97.732512 310.714839 
L 101.171649 320.934194 
L 104.610786 325.021935 
L 108.049923 324 
L 111.48906 325.021935 
L 114.928197 326.043871 
L 118.367334 321.189677 
L 121.806471 315.569032 
L 125.245609 313.014194 
L 128.684746 306.371613 
L 132.123883 301.261935 
L 135.56302 307.393548 
L 139.002157 316.590968 
L 142.441294 328.59871 
L 145.880431 343.672258 
L 149.319569 350.059355 
L 152.758706 352.35871 
L 156.197843 349.292903 
L 159.63698 335.752258 
L 163.076117 326.810323 
L 166.515254 321.956129 
L 169.954391 317.357419 
L 173.393529 317.101935 
L 176.832666 315.824516 
L 180.271803 320.934194 
L 183.71094 332.941935 
L 187.150077 332.430968 
L 190.589214 327.832258 
L 194.028351 328.343226 
L 197.467488 326.043871 
" clip-path="url(#p0975c2edfe)" style="fill: none; stroke: #ff0000; stroke-width: 3; stroke-linecap: square"/>
   </g>
  </g>
  <g id="axes_4">
   <g id="line2d_7">
    <path d="M 46.145455 409.331613 
L 49.584592 416.740645 
L 53.023729 414.44129 
L 56.462866 410.864516 
L 59.902003 407.032258 
L 63.34114 399.112258 
L 66.780277 398.60129 
L 70.219414 404.221935 
L 73.658552 406.52129 
L 77.097689 413.163871 
L 80.536826 423.63871 
L 83.975963 421.850323 
L 87.4151 415.71871 
L 90.854237 416.229677 
L 94.293374 409.331613 
L 97.732512 398.090323 
L 101.171649 400.645161 
L 104.610786 409.331613 
L 108.049923 411.12 
L 111.48906 410.609032 
L 114.928197 409.842581 
L 118.367334 405.499355 
L 121.806471 396.812903 
L 125.245609 387.870968 
L 128.684746 385.827097 
L 132.123883 388.892903 
L 135.56302 391.192258 
L 139.002157 399.367742 
L 142.441294 420.317419 
L 145.880431 439.47871 
L 149.319569 443.566452 
L 152.758706 441.011613 
L 156.197843 438.712258 
L 159.63698 432.325161 
L 163.076117 426.449032 
L 166.515254 424.405161 
L 169.954391 425.938065 
L 173.393529 429.259355 
L 176.832666 429.003871 
L 180.271803 424.660645 
L 183.71094 422.872258 
L 187.150077 425.171613 
L 190.589214 426.704516 
L 194.028351 423.383226 
L 197.467488 419.295484 
L 200.906626 419.550968 
L 204.345763 418.529032 
L 207.7849 413.419355 
L 211.224037 407.543226 
L 214.663174 405.754839 
L 218.102311 407.79871 
L 221.541448 411.12 
L 224.980586 411.12 
L 228.419723 409.076129 
L 231.85886 406.52129 
L 235.297997 403.966452 
L 238.737134 407.287742 
L 242.176271 416.485161 
L 245.615408 419.04 
L 249.054545 411.630968 
" clip-path="url(#p7e82778a13)" style="fill: none; stroke: #1f77b4; stroke-width: 1.5; stroke-linecap: square"/>
   </g>
   <g id="line2d_8">
    <path d="M 97.732512 398.090323 
L 101.171649 400.645161 
L 104.610786 409.331613 
L 108.049923 411.12 
L 111.48906 410.609032 
L 114.928197 409.842581 
L 118.367334 405.499355 
L 121.806471 396.812903 
L 125.245609 387.870968 
L 128.684746 385.827097 
L 132.123883 388.892903 
L 135.56302 391.192258 
L 139.002157 399.367742 
L 142.441294 420.317419 
L 145.880431 439.47871 
L 149.319569 443.566452 
L 152.758706 441.011613 
L 156.197843 438.712258 
L 159.63698 432.325161 
L 163.076117 426.449032 
L 166.515254 424.405161 
L 169.954391 425.938065 
L 173.393529 429.259355 
L 176.832666 429.003871 
L 180.271803 424.660645 
L 183.71094 422.872258 
L 187.150077 425.171613 
L 190.589214 426.704516 
L 194.028351 423.383226 
L 197.467488 419.295484 
" clip-path="url(#p7e82778a13)" style="fill: none; stroke: #ff0000; stroke-width: 3; stroke-linecap: square"/>
   </g>
  </g>
  <g id="axes_5">
   <g id="line2d_9">
    <path d="M 46.145455 490.575484 
L 49.584592 498.750968 
L 53.023729 502.327742 
L 56.462866 504.627097 
L 59.902003 508.459355 
L 63.34114 508.203871 
L 66.780277 502.83871 
L 70.219414 502.072258 
L 73.658552 502.072258 
L 77.097689 499.006452 
L 80.536826 501.816774 
L 83.975963 504.116129 
L 87.4151 498.750968 
L 90.854237 494.91871 
L 94.293374 492.363871 
L 97.732512 493.130323 
L 101.171649 503.349677 
L 104.610786 514.590968 
L 108.049923 518.934194 
L 111.48906 518.423226 
L 114.928197 516.123871 
L 118.367334 516.890323 
L 121.806471 517.40129 
L 125.245609 509.48129 
L 128.684746 496.962581 
L 132.123883 491.341935 
L 135.56302 493.896774 
L 139.002157 496.196129 
L 142.441294 503.860645 
L 145.880431 520.467097 
L 149.319569 532.474839 
L 152.758706 538.606452 
L 156.197843 540.650323 
L 159.63698 529.664516 
L 163.076117 518.423226 
L 166.515254 514.08 
L 169.954391 507.181935 
L 173.393529 502.327742 
L 176.832666 506.670968 
L 180.271803 512.291613 
L 183.71094 513.569032 
L 187.150077 514.08 
L 190.589214 520.467097 
L 194.028351 519.700645 
L 197.467488 511.780645 
L 200.906626 512.802581 
L 204.345763 516.379355 
L 207.7849 513.824516 
L 211.224037 508.714839 
L 214.663174 506.415484 
L 218.102311 507.437419 
L 221.541448 508.714839 
L 224.980586 506.926452 
L 228.419723 503.860645 
L 231.85886 501.305806 
L 235.297997 496.962581 
L 238.737134 494.152258 
L 242.176271 498.495484 
L 245.615408 494.152258 
L 249.054545 482.655484 
" clip-path="url(#p4078a12217)" style="fill: none; stroke: #1f77b4; stroke-width: 1.5; stroke-linecap: square"/>
   </g>
   <g id="line2d_10">
    <path d="M 97.732512 493.130323 
L 101.171649 503.349677 
L 104.610786 514.590968 
L 108.049923 518.934194 
L 111.48906 518.423226 
L 114.928197 516.123871 
L 118.367334 516.890323 
L 121.806471 517.40129 
L 125.245609 509.48129 
L 128.684746 496.962581 
L 132.123883 491.341935 
L 135.56302 493.896774 
L 139.002157 496.196129 
L 142.441294 503.860645 
L 145.880431 520.467097 
L 149.319569 532.474839 
L 152.758706 538.606452 
L 156.197843 540.650323 
L 159.63698 529.664516 
L 163.076117 518.423226 
L 166.515254 514.08 
L 169.954391 507.181935 
L 173.393529 502.327742 
L 176.832666 506.670968 
L 180.271803 512.291613 
L 183.71094 513.569032 
L 187.150077 514.08 
L 190.589214 520.467097 
L 194.028351 519.700645 
L 197.467488 511.780645 
" clip-path="url(#p4078a12217)" style="fill: none; stroke: #ff0000; stroke-width: 3; stroke-linecap: square"/>
   </g>
  </g>
  <g id="axes_6">
   <g id="line2d_11">
    <path d="M 46.145455 599.922581 
L 49.584592 607.842581 
L 53.023729 605.287742 
L 56.462866 602.221935 
L 59.902003 597.87871 
L 63.34114 591.236129 
L 66.780277 593.535484 
L 70.219414 597.623226 
L 73.658552 598.645161 
L 77.097689 605.032258 
L 80.536826 609.375484 
L 83.975963 606.820645 
L 87.4151 604.52129 
L 90.854237 603.243871 
L 94.293374 599.667097 
L 97.732512 592.513548 
L 101.171649 590.469677 
L 104.610786 600.433548 
L 108.049923 609.375484 
L 111.48906 606.054194 
L 114.928197 597.623226 
L 118.367334 592.258065 
L 121.806471 594.812903 
L 125.245609 594.812903 
L 128.684746 583.827097 
L 132.123883 578.461935 
L 135.56302 585.36 
L 139.002157 594.046452 
L 142.441294 604.52129 
L 145.880431 614.996129 
L 149.319569 614.485161 
L 152.758706 610.141935 
L 156.197843 616.784516 
L 159.63698 620.105806 
L 163.076117 617.806452 
L 166.515254 618.061935 
L 169.954391 615.762581 
L 173.393529 612.44129 
L 176.832666 612.696774 
L 180.271803 609.375484 
L 183.71094 603.754839 
L 187.150077 605.032258 
L 190.589214 608.098065 
L 194.028351 604.52129 
L 197.467488 600.944516 
L 200.906626 605.032258 
L 204.345763 607.842581 
L 207.7849 604.265806 
L 211.224037 600.178065 
L 214.663174 600.944516 
L 218.102311 605.543226 
L 221.541448 609.630968 
L 224.980586 604.265806 
L 228.419723 600.178065 
L 231.85886 601.2 
L 235.297997 596.090323 
L 238.737134 593.28 
L 242.176271 597.623226 
L 245.615408 602.221935 
L 249.054545 602.221935 
" clip-path="url(#p1bd0451e0f)" style="fill: none; stroke: #1f77b4; stroke-width: 1.5; stroke-linecap: square"/>
   </g>
   <g id="line2d_12">
    <path d="M 97.732512 592.513548 
L 101.171649 590.469677 
L 104.610786 600.433548 
L 108.049923 609.375484 
L 111.48906 606.054194 
L 114.928197 597.623226 
L 118.367334 592.258065 
L 121.806471 594.812903 
L 125.245609 594.812903 
L 128.684746 583.827097 
L 132.123883 578.461935 
L 135.56302 585.36 
L 139.002157 594.046452 
L 142.441294 604.52129 
L 145.880431 614.996129 
L 149.319569 614.485161 
L 152.758706 610.141935 
L 156.197843 616.784516 
L 159.63698 620.105806 
L 163.076117 617.806452 
L 166.515254 618.061935 
L 169.954391 615.762581 
L 173.393529 612.44129 
L 176.832666 612.696774 
L 180.271803 609.375484 
L 183.71094 603.754839 
L 187.150077 605.032258 
L 190.589214 608.098065 
L 194.028351 604.52129 
L 197.467488 600.944516 
" clip-path="url(#p1bd0451e0f)" style="fill: none; stroke: #ff0000; stroke-width: 3; stroke-linecap: square"/>
   </g>
  </g>
 </g>
 <defs>
  <clipPath id="pb133c6cba0">
   <rect x="36" y="86.4" width="223.2" height="79.2"/>
  </clipPath>
  <clipPath id="pb4263449be">
   <rect x="36" y="181.44" width="223.2" height="79.2"/>
  </clipPath>
  <clipPath id="p0975c2edfe">
   <rect x="36" y="276.48" width="223.2" height="79.2"/>
  </clipPath>
  <clipPath id="p7e82778a13">
   <rect x="36" y="371.52" width="223.2" height="79.2"/>
  </clipPath>
  <clipPath id="p4078a12217">
   <rect x="36" y="466.56" width="223.2" height="79.2"/>
  </clipPath>
  <clipPath id="p1bd0451e0f">
   <rect x="36" y="561.6" width="223.2" height="79.2"/>
  </clipPath>
 </defs>
</svg>
