<?xml version="1.0" encoding="utf-8" standalone="no"?>
<!DOCTYPE svg PUBLIC "-//W3C//DTD SVG 1.1//EN"
  "http://www.w3.org/Graphics/SVG/1.1/DTD/svg11.dtd">
<svg xmlns:xlink="http://www.w3.org/1999/xlink" width="1440pt" height="144pt" viewBox="0 0 1440 144" xmlns="http://www.w3.org/2000/svg" version="1.1">
 <metadata>
  <rdf:RDF xmlns:dc="http://purl.org/dc/elements/1.1/" xmlns:cc="http://creativecommons.org/ns#" xmlns:rdf="http://www.w3.org/1999/02/22-rdf-syntax-ns#">
   <cc:Work>
    <dc:type rdf:resource="http://purl.org/dc/dcmitype/StillImage"/>
    <dc:date>2023-08-08T01:52:10.063421</dc:date>
    <dc:format>image/svg+xml</dc:format>
    <dc:creator>
     <cc:Agent>
      <dc:title>Matplotlib v3.5.2, https://matplotlib.org/</dc:title>
     </cc:Agent>
    </dc:creator>
   </cc:Work>
  </rdf:RDF>
 </metadata>
 <defs>
  <style type="text/css">*{stroke-linejoin: round; stroke-linecap: butt}</style>
 </defs>
 <g id="figure_1">
  <g id="patch_1">
   <path d="M 0 144 
L 1440 144 
L 1440 0 
L 0 0 
z
" style="fill: #ffffff"/>
  </g>
  <g id="axes_1">
   <g id="patch_2">
    <path d="M 180 128.16 
L 1296 128.16 
L 1296 17.28 
L 180 17.28 
z
" style="fill: #ffffff"/>
   </g>
   <g id="matplotlib.axis_1">
    <g id="xtick_1">
     <g id="line2d_1">
      <defs>
       <path id="mcd60e8a576" d="M 0 0 
L 0 3.5 
" style="stroke: #000000; stroke-width: 0.8"/>
      </defs>
      <g>
       <use xlink:href="#mcd60e8a576" x="230.727273" y="128.16" style="stroke: #000000; stroke-width: 0.8"/>
      </g>
     </g>
     <g id="text_1">
      <!-- 0 -->
      <g transform="translate(227.546023 142.758438)scale(0.1 -0.1)">
       <defs>
        <path id="DejaVuSans-30" d="M 2034 4250 
Q 1547 4250 1301 3770 
Q 1056 3291 1056 2328 
Q 1056 1369 1301 889 
Q 1547 409 2034 409 
Q 2525 409 2770 889 
Q 3016 1369 3016 2328 
Q 3016 3291 2770 3770 
Q 2525 4250 2034 4250 
z
M 2034 4750 
Q 2819 4750 3233 4129 
Q 3647 3509 3647 2328 
Q 3647 1150 3233 529 
Q 2819 -91 2034 -91 
Q 1250 -91 836 529 
Q 422 1150 422 2328 
Q 422 3509 836 4129 
Q 1250 4750 2034 4750 
z
" transform="scale(0.015625)"/>
       </defs>
       <use xlink:href="#DejaVuSans-30"/>
      </g>
     </g>
    </g>
    <g id="xtick_2">
     <g id="line2d_2">
      <g>
       <use xlink:href="#mcd60e8a576" x="400.383703" y="128.16" style="stroke: #000000; stroke-width: 0.8"/>
      </g>
     </g>
     <g id="text_2">
      <!-- 50 -->
      <g transform="translate(394.021203 142.758438)scale(0.1 -0.1)">
       <defs>
        <path id="DejaVuSans-35" d="M 691 4666 
L 3169 4666 
L 3169 4134 
L 1269 4134 
L 1269 2991 
Q 1406 3038 1543 3061 
Q 1681 3084 1819 3084 
Q 2600 3084 3056 2656 
Q 3513 2228 3513 1497 
Q 3513 744 3044 326 
Q 2575 -91 1722 -91 
Q 1428 -91 1123 -41 
Q 819 9 494 109 
L 494 744 
Q 775 591 1075 516 
Q 1375 441 1709 441 
Q 2250 441 2565 725 
Q 2881 1009 2881 1497 
Q 2881 1984 2565 2268 
Q 2250 2553 1709 2553 
Q 1456 2553 1204 2497 
Q 953 2441 691 2322 
L 691 4666 
z
" transform="scale(0.015625)"/>
       </defs>
       <use xlink:href="#DejaVuSans-35"/>
       <use xlink:href="#DejaVuSans-30" x="63.623047"/>
      </g>
     </g>
    </g>
    <g id="xtick_3">
     <g id="line2d_3">
      <g>
       <use xlink:href="#mcd60e8a576" x="570.040134" y="128.16" style="stroke: #000000; stroke-width: 0.8"/>
      </g>
     </g>
     <g id="text_3">
      <!-- 100 -->
      <g transform="translate(560.496384 142.758438)scale(0.1 -0.1)">
       <defs>
        <path id="DejaVuSans-31" d="M 794 531 
L 1825 531 
L 1825 4091 
L 703 3866 
L 703 4441 
L 1819 4666 
L 2450 4666 
L 2450 531 
L 3481 531 
L 3481 0 
L 794 0 
L 794 531 
z
" transform="scale(0.015625)"/>
       </defs>
       <use xlink:href="#DejaVuSans-31"/>
       <use xlink:href="#DejaVuSans-30" x="63.623047"/>
       <use xlink:href="#DejaVuSans-30" x="127.246094"/>
      </g>
     </g>
    </g>
    <g id="xtick_4">
     <g id="line2d_4">
      <g>
       <use xlink:href="#mcd60e8a576" x="739.696564" y="128.16" style="stroke: #000000; stroke-width: 0.8"/>
      </g>
     </g>
     <g id="text_4">
      <!-- 150 -->
      <g transform="translate(730.152814 142.758438)scale(0.1 -0.1)">
       <use xlink:href="#DejaVuSans-31"/>
       <use xlink:href="#DejaVuSans-35" x="63.623047"/>
       <use xlink:href="#DejaVuSans-30" x="127.246094"/>
      </g>
     </g>
    </g>
    <g id="xtick_5">
     <g id="line2d_5">
      <g>
       <use xlink:href="#mcd60e8a576" x="909.352995" y="128.16" style="stroke: #000000; stroke-width: 0.8"/>
      </g>
     </g>
     <g id="text_5">
      <!-- 200 -->
      <g transform="translate(899.809245 142.758438)scale(0.1 -0.1)">
       <defs>
        <path id="DejaVuSans-32" d="M 1228 531 
L 3431 531 
L 3431 0 
L 469 0 
L 469 531 
Q 828 903 1448 1529 
Q 2069 2156 2228 2338 
Q 2531 2678 2651 2914 
Q 2772 3150 2772 3378 
Q 2772 3750 2511 3984 
Q 2250 4219 1831 4219 
Q 1534 4219 1204 4116 
Q 875 4013 500 3803 
L 500 4441 
Q 881 4594 1212 4672 
Q 1544 4750 1819 4750 
Q 2544 4750 2975 4387 
Q 3406 4025 3406 3419 
Q 3406 3131 3298 2873 
Q 3191 2616 2906 2266 
Q 2828 2175 2409 1742 
Q 1991 1309 1228 531 
z
" transform="scale(0.015625)"/>
       </defs>
       <use xlink:href="#DejaVuSans-32"/>
       <use xlink:href="#DejaVuSans-30" x="63.623047"/>
       <use xlink:href="#DejaVuSans-30" x="127.246094"/>
      </g>
     </g>
    </g>
    <g id="xtick_6">
     <g id="line2d_6">
      <g>
       <use xlink:href="#mcd60e8a576" x="1079.009425" y="128.16" style="stroke: #000000; stroke-width: 0.8"/>
      </g>
     </g>
     <g id="text_6">
      <!-- 250 -->
      <g transform="translate(1069.465675 142.758438)scale(0.1 -0.1)">
       <use xlink:href="#DejaVuSans-32"/>
       <use xlink:href="#DejaVuSans-35" x="63.623047"/>
       <use xlink:href="#DejaVuSans-30" x="127.246094"/>
      </g>
     </g>
    </g>
    <g id="xtick_7">
     <g id="line2d_7">
      <g>
       <use xlink:href="#mcd60e8a576" x="1248.665856" y="128.16" style="stroke: #000000; stroke-width: 0.8"/>
      </g>
     </g>
     <g id="text_7">
      <!-- 300 -->
      <g transform="translate(1239.122106 142.758438)scale(0.1 -0.1)">
       <defs>
        <path id="DejaVuSans-33" d="M 2597 2516 
Q 3050 2419 3304 2112 
Q 3559 1806 3559 1356 
Q 3559 666 3084 287 
Q 2609 -91 1734 -91 
Q 1441 -91 1130 -33 
Q 819 25 488 141 
L 488 750 
Q 750 597 1062 519 
Q 1375 441 1716 441 
Q 2309 441 2620 675 
Q 2931 909 2931 1356 
Q 2931 1769 2642 2001 
Q 2353 2234 1838 2234 
L 1294 2234 
L 1294 2753 
L 1863 2753 
Q 2328 2753 2575 2939 
Q 2822 3125 2822 3475 
Q 2822 3834 2567 4026 
Q 2313 4219 1838 4219 
Q 1578 4219 1281 4162 
Q 984 4106 628 3988 
L 628 4550 
Q 988 4650 1302 4700 
Q 1616 4750 1894 4750 
Q 2613 4750 3031 4423 
Q 3450 4097 3450 3541 
Q 3450 3153 3228 2886 
Q 3006 2619 2597 2516 
z
" transform="scale(0.015625)"/>
       </defs>
       <use xlink:href="#DejaVuSans-33"/>
       <use xlink:href="#DejaVuSans-30" x="63.623047"/>
       <use xlink:href="#DejaVuSans-30" x="127.246094"/>
      </g>
     </g>
    </g>
   </g>
   <g id="matplotlib.axis_2">
    <g id="ytick_1">
     <g id="line2d_8">
      <defs>
       <path id="me71ae3471a" d="M 0 0 
L -3.5 0 
" style="stroke: #000000; stroke-width: 0.8"/>
      </defs>
      <g>
       <use xlink:href="#me71ae3471a" x="180" y="120.738733" style="stroke: #000000; stroke-width: 0.8"/>
      </g>
     </g>
     <g id="text_8">
      <!-- −400 -->
      <g transform="translate(145.532813 124.537952)scale(0.1 -0.1)">
       <defs>
        <path id="DejaVuSans-2212" d="M 678 2272 
L 4684 2272 
L 4684 1741 
L 678 1741 
L 678 2272 
z
" transform="scale(0.015625)"/>
        <path id="DejaVuSans-34" d="M 2419 4116 
L 825 1625 
L 2419 1625 
L 2419 4116 
z
M 2253 4666 
L 3047 4666 
L 3047 1625 
L 3713 1625 
L 3713 1100 
L 3047 1100 
L 3047 0 
L 2419 0 
L 2419 1100 
L 313 1100 
L 313 1709 
L 2253 4666 
z
" transform="scale(0.015625)"/>
       </defs>
       <use xlink:href="#DejaVuSans-2212"/>
       <use xlink:href="#DejaVuSans-34" x="83.789062"/>
       <use xlink:href="#DejaVuSans-30" x="147.412109"/>
       <use xlink:href="#DejaVuSans-30" x="211.035156"/>
      </g>
     </g>
    </g>
    <g id="ytick_2">
     <g id="line2d_9">
      <g>
       <use xlink:href="#me71ae3471a" x="180" y="93.973258" style="stroke: #000000; stroke-width: 0.8"/>
      </g>
     </g>
     <g id="text_9">
      <!-- −200 -->
      <g transform="translate(145.532813 97.772477)scale(0.1 -0.1)">
       <use xlink:href="#DejaVuSans-2212"/>
       <use xlink:href="#DejaVuSans-32" x="83.789062"/>
       <use xlink:href="#DejaVuSans-30" x="147.412109"/>
       <use xlink:href="#DejaVuSans-30" x="211.035156"/>
      </g>
     </g>
    </g>
    <g id="ytick_3">
     <g id="line2d_10">
      <g>
       <use xlink:href="#me71ae3471a" x="180" y="67.207784" style="stroke: #000000; stroke-width: 0.8"/>
      </g>
     </g>
     <g id="text_10">
      <!-- 0 -->
      <g transform="translate(166.6375 71.007002)scale(0.1 -0.1)">
       <use xlink:href="#DejaVuSans-30"/>
      </g>
     </g>
    </g>
    <g id="ytick_4">
     <g id="line2d_11">
      <g>
       <use xlink:href="#me71ae3471a" x="180" y="40.442309" style="stroke: #000000; stroke-width: 0.8"/>
      </g>
     </g>
     <g id="text_11">
      <!-- 200 -->
      <g transform="translate(153.9125 44.241528)scale(0.1 -0.1)">
       <use xlink:href="#DejaVuSans-32"/>
       <use xlink:href="#DejaVuSans-30" x="63.623047"/>
       <use xlink:href="#DejaVuSans-30" x="127.246094"/>
      </g>
     </g>
    </g>
   </g>
   <g id="line2d_12">
    <path d="M 230.727273 90.922504 
L 234.120401 89.922978 
L 237.51353 89.107028 
L 240.906659 88.672776 
L 244.299787 87.974072 
L 247.692916 85.922155 
L 251.086044 81.95167 
L 257.872302 71.654877 
L 261.26543 67.713756 
L 264.658559 66.010544 
L 268.051687 66.690261 
L 271.444816 68.422448 
L 274.837945 69.412123 
L 278.231073 68.449133 
L 281.624202 65.147104 
L 285.01733 60.078488 
L 288.410459 54.445022 
L 291.803588 49.179508 
L 295.196716 44.541918 
L 298.589845 40.543661 
L 301.982974 37.445915 
L 305.376102 35.475149 
L 308.769231 34.681099 
L 312.162359 34.94087 
L 315.555488 35.948277 
L 318.948617 37.350509 
L 322.341745 39.040273 
L 325.734874 41.143427 
L 329.128002 44.009183 
L 332.521131 47.724093 
L 339.307388 57.057116 
L 342.700517 61.802463 
L 346.093645 66.177655 
L 363.059289 86.449845 
L 373.238674 99.244249 
L 376.631803 102.726531 
L 380.024932 105.289686 
L 383.41806 106.797351 
L 386.811189 107.006604 
L 390.204317 105.27385 
L 393.597446 101.33812 
L 396.990575 95.932903 
L 400.383703 90.004686 
L 403.776832 84.302081 
L 407.16996 79.448807 
L 410.563089 75.508495 
L 417.349346 68.57299 
L 420.742475 64.750302 
L 427.528732 56.471511 
L 430.921861 53.252122 
L 434.314989 50.923544 
L 441.101247 47.199758 
L 447.887504 43.718777 
L 451.280632 42.254576 
L 454.673761 41.352055 
L 458.06689 41.106182 
L 461.460018 41.347247 
L 464.853147 41.887388 
L 468.246275 42.62992 
L 471.639404 43.768956 
L 475.032533 45.087884 
L 481.81879 46.984151 
L 485.211919 48.219893 
L 488.605047 49.964386 
L 491.998176 52.359727 
L 495.391304 55.393659 
L 498.784433 59.254316 
L 502.177562 64.047189 
L 508.963819 74.799897 
L 512.356947 79.77886 
L 515.750076 83.902017 
L 519.143205 87.242731 
L 522.536333 90.14236 
L 525.929462 92.652514 
L 529.32259 94.647671 
L 532.715719 96.060352 
L 536.108848 96.40097 
L 539.501976 95.024793 
L 542.895105 91.768971 
L 546.288234 87.085652 
L 549.681362 81.717844 
L 553.074491 76.565922 
L 556.467619 71.856263 
L 559.860748 67.675643 
L 563.253877 64.253189 
L 566.647005 61.199883 
L 570.040134 57.972787 
L 573.433262 55.070186 
L 576.826391 52.864995 
L 580.21952 51.071625 
L 583.612648 49.720226 
L 587.005777 49.323311 
L 590.398905 49.972727 
L 593.792034 51.413271 
L 597.185163 53.702535 
L 600.578291 56.728157 
L 607.364548 63.727342 
L 610.757677 66.298697 
L 614.150806 68.052051 
L 617.543934 69.37879 
L 620.937063 70.077186 
L 624.330192 70.54368 
L 627.72332 71.373718 
L 631.116449 72.394476 
L 634.509577 73.207757 
L 637.902706 73.592461 
L 644.688963 73.764369 
L 651.47522 74.12093 
L 658.261478 74.033769 
L 661.654606 74.396824 
L 665.047735 75.182864 
L 668.440863 76.538584 
L 671.833992 78.411969 
L 675.227121 80.80409 
L 678.620249 83.797621 
L 688.799635 93.913387 
L 692.192764 96.262283 
L 695.585892 97.226775 
L 698.979021 96.718207 
L 702.37215 94.441141 
L 705.765278 90.459265 
L 709.158407 85.232107 
L 712.551535 78.748855 
L 715.944664 70.992598 
L 719.337793 62.242061 
L 722.730921 53.102777 
L 726.12405 44.953807 
L 729.517178 38.86475 
L 732.910307 34.712329 
L 736.303436 32.111647 
L 739.696564 30.906253 
L 743.089693 30.509032 
L 746.482822 30.526843 
L 749.87595 31.554159 
L 753.269079 33.909123 
L 760.055336 39.96925 
L 763.448465 42.762682 
L 770.234722 47.597293 
L 773.62785 50.445856 
L 777.020979 53.722316 
L 780.414108 57.175046 
L 783.807236 60.805315 
L 787.200365 64.616275 
L 790.593493 68.874816 
L 793.986622 73.890923 
L 797.379751 79.329276 
L 800.772879 84.349837 
L 804.166008 87.970299 
L 807.559137 89.365411 
L 810.952265 88.458758 
L 814.345394 85.754361 
L 817.738522 82.056897 
L 821.131651 78.758652 
L 824.52478 76.759937 
L 827.917908 75.745163 
L 831.311037 75.271601 
L 834.704165 75.137419 
L 838.097294 75.137541 
L 841.490423 74.843865 
L 844.883551 73.857066 
L 848.27668 71.89232 
L 851.669808 68.759526 
L 855.062937 64.845069 
L 858.456066 60.639063 
L 865.242323 51.862351 
L 868.635452 47.737365 
L 872.02858 44.476725 
L 875.421709 42.87161 
L 878.814837 43.253335 
L 882.207966 45.546935 
L 885.601095 49.230897 
L 888.994223 53.629595 
L 892.387352 58.370813 
L 899.173609 68.766229 
L 902.566738 74.043348 
L 905.959866 79.55523 
L 909.352995 84.846213 
L 912.746123 88.934129 
L 916.139252 91.87296 
L 919.532381 94.285408 
L 922.925509 96.179176 
L 926.318638 97.43383 
L 929.711766 98.112692 
L 933.104895 97.632167 
L 936.498024 95.592512 
L 939.891152 92.274985 
L 946.67741 84.333554 
L 950.070538 80.573214 
L 956.856795 73.546822 
L 960.249924 70.304592 
L 963.643053 67.716562 
L 967.036181 65.924878 
L 970.42931 64.74873 
L 973.822438 63.928953 
L 977.215567 63.497042 
L 980.608696 63.617294 
L 984.001824 64.356594 
L 987.394953 65.321885 
L 990.788081 65.801505 
L 994.18121 65.430515 
L 997.574339 64.273001 
L 1000.967467 62.373372 
L 1004.360596 59.966025 
L 1007.753725 57.324051 
L 1011.146853 54.502561 
L 1014.539982 51.935905 
L 1017.93311 50.421898 
L 1021.326239 50.123593 
L 1024.719368 50.635879 
L 1028.112496 51.959649 
L 1031.505625 53.666011 
L 1034.898753 54.708743 
L 1038.291882 54.763264 
L 1041.685011 54.598872 
L 1045.078139 55.01735 
L 1048.471268 56.282854 
L 1051.864396 58.339806 
L 1055.257525 60.632136 
L 1058.650654 62.425514 
L 1062.043782 63.490548 
L 1065.436911 63.73216 
L 1068.83004 63.373679 
L 1072.223168 62.361779 
L 1075.616297 60.219823 
L 1082.402554 53.969901 
L 1085.795683 51.78432 
L 1089.188811 50.785368 
L 1092.58194 50.608445 
L 1095.975068 51.108375 
L 1099.368197 52.251186 
L 1102.761326 54.106713 
L 1106.154454 56.860186 
L 1109.547583 60.326555 
L 1112.940711 64.249891 
L 1116.33384 68.73888 
L 1119.726969 73.751978 
L 1126.513226 84.244946 
L 1129.906355 88.986946 
L 1133.299483 92.272391 
L 1136.692612 93.310675 
L 1140.08574 92.117051 
L 1143.478869 89.422295 
L 1146.871998 86.126304 
L 1150.265126 83.359433 
L 1153.658255 82.038876 
L 1157.051383 81.558019 
L 1163.837641 81.28511 
L 1167.230769 80.990442 
L 1170.623898 80.53642 
L 1174.017026 79.679199 
L 1177.410155 78.222023 
L 1180.803284 75.949479 
L 1184.196412 72.755666 
L 1187.589541 69.222325 
L 1190.98267 66.188992 
L 1194.375798 63.988744 
L 1197.768927 62.658146 
L 1201.162055 62.28122 
L 1204.555184 62.520878 
L 1211.341441 63.193462 
L 1214.73457 63.369131 
L 1218.127698 63.221272 
L 1231.700213 61.636165 
L 1235.093341 61.451617 
L 1241.879599 61.638761 
L 1245.272727 61.757091 
L 1245.272727 61.757091 
" clip-path="url(#pf873d27e0d)" style="fill: none; stroke: #1f77b4; stroke-width: 1.5; stroke-linecap: square"/>
   </g>
   <g id="line2d_13">
    <path d="M 230.727273 66.402141 
L 237.51353 74.167098 
L 244.299787 81.433545 
L 247.692916 85.619326 
L 251.086044 89.470994 
L 254.479173 91.553023 
L 257.872302 90.430458 
L 261.26543 84.438088 
L 264.658559 72.620095 
L 268.051687 56.370182 
L 271.444816 39.491664 
L 274.837945 26.804214 
L 278.231073 22.32 
L 281.624202 27.697712 
L 285.01733 41.962285 
L 288.410459 62.011158 
L 291.803588 82.903429 
L 295.196716 99.561422 
L 298.589845 109.368634 
L 301.982974 112.15808 
L 305.376102 108.744602 
L 308.769231 100.829216 
L 315.555488 80.50968 
L 318.948617 70.437662 
L 322.341745 61.048779 
L 325.734874 52.577194 
L 329.128002 44.710017 
L 332.521131 37.580283 
L 335.91426 31.884645 
L 339.307388 28.273091 
L 342.700517 27.433588 
L 346.093645 30.687181 
L 349.486774 38.294734 
L 352.879903 48.516629 
L 356.273031 59.177082 
L 359.66616 68.688315 
L 363.059289 75.4248 
L 366.452417 78.48488 
L 369.845546 78.853243 
L 373.238674 78.021737 
L 376.631803 76.172619 
L 380.024932 73.277982 
L 383.41806 70.160402 
L 386.811189 67.702966 
L 390.204317 66.794581 
L 393.597446 68.536578 
L 396.990575 73.200544 
L 400.383703 79.526902 
L 403.776832 85.301262 
L 407.16996 88.409425 
L 410.563089 87.689522 
L 413.956218 83.371137 
L 417.349346 77.035875 
L 420.742475 70.966775 
L 424.135604 66.681197 
L 427.528732 64.252796 
L 430.921861 63.378881 
L 434.314989 63.624618 
L 437.708118 63.734082 
L 441.101247 62.872183 
L 444.494375 61.740822 
L 447.887504 61.038483 
L 454.673761 59.954362 
L 458.06689 59.830151 
L 461.460018 60.289015 
L 464.853147 61.38952 
L 471.639404 64.516888 
L 475.032533 66.277993 
L 485.211919 72.216991 
L 488.605047 74.687626 
L 491.998176 76.323987 
L 495.391304 75.917034 
L 498.784433 73.274175 
L 502.177562 68.857489 
L 505.57069 63.906339 
L 508.963819 60.19173 
L 512.356947 58.701916 
L 515.750076 59.218462 
L 519.143205 60.548764 
L 522.536333 60.944491 
L 525.929462 58.980147 
L 529.32259 54.420448 
L 532.715719 48.883253 
L 536.108848 45.508303 
L 539.501976 46.97459 
L 542.895105 54.199237 
L 546.288234 66.596532 
L 553.074491 97.152519 
L 556.467619 108.78133 
L 559.860748 115.248287 
L 563.253877 115.824275 
L 566.647005 111.102072 
L 570.040134 102.459414 
L 573.433262 91.093601 
L 576.826391 78.85916 
L 580.21952 67.758932 
L 583.612648 58.664789 
L 587.005777 51.680965 
L 590.398905 46.154778 
L 593.792034 40.921256 
L 597.185163 36.099298 
L 600.578291 32.854511 
L 603.97142 31.523731 
L 607.364548 32.121484 
L 610.757677 34.859864 
L 614.150806 39.432586 
L 617.543934 45.534238 
L 620.937063 52.954118 
L 624.330192 60.97002 
L 631.116449 77.550241 
L 634.509577 84.191841 
L 637.902706 88.367446 
L 641.295835 90.873094 
L 644.688963 91.537021 
L 648.082092 89.642992 
L 651.47522 85.924764 
L 654.868349 81.324154 
L 658.261478 76.439712 
L 661.654606 72.612512 
L 665.047735 70.872004 
L 668.440863 70.811681 
L 671.833992 71.293532 
L 675.227121 70.883466 
L 678.620249 68.33784 
L 682.013378 63.407602 
L 688.799635 50.186279 
L 692.192764 45.384818 
L 695.585892 43.948162 
L 698.979021 46.759691 
L 702.37215 53.533501 
L 705.765278 62.70455 
L 709.158407 72.626208 
L 712.551535 81.947625 
L 715.944664 88.836077 
L 719.337793 91.819133 
L 722.730921 91.104026 
L 726.12405 87.599476 
L 729.517178 81.949861 
L 736.303436 67.963838 
L 739.696564 62.038759 
L 743.089693 57.89123 
L 746.482822 55.734558 
L 749.87595 55.497422 
L 753.269079 56.613722 
L 756.662207 58.070442 
L 760.055336 59.099198 
L 770.234722 61.113756 
L 773.62785 62.285737 
L 777.020979 64.10654 
L 780.414108 66.41229 
L 783.807236 68.279606 
L 787.200365 67.868919 
L 790.593493 63.52926 
L 793.986622 55.581385 
L 797.379751 45.805589 
L 800.772879 36.474335 
L 804.166008 31.371108 
L 807.559137 34.152405 
L 810.952265 44.967921 
L 814.345394 61.975386 
L 821.131651 103.939043 
L 824.52478 117.960826 
L 827.917908 123.12 
L 831.311037 120.660707 
L 834.704165 111.785997 
L 838.097294 98.810619 
L 841.490423 85.353317 
L 844.883551 73.202319 
L 848.27668 62.603017 
L 851.669808 54.366979 
L 855.062937 49.213847 
L 858.456066 47.093035 
L 861.849194 47.6636 
L 865.242323 50.17917 
L 868.635452 53.710725 
L 872.02858 57.832593 
L 875.421709 62.359515 
L 878.814837 66.300219 
L 882.207966 68.016176 
L 885.601095 66.733341 
L 888.994223 62.783651 
L 892.387352 56.941951 
L 895.78048 50.760218 
L 899.173609 46.835958 
L 902.566738 47.070726 
L 905.959866 51.133434 
L 909.352995 57.699865 
L 912.746123 65.354318 
L 916.139252 71.730841 
L 919.532381 75.038043 
L 922.925509 76.010713 
L 926.318638 75.998895 
L 929.711766 75.378117 
L 933.104895 75.002905 
L 936.498024 75.943472 
L 939.891152 78.032502 
L 943.284281 80.713941 
L 946.67741 83.792103 
L 950.070538 86.563785 
L 953.463667 88.058933 
L 956.856795 88.06702 
L 960.249924 86.678954 
L 963.643053 84.061404 
L 967.036181 80.693302 
L 970.42931 76.68923 
L 973.822438 71.892008 
L 980.608696 61.290255 
L 984.001824 56.372124 
L 987.394953 51.764218 
L 990.788081 47.690165 
L 994.18121 45.021919 
L 997.574339 44.107135 
L 1000.967467 44.580169 
L 1004.360596 46.317157 
L 1007.753725 49.016532 
L 1011.146853 51.980038 
L 1014.539982 55.306815 
L 1017.93311 59.296322 
L 1021.326239 63.060331 
L 1024.719368 65.941329 
L 1028.112496 68.219242 
L 1031.505625 69.570372 
L 1034.898753 69.521378 
L 1038.291882 68.819289 
L 1045.078139 67.743425 
L 1051.864396 66.948041 
L 1055.257525 66.046135 
L 1058.650654 65.522679 
L 1062.043782 66.951296 
L 1065.436911 70.364296 
L 1068.83004 74.445753 
L 1072.223168 78.169014 
L 1075.616297 80.771669 
L 1079.009425 81.647364 
L 1082.402554 81.320447 
L 1085.795683 80.823462 
L 1089.188811 80.083936 
L 1092.58194 78.434417 
L 1095.975068 75.971373 
L 1099.368197 73.121681 
L 1102.761326 70.052903 
L 1106.154454 67.286357 
L 1109.547583 65.531601 
L 1112.940711 64.25163 
L 1116.33384 61.991914 
L 1119.726969 57.78864 
L 1123.120097 51.312519 
L 1129.906355 34.768539 
L 1133.299483 29.984667 
L 1136.692612 31.952518 
L 1140.08574 42.113906 
L 1143.478869 59.125801 
L 1146.871998 79.629393 
L 1150.265126 99.376534 
L 1153.658255 113.82542 
L 1157.051383 119.779995 
L 1160.444512 117.085517 
L 1163.837641 107.918707 
L 1167.230769 94.928822 
L 1170.623898 80.78693 
L 1174.017026 67.678486 
L 1177.410155 56.894721 
L 1180.803284 49.691861 
L 1184.196412 46.942175 
L 1187.589541 47.820964 
L 1190.98267 50.765266 
L 1194.375798 54.736099 
L 1197.768927 58.477378 
L 1201.162055 60.61333 
L 1204.555184 61.167721 
L 1207.948313 61.122556 
L 1211.341441 60.832263 
L 1214.73457 60.378814 
L 1218.127698 60.354202 
L 1221.520827 61.077915 
L 1235.093341 65.289245 
L 1238.48647 66.141446 
L 1245.272727 67.553073 
L 1245.272727 67.553073 
" clip-path="url(#pf873d27e0d)" style="fill: none; stroke: #ff7f0e; stroke-width: 1.5; stroke-linecap: square"/>
   </g>
   <g id="line2d_14">
    <path d="M 230.727273 85.977762 
L 234.120401 87.667823 
L 237.51353 88.805675 
L 240.906659 88.814403 
L 244.299787 86.949321 
L 247.692916 83.220661 
L 251.086044 78.71294 
L 254.479173 74.724811 
L 257.872302 72.352872 
L 261.26543 72.665361 
L 264.658559 76.267829 
L 268.051687 82.718809 
L 271.444816 90.547184 
L 274.837945 97.911538 
L 278.231073 103.160605 
L 281.624202 104.782228 
L 285.01733 101.998286 
L 288.410459 95.457386 
L 291.803588 86.612356 
L 295.196716 76.608835 
L 298.589845 66.131902 
L 301.982974 56.147985 
L 305.376102 47.628075 
L 308.769231 40.565917 
L 312.162359 34.576664 
L 315.555488 29.917476 
L 318.948617 26.880539 
L 322.341745 25.322227 
L 325.734874 25.392213 
L 329.128002 27.447419 
L 332.521131 31.173248 
L 335.91426 36.350621 
L 339.307388 42.715599 
L 342.700517 50.025718 
L 346.093645 57.037013 
L 349.486774 62.709489 
L 352.879903 66.876046 
L 356.273031 69.56448 
L 359.66616 71.084887 
L 363.059289 72.390526 
L 366.452417 74.122485 
L 376.631803 80.214371 
L 380.024932 81.628137 
L 386.811189 83.560985 
L 390.204317 84.564145 
L 393.597446 84.344379 
L 396.990575 82.292424 
L 400.383703 78.989184 
L 403.776832 75.46009 
L 407.16996 72.632401 
L 410.563089 71.055721 
L 413.956218 70.542931 
L 420.742475 70.445246 
L 424.135604 70.116378 
L 427.528732 69.055016 
L 430.921861 67.036992 
L 437.708118 61.971032 
L 444.494375 56.703857 
L 447.887504 54.500599 
L 451.280632 52.985896 
L 454.673761 52.401118 
L 458.06689 52.7381 
L 461.460018 53.427617 
L 464.853147 53.858102 
L 468.246275 53.753021 
L 475.032533 53.014142 
L 481.81879 52.574162 
L 485.211919 52.124576 
L 488.605047 51.925624 
L 491.998176 52.626758 
L 495.391304 54.180234 
L 498.784433 56.611867 
L 502.177562 60.381334 
L 508.963819 69.970834 
L 512.356947 73.750723 
L 519.143205 79.562411 
L 522.536333 83.180189 
L 525.929462 88.349065 
L 529.32259 95.234858 
L 532.715719 102.631102 
L 536.108848 108.594761 
L 539.501976 111.805326 
L 542.895105 111.421255 
L 546.288234 107.161778 
L 549.681362 99.770787 
L 553.074491 90.610084 
L 563.253877 60.37776 
L 566.647005 51.725961 
L 570.040134 44.740951 
L 573.433262 40.228815 
L 576.826391 37.946245 
L 580.21952 36.545018 
L 583.612648 35.484381 
L 587.005777 35.391441 
L 590.398905 37.115967 
L 593.792034 40.607297 
L 597.185163 44.886439 
L 600.578291 49.515629 
L 603.97142 54.807599 
L 607.364548 60.375297 
L 614.150806 70.829097 
L 617.543934 75.663084 
L 620.937063 79.554155 
L 624.330192 82.085191 
L 627.72332 82.66275 
L 631.116449 81.423238 
L 637.902706 77.747651 
L 641.295835 75.730953 
L 644.688963 74.285468 
L 651.47522 72.872355 
L 654.868349 72.565324 
L 661.654606 73.622734 
L 665.047735 73.467226 
L 671.833992 72.339295 
L 675.227121 72.054317 
L 678.620249 72.721011 
L 682.013378 74.479991 
L 685.406507 77.262642 
L 692.192764 84.278086 
L 695.585892 86.826709 
L 698.979021 87.804523 
L 702.37215 86.975255 
L 705.765278 84.515924 
L 709.158407 80.587639 
L 712.551535 75.515509 
L 715.944664 70.175691 
L 719.337793 65.145541 
L 722.730921 60.396656 
L 726.12405 56.261174 
L 729.517178 52.984488 
L 736.303436 47.122342 
L 739.696564 44.75127 
L 749.87595 39.068643 
L 753.269079 38.333644 
L 756.662207 38.698044 
L 760.055336 39.943299 
L 763.448465 41.873938 
L 766.841593 44.182787 
L 777.020979 51.709263 
L 780.414108 53.90936 
L 783.807236 55.912194 
L 787.200365 58.501459 
L 790.593493 63.092696 
L 793.986622 70.458396 
L 797.379751 80.363156 
L 800.772879 91.453013 
L 804.166008 101.203331 
L 807.559137 107.812656 
L 810.952265 110.855872 
L 814.345394 109.670417 
L 817.738522 104.019417 
L 821.131651 95.624306 
L 824.52478 86.19239 
L 827.917908 76.383595 
L 831.311037 67.474598 
L 834.704165 60.726834 
L 838.097294 55.98748 
L 841.490423 52.661712 
L 844.883551 50.791839 
L 848.27668 50.545638 
L 855.062937 52.42408 
L 858.456066 52.526664 
L 861.849194 51.668175 
L 865.242323 50.589595 
L 868.635452 49.842159 
L 875.421709 48.688382 
L 878.814837 48.012095 
L 882.207966 47.820458 
L 885.601095 48.831599 
L 888.994223 51.925967 
L 892.387352 57.313056 
L 899.173609 70.20528 
L 902.566738 76.109608 
L 905.959866 81.381683 
L 909.352995 85.350759 
L 912.746123 87.865706 
L 916.139252 90.065873 
L 919.532381 92.930209 
L 922.925509 96.151593 
L 926.318638 98.859678 
L 929.711766 100.422038 
L 933.104895 100.707941 
L 939.891152 100.225577 
L 943.284281 99.339593 
L 946.67741 97.269698 
L 950.070538 94.213136 
L 953.463667 90.322368 
L 956.856795 85.687896 
L 960.249924 80.406399 
L 963.643053 74.232222 
L 967.036181 67.326433 
L 970.42931 60.912353 
L 973.822438 55.752589 
L 977.215567 51.530775 
L 980.608696 48.084326 
L 984.001824 45.895814 
L 987.394953 45.361268 
L 990.788081 46.023976 
L 994.18121 46.902512 
L 997.574339 47.434681 
L 1004.360596 47.985259 
L 1007.753725 48.793494 
L 1011.146853 49.952497 
L 1014.539982 51.249002 
L 1017.93311 52.696081 
L 1021.326239 53.858117 
L 1024.719368 54.115642 
L 1028.112496 53.914241 
L 1031.505625 54.222609 
L 1034.898753 55.225053 
L 1038.291882 56.731511 
L 1041.685011 58.688013 
L 1045.078139 60.488283 
L 1048.471268 61.730976 
L 1051.864396 63.097354 
L 1055.257525 64.986148 
L 1058.650654 66.626234 
L 1062.043782 67.398329 
L 1065.436911 67.344045 
L 1068.83004 66.50158 
L 1075.616297 63.321781 
L 1079.009425 62.273451 
L 1082.402554 61.34488 
L 1089.188811 59.098676 
L 1092.58194 58.25789 
L 1095.975068 57.753245 
L 1099.368197 57.790971 
L 1102.761326 58.304767 
L 1106.154454 59.049177 
L 1109.547583 59.937992 
L 1112.940711 61.356145 
L 1116.33384 63.906473 
L 1119.726969 68.11208 
L 1123.120097 74.577944 
L 1126.513226 83.415713 
L 1129.906355 93.506389 
L 1133.299483 102.86541 
L 1136.692612 109.42429 
L 1140.08574 112.041058 
L 1143.478869 110.76653 
L 1146.871998 106.174366 
L 1150.265126 99.068928 
L 1157.051383 82.874969 
L 1160.444512 75.798373 
L 1163.837641 70.056778 
L 1167.230769 66.005086 
L 1170.623898 63.357208 
L 1174.017026 61.937783 
L 1177.410155 61.701892 
L 1180.803284 61.942009 
L 1184.196412 61.953957 
L 1187.589541 61.567074 
L 1190.98267 60.599588 
L 1194.375798 59.126875 
L 1197.768927 57.818629 
L 1201.162055 57.204917 
L 1204.555184 57.077519 
L 1207.948313 57.120252 
L 1211.341441 57.445586 
L 1214.73457 58.18887 
L 1218.127698 59.111009 
L 1221.520827 59.897766 
L 1228.307084 61.149954 
L 1245.272727 63.205959 
L 1245.272727 63.205959 
" clip-path="url(#pf873d27e0d)" style="fill: none; stroke: #2ca02c; stroke-width: 1.5; stroke-linecap: square"/>
   </g>
   <g id="patch_3">
    <path d="M 180 128.16 
L 180 17.28 
" style="fill: none; stroke: #000000; stroke-width: 0.8; stroke-linejoin: miter; stroke-linecap: square"/>
   </g>
   <g id="patch_4">
    <path d="M 1296 128.16 
L 1296 17.28 
" style="fill: none; stroke: #000000; stroke-width: 0.8; stroke-linejoin: miter; stroke-linecap: square"/>
   </g>
   <g id="patch_5">
    <path d="M 180 128.16 
L 1296 128.16 
" style="fill: none; stroke: #000000; stroke-width: 0.8; stroke-linejoin: miter; stroke-linecap: square"/>
   </g>
   <g id="patch_6">
    <path d="M 180 17.28 
L 1296 17.28 
" style="fill: none; stroke: #000000; stroke-width: 0.8; stroke-linejoin: miter; stroke-linecap: square"/>
   </g>
  </g>
 </g>
 <defs>
  <clipPath id="pf873d27e0d">
   <rect x="180" y="17.28" width="1116" height="110.88"/>
  </clipPath>
 </defs>
</svg>
