<?xml version="1.0" encoding="utf-8" standalone="no"?>
<!DOCTYPE svg PUBLIC "-//W3C//DTD SVG 1.1//EN"
  "http://www.w3.org/Graphics/SVG/1.1/DTD/svg11.dtd">
<svg xmlns:xlink="http://www.w3.org/1999/xlink" width="288pt" height="2016pt" viewBox="0 0 288 2016" xmlns="http://www.w3.org/2000/svg" version="1.1">
 <metadata>
  <rdf:RDF xmlns:dc="http://purl.org/dc/elements/1.1/" xmlns:cc="http://creativecommons.org/ns#" xmlns:rdf="http://www.w3.org/1999/02/22-rdf-syntax-ns#">
   <cc:Work>
    <dc:type rdf:resource="http://purl.org/dc/dcmitype/StillImage"/>
    <dc:date>2023-08-08T00:45:11.453277</dc:date>
    <dc:format>image/svg+xml</dc:format>
    <dc:creator>
     <cc:Agent>
      <dc:title>Matplotlib v3.5.2, https://matplotlib.org/</dc:title>
     </cc:Agent>
    </dc:creator>
   </cc:Work>
  </rdf:RDF>
 </metadata>
 <defs>
  <style type="text/css">*{stroke-linejoin: round; stroke-linecap: butt}</style>
 </defs>
 <g id="figure_1">
  <g id="patch_1">
   <path d="M 0 2016 
L 288 2016 
L 288 0 
L 0 0 
L 0 2016 
z
" style="fill: none"/>
  </g>
  <g id="axes_1">
   <g id="line2d_1">
    <path d="M 46.145455 330.452309 
L 49.584592 330.761015 
L 53.023729 330.235992 
L 56.462866 330.166943 
L 59.902003 329.941681 
L 63.34114 329.809184 
L 66.780277 329.699319 
L 70.219414 329.638724 
L 73.658552 329.423492 
L 77.097689 328.990311 
L 80.536826 328.514609 
L 83.975963 328.074608 
L 87.4151 327.621329 
L 90.854237 327.116406 
L 94.293374 326.511477 
L 97.732512 325.396262 
L 101.171649 322.863757 
L 104.610786 318.408934 
L 108.049923 313.089311 
L 111.48906 309.468331 
L 114.928197 309.591695 
L 118.367334 313.178489 
L 121.806471 318.538606 
L 125.245609 324.272118 
L 128.684746 329.55943 
L 132.123883 333.936742 
L 135.56302 337.298921 
L 139.002157 339.752635 
L 142.441294 341.425588 
L 145.880431 342.424573 
L 149.319569 342.812442 
L 152.758706 342.693506 
L 156.197843 342.252287 
L 159.63698 341.63726 
L 163.076117 340.941156 
L 166.515254 340.158264 
L 169.954391 339.221857 
L 173.393529 338.220696 
L 176.832666 337.318452 
L 180.271803 336.450369 
L 183.71094 335.516429 
L 187.150077 334.674828 
L 190.589214 333.974198 
L 194.028351 333.263241 
L 197.467488 332.580074 
L 200.906626 331.95725 
L 204.345763 331.376422 
L 207.7849 330.908913 
L 211.224037 330.509849 
L 214.663174 330.11804 
L 218.102311 329.799426 
L 221.541448 329.487321 
L 224.980586 329.152077 
L 228.419723 328.889009 
L 231.85886 328.68476 
L 235.297997 328.493716 
L 238.737134 328.344939 
L 242.176271 328.275832 
L 245.615408 328.105898 
L 249.054545 328.061605 
" clip-path="url(#p2c7bd80da4)" style="fill: none; stroke: #1f77b4; stroke-width: 1.5; stroke-linecap: square"/>
   </g>
   <g id="line2d_2">
    <path d="M 80.536826 328.514609 
L 83.975963 328.074608 
L 87.4151 327.621329 
L 90.854237 327.116406 
L 94.293374 326.511477 
L 97.732512 325.396262 
L 101.171649 322.863757 
L 104.610786 318.408934 
L 108.049923 313.089311 
L 111.48906 309.468331 
L 114.928197 309.591695 
L 118.367334 313.178489 
L 121.806471 318.538606 
L 125.245609 324.272118 
L 128.684746 329.55943 
L 132.123883 333.936742 
L 135.56302 337.298921 
L 139.002157 339.752635 
L 142.441294 341.425588 
L 145.880431 342.424573 
L 149.319569 342.812442 
L 152.758706 342.693506 
L 156.197843 342.252287 
L 159.63698 341.63726 
L 163.076117 340.941156 
L 166.515254 340.158264 
L 169.954391 339.221857 
L 173.393529 338.220696 
L 176.832666 337.318452 
L 180.271803 336.450369 
" clip-path="url(#p2c7bd80da4)" style="fill: none; stroke: #ff0000; stroke-width: 3; stroke-linecap: square"/>
   </g>
  </g>
  <g id="axes_2">
   <g id="line2d_3">
    <path d="M 46.145455 596.564309 
L 49.584592 573.062915 
L 53.023729 573.26196 
L 56.462866 571.637665 
L 59.902003 570.029996 
L 63.34114 567.633333 
L 66.780277 564.659154 
L 70.219414 560.810426 
L 73.658552 557.347067 
L 77.097689 555.942525 
L 80.536826 556.844234 
L 83.975963 559.296664 
L 87.4151 562.632828 
L 90.854237 566.675515 
L 94.293374 572.201991 
L 97.732512 581.751075 
L 101.171649 599.786006 
L 104.610786 629.595105 
L 108.049923 666.840978 
L 111.48906 698.383871 
L 114.928197 713.485973 
L 118.367334 712.788628 
L 121.806471 702.939917 
L 125.245609 688.931717 
L 128.684746 673.593507 
L 132.123883 658.961024 
L 135.56302 645.704358 
L 139.002157 633.639579 
L 142.441294 623.016238 
L 145.880431 614.061613 
L 149.319569 606.691673 
L 152.758706 600.839003 
L 156.197843 596.175395 
L 159.63698 592.298697 
L 163.076117 589.024151 
L 166.515254 586.376459 
L 169.954391 584.480392 
L 173.393529 583.130198 
L 176.832666 581.956244 
L 180.271803 581.069214 
L 183.71094 580.550737 
L 187.150077 580.020678 
L 190.589214 579.420225 
L 194.028351 579.014669 
L 197.467488 578.697948 
L 200.906626 578.358708 
L 204.345763 578.023095 
L 207.7849 577.646095 
L 211.224037 577.400022 
L 214.663174 577.42939 
L 218.102311 577.447679 
L 221.541448 577.486448 
L 224.980586 577.922964 
L 228.419723 578.519348 
L 231.85886 579.064327 
L 235.297997 579.820664 
L 238.737134 580.788409 
L 242.176271 581.65015 
L 245.615408 582.826862 
L 249.054545 583.330995 
" clip-path="url(#pb16717b518)" style="fill: none; stroke: #1f77b4; stroke-width: 1.5; stroke-linecap: square"/>
   </g>
   <g id="line2d_4">
    <path d="M 80.536826 556.844234 
L 83.975963 559.296664 
L 87.4151 562.632828 
L 90.854237 566.675515 
L 94.293374 572.201991 
L 97.732512 581.751075 
L 101.171649 599.786006 
L 104.610786 629.595105 
L 108.049923 666.840978 
L 111.48906 698.383871 
L 114.928197 713.485973 
L 118.367334 712.788628 
L 121.806471 702.939917 
L 125.245609 688.931717 
L 128.684746 673.593507 
L 132.123883 658.961024 
L 135.56302 645.704358 
L 139.002157 633.639579 
L 142.441294 623.016238 
L 145.880431 614.061613 
L 149.319569 606.691673 
L 152.758706 600.839003 
L 156.197843 596.175395 
L 159.63698 592.298697 
L 163.076117 589.024151 
L 166.515254 586.376459 
L 169.954391 584.480392 
L 173.393529 583.130198 
L 176.832666 581.956244 
L 180.271803 581.069214 
" clip-path="url(#pb16717b518)" style="fill: none; stroke: #ff0000; stroke-width: 3; stroke-linecap: square"/>
   </g>
  </g>
  <g id="axes_3">
   <g id="line2d_5">
    <path d="M 46.145455 862.676309 
L 49.584592 863.782259 
L 53.023729 863.576829 
L 56.462866 863.607369 
L 59.902003 863.620498 
L 63.34114 863.724927 
L 66.780277 863.881728 
L 70.219414 864.135596 
L 73.658552 864.322313 
L 77.097689 864.229773 
L 80.536826 863.875534 
L 83.975963 863.421274 
L 87.4151 862.913528 
L 90.854237 862.302712 
L 94.293374 861.520027 
L 97.732512 860.109029 
L 101.171649 857.373654 
L 104.610786 853.714666 
L 108.049923 850.795586 
L 111.48906 849.895684 
L 114.928197 851.044834 
L 118.367334 853.510396 
L 121.806471 856.414804 
L 125.245609 859.166266 
L 128.684746 861.533536 
L 132.123883 863.414319 
L 135.56302 864.809009 
L 139.002157 865.820156 
L 142.441294 866.514614 
L 145.880431 866.918042 
L 149.319569 867.074278 
L 152.758706 867.05426 
L 156.197843 866.920546 
L 159.63698 866.713142 
L 163.076117 866.475111 
L 166.515254 866.211656 
L 169.954391 865.890851 
L 173.393529 865.553354 
L 176.832666 865.243738 
L 180.271803 864.930397 
L 183.71094 864.608942 
L 187.150077 864.320453 
L 190.589214 864.074822 
L 194.028351 863.847757 
L 197.467488 863.636702 
L 200.906626 863.437707 
L 204.345763 863.267138 
L 207.7849 863.145225 
L 211.224037 863.049411 
L 214.663174 862.969629 
L 218.102311 862.913457 
L 221.541448 862.839408 
L 224.980586 862.75785 
L 228.419723 862.706853 
L 231.85886 862.649549 
L 235.297997 862.587889 
L 238.737134 862.550604 
L 242.176271 862.518198 
L 245.615408 862.425273 
L 249.054545 862.421636 
" clip-path="url(#p5bf7ffce12)" style="fill: none; stroke: #1f77b4; stroke-width: 1.5; stroke-linecap: square"/>
   </g>
   <g id="line2d_6">
    <path d="M 80.536826 863.875534 
L 83.975963 863.421274 
L 87.4151 862.913528 
L 90.854237 862.302712 
L 94.293374 861.520027 
L 97.732512 860.109029 
L 101.171649 857.373654 
L 104.610786 853.714666 
L 108.049923 850.795586 
L 111.48906 849.895684 
L 114.928197 851.044834 
L 118.367334 853.510396 
L 121.806471 856.414804 
L 125.245609 859.166266 
L 128.684746 861.533536 
L 132.123883 863.414319 
L 135.56302 864.809009 
L 139.002157 865.820156 
L 142.441294 866.514614 
L 145.880431 866.918042 
L 149.319569 867.074278 
L 152.758706 867.05426 
L 156.197843 866.920546 
L 159.63698 866.713142 
L 163.076117 866.475111 
L 166.515254 866.211656 
L 169.954391 865.890851 
L 173.393529 865.553354 
L 176.832666 865.243738 
L 180.271803 864.930397 
" clip-path="url(#p5bf7ffce12)" style="fill: none; stroke: #ff0000; stroke-width: 3; stroke-linecap: square"/>
   </g>
  </g>
  <g id="axes_4">
   <g id="line2d_7">
    <path d="M 46.145455 1128.788309 
L 49.584592 1113.132111 
L 53.023729 1113.322758 
L 56.462866 1112.376995 
L 59.902003 1111.017678 
L 63.34114 1108.878509 
L 66.780277 1106.146836 
L 70.219414 1102.388365 
L 73.658552 1098.828164 
L 77.097689 1097.828123 
L 80.536826 1099.932382 
L 83.975963 1103.570508 
L 87.4151 1107.916374 
L 90.854237 1113.306167 
L 94.293374 1120.450656 
L 97.732512 1133.144357 
L 101.171649 1156.222237 
L 104.610786 1184.241774 
L 108.049923 1202.774241 
L 111.48906 1205.292695 
L 114.928197 1196.981681 
L 118.367334 1184.626839 
L 121.806471 1172.446872 
L 125.245609 1162.398193 
L 128.684746 1154.390878 
L 132.123883 1148.168685 
L 135.56302 1143.47089 
L 139.002157 1139.585954 
L 142.441294 1136.355158 
L 145.880431 1133.968816 
L 149.319569 1132.187921 
L 152.758706 1130.650837 
L 156.197843 1129.335259 
L 159.63698 1128.301735 
L 163.076117 1127.412093 
L 166.515254 1126.594964 
L 169.954391 1125.957877 
L 173.393529 1125.368115 
L 176.832666 1124.903696 
L 180.271803 1124.673202 
L 183.71094 1124.356248 
L 187.150077 1124.044308 
L 190.589214 1123.807119 
L 194.028351 1123.377454 
L 197.467488 1122.905462 
L 200.906626 1122.533414 
L 204.345763 1122.023973 
L 207.7849 1121.428214 
L 211.224037 1120.849402 
L 214.663174 1120.190182 
L 218.102311 1119.561099 
L 221.541448 1119.150065 
L 224.980586 1118.816913 
L 228.419723 1118.474385 
L 231.85886 1118.413229 
L 235.297997 1118.495408 
L 238.737134 1118.529759 
L 242.176271 1118.795693 
L 245.615408 1119.381396 
L 249.054545 1119.360583 
" clip-path="url(#p4a9c249c4d)" style="fill: none; stroke: #1f77b4; stroke-width: 1.5; stroke-linecap: square"/>
   </g>
   <g id="line2d_8">
    <path d="M 80.536826 1099.932382 
L 83.975963 1103.570508 
L 87.4151 1107.916374 
L 90.854237 1113.306167 
L 94.293374 1120.450656 
L 97.732512 1133.144357 
L 101.171649 1156.222237 
L 104.610786 1184.241774 
L 108.049923 1202.774241 
L 111.48906 1205.292695 
L 114.928197 1196.981681 
L 118.367334 1184.626839 
L 121.806471 1172.446872 
L 125.245609 1162.398193 
L 128.684746 1154.390878 
L 132.123883 1148.168685 
L 135.56302 1143.47089 
L 139.002157 1139.585954 
L 142.441294 1136.355158 
L 145.880431 1133.968816 
L 149.319569 1132.187921 
L 152.758706 1130.650837 
L 156.197843 1129.335259 
L 159.63698 1128.301735 
L 163.076117 1127.412093 
L 166.515254 1126.594964 
L 169.954391 1125.957877 
L 173.393529 1125.368115 
L 176.832666 1124.903696 
L 180.271803 1124.673202 
" clip-path="url(#p4a9c249c4d)" style="fill: none; stroke: #ff0000; stroke-width: 3; stroke-linecap: square"/>
   </g>
  </g>
  <g id="axes_5">
   <g id="line2d_9">
    <path d="M 46.145455 1394.900309 
L 49.584592 1396.993971 
L 53.023729 1396.988434 
L 56.462866 1397.121694 
L 59.902003 1397.304553 
L 63.34114 1397.582082 
L 66.780277 1397.932831 
L 70.219414 1398.407836 
L 73.658552 1398.860058 
L 77.097689 1399.008022 
L 80.536826 1398.782669 
L 83.975963 1398.363436 
L 87.4151 1397.852758 
L 90.854237 1397.219103 
L 94.293374 1396.37386 
L 97.732512 1394.878402 
L 101.171649 1392.165218 
L 104.610786 1388.776953 
L 108.049923 1386.303279 
L 111.48906 1385.591463 
L 114.928197 1386.206643 
L 118.367334 1387.418818 
L 121.806471 1388.71482 
L 125.245609 1389.843952 
L 128.684746 1390.793714 
L 132.123883 1391.571231 
L 135.56302 1392.196106 
L 139.002157 1392.744266 
L 142.441294 1393.223741 
L 145.880431 1393.606236 
L 149.319569 1393.916703 
L 152.758706 1394.191495 
L 156.197843 1394.432423 
L 159.63698 1394.635006 
L 163.076117 1394.814139 
L 166.515254 1394.977238 
L 169.954391 1395.112864 
L 173.393529 1395.235843 
L 176.832666 1395.338699 
L 180.271803 1395.410064 
L 183.71094 1395.486382 
L 187.150077 1395.559113 
L 190.589214 1395.620119 
L 194.028351 1395.698632 
L 197.467488 1395.779104 
L 200.906626 1395.847127 
L 204.345763 1395.928351 
L 207.7849 1396.015589 
L 211.224037 1396.096232 
L 214.663174 1396.180278 
L 218.102311 1396.258708 
L 221.541448 1396.313135 
L 224.980586 1396.352841 
L 228.419723 1396.388123 
L 231.85886 1396.392056 
L 235.297997 1396.376325 
L 238.737134 1396.360422 
L 242.176271 1396.318765 
L 245.615408 1396.240658 
L 249.054545 1396.235357 
" clip-path="url(#pccb7736000)" style="fill: none; stroke: #1f77b4; stroke-width: 1.5; stroke-linecap: square"/>
   </g>
   <g id="line2d_10">
    <path d="M 80.536826 1398.782669 
L 83.975963 1398.363436 
L 87.4151 1397.852758 
L 90.854237 1397.219103 
L 94.293374 1396.37386 
L 97.732512 1394.878402 
L 101.171649 1392.165218 
L 104.610786 1388.776953 
L 108.049923 1386.303279 
L 111.48906 1385.591463 
L 114.928197 1386.206643 
L 118.367334 1387.418818 
L 121.806471 1388.71482 
L 125.245609 1389.843952 
L 128.684746 1390.793714 
L 132.123883 1391.571231 
L 135.56302 1392.196106 
L 139.002157 1392.744266 
L 142.441294 1393.223741 
L 145.880431 1393.606236 
L 149.319569 1393.916703 
L 152.758706 1394.191495 
L 156.197843 1394.432423 
L 159.63698 1394.635006 
L 163.076117 1394.814139 
L 166.515254 1394.977238 
L 169.954391 1395.112864 
L 173.393529 1395.235843 
L 176.832666 1395.338699 
L 180.271803 1395.410064 
" clip-path="url(#pccb7736000)" style="fill: none; stroke: #ff0000; stroke-width: 3; stroke-linecap: square"/>
   </g>
  </g>
  <g id="axes_6">
   <g id="line2d_11">
    <path d="M 46.145455 1661.012309 
L 49.584592 1649.406136 
L 53.023729 1649.29995 
L 56.462866 1648.522185 
L 59.902003 1647.482353 
L 63.34114 1645.969111 
L 66.780277 1644.078986 
L 70.219414 1641.563467 
L 73.658552 1639.144177 
L 77.097689 1638.219538 
L 80.536826 1639.170646 
L 83.975963 1641.149548 
L 87.4151 1643.620481 
L 90.854237 1646.692889 
L 94.293374 1650.825036 
L 97.732512 1658.098976 
L 101.171649 1671.223453 
L 104.610786 1688.003919 
L 108.049923 1701.280105 
L 111.48906 1706.678537 
L 114.928197 1705.582648 
L 118.367334 1701.198132 
L 121.806471 1695.997011 
L 125.245609 1691.203921 
L 128.684746 1686.933912 
L 132.123883 1683.234971 
L 135.56302 1680.060506 
L 139.002157 1677.087145 
L 142.441294 1674.342452 
L 145.880431 1672.005834 
L 149.319569 1669.976567 
L 152.758706 1668.117346 
L 156.197843 1666.439052 
L 159.63698 1664.962148 
L 163.076117 1663.628343 
L 166.515254 1662.405873 
L 169.954391 1661.339008 
L 173.393529 1660.36641 
L 176.832666 1659.529556 
L 180.271803 1658.87149 
L 183.71094 1658.211188 
L 187.150077 1657.592125 
L 190.589214 1657.058068 
L 194.028351 1656.464233 
L 197.467488 1655.879075 
L 200.906626 1655.363873 
L 204.345763 1654.802947 
L 207.7849 1654.243846 
L 211.224037 1653.747292 
L 214.663174 1653.266667 
L 218.102311 1652.830766 
L 221.541448 1652.504751 
L 224.980586 1652.278643 
L 228.419723 1652.109613 
L 231.85886 1652.090422 
L 235.297997 1652.183905 
L 238.737134 1652.312482 
L 242.176271 1652.566524 
L 245.615408 1652.985226 
L 249.054545 1653.048629 
" clip-path="url(#pe030b779de)" style="fill: none; stroke: #1f77b4; stroke-width: 1.5; stroke-linecap: square"/>
   </g>
   <g id="line2d_12">
    <path d="M 80.536826 1639.170646 
L 83.975963 1641.149548 
L 87.4151 1643.620481 
L 90.854237 1646.692889 
L 94.293374 1650.825036 
L 97.732512 1658.098976 
L 101.171649 1671.223453 
L 104.610786 1688.003919 
L 108.049923 1701.280105 
L 111.48906 1706.678537 
L 114.928197 1705.582648 
L 118.367334 1701.198132 
L 121.806471 1695.997011 
L 125.245609 1691.203921 
L 128.684746 1686.933912 
L 132.123883 1683.234971 
L 135.56302 1680.060506 
L 139.002157 1677.087145 
L 142.441294 1674.342452 
L 145.880431 1672.005834 
L 149.319569 1669.976567 
L 152.758706 1668.117346 
L 156.197843 1666.439052 
L 159.63698 1664.962148 
L 163.076117 1663.628343 
L 166.515254 1662.405873 
L 169.954391 1661.339008 
L 173.393529 1660.36641 
L 176.832666 1659.529556 
L 180.271803 1658.87149 
" clip-path="url(#pe030b779de)" style="fill: none; stroke: #ff0000; stroke-width: 3; stroke-linecap: square"/>
   </g>
  </g>
 </g>
 <defs>
  <clipPath id="p2c7bd80da4">
   <rect x="36" y="241.92" width="223.2" height="221.76"/>
  </clipPath>
  <clipPath id="pb16717b518">
   <rect x="36" y="508.032" width="223.2" height="221.76"/>
  </clipPath>
  <clipPath id="p5bf7ffce12">
   <rect x="36" y="774.144" width="223.2" height="221.76"/>
  </clipPath>
  <clipPath id="p4a9c249c4d">
   <rect x="36" y="1040.256" width="223.2" height="221.76"/>
  </clipPath>
  <clipPath id="pccb7736000">
   <rect x="36" y="1306.368" width="223.2" height="221.76"/>
  </clipPath>
  <clipPath id="pe030b779de">
   <rect x="36" y="1572.48" width="223.2" height="221.76"/>
  </clipPath>
 </defs>
</svg>
