<?xml version="1.0" encoding="utf-8" standalone="no"?>
<!DOCTYPE svg PUBLIC "-//W3C//DTD SVG 1.1//EN"
  "http://www.w3.org/Graphics/SVG/1.1/DTD/svg11.dtd">
<svg xmlns:xlink="http://www.w3.org/1999/xlink" width="288pt" height="1440pt" viewBox="0 0 288 1440" xmlns="http://www.w3.org/2000/svg" version="1.1">
 <metadata>
  <rdf:RDF xmlns:dc="http://purl.org/dc/elements/1.1/" xmlns:cc="http://creativecommons.org/ns#" xmlns:rdf="http://www.w3.org/1999/02/22-rdf-syntax-ns#">
   <cc:Work>
    <dc:type rdf:resource="http://purl.org/dc/dcmitype/StillImage"/>
    <dc:date>2023-08-04T10:20:35.527704</dc:date>
    <dc:format>image/svg+xml</dc:format>
    <dc:creator>
     <cc:Agent>
      <dc:title>Matplotlib v3.5.2, https://matplotlib.org/</dc:title>
     </cc:Agent>
    </dc:creator>
   </cc:Work>
  </rdf:RDF>
 </metadata>
 <defs>
  <style type="text/css">*{stroke-linejoin: round; stroke-linecap: butt}</style>
 </defs>
 <g id="figure_1">
  <g id="patch_1">
   <path d="M 0 1440 
L 288 1440 
L 288 0 
L 0 0 
L 0 1440 
z
" style="fill: none"/>
  </g>
  <g id="axes_1">
   <g id="line2d_1">
    <path d="M 46.145455 206.83687 
L 49.584592 206.877979 
L 53.023729 207.036517 
L 56.462866 207.018751 
L 59.902003 207.03448 
L 63.34114 207.040731 
L 66.780277 207.051558 
L 70.219414 207.052358 
L 73.658552 207.052152 
L 77.097689 207.053841 
L 80.536826 207.056879 
L 83.975963 207.060545 
L 87.4151 207.043612 
L 90.854237 206.955379 
L 94.293374 206.743294 
L 97.732512 206.413466 
L 101.171649 206.062031 
L 104.610786 205.799852 
L 108.049923 205.673585 
L 111.48906 205.682338 
L 114.928197 205.799969 
L 118.367334 205.975687 
L 121.806471 206.164477 
L 125.245609 206.344071 
L 128.684746 206.506069 
L 132.123883 206.650317 
L 135.56302 206.777174 
L 139.002157 206.883779 
L 142.441294 206.970623 
L 145.880431 207.041493 
L 149.319569 207.097485 
L 152.758706 207.137978 
L 156.197843 207.166368 
L 159.63698 207.185755 
L 163.076117 207.193562 
L 166.515254 207.191416 
L 169.954391 207.185687 
L 173.393529 207.175583 
L 176.832666 207.159135 
L 180.271803 207.140331 
L 183.71094 207.12115 
L 187.150077 207.100245 
L 190.589214 207.076597 
L 194.028351 207.052067 
L 197.467488 207.029791 
L 200.906626 207.008768 
L 204.345763 206.984977 
L 207.7849 206.960366 
L 211.224037 206.940331 
L 214.663174 206.923607 
L 218.102311 206.905832 
L 221.541448 206.888166 
L 224.980586 206.873852 
L 228.419723 206.86198 
L 231.85886 206.851735 
L 235.297997 206.842359 
L 238.737134 206.832139 
L 242.176271 206.82214 
L 245.615408 206.81703 
L 249.054545 206.80934 
" clip-path="url(#p179b983adf)" style="fill: none; stroke: #1f77b4; stroke-width: 1.5; stroke-linecap: square"/>
   </g>
   <g id="line2d_2">
    <path d="M 80.536826 207.056879 
L 83.975963 207.060545 
L 87.4151 207.043612 
L 90.854237 206.955379 
L 94.293374 206.743294 
L 97.732512 206.413466 
L 101.171649 206.062031 
L 104.610786 205.799852 
L 108.049923 205.673585 
L 111.48906 205.682338 
L 114.928197 205.799969 
L 118.367334 205.975687 
L 121.806471 206.164477 
L 125.245609 206.344071 
L 128.684746 206.506069 
L 132.123883 206.650317 
L 135.56302 206.777174 
L 139.002157 206.883779 
L 142.441294 206.970623 
L 145.880431 207.041493 
L 149.319569 207.097485 
L 152.758706 207.137978 
L 156.197843 207.166368 
L 159.63698 207.185755 
L 163.076117 207.193562 
L 166.515254 207.191416 
L 169.954391 207.185687 
L 173.393529 207.175583 
L 176.832666 207.159135 
L 180.271803 207.140331 
" clip-path="url(#p179b983adf)" style="fill: none; stroke: #ff0000; stroke-width: 3; stroke-linecap: square"/>
   </g>
  </g>
  <g id="axes_2">
   <g id="line2d_3">
    <path d="M 46.145455 286.991087 
L 49.584592 285.669452 
L 53.023729 286.249599 
L 56.462866 285.864306 
L 59.902003 285.639493 
L 63.34114 285.237936 
L 66.780277 284.841131 
L 70.219414 284.447767 
L 73.658552 284.032177 
L 77.097689 283.552277 
L 80.536826 282.938694 
L 83.975963 281.932654 
L 87.4151 279.840784 
L 90.854237 275.778988 
L 94.293374 270.251726 
L 97.732512 266.159519 
L 101.171649 266.498892 
L 104.610786 271.386693 
L 108.049923 278.600966 
L 111.48906 285.958921 
L 114.928197 292.178087 
L 118.367334 296.666476 
L 121.806471 299.385192 
L 125.245609 300.659982 
L 128.684746 300.925059 
L 132.123883 300.581443 
L 135.56302 299.877934 
L 139.002157 298.951522 
L 142.441294 297.855693 
L 145.880431 296.670817 
L 149.319569 295.525188 
L 152.758706 294.389137 
L 156.197843 293.233662 
L 159.63698 292.18923 
L 163.076117 291.267387 
L 166.515254 290.356707 
L 169.954391 289.479395 
L 173.393529 288.724676 
L 176.832666 288.076636 
L 180.271803 287.487304 
L 183.71094 286.99422 
L 187.150077 286.588056 
L 190.589214 286.184636 
L 194.028351 285.810124 
L 197.467488 285.51309 
L 200.906626 285.274318 
L 204.345763 285.079021 
L 207.7849 284.902328 
L 211.224037 284.780535 
L 214.663174 284.728011 
L 218.102311 284.662414 
L 221.541448 284.602683 
L 224.980586 284.593336 
L 228.419723 284.596134 
L 231.85886 284.637645 
L 235.297997 284.725457 
L 238.737134 284.786213 
L 242.176271 284.806751 
L 245.615408 284.870443 
L 249.054545 284.998046 
" clip-path="url(#p05a2c0c18c)" style="fill: none; stroke: #1f77b4; stroke-width: 1.5; stroke-linecap: square"/>
   </g>
   <g id="line2d_4">
    <path d="M 80.536826 282.938694 
L 83.975963 281.932654 
L 87.4151 279.840784 
L 90.854237 275.778988 
L 94.293374 270.251726 
L 97.732512 266.159519 
L 101.171649 266.498892 
L 104.610786 271.386693 
L 108.049923 278.600966 
L 111.48906 285.958921 
L 114.928197 292.178087 
L 118.367334 296.666476 
L 121.806471 299.385192 
L 125.245609 300.659982 
L 128.684746 300.925059 
L 132.123883 300.581443 
L 135.56302 299.877934 
L 139.002157 298.951522 
L 142.441294 297.855693 
L 145.880431 296.670817 
L 149.319569 295.525188 
L 152.758706 294.389137 
L 156.197843 293.233662 
L 159.63698 292.18923 
L 163.076117 291.267387 
L 166.515254 290.356707 
L 169.954391 289.479395 
L 173.393529 288.724676 
L 176.832666 288.076636 
L 180.271803 287.487304 
" clip-path="url(#p05a2c0c18c)" style="fill: none; stroke: #ff0000; stroke-width: 3; stroke-linecap: square"/>
   </g>
  </g>
  <g id="axes_3">
   <g id="line2d_5">
    <path d="M 46.145455 367.145304 
L 49.584592 367.025158 
L 53.023729 367.045628 
L 56.462866 366.972069 
L 59.902003 366.911073 
L 63.34114 366.839504 
L 66.780277 366.771376 
L 70.219414 366.704245 
L 73.658552 366.638093 
L 77.097689 366.569365 
L 80.536826 366.492296 
L 83.975963 366.397291 
L 87.4151 366.28218 
L 90.854237 366.1656 
L 94.293374 366.078337 
L 97.732512 366.062432 
L 101.171649 366.16288 
L 104.610786 366.379476 
L 108.049923 366.662075 
L 111.48906 366.961306 
L 114.928197 367.245066 
L 118.367334 367.485075 
L 121.806471 367.664486 
L 125.245609 367.78623 
L 128.684746 367.862008 
L 132.123883 367.905527 
L 135.56302 367.9271 
L 139.002157 367.930677 
L 142.441294 367.91681 
L 145.880431 367.888515 
L 149.319569 367.852766 
L 152.758706 367.810911 
L 156.197843 367.761446 
L 159.63698 367.709205 
L 163.076117 367.65561 
L 166.515254 367.597186 
L 169.954391 367.538019 
L 173.393529 367.481616 
L 176.832666 367.425447 
L 180.271803 367.369333 
L 183.71094 367.31743 
L 187.150077 367.270745 
L 190.589214 367.223695 
L 194.028351 367.176721 
L 197.467488 367.136425 
L 200.906626 367.102217 
L 204.345763 367.070636 
L 207.7849 367.043196 
L 211.224037 367.022565 
L 214.663174 367.008508 
L 218.102311 366.996579 
L 221.541448 366.985133 
L 224.980586 366.97633 
L 228.419723 366.970921 
L 231.85886 366.969605 
L 235.297997 366.970235 
L 238.737134 366.969844 
L 242.176271 366.96985 
L 245.615408 366.973879 
L 249.054545 366.980228 
" clip-path="url(#p06d76e097d)" style="fill: none; stroke: #1f77b4; stroke-width: 1.5; stroke-linecap: square"/>
   </g>
   <g id="line2d_6">
    <path d="M 80.536826 366.492296 
L 83.975963 366.397291 
L 87.4151 366.28218 
L 90.854237 366.1656 
L 94.293374 366.078337 
L 97.732512 366.062432 
L 101.171649 366.16288 
L 104.610786 366.379476 
L 108.049923 366.662075 
L 111.48906 366.961306 
L 114.928197 367.245066 
L 118.367334 367.485075 
L 121.806471 367.664486 
L 125.245609 367.78623 
L 128.684746 367.862008 
L 132.123883 367.905527 
L 135.56302 367.9271 
L 139.002157 367.930677 
L 142.441294 367.91681 
L 145.880431 367.888515 
L 149.319569 367.852766 
L 152.758706 367.810911 
L 156.197843 367.761446 
L 159.63698 367.709205 
L 163.076117 367.65561 
L 166.515254 367.597186 
L 169.954391 367.538019 
L 173.393529 367.481616 
L 176.832666 367.425447 
L 180.271803 367.369333 
" clip-path="url(#p06d76e097d)" style="fill: none; stroke: #ff0000; stroke-width: 3; stroke-linecap: square"/>
   </g>
  </g>
  <g id="axes_4">
   <g id="line2d_7">
    <path d="M 46.145455 447.29952 
L 49.584592 445.32953 
L 53.023729 443.819211 
L 56.462866 443.459851 
L 59.902003 442.843118 
L 63.34114 442.175994 
L 66.780277 441.468724 
L 70.219414 440.895239 
L 73.658552 440.32279 
L 77.097689 439.669607 
L 80.536826 438.868815 
L 83.975963 437.704609 
L 87.4151 435.942454 
L 90.854237 433.673203 
L 94.293374 432.052691 
L 97.732512 433.249305 
L 101.171649 438.370787 
L 104.610786 446.093811 
L 108.049923 454.030768 
L 111.48906 460.428168 
L 114.928197 464.567562 
L 118.367334 466.55164 
L 121.806471 466.852529 
L 125.245609 465.99725 
L 128.684746 464.451316 
L 132.123883 462.560434 
L 135.56302 460.54094 
L 139.002157 458.543475 
L 142.441294 456.602258 
L 145.880431 454.739325 
L 149.319569 453.061642 
L 152.758706 451.561596 
L 156.197843 450.169119 
L 159.63698 448.958305 
L 163.076117 447.976063 
L 166.515254 447.107661 
L 169.954391 446.305347 
L 173.393529 445.657601 
L 176.832666 445.167362 
L 180.271803 444.7491 
L 183.71094 444.422015 
L 187.150077 444.200759 
L 190.589214 444.014702 
L 194.028351 443.86077 
L 197.467488 443.76165 
L 200.906626 443.713839 
L 204.345763 443.743199 
L 207.7849 443.813668 
L 211.224037 443.893954 
L 214.663174 444.009339 
L 218.102311 444.137696 
L 221.541448 444.270901 
L 224.980586 444.408663 
L 228.419723 444.538406 
L 231.85886 444.692386 
L 235.297997 444.876568 
L 238.737134 445.047842 
L 242.176271 445.189313 
L 245.615408 445.316499 
L 249.054545 445.531771 
" clip-path="url(#p17808ee8a3)" style="fill: none; stroke: #1f77b4; stroke-width: 1.5; stroke-linecap: square"/>
   </g>
   <g id="line2d_8">
    <path d="M 80.536826 438.868815 
L 83.975963 437.704609 
L 87.4151 435.942454 
L 90.854237 433.673203 
L 94.293374 432.052691 
L 97.732512 433.249305 
L 101.171649 438.370787 
L 104.610786 446.093811 
L 108.049923 454.030768 
L 111.48906 460.428168 
L 114.928197 464.567562 
L 118.367334 466.55164 
L 121.806471 466.852529 
L 125.245609 465.99725 
L 128.684746 464.451316 
L 132.123883 462.560434 
L 135.56302 460.54094 
L 139.002157 458.543475 
L 142.441294 456.602258 
L 145.880431 454.739325 
L 149.319569 453.061642 
L 152.758706 451.561596 
L 156.197843 450.169119 
L 159.63698 448.958305 
L 163.076117 447.976063 
L 166.515254 447.107661 
L 169.954391 446.305347 
L 173.393529 445.657601 
L 176.832666 445.167362 
L 180.271803 444.7491 
" clip-path="url(#p17808ee8a3)" style="fill: none; stroke: #ff0000; stroke-width: 3; stroke-linecap: square"/>
   </g>
  </g>
  <g id="axes_5">
   <g id="line2d_9">
    <path d="M 46.145455 527.453737 
L 49.584592 527.162774 
L 53.023729 526.710661 
L 56.462866 526.550243 
L 59.902003 526.318508 
L 63.34114 526.107911 
L 66.780277 525.898106 
L 70.219414 525.717182 
L 73.658552 525.547537 
L 77.097689 525.376898 
L 80.536826 525.199043 
L 83.975963 525.034389 
L 87.4151 525.079843 
L 90.854237 525.731413 
L 94.293374 527.135244 
L 97.732512 528.809507 
L 101.171649 530.032321 
L 104.610786 530.493232 
L 108.049923 530.359055 
L 111.48906 529.913014 
L 114.928197 529.374976 
L 118.367334 528.892648 
L 121.806471 528.523505 
L 125.245609 528.265216 
L 128.684746 528.090841 
L 132.123883 527.967437 
L 135.56302 527.880517 
L 139.002157 527.823154 
L 142.441294 527.784601 
L 145.880431 527.749538 
L 149.319569 527.714687 
L 152.758706 527.693415 
L 156.197843 527.677408 
L 159.63698 527.649352 
L 163.076117 527.618936 
L 166.515254 527.592578 
L 169.954391 527.5652 
L 173.393529 527.533227 
L 176.832666 527.4952 
L 180.271803 527.450637 
L 183.71094 527.402673 
L 187.150077 527.360753 
L 190.589214 527.323832 
L 194.028351 527.283172 
L 197.467488 527.246175 
L 200.906626 527.217268 
L 204.345763 527.196339 
L 207.7849 527.189779 
L 211.224037 527.186363 
L 214.663174 527.185276 
L 218.102311 527.198115 
L 221.541448 527.211309 
L 224.980586 527.215345 
L 228.419723 527.223848 
L 231.85886 527.235883 
L 235.297997 527.243274 
L 238.737134 527.254693 
L 242.176271 527.275878 
L 245.615408 527.290978 
L 249.054545 527.307914 
" clip-path="url(#p9fba55dc57)" style="fill: none; stroke: #1f77b4; stroke-width: 1.5; stroke-linecap: square"/>
   </g>
   <g id="line2d_10">
    <path d="M 80.536826 525.199043 
L 83.975963 525.034389 
L 87.4151 525.079843 
L 90.854237 525.731413 
L 94.293374 527.135244 
L 97.732512 528.809507 
L 101.171649 530.032321 
L 104.610786 530.493232 
L 108.049923 530.359055 
L 111.48906 529.913014 
L 114.928197 529.374976 
L 118.367334 528.892648 
L 121.806471 528.523505 
L 125.245609 528.265216 
L 128.684746 528.090841 
L 132.123883 527.967437 
L 135.56302 527.880517 
L 139.002157 527.823154 
L 142.441294 527.784601 
L 145.880431 527.749538 
L 149.319569 527.714687 
L 152.758706 527.693415 
L 156.197843 527.677408 
L 159.63698 527.649352 
L 163.076117 527.618936 
L 166.515254 527.592578 
L 169.954391 527.5652 
L 173.393529 527.533227 
L 176.832666 527.4952 
L 180.271803 527.450637 
" clip-path="url(#p9fba55dc57)" style="fill: none; stroke: #ff0000; stroke-width: 3; stroke-linecap: square"/>
   </g>
  </g>
  <g id="axes_6">
   <g id="line2d_11">
    <path d="M 46.145455 607.607954 
L 49.584592 606.218828 
L 53.023729 604.058595 
L 56.462866 603.566212 
L 59.902003 602.701856 
L 63.34114 601.921427 
L 66.780277 601.120676 
L 70.219414 600.46492 
L 73.658552 599.846322 
L 77.097689 599.202773 
L 80.536826 598.504317 
L 83.975963 597.771919 
L 87.4151 597.616511 
L 90.854237 599.403151 
L 94.293374 603.965429 
L 97.732512 610.269726 
L 101.171649 616.065711 
L 104.610786 619.807338 
L 108.049923 621.373295 
L 111.48906 621.268394 
L 114.928197 620.093063 
L 118.367334 618.473084 
L 121.806471 616.81851 
L 125.245609 615.297884 
L 128.684746 613.949295 
L 132.123883 612.742687 
L 135.56302 611.676094 
L 139.002157 610.767649 
L 142.441294 609.990374 
L 145.880431 609.290576 
L 149.319569 608.675912 
L 152.758706 608.186834 
L 156.197843 607.773761 
L 159.63698 607.389481 
L 163.076117 607.080489 
L 166.515254 606.838174 
L 169.954391 606.617375 
L 173.393529 606.427354 
L 176.832666 606.270687 
L 180.271803 606.116245 
L 183.71094 605.970768 
L 187.150077 605.869704 
L 190.589214 605.799358 
L 194.028351 605.727003 
L 197.467488 605.669065 
L 200.906626 605.641316 
L 204.345763 605.661511 
L 207.7849 605.735363 
L 211.224037 605.805734 
L 214.663174 605.87924 
L 218.102311 606.000306 
L 221.541448 606.12303 
L 224.980586 606.208444 
L 228.419723 606.297727 
L 231.85886 606.39706 
L 235.297997 606.48564 
L 238.737134 606.586445 
L 242.176271 606.709867 
L 245.615408 606.796483 
L 249.054545 606.914232 
" clip-path="url(#p5a833c0436)" style="fill: none; stroke: #1f77b4; stroke-width: 1.5; stroke-linecap: square"/>
   </g>
   <g id="line2d_12">
    <path d="M 80.536826 598.504317 
L 83.975963 597.771919 
L 87.4151 597.616511 
L 90.854237 599.403151 
L 94.293374 603.965429 
L 97.732512 610.269726 
L 101.171649 616.065711 
L 104.610786 619.807338 
L 108.049923 621.373295 
L 111.48906 621.268394 
L 114.928197 620.093063 
L 118.367334 618.473084 
L 121.806471 616.81851 
L 125.245609 615.297884 
L 128.684746 613.949295 
L 132.123883 612.742687 
L 135.56302 611.676094 
L 139.002157 610.767649 
L 142.441294 609.990374 
L 145.880431 609.290576 
L 149.319569 608.675912 
L 152.758706 608.186834 
L 156.197843 607.773761 
L 159.63698 607.389481 
L 163.076117 607.080489 
L 166.515254 606.838174 
L 169.954391 606.617375 
L 173.393529 606.427354 
L 176.832666 606.270687 
L 180.271803 606.116245 
" clip-path="url(#p5a833c0436)" style="fill: none; stroke: #ff0000; stroke-width: 3; stroke-linecap: square"/>
   </g>
  </g>
  <g id="axes_7">
   <g id="line2d_13">
    <path d="M 46.145455 687.762171 
L 49.584592 687.432449 
L 53.023729 686.768054 
L 56.462866 686.575278 
L 59.902003 686.272712 
L 63.34114 686.009293 
L 66.780277 685.745926 
L 70.219414 685.52289 
L 73.658552 685.316336 
L 77.097689 685.111453 
L 80.536826 684.903557 
L 83.975963 684.7336 
L 87.4151 684.90573 
L 90.854237 686.006573 
L 94.293374 688.215326 
L 97.732512 690.733163 
L 101.171649 692.418477 
L 104.610786 692.829272 
L 108.049923 692.296923 
L 111.48906 691.315249 
L 114.928197 690.250554 
L 118.367334 689.340541 
L 121.806471 688.672035 
L 125.245609 688.22878 
L 128.684746 687.953509 
L 132.123883 687.781216 
L 135.56302 687.679501 
L 139.002157 687.63244 
L 142.441294 687.622739 
L 145.880431 687.625011 
L 149.319569 687.628027 
L 152.758706 687.651401 
L 156.197843 687.684883 
L 159.63698 687.69793 
L 163.076117 687.703403 
L 166.515254 687.715422 
L 169.954391 687.724943 
L 173.393529 687.722681 
L 176.832666 687.707822 
L 180.271803 687.681535 
L 183.71094 687.645761 
L 187.150077 687.613906 
L 190.589214 687.589089 
L 194.028351 687.557899 
L 197.467488 687.527249 
L 200.906626 687.504251 
L 204.345763 687.490196 
L 207.7849 687.494635 
L 211.224037 687.499695 
L 214.663174 687.50375 
L 218.102311 687.52738 
L 221.541448 687.551166 
L 224.980586 687.559472 
L 228.419723 687.572747 
L 231.85886 687.588495 
L 235.297997 687.595461 
L 238.737134 687.609382 
L 242.176271 687.638477 
L 245.615408 687.656339 
L 249.054545 687.673798 
" clip-path="url(#p937d4ca573)" style="fill: none; stroke: #1f77b4; stroke-width: 1.5; stroke-linecap: square"/>
   </g>
   <g id="line2d_14">
    <path d="M 80.536826 684.903557 
L 83.975963 684.7336 
L 87.4151 684.90573 
L 90.854237 686.006573 
L 94.293374 688.215326 
L 97.732512 690.733163 
L 101.171649 692.418477 
L 104.610786 692.829272 
L 108.049923 692.296923 
L 111.48906 691.315249 
L 114.928197 690.250554 
L 118.367334 689.340541 
L 121.806471 688.672035 
L 125.245609 688.22878 
L 128.684746 687.953509 
L 132.123883 687.781216 
L 135.56302 687.679501 
L 139.002157 687.63244 
L 142.441294 687.622739 
L 145.880431 687.625011 
L 149.319569 687.628027 
L 152.758706 687.651401 
L 156.197843 687.684883 
L 159.63698 687.69793 
L 163.076117 687.703403 
L 166.515254 687.715422 
L 169.954391 687.724943 
L 173.393529 687.722681 
L 176.832666 687.707822 
L 180.271803 687.681535 
" clip-path="url(#p937d4ca573)" style="fill: none; stroke: #ff0000; stroke-width: 3; stroke-linecap: square"/>
   </g>
  </g>
  <g id="axes_8">
   <g id="line2d_15">
    <path d="M 46.145455 767.916388 
L 49.584592 766.860171 
L 53.023729 764.983941 
L 56.462866 764.430839 
L 59.902003 763.568806 
L 63.34114 762.80409 
L 66.780277 762.036873 
L 70.219414 761.387435 
L 73.658552 760.781833 
L 77.097689 760.173528 
L 80.536826 759.543549 
L 83.975963 758.980585 
L 87.4151 759.268895 
L 90.854237 761.970081 
L 94.293374 767.658575 
L 97.732512 774.408967 
L 101.171649 779.303291 
L 104.610786 781.064565 
L 108.049923 780.36308 
L 111.48906 778.350701 
L 114.928197 775.930539 
L 118.367334 773.73392 
L 121.806471 772.025883 
L 125.245609 770.807294 
L 128.684746 769.96724 
L 132.123883 769.3649 
L 135.56302 768.934355 
L 139.002157 768.646647 
L 142.441294 768.458978 
L 145.880431 768.306625 
L 149.319569 768.170027 
L 152.758706 768.100655 
L 156.197843 768.06538 
L 159.63698 767.990479 
L 163.076117 767.914064 
L 166.515254 767.863374 
L 169.954391 767.811368 
L 173.393529 767.741432 
L 176.832666 767.65118 
L 180.271803 767.536638 
L 183.71094 767.405312 
L 187.150077 767.294031 
L 190.589214 767.204173 
L 194.028351 767.100119 
L 197.467488 767.00327 
L 200.906626 766.932025 
L 204.345763 766.891253 
L 207.7849 766.90353 
L 211.224037 766.919558 
L 214.663174 766.937064 
L 218.102311 767.007784 
L 221.541448 767.079404 
L 224.980586 767.110989 
L 228.419723 767.155697 
L 231.85886 767.209713 
L 235.297997 767.243369 
L 238.737134 767.294151 
L 242.176271 767.382672 
L 245.615408 767.441098 
L 249.054545 767.506133 
" clip-path="url(#p27aac6020a)" style="fill: none; stroke: #1f77b4; stroke-width: 1.5; stroke-linecap: square"/>
   </g>
   <g id="line2d_16">
    <path d="M 80.536826 759.543549 
L 83.975963 758.980585 
L 87.4151 759.268895 
L 90.854237 761.970081 
L 94.293374 767.658575 
L 97.732512 774.408967 
L 101.171649 779.303291 
L 104.610786 781.064565 
L 108.049923 780.36308 
L 111.48906 778.350701 
L 114.928197 775.930539 
L 118.367334 773.73392 
L 121.806471 772.025883 
L 125.245609 770.807294 
L 128.684746 769.96724 
L 132.123883 769.3649 
L 135.56302 768.934355 
L 139.002157 768.646647 
L 142.441294 768.458978 
L 145.880431 768.306625 
L 149.319569 768.170027 
L 152.758706 768.100655 
L 156.197843 768.06538 
L 159.63698 767.990479 
L 163.076117 767.914064 
L 166.515254 767.863374 
L 169.954391 767.811368 
L 173.393529 767.741432 
L 176.832666 767.65118 
L 180.271803 767.536638 
" clip-path="url(#p27aac6020a)" style="fill: none; stroke: #ff0000; stroke-width: 3; stroke-linecap: square"/>
   </g>
  </g>
 </g>
 <defs>
  <clipPath id="p179b983adf">
   <rect x="36" y="172.8" width="223.2" height="66.795181"/>
  </clipPath>
  <clipPath id="p05a2c0c18c">
   <rect x="36" y="252.954217" width="223.2" height="66.795181"/>
  </clipPath>
  <clipPath id="p06d76e097d">
   <rect x="36" y="333.108434" width="223.2" height="66.795181"/>
  </clipPath>
  <clipPath id="p17808ee8a3">
   <rect x="36" y="413.262651" width="223.2" height="66.795181"/>
  </clipPath>
  <clipPath id="p9fba55dc57">
   <rect x="36" y="493.416867" width="223.2" height="66.795181"/>
  </clipPath>
  <clipPath id="p5a833c0436">
   <rect x="36" y="573.571084" width="223.2" height="66.795181"/>
  </clipPath>
  <clipPath id="p937d4ca573">
   <rect x="36" y="653.725301" width="223.2" height="66.795181"/>
  </clipPath>
  <clipPath id="p27aac6020a">
   <rect x="36" y="733.879518" width="223.2" height="66.795181"/>
  </clipPath>
 </defs>
</svg>
