<?xml version="1.0" encoding="utf-8" standalone="no"?>
<!DOCTYPE svg PUBLIC "-//W3C//DTD SVG 1.1//EN"
  "http://www.w3.org/Graphics/SVG/1.1/DTD/svg11.dtd">
<svg xmlns:xlink="http://www.w3.org/1999/xlink" width="1440pt" height="2016pt" viewBox="0 0 1440 2016" xmlns="http://www.w3.org/2000/svg" version="1.1">
 <metadata>
  <rdf:RDF xmlns:dc="http://purl.org/dc/elements/1.1/" xmlns:cc="http://creativecommons.org/ns#" xmlns:rdf="http://www.w3.org/1999/02/22-rdf-syntax-ns#">
   <cc:Work>
    <dc:type rdf:resource="http://purl.org/dc/dcmitype/StillImage"/>
    <dc:date>2023-08-08T00:35:19.899910</dc:date>
    <dc:format>image/svg+xml</dc:format>
    <dc:creator>
     <cc:Agent>
      <dc:title>Matplotlib v3.5.2, https://matplotlib.org/</dc:title>
     </cc:Agent>
    </dc:creator>
   </cc:Work>
  </rdf:RDF>
 </metadata>
 <defs>
  <style type="text/css">*{stroke-linejoin: round; stroke-linecap: butt}</style>
 </defs>
 <g id="figure_1">
  <g id="patch_1">
   <path d="M 0 2016 
L 1440 2016 
L 1440 0 
L 0 0 
L 0 2016 
z
" style="fill: none"/>
  </g>
  <g id="axes_1">
   <g id="patch_2">
    <path d="M 180 463.68 
L 1296 463.68 
L 1296 241.92 
L 180 241.92 
L 180 463.68 
z
" style="fill: none"/>
   </g>
   <g id="matplotlib.axis_1">
    <g id="xtick_1">
     <g id="line2d_1">
      <defs>
       <path id="m481910ba29" d="M 0 0 
L 0 3.5 
" style="stroke: #000000; stroke-width: 0.8"/>
      </defs>
      <g>
       <use xlink:href="#m481910ba29" x="230.727273" y="463.68" style="stroke: #000000; stroke-width: 0.8"/>
      </g>
     </g>
     <g id="text_1">
      <!-- 0 -->
      <g transform="translate(227.546023 478.278438)scale(0.1 -0.1)">
       <defs>
        <path id="DejaVuSans-30" d="M 2034 4250 
Q 1547 4250 1301 3770 
Q 1056 3291 1056 2328 
Q 1056 1369 1301 889 
Q 1547 409 2034 409 
Q 2525 409 2770 889 
Q 3016 1369 3016 2328 
Q 3016 3291 2770 3770 
Q 2525 4250 2034 4250 
z
M 2034 4750 
Q 2819 4750 3233 4129 
Q 3647 3509 3647 2328 
Q 3647 1150 3233 529 
Q 2819 -91 2034 -91 
Q 1250 -91 836 529 
Q 422 1150 422 2328 
Q 422 3509 836 4129 
Q 1250 4750 2034 4750 
z
" transform="scale(0.015625)"/>
       </defs>
       <use xlink:href="#DejaVuSans-30"/>
      </g>
     </g>
    </g>
    <g id="xtick_2">
     <g id="line2d_2">
      <g>
       <use xlink:href="#m481910ba29" x="400.383703" y="463.68" style="stroke: #000000; stroke-width: 0.8"/>
      </g>
     </g>
     <g id="text_2">
      <!-- 50 -->
      <g transform="translate(394.021203 478.278438)scale(0.1 -0.1)">
       <defs>
        <path id="DejaVuSans-35" d="M 691 4666 
L 3169 4666 
L 3169 4134 
L 1269 4134 
L 1269 2991 
Q 1406 3038 1543 3061 
Q 1681 3084 1819 3084 
Q 2600 3084 3056 2656 
Q 3513 2228 3513 1497 
Q 3513 744 3044 326 
Q 2575 -91 1722 -91 
Q 1428 -91 1123 -41 
Q 819 9 494 109 
L 494 744 
Q 775 591 1075 516 
Q 1375 441 1709 441 
Q 2250 441 2565 725 
Q 2881 1009 2881 1497 
Q 2881 1984 2565 2268 
Q 2250 2553 1709 2553 
Q 1456 2553 1204 2497 
Q 953 2441 691 2322 
L 691 4666 
z
" transform="scale(0.015625)"/>
       </defs>
       <use xlink:href="#DejaVuSans-35"/>
       <use xlink:href="#DejaVuSans-30" x="63.623047"/>
      </g>
     </g>
    </g>
    <g id="xtick_3">
     <g id="line2d_3">
      <g>
       <use xlink:href="#m481910ba29" x="570.040134" y="463.68" style="stroke: #000000; stroke-width: 0.8"/>
      </g>
     </g>
     <g id="text_3">
      <!-- 100 -->
      <g transform="translate(560.496384 478.278438)scale(0.1 -0.1)">
       <defs>
        <path id="DejaVuSans-31" d="M 794 531 
L 1825 531 
L 1825 4091 
L 703 3866 
L 703 4441 
L 1819 4666 
L 2450 4666 
L 2450 531 
L 3481 531 
L 3481 0 
L 794 0 
L 794 531 
z
" transform="scale(0.015625)"/>
       </defs>
       <use xlink:href="#DejaVuSans-31"/>
       <use xlink:href="#DejaVuSans-30" x="63.623047"/>
       <use xlink:href="#DejaVuSans-30" x="127.246094"/>
      </g>
     </g>
    </g>
    <g id="xtick_4">
     <g id="line2d_4">
      <g>
       <use xlink:href="#m481910ba29" x="739.696564" y="463.68" style="stroke: #000000; stroke-width: 0.8"/>
      </g>
     </g>
     <g id="text_4">
      <!-- 150 -->
      <g transform="translate(730.152814 478.278438)scale(0.1 -0.1)">
       <use xlink:href="#DejaVuSans-31"/>
       <use xlink:href="#DejaVuSans-35" x="63.623047"/>
       <use xlink:href="#DejaVuSans-30" x="127.246094"/>
      </g>
     </g>
    </g>
    <g id="xtick_5">
     <g id="line2d_5">
      <g>
       <use xlink:href="#m481910ba29" x="909.352995" y="463.68" style="stroke: #000000; stroke-width: 0.8"/>
      </g>
     </g>
     <g id="text_5">
      <!-- 200 -->
      <g transform="translate(899.809245 478.278438)scale(0.1 -0.1)">
       <defs>
        <path id="DejaVuSans-32" d="M 1228 531 
L 3431 531 
L 3431 0 
L 469 0 
L 469 531 
Q 828 903 1448 1529 
Q 2069 2156 2228 2338 
Q 2531 2678 2651 2914 
Q 2772 3150 2772 3378 
Q 2772 3750 2511 3984 
Q 2250 4219 1831 4219 
Q 1534 4219 1204 4116 
Q 875 4013 500 3803 
L 500 4441 
Q 881 4594 1212 4672 
Q 1544 4750 1819 4750 
Q 2544 4750 2975 4387 
Q 3406 4025 3406 3419 
Q 3406 3131 3298 2873 
Q 3191 2616 2906 2266 
Q 2828 2175 2409 1742 
Q 1991 1309 1228 531 
z
" transform="scale(0.015625)"/>
       </defs>
       <use xlink:href="#DejaVuSans-32"/>
       <use xlink:href="#DejaVuSans-30" x="63.623047"/>
       <use xlink:href="#DejaVuSans-30" x="127.246094"/>
      </g>
     </g>
    </g>
    <g id="xtick_6">
     <g id="line2d_6">
      <g>
       <use xlink:href="#m481910ba29" x="1079.009425" y="463.68" style="stroke: #000000; stroke-width: 0.8"/>
      </g>
     </g>
     <g id="text_6">
      <!-- 250 -->
      <g transform="translate(1069.465675 478.278438)scale(0.1 -0.1)">
       <use xlink:href="#DejaVuSans-32"/>
       <use xlink:href="#DejaVuSans-35" x="63.623047"/>
       <use xlink:href="#DejaVuSans-30" x="127.246094"/>
      </g>
     </g>
    </g>
    <g id="xtick_7">
     <g id="line2d_7">
      <g>
       <use xlink:href="#m481910ba29" x="1248.665856" y="463.68" style="stroke: #000000; stroke-width: 0.8"/>
      </g>
     </g>
     <g id="text_7">
      <!-- 300 -->
      <g transform="translate(1239.122106 478.278438)scale(0.1 -0.1)">
       <defs>
        <path id="DejaVuSans-33" d="M 2597 2516 
Q 3050 2419 3304 2112 
Q 3559 1806 3559 1356 
Q 3559 666 3084 287 
Q 2609 -91 1734 -91 
Q 1441 -91 1130 -33 
Q 819 25 488 141 
L 488 750 
Q 750 597 1062 519 
Q 1375 441 1716 441 
Q 2309 441 2620 675 
Q 2931 909 2931 1356 
Q 2931 1769 2642 2001 
Q 2353 2234 1838 2234 
L 1294 2234 
L 1294 2753 
L 1863 2753 
Q 2328 2753 2575 2939 
Q 2822 3125 2822 3475 
Q 2822 3834 2567 4026 
Q 2313 4219 1838 4219 
Q 1578 4219 1281 4162 
Q 984 4106 628 3988 
L 628 4550 
Q 988 4650 1302 4700 
Q 1616 4750 1894 4750 
Q 2613 4750 3031 4423 
Q 3450 4097 3450 3541 
Q 3450 3153 3228 2886 
Q 3006 2619 2597 2516 
z
" transform="scale(0.015625)"/>
       </defs>
       <use xlink:href="#DejaVuSans-33"/>
       <use xlink:href="#DejaVuSans-30" x="63.623047"/>
       <use xlink:href="#DejaVuSans-30" x="127.246094"/>
      </g>
     </g>
    </g>
   </g>
   <g id="matplotlib.axis_2">
    <g id="ytick_1">
     <g id="line2d_8">
      <defs>
       <path id="m16f436d8a0" d="M 0 0 
L -3.5 0 
" style="stroke: #000000; stroke-width: 0.8"/>
      </defs>
      <g>
       <use xlink:href="#m16f436d8a0" x="180" y="445.2" style="stroke: #000000; stroke-width: 0.8"/>
      </g>
     </g>
     <g id="text_8">
      <!-- −150 -->
      <g transform="translate(145.532813 448.999219)scale(0.1 -0.1)">
       <defs>
        <path id="DejaVuSans-2212" d="M 678 2272 
L 4684 2272 
L 4684 1741 
L 678 1741 
L 678 2272 
z
" transform="scale(0.015625)"/>
       </defs>
       <use xlink:href="#DejaVuSans-2212"/>
       <use xlink:href="#DejaVuSans-31" x="83.789062"/>
       <use xlink:href="#DejaVuSans-35" x="147.412109"/>
       <use xlink:href="#DejaVuSans-30" x="211.035156"/>
      </g>
     </g>
    </g>
    <g id="ytick_2">
     <g id="line2d_9">
      <g>
       <use xlink:href="#m16f436d8a0" x="180" y="414.4" style="stroke: #000000; stroke-width: 0.8"/>
      </g>
     </g>
     <g id="text_9">
      <!-- −100 -->
      <g transform="translate(145.532813 418.199219)scale(0.1 -0.1)">
       <use xlink:href="#DejaVuSans-2212"/>
       <use xlink:href="#DejaVuSans-31" x="83.789062"/>
       <use xlink:href="#DejaVuSans-30" x="147.412109"/>
       <use xlink:href="#DejaVuSans-30" x="211.035156"/>
      </g>
     </g>
    </g>
    <g id="ytick_3">
     <g id="line2d_10">
      <g>
       <use xlink:href="#m16f436d8a0" x="180" y="383.6" style="stroke: #000000; stroke-width: 0.8"/>
      </g>
     </g>
     <g id="text_10">
      <!-- −50 -->
      <g transform="translate(151.895312 387.399219)scale(0.1 -0.1)">
       <use xlink:href="#DejaVuSans-2212"/>
       <use xlink:href="#DejaVuSans-35" x="83.789062"/>
       <use xlink:href="#DejaVuSans-30" x="147.412109"/>
      </g>
     </g>
    </g>
    <g id="ytick_4">
     <g id="line2d_11">
      <g>
       <use xlink:href="#m16f436d8a0" x="180" y="352.8" style="stroke: #000000; stroke-width: 0.8"/>
      </g>
     </g>
     <g id="text_11">
      <!-- 0 -->
      <g transform="translate(166.6375 356.599219)scale(0.1 -0.1)">
       <use xlink:href="#DejaVuSans-30"/>
      </g>
     </g>
    </g>
    <g id="ytick_5">
     <g id="line2d_12">
      <g>
       <use xlink:href="#m16f436d8a0" x="180" y="322" style="stroke: #000000; stroke-width: 0.8"/>
      </g>
     </g>
     <g id="text_12">
      <!-- 50 -->
      <g transform="translate(160.275 325.799219)scale(0.1 -0.1)">
       <use xlink:href="#DejaVuSans-35"/>
       <use xlink:href="#DejaVuSans-30" x="63.623047"/>
      </g>
     </g>
    </g>
    <g id="ytick_6">
     <g id="line2d_13">
      <g>
       <use xlink:href="#m16f436d8a0" x="180" y="291.2" style="stroke: #000000; stroke-width: 0.8"/>
      </g>
     </g>
     <g id="text_13">
      <!-- 100 -->
      <g transform="translate(153.9125 294.999219)scale(0.1 -0.1)">
       <use xlink:href="#DejaVuSans-31"/>
       <use xlink:href="#DejaVuSans-30" x="63.623047"/>
       <use xlink:href="#DejaVuSans-30" x="127.246094"/>
      </g>
     </g>
    </g>
    <g id="ytick_7">
     <g id="line2d_14">
      <g>
       <use xlink:href="#m16f436d8a0" x="180" y="260.4" style="stroke: #000000; stroke-width: 0.8"/>
      </g>
     </g>
     <g id="text_14">
      <!-- 150 -->
      <g transform="translate(153.9125 264.199219)scale(0.1 -0.1)">
       <use xlink:href="#DejaVuSans-31"/>
       <use xlink:href="#DejaVuSans-35" x="63.623047"/>
       <use xlink:href="#DejaVuSans-30" x="127.246094"/>
      </g>
     </g>
    </g>
   </g>
   <g id="line2d_15">
    <path d="M 230.727273 341.712 
L 234.120401 334.32 
L 237.51353 322 
L 240.906659 318.92 
L 244.299787 318.304 
L 247.692916 310.912 
L 251.086044 306.6 
L 254.479173 309.064 
L 257.872302 312.144 
L 261.26543 314.608 
L 264.658559 316.456 
L 268.051687 318.92 
L 271.444816 315.84 
L 274.837945 322 
L 278.231073 342.944 
L 281.624202 358.344 
L 285.01733 359.576 
L 288.410459 360.192 
L 291.803588 354.032 
L 295.196716 336.168 
L 298.589845 310.296 
L 301.982974 299.208 
L 305.376102 296.744 
L 308.769231 286.888 
L 312.162359 298.592 
L 315.555488 338.632 
L 318.948617 366.968 
L 322.341745 378.056 
L 325.734874 391.608 
L 329.128002 405.776 
L 332.521131 407.624 
L 335.91426 403.928 
L 339.307388 399 
L 342.700517 397.152 
L 346.093645 397.768 
L 349.486774 390.376 
L 352.879903 392.84 
L 356.273031 396.536 
L 359.66616 373.128 
L 363.059289 357.112 
L 366.452417 360.192 
L 369.845546 346.64 
L 373.238674 328.16 
L 376.631803 316.456 
L 380.024932 312.76 
L 383.41806 322.616 
L 386.811189 338.016 
L 390.204317 355.264 
L 393.597446 362.04 
L 396.990575 355.88 
L 400.383703 350.952 
L 403.776832 347.256 
L 407.16996 349.104 
L 410.563089 361.424 
L 413.956218 371.28 
L 417.349346 366.968 
L 420.742475 349.104 
L 424.135604 337.4 
L 427.528732 343.56 
L 430.921861 352.8 
L 434.314989 354.648 
L 437.708118 361.424 
L 441.101247 359.576 
L 444.494375 349.104 
L 447.887504 349.104 
L 451.280632 355.264 
L 454.673761 347.872 
L 458.06689 351.568 
L 461.460018 366.968 
L 464.853147 367.584 
L 468.246275 365.12 
L 471.639404 374.976 
L 475.032533 378.056 
L 478.425661 371.28 
L 481.81879 370.664 
L 485.211919 366.352 
L 488.605047 355.88 
L 491.998176 355.88 
L 495.391304 363.888 
L 498.784433 362.656 
L 502.177562 358.96 
L 505.57069 358.96 
L 508.963819 352.184 
L 512.356947 355.264 
L 515.750076 366.352 
L 519.143205 364.504 
L 522.536333 354.648 
L 525.929462 351.568 
L 529.32259 354.648 
L 532.715719 349.104 
L 536.108848 328.16 
L 539.501976 318.304 
L 542.895105 334.936 
L 546.288234 344.792 
L 549.681362 338.632 
L 553.074491 347.872 
L 556.467619 353.416 
L 563.253877 293.664 
L 573.433262 319.536 
L 576.826391 355.264 
L 580.21952 382.984 
L 583.612648 384.832 
L 587.005777 390.992 
L 590.398905 396.536 
L 593.792034 398.384 
L 597.185163 402.08 
L 600.578291 395.304 
L 603.97142 381.752 
L 607.364548 374.976 
L 610.757677 370.048 
L 614.150806 373.128 
L 617.543934 382.984 
L 620.937063 366.352 
L 624.330192 339.248 
L 627.72332 340.48 
L 631.116449 343.56 
L 634.509577 329.392 
L 637.902706 325.08 
L 641.295835 328.16 
L 644.688963 318.92 
L 648.082092 320.152 
L 651.47522 325.08 
L 654.868349 312.144 
L 658.261478 317.072 
L 661.654606 339.864 
L 665.047735 341.712 
L 668.440863 347.872 
L 671.833992 356.496 
L 675.227121 343.56 
L 678.620249 339.248 
L 682.013378 352.184 
L 685.406507 355.264 
L 688.799635 341.712 
L 692.192764 330.008 
L 695.585892 331.856 
L 698.979021 341.712 
L 702.37215 346.64 
L 705.765278 354.648 
L 709.158407 358.344 
L 712.551535 347.872 
L 715.944664 338.016 
L 719.337793 334.936 
L 722.730921 328.16 
L 726.12405 318.304 
L 729.517178 322.616 
L 732.910307 338.016 
L 739.696564 351.568 
L 743.089693 363.888 
L 746.482822 373.744 
L 749.87595 378.672 
L 753.269079 386.68 
L 756.662207 388.528 
L 760.055336 385.448 
L 763.448465 385.448 
L 766.841593 388.528 
L 773.62785 370.048 
L 777.020979 379.904 
L 780.414108 382.368 
L 783.807236 371.28 
L 787.200365 368.816 
L 790.593493 365.12 
L 793.986622 352.184 
L 797.379751 346.024 
L 800.772879 342.944 
L 804.166008 340.48 
L 807.559137 343.56 
L 810.952265 343.56 
L 814.345394 352.184 
L 817.738522 367.584 
L 821.131651 366.352 
L 824.52478 349.72 
L 827.917908 324.464 
L 831.311037 293.664 
L 834.704165 290.584 
L 838.097294 310.296 
L 841.490423 315.84 
L 844.883551 333.704 
L 848.27668 377.44 
L 851.669808 399 
L 855.062937 412.552 
L 858.456066 436.576 
L 861.849194 434.728 
L 865.242323 416.248 
L 868.635452 405.776 
L 872.02858 388.528 
L 875.421709 376.824 
L 878.814837 376.824 
L 882.207966 361.424 
L 885.601095 352.184 
L 888.994223 363.272 
L 892.387352 365.736 
L 895.78048 360.808 
L 899.173609 357.112 
L 902.566738 344.176 
L 905.959866 334.936 
L 909.352995 339.248 
L 912.746123 349.104 
L 916.139252 360.192 
L 919.532381 347.872 
L 922.925509 321.384 
L 926.318638 309.064 
L 929.711766 304.752 
L 933.104895 304.136 
L 936.498024 297.976 
L 939.891152 297.36 
L 943.284281 315.84 
L 946.67741 326.928 
L 950.070538 316.456 
L 953.463667 309.064 
L 956.856795 304.136 
L 960.249924 309.064 
L 963.643053 327.544 
L 967.036181 336.784 
L 970.42931 327.544 
L 973.822438 320.152 
L 977.215567 331.24 
L 980.608696 336.784 
L 984.001824 336.168 
L 987.394953 346.024 
L 990.788081 356.496 
L 994.18121 365.12 
L 997.574339 386.68 
L 1000.967467 400.232 
L 1004.360596 394.688 
L 1007.753725 383.6 
L 1011.146853 383.6 
L 1014.539982 390.992 
L 1017.93311 380.52 
L 1021.326239 363.272 
L 1024.719368 365.736 
L 1028.112496 371.896 
L 1031.505625 378.672 
L 1034.898753 384.216 
L 1038.291882 378.672 
L 1041.685011 368.816 
L 1045.078139 356.496 
L 1048.471268 342.328 
L 1051.864396 341.712 
L 1055.257525 363.272 
L 1058.650654 374.36 
L 1062.043782 369.432 
L 1065.436911 376.208 
L 1068.83004 369.432 
L 1072.223168 355.264 
L 1075.616297 359.576 
L 1079.009425 365.736 
L 1082.402554 363.888 
L 1089.188811 341.712 
L 1092.58194 346.024 
L 1095.975068 348.488 
L 1099.368197 342.328 
L 1102.761326 347.872 
L 1106.154454 363.888 
L 1109.547583 361.424 
L 1112.940711 348.488 
L 1116.33384 356.496 
L 1119.726969 365.736 
L 1123.120097 361.424 
L 1126.513226 362.04 
L 1129.906355 354.032 
L 1133.299483 330.008 
L 1136.692612 328.776 
L 1140.08574 346.024 
L 1143.478869 347.256 
L 1146.871998 342.944 
L 1150.265126 339.864 
L 1153.658255 326.928 
L 1157.051383 312.144 
L 1160.444512 299.824 
L 1163.837641 288.12 
L 1167.230769 291.816 
L 1170.623898 315.224 
L 1174.017026 334.936 
L 1177.410155 348.488 
L 1180.803284 365.12 
L 1184.196412 377.44 
L 1187.589541 383.6 
L 1190.98267 392.84 
L 1194.375798 393.456 
L 1197.768927 383.6 
L 1201.162055 389.144 
L 1204.555184 391.608 
L 1207.948313 373.744 
L 1211.341441 365.12 
L 1214.73457 363.272 
L 1218.127698 352.184 
L 1221.520827 353.416 
L 1224.913956 366.968 
L 1228.307084 362.656 
L 1231.700213 352.8 
L 1235.093341 350.952 
L 1238.48647 344.792 
L 1241.879599 347.256 
L 1245.272727 347.872 
L 1245.272727 347.872 
" clip-path="url(#pee816afa38)" style="fill: none; stroke: #1f77b4; stroke-width: 1.5; stroke-linecap: square"/>
   </g>
   <g id="patch_3">
    <path d="M 180 463.68 
L 180 241.92 
" style="fill: none; stroke: #000000; stroke-width: 0.8; stroke-linejoin: miter; stroke-linecap: square"/>
   </g>
   <g id="patch_4">
    <path d="M 1296 463.68 
L 1296 241.92 
" style="fill: none; stroke: #000000; stroke-width: 0.8; stroke-linejoin: miter; stroke-linecap: square"/>
   </g>
   <g id="patch_5">
    <path d="M 180 463.68 
L 1296 463.68 
" style="fill: none; stroke: #000000; stroke-width: 0.8; stroke-linejoin: miter; stroke-linecap: square"/>
   </g>
   <g id="patch_6">
    <path d="M 180 241.92 
L 1296 241.92 
" style="fill: none; stroke: #000000; stroke-width: 0.8; stroke-linejoin: miter; stroke-linecap: square"/>
   </g>
  </g>
  <g id="axes_2">
   <g id="patch_7">
    <path d="M 180 729.792 
L 1296 729.792 
L 1296 508.032 
L 180 508.032 
L 180 729.792 
z
" style="fill: none"/>
   </g>
   <g id="matplotlib.axis_3">
    <g id="xtick_8">
     <g id="line2d_16">
      <g>
       <use xlink:href="#m481910ba29" x="230.727273" y="729.792" style="stroke: #000000; stroke-width: 0.8"/>
      </g>
     </g>
     <g id="text_15">
      <!-- 0 -->
      <g transform="translate(227.546023 744.390437)scale(0.1 -0.1)">
       <use xlink:href="#DejaVuSans-30"/>
      </g>
     </g>
    </g>
    <g id="xtick_9">
     <g id="line2d_17">
      <g>
       <use xlink:href="#m481910ba29" x="400.383703" y="729.792" style="stroke: #000000; stroke-width: 0.8"/>
      </g>
     </g>
     <g id="text_16">
      <!-- 50 -->
      <g transform="translate(394.021203 744.390437)scale(0.1 -0.1)">
       <use xlink:href="#DejaVuSans-35"/>
       <use xlink:href="#DejaVuSans-30" x="63.623047"/>
      </g>
     </g>
    </g>
    <g id="xtick_10">
     <g id="line2d_18">
      <g>
       <use xlink:href="#m481910ba29" x="570.040134" y="729.792" style="stroke: #000000; stroke-width: 0.8"/>
      </g>
     </g>
     <g id="text_17">
      <!-- 100 -->
      <g transform="translate(560.496384 744.390437)scale(0.1 -0.1)">
       <use xlink:href="#DejaVuSans-31"/>
       <use xlink:href="#DejaVuSans-30" x="63.623047"/>
       <use xlink:href="#DejaVuSans-30" x="127.246094"/>
      </g>
     </g>
    </g>
    <g id="xtick_11">
     <g id="line2d_19">
      <g>
       <use xlink:href="#m481910ba29" x="739.696564" y="729.792" style="stroke: #000000; stroke-width: 0.8"/>
      </g>
     </g>
     <g id="text_18">
      <!-- 150 -->
      <g transform="translate(730.152814 744.390437)scale(0.1 -0.1)">
       <use xlink:href="#DejaVuSans-31"/>
       <use xlink:href="#DejaVuSans-35" x="63.623047"/>
       <use xlink:href="#DejaVuSans-30" x="127.246094"/>
      </g>
     </g>
    </g>
    <g id="xtick_12">
     <g id="line2d_20">
      <g>
       <use xlink:href="#m481910ba29" x="909.352995" y="729.792" style="stroke: #000000; stroke-width: 0.8"/>
      </g>
     </g>
     <g id="text_19">
      <!-- 200 -->
      <g transform="translate(899.809245 744.390437)scale(0.1 -0.1)">
       <use xlink:href="#DejaVuSans-32"/>
       <use xlink:href="#DejaVuSans-30" x="63.623047"/>
       <use xlink:href="#DejaVuSans-30" x="127.246094"/>
      </g>
     </g>
    </g>
    <g id="xtick_13">
     <g id="line2d_21">
      <g>
       <use xlink:href="#m481910ba29" x="1079.009425" y="729.792" style="stroke: #000000; stroke-width: 0.8"/>
      </g>
     </g>
     <g id="text_20">
      <!-- 250 -->
      <g transform="translate(1069.465675 744.390437)scale(0.1 -0.1)">
       <use xlink:href="#DejaVuSans-32"/>
       <use xlink:href="#DejaVuSans-35" x="63.623047"/>
       <use xlink:href="#DejaVuSans-30" x="127.246094"/>
      </g>
     </g>
    </g>
    <g id="xtick_14">
     <g id="line2d_22">
      <g>
       <use xlink:href="#m481910ba29" x="1248.665856" y="729.792" style="stroke: #000000; stroke-width: 0.8"/>
      </g>
     </g>
     <g id="text_21">
      <!-- 300 -->
      <g transform="translate(1239.122106 744.390437)scale(0.1 -0.1)">
       <use xlink:href="#DejaVuSans-33"/>
       <use xlink:href="#DejaVuSans-30" x="63.623047"/>
       <use xlink:href="#DejaVuSans-30" x="127.246094"/>
      </g>
     </g>
    </g>
   </g>
   <g id="matplotlib.axis_4">
    <g id="ytick_8">
     <g id="line2d_23">
      <g>
       <use xlink:href="#m16f436d8a0" x="180" y="711.312" style="stroke: #000000; stroke-width: 0.8"/>
      </g>
     </g>
     <g id="text_22">
      <!-- −150 -->
      <g transform="translate(145.532813 715.111219)scale(0.1 -0.1)">
       <use xlink:href="#DejaVuSans-2212"/>
       <use xlink:href="#DejaVuSans-31" x="83.789062"/>
       <use xlink:href="#DejaVuSans-35" x="147.412109"/>
       <use xlink:href="#DejaVuSans-30" x="211.035156"/>
      </g>
     </g>
    </g>
    <g id="ytick_9">
     <g id="line2d_24">
      <g>
       <use xlink:href="#m16f436d8a0" x="180" y="680.512" style="stroke: #000000; stroke-width: 0.8"/>
      </g>
     </g>
     <g id="text_23">
      <!-- −100 -->
      <g transform="translate(145.532813 684.311219)scale(0.1 -0.1)">
       <use xlink:href="#DejaVuSans-2212"/>
       <use xlink:href="#DejaVuSans-31" x="83.789062"/>
       <use xlink:href="#DejaVuSans-30" x="147.412109"/>
       <use xlink:href="#DejaVuSans-30" x="211.035156"/>
      </g>
     </g>
    </g>
    <g id="ytick_10">
     <g id="line2d_25">
      <g>
       <use xlink:href="#m16f436d8a0" x="180" y="649.712" style="stroke: #000000; stroke-width: 0.8"/>
      </g>
     </g>
     <g id="text_24">
      <!-- −50 -->
      <g transform="translate(151.895312 653.511219)scale(0.1 -0.1)">
       <use xlink:href="#DejaVuSans-2212"/>
       <use xlink:href="#DejaVuSans-35" x="83.789062"/>
       <use xlink:href="#DejaVuSans-30" x="147.412109"/>
      </g>
     </g>
    </g>
    <g id="ytick_11">
     <g id="line2d_26">
      <g>
       <use xlink:href="#m16f436d8a0" x="180" y="618.912" style="stroke: #000000; stroke-width: 0.8"/>
      </g>
     </g>
     <g id="text_25">
      <!-- 0 -->
      <g transform="translate(166.6375 622.711219)scale(0.1 -0.1)">
       <use xlink:href="#DejaVuSans-30"/>
      </g>
     </g>
    </g>
    <g id="ytick_12">
     <g id="line2d_27">
      <g>
       <use xlink:href="#m16f436d8a0" x="180" y="588.112" style="stroke: #000000; stroke-width: 0.8"/>
      </g>
     </g>
     <g id="text_26">
      <!-- 50 -->
      <g transform="translate(160.275 591.911219)scale(0.1 -0.1)">
       <use xlink:href="#DejaVuSans-35"/>
       <use xlink:href="#DejaVuSans-30" x="63.623047"/>
      </g>
     </g>
    </g>
    <g id="ytick_13">
     <g id="line2d_28">
      <g>
       <use xlink:href="#m16f436d8a0" x="180" y="557.312" style="stroke: #000000; stroke-width: 0.8"/>
      </g>
     </g>
     <g id="text_27">
      <!-- 100 -->
      <g transform="translate(153.9125 561.111219)scale(0.1 -0.1)">
       <use xlink:href="#DejaVuSans-31"/>
       <use xlink:href="#DejaVuSans-30" x="63.623047"/>
       <use xlink:href="#DejaVuSans-30" x="127.246094"/>
      </g>
     </g>
    </g>
    <g id="ytick_14">
     <g id="line2d_29">
      <g>
       <use xlink:href="#m16f436d8a0" x="180" y="526.512" style="stroke: #000000; stroke-width: 0.8"/>
      </g>
     </g>
     <g id="text_28">
      <!-- 150 -->
      <g transform="translate(153.9125 530.311219)scale(0.1 -0.1)">
       <use xlink:href="#DejaVuSans-31"/>
       <use xlink:href="#DejaVuSans-35" x="63.623047"/>
       <use xlink:href="#DejaVuSans-30" x="127.246094"/>
      </g>
     </g>
    </g>
   </g>
   <g id="line2d_30">
    <path d="M 230.727273 602.896 
L 234.120401 615.216 
L 237.51353 593.04 
L 240.906659 584.416 
L 244.299787 591.808 
L 247.692916 579.488 
L 251.086044 574.56 
L 254.479173 581.336 
L 257.872302 580.72 
L 261.26543 588.112 
L 264.658559 605.976 
L 268.051687 606.592 
L 271.444816 599.816 
L 274.837945 611.52 
L 278.231073 602.28 
L 281.624202 577.024 
L 285.01733 597.968 
L 288.410459 641.704 
L 291.803588 649.096 
L 298.589845 655.256 
L 301.982974 635.544 
L 305.376102 614.6 
L 308.769231 597.968 
L 312.162359 591.808 
L 315.555488 613.368 
L 318.948617 645.4 
L 322.341745 662.648 
L 325.734874 658.336 
L 329.128002 653.408 
L 332.521131 658.336 
L 335.91426 655.872 
L 339.307388 655.256 
L 342.700517 661.416 
L 346.093645 652.176 
L 349.486774 642.32 
L 352.879903 635.544 
L 356.273031 618.296 
L 359.66616 612.136 
L 363.059289 619.528 
L 366.452417 616.448 
L 369.845546 601.048 
L 373.238674 587.496 
L 376.631803 585.648 
L 380.024932 590.576 
L 383.41806 593.04 
L 386.811189 597.352 
L 390.204317 604.744 
L 393.597446 604.128 
L 396.990575 601.048 
L 400.383703 599.2 
L 403.776832 595.504 
L 407.16996 588.728 
L 410.563089 585.032 
L 413.956218 587.496 
L 417.349346 589.344 
L 420.742475 585.032 
L 424.135604 594.272 
L 427.528732 616.448 
L 430.921861 621.992 
L 434.314989 619.528 
L 437.708118 633.08 
L 441.101247 639.24 
L 444.494375 630.616 
L 447.887504 622.608 
L 451.280632 618.296 
L 454.673761 625.688 
L 458.06689 647.248 
L 461.460018 664.496 
L 464.853147 671.272 
L 468.246275 658.952 
L 471.639404 644.784 
L 475.032533 650.328 
L 478.425661 657.104 
L 481.81879 655.872 
L 485.211919 650.944 
L 488.605047 643.552 
L 491.998176 634.928 
L 495.391304 630.616 
L 498.784433 630.616 
L 502.177562 637.392 
L 505.57069 636.776 
L 508.963819 621.376 
L 512.356947 610.288 
L 515.750076 622.608 
L 519.143205 634.312 
L 522.536333 631.232 
L 525.929462 631.848 
L 529.32259 631.232 
L 532.715719 617.68 
L 536.108848 604.744 
L 539.501976 596.736 
L 542.895105 589.96 
L 546.288234 590.576 
L 549.681362 594.272 
L 553.074491 600.432 
L 556.467619 599.816 
L 559.860748 595.504 
L 563.253877 601.664 
L 566.647005 611.52 
L 570.040134 601.048 
L 573.433262 589.344 
L 576.826391 602.896 
L 580.21952 620.76 
L 583.612648 628.152 
L 587.005777 631.848 
L 590.398905 631.232 
L 593.792034 626.92 
L 597.185163 621.376 
L 600.578291 620.144 
L 603.97142 625.688 
L 607.364548 628.768 
L 610.757677 627.536 
L 614.150806 636.776 
L 617.543934 644.784 
L 620.937063 638.008 
L 624.330192 626.304 
L 631.116449 626.304 
L 637.902706 599.2 
L 644.688963 586.88 
L 648.082092 591.192 
L 651.47522 592.424 
L 654.868349 592.424 
L 658.261478 608.44 
L 661.654606 618.296 
L 665.047735 594.272 
L 668.440863 577.64 
L 671.833992 594.888 
L 675.227121 609.672 
L 678.620249 598.584 
L 682.013378 599.2 
L 685.406507 612.136 
L 688.799635 603.512 
L 692.192764 594.272 
L 695.585892 604.128 
L 698.979021 620.144 
L 702.37215 620.76 
L 705.765278 607.208 
L 709.158407 607.824 
L 712.551535 618.912 
L 715.944664 609.672 
L 719.337793 591.808 
L 722.730921 586.264 
L 726.12405 589.344 
L 729.517178 593.04 
L 732.910307 591.808 
L 736.303436 593.04 
L 743.089693 618.912 
L 746.482822 618.296 
L 749.87595 622.608 
L 753.269079 658.336 
L 756.662207 697.144 
L 760.055336 713.776 
L 763.448465 712.544 
L 766.841593 696.528 
L 770.234722 679.28 
L 773.62785 668.192 
L 777.020979 657.72 
L 780.414108 654.024 
L 783.807236 652.176 
L 787.200365 643.552 
L 790.593493 633.08 
L 793.986622 630.616 
L 797.379751 630.616 
L 800.772879 623.84 
L 804.166008 618.296 
L 807.559137 615.216 
L 810.952265 613.984 
L 814.345394 614.6 
L 817.738522 612.752 
L 821.131651 623.224 
L 824.52478 632.464 
L 827.917908 618.296 
L 831.311037 591.192 
L 834.704165 582.568 
L 838.097294 583.8 
L 841.490423 573.944 
L 844.883551 580.104 
L 848.27668 613.984 
L 851.669808 641.088 
L 855.062937 648.48 
L 858.456066 647.864 
L 861.849194 635.544 
L 865.242323 618.912 
L 872.02858 617.68 
L 875.421709 612.752 
L 878.814837 612.136 
L 882.207966 607.208 
L 885.601095 609.672 
L 888.994223 630.616 
L 892.387352 642.32 
L 895.78048 626.304 
L 899.173609 620.76 
L 902.566738 631.848 
L 905.959866 640.472 
L 909.352995 646.632 
L 912.746123 637.392 
L 916.139252 617.064 
L 919.532381 605.976 
L 922.925509 599.2 
L 926.318638 593.04 
L 929.711766 591.192 
L 933.104895 590.576 
L 936.498024 580.72 
L 939.891152 573.328 
L 943.284281 576.408 
L 946.67741 574.56 
L 950.070538 570.864 
L 956.856795 589.344 
L 960.249924 592.424 
L 963.643053 587.496 
L 967.036181 585.032 
L 970.42931 592.424 
L 973.822438 605.976 
L 977.215567 615.832 
L 980.608696 617.064 
L 984.001824 616.448 
L 987.394953 616.448 
L 994.18121 648.48 
L 997.574339 639.856 
L 1000.967467 642.32 
L 1004.360596 655.872 
L 1007.753725 641.088 
L 1011.146853 623.84 
L 1014.539982 626.92 
L 1017.93311 623.224 
L 1021.326239 615.832 
L 1024.719368 620.76 
L 1028.112496 613.984 
L 1031.505625 611.52 
L 1034.898753 629.384 
L 1038.291882 638.624 
L 1041.685011 632.464 
L 1045.078139 630.616 
L 1048.471268 640.472 
L 1051.864396 641.088 
L 1055.257525 637.392 
L 1058.650654 649.096 
L 1062.043782 649.096 
L 1065.436911 632.464 
L 1068.83004 620.144 
L 1072.223168 618.912 
L 1075.616297 626.304 
L 1079.009425 646.016 
L 1082.402554 652.792 
L 1085.795683 638.624 
L 1089.188811 626.92 
L 1092.58194 623.224 
L 1095.975068 613.984 
L 1099.368197 612.136 
L 1102.761326 621.376 
L 1106.154454 622.608 
L 1109.547583 621.992 
L 1112.940711 636.16 
L 1116.33384 646.016 
L 1119.726969 633.696 
L 1123.120097 634.312 
L 1126.513226 645.4 
L 1133.299483 617.064 
L 1136.692612 623.84 
L 1140.08574 622.608 
L 1143.478869 613.368 
L 1146.871998 609.672 
L 1150.265126 605.36 
L 1153.658255 600.432 
L 1157.051383 592.424 
L 1160.444512 580.104 
L 1163.837641 577.024 
L 1167.230769 581.336 
L 1170.623898 585.032 
L 1174.017026 583.184 
L 1177.410155 585.648 
L 1180.803284 613.368 
L 1184.196412 636.16 
L 1187.589541 626.304 
L 1190.98267 613.984 
L 1194.375798 610.288 
L 1197.768927 608.44 
L 1201.162055 617.68 
L 1204.555184 620.144 
L 1207.948313 604.744 
L 1211.341441 605.976 
L 1214.73457 616.448 
L 1218.127698 610.904 
L 1221.520827 620.76 
L 1224.913956 645.4 
L 1228.307084 647.864 
L 1231.700213 634.312 
L 1235.093341 630.616 
L 1238.48647 633.08 
L 1241.879599 614.6 
L 1245.272727 599.2 
L 1245.272727 599.2 
" clip-path="url(#p37ccebcf38)" style="fill: none; stroke: #1f77b4; stroke-width: 1.5; stroke-linecap: square"/>
   </g>
   <g id="patch_8">
    <path d="M 180 729.792 
L 180 508.032 
" style="fill: none; stroke: #000000; stroke-width: 0.8; stroke-linejoin: miter; stroke-linecap: square"/>
   </g>
   <g id="patch_9">
    <path d="M 1296 729.792 
L 1296 508.032 
" style="fill: none; stroke: #000000; stroke-width: 0.8; stroke-linejoin: miter; stroke-linecap: square"/>
   </g>
   <g id="patch_10">
    <path d="M 180 729.792 
L 1296 729.792 
" style="fill: none; stroke: #000000; stroke-width: 0.8; stroke-linejoin: miter; stroke-linecap: square"/>
   </g>
   <g id="patch_11">
    <path d="M 180 508.032 
L 1296 508.032 
" style="fill: none; stroke: #000000; stroke-width: 0.8; stroke-linejoin: miter; stroke-linecap: square"/>
   </g>
  </g>
  <g id="axes_3">
   <g id="patch_12">
    <path d="M 180 995.904 
L 1296 995.904 
L 1296 774.144 
L 180 774.144 
L 180 995.904 
z
" style="fill: none"/>
   </g>
   <g id="matplotlib.axis_5">
    <g id="xtick_15">
     <g id="line2d_31">
      <g>
       <use xlink:href="#m481910ba29" x="230.727273" y="995.904" style="stroke: #000000; stroke-width: 0.8"/>
      </g>
     </g>
     <g id="text_29">
      <!-- 0 -->
      <g transform="translate(227.546023 1010.502438)scale(0.1 -0.1)">
       <use xlink:href="#DejaVuSans-30"/>
      </g>
     </g>
    </g>
    <g id="xtick_16">
     <g id="line2d_32">
      <g>
       <use xlink:href="#m481910ba29" x="400.383703" y="995.904" style="stroke: #000000; stroke-width: 0.8"/>
      </g>
     </g>
     <g id="text_30">
      <!-- 50 -->
      <g transform="translate(394.021203 1010.502438)scale(0.1 -0.1)">
       <use xlink:href="#DejaVuSans-35"/>
       <use xlink:href="#DejaVuSans-30" x="63.623047"/>
      </g>
     </g>
    </g>
    <g id="xtick_17">
     <g id="line2d_33">
      <g>
       <use xlink:href="#m481910ba29" x="570.040134" y="995.904" style="stroke: #000000; stroke-width: 0.8"/>
      </g>
     </g>
     <g id="text_31">
      <!-- 100 -->
      <g transform="translate(560.496384 1010.502438)scale(0.1 -0.1)">
       <use xlink:href="#DejaVuSans-31"/>
       <use xlink:href="#DejaVuSans-30" x="63.623047"/>
       <use xlink:href="#DejaVuSans-30" x="127.246094"/>
      </g>
     </g>
    </g>
    <g id="xtick_18">
     <g id="line2d_34">
      <g>
       <use xlink:href="#m481910ba29" x="739.696564" y="995.904" style="stroke: #000000; stroke-width: 0.8"/>
      </g>
     </g>
     <g id="text_32">
      <!-- 150 -->
      <g transform="translate(730.152814 1010.502438)scale(0.1 -0.1)">
       <use xlink:href="#DejaVuSans-31"/>
       <use xlink:href="#DejaVuSans-35" x="63.623047"/>
       <use xlink:href="#DejaVuSans-30" x="127.246094"/>
      </g>
     </g>
    </g>
    <g id="xtick_19">
     <g id="line2d_35">
      <g>
       <use xlink:href="#m481910ba29" x="909.352995" y="995.904" style="stroke: #000000; stroke-width: 0.8"/>
      </g>
     </g>
     <g id="text_33">
      <!-- 200 -->
      <g transform="translate(899.809245 1010.502438)scale(0.1 -0.1)">
       <use xlink:href="#DejaVuSans-32"/>
       <use xlink:href="#DejaVuSans-30" x="63.623047"/>
       <use xlink:href="#DejaVuSans-30" x="127.246094"/>
      </g>
     </g>
    </g>
    <g id="xtick_20">
     <g id="line2d_36">
      <g>
       <use xlink:href="#m481910ba29" x="1079.009425" y="995.904" style="stroke: #000000; stroke-width: 0.8"/>
      </g>
     </g>
     <g id="text_34">
      <!-- 250 -->
      <g transform="translate(1069.465675 1010.502438)scale(0.1 -0.1)">
       <use xlink:href="#DejaVuSans-32"/>
       <use xlink:href="#DejaVuSans-35" x="63.623047"/>
       <use xlink:href="#DejaVuSans-30" x="127.246094"/>
      </g>
     </g>
    </g>
    <g id="xtick_21">
     <g id="line2d_37">
      <g>
       <use xlink:href="#m481910ba29" x="1248.665856" y="995.904" style="stroke: #000000; stroke-width: 0.8"/>
      </g>
     </g>
     <g id="text_35">
      <!-- 300 -->
      <g transform="translate(1239.122106 1010.502438)scale(0.1 -0.1)">
       <use xlink:href="#DejaVuSans-33"/>
       <use xlink:href="#DejaVuSans-30" x="63.623047"/>
       <use xlink:href="#DejaVuSans-30" x="127.246094"/>
      </g>
     </g>
    </g>
   </g>
   <g id="matplotlib.axis_6">
    <g id="ytick_15">
     <g id="line2d_38">
      <g>
       <use xlink:href="#m16f436d8a0" x="180" y="977.424" style="stroke: #000000; stroke-width: 0.8"/>
      </g>
     </g>
     <g id="text_36">
      <!-- −150 -->
      <g transform="translate(145.532813 981.223219)scale(0.1 -0.1)">
       <use xlink:href="#DejaVuSans-2212"/>
       <use xlink:href="#DejaVuSans-31" x="83.789062"/>
       <use xlink:href="#DejaVuSans-35" x="147.412109"/>
       <use xlink:href="#DejaVuSans-30" x="211.035156"/>
      </g>
     </g>
    </g>
    <g id="ytick_16">
     <g id="line2d_39">
      <g>
       <use xlink:href="#m16f436d8a0" x="180" y="946.624" style="stroke: #000000; stroke-width: 0.8"/>
      </g>
     </g>
     <g id="text_37">
      <!-- −100 -->
      <g transform="translate(145.532813 950.423219)scale(0.1 -0.1)">
       <use xlink:href="#DejaVuSans-2212"/>
       <use xlink:href="#DejaVuSans-31" x="83.789062"/>
       <use xlink:href="#DejaVuSans-30" x="147.412109"/>
       <use xlink:href="#DejaVuSans-30" x="211.035156"/>
      </g>
     </g>
    </g>
    <g id="ytick_17">
     <g id="line2d_40">
      <g>
       <use xlink:href="#m16f436d8a0" x="180" y="915.824" style="stroke: #000000; stroke-width: 0.8"/>
      </g>
     </g>
     <g id="text_38">
      <!-- −50 -->
      <g transform="translate(151.895312 919.623219)scale(0.1 -0.1)">
       <use xlink:href="#DejaVuSans-2212"/>
       <use xlink:href="#DejaVuSans-35" x="83.789062"/>
       <use xlink:href="#DejaVuSans-30" x="147.412109"/>
      </g>
     </g>
    </g>
    <g id="ytick_18">
     <g id="line2d_41">
      <g>
       <use xlink:href="#m16f436d8a0" x="180" y="885.024" style="stroke: #000000; stroke-width: 0.8"/>
      </g>
     </g>
     <g id="text_39">
      <!-- 0 -->
      <g transform="translate(166.6375 888.823219)scale(0.1 -0.1)">
       <use xlink:href="#DejaVuSans-30"/>
      </g>
     </g>
    </g>
    <g id="ytick_19">
     <g id="line2d_42">
      <g>
       <use xlink:href="#m16f436d8a0" x="180" y="854.224" style="stroke: #000000; stroke-width: 0.8"/>
      </g>
     </g>
     <g id="text_40">
      <!-- 50 -->
      <g transform="translate(160.275 858.023219)scale(0.1 -0.1)">
       <use xlink:href="#DejaVuSans-35"/>
       <use xlink:href="#DejaVuSans-30" x="63.623047"/>
      </g>
     </g>
    </g>
    <g id="ytick_20">
     <g id="line2d_43">
      <g>
       <use xlink:href="#m16f436d8a0" x="180" y="823.424" style="stroke: #000000; stroke-width: 0.8"/>
      </g>
     </g>
     <g id="text_41">
      <!-- 100 -->
      <g transform="translate(153.9125 827.223219)scale(0.1 -0.1)">
       <use xlink:href="#DejaVuSans-31"/>
       <use xlink:href="#DejaVuSans-30" x="63.623047"/>
       <use xlink:href="#DejaVuSans-30" x="127.246094"/>
      </g>
     </g>
    </g>
    <g id="ytick_21">
     <g id="line2d_44">
      <g>
       <use xlink:href="#m16f436d8a0" x="180" y="792.624" style="stroke: #000000; stroke-width: 0.8"/>
      </g>
     </g>
     <g id="text_42">
      <!-- 150 -->
      <g transform="translate(153.9125 796.423219)scale(0.1 -0.1)">
       <use xlink:href="#DejaVuSans-31"/>
       <use xlink:href="#DejaVuSans-35" x="63.623047"/>
       <use xlink:href="#DejaVuSans-30" x="127.246094"/>
      </g>
     </g>
    </g>
   </g>
   <g id="line2d_45">
    <path d="M 230.727273 861.616 
L 234.120401 846.216 
L 237.51353 844.368 
L 240.906659 851.76 
L 244.299787 855.456 
L 247.692916 853.608 
L 251.086044 851.144 
L 254.479173 840.672 
L 257.872302 837.592 
L 261.26543 849.912 
L 264.658559 848.064 
L 268.051687 838.824 
L 271.444816 837.592 
L 274.837945 849.912 
L 278.231073 876.4 
L 281.624202 896.728 
L 285.01733 902.888 
L 288.410459 909.664 
L 291.803588 906.584 
L 295.196716 884.408 
L 298.589845 845.6 
L 301.982974 812.336 
L 305.376102 806.176 
L 308.769231 810.488 
L 312.162359 814.184 
L 315.555488 835.128 
L 318.948617 865.312 
L 322.341745 886.256 
L 325.734874 910.896 
L 329.128002 946.008 
L 332.521131 966.952 
L 335.91426 958.328 
L 339.307388 948.472 
L 342.700517 957.712 
L 346.093645 958.944 
L 349.486774 946.624 
L 352.879903 942.928 
L 356.273031 929.992 
L 359.66616 903.504 
L 363.059289 896.112 
L 366.452417 890.568 
L 369.845546 868.392 
L 373.238674 853.608 
L 376.631803 852.376 
L 380.024932 857.92 
L 383.41806 862.848 
L 386.811189 875.784 
L 390.204317 899.192 
L 393.597446 897.344 
L 396.990575 885.024 
L 400.383703 890.568 
L 403.776832 883.176 
L 407.16996 866.544 
L 410.563089 873.936 
L 413.956218 881.944 
L 417.349346 873.32 
L 420.742475 867.16 
L 424.135604 865.312 
L 427.528732 873.32 
L 430.921861 896.112 
L 434.314989 908.432 
L 437.708118 906.584 
L 441.101247 901.04 
L 444.494375 896.728 
L 447.887504 893.648 
L 451.280632 894.88 
L 454.673761 888.104 
L 458.06689 886.872 
L 461.460018 899.808 
L 464.853147 906.584 
L 468.246275 893.032 
L 471.639404 891.184 
L 475.032533 906.584 
L 478.425661 907.816 
L 481.81879 902.888 
L 485.211919 902.272 
L 488.605047 893.032 
L 491.998176 881.944 
L 495.391304 883.792 
L 498.784433 892.416 
L 502.177562 902.272 
L 505.57069 907.2 
L 508.963819 889.952 
L 512.356947 873.936 
L 515.750076 888.104 
L 519.143205 901.656 
L 522.536333 895.496 
L 525.929462 892.416 
L 529.32259 893.032 
L 532.715719 889.952 
L 536.108848 881.944 
L 539.501976 868.392 
L 542.895105 862.232 
L 546.288234 875.168 
L 549.681362 880.096 
L 556.467619 862.848 
L 559.860748 842.52 
L 563.253877 815.416 
L 566.647005 803.712 
L 570.040134 801.864 
L 573.433262 811.72 
L 580.21952 859.768 
L 583.612648 880.096 
L 587.005777 905.968 
L 590.398905 926.912 
L 593.792034 941.08 
L 597.185163 957.712 
L 600.578291 959.56 
L 603.97142 934.92 
L 607.364548 913.976 
L 610.757677 909.048 
L 614.150806 920.136 
L 617.543934 931.84 
L 620.937063 913.976 
L 624.330192 885.024 
L 627.72332 879.48 
L 631.116449 880.096 
L 634.509577 864.08 
L 637.902706 851.144 
L 641.295835 856.688 
L 644.688963 851.144 
L 648.082092 837.592 
L 651.47522 833.28 
L 654.868349 824.656 
L 658.261478 841.904 
L 661.654606 875.168 
L 665.047735 867.16 
L 668.440863 863.464 
L 671.833992 885.024 
L 675.227121 890.568 
L 678.620249 887.488 
L 682.013378 897.96 
L 685.406507 893.032 
L 688.799635 868.392 
L 692.192764 863.464 
L 695.585892 875.784 
L 698.979021 885.64 
L 705.765278 899.192 
L 709.158407 899.192 
L 712.551535 896.728 
L 715.944664 892.416 
L 719.337793 875.168 
L 722.730921 861 
L 726.12405 863.464 
L 729.517178 872.088 
L 732.910307 877.632 
L 736.303436 878.248 
L 739.696564 894.88 
L 743.089693 924.448 
L 746.482822 929.376 
L 749.87595 924.448 
L 753.269079 930.608 
L 756.662207 925.68 
L 760.055336 918.288 
L 763.448465 918.288 
L 766.841593 916.44 
L 770.234722 913.976 
L 773.62785 906.584 
L 777.020979 896.728 
L 780.414108 905.352 
L 783.807236 910.896 
L 787.200365 907.2 
L 790.593493 908.432 
L 793.986622 900.424 
L 797.379751 894.264 
L 800.772879 893.648 
L 804.166008 883.792 
L 807.559137 875.784 
L 810.952265 881.328 
L 814.345394 895.496 
L 817.738522 894.88 
L 821.131651 881.328 
L 824.52478 869.008 
L 827.917908 848.68 
L 831.311037 813.568 
L 834.704165 796.32 
L 838.097294 800.632 
L 841.490423 796.32 
L 844.883551 806.176 
L 848.27668 854.84 
L 851.669808 887.488 
L 855.062937 901.04 
L 858.456066 936.152 
L 861.849194 950.32 
L 865.242323 925.064 
L 868.635452 925.064 
L 872.02858 939.232 
L 875.421709 926.296 
L 878.814837 911.512 
L 882.207966 899.192 
L 885.601095 881.944 
L 888.994223 883.176 
L 892.387352 894.264 
L 895.78048 891.8 
L 899.173609 880.096 
L 902.566738 875.784 
L 905.959866 881.944 
L 909.352995 888.72 
L 912.746123 893.032 
L 916.139252 902.272 
L 919.532381 895.496 
L 922.925509 867.776 
L 926.318638 841.904 
L 929.711766 832.664 
L 933.104895 833.28 
L 936.498024 829.584 
L 939.891152 844.984 
L 943.284281 869.624 
L 946.67741 872.088 
L 950.070538 864.696 
L 953.463667 856.688 
L 956.856795 844.984 
L 960.249924 850.528 
L 963.643053 872.088 
L 967.036181 880.096 
L 970.42931 865.928 
L 973.822438 858.536 
L 977.215567 875.168 
L 980.608696 889.336 
L 984.001824 895.496 
L 987.394953 894.264 
L 990.788081 891.184 
L 994.18121 909.664 
L 997.574339 933.688 
L 1000.967467 933.072 
L 1004.360596 925.064 
L 1007.753725 922.6 
L 1011.146853 920.752 
L 1014.539982 917.672 
L 1017.93311 912.744 
L 1021.326239 905.352 
L 1024.719368 898.576 
L 1028.112496 894.264 
L 1031.505625 901.656 
L 1034.898753 901.04 
L 1038.291882 879.48 
L 1041.685011 880.096 
L 1045.078139 902.888 
L 1048.471268 899.192 
L 1051.864396 869.624 
L 1055.257525 879.48 
L 1058.650654 910.896 
L 1062.043782 907.2 
L 1065.436911 902.272 
L 1068.83004 903.504 
L 1072.223168 883.792 
L 1075.616297 875.784 
L 1079.009425 886.872 
L 1082.402554 879.48 
L 1085.795683 864.08 
L 1089.188811 870.24 
L 1092.58194 883.792 
L 1095.975068 886.872 
L 1099.368197 896.728 
L 1102.761326 907.2 
L 1106.154454 901.04 
L 1109.547583 892.416 
L 1112.940711 889.336 
L 1116.33384 892.416 
L 1119.726969 889.336 
L 1123.120097 885.024 
L 1126.513226 888.72 
L 1129.906355 889.952 
L 1133.299483 888.104 
L 1136.692612 889.952 
L 1140.08574 883.792 
L 1143.478869 877.016 
L 1146.871998 879.48 
L 1150.265126 884.408 
L 1153.658255 871.472 
L 1157.051383 838.824 
L 1160.444512 808.024 
L 1163.837641 786.464 
L 1167.230769 784 
L 1174.017026 819.728 
L 1177.410155 842.52 
L 1180.803284 879.48 
L 1184.196412 912.128 
L 1187.589541 928.76 
L 1190.98267 939.232 
L 1194.375798 942.312 
L 1197.768927 928.144 
L 1204.555184 891.184 
L 1207.948313 884.408 
L 1211.341441 883.176 
L 1214.73457 874.552 
L 1218.127698 875.784 
L 1221.520827 888.104 
L 1224.913956 896.728 
L 1228.307084 901.656 
L 1231.700213 905.352 
L 1235.093341 901.656 
L 1238.48647 900.424 
L 1241.879599 903.504 
L 1245.272727 893.648 
L 1245.272727 893.648 
" clip-path="url(#p47a06b8eaa)" style="fill: none; stroke: #1f77b4; stroke-width: 1.5; stroke-linecap: square"/>
   </g>
   <g id="patch_13">
    <path d="M 180 995.904 
L 180 774.144 
" style="fill: none; stroke: #000000; stroke-width: 0.8; stroke-linejoin: miter; stroke-linecap: square"/>
   </g>
   <g id="patch_14">
    <path d="M 1296 995.904 
L 1296 774.144 
" style="fill: none; stroke: #000000; stroke-width: 0.8; stroke-linejoin: miter; stroke-linecap: square"/>
   </g>
   <g id="patch_15">
    <path d="M 180 995.904 
L 1296 995.904 
" style="fill: none; stroke: #000000; stroke-width: 0.8; stroke-linejoin: miter; stroke-linecap: square"/>
   </g>
   <g id="patch_16">
    <path d="M 180 774.144 
L 1296 774.144 
" style="fill: none; stroke: #000000; stroke-width: 0.8; stroke-linejoin: miter; stroke-linecap: square"/>
   </g>
  </g>
  <g id="axes_4">
   <g id="patch_17">
    <path d="M 180 1262.016 
L 1296 1262.016 
L 1296 1040.256 
L 180 1040.256 
L 180 1262.016 
z
" style="fill: none"/>
   </g>
   <g id="matplotlib.axis_7">
    <g id="xtick_22">
     <g id="line2d_46">
      <g>
       <use xlink:href="#m481910ba29" x="230.727273" y="1262.016" style="stroke: #000000; stroke-width: 0.8"/>
      </g>
     </g>
     <g id="text_43">
      <!-- 0 -->
      <g transform="translate(227.546023 1276.614437)scale(0.1 -0.1)">
       <use xlink:href="#DejaVuSans-30"/>
      </g>
     </g>
    </g>
    <g id="xtick_23">
     <g id="line2d_47">
      <g>
       <use xlink:href="#m481910ba29" x="400.383703" y="1262.016" style="stroke: #000000; stroke-width: 0.8"/>
      </g>
     </g>
     <g id="text_44">
      <!-- 50 -->
      <g transform="translate(394.021203 1276.614437)scale(0.1 -0.1)">
       <use xlink:href="#DejaVuSans-35"/>
       <use xlink:href="#DejaVuSans-30" x="63.623047"/>
      </g>
     </g>
    </g>
    <g id="xtick_24">
     <g id="line2d_48">
      <g>
       <use xlink:href="#m481910ba29" x="570.040134" y="1262.016" style="stroke: #000000; stroke-width: 0.8"/>
      </g>
     </g>
     <g id="text_45">
      <!-- 100 -->
      <g transform="translate(560.496384 1276.614437)scale(0.1 -0.1)">
       <use xlink:href="#DejaVuSans-31"/>
       <use xlink:href="#DejaVuSans-30" x="63.623047"/>
       <use xlink:href="#DejaVuSans-30" x="127.246094"/>
      </g>
     </g>
    </g>
    <g id="xtick_25">
     <g id="line2d_49">
      <g>
       <use xlink:href="#m481910ba29" x="739.696564" y="1262.016" style="stroke: #000000; stroke-width: 0.8"/>
      </g>
     </g>
     <g id="text_46">
      <!-- 150 -->
      <g transform="translate(730.152814 1276.614437)scale(0.1 -0.1)">
       <use xlink:href="#DejaVuSans-31"/>
       <use xlink:href="#DejaVuSans-35" x="63.623047"/>
       <use xlink:href="#DejaVuSans-30" x="127.246094"/>
      </g>
     </g>
    </g>
    <g id="xtick_26">
     <g id="line2d_50">
      <g>
       <use xlink:href="#m481910ba29" x="909.352995" y="1262.016" style="stroke: #000000; stroke-width: 0.8"/>
      </g>
     </g>
     <g id="text_47">
      <!-- 200 -->
      <g transform="translate(899.809245 1276.614437)scale(0.1 -0.1)">
       <use xlink:href="#DejaVuSans-32"/>
       <use xlink:href="#DejaVuSans-30" x="63.623047"/>
       <use xlink:href="#DejaVuSans-30" x="127.246094"/>
      </g>
     </g>
    </g>
    <g id="xtick_27">
     <g id="line2d_51">
      <g>
       <use xlink:href="#m481910ba29" x="1079.009425" y="1262.016" style="stroke: #000000; stroke-width: 0.8"/>
      </g>
     </g>
     <g id="text_48">
      <!-- 250 -->
      <g transform="translate(1069.465675 1276.614437)scale(0.1 -0.1)">
       <use xlink:href="#DejaVuSans-32"/>
       <use xlink:href="#DejaVuSans-35" x="63.623047"/>
       <use xlink:href="#DejaVuSans-30" x="127.246094"/>
      </g>
     </g>
    </g>
    <g id="xtick_28">
     <g id="line2d_52">
      <g>
       <use xlink:href="#m481910ba29" x="1248.665856" y="1262.016" style="stroke: #000000; stroke-width: 0.8"/>
      </g>
     </g>
     <g id="text_49">
      <!-- 300 -->
      <g transform="translate(1239.122106 1276.614437)scale(0.1 -0.1)">
       <use xlink:href="#DejaVuSans-33"/>
       <use xlink:href="#DejaVuSans-30" x="63.623047"/>
       <use xlink:href="#DejaVuSans-30" x="127.246094"/>
      </g>
     </g>
    </g>
   </g>
   <g id="matplotlib.axis_8">
    <g id="ytick_22">
     <g id="line2d_53">
      <g>
       <use xlink:href="#m16f436d8a0" x="180" y="1243.536" style="stroke: #000000; stroke-width: 0.8"/>
      </g>
     </g>
     <g id="text_50">
      <!-- −150 -->
      <g transform="translate(145.532813 1247.335219)scale(0.1 -0.1)">
       <use xlink:href="#DejaVuSans-2212"/>
       <use xlink:href="#DejaVuSans-31" x="83.789062"/>
       <use xlink:href="#DejaVuSans-35" x="147.412109"/>
       <use xlink:href="#DejaVuSans-30" x="211.035156"/>
      </g>
     </g>
    </g>
    <g id="ytick_23">
     <g id="line2d_54">
      <g>
       <use xlink:href="#m16f436d8a0" x="180" y="1212.736" style="stroke: #000000; stroke-width: 0.8"/>
      </g>
     </g>
     <g id="text_51">
      <!-- −100 -->
      <g transform="translate(145.532813 1216.535219)scale(0.1 -0.1)">
       <use xlink:href="#DejaVuSans-2212"/>
       <use xlink:href="#DejaVuSans-31" x="83.789062"/>
       <use xlink:href="#DejaVuSans-30" x="147.412109"/>
       <use xlink:href="#DejaVuSans-30" x="211.035156"/>
      </g>
     </g>
    </g>
    <g id="ytick_24">
     <g id="line2d_55">
      <g>
       <use xlink:href="#m16f436d8a0" x="180" y="1181.936" style="stroke: #000000; stroke-width: 0.8"/>
      </g>
     </g>
     <g id="text_52">
      <!-- −50 -->
      <g transform="translate(151.895312 1185.735219)scale(0.1 -0.1)">
       <use xlink:href="#DejaVuSans-2212"/>
       <use xlink:href="#DejaVuSans-35" x="83.789062"/>
       <use xlink:href="#DejaVuSans-30" x="147.412109"/>
      </g>
     </g>
    </g>
    <g id="ytick_25">
     <g id="line2d_56">
      <g>
       <use xlink:href="#m16f436d8a0" x="180" y="1151.136" style="stroke: #000000; stroke-width: 0.8"/>
      </g>
     </g>
     <g id="text_53">
      <!-- 0 -->
      <g transform="translate(166.6375 1154.935219)scale(0.1 -0.1)">
       <use xlink:href="#DejaVuSans-30"/>
      </g>
     </g>
    </g>
    <g id="ytick_26">
     <g id="line2d_57">
      <g>
       <use xlink:href="#m16f436d8a0" x="180" y="1120.336" style="stroke: #000000; stroke-width: 0.8"/>
      </g>
     </g>
     <g id="text_54">
      <!-- 50 -->
      <g transform="translate(160.275 1124.135219)scale(0.1 -0.1)">
       <use xlink:href="#DejaVuSans-35"/>
       <use xlink:href="#DejaVuSans-30" x="63.623047"/>
      </g>
     </g>
    </g>
    <g id="ytick_27">
     <g id="line2d_58">
      <g>
       <use xlink:href="#m16f436d8a0" x="180" y="1089.536" style="stroke: #000000; stroke-width: 0.8"/>
      </g>
     </g>
     <g id="text_55">
      <!-- 100 -->
      <g transform="translate(153.9125 1093.335219)scale(0.1 -0.1)">
       <use xlink:href="#DejaVuSans-31"/>
       <use xlink:href="#DejaVuSans-30" x="63.623047"/>
       <use xlink:href="#DejaVuSans-30" x="127.246094"/>
      </g>
     </g>
    </g>
    <g id="ytick_28">
     <g id="line2d_59">
      <g>
       <use xlink:href="#m16f436d8a0" x="180" y="1058.736" style="stroke: #000000; stroke-width: 0.8"/>
      </g>
     </g>
     <g id="text_56">
      <!-- 150 -->
      <g transform="translate(153.9125 1062.535219)scale(0.1 -0.1)">
       <use xlink:href="#DejaVuSans-31"/>
       <use xlink:href="#DejaVuSans-35" x="63.623047"/>
       <use xlink:href="#DejaVuSans-30" x="127.246094"/>
      </g>
     </g>
    </g>
   </g>
   <g id="line2d_60">
    <path d="M 230.727273 1121.568 
L 234.120401 1138.2 
L 237.51353 1130.808 
L 240.906659 1137.584 
L 244.299787 1140.048 
L 247.692916 1116.024 
L 251.086044 1106.784 
L 254.479173 1109.248 
L 257.872302 1109.248 
L 261.26543 1122.8 
L 264.658559 1138.816 
L 268.051687 1138.2 
L 271.444816 1140.048 
L 274.837945 1159.76 
L 278.231073 1149.904 
L 281.624202 1120.952 
L 285.01733 1147.44 
L 288.410459 1202.88 
L 291.803588 1222.592 
L 295.196716 1226.904 
L 298.589845 1212.736 
L 301.982974 1179.472 
L 305.376102 1156.68 
L 308.769231 1131.424 
L 312.162359 1104.32 
L 315.555488 1120.336 
L 318.948617 1167.152 
L 322.341745 1200.416 
L 325.734874 1210.888 
L 329.128002 1205.344 
L 332.521131 1201.648 
L 335.91426 1207.808 
L 339.307388 1204.728 
L 342.700517 1188.096 
L 346.093645 1175.16 
L 349.486774 1172.696 
L 352.879903 1164.072 
L 356.273031 1149.904 
L 359.66616 1151.752 
L 363.059289 1157.912 
L 366.452417 1140.664 
L 369.845546 1124.648 
L 373.238674 1130.192 
L 376.631803 1121.568 
L 380.024932 1108.016 
L 383.41806 1118.488 
L 386.811189 1128.344 
L 390.204317 1127.728 
L 393.597446 1122.8 
L 396.990575 1114.176 
L 400.383703 1117.872 
L 403.776832 1131.424 
L 407.16996 1132.656 
L 410.563089 1124.032 
L 413.956218 1111.096 
L 417.349346 1099.392 
L 420.742475 1104.936 
L 424.135604 1124.648 
L 427.528732 1126.496 
L 430.921861 1134.504 
L 434.314989 1169.616 
L 437.708118 1188.712 
L 441.101247 1179.472 
L 444.494375 1173.312 
L 447.887504 1170.848 
L 454.673761 1181.936 
L 458.06689 1178.24 
L 461.460018 1181.936 
L 464.853147 1196.72 
L 468.246275 1186.864 
L 471.639404 1166.536 
L 475.032533 1163.456 
L 478.425661 1159.144 
L 481.81879 1149.288 
L 485.211919 1154.832 
L 488.605047 1165.92 
L 491.998176 1164.072 
L 495.391304 1162.84 
L 498.784433 1169 
L 502.177562 1170.232 
L 505.57069 1163.456 
L 508.963819 1154.216 
L 512.356947 1149.288 
L 515.750076 1149.904 
L 519.143205 1157.296 
L 522.536333 1168.384 
L 525.929462 1169 
L 529.32259 1154.216 
L 532.715719 1138.2 
L 536.108848 1133.888 
L 539.501976 1135.12 
L 542.895105 1126.496 
L 546.288234 1113.56 
L 549.681362 1117.872 
L 553.074491 1133.888 
L 556.467619 1140.048 
L 559.860748 1139.432 
L 563.253877 1129.576 
L 566.647005 1120.952 
L 570.040134 1113.56 
L 573.433262 1105.552 
L 576.826391 1118.488 
L 580.21952 1148.672 
L 583.612648 1180.088 
L 587.005777 1198.568 
L 590.398905 1188.712 
L 593.792034 1185.632 
L 597.185163 1201.032 
L 600.578291 1194.256 
L 603.97142 1173.928 
L 607.364548 1173.312 
L 610.757677 1165.92 
L 614.150806 1159.144 
L 617.543934 1174.544 
L 620.937063 1173.928 
L 624.330192 1163.456 
L 627.72332 1159.144 
L 631.116449 1140.048 
L 634.509577 1127.112 
L 637.902706 1127.112 
L 641.295835 1116.024 
L 644.688963 1111.096 
L 648.082092 1125.88 
L 651.47522 1126.496 
L 654.868349 1126.496 
L 658.261478 1147.44 
L 661.654606 1149.288 
L 665.047735 1129.576 
L 668.440863 1130.192 
L 671.833992 1136.352 
L 675.227121 1136.352 
L 678.620249 1144.36 
L 682.013378 1149.904 
L 685.406507 1141.28 
L 688.799635 1135.736 
L 692.192764 1141.896 
L 695.585892 1141.28 
L 698.979021 1146.824 
L 702.37215 1159.144 
L 705.765278 1157.296 
L 709.158407 1156.68 
L 712.551535 1160.992 
L 715.944664 1146.208 
L 719.337793 1135.12 
L 722.730921 1130.808 
L 726.12405 1125.88 
L 729.517178 1125.88 
L 732.910307 1117.872 
L 736.303436 1116.024 
L 739.696564 1135.12 
L 743.089693 1151.136 
L 746.482822 1166.536 
L 749.87595 1181.32 
L 753.269079 1186.864 
L 756.662207 1197.336 
L 760.055336 1214.584 
L 763.448465 1214.584 
L 770.234722 1191.176 
L 773.62785 1172.08 
L 777.020979 1156.064 
L 780.414108 1157.912 
L 783.807236 1169.616 
L 787.200365 1164.688 
L 790.593493 1149.288 
L 793.986622 1150.52 
L 797.379751 1150.52 
L 800.772879 1141.28 
L 804.166008 1146.208 
L 807.559137 1155.448 
L 810.952265 1156.68 
L 814.345394 1162.224 
L 817.738522 1162.84 
L 821.131651 1156.68 
L 824.52478 1149.288 
L 827.917908 1125.88 
L 831.311037 1100.008 
L 834.704165 1103.088 
L 838.097294 1105.552 
L 841.490423 1083.992 
L 844.883551 1090.768 
L 848.27668 1147.44 
L 851.669808 1183.784 
L 855.062937 1195.488 
L 858.456066 1209.656 
L 861.849194 1198.568 
L 865.242323 1170.848 
L 868.635452 1171.464 
L 872.02858 1181.32 
L 875.421709 1167.152 
L 878.814837 1151.752 
L 882.207966 1145.592 
L 885.601095 1141.28 
L 888.994223 1146.208 
L 892.387352 1156.68 
L 895.78048 1164.072 
L 899.173609 1169.616 
L 902.566738 1169.616 
L 905.959866 1170.232 
L 909.352995 1174.544 
L 912.746123 1164.688 
L 916.139252 1149.904 
L 919.532381 1143.128 
L 922.925509 1131.424 
L 926.318638 1120.336 
L 929.711766 1115.408 
L 933.104895 1113.56 
L 936.498024 1109.864 
L 939.891152 1115.408 
L 943.284281 1126.496 
L 946.67741 1114.176 
L 950.070538 1107.4 
L 953.463667 1138.2 
L 956.856795 1146.208 
L 960.249924 1126.496 
L 963.643053 1120.336 
L 967.036181 1120.336 
L 970.42931 1114.792 
L 973.822438 1122.8 
L 977.215567 1154.216 
L 980.608696 1174.544 
L 984.001824 1177.624 
L 987.394953 1180.088 
L 990.788081 1181.32 
L 994.18121 1173.312 
L 997.574339 1169.616 
L 1000.967467 1174.544 
L 1004.360596 1166.536 
L 1007.753725 1143.744 
L 1011.146853 1147.44 
L 1014.539982 1167.768 
L 1017.93311 1156.064 
L 1021.326239 1141.28 
L 1024.719368 1154.216 
L 1028.112496 1152.368 
L 1031.505625 1142.512 
L 1034.898753 1150.52 
L 1038.291882 1157.912 
L 1041.685011 1159.144 
L 1045.078139 1174.544 
L 1048.471268 1193.024 
L 1051.864396 1185.016 
L 1055.257525 1169 
L 1058.650654 1165.304 
L 1062.043782 1157.912 
L 1065.436911 1148.672 
L 1068.83004 1142.512 
L 1072.223168 1142.512 
L 1075.616297 1157.912 
L 1079.009425 1180.704 
L 1082.402554 1187.48 
L 1085.795683 1169.616 
L 1089.188811 1142.512 
L 1092.58194 1133.272 
L 1095.975068 1137.584 
L 1099.368197 1151.136 
L 1102.761326 1165.92 
L 1106.154454 1160.992 
L 1109.547583 1147.44 
L 1112.940711 1154.216 
L 1116.33384 1173.312 
L 1119.726969 1183.168 
L 1123.120097 1186.248 
L 1126.513226 1180.088 
L 1129.906355 1160.992 
L 1133.299483 1144.976 
L 1136.692612 1141.896 
L 1140.08574 1144.976 
L 1143.478869 1143.128 
L 1146.871998 1140.664 
L 1150.265126 1137.584 
L 1153.658255 1137.584 
L 1157.051383 1132.04 
L 1160.444512 1100.008 
L 1163.837641 1082.144 
L 1167.230769 1091.384 
L 1170.623898 1084.608 
L 1174.017026 1085.224 
L 1177.410155 1130.808 
L 1180.803284 1186.248 
L 1184.196412 1199.8 
L 1187.589541 1184.4 
L 1190.98267 1173.312 
L 1194.375798 1155.448 
L 1197.768927 1139.432 
L 1201.162055 1151.136 
L 1204.555184 1152.984 
L 1207.948313 1128.344 
L 1211.341441 1127.112 
L 1214.73457 1146.208 
L 1218.127698 1142.512 
L 1221.520827 1141.896 
L 1224.913956 1168.384 
L 1228.307084 1172.696 
L 1231.700213 1153.6 
L 1235.093341 1154.216 
L 1238.48647 1160.376 
L 1241.879599 1143.744 
L 1245.272727 1132.04 
L 1245.272727 1132.04 
" clip-path="url(#p9164c76691)" style="fill: none; stroke: #1f77b4; stroke-width: 1.5; stroke-linecap: square"/>
   </g>
   <g id="patch_18">
    <path d="M 180 1262.016 
L 180 1040.256 
" style="fill: none; stroke: #000000; stroke-width: 0.8; stroke-linejoin: miter; stroke-linecap: square"/>
   </g>
   <g id="patch_19">
    <path d="M 1296 1262.016 
L 1296 1040.256 
" style="fill: none; stroke: #000000; stroke-width: 0.8; stroke-linejoin: miter; stroke-linecap: square"/>
   </g>
   <g id="patch_20">
    <path d="M 180 1262.016 
L 1296 1262.016 
" style="fill: none; stroke: #000000; stroke-width: 0.8; stroke-linejoin: miter; stroke-linecap: square"/>
   </g>
   <g id="patch_21">
    <path d="M 180 1040.256 
L 1296 1040.256 
" style="fill: none; stroke: #000000; stroke-width: 0.8; stroke-linejoin: miter; stroke-linecap: square"/>
   </g>
  </g>
  <g id="axes_5">
   <g id="patch_22">
    <path d="M 180 1528.128 
L 1296 1528.128 
L 1296 1306.368 
L 180 1306.368 
L 180 1528.128 
z
" style="fill: none"/>
   </g>
   <g id="matplotlib.axis_9">
    <g id="xtick_29">
     <g id="line2d_61">
      <g>
       <use xlink:href="#m481910ba29" x="230.727273" y="1528.128" style="stroke: #000000; stroke-width: 0.8"/>
      </g>
     </g>
     <g id="text_57">
      <!-- 0 -->
      <g transform="translate(227.546023 1542.726437)scale(0.1 -0.1)">
       <use xlink:href="#DejaVuSans-30"/>
      </g>
     </g>
    </g>
    <g id="xtick_30">
     <g id="line2d_62">
      <g>
       <use xlink:href="#m481910ba29" x="400.383703" y="1528.128" style="stroke: #000000; stroke-width: 0.8"/>
      </g>
     </g>
     <g id="text_58">
      <!-- 50 -->
      <g transform="translate(394.021203 1542.726437)scale(0.1 -0.1)">
       <use xlink:href="#DejaVuSans-35"/>
       <use xlink:href="#DejaVuSans-30" x="63.623047"/>
      </g>
     </g>
    </g>
    <g id="xtick_31">
     <g id="line2d_63">
      <g>
       <use xlink:href="#m481910ba29" x="570.040134" y="1528.128" style="stroke: #000000; stroke-width: 0.8"/>
      </g>
     </g>
     <g id="text_59">
      <!-- 100 -->
      <g transform="translate(560.496384 1542.726437)scale(0.1 -0.1)">
       <use xlink:href="#DejaVuSans-31"/>
       <use xlink:href="#DejaVuSans-30" x="63.623047"/>
       <use xlink:href="#DejaVuSans-30" x="127.246094"/>
      </g>
     </g>
    </g>
    <g id="xtick_32">
     <g id="line2d_64">
      <g>
       <use xlink:href="#m481910ba29" x="739.696564" y="1528.128" style="stroke: #000000; stroke-width: 0.8"/>
      </g>
     </g>
     <g id="text_60">
      <!-- 150 -->
      <g transform="translate(730.152814 1542.726437)scale(0.1 -0.1)">
       <use xlink:href="#DejaVuSans-31"/>
       <use xlink:href="#DejaVuSans-35" x="63.623047"/>
       <use xlink:href="#DejaVuSans-30" x="127.246094"/>
      </g>
     </g>
    </g>
    <g id="xtick_33">
     <g id="line2d_65">
      <g>
       <use xlink:href="#m481910ba29" x="909.352995" y="1528.128" style="stroke: #000000; stroke-width: 0.8"/>
      </g>
     </g>
     <g id="text_61">
      <!-- 200 -->
      <g transform="translate(899.809245 1542.726437)scale(0.1 -0.1)">
       <use xlink:href="#DejaVuSans-32"/>
       <use xlink:href="#DejaVuSans-30" x="63.623047"/>
       <use xlink:href="#DejaVuSans-30" x="127.246094"/>
      </g>
     </g>
    </g>
    <g id="xtick_34">
     <g id="line2d_66">
      <g>
       <use xlink:href="#m481910ba29" x="1079.009425" y="1528.128" style="stroke: #000000; stroke-width: 0.8"/>
      </g>
     </g>
     <g id="text_62">
      <!-- 250 -->
      <g transform="translate(1069.465675 1542.726437)scale(0.1 -0.1)">
       <use xlink:href="#DejaVuSans-32"/>
       <use xlink:href="#DejaVuSans-35" x="63.623047"/>
       <use xlink:href="#DejaVuSans-30" x="127.246094"/>
      </g>
     </g>
    </g>
    <g id="xtick_35">
     <g id="line2d_67">
      <g>
       <use xlink:href="#m481910ba29" x="1248.665856" y="1528.128" style="stroke: #000000; stroke-width: 0.8"/>
      </g>
     </g>
     <g id="text_63">
      <!-- 300 -->
      <g transform="translate(1239.122106 1542.726437)scale(0.1 -0.1)">
       <use xlink:href="#DejaVuSans-33"/>
       <use xlink:href="#DejaVuSans-30" x="63.623047"/>
       <use xlink:href="#DejaVuSans-30" x="127.246094"/>
      </g>
     </g>
    </g>
   </g>
   <g id="matplotlib.axis_10">
    <g id="ytick_29">
     <g id="line2d_68">
      <g>
       <use xlink:href="#m16f436d8a0" x="180" y="1509.648" style="stroke: #000000; stroke-width: 0.8"/>
      </g>
     </g>
     <g id="text_64">
      <!-- −150 -->
      <g transform="translate(145.532813 1513.447219)scale(0.1 -0.1)">
       <use xlink:href="#DejaVuSans-2212"/>
       <use xlink:href="#DejaVuSans-31" x="83.789062"/>
       <use xlink:href="#DejaVuSans-35" x="147.412109"/>
       <use xlink:href="#DejaVuSans-30" x="211.035156"/>
      </g>
     </g>
    </g>
    <g id="ytick_30">
     <g id="line2d_69">
      <g>
       <use xlink:href="#m16f436d8a0" x="180" y="1478.848" style="stroke: #000000; stroke-width: 0.8"/>
      </g>
     </g>
     <g id="text_65">
      <!-- −100 -->
      <g transform="translate(145.532813 1482.647219)scale(0.1 -0.1)">
       <use xlink:href="#DejaVuSans-2212"/>
       <use xlink:href="#DejaVuSans-31" x="83.789062"/>
       <use xlink:href="#DejaVuSans-30" x="147.412109"/>
       <use xlink:href="#DejaVuSans-30" x="211.035156"/>
      </g>
     </g>
    </g>
    <g id="ytick_31">
     <g id="line2d_70">
      <g>
       <use xlink:href="#m16f436d8a0" x="180" y="1448.048" style="stroke: #000000; stroke-width: 0.8"/>
      </g>
     </g>
     <g id="text_66">
      <!-- −50 -->
      <g transform="translate(151.895312 1451.847219)scale(0.1 -0.1)">
       <use xlink:href="#DejaVuSans-2212"/>
       <use xlink:href="#DejaVuSans-35" x="83.789062"/>
       <use xlink:href="#DejaVuSans-30" x="147.412109"/>
      </g>
     </g>
    </g>
    <g id="ytick_32">
     <g id="line2d_71">
      <g>
       <use xlink:href="#m16f436d8a0" x="180" y="1417.248" style="stroke: #000000; stroke-width: 0.8"/>
      </g>
     </g>
     <g id="text_67">
      <!-- 0 -->
      <g transform="translate(166.6375 1421.047219)scale(0.1 -0.1)">
       <use xlink:href="#DejaVuSans-30"/>
      </g>
     </g>
    </g>
    <g id="ytick_33">
     <g id="line2d_72">
      <g>
       <use xlink:href="#m16f436d8a0" x="180" y="1386.448" style="stroke: #000000; stroke-width: 0.8"/>
      </g>
     </g>
     <g id="text_68">
      <!-- 50 -->
      <g transform="translate(160.275 1390.247219)scale(0.1 -0.1)">
       <use xlink:href="#DejaVuSans-35"/>
       <use xlink:href="#DejaVuSans-30" x="63.623047"/>
      </g>
     </g>
    </g>
    <g id="ytick_34">
     <g id="line2d_73">
      <g>
       <use xlink:href="#m16f436d8a0" x="180" y="1355.648" style="stroke: #000000; stroke-width: 0.8"/>
      </g>
     </g>
     <g id="text_69">
      <!-- 100 -->
      <g transform="translate(153.9125 1359.447219)scale(0.1 -0.1)">
       <use xlink:href="#DejaVuSans-31"/>
       <use xlink:href="#DejaVuSans-30" x="63.623047"/>
       <use xlink:href="#DejaVuSans-30" x="127.246094"/>
      </g>
     </g>
    </g>
    <g id="ytick_35">
     <g id="line2d_74">
      <g>
       <use xlink:href="#m16f436d8a0" x="180" y="1324.848" style="stroke: #000000; stroke-width: 0.8"/>
      </g>
     </g>
     <g id="text_70">
      <!-- 150 -->
      <g transform="translate(153.9125 1328.647219)scale(0.1 -0.1)">
       <use xlink:href="#DejaVuSans-31"/>
       <use xlink:href="#DejaVuSans-35" x="63.623047"/>
       <use xlink:href="#DejaVuSans-30" x="127.246094"/>
      </g>
     </g>
    </g>
   </g>
   <g id="line2d_75">
    <path d="M 230.727273 1391.992 
L 234.120401 1396.92 
L 237.51353 1383.984 
L 240.906659 1377.208 
L 244.299787 1392.608 
L 247.692916 1401.848 
L 251.086044 1390.144 
L 254.479173 1380.904 
L 257.872302 1384.6 
L 261.26543 1389.528 
L 264.658559 1391.376 
L 268.051687 1396.92 
L 271.444816 1395.072 
L 274.837945 1395.688 
L 278.231073 1419.712 
L 281.624202 1444.968 
L 285.01733 1438.808 
L 288.410459 1427.104 
L 291.803588 1416.016 
L 295.196716 1400 
L 298.589845 1396.304 
L 301.982974 1386.448 
L 305.376102 1365.504 
L 308.769231 1359.344 
L 312.162359 1358.112 
L 315.555488 1366.736 
L 318.948617 1403.696 
L 322.341745 1436.344 
L 325.734874 1449.28 
L 329.128002 1458.52 
L 332.521131 1468.376 
L 335.91426 1471.456 
L 339.307388 1462.216 
L 342.700517 1465.296 
L 346.093645 1471.456 
L 349.486774 1459.752 
L 352.879903 1453.592 
L 356.273031 1459.752 
L 359.66616 1437.576 
L 363.059289 1411.704 
L 366.452417 1422.176 
L 369.845546 1421.56 
L 373.238674 1404.312 
L 376.631803 1409.24 
L 380.024932 1417.248 
L 383.41806 1404.312 
L 386.811189 1406.16 
L 390.204317 1423.408 
L 393.597446 1415.4 
L 396.990575 1398.768 
L 400.383703 1404.312 
L 403.776832 1414.168 
L 407.16996 1417.864 
L 410.563089 1425.256 
L 413.956218 1432.032 
L 417.349346 1422.176 
L 420.742475 1398.152 
L 424.135604 1391.992 
L 427.528732 1412.32 
L 430.921861 1437.576 
L 434.314989 1448.664 
L 437.708118 1462.216 
L 441.101247 1470.224 
L 444.494375 1455.44 
L 447.887504 1438.192 
L 451.280632 1441.272 
L 454.673761 1435.728 
L 458.06689 1414.784 
L 461.460018 1411.088 
L 464.853147 1433.264 
L 468.246275 1445.584 
L 471.639404 1441.272 
L 475.032533 1436.344 
L 478.425661 1427.72 
L 481.81879 1432.648 
L 485.211919 1435.728 
L 488.605047 1421.56 
L 491.998176 1414.784 
L 495.391304 1412.936 
L 498.784433 1403.08 
L 502.177562 1401.848 
L 505.57069 1411.704 
L 508.963819 1406.776 
L 512.356947 1398.152 
L 515.750076 1407.392 
L 519.143205 1423.408 
L 522.536333 1426.488 
L 529.32259 1411.704 
L 532.715719 1400 
L 536.108848 1390.144 
L 539.501976 1383.368 
L 542.895105 1368.584 
L 546.288234 1369.2 
L 549.681362 1390.144 
L 553.074491 1398.768 
L 556.467619 1388.912 
L 559.860748 1378.44 
L 563.253877 1365.504 
L 566.647005 1363.656 
L 570.040134 1364.272 
L 573.433262 1359.344 
L 576.826391 1380.288 
L 580.21952 1420.944 
L 583.612648 1440.656 
L 587.005777 1448.664 
L 590.398905 1452.36 
L 593.792034 1452.976 
L 597.185163 1468.376 
L 600.578291 1487.472 
L 603.97142 1478.232 
L 607.364548 1454.208 
L 610.757677 1433.264 
L 614.150806 1424.64 
L 617.543934 1430.8 
L 620.937063 1428.336 
L 624.330192 1406.776 
L 627.72332 1391.376 
L 631.116449 1395.072 
L 634.509577 1390.76 
L 637.902706 1377.824 
L 641.295835 1388.912 
L 644.688963 1396.92 
L 648.082092 1385.832 
L 651.47522 1377.208 
L 654.868349 1374.128 
L 658.261478 1390.144 
L 661.654606 1407.392 
L 665.047735 1404.928 
L 668.440863 1423.408 
L 671.833992 1438.192 
L 675.227121 1424.024 
L 678.620249 1425.256 
L 682.013378 1431.416 
L 685.406507 1414.168 
L 688.799635 1416.632 
L 692.192764 1432.032 
L 695.585892 1427.104 
L 698.979021 1425.256 
L 702.37215 1436.96 
L 705.765278 1449.28 
L 709.158407 1448.664 
L 712.551535 1432.032 
L 715.944664 1414.784 
L 719.337793 1407.392 
L 722.730921 1400.616 
L 726.12405 1395.688 
L 732.910307 1416.632 
L 736.303436 1420.328 
L 739.696564 1439.424 
L 743.089693 1449.896 
L 746.482822 1448.664 
L 749.87595 1454.208 
L 753.269079 1449.896 
L 756.662207 1439.424 
L 760.055336 1440.656 
L 763.448465 1434.496 
L 766.841593 1428.952 
L 770.234722 1442.504 
L 773.62785 1441.888 
L 777.020979 1428.952 
L 780.414108 1440.04 
L 783.807236 1447.432 
L 787.200365 1430.8 
L 790.593493 1428.952 
L 793.986622 1448.664 
L 797.379751 1459.752 
L 800.772879 1448.664 
L 804.166008 1429.568 
L 807.559137 1416.632 
L 810.952265 1414.784 
L 814.345394 1422.176 
L 817.738522 1417.864 
L 821.131651 1409.24 
L 824.52478 1402.464 
L 827.917908 1378.44 
L 831.311037 1350.72 
L 834.704165 1347.64 
L 838.097294 1350.104 
L 841.490423 1345.176 
L 844.883551 1360.576 
L 848.27668 1406.776 
L 851.669808 1428.336 
L 855.062937 1420.944 
L 858.456066 1436.344 
L 861.849194 1458.52 
L 865.242323 1448.048 
L 868.635452 1432.648 
L 872.02858 1435.728 
L 875.421709 1437.576 
L 878.814837 1427.104 
L 882.207966 1411.088 
L 885.601095 1393.84 
L 888.994223 1387.064 
L 892.387352 1394.456 
L 895.78048 1399.384 
L 899.173609 1401.232 
L 902.566738 1406.16 
L 905.959866 1407.392 
L 909.352995 1409.856 
L 912.746123 1418.48 
L 916.139252 1422.792 
L 919.532381 1411.704 
L 922.925509 1385.216 
L 926.318638 1367.352 
L 929.711766 1376.592 
L 933.104895 1383.368 
L 936.498024 1364.888 
L 939.891152 1369.2 
L 943.284281 1400 
L 946.67741 1408.624 
L 950.070538 1401.232 
L 953.463667 1396.304 
L 956.856795 1378.44 
L 960.249924 1370.432 
L 963.643053 1392.608 
L 967.036181 1413.552 
L 970.42931 1404.928 
L 973.822438 1406.16 
L 977.215567 1436.344 
L 980.608696 1446.2 
L 984.001824 1446.2 
L 987.394953 1456.056 
L 990.788081 1451.128 
L 994.18121 1455.44 
L 997.574339 1474.536 
L 1000.967467 1465.296 
L 1004.360596 1452.976 
L 1007.753725 1465.296 
L 1011.146853 1473.304 
L 1014.539982 1471.456 
L 1017.93311 1468.376 
L 1021.326239 1454.208 
L 1024.719368 1436.96 
L 1028.112496 1427.72 
L 1031.505625 1429.568 
L 1034.898753 1436.344 
L 1038.291882 1438.192 
L 1041.685011 1433.264 
L 1045.078139 1424.024 
L 1048.471268 1420.944 
L 1051.864396 1419.096 
L 1055.257525 1426.488 
L 1058.650654 1445.584 
L 1062.043782 1441.888 
L 1065.436911 1427.72 
L 1068.83004 1421.56 
L 1072.223168 1410.472 
L 1075.616297 1403.08 
L 1079.009425 1405.544 
L 1082.402554 1409.24 
L 1085.795683 1418.48 
L 1089.188811 1419.712 
L 1092.58194 1420.328 
L 1095.975068 1430.8 
L 1099.368197 1430.184 
L 1102.761326 1422.792 
L 1106.154454 1422.792 
L 1109.547583 1415.4 
L 1112.940711 1405.544 
L 1116.33384 1402.464 
L 1119.726969 1396.304 
L 1123.120097 1398.152 
L 1126.513226 1417.248 
L 1129.906355 1429.568 
L 1133.299483 1419.096 
L 1136.692612 1398.152 
L 1140.08574 1396.92 
L 1143.478869 1405.544 
L 1146.871998 1402.464 
L 1150.265126 1403.08 
L 1153.658255 1395.688 
L 1157.051383 1371.048 
L 1160.444512 1363.04 
L 1163.837641 1353.184 
L 1167.230769 1321.768 
L 1170.623898 1321.152 
L 1174.017026 1359.96 
L 1177.410155 1388.912 
L 1180.803284 1406.16 
L 1184.196412 1430.8 
L 1187.589541 1446.816 
L 1190.98267 1445.584 
L 1194.375798 1440.04 
L 1197.768927 1430.184 
L 1201.162055 1430.184 
L 1204.555184 1431.416 
L 1207.948313 1420.328 
L 1211.341441 1412.936 
L 1214.73457 1411.088 
L 1218.127698 1408.624 
L 1221.520827 1413.552 
L 1224.913956 1430.8 
L 1228.307084 1437.576 
L 1231.700213 1425.256 
L 1235.093341 1424.024 
L 1238.48647 1435.728 
L 1241.879599 1440.656 
L 1245.272727 1429.568 
L 1245.272727 1429.568 
" clip-path="url(#pd927710027)" style="fill: none; stroke: #1f77b4; stroke-width: 1.5; stroke-linecap: square"/>
   </g>
   <g id="patch_23">
    <path d="M 180 1528.128 
L 180 1306.368 
" style="fill: none; stroke: #000000; stroke-width: 0.8; stroke-linejoin: miter; stroke-linecap: square"/>
   </g>
   <g id="patch_24">
    <path d="M 1296 1528.128 
L 1296 1306.368 
" style="fill: none; stroke: #000000; stroke-width: 0.8; stroke-linejoin: miter; stroke-linecap: square"/>
   </g>
   <g id="patch_25">
    <path d="M 180 1528.128 
L 1296 1528.128 
" style="fill: none; stroke: #000000; stroke-width: 0.8; stroke-linejoin: miter; stroke-linecap: square"/>
   </g>
   <g id="patch_26">
    <path d="M 180 1306.368 
L 1296 1306.368 
" style="fill: none; stroke: #000000; stroke-width: 0.8; stroke-linejoin: miter; stroke-linecap: square"/>
   </g>
  </g>
  <g id="axes_6">
   <g id="patch_27">
    <path d="M 180 1794.24 
L 1296 1794.24 
L 1296 1572.48 
L 180 1572.48 
L 180 1794.24 
z
" style="fill: none"/>
   </g>
   <g id="matplotlib.axis_11">
    <g id="xtick_36">
     <g id="line2d_76">
      <g>
       <use xlink:href="#m481910ba29" x="230.727273" y="1794.24" style="stroke: #000000; stroke-width: 0.8"/>
      </g>
     </g>
     <g id="text_71">
      <!-- 0 -->
      <g transform="translate(227.546023 1808.838438)scale(0.1 -0.1)">
       <use xlink:href="#DejaVuSans-30"/>
      </g>
     </g>
    </g>
    <g id="xtick_37">
     <g id="line2d_77">
      <g>
       <use xlink:href="#m481910ba29" x="400.383703" y="1794.24" style="stroke: #000000; stroke-width: 0.8"/>
      </g>
     </g>
     <g id="text_72">
      <!-- 50 -->
      <g transform="translate(394.021203 1808.838438)scale(0.1 -0.1)">
       <use xlink:href="#DejaVuSans-35"/>
       <use xlink:href="#DejaVuSans-30" x="63.623047"/>
      </g>
     </g>
    </g>
    <g id="xtick_38">
     <g id="line2d_78">
      <g>
       <use xlink:href="#m481910ba29" x="570.040134" y="1794.24" style="stroke: #000000; stroke-width: 0.8"/>
      </g>
     </g>
     <g id="text_73">
      <!-- 100 -->
      <g transform="translate(560.496384 1808.838438)scale(0.1 -0.1)">
       <use xlink:href="#DejaVuSans-31"/>
       <use xlink:href="#DejaVuSans-30" x="63.623047"/>
       <use xlink:href="#DejaVuSans-30" x="127.246094"/>
      </g>
     </g>
    </g>
    <g id="xtick_39">
     <g id="line2d_79">
      <g>
       <use xlink:href="#m481910ba29" x="739.696564" y="1794.24" style="stroke: #000000; stroke-width: 0.8"/>
      </g>
     </g>
     <g id="text_74">
      <!-- 150 -->
      <g transform="translate(730.152814 1808.838438)scale(0.1 -0.1)">
       <use xlink:href="#DejaVuSans-31"/>
       <use xlink:href="#DejaVuSans-35" x="63.623047"/>
       <use xlink:href="#DejaVuSans-30" x="127.246094"/>
      </g>
     </g>
    </g>
    <g id="xtick_40">
     <g id="line2d_80">
      <g>
       <use xlink:href="#m481910ba29" x="909.352995" y="1794.24" style="stroke: #000000; stroke-width: 0.8"/>
      </g>
     </g>
     <g id="text_75">
      <!-- 200 -->
      <g transform="translate(899.809245 1808.838438)scale(0.1 -0.1)">
       <use xlink:href="#DejaVuSans-32"/>
       <use xlink:href="#DejaVuSans-30" x="63.623047"/>
       <use xlink:href="#DejaVuSans-30" x="127.246094"/>
      </g>
     </g>
    </g>
    <g id="xtick_41">
     <g id="line2d_81">
      <g>
       <use xlink:href="#m481910ba29" x="1079.009425" y="1794.24" style="stroke: #000000; stroke-width: 0.8"/>
      </g>
     </g>
     <g id="text_76">
      <!-- 250 -->
      <g transform="translate(1069.465675 1808.838438)scale(0.1 -0.1)">
       <use xlink:href="#DejaVuSans-32"/>
       <use xlink:href="#DejaVuSans-35" x="63.623047"/>
       <use xlink:href="#DejaVuSans-30" x="127.246094"/>
      </g>
     </g>
    </g>
    <g id="xtick_42">
     <g id="line2d_82">
      <g>
       <use xlink:href="#m481910ba29" x="1248.665856" y="1794.24" style="stroke: #000000; stroke-width: 0.8"/>
      </g>
     </g>
     <g id="text_77">
      <!-- 300 -->
      <g transform="translate(1239.122106 1808.838438)scale(0.1 -0.1)">
       <use xlink:href="#DejaVuSans-33"/>
       <use xlink:href="#DejaVuSans-30" x="63.623047"/>
       <use xlink:href="#DejaVuSans-30" x="127.246094"/>
      </g>
     </g>
    </g>
   </g>
   <g id="matplotlib.axis_12">
    <g id="ytick_36">
     <g id="line2d_83">
      <g>
       <use xlink:href="#m16f436d8a0" x="180" y="1775.76" style="stroke: #000000; stroke-width: 0.8"/>
      </g>
     </g>
     <g id="text_78">
      <!-- −150 -->
      <g transform="translate(145.532813 1779.559219)scale(0.1 -0.1)">
       <use xlink:href="#DejaVuSans-2212"/>
       <use xlink:href="#DejaVuSans-31" x="83.789062"/>
       <use xlink:href="#DejaVuSans-35" x="147.412109"/>
       <use xlink:href="#DejaVuSans-30" x="211.035156"/>
      </g>
     </g>
    </g>
    <g id="ytick_37">
     <g id="line2d_84">
      <g>
       <use xlink:href="#m16f436d8a0" x="180" y="1744.96" style="stroke: #000000; stroke-width: 0.8"/>
      </g>
     </g>
     <g id="text_79">
      <!-- −100 -->
      <g transform="translate(145.532813 1748.759219)scale(0.1 -0.1)">
       <use xlink:href="#DejaVuSans-2212"/>
       <use xlink:href="#DejaVuSans-31" x="83.789062"/>
       <use xlink:href="#DejaVuSans-30" x="147.412109"/>
       <use xlink:href="#DejaVuSans-30" x="211.035156"/>
      </g>
     </g>
    </g>
    <g id="ytick_38">
     <g id="line2d_85">
      <g>
       <use xlink:href="#m16f436d8a0" x="180" y="1714.16" style="stroke: #000000; stroke-width: 0.8"/>
      </g>
     </g>
     <g id="text_80">
      <!-- −50 -->
      <g transform="translate(151.895312 1717.959219)scale(0.1 -0.1)">
       <use xlink:href="#DejaVuSans-2212"/>
       <use xlink:href="#DejaVuSans-35" x="83.789062"/>
       <use xlink:href="#DejaVuSans-30" x="147.412109"/>
      </g>
     </g>
    </g>
    <g id="ytick_39">
     <g id="line2d_86">
      <g>
       <use xlink:href="#m16f436d8a0" x="180" y="1683.36" style="stroke: #000000; stroke-width: 0.8"/>
      </g>
     </g>
     <g id="text_81">
      <!-- 0 -->
      <g transform="translate(166.6375 1687.159219)scale(0.1 -0.1)">
       <use xlink:href="#DejaVuSans-30"/>
      </g>
     </g>
    </g>
    <g id="ytick_40">
     <g id="line2d_87">
      <g>
       <use xlink:href="#m16f436d8a0" x="180" y="1652.56" style="stroke: #000000; stroke-width: 0.8"/>
      </g>
     </g>
     <g id="text_82">
      <!-- 50 -->
      <g transform="translate(160.275 1656.359219)scale(0.1 -0.1)">
       <use xlink:href="#DejaVuSans-35"/>
       <use xlink:href="#DejaVuSans-30" x="63.623047"/>
      </g>
     </g>
    </g>
    <g id="ytick_41">
     <g id="line2d_88">
      <g>
       <use xlink:href="#m16f436d8a0" x="180" y="1621.76" style="stroke: #000000; stroke-width: 0.8"/>
      </g>
     </g>
     <g id="text_83">
      <!-- 100 -->
      <g transform="translate(153.9125 1625.559219)scale(0.1 -0.1)">
       <use xlink:href="#DejaVuSans-31"/>
       <use xlink:href="#DejaVuSans-30" x="63.623047"/>
       <use xlink:href="#DejaVuSans-30" x="127.246094"/>
      </g>
     </g>
    </g>
    <g id="ytick_42">
     <g id="line2d_89">
      <g>
       <use xlink:href="#m16f436d8a0" x="180" y="1590.96" style="stroke: #000000; stroke-width: 0.8"/>
      </g>
     </g>
     <g id="text_84">
      <!-- 150 -->
      <g transform="translate(153.9125 1594.759219)scale(0.1 -0.1)">
       <use xlink:href="#DejaVuSans-31"/>
       <use xlink:href="#DejaVuSans-35" x="63.623047"/>
       <use xlink:href="#DejaVuSans-30" x="127.246094"/>
      </g>
     </g>
    </g>
   </g>
   <g id="line2d_90">
    <path d="M 230.727273 1657.488 
L 234.120401 1661.184 
L 237.51353 1679.664 
L 240.906659 1679.664 
L 244.299787 1664.88 
L 247.692916 1653.176 
L 251.086044 1646.4 
L 254.479173 1643.32 
L 257.872302 1650.096 
L 264.658559 1674.736 
L 268.051687 1691.368 
L 271.444816 1696.912 
L 274.837945 1693.216 
L 278.231073 1682.744 
L 281.624202 1667.344 
L 285.01733 1668.576 
L 288.410459 1705.536 
L 291.803588 1733.256 
L 295.196716 1728.944 
L 298.589845 1723.4 
L 301.982974 1708 
L 305.376102 1672.272 
L 308.769231 1649.48 
L 312.162359 1645.168 
L 315.555488 1649.48 
L 318.948617 1672.888 
L 322.341745 1705.536 
L 325.734874 1736.952 
L 329.128002 1756.664 
L 332.521131 1745.576 
L 335.91426 1732.024 
L 339.307388 1732.64 
L 342.700517 1725.248 
L 346.093645 1707.384 
L 349.486774 1688.904 
L 352.879903 1676.584 
L 356.273031 1676.584 
L 359.66616 1685.824 
L 363.059289 1698.144 
L 366.452417 1692.6 
L 369.845546 1662.416 
L 373.238674 1641.472 
L 380.024932 1653.792 
L 383.41806 1653.792 
L 386.811189 1666.728 
L 390.204317 1669.192 
L 393.597446 1656.872 
L 400.383703 1670.424 
L 403.776832 1664.264 
L 407.16996 1660.568 
L 410.563089 1650.712 
L 413.956218 1643.32 
L 417.349346 1657.488 
L 420.742475 1664.264 
L 424.135604 1658.104 
L 427.528732 1671.656 
L 430.921861 1696.912 
L 434.314989 1703.072 
L 437.708118 1712.928 
L 441.101247 1728.944 
L 444.494375 1735.104 
L 447.887504 1728.944 
L 451.280632 1720.32 
L 454.673761 1712.312 
L 458.06689 1709.848 
L 461.460018 1719.704 
L 464.853147 1725.864 
L 471.639404 1683.976 
L 475.032533 1687.056 
L 478.425661 1698.76 
L 481.81879 1703.072 
L 485.211919 1699.992 
L 488.605047 1694.448 
L 491.998176 1690.752 
L 495.391304 1695.68 
L 498.784433 1688.288 
L 502.177562 1674.736 
L 505.57069 1679.664 
L 508.963819 1676.584 
L 512.356947 1664.264 
L 515.750076 1671.656 
L 519.143205 1681.512 
L 522.536333 1677.2 
L 525.929462 1678.432 
L 529.32259 1689.52 
L 532.715719 1685.824 
L 536.108848 1672.888 
L 539.501976 1667.96 
L 542.895105 1652.56 
L 546.288234 1638.392 
L 549.681362 1647.632 
L 553.074491 1661.184 
L 556.467619 1663.648 
L 559.860748 1670.424 
L 563.253877 1664.88 
L 566.647005 1654.408 
L 570.040134 1650.096 
L 573.433262 1637.16 
L 576.826391 1642.088 
L 580.21952 1673.504 
L 583.612648 1698.144 
L 587.005777 1716.008 
L 590.398905 1725.248 
L 593.792034 1725.248 
L 597.185163 1728.944 
L 600.578291 1734.488 
L 603.97142 1730.792 
L 607.364548 1720.32 
L 610.757677 1703.072 
L 614.150806 1683.36 
L 617.543934 1677.2 
L 620.937063 1685.208 
L 624.330192 1680.28 
L 627.72332 1663.032 
L 631.116449 1650.712 
L 634.509577 1646.4 
L 637.902706 1652.56 
L 641.295835 1653.176 
L 644.688963 1636.544 
L 648.082092 1639.624 
L 651.47522 1663.648 
L 654.868349 1679.664 
L 658.261478 1690.752 
L 661.654606 1689.52 
L 665.047735 1675.352 
L 668.440863 1675.968 
L 671.833992 1684.592 
L 675.227121 1682.744 
L 678.620249 1683.36 
L 682.013378 1685.824 
L 685.406507 1674.736 
L 688.799635 1675.968 
L 692.192764 1690.752 
L 695.585892 1687.672 
L 698.979021 1685.824 
L 702.37215 1696.912 
L 705.765278 1686.44 
L 709.158407 1676.584 
L 712.551535 1693.832 
L 715.944664 1690.752 
L 719.337793 1672.272 
L 722.730921 1669.808 
L 726.12405 1666.112 
L 729.517178 1664.88 
L 736.303436 1684.592 
L 739.696564 1695.064 
L 743.089693 1716.624 
L 746.482822 1728.328 
L 749.87595 1714.776 
L 753.269079 1724.016 
L 756.662207 1732.64 
L 760.055336 1704.92 
L 763.448465 1697.528 
L 766.841593 1711.08 
L 770.234722 1698.144 
L 773.62785 1677.2 
L 777.020979 1682.128 
L 780.414108 1700.608 
L 783.807236 1714.776 
L 787.200365 1702.456 
L 790.593493 1683.36 
L 793.986622 1687.056 
L 797.379751 1689.52 
L 800.772879 1689.52 
L 804.166008 1696.296 
L 807.559137 1693.216 
L 810.952265 1689.52 
L 814.345394 1688.904 
L 817.738522 1683.976 
L 821.131651 1687.056 
L 824.52478 1691.984 
L 827.917908 1674.736 
L 831.311037 1650.712 
L 834.704165 1641.472 
L 838.097294 1622.376 
L 841.490423 1600.816 
L 844.883551 1622.992 
L 848.27668 1681.512 
L 851.669808 1710.464 
L 855.062937 1708.616 
L 858.456066 1720.936 
L 861.849194 1724.016 
L 865.242323 1699.376 
L 868.635452 1687.672 
L 872.02858 1693.832 
L 875.421709 1691.368 
L 878.814837 1680.28 
L 882.207966 1673.504 
L 885.601095 1678.432 
L 888.994223 1679.048 
L 892.387352 1672.888 
L 895.78048 1669.808 
L 899.173609 1670.424 
L 902.566738 1683.976 
L 905.959866 1695.68 
L 909.352995 1687.672 
L 912.746123 1683.36 
L 916.139252 1690.752 
L 919.532381 1694.448 
L 922.925509 1674.12 
L 926.318638 1650.096 
L 929.711766 1647.016 
L 933.104895 1646.4 
L 936.498024 1643.936 
L 939.891152 1650.712 
L 943.284281 1648.248 
L 946.67741 1641.472 
L 950.070538 1647.016 
L 953.463667 1649.48 
L 956.856795 1653.792 
L 960.249924 1665.496 
L 963.643053 1652.56 
L 967.036181 1645.784 
L 970.42931 1666.728 
L 973.822438 1675.968 
L 977.215567 1686.44 
L 980.608696 1714.776 
L 984.001824 1738.184 
L 987.394953 1733.256 
L 990.788081 1716.008 
L 994.18121 1708.616 
L 1000.967467 1706.152 
L 1004.360596 1709.848 
L 1007.753725 1706.152 
L 1011.146853 1700.608 
L 1014.539982 1709.848 
L 1017.93311 1711.696 
L 1021.326239 1700.608 
L 1024.719368 1703.072 
L 1028.112496 1701.224 
L 1031.505625 1679.664 
L 1034.898753 1672.272 
L 1038.291882 1691.984 
L 1041.685011 1698.144 
L 1045.078139 1692.6 
L 1048.471268 1706.768 
L 1051.864396 1708.616 
L 1055.257525 1691.368 
L 1058.650654 1691.368 
L 1062.043782 1690.752 
L 1065.436911 1679.664 
L 1068.83004 1681.512 
L 1072.223168 1685.824 
L 1075.616297 1691.368 
L 1079.009425 1716.624 
L 1082.402554 1719.704 
L 1085.795683 1685.824 
L 1089.188811 1669.192 
L 1092.58194 1675.968 
L 1095.975068 1677.816 
L 1099.368197 1689.52 
L 1102.761326 1695.68 
L 1106.154454 1674.736 
L 1109.547583 1666.112 
L 1112.940711 1682.128 
L 1116.33384 1696.296 
L 1119.726969 1699.376 
L 1123.120097 1701.84 
L 1129.906355 1704.304 
L 1133.299483 1690.136 
L 1136.692612 1671.656 
L 1140.08574 1682.128 
L 1143.478869 1686.44 
L 1146.871998 1669.192 
L 1150.265126 1664.88 
L 1153.658255 1664.264 
L 1157.051383 1651.944 
L 1160.444512 1632.232 
L 1163.837641 1615.6 
L 1167.230769 1611.288 
L 1170.623898 1618.064 
L 1174.017026 1637.16 
L 1177.410155 1663.648 
L 1180.803284 1695.68 
L 1184.196412 1725.864 
L 1187.589541 1717.856 
L 1190.98267 1689.52 
L 1194.375798 1685.824 
L 1197.768927 1688.288 
L 1201.162055 1675.352 
L 1204.555184 1667.344 
L 1207.948313 1669.192 
L 1211.341441 1667.344 
L 1214.73457 1667.96 
L 1218.127698 1680.896 
L 1221.520827 1696.296 
L 1224.913956 1698.76 
L 1228.307084 1687.672 
L 1231.700213 1680.896 
L 1235.093341 1687.056 
L 1238.48647 1684.592 
L 1241.879599 1672.272 
L 1245.272727 1667.96 
L 1245.272727 1667.96 
" clip-path="url(#p6249714d40)" style="fill: none; stroke: #1f77b4; stroke-width: 1.5; stroke-linecap: square"/>
   </g>
   <g id="patch_28">
    <path d="M 180 1794.24 
L 180 1572.48 
" style="fill: none; stroke: #000000; stroke-width: 0.8; stroke-linejoin: miter; stroke-linecap: square"/>
   </g>
   <g id="patch_29">
    <path d="M 1296 1794.24 
L 1296 1572.48 
" style="fill: none; stroke: #000000; stroke-width: 0.8; stroke-linejoin: miter; stroke-linecap: square"/>
   </g>
   <g id="patch_30">
    <path d="M 180 1794.24 
L 1296 1794.24 
" style="fill: none; stroke: #000000; stroke-width: 0.8; stroke-linejoin: miter; stroke-linecap: square"/>
   </g>
   <g id="patch_31">
    <path d="M 180 1572.48 
L 1296 1572.48 
" style="fill: none; stroke: #000000; stroke-width: 0.8; stroke-linejoin: miter; stroke-linecap: square"/>
   </g>
  </g>
 </g>
 <defs>
  <clipPath id="pee816afa38">
   <rect x="180" y="241.92" width="1116" height="221.76"/>
  </clipPath>
  <clipPath id="p37ccebcf38">
   <rect x="180" y="508.032" width="1116" height="221.76"/>
  </clipPath>
  <clipPath id="p47a06b8eaa">
   <rect x="180" y="774.144" width="1116" height="221.76"/>
  </clipPath>
  <clipPath id="p9164c76691">
   <rect x="180" y="1040.256" width="1116" height="221.76"/>
  </clipPath>
  <clipPath id="pd927710027">
   <rect x="180" y="1306.368" width="1116" height="221.76"/>
  </clipPath>
  <clipPath id="p6249714d40">
   <rect x="180" y="1572.48" width="1116" height="221.76"/>
  </clipPath>
 </defs>
</svg>
