<?xml version="1.0" encoding="utf-8" standalone="no"?>
<!DOCTYPE svg PUBLIC "-//W3C//DTD SVG 1.1//EN"
  "http://www.w3.org/Graphics/SVG/1.1/DTD/svg11.dtd">
<svg xmlns:xlink="http://www.w3.org/1999/xlink" width="288pt" height="1440pt" viewBox="0 0 288 1440" xmlns="http://www.w3.org/2000/svg" version="1.1">
 <metadata>
  <rdf:RDF xmlns:dc="http://purl.org/dc/elements/1.1/" xmlns:cc="http://creativecommons.org/ns#" xmlns:rdf="http://www.w3.org/1999/02/22-rdf-syntax-ns#">
   <cc:Work>
    <dc:type rdf:resource="http://purl.org/dc/dcmitype/StillImage"/>
    <dc:date>2023-08-04T10:21:30.407741</dc:date>
    <dc:format>image/svg+xml</dc:format>
    <dc:creator>
     <cc:Agent>
      <dc:title>Matplotlib v3.5.2, https://matplotlib.org/</dc:title>
     </cc:Agent>
    </dc:creator>
   </cc:Work>
  </rdf:RDF>
 </metadata>
 <defs>
  <style type="text/css">*{stroke-linejoin: round; stroke-linecap: butt}</style>
 </defs>
 <g id="figure_1">
  <g id="patch_1">
   <path d="M 0 1440 
L 288 1440 
L 288 0 
L 0 0 
L 0 1440 
z
" style="fill: none"/>
  </g>
  <g id="axes_1">
   <g id="line2d_1">
    <path d="M 46.145455 195.036561 
L 49.584592 194.912919 
L 53.023729 194.907375 
L 56.462866 194.899757 
L 59.902003 194.893346 
L 63.34114 194.885346 
L 66.780277 194.880019 
L 70.219414 194.8756 
L 73.658552 194.869689 
L 77.097689 194.864878 
L 80.536826 194.862743 
L 83.975963 194.862438 
L 87.4151 194.864357 
L 90.854237 194.867367 
L 94.293374 194.888358 
L 97.732512 194.972826 
L 101.171649 195.127598 
L 104.610786 195.286295 
L 108.049923 195.39673 
L 111.48906 195.463958 
L 114.928197 195.48594 
L 118.367334 195.443543 
L 121.806471 195.357084 
L 125.245609 195.278965 
L 128.684746 195.233852 
L 132.123883 195.209905 
L 135.56302 195.194795 
L 139.002157 195.184163 
L 142.441294 195.175108 
L 145.880431 195.166927 
L 149.319569 195.15768 
L 152.758706 195.147176 
L 156.197843 195.136333 
L 159.63698 195.123543 
L 163.076117 195.109229 
L 166.515254 195.095376 
L 169.954391 195.081044 
L 173.393529 195.065816 
L 176.832666 195.052517 
L 180.271803 195.04124 
L 183.71094 195.028931 
L 187.150077 195.016672 
L 190.589214 195.005921 
L 194.028351 194.995768 
L 197.467488 194.987383 
L 200.906626 194.980518 
L 204.345763 194.972753 
L 207.7849 194.965308 
L 211.224037 194.959616 
L 214.663174 194.953353 
L 218.102311 194.946668 
L 221.541448 194.941277 
L 224.980586 194.935725 
L 228.419723 194.93007 
L 231.85886 194.928459 
L 235.297997 194.929833 
L 238.737134 194.930185 
L 242.176271 194.932742 
L 245.615408 194.940214 
L 249.054545 194.943473 
" clip-path="url(#p83f790f64f)" style="fill: none; stroke: #1f77b4; stroke-width: 1.5; stroke-linecap: square"/>
   </g>
   <g id="line2d_2">
    <path d="M 80.536826 194.862743 
L 83.975963 194.862438 
L 87.4151 194.864357 
L 90.854237 194.867367 
L 94.293374 194.888358 
L 97.732512 194.972826 
L 101.171649 195.127598 
L 104.610786 195.286295 
L 108.049923 195.39673 
L 111.48906 195.463958 
L 114.928197 195.48594 
L 118.367334 195.443543 
L 121.806471 195.357084 
L 125.245609 195.278965 
L 128.684746 195.233852 
L 132.123883 195.209905 
L 135.56302 195.194795 
L 139.002157 195.184163 
L 142.441294 195.175108 
L 145.880431 195.166927 
L 149.319569 195.15768 
L 152.758706 195.147176 
L 156.197843 195.136333 
L 159.63698 195.123543 
L 163.076117 195.109229 
L 166.515254 195.095376 
L 169.954391 195.081044 
L 173.393529 195.065816 
L 176.832666 195.052517 
L 180.271803 195.04124 
" clip-path="url(#p83f790f64f)" style="fill: none; stroke: #ff0000; stroke-width: 3; stroke-linecap: square"/>
   </g>
  </g>
  <g id="axes_2">
   <g id="line2d_3">
    <path d="M 46.145455 275.190778 
L 49.584592 271.602392 
L 53.023729 271.544613 
L 56.462866 271.333376 
L 59.902003 271.176524 
L 63.34114 270.989203 
L 66.780277 270.883339 
L 70.219414 270.780789 
L 73.658552 270.640705 
L 77.097689 270.54906 
L 80.536826 270.525446 
L 83.975963 270.537752 
L 87.4151 270.616921 
L 90.854237 270.733682 
L 94.293374 271.385258 
L 97.732512 274.002169 
L 101.171649 278.888616 
L 104.610786 284.024638 
L 108.049923 287.694431 
L 111.48906 289.97493 
L 114.928197 290.850487 
L 118.367334 289.675477 
L 121.806471 286.870346 
L 125.245609 283.95576 
L 128.684746 281.788674 
L 132.123883 280.21196 
L 135.56302 279.022475 
L 139.002157 278.11517 
L 142.441294 277.375567 
L 145.880431 276.804231 
L 149.319569 276.358347 
L 152.758706 275.99366 
L 156.197843 275.707338 
L 159.63698 275.447422 
L 163.076117 275.194735 
L 166.515254 274.975395 
L 169.954391 274.779623 
L 173.393529 274.590897 
L 176.832666 274.427358 
L 180.271803 274.297852 
L 183.71094 274.170638 
L 187.150077 274.028083 
L 190.589214 273.877554 
L 194.028351 273.75951 
L 197.467488 273.694316 
L 200.906626 273.621248 
L 204.345763 273.510793 
L 207.7849 273.402278 
L 211.224037 273.303551 
L 214.663174 273.180246 
L 218.102311 273.042111 
L 221.541448 272.906542 
L 224.980586 272.76117 
L 228.419723 272.621673 
L 231.85886 272.5748 
L 235.297997 272.601353 
L 238.737134 272.608455 
L 242.176271 272.666952 
L 245.615408 272.867085 
L 249.054545 272.938504 
" clip-path="url(#pbc694f5e21)" style="fill: none; stroke: #1f77b4; stroke-width: 1.5; stroke-linecap: square"/>
   </g>
   <g id="line2d_4">
    <path d="M 80.536826 270.525446 
L 83.975963 270.537752 
L 87.4151 270.616921 
L 90.854237 270.733682 
L 94.293374 271.385258 
L 97.732512 274.002169 
L 101.171649 278.888616 
L 104.610786 284.024638 
L 108.049923 287.694431 
L 111.48906 289.97493 
L 114.928197 290.850487 
L 118.367334 289.675477 
L 121.806471 286.870346 
L 125.245609 283.95576 
L 128.684746 281.788674 
L 132.123883 280.21196 
L 135.56302 279.022475 
L 139.002157 278.11517 
L 142.441294 277.375567 
L 145.880431 276.804231 
L 149.319569 276.358347 
L 152.758706 275.99366 
L 156.197843 275.707338 
L 159.63698 275.447422 
L 163.076117 275.194735 
L 166.515254 274.975395 
L 169.954391 274.779623 
L 173.393529 274.590897 
L 176.832666 274.427358 
L 180.271803 274.297852 
" clip-path="url(#pbc694f5e21)" style="fill: none; stroke: #ff0000; stroke-width: 3; stroke-linecap: square"/>
   </g>
  </g>
  <g id="axes_3">
   <g id="line2d_5">
    <path d="M 46.145455 355.344994 
L 49.584592 355.090858 
L 53.023729 355.06314 
L 56.462866 355.045526 
L 59.902003 355.02519 
L 63.34114 355.002627 
L 66.780277 354.979749 
L 70.219414 354.96108 
L 73.658552 354.945743 
L 77.097689 354.929327 
L 80.536826 354.912449 
L 83.975963 354.89937 
L 87.4151 354.894209 
L 90.854237 354.89643 
L 94.293374 354.89385 
L 97.732512 354.882138 
L 101.171649 354.895355 
L 104.610786 354.956368 
L 108.049923 355.043986 
L 111.48906 355.139229 
L 114.928197 355.238979 
L 118.367334 355.399543 
L 121.806471 355.699172 
L 125.245609 356.061738 
L 128.684746 356.334836 
L 132.123883 356.484161 
L 135.56302 356.546914 
L 139.002157 356.540588 
L 142.441294 356.482276 
L 145.880431 356.396492 
L 149.319569 356.292296 
L 152.758706 356.173967 
L 156.197843 356.050569 
L 159.63698 355.932086 
L 163.076117 355.824351 
L 166.515254 355.727028 
L 169.954391 355.633942 
L 173.393529 355.545327 
L 176.832666 355.471175 
L 180.271803 355.407092 
L 183.71094 355.343239 
L 187.150077 355.286922 
L 190.589214 355.240046 
L 194.028351 355.194235 
L 197.467488 355.153838 
L 200.906626 355.124305 
L 204.345763 355.101232 
L 207.7849 355.081092 
L 211.224037 355.059495 
L 214.663174 355.039695 
L 218.102311 355.032131 
L 221.541448 355.027711 
L 224.980586 355.017401 
L 228.419723 355.013431 
L 231.85886 355.015196 
L 235.297997 355.016302 
L 238.737134 355.021212 
L 242.176271 355.027213 
L 245.615408 355.034813 
L 249.054545 355.049369 
" clip-path="url(#p074d30a9ce)" style="fill: none; stroke: #1f77b4; stroke-width: 1.5; stroke-linecap: square"/>
   </g>
   <g id="line2d_6">
    <path d="M 80.536826 354.912449 
L 83.975963 354.89937 
L 87.4151 354.894209 
L 90.854237 354.89643 
L 94.293374 354.89385 
L 97.732512 354.882138 
L 101.171649 354.895355 
L 104.610786 354.956368 
L 108.049923 355.043986 
L 111.48906 355.139229 
L 114.928197 355.238979 
L 118.367334 355.399543 
L 121.806471 355.699172 
L 125.245609 356.061738 
L 128.684746 356.334836 
L 132.123883 356.484161 
L 135.56302 356.546914 
L 139.002157 356.540588 
L 142.441294 356.482276 
L 145.880431 356.396492 
L 149.319569 356.292296 
L 152.758706 356.173967 
L 156.197843 356.050569 
L 159.63698 355.932086 
L 163.076117 355.824351 
L 166.515254 355.727028 
L 169.954391 355.633942 
L 173.393529 355.545327 
L 176.832666 355.471175 
L 180.271803 355.407092 
" clip-path="url(#p074d30a9ce)" style="fill: none; stroke: #ff0000; stroke-width: 3; stroke-linecap: square"/>
   </g>
  </g>
  <g id="axes_4">
   <g id="line2d_7">
    <path d="M 46.145455 435.499211 
L 49.584592 429.017607 
L 53.023729 428.972356 
L 56.462866 428.597158 
L 59.902003 428.335086 
L 63.34114 428.020707 
L 66.780277 427.864912 
L 70.219414 427.704212 
L 73.658552 427.466034 
L 77.097689 427.326109 
L 80.536826 427.316838 
L 83.975963 427.367364 
L 87.4151 427.533391 
L 90.854237 427.759928 
L 94.293374 429.030432 
L 97.732512 434.134742 
L 101.171649 443.617747 
L 104.610786 453.520638 
L 108.049923 460.532563 
L 111.48906 464.824256 
L 114.928197 466.378258 
L 118.367334 463.832186 
L 121.806471 457.831232 
L 125.245609 451.448549 
L 128.684746 446.633931 
L 132.123883 443.175762 
L 135.56302 440.641229 
L 139.002157 438.799877 
L 142.441294 437.395149 
L 145.880431 436.38808 
L 149.319569 435.682112 
L 152.758706 435.177692 
L 156.197843 434.848362 
L 159.63698 434.575115 
L 163.076117 434.305312 
L 166.515254 434.084776 
L 169.954391 433.908479 
L 173.393529 433.743355 
L 176.832666 433.596086 
L 180.271803 433.492584 
L 183.71094 433.398471 
L 187.150077 433.258539 
L 190.589214 433.077829 
L 194.028351 432.960503 
L 197.467488 432.935932 
L 200.906626 432.868202 
L 204.345763 432.714892 
L 207.7849 432.558903 
L 211.224037 432.417571 
L 214.663174 432.224228 
L 218.102311 431.980075 
L 221.541448 431.729476 
L 224.980586 431.469544 
L 228.419723 431.211177 
L 231.85886 431.117467 
L 235.297997 431.164582 
L 238.737134 431.169067 
L 242.176271 431.268814 
L 245.615408 431.639198 
L 249.054545 431.74748 
" clip-path="url(#p8bf918c43b)" style="fill: none; stroke: #1f77b4; stroke-width: 1.5; stroke-linecap: square"/>
   </g>
   <g id="line2d_8">
    <path d="M 80.536826 427.316838 
L 83.975963 427.367364 
L 87.4151 427.533391 
L 90.854237 427.759928 
L 94.293374 429.030432 
L 97.732512 434.134742 
L 101.171649 443.617747 
L 104.610786 453.520638 
L 108.049923 460.532563 
L 111.48906 464.824256 
L 114.928197 466.378258 
L 118.367334 463.832186 
L 121.806471 457.831232 
L 125.245609 451.448549 
L 128.684746 446.633931 
L 132.123883 443.175762 
L 135.56302 440.641229 
L 139.002157 438.799877 
L 142.441294 437.395149 
L 145.880431 436.38808 
L 149.319569 435.682112 
L 152.758706 435.177692 
L 156.197843 434.848362 
L 159.63698 434.575115 
L 163.076117 434.305312 
L 166.515254 434.084776 
L 169.954391 433.908479 
L 173.393529 433.743355 
L 176.832666 433.596086 
L 180.271803 433.492584 
" clip-path="url(#p8bf918c43b)" style="fill: none; stroke: #ff0000; stroke-width: 3; stroke-linecap: square"/>
   </g>
  </g>
  <g id="axes_5">
   <g id="line2d_9">
    <path d="M 46.145455 515.653428 
L 49.584592 515.320774 
L 53.023729 515.304333 
L 56.462866 515.282014 
L 59.902003 515.25357 
L 63.34114 515.235544 
L 66.780277 515.202622 
L 70.219414 515.16694 
L 73.658552 515.158174 
L 77.097689 515.149048 
L 80.536826 515.115492 
L 83.975963 515.075743 
L 87.4151 515.057685 
L 90.854237 515.068276 
L 94.293374 514.958561 
L 97.732512 514.508103 
L 101.171649 513.889923 
L 104.610786 513.539986 
L 108.049923 513.550969 
L 111.48906 513.765993 
L 114.928197 514.212706 
L 118.367334 515.186141 
L 121.806471 516.784608 
L 125.245609 518.368952 
L 128.684746 519.236379 
L 132.123883 519.435273 
L 135.56302 519.299439 
L 139.002157 518.943423 
L 142.441294 518.437447 
L 145.880431 517.903469 
L 149.319569 517.400521 
L 152.758706 516.922462 
L 156.197843 516.482895 
L 159.63698 516.130381 
L 163.076117 515.866462 
L 166.515254 515.657088 
L 169.954391 515.493158 
L 173.393529 515.375317 
L 176.832666 515.286996 
L 180.271803 515.212986 
L 183.71094 515.167386 
L 187.150077 515.142407 
L 190.589214 515.114422 
L 194.028351 515.097269 
L 197.467488 515.093458 
L 200.906626 515.092424 
L 204.345763 515.116824 
L 207.7849 515.146921 
L 211.224037 515.133273 
L 214.663174 515.125422 
L 218.102311 515.170342 
L 221.541448 515.197826 
L 224.980586 515.197922 
L 228.419723 515.231345 
L 231.85886 515.248486 
L 235.297997 515.236129 
L 238.737134 515.252794 
L 242.176271 515.252517 
L 245.615408 515.228711 
L 249.054545 515.255606 
" clip-path="url(#p68dec526b5)" style="fill: none; stroke: #1f77b4; stroke-width: 1.5; stroke-linecap: square"/>
   </g>
   <g id="line2d_10">
    <path d="M 80.536826 515.115492 
L 83.975963 515.075743 
L 87.4151 515.057685 
L 90.854237 515.068276 
L 94.293374 514.958561 
L 97.732512 514.508103 
L 101.171649 513.889923 
L 104.610786 513.539986 
L 108.049923 513.550969 
L 111.48906 513.765993 
L 114.928197 514.212706 
L 118.367334 515.186141 
L 121.806471 516.784608 
L 125.245609 518.368952 
L 128.684746 519.236379 
L 132.123883 519.435273 
L 135.56302 519.299439 
L 139.002157 518.943423 
L 142.441294 518.437447 
L 145.880431 517.903469 
L 149.319569 517.400521 
L 152.758706 516.922462 
L 156.197843 516.482895 
L 159.63698 516.130381 
L 163.076117 515.866462 
L 166.515254 515.657088 
L 169.954391 515.493158 
L 173.393529 515.375317 
L 176.832666 515.286996 
L 180.271803 515.212986 
" clip-path="url(#p68dec526b5)" style="fill: none; stroke: #ff0000; stroke-width: 3; stroke-linecap: square"/>
   </g>
  </g>
  <g id="axes_6">
   <g id="line2d_11">
    <path d="M 46.145455 595.807645 
L 49.584592 589.091682 
L 53.023729 589.074313 
L 56.462866 588.684382 
L 59.902003 588.395584 
L 63.34114 588.09258 
L 66.780277 587.902598 
L 70.219414 587.687742 
L 73.658552 587.468042 
L 77.097689 587.347566 
L 80.536826 587.284113 
L 83.975963 587.250657 
L 87.4151 587.374983 
L 90.854237 587.625099 
L 94.293374 588.559767 
L 97.732512 592.289434 
L 101.171649 599.780721 
L 104.610786 608.363751 
L 108.049923 615.097825 
L 111.48906 619.731817 
L 114.928197 622.340453 
L 118.367334 622.307479 
L 121.806471 620.350845 
L 125.245609 617.798704 
L 128.684746 614.886761 
L 132.123883 611.646613 
L 135.56302 608.55261 
L 139.002157 605.673247 
L 142.441294 602.918648 
L 145.880431 600.549789 
L 149.319569 598.623839 
L 152.758706 597.011799 
L 156.197843 595.703296 
L 159.63698 594.699126 
L 163.076117 593.935601 
L 166.515254 593.356378 
L 169.954391 592.946206 
L 173.393529 592.673621 
L 176.832666 592.467531 
L 180.271803 592.319953 
L 183.71094 592.266689 
L 187.150077 592.209272 
L 190.589214 592.076181 
L 194.028351 592.035558 
L 197.467488 592.111977 
L 200.906626 592.12384 
L 204.345763 592.109676 
L 207.7849 592.101885 
L 211.224037 591.980775 
L 214.663174 591.820636 
L 218.102311 591.735275 
L 221.541448 591.582228 
L 224.980586 591.353736 
L 228.419723 591.209654 
L 231.85886 591.163618 
L 235.297997 591.169953 
L 238.737134 591.210991 
L 242.176271 591.292269 
L 245.615408 591.566198 
L 249.054545 591.714077 
" clip-path="url(#pb4727b489c)" style="fill: none; stroke: #1f77b4; stroke-width: 1.5; stroke-linecap: square"/>
   </g>
   <g id="line2d_12">
    <path d="M 80.536826 587.284113 
L 83.975963 587.250657 
L 87.4151 587.374983 
L 90.854237 587.625099 
L 94.293374 588.559767 
L 97.732512 592.289434 
L 101.171649 599.780721 
L 104.610786 608.363751 
L 108.049923 615.097825 
L 111.48906 619.731817 
L 114.928197 622.340453 
L 118.367334 622.307479 
L 121.806471 620.350845 
L 125.245609 617.798704 
L 128.684746 614.886761 
L 132.123883 611.646613 
L 135.56302 608.55261 
L 139.002157 605.673247 
L 142.441294 602.918648 
L 145.880431 600.549789 
L 149.319569 598.623839 
L 152.758706 597.011799 
L 156.197843 595.703296 
L 159.63698 594.699126 
L 163.076117 593.935601 
L 166.515254 593.356378 
L 169.954391 592.946206 
L 173.393529 592.673621 
L 176.832666 592.467531 
L 180.271803 592.319953 
" clip-path="url(#pb4727b489c)" style="fill: none; stroke: #ff0000; stroke-width: 3; stroke-linecap: square"/>
   </g>
  </g>
  <g id="axes_7">
   <g id="line2d_13">
    <path d="M 46.145455 675.961862 
L 49.584592 675.125158 
L 53.023729 675.04182 
L 56.462866 674.98352 
L 59.902003 674.911967 
L 63.34114 674.843771 
L 66.780277 674.760837 
L 70.219414 674.686465 
L 73.658552 674.643219 
L 77.097689 674.59573 
L 80.536826 674.525792 
L 83.975963 674.459816 
L 87.4151 674.430089 
L 90.854237 674.441521 
L 94.293374 674.331057 
L 97.732512 673.876036 
L 101.171649 673.296032 
L 104.610786 673.048846 
L 108.049923 673.195511 
L 111.48906 673.559172 
L 114.928197 674.154368 
L 118.367334 675.378932 
L 121.806471 677.50364 
L 125.245609 679.782032 
L 128.684746 681.235662 
L 132.123883 681.818659 
L 135.56302 681.900061 
L 139.002157 681.61955 
L 142.441294 681.080397 
L 145.880431 680.443816 
L 149.319569 679.781636 
L 152.758706 679.101035 
L 156.197843 678.436389 
L 159.63698 677.853726 
L 163.076117 677.369793 
L 166.515254 676.955746 
L 169.954391 676.588568 
L 173.393529 676.269785 
L 176.832666 676.011431 
L 180.271803 675.789736 
L 183.71094 675.591402 
L 187.150077 675.429448 
L 190.589214 675.28963 
L 194.028351 675.160482 
L 197.467488 675.054751 
L 200.906626 674.979474 
L 204.345763 674.942197 
L 207.7849 674.917016 
L 211.224037 674.852699 
L 214.663174 674.798268 
L 218.102311 674.818159 
L 221.541448 674.832092 
L 224.980586 674.809063 
L 228.419723 674.829021 
L 231.85886 674.848473 
L 235.297997 674.840762 
L 238.737134 674.866647 
L 242.176271 674.880502 
L 245.615408 674.876178 
L 249.054545 674.933625 
" clip-path="url(#p5002f91ff1)" style="fill: none; stroke: #1f77b4; stroke-width: 1.5; stroke-linecap: square"/>
   </g>
   <g id="line2d_14">
    <path d="M 80.536826 674.525792 
L 83.975963 674.459816 
L 87.4151 674.430089 
L 90.854237 674.441521 
L 94.293374 674.331057 
L 97.732512 673.876036 
L 101.171649 673.296032 
L 104.610786 673.048846 
L 108.049923 673.195511 
L 111.48906 673.559172 
L 114.928197 674.154368 
L 118.367334 675.378932 
L 121.806471 677.50364 
L 125.245609 679.782032 
L 128.684746 681.235662 
L 132.123883 681.818659 
L 135.56302 681.900061 
L 139.002157 681.61955 
L 142.441294 681.080397 
L 145.880431 680.443816 
L 149.319569 679.781636 
L 152.758706 679.101035 
L 156.197843 678.436389 
L 159.63698 677.853726 
L 163.076117 677.369793 
L 166.515254 676.955746 
L 169.954391 676.588568 
L 173.393529 676.269785 
L 176.832666 676.011431 
L 180.271803 675.789736 
" clip-path="url(#p5002f91ff1)" style="fill: none; stroke: #ff0000; stroke-width: 3; stroke-linecap: square"/>
   </g>
  </g>
  <g id="axes_8">
   <g id="line2d_15">
    <path d="M 46.145455 756.116079 
L 49.584592 753.060842 
L 53.023729 752.958168 
L 56.462866 752.768227 
L 59.902003 752.587583 
L 63.34114 752.417183 
L 66.780277 752.248731 
L 70.219414 752.078595 
L 73.658552 751.965573 
L 77.097689 751.876098 
L 80.536826 751.75524 
L 83.975963 751.640126 
L 87.4151 751.627466 
L 90.854237 751.720319 
L 94.293374 751.761694 
L 97.732512 751.899692 
L 101.171649 752.802002 
L 104.610786 754.617246 
L 108.049923 756.671894 
L 111.48906 758.558567 
L 114.928197 760.341626 
L 118.367334 762.542739 
L 121.806471 765.729768 
L 125.245609 768.881945 
L 128.684746 770.37896 
L 132.123883 770.236646 
L 135.56302 769.297856 
L 139.002157 767.837781 
L 142.441294 766.004901 
L 145.880431 764.157362 
L 149.319569 762.443009 
L 152.758706 760.825846 
L 156.197843 759.350485 
L 159.63698 758.132184 
L 163.076117 757.170743 
L 166.515254 756.386427 
L 169.954391 755.743107 
L 173.393529 755.234049 
L 176.832666 754.833268 
L 180.271803 754.499501 
L 183.71094 754.24494 
L 187.150077 754.0461 
L 190.589214 753.844064 
L 194.028351 753.689884 
L 197.467488 753.60545 
L 200.906626 753.535097 
L 204.345763 753.52094 
L 207.7849 753.526274 
L 211.224037 753.415606 
L 214.663174 753.309583 
L 218.102311 753.352161 
L 221.541448 753.351442 
L 224.980586 753.264809 
L 228.419723 753.278714 
L 231.85886 753.302601 
L 235.297997 753.283887 
L 238.737134 753.338063 
L 242.176271 753.374085 
L 245.615408 753.422095 
L 249.054545 753.547702 
" clip-path="url(#p00bb9c41e1)" style="fill: none; stroke: #1f77b4; stroke-width: 1.5; stroke-linecap: square"/>
   </g>
   <g id="line2d_16">
    <path d="M 80.536826 751.75524 
L 83.975963 751.640126 
L 87.4151 751.627466 
L 90.854237 751.720319 
L 94.293374 751.761694 
L 97.732512 751.899692 
L 101.171649 752.802002 
L 104.610786 754.617246 
L 108.049923 756.671894 
L 111.48906 758.558567 
L 114.928197 760.341626 
L 118.367334 762.542739 
L 121.806471 765.729768 
L 125.245609 768.881945 
L 128.684746 770.37896 
L 132.123883 770.236646 
L 135.56302 769.297856 
L 139.002157 767.837781 
L 142.441294 766.004901 
L 145.880431 764.157362 
L 149.319569 762.443009 
L 152.758706 760.825846 
L 156.197843 759.350485 
L 159.63698 758.132184 
L 163.076117 757.170743 
L 166.515254 756.386427 
L 169.954391 755.743107 
L 173.393529 755.234049 
L 176.832666 754.833268 
L 180.271803 754.499501 
" clip-path="url(#p00bb9c41e1)" style="fill: none; stroke: #ff0000; stroke-width: 3; stroke-linecap: square"/>
   </g>
  </g>
 </g>
 <defs>
  <clipPath id="p83f790f64f">
   <rect x="36" y="172.8" width="223.2" height="66.795181"/>
  </clipPath>
  <clipPath id="pbc694f5e21">
   <rect x="36" y="252.954217" width="223.2" height="66.795181"/>
  </clipPath>
  <clipPath id="p074d30a9ce">
   <rect x="36" y="333.108434" width="223.2" height="66.795181"/>
  </clipPath>
  <clipPath id="p8bf918c43b">
   <rect x="36" y="413.262651" width="223.2" height="66.795181"/>
  </clipPath>
  <clipPath id="p68dec526b5">
   <rect x="36" y="493.416867" width="223.2" height="66.795181"/>
  </clipPath>
  <clipPath id="pb4727b489c">
   <rect x="36" y="573.571084" width="223.2" height="66.795181"/>
  </clipPath>
  <clipPath id="p5002f91ff1">
   <rect x="36" y="653.725301" width="223.2" height="66.795181"/>
  </clipPath>
  <clipPath id="p00bb9c41e1">
   <rect x="36" y="733.879518" width="223.2" height="66.795181"/>
  </clipPath>
 </defs>
</svg>
