<?xml version="1.0" encoding="utf-8" standalone="no"?>
<!DOCTYPE svg PUBLIC "-//W3C//DTD SVG 1.1//EN"
  "http://www.w3.org/Graphics/SVG/1.1/DTD/svg11.dtd">
<svg xmlns:xlink="http://www.w3.org/1999/xlink" width="288pt" height="2016pt" viewBox="0 0 288 2016" xmlns="http://www.w3.org/2000/svg" version="1.1">
 <metadata>
  <rdf:RDF xmlns:dc="http://purl.org/dc/elements/1.1/" xmlns:cc="http://creativecommons.org/ns#" xmlns:rdf="http://www.w3.org/1999/02/22-rdf-syntax-ns#">
   <cc:Work>
    <dc:type rdf:resource="http://purl.org/dc/dcmitype/StillImage"/>
    <dc:date>2023-08-08T00:42:06.628060</dc:date>
    <dc:format>image/svg+xml</dc:format>
    <dc:creator>
     <cc:Agent>
      <dc:title>Matplotlib v3.5.2, https://matplotlib.org/</dc:title>
     </cc:Agent>
    </dc:creator>
   </cc:Work>
  </rdf:RDF>
 </metadata>
 <defs>
  <style type="text/css">*{stroke-linejoin: round; stroke-linecap: butt}</style>
 </defs>
 <g id="figure_1">
  <g id="patch_1">
   <path d="M 0 2016 
L 288 2016 
L 288 0 
L 0 0 
L 0 2016 
z
" style="fill: none"/>
  </g>
  <g id="axes_1">
   <g id="line2d_1">
    <path d="M 46.145455 371.648797 
L 49.584592 370.146768 
L 53.023729 370.579843 
L 56.462866 370.469711 
L 59.902003 370.50159 
L 63.34114 370.583808 
L 66.780277 370.678938 
L 70.219414 370.677951 
L 73.658552 370.702586 
L 77.097689 370.791395 
L 80.536826 370.729161 
L 83.975963 370.776491 
L 87.4151 371.078107 
L 90.854237 370.881472 
L 94.293374 370.797417 
L 97.732512 370.712233 
L 101.171649 365.754828 
L 104.610786 355.386218 
L 108.049923 347.698879 
L 111.48906 346.933808 
L 114.928197 355.270457 
L 118.367334 376.60359 
L 121.806471 401.746166 
L 125.245609 415.833932 
L 128.684746 418.93919 
L 132.123883 417.05544 
L 135.56302 410.217024 
L 139.002157 399.507229 
L 142.441294 389.130471 
L 145.880431 381.230303 
L 149.319569 375.871896 
L 152.758706 372.245673 
L 156.197843 369.129863 
L 159.63698 366.043556 
L 163.076117 363.224318 
L 166.515254 360.966233 
L 169.954391 359.411315 
L 173.393529 358.507972 
L 176.832666 358.14635 
L 180.271803 358.317346 
L 183.71094 358.9488 
L 187.150077 359.831214 
L 190.589214 360.751286 
L 194.028351 361.521377 
L 197.467488 362.189425 
L 200.906626 362.979044 
L 204.345763 363.916904 
L 207.7849 364.883325 
L 211.224037 365.777971 
L 214.663174 366.516711 
L 218.102311 367.129326 
L 221.541448 367.778088 
L 224.980586 368.409362 
L 228.419723 368.865834 
L 231.85886 369.303998 
L 235.297997 369.825332 
L 238.737134 370.325678 
L 242.176271 370.790967 
L 245.615408 371.275183 
L 249.054545 371.569573 
" clip-path="url(#p4953c43a2d)" style="fill: none; stroke: #1f77b4; stroke-width: 1.5; stroke-linecap: square"/>
   </g>
   <g id="line2d_2">
    <path d="M 80.536826 370.729161 
L 83.975963 370.776491 
L 87.4151 371.078107 
L 90.854237 370.881472 
L 94.293374 370.797417 
L 97.732512 370.712233 
L 101.171649 365.754828 
L 104.610786 355.386218 
L 108.049923 347.698879 
L 111.48906 346.933808 
L 114.928197 355.270457 
L 118.367334 376.60359 
L 121.806471 401.746166 
L 125.245609 415.833932 
L 128.684746 418.93919 
L 132.123883 417.05544 
L 135.56302 410.217024 
L 139.002157 399.507229 
L 142.441294 389.130471 
L 145.880431 381.230303 
L 149.319569 375.871896 
L 152.758706 372.245673 
L 156.197843 369.129863 
L 159.63698 366.043556 
L 163.076117 363.224318 
L 166.515254 360.966233 
L 169.954391 359.411315 
L 173.393529 358.507972 
L 176.832666 358.14635 
L 180.271803 358.317346 
" clip-path="url(#p4953c43a2d)" style="fill: none; stroke: #ff0000; stroke-width: 3; stroke-linecap: square"/>
   </g>
  </g>
  <g id="axes_2">
   <g id="line2d_3">
    <path d="M 46.145455 637.760797 
L 49.584592 637.901358 
L 53.023729 637.990419 
L 56.462866 637.991072 
L 59.902003 638.006939 
L 63.34114 638.043805 
L 66.780277 638.070365 
L 70.219414 638.076494 
L 73.658552 638.096238 
L 77.097689 638.124645 
L 80.536826 638.124295 
L 83.975963 638.145948 
L 87.4151 638.221398 
L 90.854237 638.214589 
L 94.293374 638.188065 
L 97.732512 638.165556 
L 101.171649 637.326755 
L 104.610786 635.418695 
L 108.049923 633.822267 
L 111.48906 633.119173 
L 114.928197 633.383269 
L 118.367334 636.318455 
L 121.806471 641.447458 
L 125.245609 644.809756 
L 128.684746 645.064111 
L 132.123883 644.117271 
L 135.56302 642.62217 
L 139.002157 640.414931 
L 142.441294 638.314749 
L 145.880431 636.983295 
L 149.319569 636.349652 
L 152.758706 636.139005 
L 156.197843 636.088715 
L 159.63698 636.044238 
L 163.076117 636.004498 
L 166.515254 635.997155 
L 169.954391 636.022464 
L 173.393529 636.092202 
L 176.832666 636.199106 
L 180.271803 636.329837 
L 183.71094 636.488383 
L 187.150077 636.654147 
L 190.589214 636.77562 
L 194.028351 636.829493 
L 197.467488 636.881788 
L 200.906626 636.986418 
L 204.345763 637.093057 
L 207.7849 637.188197 
L 211.224037 637.31242 
L 214.663174 637.429198 
L 218.102311 637.508468 
L 221.541448 637.611679 
L 224.980586 637.738538 
L 228.419723 637.819782 
L 231.85886 637.87271 
L 235.297997 637.926915 
L 238.737134 637.974951 
L 242.176271 638.017209 
L 245.615408 638.040912 
L 249.054545 638.039929 
" clip-path="url(#p134277fa68)" style="fill: none; stroke: #1f77b4; stroke-width: 1.5; stroke-linecap: square"/>
   </g>
   <g id="line2d_4">
    <path d="M 80.536826 638.124295 
L 83.975963 638.145948 
L 87.4151 638.221398 
L 90.854237 638.214589 
L 94.293374 638.188065 
L 97.732512 638.165556 
L 101.171649 637.326755 
L 104.610786 635.418695 
L 108.049923 633.822267 
L 111.48906 633.119173 
L 114.928197 633.383269 
L 118.367334 636.318455 
L 121.806471 641.447458 
L 125.245609 644.809756 
L 128.684746 645.064111 
L 132.123883 644.117271 
L 135.56302 642.62217 
L 139.002157 640.414931 
L 142.441294 638.314749 
L 145.880431 636.983295 
L 149.319569 636.349652 
L 152.758706 636.139005 
L 156.197843 636.088715 
L 159.63698 636.044238 
L 163.076117 636.004498 
L 166.515254 635.997155 
L 169.954391 636.022464 
L 173.393529 636.092202 
L 176.832666 636.199106 
L 180.271803 636.329837 
" clip-path="url(#p134277fa68)" style="fill: none; stroke: #ff0000; stroke-width: 3; stroke-linecap: square"/>
   </g>
  </g>
  <g id="axes_3">
   <g id="line2d_5">
    <path d="M 46.145455 903.872797 
L 49.584592 910.427003 
L 53.023729 909.982864 
L 56.462866 910.631395 
L 59.902003 910.960232 
L 63.34114 911.218951 
L 66.780277 911.541277 
L 70.219414 911.933638 
L 73.658552 912.239174 
L 77.097689 912.686553 
L 80.536826 912.887443 
L 83.975963 912.883725 
L 87.4151 913.410886 
L 90.854237 913.33186 
L 94.293374 912.868136 
L 97.732512 913.069659 
L 101.171649 904.88212 
L 104.610786 880.44815 
L 108.049923 852.026773 
L 111.48906 829.251099 
L 114.928197 809.422925 
L 118.367334 807.239696 
L 121.806471 838.004253 
L 125.245609 883.532279 
L 128.684746 919.964964 
L 132.123883 943.867773 
L 135.56302 956.15783 
L 139.002157 956.461802 
L 142.441294 949.532034 
L 145.880431 941.313698 
L 149.319569 934.634135 
L 152.758706 929.649055 
L 156.197843 924.672393 
L 159.63698 918.681808 
L 163.076117 912.443875 
L 166.515254 906.895762 
L 169.954391 902.448854 
L 173.393529 899.300225 
L 176.832666 897.280938 
L 180.271803 896.01693 
L 183.71094 895.353009 
L 187.150077 895.221321 
L 190.589214 895.533114 
L 194.028351 896.171532 
L 197.467488 896.915387 
L 200.906626 897.590848 
L 204.345763 898.223729 
L 207.7849 898.884774 
L 211.224037 899.552247 
L 214.663174 900.183993 
L 218.102311 900.760488 
L 221.541448 901.219873 
L 224.980586 901.576746 
L 228.419723 901.983238 
L 231.85886 902.491674 
L 235.297997 902.989041 
L 238.737134 903.417488 
L 242.176271 903.865264 
L 245.615408 904.143128 
L 249.054545 904.672823 
" clip-path="url(#p6b1e02de8e)" style="fill: none; stroke: #1f77b4; stroke-width: 1.5; stroke-linecap: square"/>
   </g>
   <g id="line2d_6">
    <path d="M 80.536826 912.887443 
L 83.975963 912.883725 
L 87.4151 913.410886 
L 90.854237 913.33186 
L 94.293374 912.868136 
L 97.732512 913.069659 
L 101.171649 904.88212 
L 104.610786 880.44815 
L 108.049923 852.026773 
L 111.48906 829.251099 
L 114.928197 809.422925 
L 118.367334 807.239696 
L 121.806471 838.004253 
L 125.245609 883.532279 
L 128.684746 919.964964 
L 132.123883 943.867773 
L 135.56302 956.15783 
L 139.002157 956.461802 
L 142.441294 949.532034 
L 145.880431 941.313698 
L 149.319569 934.634135 
L 152.758706 929.649055 
L 156.197843 924.672393 
L 159.63698 918.681808 
L 163.076117 912.443875 
L 166.515254 906.895762 
L 169.954391 902.448854 
L 173.393529 899.300225 
L 176.832666 897.280938 
L 180.271803 896.01693 
" clip-path="url(#p6b1e02de8e)" style="fill: none; stroke: #ff0000; stroke-width: 3; stroke-linecap: square"/>
   </g>
  </g>
  <g id="axes_4">
   <g id="line2d_7">
    <path d="M 46.145455 1169.984797 
L 49.584592 1172.800024 
L 53.023729 1172.988049 
L 56.462866 1173.197388 
L 59.902003 1173.3554 
L 63.34114 1173.578872 
L 66.780277 1173.770125 
L 70.219414 1173.908588 
L 73.658552 1174.07942 
L 77.097689 1174.31564 
L 80.536826 1174.384152 
L 83.975963 1174.471909 
L 87.4151 1174.899224 
L 90.854237 1174.889157 
L 94.293374 1174.655926 
L 97.732512 1174.628123 
L 101.171649 1169.57764 
L 104.610786 1156.257924 
L 108.049923 1142.656072 
L 111.48906 1133.208069 
L 114.928197 1127.014661 
L 118.367334 1135.152609 
L 121.806471 1161.755224 
L 125.245609 1186.842206 
L 128.684746 1197.552588 
L 132.123883 1200.339563 
L 135.56302 1198.445227 
L 139.002157 1190.77511 
L 142.441294 1181.491262 
L 145.880431 1174.822817 
L 149.319569 1171.224225 
L 152.758706 1169.658196 
L 156.197843 1168.716934 
L 159.63698 1167.511139 
L 163.076117 1166.198772 
L 166.515254 1165.104911 
L 169.954391 1164.314942 
L 173.393529 1163.949531 
L 176.832666 1163.952165 
L 180.271803 1164.158703 
L 183.71094 1164.559737 
L 187.150077 1165.087994 
L 190.589214 1165.529497 
L 194.028351 1165.785957 
L 197.467488 1166.087274 
L 200.906626 1166.582434 
L 204.345763 1167.042187 
L 207.7849 1167.450861 
L 211.224037 1168.01043 
L 214.663174 1168.560192 
L 218.102311 1168.950351 
L 221.541448 1169.409374 
L 224.980586 1169.951843 
L 228.419723 1170.337715 
L 231.85886 1170.626481 
L 235.297997 1170.899665 
L 238.737134 1171.129857 
L 242.176271 1171.34672 
L 245.615408 1171.426677 
L 249.054545 1171.50603 
" clip-path="url(#pa19496a47b)" style="fill: none; stroke: #1f77b4; stroke-width: 1.5; stroke-linecap: square"/>
   </g>
   <g id="line2d_8">
    <path d="M 80.536826 1174.384152 
L 83.975963 1174.471909 
L 87.4151 1174.899224 
L 90.854237 1174.889157 
L 94.293374 1174.655926 
L 97.732512 1174.628123 
L 101.171649 1169.57764 
L 104.610786 1156.257924 
L 108.049923 1142.656072 
L 111.48906 1133.208069 
L 114.928197 1127.014661 
L 118.367334 1135.152609 
L 121.806471 1161.755224 
L 125.245609 1186.842206 
L 128.684746 1197.552588 
L 132.123883 1200.339563 
L 135.56302 1198.445227 
L 139.002157 1190.77511 
L 142.441294 1181.491262 
L 145.880431 1174.822817 
L 149.319569 1171.224225 
L 152.758706 1169.658196 
L 156.197843 1168.716934 
L 159.63698 1167.511139 
L 163.076117 1166.198772 
L 166.515254 1165.104911 
L 169.954391 1164.314942 
L 173.393529 1163.949531 
L 176.832666 1163.952165 
L 180.271803 1164.158703 
" clip-path="url(#pa19496a47b)" style="fill: none; stroke: #ff0000; stroke-width: 3; stroke-linecap: square"/>
   </g>
  </g>
  <g id="axes_5">
   <g id="line2d_9">
    <path d="M 46.145455 1436.096797 
L 49.584592 1438.236048 
L 53.023729 1438.297053 
L 56.462866 1438.490446 
L 59.902003 1438.624987 
L 63.34114 1438.778973 
L 66.780277 1438.936896 
L 70.219414 1439.071132 
L 73.658552 1439.20412 
L 77.097689 1439.403964 
L 80.536826 1439.459741 
L 83.975963 1439.500923 
L 87.4151 1439.830441 
L 90.854237 1439.771574 
L 94.293374 1439.570325 
L 97.732512 1439.585843 
L 101.171649 1435.006012 
L 104.610786 1422.856808 
L 108.049923 1410.284927 
L 111.48906 1401.80619 
L 114.928197 1396.941856 
L 118.367334 1403.68464 
L 121.806471 1425.009531 
L 125.245609 1446.724582 
L 128.684746 1459.013757 
L 132.123883 1464.729411 
L 135.56302 1465.280482 
L 139.002157 1460.39189 
L 142.441294 1453.440061 
L 145.880431 1447.675365 
L 149.319569 1443.876693 
L 152.758706 1441.531965 
L 156.197843 1439.521692 
L 159.63698 1437.204572 
L 163.076117 1434.847717 
L 166.515254 1432.827595 
L 169.954391 1431.290621 
L 173.393529 1430.31329 
L 176.832666 1429.817405 
L 180.271803 1429.661047 
L 183.71094 1429.793852 
L 187.150077 1430.135467 
L 190.589214 1430.545702 
L 194.028351 1430.926573 
L 197.467488 1431.326476 
L 200.906626 1431.80797 
L 204.345763 1432.296253 
L 207.7849 1432.77702 
L 211.224037 1433.301369 
L 214.663174 1433.784048 
L 218.102311 1434.170914 
L 221.541448 1434.5658 
L 224.980586 1434.966742 
L 228.419723 1435.285609 
L 231.85886 1435.586213 
L 235.297997 1435.894929 
L 238.737134 1436.168968 
L 242.176271 1436.435265 
L 245.615408 1436.618362 
L 249.054545 1436.817282 
" clip-path="url(#pe17776e67a)" style="fill: none; stroke: #1f77b4; stroke-width: 1.5; stroke-linecap: square"/>
   </g>
   <g id="line2d_10">
    <path d="M 80.536826 1439.459741 
L 83.975963 1439.500923 
L 87.4151 1439.830441 
L 90.854237 1439.771574 
L 94.293374 1439.570325 
L 97.732512 1439.585843 
L 101.171649 1435.006012 
L 104.610786 1422.856808 
L 108.049923 1410.284927 
L 111.48906 1401.80619 
L 114.928197 1396.941856 
L 118.367334 1403.68464 
L 121.806471 1425.009531 
L 125.245609 1446.724582 
L 128.684746 1459.013757 
L 132.123883 1464.729411 
L 135.56302 1465.280482 
L 139.002157 1460.39189 
L 142.441294 1453.440061 
L 145.880431 1447.675365 
L 149.319569 1443.876693 
L 152.758706 1441.531965 
L 156.197843 1439.521692 
L 159.63698 1437.204572 
L 163.076117 1434.847717 
L 166.515254 1432.827595 
L 169.954391 1431.290621 
L 173.393529 1430.31329 
L 176.832666 1429.817405 
L 180.271803 1429.661047 
" clip-path="url(#pe17776e67a)" style="fill: none; stroke: #ff0000; stroke-width: 3; stroke-linecap: square"/>
   </g>
  </g>
  <g id="axes_6">
   <g id="line2d_11">
    <path d="M 46.145455 1702.208797 
L 49.584592 1703.475076 
L 53.023729 1703.591762 
L 56.462866 1703.693977 
L 59.902003 1703.779487 
L 63.34114 1703.89561 
L 66.780277 1704.003379 
L 70.219414 1704.07931 
L 73.658552 1704.167946 
L 77.097689 1704.299416 
L 80.536826 1704.328634 
L 83.975963 1704.371229 
L 87.4151 1704.615154 
L 90.854237 1704.579522 
L 94.293374 1704.449156 
L 97.732512 1704.435535 
L 101.171649 1701.261613 
L 104.610786 1693.133251 
L 108.049923 1685.071856 
L 111.48906 1679.967981 
L 114.928197 1677.626716 
L 118.367334 1683.869579 
L 121.806471 1699.850283 
L 125.245609 1714.370717 
L 128.684746 1720.987264 
L 132.123883 1723.031789 
L 135.56302 1721.888185 
L 139.002157 1717.240114 
L 142.441294 1711.622916 
L 145.880431 1707.367787 
L 149.319569 1704.80842 
L 152.758706 1703.411604 
L 156.197843 1702.344119 
L 159.63698 1701.122598 
L 163.076117 1699.882734 
L 166.515254 1698.845246 
L 169.954391 1698.085249 
L 173.393529 1697.65474 
L 176.832666 1697.506798 
L 180.271803 1697.554392 
L 183.71094 1697.77596 
L 187.150077 1698.111056 
L 190.589214 1698.437302 
L 194.028351 1698.682177 
L 197.467488 1698.936296 
L 200.906626 1699.283969 
L 204.345763 1699.63584 
L 207.7849 1699.972071 
L 211.224037 1700.360633 
L 214.663174 1700.721502 
L 218.102311 1700.996258 
L 221.541448 1701.298746 
L 224.980586 1701.628139 
L 228.419723 1701.87091 
L 231.85886 1702.076095 
L 235.297997 1702.286021 
L 238.737134 1702.47195 
L 242.176271 1702.648403 
L 245.615408 1702.762903 
L 249.054545 1702.862711 
" clip-path="url(#pb0267747fd)" style="fill: none; stroke: #1f77b4; stroke-width: 1.5; stroke-linecap: square"/>
   </g>
   <g id="line2d_12">
    <path d="M 80.536826 1704.328634 
L 83.975963 1704.371229 
L 87.4151 1704.615154 
L 90.854237 1704.579522 
L 94.293374 1704.449156 
L 97.732512 1704.435535 
L 101.171649 1701.261613 
L 104.610786 1693.133251 
L 108.049923 1685.071856 
L 111.48906 1679.967981 
L 114.928197 1677.626716 
L 118.367334 1683.869579 
L 121.806471 1699.850283 
L 125.245609 1714.370717 
L 128.684746 1720.987264 
L 132.123883 1723.031789 
L 135.56302 1721.888185 
L 139.002157 1717.240114 
L 142.441294 1711.622916 
L 145.880431 1707.367787 
L 149.319569 1704.80842 
L 152.758706 1703.411604 
L 156.197843 1702.344119 
L 159.63698 1701.122598 
L 163.076117 1699.882734 
L 166.515254 1698.845246 
L 169.954391 1698.085249 
L 173.393529 1697.65474 
L 176.832666 1697.506798 
L 180.271803 1697.554392 
" clip-path="url(#pb0267747fd)" style="fill: none; stroke: #ff0000; stroke-width: 3; stroke-linecap: square"/>
   </g>
  </g>
 </g>
 <defs>
  <clipPath id="p4953c43a2d">
   <rect x="36" y="241.92" width="223.2" height="221.76"/>
  </clipPath>
  <clipPath id="p134277fa68">
   <rect x="36" y="508.032" width="223.2" height="221.76"/>
  </clipPath>
  <clipPath id="p6b1e02de8e">
   <rect x="36" y="774.144" width="223.2" height="221.76"/>
  </clipPath>
  <clipPath id="pa19496a47b">
   <rect x="36" y="1040.256" width="223.2" height="221.76"/>
  </clipPath>
  <clipPath id="pe17776e67a">
   <rect x="36" y="1306.368" width="223.2" height="221.76"/>
  </clipPath>
  <clipPath id="pb0267747fd">
   <rect x="36" y="1572.48" width="223.2" height="221.76"/>
  </clipPath>
 </defs>
</svg>
