<?xml version="1.0" encoding="utf-8" standalone="no"?>
<!DOCTYPE svg PUBLIC "-//W3C//DTD SVG 1.1//EN"
  "http://www.w3.org/Graphics/SVG/1.1/DTD/svg11.dtd">
<svg xmlns:xlink="http://www.w3.org/1999/xlink" width="288pt" height="2016pt" viewBox="0 0 288 2016" xmlns="http://www.w3.org/2000/svg" version="1.1">
 <metadata>
  <rdf:RDF xmlns:dc="http://purl.org/dc/elements/1.1/" xmlns:cc="http://creativecommons.org/ns#" xmlns:rdf="http://www.w3.org/1999/02/22-rdf-syntax-ns#">
   <cc:Work>
    <dc:type rdf:resource="http://purl.org/dc/dcmitype/StillImage"/>
    <dc:date>2023-08-08T00:42:38.126057</dc:date>
    <dc:format>image/svg+xml</dc:format>
    <dc:creator>
     <cc:Agent>
      <dc:title>Matplotlib v3.5.2, https://matplotlib.org/</dc:title>
     </cc:Agent>
    </dc:creator>
   </cc:Work>
  </rdf:RDF>
 </metadata>
 <defs>
  <style type="text/css">*{stroke-linejoin: round; stroke-linecap: butt}</style>
 </defs>
 <g id="figure_1">
  <g id="patch_1">
   <path d="M 0 2016 
L 288 2016 
L 288 0 
L 0 0 
L 0 2016 
z
" style="fill: none"/>
  </g>
  <g id="axes_1">
   <g id="line2d_1">
    <path d="M 46.145455 335.962089 
L 49.584592 328.140083 
L 53.023729 326.264534 
L 56.462866 325.829234 
L 59.902003 325.148485 
L 63.34114 324.500748 
L 66.780277 323.738303 
L 70.219414 322.900651 
L 73.658552 321.589404 
L 77.097689 319.488901 
L 80.536826 316.861628 
L 83.975963 313.146445 
L 87.4151 308.392071 
L 90.854237 304.411695 
L 94.293374 301.07072 
L 97.732512 298.930165 
L 101.171649 300.314139 
L 104.610786 303.288513 
L 108.049923 316.087651 
L 111.48906 354.732824 
L 114.928197 397.938708 
L 118.367334 408.563683 
L 121.806471 397.779229 
L 125.245609 392.607991 
L 128.684746 388.973242 
L 132.123883 380.532552 
L 135.56302 373.202899 
L 139.002157 367.307746 
L 142.441294 360.940948 
L 145.880431 356.016291 
L 149.319569 352.225864 
L 152.758706 348.368844 
L 156.197843 345.398326 
L 159.63698 342.988645 
L 163.076117 340.353396 
L 166.515254 338.131067 
L 169.954391 336.303227 
L 173.393529 334.59045 
L 176.832666 333.197483 
L 180.271803 332.029974 
L 183.71094 330.933992 
L 187.150077 329.953104 
L 190.589214 329.114599 
L 194.028351 328.424818 
L 197.467488 328.08137 
L 200.906626 327.840236 
L 204.345763 327.412377 
L 207.7849 327.021221 
L 211.224037 326.994455 
L 214.663174 327.412536 
L 218.102311 327.713263 
L 221.541448 327.703831 
L 224.980586 327.757641 
L 228.419723 327.616548 
L 231.85886 327.499192 
L 235.297997 327.929952 
L 238.737134 328.217858 
L 242.176271 327.955863 
L 245.615408 327.832499 
L 249.054545 328.18063 
" clip-path="url(#p6fdb69357e)" style="fill: none; stroke: #1f77b4; stroke-width: 1.5; stroke-linecap: square"/>
   </g>
   <g id="line2d_2">
    <path d="M 80.536826 316.861628 
L 83.975963 313.146445 
L 87.4151 308.392071 
L 90.854237 304.411695 
L 94.293374 301.07072 
L 97.732512 298.930165 
L 101.171649 300.314139 
L 104.610786 303.288513 
L 108.049923 316.087651 
L 111.48906 354.732824 
L 114.928197 397.938708 
L 118.367334 408.563683 
L 121.806471 397.779229 
L 125.245609 392.607991 
L 128.684746 388.973242 
L 132.123883 380.532552 
L 135.56302 373.202899 
L 139.002157 367.307746 
L 142.441294 360.940948 
L 145.880431 356.016291 
L 149.319569 352.225864 
L 152.758706 348.368844 
L 156.197843 345.398326 
L 159.63698 342.988645 
L 163.076117 340.353396 
L 166.515254 338.131067 
L 169.954391 336.303227 
L 173.393529 334.59045 
L 176.832666 333.197483 
L 180.271803 332.029974 
" clip-path="url(#p6fdb69357e)" style="fill: none; stroke: #ff0000; stroke-width: 3; stroke-linecap: square"/>
   </g>
  </g>
  <g id="axes_2">
   <g id="line2d_3">
    <path d="M 46.145455 602.074089 
L 49.584592 600.820677 
L 53.023729 600.446602 
L 56.462866 600.383819 
L 59.902003 600.268038 
L 63.34114 600.170457 
L 66.780277 600.03727 
L 70.219414 599.890009 
L 73.658552 599.707552 
L 77.097689 599.422547 
L 80.536826 599.063969 
L 83.975963 598.641 
L 87.4151 598.15774 
L 90.854237 597.851014 
L 94.293374 597.863822 
L 97.732512 598.222821 
L 101.171649 599.132788 
L 104.610786 600.469341 
L 108.049923 602.470835 
L 111.48906 606.115379 
L 114.928197 609.922756 
L 118.367334 610.824935 
L 121.806471 609.574719 
L 125.245609 608.815814 
L 128.684746 608.424246 
L 132.123883 607.617978 
L 135.56302 606.860674 
L 139.002157 606.210844 
L 142.441294 605.452201 
L 145.880431 604.827467 
L 149.319569 604.355928 
L 152.758706 603.88292 
L 156.197843 603.505326 
L 159.63698 603.181881 
L 163.076117 602.810416 
L 166.515254 602.496535 
L 169.954391 602.249791 
L 173.393529 602.0001 
L 176.832666 601.780456 
L 180.271803 601.608189 
L 183.71094 601.449381 
L 187.150077 601.302391 
L 190.589214 601.187584 
L 194.028351 601.09244 
L 197.467488 601.024704 
L 200.906626 600.972578 
L 204.345763 600.905924 
L 207.7849 600.843934 
L 211.224037 600.828072 
L 214.663174 600.862237 
L 218.102311 600.874575 
L 221.541448 600.851687 
L 224.980586 600.843896 
L 228.419723 600.813882 
L 231.85886 600.788531 
L 235.297997 600.83729 
L 238.737134 600.873342 
L 242.176271 600.841646 
L 245.615408 600.822089 
L 249.054545 600.873992 
" clip-path="url(#pd33fce09c6)" style="fill: none; stroke: #1f77b4; stroke-width: 1.5; stroke-linecap: square"/>
   </g>
   <g id="line2d_4">
    <path d="M 80.536826 599.063969 
L 83.975963 598.641 
L 87.4151 598.15774 
L 90.854237 597.851014 
L 94.293374 597.863822 
L 97.732512 598.222821 
L 101.171649 599.132788 
L 104.610786 600.469341 
L 108.049923 602.470835 
L 111.48906 606.115379 
L 114.928197 609.922756 
L 118.367334 610.824935 
L 121.806471 609.574719 
L 125.245609 608.815814 
L 128.684746 608.424246 
L 132.123883 607.617978 
L 135.56302 606.860674 
L 139.002157 606.210844 
L 142.441294 605.452201 
L 145.880431 604.827467 
L 149.319569 604.355928 
L 152.758706 603.88292 
L 156.197843 603.505326 
L 159.63698 603.181881 
L 163.076117 602.810416 
L 166.515254 602.496535 
L 169.954391 602.249791 
L 173.393529 602.0001 
L 176.832666 601.780456 
L 180.271803 601.608189 
" clip-path="url(#pd33fce09c6)" style="fill: none; stroke: #ff0000; stroke-width: 3; stroke-linecap: square"/>
   </g>
  </g>
  <g id="axes_3">
   <g id="line2d_5">
    <path d="M 46.145455 868.186089 
L 49.584592 861.783936 
L 53.023729 859.623358 
L 56.462866 859.379314 
L 59.902003 858.7649 
L 63.34114 858.268577 
L 66.780277 857.623219 
L 70.219414 856.913795 
L 73.658552 855.968156 
L 77.097689 854.519415 
L 80.536826 852.740712 
L 83.975963 850.475396 
L 87.4151 847.76342 
L 90.854237 845.899257 
L 94.293374 845.107008 
L 97.732512 845.532159 
L 101.171649 848.910853 
L 104.610786 854.658408 
L 108.049923 866.220379 
L 111.48906 891.690197 
L 114.928197 918.870924 
L 118.367334 924.821886 
L 121.806471 915.246222 
L 125.245609 908.559974 
L 128.684746 904.227202 
L 132.123883 897.821588 
L 135.56302 892.527954 
L 139.002157 888.467453 
L 142.441294 884.092183 
L 145.880431 880.677655 
L 149.319569 878.176394 
L 152.758706 875.647047 
L 156.197843 873.679789 
L 159.63698 872.102384 
L 163.076117 870.326161 
L 166.515254 868.838634 
L 169.954391 867.688175 
L 173.393529 866.558662 
L 176.832666 865.585564 
L 180.271803 864.809155 
L 183.71094 864.10085 
L 187.150077 863.465878 
L 190.589214 862.956054 
L 194.028351 862.543961 
L 197.467488 862.309428 
L 200.906626 862.130386 
L 204.345763 861.852304 
L 207.7849 861.599027 
L 211.224037 861.561115 
L 214.663174 861.780377 
L 218.102311 861.90353 
L 221.541448 861.83502 
L 224.980586 861.831995 
L 228.419723 861.716422 
L 231.85886 861.608921 
L 235.297997 861.860208 
L 238.737134 862.043333 
L 242.176271 861.897548 
L 245.615408 861.829979 
L 249.054545 862.111824 
" clip-path="url(#p7bf3685c8b)" style="fill: none; stroke: #1f77b4; stroke-width: 1.5; stroke-linecap: square"/>
   </g>
   <g id="line2d_6">
    <path d="M 80.536826 852.740712 
L 83.975963 850.475396 
L 87.4151 847.76342 
L 90.854237 845.899257 
L 94.293374 845.107008 
L 97.732512 845.532159 
L 101.171649 848.910853 
L 104.610786 854.658408 
L 108.049923 866.220379 
L 111.48906 891.690197 
L 114.928197 918.870924 
L 118.367334 924.821886 
L 121.806471 915.246222 
L 125.245609 908.559974 
L 128.684746 904.227202 
L 132.123883 897.821588 
L 135.56302 892.527954 
L 139.002157 888.467453 
L 142.441294 884.092183 
L 145.880431 880.677655 
L 149.319569 878.176394 
L 152.758706 875.647047 
L 156.197843 873.679789 
L 159.63698 872.102384 
L 163.076117 870.326161 
L 166.515254 868.838634 
L 169.954391 867.688175 
L 173.393529 866.558662 
L 176.832666 865.585564 
L 180.271803 864.809155 
" clip-path="url(#p7bf3685c8b)" style="fill: none; stroke: #ff0000; stroke-width: 3; stroke-linecap: square"/>
   </g>
  </g>
  <g id="axes_4">
   <g id="line2d_7">
    <path d="M 46.145455 1134.298089 
L 49.584592 1131.536756 
L 53.023729 1130.644907 
L 56.462866 1130.506091 
L 59.902003 1130.244885 
L 63.34114 1130.03812 
L 66.780277 1129.725099 
L 70.219414 1129.377289 
L 73.658552 1129.014885 
L 77.097689 1128.456521 
L 80.536826 1127.744882 
L 83.975963 1127.062117 
L 87.4151 1126.409713 
L 90.854237 1126.224969 
L 94.293374 1127.113813 
L 97.732512 1129.047404 
L 101.171649 1132.157737 
L 104.610786 1136.41753 
L 108.049923 1140.584369 
L 111.48906 1144.23821 
L 114.928197 1147.360283 
L 118.367334 1148.079392 
L 121.806471 1146.394664 
L 125.245609 1145.185335 
L 128.684746 1144.888278 
L 132.123883 1144.156982 
L 135.56302 1143.244643 
L 139.002157 1142.312509 
L 142.441294 1141.063765 
L 145.880431 1139.941143 
L 149.319569 1139.099933 
L 152.758706 1138.270742 
L 156.197843 1137.578298 
L 159.63698 1136.941564 
L 163.076117 1136.176754 
L 166.515254 1135.527791 
L 169.954391 1135.032858 
L 173.393529 1134.497525 
L 176.832666 1133.999059 
L 180.271803 1133.626248 
L 183.71094 1133.285897 
L 187.150077 1132.960842 
L 190.589214 1132.724608 
L 194.028351 1132.52635 
L 197.467488 1132.345213 
L 200.906626 1132.200563 
L 204.345763 1132.048168 
L 207.7849 1131.904262 
L 211.224037 1131.847879 
L 214.663174 1131.872467 
L 218.102311 1131.842837 
L 221.541448 1131.756895 
L 224.980586 1131.712513 
L 228.419723 1131.631345 
L 231.85886 1131.563685 
L 235.297997 1131.643136 
L 238.737134 1131.708926 
L 242.176271 1131.651038 
L 245.615408 1131.604016 
L 249.054545 1131.710873 
" clip-path="url(#pccdda9a25a)" style="fill: none; stroke: #1f77b4; stroke-width: 1.5; stroke-linecap: square"/>
   </g>
   <g id="line2d_8">
    <path d="M 80.536826 1127.744882 
L 83.975963 1127.062117 
L 87.4151 1126.409713 
L 90.854237 1126.224969 
L 94.293374 1127.113813 
L 97.732512 1129.047404 
L 101.171649 1132.157737 
L 104.610786 1136.41753 
L 108.049923 1140.584369 
L 111.48906 1144.23821 
L 114.928197 1147.360283 
L 118.367334 1148.079392 
L 121.806471 1146.394664 
L 125.245609 1145.185335 
L 128.684746 1144.888278 
L 132.123883 1144.156982 
L 135.56302 1143.244643 
L 139.002157 1142.312509 
L 142.441294 1141.063765 
L 145.880431 1139.941143 
L 149.319569 1139.099933 
L 152.758706 1138.270742 
L 156.197843 1137.578298 
L 159.63698 1136.941564 
L 163.076117 1136.176754 
L 166.515254 1135.527791 
L 169.954391 1135.032858 
L 173.393529 1134.497525 
L 176.832666 1133.999059 
L 180.271803 1133.626248 
" clip-path="url(#pccdda9a25a)" style="fill: none; stroke: #ff0000; stroke-width: 3; stroke-linecap: square"/>
   </g>
  </g>
  <g id="axes_5">
   <g id="line2d_9">
    <path d="M 46.145455 1400.410089 
L 49.584592 1392.380874 
L 53.023729 1388.426576 
L 56.462866 1388.328699 
L 59.902003 1387.444319 
L 63.34114 1386.894632 
L 66.780277 1386.022145 
L 70.219414 1385.060107 
L 73.658552 1384.158853 
L 77.097689 1382.928313 
L 80.536826 1381.482729 
L 83.975963 1380.382499 
L 87.4151 1379.668828 
L 90.854237 1380.511408 
L 94.293374 1384.161421 
L 97.732512 1390.112939 
L 101.171649 1399.852184 
L 104.610786 1414.798499 
L 108.049923 1431.028796 
L 111.48906 1446.272438 
L 114.928197 1458.834233 
L 118.367334 1459.67171 
L 121.806471 1447.550392 
L 125.245609 1435.154508 
L 128.684746 1427.87215 
L 132.123883 1422.025494 
L 135.56302 1417.604323 
L 139.002157 1414.532246 
L 142.441294 1411.105881 
L 145.880431 1408.273647 
L 149.319569 1406.491559 
L 152.758706 1404.741666 
L 156.197843 1403.304615 
L 159.63698 1402.151669 
L 163.076117 1400.696278 
L 166.515254 1399.498114 
L 169.954391 1398.756404 
L 173.393529 1397.864137 
L 176.832666 1396.936955 
L 180.271803 1396.304548 
L 183.71094 1395.778703 
L 187.150077 1395.293147 
L 190.589214 1395.002017 
L 194.028351 1394.782426 
L 197.467488 1394.536703 
L 200.906626 1394.310536 
L 204.345763 1394.089273 
L 207.7849 1393.887243 
L 211.224037 1393.784252 
L 214.663174 1393.769875 
L 218.102311 1393.627519 
L 221.541448 1393.385983 
L 224.980586 1393.26204 
L 228.419723 1393.098912 
L 231.85886 1392.92865 
L 235.297997 1393.021902 
L 238.737134 1393.137544 
L 242.176271 1393.096716 
L 245.615408 1393.069391 
L 249.054545 1393.408145 
" clip-path="url(#pf0f00ef67c)" style="fill: none; stroke: #1f77b4; stroke-width: 1.5; stroke-linecap: square"/>
   </g>
   <g id="line2d_10">
    <path d="M 80.536826 1381.482729 
L 83.975963 1380.382499 
L 87.4151 1379.668828 
L 90.854237 1380.511408 
L 94.293374 1384.161421 
L 97.732512 1390.112939 
L 101.171649 1399.852184 
L 104.610786 1414.798499 
L 108.049923 1431.028796 
L 111.48906 1446.272438 
L 114.928197 1458.834233 
L 118.367334 1459.67171 
L 121.806471 1447.550392 
L 125.245609 1435.154508 
L 128.684746 1427.87215 
L 132.123883 1422.025494 
L 135.56302 1417.604323 
L 139.002157 1414.532246 
L 142.441294 1411.105881 
L 145.880431 1408.273647 
L 149.319569 1406.491559 
L 152.758706 1404.741666 
L 156.197843 1403.304615 
L 159.63698 1402.151669 
L 163.076117 1400.696278 
L 166.515254 1399.498114 
L 169.954391 1398.756404 
L 173.393529 1397.864137 
L 176.832666 1396.936955 
L 180.271803 1396.304548 
" clip-path="url(#pf0f00ef67c)" style="fill: none; stroke: #ff0000; stroke-width: 3; stroke-linecap: square"/>
   </g>
  </g>
  <g id="axes_6">
   <g id="line2d_11">
    <path d="M 46.145455 1666.522089 
L 49.584592 1662.839853 
L 53.023729 1661.349319 
L 56.462866 1661.22364 
L 59.902003 1660.847728 
L 63.34114 1660.586373 
L 66.780277 1660.166037 
L 70.219414 1659.699592 
L 73.658552 1659.266853 
L 77.097689 1658.635471 
L 80.536826 1657.849349 
L 83.975963 1657.242315 
L 87.4151 1656.819597 
L 90.854237 1657.100153 
L 94.293374 1658.944863 
L 97.732512 1662.186933 
L 101.171649 1667.050217 
L 104.610786 1673.920344 
L 108.049923 1680.152843 
L 111.48906 1683.632164 
L 114.928197 1685.713578 
L 118.367334 1685.762464 
L 121.806471 1682.666777 
L 125.245609 1679.563177 
L 128.684746 1678.21057 
L 132.123883 1677.057162 
L 135.56302 1675.891875 
L 139.002157 1674.840244 
L 142.441294 1673.436654 
L 145.880431 1672.157062 
L 149.319569 1671.268584 
L 152.758706 1670.403598 
L 156.197843 1669.665883 
L 159.63698 1668.992947 
L 163.076117 1668.151193 
L 166.515254 1667.442599 
L 169.954391 1666.94429 
L 173.393529 1666.367863 
L 176.832666 1665.797468 
L 180.271803 1665.392014 
L 183.71094 1665.033697 
L 187.150077 1664.689325 
L 190.589214 1664.460332 
L 194.028351 1664.271587 
L 197.467488 1664.068159 
L 200.906626 1663.897591 
L 204.345763 1663.734775 
L 207.7849 1663.581278 
L 211.224037 1663.506748 
L 214.663174 1663.496188 
L 218.102311 1663.415905 
L 221.541448 1663.284305 
L 224.980586 1663.211842 
L 228.419723 1663.109944 
L 231.85886 1663.018693 
L 235.297997 1663.083074 
L 238.737134 1663.148882 
L 242.176271 1663.102843 
L 245.615408 1663.059433 
L 249.054545 1663.203475 
" clip-path="url(#pc2e547de1e)" style="fill: none; stroke: #1f77b4; stroke-width: 1.5; stroke-linecap: square"/>
   </g>
   <g id="line2d_12">
    <path d="M 80.536826 1657.849349 
L 83.975963 1657.242315 
L 87.4151 1656.819597 
L 90.854237 1657.100153 
L 94.293374 1658.944863 
L 97.732512 1662.186933 
L 101.171649 1667.050217 
L 104.610786 1673.920344 
L 108.049923 1680.152843 
L 111.48906 1683.632164 
L 114.928197 1685.713578 
L 118.367334 1685.762464 
L 121.806471 1682.666777 
L 125.245609 1679.563177 
L 128.684746 1678.21057 
L 132.123883 1677.057162 
L 135.56302 1675.891875 
L 139.002157 1674.840244 
L 142.441294 1673.436654 
L 145.880431 1672.157062 
L 149.319569 1671.268584 
L 152.758706 1670.403598 
L 156.197843 1669.665883 
L 159.63698 1668.992947 
L 163.076117 1668.151193 
L 166.515254 1667.442599 
L 169.954391 1666.94429 
L 173.393529 1666.367863 
L 176.832666 1665.797468 
L 180.271803 1665.392014 
" clip-path="url(#pc2e547de1e)" style="fill: none; stroke: #ff0000; stroke-width: 3; stroke-linecap: square"/>
   </g>
  </g>
 </g>
 <defs>
  <clipPath id="p6fdb69357e">
   <rect x="36" y="241.92" width="223.2" height="221.76"/>
  </clipPath>
  <clipPath id="pd33fce09c6">
   <rect x="36" y="508.032" width="223.2" height="221.76"/>
  </clipPath>
  <clipPath id="p7bf3685c8b">
   <rect x="36" y="774.144" width="223.2" height="221.76"/>
  </clipPath>
  <clipPath id="pccdda9a25a">
   <rect x="36" y="1040.256" width="223.2" height="221.76"/>
  </clipPath>
  <clipPath id="pf0f00ef67c">
   <rect x="36" y="1306.368" width="223.2" height="221.76"/>
  </clipPath>
  <clipPath id="pc2e547de1e">
   <rect x="36" y="1572.48" width="223.2" height="221.76"/>
  </clipPath>
 </defs>
</svg>
