<?xml version="1.0" encoding="utf-8" standalone="no"?>
<!DOCTYPE svg PUBLIC "-//W3C//DTD SVG 1.1//EN"
  "http://www.w3.org/Graphics/SVG/1.1/DTD/svg11.dtd">
<svg xmlns:xlink="http://www.w3.org/1999/xlink" width="288pt" height="1440pt" viewBox="0 0 288 1440" xmlns="http://www.w3.org/2000/svg" version="1.1">
 <metadata>
  <rdf:RDF xmlns:dc="http://purl.org/dc/elements/1.1/" xmlns:cc="http://creativecommons.org/ns#" xmlns:rdf="http://www.w3.org/1999/02/22-rdf-syntax-ns#">
   <cc:Work>
    <dc:type rdf:resource="http://purl.org/dc/dcmitype/StillImage"/>
    <dc:date>2023-08-04T10:22:01.097736</dc:date>
    <dc:format>image/svg+xml</dc:format>
    <dc:creator>
     <cc:Agent>
      <dc:title>Matplotlib v3.5.2, https://matplotlib.org/</dc:title>
     </cc:Agent>
    </dc:creator>
   </cc:Work>
  </rdf:RDF>
 </metadata>
 <defs>
  <style type="text/css">*{stroke-linejoin: round; stroke-linecap: butt}</style>
 </defs>
 <g id="figure_1">
  <g id="patch_1">
   <path d="M 0 1440 
L 288 1440 
L 288 0 
L 0 0 
L 0 1440 
z
" style="fill: none"/>
  </g>
  <g id="axes_1">
   <g id="line2d_1">
    <path d="M 46.145455 215.676381 
L 49.584592 215.676381 
L 53.023729 215.676381 
L 56.462866 215.676381 
L 59.902003 215.676381 
L 63.34114 215.676381 
L 66.780277 215.676381 
L 70.219414 215.676381 
L 73.658552 215.676381 
L 77.097689 215.676381 
L 80.536826 215.676381 
L 83.975963 215.676381 
L 87.4151 215.676381 
L 90.854237 215.676381 
L 94.293374 215.676381 
L 97.732512 215.676381 
L 101.171649 215.676381 
L 104.610786 215.676381 
L 108.049923 215.676381 
L 111.48906 215.676381 
L 114.928197 215.676381 
L 118.367334 215.676381 
L 121.806471 215.676381 
L 125.245609 215.676381 
L 128.684746 215.676381 
L 132.123883 215.676381 
L 135.56302 215.676381 
L 139.002157 215.676381 
L 142.441294 215.676381 
L 145.880431 215.676381 
L 149.319569 215.676381 
L 152.758706 215.676381 
L 156.197843 215.676381 
L 159.63698 215.676381 
L 163.076117 215.676381 
L 166.515254 215.676381 
L 169.954391 215.676381 
L 173.393529 215.676381 
L 176.832666 215.676381 
L 180.271803 215.676381 
L 183.71094 215.676381 
L 187.150077 215.676381 
L 190.589214 215.676381 
L 194.028351 215.676381 
L 197.467488 215.676381 
L 200.906626 215.676381 
L 204.345763 215.676381 
L 207.7849 215.676381 
L 211.224037 215.676381 
L 214.663174 215.676381 
L 218.102311 215.676381 
L 221.541448 215.676381 
L 224.980586 215.676381 
L 228.419723 215.676381 
L 231.85886 215.676381 
L 235.297997 215.676381 
L 238.737134 215.676381 
L 242.176271 215.676381 
L 245.615408 215.676381 
L 249.054545 215.676381 
" clip-path="url(#p4d7284c90c)" style="fill: none; stroke: #1f77b4; stroke-width: 1.5; stroke-linecap: square"/>
   </g>
   <g id="line2d_2">
    <path d="M 80.536826 215.676381 
L 83.975963 215.676381 
L 87.4151 215.676381 
L 90.854237 215.676381 
L 94.293374 215.676381 
L 97.732512 215.676381 
L 101.171649 215.676381 
L 104.610786 215.676381 
L 108.049923 215.676381 
L 111.48906 215.676381 
L 114.928197 215.676381 
L 118.367334 215.676381 
L 121.806471 215.676381 
L 125.245609 215.676381 
L 128.684746 215.676381 
L 132.123883 215.676381 
L 135.56302 215.676381 
L 139.002157 215.676381 
L 142.441294 215.676381 
L 145.880431 215.676381 
L 149.319569 215.676381 
L 152.758706 215.676381 
L 156.197843 215.676381 
L 159.63698 215.676381 
L 163.076117 215.676381 
L 166.515254 215.676381 
L 169.954391 215.676381 
L 173.393529 215.676381 
L 176.832666 215.676381 
L 180.271803 215.676381 
" clip-path="url(#p4d7284c90c)" style="fill: none; stroke: #ff0000; stroke-width: 3; stroke-linecap: square"/>
   </g>
  </g>
  <g id="axes_2">
   <g id="line2d_3">
    <path d="M 46.145455 295.830598 
L 49.584592 295.830598 
L 53.023729 295.830598 
L 56.462866 295.830598 
L 59.902003 295.830598 
L 63.34114 295.830598 
L 66.780277 295.830598 
L 70.219414 295.830598 
L 73.658552 295.830598 
L 77.097689 295.830598 
L 80.536826 295.830598 
L 83.975963 295.830598 
L 87.4151 295.830598 
L 90.854237 295.830598 
L 94.293374 295.830598 
L 97.732512 295.830598 
L 101.171649 295.830598 
L 104.610786 295.830598 
L 108.049923 295.830598 
L 111.48906 295.830598 
L 114.928197 295.830598 
L 118.367334 295.830598 
L 121.806471 295.830598 
L 125.245609 295.830598 
L 128.684746 295.830598 
L 132.123883 295.830598 
L 135.56302 295.830598 
L 139.002157 295.830598 
L 142.441294 295.830598 
L 145.880431 295.830598 
L 149.319569 295.830598 
L 152.758706 295.830598 
L 156.197843 295.830598 
L 159.63698 295.830598 
L 163.076117 295.830598 
L 166.515254 295.830598 
L 169.954391 295.830598 
L 173.393529 295.830598 
L 176.832666 295.830598 
L 180.271803 295.830598 
L 183.71094 295.830598 
L 187.150077 295.830598 
L 190.589214 295.830598 
L 194.028351 295.830598 
L 197.467488 295.830598 
L 200.906626 295.830598 
L 204.345763 295.830598 
L 207.7849 295.830598 
L 211.224037 295.830598 
L 214.663174 295.830598 
L 218.102311 295.830598 
L 221.541448 295.830598 
L 224.980586 295.830598 
L 228.419723 295.830598 
L 231.85886 295.830598 
L 235.297997 295.830598 
L 238.737134 295.830598 
L 242.176271 295.830598 
L 245.615408 295.830598 
L 249.054545 295.830598 
" clip-path="url(#pb9d429cedf)" style="fill: none; stroke: #1f77b4; stroke-width: 1.5; stroke-linecap: square"/>
   </g>
   <g id="line2d_4">
    <path d="M 80.536826 295.830598 
L 83.975963 295.830598 
L 87.4151 295.830598 
L 90.854237 295.830598 
L 94.293374 295.830598 
L 97.732512 295.830598 
L 101.171649 295.830598 
L 104.610786 295.830598 
L 108.049923 295.830598 
L 111.48906 295.830598 
L 114.928197 295.830598 
L 118.367334 295.830598 
L 121.806471 295.830598 
L 125.245609 295.830598 
L 128.684746 295.830598 
L 132.123883 295.830598 
L 135.56302 295.830598 
L 139.002157 295.830598 
L 142.441294 295.830598 
L 145.880431 295.830598 
L 149.319569 295.830598 
L 152.758706 295.830598 
L 156.197843 295.830598 
L 159.63698 295.830598 
L 163.076117 295.830598 
L 166.515254 295.830598 
L 169.954391 295.830598 
L 173.393529 295.830598 
L 176.832666 295.830598 
L 180.271803 295.830598 
" clip-path="url(#pb9d429cedf)" style="fill: none; stroke: #ff0000; stroke-width: 3; stroke-linecap: square"/>
   </g>
  </g>
  <g id="axes_3">
   <g id="line2d_5">
    <path d="M 46.145455 375.984815 
L 49.584592 376.431527 
L 53.023729 376.700673 
L 56.462866 376.696825 
L 59.902003 376.750528 
L 63.34114 376.778622 
L 66.780277 376.828189 
L 70.219414 376.882804 
L 73.658552 376.923887 
L 77.097689 376.972607 
L 80.536826 377.02526 
L 83.975963 377.031737 
L 87.4151 376.989455 
L 90.854237 376.845836 
L 94.293374 376.514564 
L 97.732512 376.046423 
L 101.171649 375.360473 
L 104.610786 374.304506 
L 108.049923 373.302659 
L 111.48906 372.799424 
L 114.928197 372.579057 
L 118.367334 372.711722 
L 121.806471 373.488127 
L 125.245609 374.397913 
L 128.684746 374.936508 
L 132.123883 375.259454 
L 135.56302 375.475505 
L 139.002157 375.601989 
L 142.441294 375.739409 
L 145.880431 375.855584 
L 149.319569 375.912475 
L 152.758706 375.965963 
L 156.197843 376.0128 
L 159.63698 376.04716 
L 163.076117 376.098684 
L 166.515254 376.139556 
L 169.954391 376.154089 
L 173.393529 376.181778 
L 176.832666 376.219013 
L 180.271803 376.239643 
L 183.71094 376.253659 
L 187.150077 376.266756 
L 190.589214 376.268996 
L 194.028351 376.269039 
L 197.467488 376.277664 
L 200.906626 376.287614 
L 204.345763 376.293756 
L 207.7849 376.299194 
L 211.224037 376.305442 
L 214.663174 376.314499 
L 218.102311 376.330449 
L 221.541448 376.347578 
L 224.980586 376.357341 
L 228.419723 376.36586 
L 231.85886 376.375835 
L 235.297997 376.377967 
L 238.737134 376.375362 
L 242.176271 376.372408 
L 245.615408 376.37102 
L 249.054545 376.352148 
" clip-path="url(#p4d9b97f0a2)" style="fill: none; stroke: #1f77b4; stroke-width: 1.5; stroke-linecap: square"/>
   </g>
   <g id="line2d_6">
    <path d="M 80.536826 377.02526 
L 83.975963 377.031737 
L 87.4151 376.989455 
L 90.854237 376.845836 
L 94.293374 376.514564 
L 97.732512 376.046423 
L 101.171649 375.360473 
L 104.610786 374.304506 
L 108.049923 373.302659 
L 111.48906 372.799424 
L 114.928197 372.579057 
L 118.367334 372.711722 
L 121.806471 373.488127 
L 125.245609 374.397913 
L 128.684746 374.936508 
L 132.123883 375.259454 
L 135.56302 375.475505 
L 139.002157 375.601989 
L 142.441294 375.739409 
L 145.880431 375.855584 
L 149.319569 375.912475 
L 152.758706 375.965963 
L 156.197843 376.0128 
L 159.63698 376.04716 
L 163.076117 376.098684 
L 166.515254 376.139556 
L 169.954391 376.154089 
L 173.393529 376.181778 
L 176.832666 376.219013 
L 180.271803 376.239643 
" clip-path="url(#p4d9b97f0a2)" style="fill: none; stroke: #ff0000; stroke-width: 3; stroke-linecap: square"/>
   </g>
  </g>
  <g id="axes_4">
   <g id="line2d_7">
    <path d="M 46.145455 456.139032 
L 49.584592 459.025497 
L 53.023729 460.243844 
L 56.462866 460.317928 
L 59.902003 460.617251 
L 63.34114 460.82498 
L 66.780277 461.135034 
L 70.219414 461.477142 
L 73.658552 461.837643 
L 77.097689 462.360159 
L 80.536826 462.993269 
L 83.975963 463.609011 
L 87.4151 464.19405 
L 90.854237 464.278579 
L 94.293374 463.472451 
L 97.732512 461.86593 
L 101.171649 458.928643 
L 104.610786 454.448051 
L 108.049923 449.035416 
L 111.48906 442.266603 
L 114.928197 435.934066 
L 118.367334 434.927713 
L 121.806471 438.82087 
L 125.245609 442.340013 
L 128.684746 444.379916 
L 132.123883 446.454801 
L 135.56302 448.142795 
L 139.002157 449.415508 
L 142.441294 450.854998 
L 145.880431 452.037433 
L 149.319569 452.847912 
L 152.758706 453.653019 
L 156.197843 454.303257 
L 159.63698 454.839666 
L 163.076117 455.484178 
L 166.515254 456.021302 
L 169.954391 456.39806 
L 173.393529 456.810144 
L 176.832666 457.204 
L 180.271803 457.491998 
L 183.71094 457.744452 
L 187.150077 457.977273 
L 190.589214 458.13973 
L 194.028351 458.269202 
L 197.467488 458.37977 
L 200.906626 458.473139 
L 204.345763 458.578677 
L 207.7849 458.675836 
L 211.224037 458.711448 
L 214.663174 458.68386 
L 218.102311 458.703439 
L 221.541448 458.776081 
L 224.980586 458.809598 
L 228.419723 458.871101 
L 231.85886 458.930623 
L 235.297997 458.867461 
L 238.737134 458.810352 
L 242.176271 458.846468 
L 245.615408 458.868595 
L 249.054545 458.747184 
" clip-path="url(#p16c6df4038)" style="fill: none; stroke: #1f77b4; stroke-width: 1.5; stroke-linecap: square"/>
   </g>
   <g id="line2d_8">
    <path d="M 80.536826 462.993269 
L 83.975963 463.609011 
L 87.4151 464.19405 
L 90.854237 464.278579 
L 94.293374 463.472451 
L 97.732512 461.86593 
L 101.171649 458.928643 
L 104.610786 454.448051 
L 108.049923 449.035416 
L 111.48906 442.266603 
L 114.928197 435.934066 
L 118.367334 434.927713 
L 121.806471 438.82087 
L 125.245609 442.340013 
L 128.684746 444.379916 
L 132.123883 446.454801 
L 135.56302 448.142795 
L 139.002157 449.415508 
L 142.441294 450.854998 
L 145.880431 452.037433 
L 149.319569 452.847912 
L 152.758706 453.653019 
L 156.197843 454.303257 
L 159.63698 454.839666 
L 163.076117 455.484178 
L 166.515254 456.021302 
L 169.954391 456.39806 
L 173.393529 456.810144 
L 176.832666 457.204 
L 180.271803 457.491998 
" clip-path="url(#p16c6df4038)" style="fill: none; stroke: #ff0000; stroke-width: 3; stroke-linecap: square"/>
   </g>
  </g>
  <g id="axes_5">
   <g id="line2d_9">
    <path d="M 46.145455 536.293248 
L 49.584592 536.669128 
L 53.023729 536.792332 
L 56.462866 536.812019 
L 59.902003 536.847734 
L 63.34114 536.875382 
L 66.780277 536.919575 
L 70.219414 536.968819 
L 73.658552 537.015517 
L 77.097689 537.087203 
L 80.536826 537.179651 
L 83.975963 537.255826 
L 87.4151 537.316191 
L 90.854237 537.30739 
L 94.293374 537.123564 
L 97.732512 536.774258 
L 101.171649 536.268491 
L 104.610786 535.594899 
L 108.049923 535.05627 
L 111.48906 534.903039 
L 114.928197 534.887127 
L 118.367334 534.88263 
L 121.806471 535.012838 
L 125.245609 535.120422 
L 128.684746 535.102046 
L 132.123883 535.112961 
L 135.56302 535.175297 
L 139.002157 535.263303 
L 142.441294 535.401648 
L 145.880431 535.53623 
L 149.319569 535.637341 
L 152.758706 535.735649 
L 156.197843 535.820721 
L 159.63698 535.903347 
L 163.076117 536.005273 
L 166.515254 536.092072 
L 169.954391 536.157459 
L 173.393529 536.230843 
L 176.832666 536.301089 
L 180.271803 536.352439 
L 183.71094 536.399186 
L 187.150077 536.444658 
L 190.589214 536.476519 
L 194.028351 536.503521 
L 197.467488 536.531297 
L 200.906626 536.553733 
L 204.345763 536.575446 
L 207.7849 536.596125 
L 211.224037 536.605581 
L 214.663174 536.605877 
L 218.102311 536.614093 
L 221.541448 536.628513 
L 224.980586 536.636638 
L 228.419723 536.64901 
L 231.85886 536.659183 
L 235.297997 536.650156 
L 238.737134 536.642052 
L 242.176271 536.649337 
L 245.615408 536.656307 
L 249.054545 536.642399 
" clip-path="url(#p1bfcd9807d)" style="fill: none; stroke: #1f77b4; stroke-width: 1.5; stroke-linecap: square"/>
   </g>
   <g id="line2d_10">
    <path d="M 80.536826 537.179651 
L 83.975963 537.255826 
L 87.4151 537.316191 
L 90.854237 537.30739 
L 94.293374 537.123564 
L 97.732512 536.774258 
L 101.171649 536.268491 
L 104.610786 535.594899 
L 108.049923 535.05627 
L 111.48906 534.903039 
L 114.928197 534.887127 
L 118.367334 534.88263 
L 121.806471 535.012838 
L 125.245609 535.120422 
L 128.684746 535.102046 
L 132.123883 535.112961 
L 135.56302 535.175297 
L 139.002157 535.263303 
L 142.441294 535.401648 
L 145.880431 535.53623 
L 149.319569 535.637341 
L 152.758706 535.735649 
L 156.197843 535.820721 
L 159.63698 535.903347 
L 163.076117 536.005273 
L 166.515254 536.092072 
L 169.954391 536.157459 
L 173.393529 536.230843 
L 176.832666 536.301089 
L 180.271803 536.352439 
" clip-path="url(#p1bfcd9807d)" style="fill: none; stroke: #ff0000; stroke-width: 3; stroke-linecap: square"/>
   </g>
  </g>
  <g id="axes_6">
   <g id="line2d_11">
    <path d="M 46.145455 616.447465 
L 49.584592 619.039877 
L 53.023729 620.722529 
L 56.462866 620.651441 
L 59.902003 620.974281 
L 63.34114 621.14052 
L 66.780277 621.395269 
L 70.219414 621.672281 
L 73.658552 621.941165 
L 77.097689 622.257797 
L 80.536826 622.573125 
L 83.975963 622.814361 
L 87.4151 622.950339 
L 90.854237 622.575717 
L 94.293374 621.670216 
L 97.732512 620.47437 
L 101.171649 617.905949 
L 104.610786 613.185648 
L 108.049923 606.391074 
L 111.48906 596.722966 
L 114.928197 587.649378 
L 118.367334 586.870594 
L 121.806471 593.983644 
L 125.245609 601.295808 
L 128.684746 606.208777 
L 132.123883 610.105861 
L 135.56302 612.678151 
L 139.002157 614.156444 
L 142.441294 615.503361 
L 145.880431 616.458812 
L 149.319569 616.956575 
L 152.758706 617.456023 
L 156.197843 617.829102 
L 159.63698 618.023075 
L 163.076117 618.274983 
L 166.515254 618.462431 
L 169.954391 618.50411 
L 173.393529 618.580669 
L 176.832666 618.694605 
L 180.271803 618.752558 
L 183.71094 618.774086 
L 187.150077 618.77615 
L 190.589214 618.749913 
L 194.028351 618.709685 
L 197.467488 618.67165 
L 200.906626 618.657796 
L 204.345763 618.650929 
L 207.7849 618.638369 
L 211.224037 618.635542 
L 214.663174 618.631849 
L 218.102311 618.65506 
L 221.541448 618.704267 
L 224.980586 618.722664 
L 228.419723 618.739938 
L 231.85886 618.777411 
L 235.297997 618.772949 
L 238.737134 618.750956 
L 242.176271 618.730208 
L 245.615408 618.699539 
L 249.054545 618.575302 
" clip-path="url(#pc06cea02e3)" style="fill: none; stroke: #1f77b4; stroke-width: 1.5; stroke-linecap: square"/>
   </g>
   <g id="line2d_12">
    <path d="M 80.536826 622.573125 
L 83.975963 622.814361 
L 87.4151 622.950339 
L 90.854237 622.575717 
L 94.293374 621.670216 
L 97.732512 620.47437 
L 101.171649 617.905949 
L 104.610786 613.185648 
L 108.049923 606.391074 
L 111.48906 596.722966 
L 114.928197 587.649378 
L 118.367334 586.870594 
L 121.806471 593.983644 
L 125.245609 601.295808 
L 128.684746 606.208777 
L 132.123883 610.105861 
L 135.56302 612.678151 
L 139.002157 614.156444 
L 142.441294 615.503361 
L 145.880431 616.458812 
L 149.319569 616.956575 
L 152.758706 617.456023 
L 156.197843 617.829102 
L 159.63698 618.023075 
L 163.076117 618.274983 
L 166.515254 618.462431 
L 169.954391 618.50411 
L 173.393529 618.580669 
L 176.832666 618.694605 
L 180.271803 618.752558 
" clip-path="url(#pc06cea02e3)" style="fill: none; stroke: #ff0000; stroke-width: 3; stroke-linecap: square"/>
   </g>
  </g>
  <g id="axes_7">
   <g id="line2d_13">
    <path d="M 46.145455 696.601682 
L 49.584592 696.771099 
L 53.023729 696.927922 
L 56.462866 696.916111 
L 59.902003 696.941491 
L 63.34114 696.949373 
L 66.780277 696.969317 
L 70.219414 696.991249 
L 73.658552 696.996733 
L 77.097689 696.993209 
L 80.536826 696.98223 
L 83.975963 696.923676 
L 87.4151 696.816248 
L 90.854237 696.653937 
L 94.293374 696.38535 
L 97.732512 696.054973 
L 101.171649 695.634119 
L 104.610786 694.983441 
L 108.049923 694.493432 
L 111.48906 694.687524 
L 114.928197 695.137936 
L 118.367334 695.388147 
L 121.806471 695.796019 
L 125.245609 696.386133 
L 128.684746 696.738896 
L 132.123883 696.858564 
L 135.56302 696.907023 
L 139.002157 696.905407 
L 142.441294 696.89818 
L 145.880431 696.896082 
L 149.319569 696.870555 
L 152.758706 696.841941 
L 156.197843 696.822795 
L 159.63698 696.802639 
L 163.076117 696.789371 
L 166.515254 696.77614 
L 169.954391 696.75187 
L 173.393529 696.737918 
L 176.832666 696.736061 
L 180.271803 696.727673 
L 183.71094 696.716015 
L 187.150077 696.705481 
L 190.589214 696.690783 
L 194.028351 696.677238 
L 197.467488 696.674895 
L 200.906626 696.675741 
L 204.345763 696.671203 
L 207.7849 696.666805 
L 211.224037 696.669756 
L 214.663174 696.682396 
L 218.102311 696.6974 
L 221.541448 696.708014 
L 224.980586 696.714916 
L 228.419723 696.717529 
L 231.85886 696.721874 
L 235.297997 696.730841 
L 238.737134 696.734119 
L 242.176271 696.727177 
L 245.615408 696.723413 
L 249.054545 696.716229 
" clip-path="url(#p9a1a8935c5)" style="fill: none; stroke: #1f77b4; stroke-width: 1.5; stroke-linecap: square"/>
   </g>
   <g id="line2d_14">
    <path d="M 80.536826 696.98223 
L 83.975963 696.923676 
L 87.4151 696.816248 
L 90.854237 696.653937 
L 94.293374 696.38535 
L 97.732512 696.054973 
L 101.171649 695.634119 
L 104.610786 694.983441 
L 108.049923 694.493432 
L 111.48906 694.687524 
L 114.928197 695.137936 
L 118.367334 695.388147 
L 121.806471 695.796019 
L 125.245609 696.386133 
L 128.684746 696.738896 
L 132.123883 696.858564 
L 135.56302 696.907023 
L 139.002157 696.905407 
L 142.441294 696.89818 
L 145.880431 696.896082 
L 149.319569 696.870555 
L 152.758706 696.841941 
L 156.197843 696.822795 
L 159.63698 696.802639 
L 163.076117 696.789371 
L 166.515254 696.77614 
L 169.954391 696.75187 
L 173.393529 696.737918 
L 176.832666 696.736061 
L 180.271803 696.727673 
" clip-path="url(#p9a1a8935c5)" style="fill: none; stroke: #ff0000; stroke-width: 3; stroke-linecap: square"/>
   </g>
  </g>
  <g id="axes_8">
   <g id="line2d_15">
    <path d="M 46.145455 776.755899 
L 49.584592 778.151332 
L 53.023729 780.197895 
L 56.462866 779.912339 
L 59.902003 780.190731 
L 63.34114 780.233786 
L 66.780277 780.351615 
L 70.219414 780.4742 
L 73.658552 780.472784 
L 77.097689 780.285169 
L 80.536826 779.905065 
L 83.975963 779.175656 
L 87.4151 778.054624 
L 90.854237 776.454617 
L 94.293374 774.611654 
L 97.732512 773.047101 
L 101.171649 770.468534 
L 104.610786 765.101705 
L 108.049923 758.251916 
L 111.48906 751.812988 
L 114.928197 747.123507 
L 118.367334 748.445613 
L 121.806471 757.51009 
L 125.245609 768.370929 
L 128.684746 775.888759 
L 132.123883 780.400391 
L 135.56302 782.783891 
L 139.002157 783.586463 
L 142.441294 783.903787 
L 145.880431 783.922974 
L 149.319569 783.540165 
L 152.758706 783.151755 
L 156.197843 782.806036 
L 159.63698 782.30144 
L 163.076117 781.784139 
L 166.515254 781.302919 
L 169.954391 780.732786 
L 173.393529 780.227631 
L 176.832666 779.874462 
L 180.271803 779.536134 
L 183.71094 779.16673 
L 187.150077 778.79639 
L 190.589214 778.452249 
L 194.028351 778.13512 
L 197.467488 777.905414 
L 200.906626 777.757592 
L 204.345763 777.577433 
L 207.7849 777.399648 
L 211.224037 777.361046 
L 214.663174 777.457609 
L 218.102311 777.548141 
L 221.541448 777.588196 
L 224.980586 777.609549 
L 228.419723 777.568446 
L 231.85886 777.573944 
L 235.297997 777.699108 
L 238.737134 777.756338 
L 242.176271 777.635102 
L 245.615408 777.532263 
L 249.054545 777.446972 
" clip-path="url(#paf79af9d4b)" style="fill: none; stroke: #1f77b4; stroke-width: 1.5; stroke-linecap: square"/>
   </g>
   <g id="line2d_16">
    <path d="M 80.536826 779.905065 
L 83.975963 779.175656 
L 87.4151 778.054624 
L 90.854237 776.454617 
L 94.293374 774.611654 
L 97.732512 773.047101 
L 101.171649 770.468534 
L 104.610786 765.101705 
L 108.049923 758.251916 
L 111.48906 751.812988 
L 114.928197 747.123507 
L 118.367334 748.445613 
L 121.806471 757.51009 
L 125.245609 768.370929 
L 128.684746 775.888759 
L 132.123883 780.400391 
L 135.56302 782.783891 
L 139.002157 783.586463 
L 142.441294 783.903787 
L 145.880431 783.922974 
L 149.319569 783.540165 
L 152.758706 783.151755 
L 156.197843 782.806036 
L 159.63698 782.30144 
L 163.076117 781.784139 
L 166.515254 781.302919 
L 169.954391 780.732786 
L 173.393529 780.227631 
L 176.832666 779.874462 
L 180.271803 779.536134 
" clip-path="url(#paf79af9d4b)" style="fill: none; stroke: #ff0000; stroke-width: 3; stroke-linecap: square"/>
   </g>
  </g>
 </g>
 <defs>
  <clipPath id="p4d7284c90c">
   <rect x="36" y="172.8" width="223.2" height="66.795181"/>
  </clipPath>
  <clipPath id="pb9d429cedf">
   <rect x="36" y="252.954217" width="223.2" height="66.795181"/>
  </clipPath>
  <clipPath id="p4d9b97f0a2">
   <rect x="36" y="333.108434" width="223.2" height="66.795181"/>
  </clipPath>
  <clipPath id="p16c6df4038">
   <rect x="36" y="413.262651" width="223.2" height="66.795181"/>
  </clipPath>
  <clipPath id="p1bfcd9807d">
   <rect x="36" y="493.416867" width="223.2" height="66.795181"/>
  </clipPath>
  <clipPath id="pc06cea02e3">
   <rect x="36" y="573.571084" width="223.2" height="66.795181"/>
  </clipPath>
  <clipPath id="p9a1a8935c5">
   <rect x="36" y="653.725301" width="223.2" height="66.795181"/>
  </clipPath>
  <clipPath id="paf79af9d4b">
   <rect x="36" y="733.879518" width="223.2" height="66.795181"/>
  </clipPath>
 </defs>
</svg>
